<svg width="32" height="33" viewBox="0 0 32 33" fill="none" xmlns="http://www.w3.org/2000/svg">
<path d="M27.5 14C27.8519 6.96136 25 1.00001 16.737 0.622216C11.5754 0.387594 8.05604 3.6723 7.70411 3.90692C7.35218 4.37616 6.41369 5.43196 6.29638 5.66658C6.17907 5.66658 5.82713 6.37045 5.70982 6.48776C5.70982 6.72238 5.4752 7.42625 5.4752 7.42625C5.4752 7.42625 5.24058 7.66087 5.12327 7.66087C5.12327 7.77818 5.00596 8.36473 5.00596 8.48204C5.00596 8.71666 4.65403 9.65515 4.53672 10.0071C4.53672 10.4763 4.4194 10.8283 4.30209 11.1802V12.0014C4.4194 12.4706 4.4194 13.4091 4.30209 13.8783V14.6995C4.4194 14.9341 4.4194 17.0457 4.4194 17.0457C4.30209 18.5708 4.4194 20.0958 4.4194 21.7382C4.4194 23.3805 4.53672 25.0229 4.4194 26.0787C4.30209 26.6652 4.4194 27.4864 4.53672 28.1903C4.53672 28.6595 4.65403 29.1288 4.65403 29.598C4.65403 29.9499 4.65403 30.3019 4.65403 30.6538C4.65403 31.5923 4.53672 32.4135 4.88865 32.7654C5.00596 33 5.35789 33 5.70982 33C5.94445 32.7654 8.05604 33 8.05604 33C8.40797 32.8827 11.81 33 11.81 33C12.0446 32.8827 14.1562 32.8827 14.7428 33H18.0275C18.4967 32.8827 20.2564 33 20.2564 33C21.1949 32.8827 22.2507 32.8827 23.3065 32.8827C24.8315 32.8827 26.2392 32.8827 27.1777 32.5308L27.5 32.5C27.5 32.3827 27.5 32 27.5 32V31.9486C27.2654 31.2447 27.2654 29.7197 27.5 28.7812V28.4292C27.3827 23.7368 27.3827 19.0444 27.5 14ZM26.3565 31.9442C25.1834 31.8269 18.614 31.7096 18.4967 31.7096C18.2621 31.7096 18.1448 31.7096 17.9102 31.7096C17.5582 31.7096 16.0332 31.8269 15.7986 31.7096C15.3293 31.475 13.4523 31.475 13.4523 31.475C13.2177 31.475 11.9273 31.475 11.9273 31.475C11.3407 31.475 10.6369 31.475 9.93301 31.475C8.6426 31.475 7.35218 31.475 6.17907 31.5923H5.94445V31.3577C5.70982 29.7153 5.70982 27.6037 5.70982 25.3748C5.70982 23.2632 5.82713 21.1516 5.59251 19.2746C5.70982 17.9842 5.70982 16.5765 5.70982 15.0514C5.70982 12.4706 5.70982 9.88977 6.29638 7.77818C7.11755 6.48776 7.93873 5.08003 8.87722 4.02423C11.6927 1.67801 14.4807 1.03077 18 1.50001C18.3519 1.50001 19.6788 1.64808 20.5 2.00001L20.7346 2.11732C23.4328 3.29043 26.1481 6.62875 26.5 10.5C26.3827 11.6731 26.5912 12.3533 26.5912 13.2918C26.5912 13.9957 26.5912 14.6995 26.5912 15.4034C26.7085 18.9227 26.7085 22.3247 26.7085 26.0787C26.7085 27.9556 26.7085 29.7153 26.7085 31.5923L26.3565 31.9442Z" fill="#DB8670"/>
<path d="M22.7199 23.2632C22.6026 21.6208 22.6026 19.8612 22.6026 18.3361C22.6026 17.7496 22.6026 17.2803 22.6026 16.8111C22.1334 16.3419 20.9602 16.3419 19.9044 16.3419C19.2006 16.3419 9.34647 16.2246 8.99454 16.6938C8.99454 18.1015 8.99454 19.5093 8.99454 21.0343C8.99454 22.5593 8.99454 24.2017 8.99454 25.7267C9.11185 25.844 9.11185 25.9614 9.22916 26.196C9.22916 26.3133 9.34647 26.3133 9.34647 26.4306C10.7542 26.4306 12.6312 26.4306 14.6255 26.3133C15.4466 26.3133 16.2678 26.3133 17.089 26.196C17.4409 26.196 17.7929 26.196 18.1448 26.196C18.4967 26.196 18.966 26.196 19.4352 26.196C19.6698 26.196 20.0218 26.196 20.3737 26.196C21.0776 26.196 21.7814 26.3133 22.1334 26.196C22.8372 25.9614 22.7199 24.6709 22.7199 23.6151V23.2632ZM11.5754 17.0457C12.9831 16.9284 14.8601 16.9284 16.7371 16.9284C17.9102 16.9284 19.2006 16.9284 20.3737 16.9284H20.9602L20.6083 17.3977C20.1391 17.9842 19.2006 18.8054 18.4967 19.04C18.3794 19.2746 17.3236 20.0958 17.3236 20.0958C17.3236 20.0958 16.6197 20.6824 16.6197 20.917L15.9159 21.2689L14.8601 20.4477C13.5697 19.3919 12.5139 18.5708 11.4581 17.515L10.9888 17.0457H11.5754ZM21.1949 25.2575C21.1949 25.2575 17.7929 25.1402 16.8544 25.4921L15.5639 25.2575C14.0389 25.2575 12.3966 25.2575 10.7542 25.2575H10.0503L10.6369 24.7882C10.8715 24.6709 10.9888 24.4363 11.2234 24.0844C11.4581 23.8498 11.6927 23.4978 11.9273 23.2632C12.0446 23.1459 12.1619 23.0286 12.2792 22.9113C12.5139 22.794 12.8658 22.5593 12.8658 22.3247C12.8658 22.0901 12.8658 21.8555 12.6312 21.7382C12.5139 21.6209 12.2792 21.7382 12.0446 21.8555H11.9273C11.5754 22.0901 10.9888 22.5593 10.6369 23.1459L10.285 23.6151L10.1676 23.0286C10.0503 22.0901 10.0503 21.0343 10.0503 19.8612C10.0503 19.2746 10.0503 18.6881 10.0503 18.1015V17.6323L10.6369 17.9842C10.8715 18.2188 11.3408 18.4535 11.4581 18.9227C12.1619 19.2746 12.8658 19.9785 13.5697 20.6824C14.0389 21.1516 14.3908 21.5035 14.7428 21.8555C15.7986 22.6766 16.6197 21.9728 17.6755 20.917C17.7929 20.7997 17.9102 20.6824 18.0275 20.5651C18.3794 20.2131 18.8486 19.8612 19.2006 19.5093C20.0218 18.8054 20.7256 18.1015 21.4295 17.3977L21.7814 16.9284L21.8987 17.515C22.016 18.5708 22.016 19.8612 22.016 21.0343C22.016 21.8555 22.016 22.6766 22.016 23.3805V23.8498L21.6641 23.6151C21.1949 23.3805 20.8429 22.9113 20.491 22.5593C20.2564 22.2074 19.9044 21.8555 19.5525 21.6209C19.5525 21.6209 19.5525 21.6209 19.4352 21.6209C19.3179 21.7382 19.0833 21.8555 19.0833 21.8555C18.966 22.0901 19.0833 22.2074 19.3179 22.3247C19.4352 22.442 19.6698 22.5593 19.7871 22.794C19.9044 22.9113 20.0218 23.2632 20.1391 23.3805C20.2564 23.4978 20.3737 23.6151 20.6083 23.7324C20.8429 23.9671 21.0776 24.0844 21.0776 24.2017L21.1949 25.2575Z" fill="#DB8670"/>
<path d="M11.1061 11.4148C11.5754 11.5321 14.0389 11.7667 14.0389 11.6494C14.0389 11.6494 16.1505 11.5321 16.2678 11.6494C17.3236 11.7667 18.8486 11.6494 20.3737 11.6494C20.8429 11.6494 21.3122 11.6494 21.7814 11.5321C21.7814 11.4148 21.8987 11.4148 21.8987 11.1802C21.8987 11.1802 21.8987 11.0629 21.8987 10.9456C21.7814 10.8283 21.7814 10.8283 21.7814 10.7109C21.7814 10.5936 21.6641 10.5936 21.6641 10.4763C20.9602 10.4763 20.2564 10.4763 19.5525 10.4763C18.7313 10.4763 18.0275 10.5936 17.4409 10.4763C17.089 10.4763 16.737 10.4763 16.2678 10.4763C15.9159 10.4763 15.5639 10.4763 15.212 10.4763H14.5081C12.8658 10.4763 11.1061 10.4763 10.1676 10.7109V10.8283V10.9456C10.1676 11.1802 10.1676 11.1802 10.1676 11.1802C10.5196 11.2975 10.7542 11.2975 11.1061 11.4148Z" fill="#DB8670"/>
</svg>
