<svg width="25" height="29" viewBox="0 0 25 29" fill="none" xmlns="http://www.w3.org/2000/svg">
<path fill-rule="evenodd" clip-rule="evenodd" d="M24.3851 0.415863C21.3925 0.356454 18.4147 0.371307 16.0592 0.163375C15.0814 0.0742613 13.8962 0.415863 13.111 0.252489C13.2296 0.252489 13.2888 0.207932 13.3629 0.163375C13.4814 -0.0594091 12.5777 0.564386 12.5185 0H11.5999C11.6148 0.0594091 11.674 0.103966 11.7629 0.0891136C11.4962 0.148523 10.9777 0.430716 10.7555 0.252489C10.7851 0.282193 11.4814 0.0594091 11.0074 0H10.7555C10.3851 0.341602 9.62958 -0.0891136 9.2444 0.341602C9.09625 0.163375 8.82959 0.0891136 8.57773 0H8.48885C8.31107 0.13367 7.80737 0.267341 7.57033 0.0891136V0H6.65182C4.93331 0.46042 2.9185 -0.415863 1.61481 0.757466C1.39259 0.683204 1.8074 0.564386 1.77777 0.415863C0.829625 0.816875 0.266665 1.55949 0 2.614V3.96556C0.133333 4.05467 0.133333 4.72302 0 4.81213V10.456C0.266665 14.8523 0 20.2585 0.0888884 24.5359C0.148147 27.7589 1.98518 28.1896 4.79998 28.1599H4.96294C8.38514 28.145 11.6148 27.7886 14.8888 27.8183C16.9184 27.8331 19.5555 28.0708 21.7036 27.9074C23.5851 27.7589 24.4591 26.5707 24.474 24.6993C24.548 17.5702 24.2369 8.58461 24.3851 0.415863ZM4.1185 1.60404C4.38516 1.52978 4.29627 1.82683 4.45924 1.85653C4.59257 1.39611 5.48145 2.04961 5.71849 1.60404C6.14812 1.9605 6.54812 1.97535 7.06663 1.69316C7.05182 1.78227 6.90367 1.75257 6.90367 1.85653C7.15552 1.87139 7.61478 1.85653 7.91107 1.60404C7.89626 2.12387 8.32588 1.84168 8.57773 1.76742C8.59255 1.84168 8.54811 1.84168 8.48885 1.85653C9.2444 1.79712 10.5185 2.04961 11.6888 1.60404C11.674 1.69316 11.5259 1.66345 11.5259 1.76742C15.5703 1.90109 19.2888 1.6189 23.1258 1.76742C23.1258 2.73282 23.0517 3.40117 23.1258 4.63391C18.1332 4.81213 12.3999 4.79728 5.97034 4.79728C3.55554 4.79728 1.39259 5.15374 1.34814 3.20809C1.3037 1.78227 2.62221 1.58919 4.1185 1.60404ZM19.9258 11.7184C19.4221 11.8818 18.9629 11.2877 18.4147 11.2135C17.8073 11.4362 17.4369 11.9115 16.7407 12.06C16.7999 10.0104 16.711 8.25786 16.7407 5.9112C17.5555 5.82209 17.8814 6.16369 18.5036 6.00032C18.6073 6.01517 18.5777 6.14884 18.5925 6.2528C18.7851 5.97061 18.9481 6.19339 19.2592 6.08943C19.0518 6.17854 19.4962 6.47559 19.511 6.17854C19.8221 6.34192 19.4814 7.15879 19.9258 7.1885C19.7184 7.30732 19.7184 7.32217 19.674 7.44099C19.8962 9.149 19.6147 10.6045 19.9258 11.7184ZM22.0295 26.7935C21.0814 27.0014 19.7777 26.7935 18.6666 26.7935C17.1258 26.7935 15.6147 26.3925 14.2073 26.7044C13.9851 26.6747 13.8073 26.6004 13.7036 26.4519C13.0518 26.541 11.6444 26.7638 10.8444 26.7044C10.4888 26.6747 10.1481 26.3182 9.83699 26.2885C9.22958 26.2291 8.87403 26.6895 8.38514 26.5261C8.3407 26.5261 8.29625 26.4964 8.25181 26.4667C7.70367 26.4667 7.06663 26.2885 6.637 26.7044C5.77775 25.8875 4.13331 26.7786 2.68147 26.4519C1.45184 26.1697 1.73332 24.4914 1.5111 23.422C1.62962 23.4517 1.58518 23.63 1.59999 23.7636C1.74814 20.4516 1.77777 14.5404 1.5111 10.4411C1.68888 8.88166 1.67407 7.23305 1.5111 5.64386C1.74814 5.62901 1.71851 5.8815 1.85184 5.98546C6.637 6.32707 10.5777 5.98546 15.4666 6.14884C15.3925 9.19355 15.5999 11.6145 15.5555 13.9017C16.4592 13.7086 17.3184 12.966 18.3258 12.6393C19.3629 12.9215 20.0147 13.5898 21.0221 13.9017C21.2888 13.4859 21.111 12.8175 21.111 12.1343C21.0962 10.2184 21.0517 7.69347 21.1999 5.89635C21.9406 5.8815 22.6666 5.8815 23.3036 5.98546C23.274 9.65397 23.3036 16.2187 23.3036 21.3279C23.2888 23.7042 23.7925 26.4073 22.0295 26.7935Z" fill="#DB8670"/>
<path fill-rule="evenodd" clip-rule="evenodd" d="M8.237 26.4667C8.237 26.4667 8.25213 26.4819 8.26725 26.4819C8.25213 26.4667 8.25213 26.4667 8.237 26.4667Z" fill="#DB8670"/>
<path fill-rule="evenodd" clip-rule="evenodd" d="M8.48885 26.4667C8.41477 26.4816 8.3407 26.4816 8.26662 26.4816C8.31107 26.5113 8.35551 26.5261 8.38514 26.541C8.4444 26.541 8.47403 26.5261 8.48885 26.4667Z" fill="#DB8670"/>
<path fill-rule="evenodd" clip-rule="evenodd" d="M8.10515 20.916C7.95837 21.1011 7.60611 21.0291 7.51804 20.8029C7.19513 20.916 6.06496 20.9468 5.77141 20.916C3.83396 20.7514 2.2341 21.3067 3.52573 22.0266C5.63931 21.8517 7.16578 22.0471 9.69033 21.7386C10.2481 20.9468 8.28128 21.2039 8.10515 20.916Z" fill="#DB8670"/>
<g clip-path="url(#clip0_1138_35899)">
<path d="M7.56719 11.1099C7.55498 11.3153 7.57941 11.5206 7.62522 11.7191C7.65271 11.8437 7.69852 11.9648 7.73517 12.086C7.78098 12.2274 7.8329 12.3654 7.8329 12.5168C7.8329 12.6077 7.80542 12.6919 7.76571 12.7693C7.70158 12.8938 7.63744 13.0183 7.57025 13.1429C7.51527 13.2472 7.4603 13.3482 7.40532 13.4525C7.3534 13.5535 7.30148 13.6545 7.24651 13.7554C7.19764 13.8497 7.14877 13.9439 7.09685 14.0382C7.08158 14.0684 7.06937 14.0987 7.05104 14.1257C7.02661 14.1661 7.00523 14.1627 6.97774 14.1257C6.89833 14.0146 6.81587 13.9069 6.73646 13.7958C6.6143 13.6309 6.48908 13.466 6.36996 13.2977C6.26612 13.153 6.23253 12.9847 6.25391 12.7996C6.29056 12.4663 6.29667 12.1331 6.22947 11.8033C6.19893 11.6552 6.16534 11.5071 6.12258 11.3657C6.09509 11.2749 6.05233 11.1907 6.01568 11.1066C5.98209 11.0325 5.94849 10.9618 5.90879 10.8912C5.83854 10.7666 5.7683 10.6421 5.695 10.5209C5.61864 10.3964 5.54229 10.2752 5.45983 10.1541C5.35904 10.0093 5.2552 9.8646 5.14525 9.72661C5.10249 9.67276 5.04141 9.629 4.98032 9.60544C4.93146 9.58525 4.87038 9.58861 4.81845 9.59871C4.70545 9.6189 4.5955 9.60544 4.48861 9.55832C4.41836 9.52803 4.34201 9.50447 4.26871 9.48091C4.19235 9.45735 4.116 9.43379 4.03659 9.41023C3.92053 9.37657 3.80753 9.38666 3.68842 9.41696C3.47768 9.47417 3.32497 9.61217 3.20892 9.80739C3.07453 10.0363 3.03177 10.2853 3.06842 10.5512C3.09897 10.7767 3.13867 10.9989 3.17837 11.221C3.20281 11.359 3.23335 11.497 3.27 11.6316C3.3097 11.773 3.35246 11.9177 3.40438 12.0524C3.4899 12.2745 3.59985 12.4798 3.74034 12.6683C3.85945 12.8298 3.99689 12.9746 4.1496 13.0957C4.27176 13.1967 4.4092 13.2708 4.55274 13.3347C4.76043 13.4222 4.97727 13.4491 5.19412 13.4525C5.33155 13.4525 5.46899 13.4323 5.60643 13.4222C5.64918 13.4189 5.695 13.4189 5.73776 13.4189C5.8477 13.4222 5.92406 13.4895 5.98514 13.5838C6.10425 13.7588 6.22642 13.9305 6.34248 14.1088C6.42799 14.2367 6.50435 14.368 6.58681 14.4993C6.60819 14.5329 6.62346 14.5666 6.64484 14.5969C6.67233 14.6373 6.67233 14.6777 6.65095 14.718C6.60819 14.7955 6.56849 14.8729 6.51962 14.9469C6.42189 15.095 6.3211 15.2431 6.22031 15.3912C6.12258 15.5359 6.01874 15.6773 5.921 15.8254C5.72859 16.1081 5.50869 16.3605 5.2949 16.6197C5.23382 16.6938 5.17579 16.7712 5.12082 16.8486C5.08111 16.9058 5.07195 16.9765 5.075 17.0472C5.08111 17.1347 5.1086 17.2154 5.15136 17.2895C5.18801 17.3534 5.22771 17.414 5.28574 17.4578C5.33766 17.4982 5.42623 17.4982 5.47815 17.4611C5.58199 17.3871 5.64308 17.2727 5.71638 17.1683C5.83549 16.9933 5.95155 16.8149 6.0676 16.6399C6.16534 16.4918 6.26002 16.3471 6.35775 16.199C6.43716 16.0812 6.51656 15.9634 6.59292 15.8456C6.67843 15.7177 6.7609 15.5864 6.84641 15.4619C6.9075 15.371 6.96858 15.2835 7.03272 15.1993C7.06937 15.1489 7.09075 15.1522 7.13045 15.196C7.31981 15.3912 7.48168 15.6133 7.63744 15.8388C7.73823 15.9836 7.82985 16.135 7.92758 16.2831C8.02226 16.4245 8.12 16.5625 8.21467 16.7038C8.29714 16.8216 8.37654 16.9428 8.45901 17.0606C8.55369 17.1986 8.65142 17.34 8.74915 17.4746C8.79802 17.5419 8.85299 17.6092 8.91408 17.6698C8.95072 17.7068 9.00265 17.7304 9.04846 17.7439C9.1187 17.7641 9.17673 17.727 9.22865 17.6799C9.27752 17.6362 9.31417 17.5789 9.3386 17.515C9.35998 17.4578 9.35693 17.4006 9.32944 17.3433C9.27447 17.2356 9.19506 17.1549 9.1126 17.0774C9.03624 17.0068 8.97516 16.9226 8.91408 16.8385C8.80413 16.687 8.69723 16.5322 8.58423 16.3807C8.35516 16.0711 8.12 15.7682 7.89093 15.4585C7.78709 15.3205 7.68325 15.1825 7.58552 15.0344C7.49084 14.8931 7.43892 14.7281 7.44197 14.5498C7.44503 14.4185 7.47862 14.2973 7.54276 14.1829C7.65882 13.9809 7.77488 13.7824 7.88788 13.5804C7.9795 13.4189 8.06807 13.2506 8.15665 13.0856C8.23605 12.9376 8.33379 12.8063 8.47122 12.7154C8.5659 12.6515 8.66669 12.6043 8.77969 12.5841C8.9324 12.5606 9.07595 12.5067 9.20422 12.4125C9.3722 12.288 9.52185 12.1432 9.65623 11.9749C9.78756 11.8067 9.91584 11.6316 10.038 11.4566C10.1266 11.3321 10.206 11.1941 10.264 11.0494C10.3037 10.945 10.3434 10.8407 10.374 10.7296C10.4014 10.669 10.3984 10.6051 10.4014 10.5445C10.4045 10.4738 10.374 10.4132 10.319 10.3863C10.2518 10.3526 10.1846 10.3594 10.1205 10.4065C10.0472 10.457 10.0014 10.5411 9.94943 10.6152C9.87003 10.733 9.79978 10.8575 9.72037 10.9753C9.62875 11.1133 9.53407 11.2513 9.43939 11.3859C9.36304 11.497 9.27447 11.5912 9.17368 11.6754C9.13092 11.7124 9.08511 11.7427 9.0393 11.773C9.01181 11.7898 8.98737 11.7764 8.99348 11.7393C9.00265 11.6518 9.01486 11.561 9.03013 11.4734C9.06373 11.3153 9.12787 11.1739 9.192 11.0292C9.24087 10.9215 9.29584 10.8171 9.34776 10.7094C9.41496 10.5714 9.46382 10.4301 9.49436 10.2786C9.50047 10.2449 9.50964 10.2113 9.5188 10.1776C9.54018 10.0968 9.51269 10.0329 9.46688 9.97567C9.45161 9.95548 9.42717 9.94202 9.40885 9.92855C9.3722 9.90499 9.33555 9.90836 9.2989 9.92855C9.23782 9.96558 9.192 10.0161 9.15535 10.08C9.10343 10.1743 9.05151 10.2719 9.00265 10.3695C8.9324 10.5176 8.86521 10.669 8.79496 10.8171C8.7461 10.9282 8.69723 11.0393 8.64531 11.147C8.56285 11.3186 8.46511 11.4802 8.34906 11.6249C8.32462 11.6552 8.30324 11.6586 8.28492 11.6215C8.23911 11.5408 8.19635 11.46 8.15665 11.3792C8.13221 11.3321 8.11694 11.2816 8.09862 11.2311C8.03753 11.083 8.03448 10.9316 8.07418 10.7801C8.09862 10.6892 8.14137 10.6051 8.18413 10.5243C8.31241 10.2853 8.50787 10.1069 8.67585 9.90163C8.74915 9.81075 8.8255 9.72661 8.89575 9.6391C8.93545 9.58861 8.9721 9.53139 8.96294 9.45735C8.95989 9.42369 8.95072 9.39003 8.93545 9.35974C8.8988 9.28906 8.84688 9.23184 8.77664 9.19818C8.72777 9.17462 8.68196 9.17462 8.63309 9.19818C8.50482 9.25877 8.39487 9.35637 8.28797 9.45061C8.18413 9.54486 8.08945 9.64919 8.00699 9.767C7.92453 9.8848 7.84512 10.0093 7.78709 10.1473C7.74433 10.2483 7.69852 10.3459 7.66798 10.4502C7.63438 10.5546 7.61301 10.6657 7.59468 10.7734C7.57636 10.8844 7.57025 10.9989 7.55803 11.1133C7.56109 11.1099 7.56414 11.1099 7.56719 11.1099ZM5.67973 11.8706C5.68278 12.0826 5.64613 12.2509 5.55756 12.3957C5.46288 12.5505 5.33461 12.6616 5.17884 12.7356C5.03225 12.8029 4.88259 12.7928 4.73599 12.7322C4.60161 12.675 4.47334 12.5976 4.35728 12.5C4.1893 12.3553 4.05186 12.1803 3.9358 11.985C3.88083 11.8942 3.83196 11.7999 3.7831 11.7057C3.74034 11.6215 3.70063 11.5307 3.66704 11.4432C3.63955 11.3725 3.61817 11.2984 3.6029 11.221C3.57847 11.0965 3.55709 10.9686 3.54182 10.8407C3.52655 10.7195 3.55098 10.5983 3.56931 10.4805C3.58458 10.3661 3.61206 10.255 3.66704 10.1541C3.7098 10.0699 3.77088 10.006 3.85029 9.96894C4.02743 9.8848 4.20457 9.92182 4.3756 9.98241C4.46112 10.0093 4.54053 10.0598 4.61688 10.1103C4.70545 10.1709 4.79097 10.2348 4.86732 10.3089C4.95895 10.3998 5.04752 10.4974 5.12998 10.6017C5.22771 10.7296 5.32239 10.8609 5.40485 10.9989C5.49342 11.1436 5.56061 11.3018 5.60948 11.4701C5.65224 11.6081 5.67362 11.7562 5.67973 11.8706Z" fill="#DB8670"/>
</g>
<path fill-rule="evenodd" clip-rule="evenodd" d="M7.94281 23.801C7.77284 23.4544 6.93847 23.5627 6.53673 23.3678C6.24315 23.1728 2.27213 23.0862 3.19921 24.2233C3.38463 24.4399 3.94088 24.4833 4.6053 24.4724C5.05339 24.4616 7.06208 24.3533 7.8501 24.1692C7.7883 23.9851 8.00462 23.9959 7.94281 23.801Z" fill="#DB8670"/>
<defs>
<clipPath id="clip0_1138_35899">
<rect width="7.34219" height="8.56588" fill="white" transform="matrix(-1 0 0 1 10.4014 9.17773)"/>
</clipPath>
</defs>
</svg>
