<svg width="32" height="32" viewBox="0 0 32 32" fill="none" xmlns="http://www.w3.org/2000/svg">
<path d="M28.9118 0.807797C28.8982 0.663771 28.8778 0.532269 28.8507 0.594889C28.8507 0.576103 28.8575 0.563579 28.8575 0.544793C28.8575 0.532269 28.8643 0.519745 28.8643 0.494697C28.8643 0.457125 28.8643 0.425815 28.8575 0.400767C28.8507 0.344409 28.8303 0.306838 28.8168 0.275528C28.8032 0.244218 28.7896 0.21917 28.7693 0.181598C28.7489 0.150288 28.7285 0.112716 28.681 0.0626199C28.6132 0.0751439 28.5114 0.018786 28.3756 0.00626199C28.3553 0.00626199 28.3417 0 28.3213 0C28.301 0 28.2874 0 28.267 0C28.2467 0 28.2263 0 28.206 0.00626199C28.1924 0.00626199 28.1788 0.012524 28.1584 0.012524C28.1245 0.018786 28.0974 0.025048 28.0702 0.03131C28.0431 0.0375719 28.0091 0.0500959 27.982 0.0626199C27.5476 0.106454 27.853 0 27.3983 0.12524C27.283 0.137764 27.3305 0.112716 27.3983 0.0814059C27.473 0.0563579 27.568 0.025048 27.568 0.025048C27.0997 0.12524 27.3644 0.137764 27.2762 0.200384C26.7264 0.344409 27.0047 0.206646 26.8079 0.21917C26.4685 0.319362 26.2242 0.444601 25.9663 0.500959C25.946 0.494697 25.8917 0.500959 25.946 0.475911C25.5998 0.613675 24.8669 0.738915 24.4665 0.907989C24.4325 0.907989 24.419 0.907989 24.4054 0.907989C24.4868 0.926775 24.5072 0.958084 24.4936 0.983132C24.29 1.03323 24.1203 1.1209 24.0321 1.09585C24.1611 1.06454 24.1611 1.04575 24.2221 1.01444L24.0117 1.08959C23.8014 1.07706 24.2968 0.995656 24.29 0.945561C23.876 1.0708 23.4009 1.24614 23.0752 1.32128C22.987 1.27745 23.8217 1.09585 23.3738 1.15847C23.5435 1.1209 23.7131 1.08959 23.8828 1.05201C23.4688 1.05201 24.1882 0.983132 23.8081 0.964346C23.4756 1.03949 23.2924 1.09585 23.1159 1.15221C22.9327 1.21483 22.7562 1.27118 22.4237 1.36511C22.2879 1.44652 22.4915 1.39642 22.3558 1.47783C21.9079 1.65943 21.7178 1.70326 21.5482 1.72831C21.4667 1.7471 21.3921 1.75336 21.2971 1.79093C21.2495 1.80972 21.202 1.8285 21.141 1.85981C21.1138 1.87234 21.0799 1.89112 21.0527 1.91617C21.0392 1.92869 21.0188 1.93496 21.0052 1.94748C20.9984 1.95374 20.9849 1.96 20.9781 1.96626L20.9645 1.97253L20.9577 1.97879H20.9509C20.9102 1.90991 21.0052 2.07272 20.9916 2.04767L20.9713 2.01636L20.9509 1.98505L20.9441 1.97879V1.97253L20.9374 1.97879C20.9306 1.98505 20.9238 1.99131 20.917 1.99757C20.9034 2.0101 20.8898 2.02262 20.8695 2.03515C20.8356 2.06019 20.8084 2.0915 20.7609 2.12281C20.6727 2.18543 20.5505 2.24805 20.313 2.35451C20.3537 2.30441 20.3876 2.25432 20.4283 2.21048C20.1229 2.36703 20.0619 2.44844 19.9872 2.52358C19.9533 2.56115 19.9193 2.59873 19.8583 2.64882C19.7972 2.69892 19.709 2.76154 19.5664 2.86799C19.5868 2.84294 19.6139 2.81163 19.6547 2.77406C19.6954 2.73649 19.7361 2.70518 19.7768 2.66761C19.8515 2.60499 19.9126 2.55489 19.8718 2.5862C19.675 2.69892 19.6207 2.75528 19.5868 2.81163C19.5461 2.86799 19.5257 2.91809 19.3968 3.0308H19.295C18.786 3.50671 18.338 4.12665 17.9919 4.78416C17.9919 4.74033 18.0326 4.61509 17.9308 4.76537C17.8222 4.97828 17.7204 5.19745 17.6254 5.42288C17.5304 5.64832 17.4354 5.88001 17.3472 6.10544C17.1707 6.56257 17.0146 7.01343 16.8449 7.40793C16.8246 7.51439 16.8042 7.62084 16.7771 7.7273C16.7499 7.79618 16.6956 7.84627 16.716 7.76487C16.5531 8.05292 16.7431 7.79618 16.6956 7.94647C16.6142 8.11554 16.5531 8.15311 16.5871 8.0404C16.5056 8.23452 16.3767 8.47873 16.1798 8.6979C16.1323 8.75426 16.078 8.80436 16.0238 8.85445L15.9355 8.9296C15.9084 8.95465 15.8744 8.97969 15.8405 8.99848L15.7455 9.0611L15.7251 9.07362C15.7184 9.07362 15.7184 9.07989 15.7116 9.07989C15.7048 9.08615 15.6912 9.08615 15.6844 9.09241C15.6708 9.09867 15.6505 9.09867 15.6301 9.10493C15.5962 8.94838 15.569 8.80436 15.5419 8.67286L15.5894 8.79183C15.5351 8.54762 15.4672 8.41611 15.3926 8.29087C15.3179 8.16563 15.2501 8.04666 15.1822 7.82123C15.1958 7.84627 15.2161 7.87132 15.2297 7.90263C15.1279 7.64589 14.9922 7.39541 14.8496 7.15119C14.775 7.03221 14.7071 6.91324 14.6325 6.79426C14.5578 6.67528 14.49 6.5563 14.4153 6.44359C14.266 6.21189 14.1099 5.98646 13.9267 5.78608C13.8316 5.68589 13.7366 5.59196 13.6212 5.51055C13.5059 5.42915 13.3701 5.36653 13.214 5.33522C13.1801 5.34148 13.1326 5.34148 13.0783 5.354C13.0172 5.36026 12.9426 5.37905 12.8883 5.39784C12.7661 5.42915 12.6236 5.47924 12.4879 5.5356C12.2164 5.64832 11.9924 5.81739 11.9992 5.88627C11.8567 5.9802 11.7617 6.06161 11.6938 6.13049C11.6259 6.19937 11.5717 6.25573 11.5241 6.33087C11.497 6.36844 11.4766 6.41228 11.4563 6.46864C11.4427 6.49368 11.4359 6.53126 11.4291 6.56257C11.4223 6.60014 11.4156 6.63771 11.4223 6.68781C11.4291 6.78174 11.4699 6.90071 11.5581 7.00091C11.6463 7.1011 11.7685 7.17624 11.9042 7.22634C11.9449 7.24512 11.9653 7.24512 11.9856 7.25138C12.006 7.25765 12.0332 7.26391 12.0535 7.27017C12.101 7.28269 12.1417 7.28896 12.1825 7.30148C12.2707 7.32027 12.3657 7.35158 12.4946 7.42046L12.4675 7.47055C12.5829 7.52065 12.705 7.58327 12.8204 7.65215C12.8611 7.71477 12.9019 7.77739 12.9426 7.83375C13.0172 7.88385 13.0851 7.93394 13.153 7.9903C13.0783 7.92142 13.0037 7.82749 13.0308 7.82749C13.2005 7.94647 13.3701 8.12806 13.4719 8.29714C13.5262 8.37854 13.5602 8.45369 13.5873 8.51004C13.5873 8.51631 13.5941 8.52257 13.5941 8.52883C13.5941 8.53509 13.6009 8.54135 13.6009 8.54135C13.6009 8.54762 13.6009 8.54762 13.6009 8.55388C13.6009 8.56014 13.5941 8.56014 13.5941 8.5664C13.6077 8.57893 13.6212 8.59771 13.6348 8.6165C13.6416 8.62902 13.6484 8.63528 13.6552 8.64781L13.6688 8.66659L13.6755 8.67912C13.6755 8.68538 13.6823 8.68538 13.6755 8.68538C13.6416 8.69164 13.6009 8.6979 13.5398 8.6979C13.5466 8.67912 13.5737 8.67912 13.5873 8.66659C13.5737 8.67286 13.5602 8.67286 13.5534 8.66659C13.5398 8.66033 13.5398 8.65407 13.533 8.64781C13.533 8.64155 13.5262 8.62902 13.5262 8.62902C13.5466 8.62902 13.4516 8.6165 13.3226 8.60397C13.3905 8.62902 13.2751 8.62902 13.2616 8.64155C13.1326 8.60397 12.9154 8.5664 12.6711 8.54762C12.4268 8.52883 12.1553 8.53509 11.9246 8.56014L12.0128 8.51631C11.9585 8.51631 11.9042 8.52257 11.8567 8.52883C11.8024 8.53509 11.7549 8.54135 11.7006 8.54135C11.5988 8.55388 11.497 8.56014 11.3952 8.57266C11.1916 8.59145 10.9744 8.6165 10.764 8.64781C10.3365 8.71043 9.88854 8.77931 9.44062 8.90455C9.6035 8.87324 9.67137 8.8795 9.66458 8.89829C9.65779 8.91707 9.58314 8.96091 9.45419 8.99848L9.33203 8.97343C9.17593 9.0611 9.61028 8.91081 9.28452 9.0611C9.11485 9.11746 9.06056 9.12372 9.06056 9.09867C9.06056 9.08615 9.07413 9.07362 9.10128 9.04858C9.12843 9.02979 9.16915 9.00474 9.21665 8.98596C9.14879 9.011 9.08092 9.04231 9.01984 9.06736L8.8366 9.14877C8.80945 9.14251 8.89089 9.09867 8.90446 9.06736C8.76873 9.16129 8.23258 9.27401 8.04255 9.43682L8.0154 9.43056C7.6082 9.61842 7.31637 9.78749 7.06526 9.97535C6.81415 10.1569 6.60376 10.3511 6.34586 10.589C6.37301 10.6391 6.16941 10.8082 6.04046 10.9773C5.93866 11.0587 5.83686 11.1401 5.73506 11.2152C5.68076 11.2528 5.62647 11.2966 5.57217 11.3342L5.51109 11.3843C5.49752 11.3906 5.49073 11.4031 5.48395 11.4156L5.4568 11.4469C5.43644 11.472 5.41608 11.497 5.39572 11.5221C5.22605 11.7287 5.02924 11.9416 4.83242 12.1733C4.57452 12.5177 4.7917 12.2985 4.6899 12.4676C4.65596 12.4676 4.54738 12.5866 4.46594 12.6743C4.38449 12.7682 4.33699 12.8246 4.41843 12.6805C4.19447 12.9874 4.07909 13.2128 3.98408 13.4695C3.9705 13.5009 3.96372 13.5322 3.95014 13.5697C3.93657 13.601 3.92978 13.6386 3.923 13.6762C3.91621 13.695 3.91621 13.7138 3.90942 13.7325C3.90942 13.7325 3.90942 13.7388 3.90942 13.7451L3.90264 13.7513L3.88906 13.7764C3.87549 13.7952 3.8687 13.814 3.86192 13.8327C3.78048 13.983 3.70582 14.1646 3.63795 14.3901C3.69225 14.2961 3.74654 14.1959 3.73975 14.2586C3.68546 14.4214 3.59723 14.6155 3.57687 14.5904L3.58366 14.5466C3.46829 15.0601 3.3597 15.6362 3.2579 16.1872C3.21039 16.4565 3.16288 16.7195 3.11537 16.97C3.1018 17.0326 3.09501 17.089 3.08144 17.1453C3.07465 17.1766 3.07465 17.2017 3.06787 17.233C3.06108 17.2643 3.06108 17.2956 3.05429 17.3269C3.04751 17.3895 3.04072 17.4459 3.04072 17.5023C3.03393 17.5586 3.03393 17.615 3.04072 17.6651V17.615C3.02715 17.903 3.04072 18.1911 3.06787 18.4666C3.06787 18.8549 3.02715 18.2349 3 18.523C3.05429 18.9738 3.06787 19.3245 3.05429 19.6501C3.05429 19.6877 3.04751 19.7315 3.04751 19.7691V19.8317C3.04751 19.8693 3.04751 19.9006 3.05429 19.9382C3.06108 19.957 3.06108 19.9695 3.06787 19.982L3.07465 20.0071L3.08823 20.0634C3.09501 20.101 3.1018 20.1386 3.10859 20.1761C3.13573 20.3327 3.16967 20.5018 3.2036 20.6771C3.19682 20.7522 3.19003 20.8274 3.19003 20.9276C3.19003 21.0278 3.2036 21.1467 3.21718 21.2657C3.25111 21.4974 3.31219 21.7542 3.37327 22.0109C3.4072 22.1361 3.43435 22.2676 3.47507 22.4117C3.48865 22.4492 3.49543 22.4805 3.50901 22.5181C3.52258 22.5557 3.53615 22.5933 3.54973 22.6183C3.57687 22.6809 3.59723 22.7373 3.62438 22.7999C3.71939 23.0379 3.80084 23.2633 3.84834 23.4512L3.8687 23.3948C3.97729 23.5701 3.93657 23.6265 3.99086 23.7705C4.01122 23.7392 3.93657 23.5576 4.00444 23.6641C4.17411 24.0586 4.34377 24.4593 4.5338 24.8664C4.62882 25.0667 4.73741 25.2797 4.87314 25.4738C5.00888 25.6742 5.15818 25.8432 5.28713 26.0186C5.355 26.1062 5.42287 26.1939 5.48395 26.2816L5.67398 26.5571C5.80292 26.745 5.93866 26.9266 6.08118 27.1082C6.21691 27.2898 6.35944 27.4651 6.50196 27.6404C6.56983 27.7281 6.63769 27.8158 6.71913 27.9097C6.80057 27.9974 6.87523 28.085 6.95667 28.1727C7.18742 28.4106 7.28243 28.442 7.39102 28.4983C7.44531 28.5296 7.49961 28.5609 7.56069 28.6298C7.62856 28.6987 7.71 28.7989 7.79144 28.968C7.73714 28.9179 7.67606 28.874 7.61498 28.8302C7.66249 28.8866 7.71 28.9429 7.75072 29.0055L7.82537 29.1183C7.83216 29.1308 7.84573 29.1496 7.85931 29.1621C7.87288 29.1746 7.87967 29.1871 7.89324 29.1997C7.9136 29.2184 7.93396 29.2372 7.95432 29.256C8.02897 29.3186 8.09684 29.3687 8.15792 29.4251L8.35474 29.5816C8.48369 29.6881 8.61942 29.7945 8.74837 29.901L8.94518 30.0638L9.0402 30.1452L9.142 30.2329C9.42704 30.4583 9.73245 30.6462 10.0378 30.809C10.35 30.9718 10.6554 31.1096 10.9608 31.2473C10.8862 31.2223 10.8726 31.2411 10.7572 31.1847C10.7844 31.2035 10.8183 31.2285 10.859 31.2536C10.8998 31.2786 10.9405 31.3037 11.0016 31.3287C11.0559 31.3538 11.1102 31.3851 11.1712 31.4039C11.2323 31.4289 11.2866 31.4477 11.3477 31.4665C11.5784 31.5416 11.782 31.573 11.7888 31.5542C11.9992 31.6105 11.8295 31.598 11.9517 31.6481C12.0942 31.6982 12.2843 31.717 12.4471 31.7358C12.6168 31.7546 12.7661 31.7608 12.834 31.7921C12.8476 31.7984 12.8068 31.7984 12.7593 31.7984C13.0037 31.8172 13.5466 31.9048 13.3905 31.836C13.4516 31.8485 13.5127 31.8547 13.5805 31.8673C13.6484 31.8735 13.7095 31.8861 13.7706 31.8861C13.8927 31.8986 14.0149 31.8986 14.1303 31.9048C14.361 31.9111 14.585 31.9111 14.7886 31.9362C15.0533 31.8861 15.6641 31.9737 15.7523 31.8861C15.7319 31.9299 15.9559 31.9424 16.2341 31.9362C16.2681 31.9362 16.302 31.9299 16.3427 31.9299C16.3835 31.9236 16.4242 31.9236 16.4581 31.9174C16.5192 31.9111 16.5871 31.8986 16.6481 31.8923C16.7703 31.8798 16.8721 31.8735 16.9468 31.8673C16.8992 31.8798 16.9603 31.8861 17.0214 31.8986C17.0825 31.9111 17.1368 31.9299 17.0825 31.9424C17.1639 31.9487 17.2454 31.9612 17.3268 31.9737C17.4082 31.9862 17.4897 31.9925 17.5576 31.9988C17.6933 32.005 17.7747 31.9862 17.7408 31.9675C17.7883 31.9737 17.8358 31.98 17.8833 31.9862C17.9308 31.9925 17.9783 31.9925 18.0258 31.9925C18.0733 31.9925 18.1209 31.9925 18.1616 31.9862C18.2091 31.98 18.2498 31.98 18.2973 31.9675C18.3923 31.9487 18.4738 31.9236 18.5416 31.9111C18.6095 31.8923 18.6502 31.8861 18.7385 31.8735C18.8945 31.8547 19.0371 31.8297 19.1728 31.8109C19.3017 31.7984 19.4239 31.7859 19.5257 31.8046C20.0822 31.6794 20.5844 31.479 21.0527 31.2473C21.5142 31.0031 21.9282 30.7151 22.2811 30.3769C22.3015 30.4207 22.0979 30.6023 21.8875 30.7589C21.8604 30.7777 21.8332 30.7965 21.8061 30.8153C21.7789 30.834 21.7518 30.8528 21.7314 30.8716C21.6839 30.9092 21.6364 30.9405 21.5957 30.9655C21.521 31.0219 21.4735 31.0595 21.4939 31.072C21.8943 30.8153 22.1725 30.5585 22.4169 30.2955C22.4779 30.2266 22.539 30.1577 22.6001 30.0889C22.6544 30.02 22.7155 29.9448 22.7766 29.8697C22.8919 29.7257 23.0141 29.5816 23.1702 29.4188C23.3331 29.256 23.1159 29.5378 23.0752 29.6067C23.6317 28.9304 24.2493 28.3543 24.704 27.7093C24.575 27.7845 24.9687 27.2083 25.0026 27.1144C24.9551 27.3524 25.5048 26.5133 25.3759 26.9203C25.4302 26.8326 25.4913 26.7199 25.4573 26.7262C25.5591 26.6072 25.5998 26.5821 25.532 26.7199C25.6949 26.4945 25.7288 26.4068 25.7695 26.3379C25.7899 26.3004 25.8034 26.2628 25.8374 26.2127C25.8713 26.1563 25.912 26.0875 25.9799 25.981C25.9935 25.9935 25.946 26.0812 25.9392 26.1375C26.0478 25.9059 26.1428 25.6679 26.3735 25.3172C26.3735 25.3423 26.4007 25.3172 26.3667 25.3798C26.5364 25.0793 26.6586 24.81 26.7875 24.5345C26.9165 24.2464 27.0522 23.9521 27.2287 23.5952C27.2219 23.7204 27.2558 23.6578 27.3033 23.5639C27.3508 23.4699 27.4051 23.3447 27.4458 23.3322C27.4662 23.2633 27.4933 23.1944 27.5069 23.1193C27.5273 23.0504 27.5409 22.9752 27.5612 22.9126C27.5341 22.9627 27.5069 23.0128 27.4798 23.0692C27.5884 22.7122 27.6155 22.3866 27.7309 22.0923L27.6834 22.3616L27.8598 21.6978L27.7241 22.0673C27.7852 21.6978 27.6223 22.086 27.7716 21.6164C27.7648 21.6414 27.7716 21.6289 27.7784 21.5976C27.7852 21.5663 27.8055 21.5162 27.8191 21.4473C27.8395 21.3221 27.8734 21.1593 27.9073 21.0653C27.9073 20.8837 27.9073 20.6959 27.9616 20.4266C27.9956 20.3577 28.0363 20.4892 28.0566 20.4454C28.0159 20.2638 28.1517 19.5938 28.1109 19.3621C28.1177 19.4372 28.1584 19.4497 28.1652 19.4247L28.1313 19.2681C28.172 19.0991 28.1788 19.0803 28.206 19.1116C28.2806 18.6044 28.0906 19.2619 28.206 18.667C28.206 18.7171 28.2127 18.692 28.2127 18.7922C28.2602 18.4917 28.2806 18.1973 28.2942 17.9093C28.301 17.7653 28.301 17.6212 28.2942 17.4772C28.2874 17.3332 28.2738 17.1892 28.2535 17.0451C28.2738 16.9575 28.3078 17.0764 28.3213 17.2017C28.3417 17.3269 28.3485 17.4459 28.3756 17.3457C28.362 17.1829 28.3281 17.0138 28.2874 16.8573C28.2806 16.8385 28.2806 16.826 28.2874 16.7821C28.2874 16.7446 28.301 16.6945 28.2942 16.6381C28.2738 16.5003 28.267 16.3501 28.2399 16.1935C28.2263 16.1184 28.206 16.037 28.1856 15.9681C28.1652 15.8992 28.1449 15.824 28.1245 15.7552C28.0431 15.4734 27.9616 15.1978 27.887 14.9286L27.9209 15.0726C27.853 15.035 27.8259 14.891 27.7852 14.7094C27.7445 14.5278 27.7037 14.3149 27.6019 14.1333C27.6427 14.221 27.7037 14.2335 27.6834 14.2147C27.5951 13.958 27.4798 13.7012 27.3237 13.4194C27.1676 13.1439 26.9708 12.8433 26.7061 12.5177L26.7875 12.5866C26.7061 12.4488 26.5771 12.2735 26.4414 12.1044C26.3057 11.9291 26.1496 11.7663 26.0274 11.6348C25.9799 11.6035 25.9188 11.5534 25.8781 11.5283C25.8374 11.5033 25.817 11.4908 25.8442 11.5471C25.7559 11.4407 25.6541 11.3467 25.5523 11.2528C25.4505 11.1651 25.3352 11.0837 25.2401 11.0086C25.1926 10.971 25.1451 10.9334 25.1112 10.8896C25.0705 10.8458 25.0365 10.8082 24.9958 10.7518C24.9076 10.6516 24.8126 10.5515 24.704 10.47C24.5954 10.3886 24.4665 10.326 24.3443 10.2759C24.2221 10.2258 24.1 10.1945 24.0117 10.1319C23.9846 10.1194 23.971 10.1006 23.9439 10.0818L23.8692 10.0254C23.8149 9.98787 23.7674 9.9503 23.7131 9.91273C23.6113 9.83759 23.5027 9.7687 23.4009 9.69982C23.5095 9.74992 23.6656 9.8188 23.5842 9.7687C23.3263 9.63094 23.0548 9.52449 22.7833 9.43056C22.8309 9.49318 22.8784 9.49318 23.0277 9.59337C22.9191 9.57458 22.6883 9.5057 22.4847 9.43682C22.858 9.54327 22.5119 9.36794 22.3626 9.29279C22.3829 9.31158 22.3218 9.31158 22.3354 9.3241C22.1454 9.21139 22.1182 9.22391 22.0707 9.23644C22.0232 9.24896 21.9622 9.24896 21.6771 9.14251L21.7178 9.12998C21.4939 9.08615 21.2767 9.07362 21.0324 9.02979C20.9374 8.96717 21.2767 9.04231 21.3038 9.00474C20.9577 8.94212 20.6116 9.00474 20.2994 8.94212C20.4487 8.9296 20.6591 8.94838 20.8084 8.94838C20.4691 8.85445 20.4283 8.87324 20.1705 8.85445H20.1976C20.0008 8.84193 19.804 8.82941 19.6072 8.82314L19.7565 8.83567C19.5393 8.90455 19.3153 8.91707 19.0778 8.92334C18.9556 8.9296 18.8335 8.9296 18.7045 8.93586C18.5688 8.94212 18.433 8.96717 18.2905 9.00474C18.4263 8.96717 18.5077 8.94838 18.5416 8.93586C18.5756 8.92334 18.5756 8.91707 18.5484 8.91707C18.5077 8.91081 18.3923 8.91707 18.4127 8.88576C18.2566 8.88576 18.0258 8.90455 18.0869 8.8795C17.863 8.95465 17.6933 8.94212 17.4354 9.011C17.4558 8.99848 17.4829 8.98596 17.5033 8.97969C17.7544 8.85445 18.0258 8.73548 18.2973 8.59145C18.6027 8.45369 18.786 8.37228 18.9624 8.29714C19.1185 8.23452 19.2678 8.1719 19.5054 8.11554C19.5596 8.10302 19.6207 8.09675 19.675 8.08423C19.7225 8.09049 19.6886 8.10928 19.6343 8.12806C19.6004 8.14059 19.5596 8.15311 19.5325 8.16563C19.4986 8.17816 19.4782 8.18442 19.4782 8.18442C19.5664 8.1719 19.6411 8.16564 19.7225 8.15311C19.7972 8.14685 19.8718 8.13433 19.9465 8.12806C20.089 8.10928 20.2383 8.09049 20.4012 8.07171C20.3333 8.09049 20.408 8.10302 20.5098 8.10928C20.7745 8.07797 20.6795 8.02787 21.0256 8.00909C20.9713 8.0404 20.8966 8.07797 20.7745 8.11554C21.0799 8.05918 21.3785 7.98404 21.6907 7.90889C21.7789 7.92768 21.5074 7.9903 21.3989 8.02787C21.7518 7.95899 22.3151 7.82123 22.4101 7.75234L22.2404 7.77739C22.2811 7.77739 22.2336 7.82123 22.1658 7.84001C21.8739 7.9402 21.7246 7.90889 21.7043 7.89637L21.9282 7.84001C21.6771 7.78365 21.0324 8.02161 20.5709 8.05918C20.6184 8.03413 20.6659 8.00909 20.7202 7.97778C21.8536 7.84627 22.953 7.56448 24.0457 7.27017C24.066 7.28896 24.0932 7.30774 24.1203 7.33905C24.1271 7.33905 24.1271 7.33905 24.1339 7.33905C24.1339 7.34531 24.1339 7.35158 24.1407 7.35158C24.1339 7.34531 24.1271 7.33905 24.1271 7.33905C24.1 7.34531 24.0593 7.35158 24.005 7.3641L23.9032 7.45803L24.0321 7.4142L24.1 7.39541L24.1339 7.38289L24.1475 7.37662H24.1543H24.1611C24.1814 7.38915 24.2289 7.38915 24.2968 7.38289C24.3443 7.37662 24.3986 7.37036 24.4597 7.35784C24.5275 7.34531 24.6022 7.32027 24.6972 7.28896L24.8126 7.22634L24.9212 7.15746C24.9551 7.13241 24.9958 7.11362 25.0298 7.08857L25.1316 7.01343C25.1859 7.00091 25.2469 6.98212 25.3012 6.9696C25.2401 7.00717 25.1791 7.04474 25.1112 7.07605C25.0501 7.11362 24.9823 7.14493 24.9212 7.17624C25.1655 7.1011 25.2809 6.98838 25.4098 6.87567C25.4573 6.87567 25.532 6.84436 25.6202 6.79426C25.6813 6.7379 25.7424 6.67528 25.7967 6.61892C25.851 6.5563 25.912 6.49995 25.9663 6.43733C26.0342 6.4248 25.8374 6.63145 26.1156 6.43733C26.2649 6.26199 25.8917 6.51873 26.1699 6.26199C26.3803 6.13675 26.3532 6.20563 26.5296 5.98646C26.5771 5.97394 26.5432 6.02403 26.4685 6.1117C26.6382 5.92384 26.93 5.63579 26.9708 5.51055C26.9979 5.49177 27.0251 5.46672 27.0522 5.44167C27.0794 5.41036 27.1065 5.37905 27.1404 5.34774C27.2015 5.27886 27.2626 5.20998 27.3101 5.13483C27.4187 4.99707 27.5001 4.88435 27.5341 4.91566C27.5476 4.87809 27.5951 4.7779 27.6494 4.66518C27.7037 4.55247 27.7648 4.42096 27.8191 4.32704C27.7648 4.52742 27.8734 4.34582 27.9956 4.13291C28.1177 3.92001 28.2399 3.66326 28.267 3.73215C28.2874 3.5756 28.3892 3.32512 28.491 3.04333C28.5928 2.76154 28.6946 2.4547 28.7421 2.18543C28.7421 2.21674 28.7421 2.27936 28.7217 2.3232C28.81 2.03515 28.8507 1.95374 28.905 1.75962C28.8711 1.73457 28.8643 1.60307 28.8643 1.45278C28.8643 1.29623 28.8575 1.1209 28.8371 0.995656C28.8778 0.814059 28.905 0.870417 28.9253 0.958085C28.9457 1.04575 28.9661 1.16473 29 1.10837C28.9389 1.11463 28.9253 0.958084 28.9118 0.807797ZM21.2563 7.27017C21.2563 7.25138 21.2767 7.2326 21.3174 7.21381C21.3242 7.22634 21.331 7.23886 21.331 7.25765C21.3038 7.25765 21.2767 7.26391 21.2563 7.27017ZM27.8666 1.22109C27.8666 1.17099 27.8734 1.1209 27.887 1.0708L27.9616 0.801535C27.9616 0.801535 27.9616 0.801535 27.9616 0.795273L27.9684 0.770225C27.9684 0.776487 27.9684 0.789011 27.9684 0.789011C27.9684 0.776487 27.9684 0.770225 27.9684 0.763963L27.982 0.751439C28.0091 0.738915 28.0499 0.732653 28.077 0.732653H28.0906H28.0974V0.738915L28.0838 0.763963C28.077 0.782749 28.0634 0.795273 28.0566 0.807797C28.0499 0.820321 28.0363 0.832845 28.0295 0.839107C28.0295 0.839107 28.0295 0.839107 28.0227 0.845369L28.0091 0.882941L27.982 0.958085C27.9345 1.05201 27.9005 1.13968 27.8666 1.22109ZM27.7852 1.21483C27.7987 1.21483 27.8055 1.22109 27.8123 1.23361L27.7852 1.21483ZM27.792 1.24614C27.792 1.26492 27.792 1.27745 27.792 1.28997C27.7852 1.28371 27.7852 1.27118 27.792 1.24614ZM23.6656 4.4147L23.6181 4.38966C23.6385 4.37713 23.6588 4.37087 23.6792 4.35835C23.686 4.36461 23.686 4.38339 23.6656 4.4147ZM22.0843 5.2225C22.0775 5.20998 22.064 5.19745 22.0572 5.18493C22.0775 5.17867 22.0911 5.16614 22.1115 5.15988C22.1182 5.1724 22.1182 5.19119 22.0843 5.2225ZM18.5552 7.48934L18.5077 7.46429L18.5009 7.45803V7.46429L18.4534 7.43924C18.4534 7.43924 18.4534 7.43924 18.4534 7.43298C18.467 7.42672 18.4738 7.42046 18.4873 7.4142L18.5484 7.44551C18.5484 7.46429 18.5484 7.47682 18.5552 7.48934ZM18.5009 7.48934L18.467 7.47055C18.467 7.46429 18.467 7.46429 18.4602 7.45803L18.5009 7.47682C18.5009 7.48308 18.5009 7.48934 18.5009 7.48934ZM19.58 4.02646C19.5596 4.04525 19.5393 4.07029 19.5121 4.09534C19.4918 4.08908 19.485 4.07029 19.4986 4.05777C19.5054 4.07029 19.5461 4.03898 19.58 4.02646ZM19.4375 4.18301C19.4239 4.2018 19.4103 4.21432 19.4036 4.22684C19.4103 4.21432 19.4239 4.20806 19.4375 4.18301ZM27.0522 16.3563C27.0386 16.3 27.0318 16.2561 27.0318 16.2248C27.0386 16.2499 27.0386 16.2874 27.0522 16.3563ZM27.1608 16.707C27.1404 16.6819 27.154 16.8072 27.154 16.8823C27.1472 16.8197 27.1336 16.7446 27.1133 16.6569C27.1269 16.6381 27.1472 16.6506 27.1608 16.707ZM8.84338 9.86263C8.8366 9.88768 8.79588 9.91899 8.69407 9.96909C8.6805 9.96283 8.66693 9.94404 8.66693 9.93152C8.71443 9.90647 8.77552 9.88768 8.84338 9.86263ZM13.0376 7.01969C13.0308 7.01343 13.0308 7.01343 13.024 7.00717C13.0308 7.00091 13.0376 7.0009 13.0444 6.99464C13.0512 7.0009 13.0579 7.00717 13.0579 7.00091C13.0512 7.00717 13.0512 7.01343 13.0444 7.01969C13.0444 7.02595 13.0376 7.01969 13.0376 7.01969ZM12.4811 6.34966C12.5286 6.39349 12.4946 6.37471 12.5218 6.39975C12.5014 6.38097 12.4811 6.35592 12.4675 6.3434C12.4675 6.33713 12.4471 6.30582 12.4743 6.33713C12.4743 6.33713 12.4811 6.34966 12.4946 6.36218L12.4811 6.34966ZM12.6168 6.3434C12.6304 6.36844 12.6236 6.36844 12.6304 6.37471C12.6779 6.41228 12.61 6.33713 12.6168 6.33087L12.6575 6.38097C12.6643 6.36218 12.6507 6.31835 12.6575 6.29956C12.6711 6.31835 12.6779 6.33087 12.6915 6.34966C12.6915 6.31209 12.7322 6.33087 12.7729 6.35592L12.7458 6.30582C12.7458 6.30582 12.7593 6.32461 12.7661 6.33713C12.7865 6.34966 12.7458 6.30582 12.739 6.28704C12.739 6.28078 12.7593 6.31209 12.7661 6.32461C12.7525 6.28078 12.7458 6.21816 12.7865 6.26199L12.7933 6.27451C12.8136 6.28704 12.7458 6.16806 12.7797 6.21189V6.22442C12.8136 6.23694 12.8136 6.18058 12.8679 6.24947C12.834 6.17432 12.9019 6.27451 12.8611 6.16806C12.8951 6.21189 12.9019 6.23068 12.929 6.26199C12.929 6.26199 12.929 6.26199 12.929 6.26825C12.929 6.26825 12.929 6.26825 12.929 6.26199C12.9561 6.30582 12.9697 6.36844 12.9833 6.39349C12.9358 6.2933 12.9561 6.37471 12.8951 6.24947C12.8951 6.25573 12.9019 6.27451 12.9154 6.29956C12.9086 6.2933 12.9019 6.28078 12.8883 6.25573C12.8883 6.28078 12.9086 6.31209 12.9019 6.31835C12.8951 6.29956 12.8951 6.2933 12.8815 6.27451C12.8951 6.31209 12.9019 6.3434 12.8883 6.33087C12.8815 6.31835 12.8747 6.30582 12.8815 6.30582C12.8679 6.31835 12.8951 6.40602 12.8611 6.38097C12.834 6.30582 12.8476 6.35592 12.8204 6.2933V6.31835L12.834 6.34966C12.8272 6.34966 12.834 6.39975 12.8204 6.38097L12.8136 6.34966L12.8001 6.36844L12.8204 6.39349C12.8272 6.43106 12.8543 6.4749 12.834 6.46237C12.834 6.45611 12.8272 6.46237 12.8068 6.4248C12.8068 6.44985 12.8136 6.46864 12.8001 6.45611C12.7933 6.43733 12.7797 6.38097 12.7729 6.36844C12.7865 6.4248 12.7593 6.38723 12.7729 6.44985C12.7729 6.43733 12.7593 6.39975 12.7593 6.39349L12.7661 6.43733C12.7593 6.4248 12.7525 6.41854 12.7458 6.38723C12.7322 6.38097 12.7729 6.4749 12.7458 6.43733C12.7458 6.43106 12.7458 6.4248 12.7458 6.41854C12.7254 6.39975 12.7254 6.45611 12.705 6.43106C12.6847 6.36218 12.7118 6.41228 12.6983 6.35592C12.6847 6.37471 12.6779 6.44359 12.6575 6.43106L12.6643 6.43733C12.6779 6.53752 12.644 6.39349 12.6372 6.43733C12.6372 6.43106 12.6304 6.38097 12.6304 6.39349C12.6236 6.38097 12.6168 6.39975 12.6032 6.4248C12.5761 6.38723 12.5286 6.32461 12.5625 6.34966L12.6032 6.41228C12.6507 6.39975 12.5761 6.31835 12.6168 6.3434ZM12.6372 6.24947C12.644 6.26199 12.6507 6.26825 12.6643 6.27451H12.6575C12.644 6.26825 12.6372 6.24947 12.6372 6.24947ZM12.6507 6.2933C12.6507 6.2933 12.644 6.2933 12.6507 6.2933C12.644 6.2933 12.6507 6.2933 12.6507 6.2933ZM13.0579 7.00091C13.0579 7.00091 13.0579 6.99464 13.0579 6.98838C13.0579 6.98838 13.0579 6.98838 13.0579 6.99464C13.0647 6.99464 13.0647 6.99464 13.0579 7.00091ZM12.4404 6.49995C12.4404 6.49368 12.4471 6.49368 12.4471 6.48742L12.4539 6.49368C12.4539 6.49995 12.4471 6.50621 12.4471 6.51247C12.4404 6.50621 12.4404 6.50621 12.4404 6.49995ZM12.5082 6.48116C12.5082 6.48742 12.5082 6.48742 12.5082 6.49368C12.5082 6.48742 12.5014 6.48742 12.5014 6.48116C12.5014 6.4749 12.5014 6.4749 12.5014 6.46864C12.5014 6.46864 12.5014 6.4749 12.5082 6.48116ZM12.5489 6.51873C12.5489 6.52499 12.5489 6.53126 12.5489 6.53126L12.5422 6.52499C12.5422 6.51873 12.5422 6.51873 12.5489 6.51873C12.5422 6.51873 12.5422 6.51247 12.5489 6.51873ZM12.5422 6.49995C12.5422 6.49368 12.5422 6.49368 12.5489 6.48742C12.5489 6.49368 12.5489 6.49995 12.5489 6.50621C12.5422 6.50621 12.5422 6.50621 12.5422 6.49995ZM12.4743 6.51247C12.4743 6.50621 12.4743 6.50621 12.4743 6.51247V6.49995L12.4811 6.50621C12.4811 6.51247 12.4811 6.51873 12.4811 6.51873C12.4743 6.51247 12.4743 6.51247 12.4743 6.51247ZM12.4946 6.51873C12.4946 6.52499 12.4946 6.52499 12.4946 6.52499C12.4946 6.52499 12.4946 6.51873 12.4946 6.51873ZM12.4946 6.51873C12.4946 6.50621 12.4946 6.49995 12.4946 6.49368L12.5014 6.49995C12.5014 6.50621 12.5014 6.51247 12.4946 6.51873ZM12.4879 6.4749C12.4879 6.46864 12.4879 6.46864 12.4879 6.4749C12.4879 6.46864 12.4879 6.46864 12.4879 6.4749C12.4879 6.46864 12.4879 6.46864 12.4879 6.4749C12.4879 6.46864 12.4879 6.46864 12.4879 6.4749ZM12.4811 6.49995C12.4743 6.48742 12.4946 6.50621 12.4675 6.4749C12.4743 6.48116 12.4743 6.48116 12.4811 6.48742C12.4811 6.48742 12.4811 6.49368 12.4811 6.49995ZM12.4675 6.49368C12.4675 6.49995 12.4675 6.49995 12.4675 6.49368C12.4607 6.49368 12.4607 6.49368 12.4539 6.48742C12.4607 6.49368 12.4675 6.49368 12.4675 6.49368ZM12.4607 6.51247C12.4607 6.51873 12.4539 6.52499 12.4539 6.52499C12.4539 6.51873 12.4539 6.51247 12.4539 6.50621C12.4607 6.50621 12.4607 6.50621 12.4607 6.51247ZM12.5422 6.52499L12.5489 6.53126H12.5422C12.5422 6.53126 12.5422 6.53126 12.5422 6.52499ZM13.0783 6.14301C13.0783 6.14927 13.0783 6.14927 13.0783 6.14301C13.0783 6.14301 13.0715 6.14301 13.0715 6.13675V6.13049C13.0715 6.13675 13.0783 6.14301 13.0783 6.14301ZM13.0647 6.13049V6.13675C13.0647 6.13675 13.0647 6.13675 13.0647 6.13049C13.0647 6.13049 13.0647 6.13675 13.0647 6.13049ZM13.0104 6.9696C13.0172 6.97586 13.024 6.98212 13.0308 6.98838L13.0172 7.00091C13.0172 6.99464 13.0104 6.98212 13.0104 6.9696ZM13.0376 6.21816C13.0376 6.23068 13.0376 6.23694 13.0308 6.24947C13.0172 6.23068 13.0104 6.21816 13.0104 6.21189C13.024 6.23068 13.0308 6.23068 13.0376 6.21816ZM12.9969 6.19311C13.0037 6.21189 13.0037 6.21816 13.0037 6.23068C13.0037 6.21189 13.0037 6.22442 13.0104 6.23694C13.0104 6.2432 13.0104 6.24947 12.9969 6.24947L12.9901 6.2432C12.9969 6.23068 12.9969 6.21189 12.9969 6.19311ZM12.9697 6.23068C12.9697 6.23068 12.9561 6.20563 12.9494 6.19311C12.9494 6.17432 12.9629 6.19311 12.9765 6.21816C12.9765 6.22442 12.9697 6.22442 12.9697 6.23068ZM12.9629 6.23068C12.9561 6.23068 12.9561 6.23694 12.9561 6.23694L12.9426 6.18058L12.9629 6.23068ZM12.9494 6.23694C12.9494 6.2432 12.9426 6.24947 12.9494 6.26199C12.9494 6.26199 12.9494 6.26199 12.9494 6.25573C12.9426 6.23694 12.929 6.19311 12.929 6.18058L12.9494 6.23694ZM12.6304 6.43106C12.6304 6.43733 12.6236 6.44359 12.6236 6.44985V6.4248C12.6168 6.39975 12.6032 6.41228 12.5965 6.39975C12.5965 6.40602 12.5965 6.41228 12.5965 6.41228C12.5829 6.39975 12.5761 6.38723 12.5625 6.37471C12.5422 6.33087 12.6032 6.40602 12.6304 6.43106ZM12.5557 6.41228L12.5286 6.39975C12.5422 6.41228 12.5489 6.41854 12.5557 6.4248C12.5557 6.4248 12.5557 6.43106 12.5489 6.43106V6.43733C12.5422 6.43106 12.5354 6.4248 12.5286 6.41854C12.5354 6.4248 12.5422 6.43733 12.5489 6.44359C12.5422 6.45611 12.5354 6.46237 12.5286 6.45611C12.5286 6.44985 12.5422 6.44359 12.5218 6.41228L12.5286 6.41854L12.5218 6.41228C12.5218 6.41228 12.5218 6.41228 12.5218 6.40602V6.39975V6.39349C12.515 6.36844 12.4946 6.33087 12.5082 6.3434C12.5489 6.39349 12.5082 6.37471 12.5557 6.41228ZM12.4539 6.48742C12.4539 6.48742 12.4471 6.48116 12.4539 6.48742C12.4471 6.48116 12.4471 6.48116 12.4539 6.48742C12.4539 6.48116 12.4471 6.48116 12.4539 6.48742ZM12.42 6.46864C12.4132 6.46237 12.4132 6.45611 12.4064 6.44985C12.4132 6.45611 12.4132 6.46237 12.42 6.46864ZM12.8001 6.9195C12.8068 6.9195 12.8068 6.9195 12.8001 6.9195C12.8068 6.9195 12.8068 6.9195 12.8001 6.9195C12.8068 6.9195 12.8068 6.9195 12.8001 6.9195ZM13.0104 7.00717V6.98838C13.0172 6.99464 13.0172 7.00091 13.024 7.00717H13.0104ZM13.0783 7.03848C13.0851 7.01343 13.1258 6.99464 13.1258 6.99464C13.119 6.97586 13.1122 6.96333 13.0987 6.96333V6.95707C13.1394 6.98838 13.1394 6.9195 13.1869 6.98838C13.1801 6.97586 13.1801 6.95081 13.1801 6.93202C13.1801 6.93202 13.1869 6.93202 13.1937 6.93202C13.1937 6.92576 13.1869 6.9195 13.1869 6.91324C13.214 7.01343 13.2412 6.88819 13.2955 6.98838C13.2616 6.90071 13.3362 6.9195 13.343 6.85688C13.343 6.86314 13.3498 6.87567 13.343 6.87567C13.3634 6.8694 13.3837 6.89445 13.4041 6.90071C13.3634 6.83809 13.3837 6.80678 13.3769 6.75669C13.438 6.80678 13.4109 6.83809 13.4584 6.89445C13.4244 6.84436 13.4652 6.81931 13.4312 6.78174C13.4719 6.81305 13.4584 6.79426 13.4991 6.83809C13.4516 6.75669 13.5059 6.81305 13.4923 6.75669C13.5398 6.78174 13.5466 6.82557 13.5602 6.788C13.5873 6.80678 13.5805 6.84436 13.5805 6.84436C13.6077 6.83183 13.5534 6.78174 13.5398 6.74416C13.5602 6.70659 13.5805 6.78174 13.6145 6.80678C13.6212 6.80052 13.6145 6.79426 13.6077 6.788C13.6009 6.78174 13.6009 6.76921 13.5941 6.76295C13.5873 6.74416 13.5805 6.73164 13.5873 6.73164C13.5941 6.74416 13.5941 6.74416 13.6009 6.75669C13.5941 6.73164 13.6009 6.72538 13.6009 6.71912C13.6077 6.71285 13.6077 6.70659 13.6145 6.66276C13.6145 6.66902 13.6145 6.67528 13.6145 6.68154C13.6077 6.64397 13.6077 6.6064 13.6009 6.57509C13.6077 6.56883 13.6145 6.51247 13.6212 6.56883C13.6145 6.56883 13.6145 6.59388 13.6145 6.6064L13.6212 6.58135C13.628 6.65023 13.6077 6.61266 13.6145 6.66902C13.6212 6.63771 13.6484 6.56257 13.6552 6.58135C13.6484 6.66276 13.628 6.61892 13.6348 6.68154C13.6348 6.67528 13.628 6.66902 13.6212 6.6565C13.628 6.76921 13.6145 6.65023 13.6212 6.77547C13.6212 6.79426 13.6348 6.73164 13.6348 6.75043C13.6484 6.70033 13.6484 6.68154 13.662 6.63145C13.6891 6.57509 13.6755 6.64397 13.662 6.69407C13.6484 6.74416 13.628 6.788 13.6552 6.7379C13.6755 6.68781 13.723 6.60014 13.7095 6.66276C13.6959 6.68781 13.6823 6.71285 13.662 6.7379C13.662 6.75043 13.7298 6.63771 13.7095 6.70033C13.6891 6.72538 13.6891 6.71285 13.6823 6.71912C13.6484 6.78174 13.7163 6.68781 13.7163 6.69407L13.6688 6.75043C13.6755 6.75043 13.6891 6.74416 13.7095 6.74416C13.7163 6.74416 13.7298 6.74416 13.7366 6.74416C13.7434 6.74416 13.7434 6.74416 13.7502 6.74416C13.757 6.74416 13.757 6.75043 13.7638 6.75669C13.7434 6.76295 13.723 6.76921 13.7095 6.788C13.7706 6.82557 13.7706 6.90071 13.7638 6.9696L13.8249 6.96333C13.8249 6.96959 13.8045 6.98212 13.7909 6.98212C13.7841 7.01343 13.8249 6.96959 13.852 6.96333C13.8588 6.97586 13.8316 6.99464 13.8113 6.99464C13.8791 7.00717 13.9674 7.051 13.9267 7.11362H13.9063C13.8995 7.15119 14.0352 7.09483 14.0013 7.14493H13.9877C14.0013 7.22007 14.0827 7.26391 14.0285 7.35158C14.1099 7.32653 14.0285 7.42672 14.137 7.38915C14.1031 7.44551 14.076 7.44551 14.0624 7.51439C14.0624 7.52691 14.1438 7.50813 14.1574 7.52065L14.1031 7.5457H14.1778L14.1167 7.58327L14.137 7.59579C14.137 7.58953 14.1574 7.57075 14.171 7.56448C14.2117 7.57701 14.1574 7.63963 14.1303 7.65215L14.2049 7.68972C14.1845 7.69599 14.1778 7.68972 14.1642 7.68972C14.2049 7.70225 14.0963 7.71477 14.1574 7.7273C14.171 7.72103 14.1913 7.71477 14.2049 7.71477C14.1778 7.73982 14.1913 7.77739 14.2185 7.79618L14.1913 7.80244L14.1778 7.8087C14.1778 7.8087 14.1778 7.8087 14.1778 7.81496L14.1506 7.82749L14.1778 7.83375V7.82749C14.1845 7.85254 14.2049 7.87132 14.2185 7.89011C14.1981 7.89637 14.1642 7.94647 14.171 7.90263C14.1778 7.90263 14.1845 7.89637 14.1913 7.89637C14.1778 7.85254 14.1099 7.85254 14.1031 7.8087C14.1574 7.75861 14.137 7.82123 14.1845 7.77739C14.137 7.74608 14.0352 7.74608 14.0149 7.69599V7.70851C13.9267 7.76487 14.0285 7.64589 13.9742 7.65841C13.9877 7.65841 14.0285 7.6271 14.0149 7.63337C14.0013 7.59579 13.9402 7.58953 13.8791 7.57075L13.9063 7.55822C13.9131 7.52691 13.8791 7.50813 13.8724 7.48308C13.8452 7.4956 13.8384 7.48308 13.8181 7.51439C13.8791 7.3641 13.6552 7.47055 13.7027 7.33905C13.7095 7.34531 13.7366 7.33905 13.7298 7.33279L13.6688 7.30774C13.6416 7.33905 13.6552 7.33279 13.6348 7.3641C13.6077 7.37662 13.5805 7.38289 13.5737 7.37036C13.6145 7.3641 13.628 7.32027 13.6348 7.29522C13.628 7.30774 13.6145 7.314 13.6009 7.32653C13.6348 7.25138 13.533 7.38915 13.5398 7.32027L13.5602 7.30774C13.5398 7.30774 13.5059 7.32027 13.4991 7.30774C13.533 7.26391 13.5262 7.30148 13.5602 7.27017C13.5398 7.25765 13.4584 7.314 13.4787 7.26391C13.4991 7.25765 13.5059 7.27017 13.5262 7.26391C13.5534 7.20755 13.5398 7.21381 13.533 7.19503L13.5194 7.15119V7.16998C13.4041 7.25138 13.4516 7.15119 13.3634 7.19503C13.4448 7.15119 13.3973 7.16372 13.438 7.11988C13.438 7.1011 13.438 7.07605 13.4516 7.06979C13.4041 7.09484 13.4516 7.01969 13.3837 7.06353C13.3973 7.051 13.3701 7.051 13.3973 7.01343C13.3701 7.01343 13.3837 7.04474 13.3634 7.05726C13.3294 7.06979 13.3226 7.04474 13.3091 7.01969C13.2955 6.99464 13.2819 6.9696 13.2344 6.98838C13.1801 6.99464 13.1394 7.03848 13.0919 7.04474C13.0851 7.04474 13.0783 7.04474 13.0783 7.03848ZM13.7706 6.75043C13.7706 6.75043 13.7773 6.75669 13.7841 6.76295C13.7773 6.75669 13.7706 6.75043 13.7706 6.75043ZM13.7977 6.788C13.8113 6.77547 13.8316 6.76921 13.8316 6.77547C13.8181 6.78174 13.8181 6.79426 13.8045 6.81305C13.8113 6.80052 13.8045 6.79426 13.7977 6.788ZM14.3542 7.91516C14.3542 7.93394 14.2863 7.95273 14.266 7.94647L14.2931 7.95899C14.2456 7.97151 14.2456 7.92142 14.1913 7.94647C14.2049 7.9402 14.2253 7.92768 14.2388 7.91516C14.2456 7.92142 14.2456 7.92768 14.2524 7.93394C14.266 7.90889 14.3339 7.89011 14.3474 7.90263L14.2863 7.92768C14.3271 7.93394 14.2999 7.91516 14.3542 7.91516ZM13.662 7.47682C13.6552 7.47055 13.6552 7.47055 13.6484 7.46429C13.662 7.45177 13.6823 7.44551 13.6959 7.44551C13.6891 7.45177 13.6755 7.46429 13.662 7.47682ZM14.5171 8.44116C14.5103 8.44116 14.5103 8.44116 14.5035 8.44116C14.5103 8.44116 14.5103 8.44116 14.5171 8.44116ZM14.266 8.07171C14.2728 8.07797 14.2796 8.09049 14.2863 8.09675C14.2728 8.10302 14.266 8.10302 14.266 8.08423C14.2728 8.09049 14.266 8.08423 14.266 8.07171ZM14.2456 8.00282C14.2388 8.02161 14.2253 8.03413 14.266 8.02787L14.2456 8.03413C14.2321 8.03413 14.2185 8.02787 14.2253 8.01535C14.2321 8.00909 14.2388 8.00909 14.2456 8.00282ZM14.1913 7.9402C14.1981 7.92142 14.1981 7.91516 14.2185 7.90263C14.2253 7.90889 14.2253 7.91516 14.2321 7.92142L14.1913 7.9402ZM14.2796 9.44308C14.3271 9.49318 14.3746 9.54327 14.4221 9.59963C14.4017 9.59337 14.361 9.57458 14.2931 9.52449C14.2931 9.5057 14.2863 9.48065 14.2796 9.45561C14.2796 9.44934 14.2728 9.44308 14.2728 9.44308C14.2728 9.44308 14.2728 9.44308 14.2796 9.44308ZM15.4537 10.1507C15.5487 10.1382 15.6369 10.1256 15.7319 10.1131L15.5215 10.1945C15.4808 10.182 15.4469 10.1695 15.4537 10.1507ZM13.2073 7.06353L13.1869 7.10736C13.1801 7.1011 13.1733 7.1011 13.1665 7.09484C13.1801 7.08231 13.1869 7.07605 13.2073 7.06353ZM17.8969 9.76244C17.9037 9.76244 17.9173 9.76244 17.924 9.75618C17.9173 9.78749 17.9037 9.8188 17.9037 9.84385L17.8358 9.82506C17.8426 9.83759 17.8426 9.84385 17.8358 9.84385C17.863 9.83759 17.8901 9.83759 17.9037 9.83759C17.9037 9.84385 17.9037 9.85637 17.9105 9.86263C17.9105 9.8689 17.9173 9.8689 17.9173 9.87516C17.9037 9.8689 17.8697 9.86263 17.8087 9.85011L17.7408 9.91899L17.829 9.90021L17.8697 9.88768L17.8901 9.88142H17.9037H17.9105C17.9037 9.88142 17.9037 9.88142 17.9037 9.88142C17.9037 9.88142 17.9105 9.88142 17.9173 9.88142C17.9512 9.91273 18.0326 9.93152 18.2294 9.93152C18.3245 9.90021 18.4263 9.87516 18.5213 9.84385L18.6231 9.88142C18.5416 9.88768 18.4534 9.89394 18.372 9.90647C18.5213 9.93152 18.6095 9.88768 18.7045 9.85637C18.7317 9.87516 18.7724 9.89394 18.8335 9.89394C18.9285 9.86263 19.0303 9.83132 19.1321 9.80001C19.166 9.83132 18.9963 9.8689 19.1999 9.88768C19.3425 9.85011 19.0642 9.81254 19.295 9.78749C19.4443 9.83132 19.3968 9.86263 19.5732 9.83132C19.5936 9.85637 19.5596 9.8689 19.4918 9.87516C19.6479 9.85011 19.8922 9.88142 19.9804 9.83759C20.1297 9.89394 20.4962 9.8689 20.4759 9.9503C20.5234 9.93778 20.7541 9.91273 20.8966 9.93152C20.7609 9.96283 20.8898 9.98161 21.0459 10.0067C21.1274 10.0192 21.1953 10.0317 21.2428 10.0505C21.2903 10.0693 21.3174 10.0881 21.2971 10.1131C21.3921 10.0881 21.5482 10.1256 21.7246 10.1883C21.8128 10.2196 21.9079 10.2509 22.0029 10.2822C22.0504 10.301 22.0979 10.3135 22.1454 10.326C22.1861 10.3385 22.2336 10.3511 22.2743 10.3573C22.254 10.3573 22.2133 10.3573 22.1929 10.3448C22.3626 10.42 22.4033 10.4638 22.5051 10.5201C22.5322 10.4888 22.6137 10.5014 22.7155 10.5139C22.8105 10.5389 22.9191 10.5702 23.0005 10.5828C23.1702 10.7456 22.8309 10.6015 22.8648 10.6892C22.8851 10.6329 23.2516 10.8082 23.2041 10.7268C23.3331 10.8458 23.3195 10.8207 23.367 10.9146C23.4484 10.852 23.5163 10.9773 23.6724 11.0023C23.8557 11.1714 23.6724 11.1088 23.9167 11.234C24.005 11.3279 23.7878 11.2215 23.7878 11.2215C24.0117 11.378 23.9371 11.2403 24.0117 11.2403C24.0864 11.2841 24.1271 11.3092 24.1475 11.3342C24.1678 11.3593 24.1746 11.3718 24.1746 11.3843C24.1678 11.4093 24.1407 11.4156 24.1678 11.4657C24.2561 11.5221 24.3375 11.5596 24.419 11.5972C24.5004 11.6348 24.5683 11.6723 24.6226 11.7224C24.6226 11.7412 24.6429 11.76 24.6022 11.7475C24.704 11.7976 24.8194 11.904 24.9415 12.0168C25.0569 12.1357 25.1723 12.2547 25.2944 12.3236C25.3012 12.3424 25.3012 12.3486 25.3012 12.3612C25.3012 12.3111 25.3284 12.2798 25.3555 12.2735C25.437 12.3674 25.5388 12.4238 25.532 12.4864C25.4845 12.4301 25.4641 12.4363 25.4302 12.4175L25.532 12.5052C25.5523 12.6367 25.403 12.38 25.3623 12.4113C25.4505 12.4989 25.5523 12.5929 25.6474 12.6868C25.7356 12.7807 25.8102 12.8747 25.8645 12.9561C25.8306 13.0249 25.5863 12.6054 25.6813 12.8433C25.6338 12.7557 25.5795 12.6805 25.5184 12.5991C25.5727 12.8308 25.4098 12.4551 25.4505 12.6805C25.5048 12.7557 25.5523 12.812 25.5931 12.8684C25.6338 12.9185 25.6677 12.9623 25.7016 12.9999C25.7695 13.0813 25.8442 13.1627 25.9324 13.3318C26.0138 13.3881 25.9663 13.2817 26.0478 13.338C26.2242 13.5572 26.231 13.6699 26.2378 13.7639C26.2378 13.814 26.2378 13.8515 26.2582 13.9079C26.2785 13.958 26.3057 14.0143 26.3667 14.102C26.4075 14.1396 26.455 14.1646 26.4957 14.2085C26.5161 14.2335 26.5364 14.2586 26.5568 14.3024C26.5771 14.3462 26.5975 14.3963 26.6111 14.4652C26.5771 14.4401 26.5432 14.4214 26.5025 14.4026C26.5636 14.5779 26.6043 14.6155 26.645 14.6593C26.6654 14.6844 26.6857 14.7032 26.6993 14.747C26.7197 14.7908 26.74 14.8472 26.7468 14.9474C26.7061 14.8848 26.6314 14.6781 26.6382 14.7345C26.645 14.7971 26.6518 14.8409 26.6654 14.866C26.6721 14.8973 26.6857 14.9161 26.6993 14.9286C26.7264 14.9599 26.7604 14.9787 26.7875 15.0726L26.7332 15.129C26.7468 15.1728 26.7604 15.2229 26.7807 15.2667C26.7943 15.3168 26.8079 15.3607 26.8215 15.4108C26.8486 15.511 26.8758 15.6111 26.9097 15.7113C26.9368 15.8115 26.9572 15.918 26.9776 16.0244C26.9911 16.0745 26.9979 16.1309 27.0115 16.1872C27.0183 16.2436 27.0318 16.3 27.0386 16.3563C27.0115 16.3313 26.9776 16.2561 26.9776 16.3688C27.0047 16.5129 27.0386 16.6569 27.0658 16.7947C27.0929 16.9324 27.1065 17.0764 27.1133 17.2142C27.1201 17.4897 27.0861 17.7715 27.0386 18.0283L27.0726 18.2349C27.0658 18.2788 27.0318 18.3163 27.0318 18.2662C26.9843 18.4666 27.0658 18.2787 27.0794 18.3789C27.0658 18.4979 27.0251 18.5292 27.0183 18.4541C27.0183 18.548 27.0115 18.6545 27.0047 18.7797C27.0047 18.811 26.9979 18.8423 26.9979 18.8736C26.9979 18.9049 26.9911 18.9425 26.9911 18.9738C26.9911 18.9926 26.9911 19.0114 26.9843 19.0365V19.0678V19.0991C26.9843 19.1304 26.9843 19.1617 26.9911 19.193C26.9979 19.4435 26.9572 19.7065 26.8893 19.8881L26.8825 19.8129C26.8079 20.101 26.9436 20.1636 26.835 20.4329V20.3765C26.8011 20.5393 26.7672 20.7084 26.74 20.8775C26.7332 20.9213 26.7264 20.9651 26.7264 21.009C26.7197 21.0528 26.7197 21.0904 26.7129 21.1342C26.7061 21.2156 26.6925 21.2908 26.6789 21.3659C26.6518 21.5225 26.6111 21.6665 26.5568 21.798C26.5296 21.8669 26.5025 21.9295 26.4685 21.9858C26.455 22.0172 26.4346 22.0422 26.421 22.0735C26.4007 22.1048 26.3871 22.1361 26.3667 22.1674C26.3735 22.1988 26.3667 22.2551 26.3464 22.3177C26.326 22.3804 26.2989 22.4555 26.2717 22.5306C26.2174 22.6809 26.1699 22.8187 26.2174 22.8563C26.1224 23.0253 26.0817 23.0817 26.0342 23.1568C25.9867 23.232 25.9324 23.3259 25.8102 23.5576C25.7492 23.6828 25.7899 23.7768 25.7288 23.9396L25.6745 23.9208L25.627 24.1588L25.5048 24.2402L25.4437 24.3905C25.4777 24.3341 25.532 24.2777 25.5456 24.2965C25.498 24.4155 25.4166 24.547 25.3352 24.6535C25.2537 24.7536 25.1859 24.8225 25.1723 24.8163C25.0908 24.9979 24.9958 25.1795 24.9008 25.3611C24.8872 25.336 24.9347 25.2483 24.9619 25.1732C24.8465 25.48 24.8737 25.192 24.7651 25.4675C24.799 25.4425 24.7854 25.5051 24.7922 25.5176C24.7311 25.5677 24.6565 25.6679 24.5818 25.7744C24.5004 25.8871 24.419 26.006 24.3511 26.1125L24.3443 26.0499C24.2086 26.2315 24.066 26.4256 23.9167 26.626C23.7742 26.8264 23.6181 27.0142 23.4417 27.2083C23.5774 27.0831 23.6113 27.1583 23.5163 27.2772L23.4213 27.2835C23.3874 27.3774 23.5502 27.1833 23.4484 27.3586C23.3127 27.4964 23.3059 27.4087 23.3602 27.3148L23.2177 27.5027C23.1906 27.5027 23.2245 27.4526 23.2109 27.4275C23.177 27.5214 22.8784 27.6905 22.8444 27.8408H22.8173C22.7969 27.8659 22.7698 27.8972 22.7494 27.9222C22.7291 27.9473 22.7087 27.9723 22.6951 27.9974C22.6612 28.0412 22.6273 28.085 22.6001 28.1226C22.539 28.204 22.4847 28.2729 22.4372 28.3418C22.3354 28.4795 22.2336 28.6048 22.0979 28.7551C22.1386 28.7989 22.0164 28.9053 21.9622 29.0243C21.7314 29.231 21.4464 29.4251 21.1545 29.6505C20.9645 29.8259 21.1206 29.7319 21.0527 29.8259C21.0052 29.8008 20.6998 30.0075 20.8356 29.876C20.6523 30.0075 20.5301 30.0763 20.4012 30.164C20.3333 30.2078 20.2655 30.2454 20.1772 30.2955C20.1365 30.3206 20.089 30.3519 20.0415 30.3769C19.9872 30.402 19.9329 30.4333 19.8718 30.4708C19.9397 30.4646 20.0076 30.4395 19.9804 30.4708C19.8854 30.5209 19.7565 30.5522 19.7565 30.5209L19.7768 30.5022C19.7565 30.5147 19.7429 30.5209 19.7225 30.5335C19.7022 30.546 19.6954 30.5523 19.675 30.5585C19.6411 30.571 19.6072 30.5836 19.5732 30.5898C19.5393 30.5961 19.4986 30.6023 19.4646 30.6086C19.4171 30.6149 19.3764 30.6149 19.3289 30.6211C19.1457 30.6337 18.9556 30.6337 18.7724 30.6399C18.3991 30.6462 18.053 30.6524 17.8087 30.7088L17.8358 30.7025C17.7476 30.7151 17.6661 30.7213 17.5779 30.7213C17.4897 30.7213 17.4015 30.7213 17.3064 30.7213C17.0553 30.69 17.4625 30.7025 17.2793 30.6524C17.13 30.6587 16.9875 30.6524 16.8653 30.6462C16.8314 30.6462 16.8042 30.6399 16.7771 30.6399C16.7499 30.6399 16.7228 30.6337 16.6956 30.6337C16.6346 30.6274 16.5803 30.6211 16.5192 30.6086C16.4581 30.6023 16.397 30.5961 16.3292 30.5961H16.2409C16.2138 30.5961 16.1866 30.5961 16.1595 30.5961C16.0441 30.5961 15.9355 30.6086 15.8066 30.6274C15.6098 30.5648 15.2772 30.5836 14.9243 30.5961C14.7478 30.6023 14.5714 30.6086 14.4085 30.6023C14.2456 30.5961 14.0895 30.5836 13.9674 30.5522L13.9945 30.5898C13.8656 30.6086 13.8384 30.5585 13.7502 30.5397C13.7638 30.5648 13.8859 30.5836 13.8045 30.5898C13.2548 30.5648 12.6983 30.4521 12.1689 30.2705C11.6395 30.0889 11.1441 29.8384 10.6894 29.5503C10.6079 29.5002 10.5469 29.4752 10.4993 29.4627C10.4518 29.4501 10.4111 29.4501 10.3704 29.4439C10.289 29.4314 10.2007 29.4126 10.0243 29.231L10.1804 29.2623C9.82746 29.0619 9.51527 28.7989 9.22344 28.5171C8.93161 28.2353 8.66014 27.9347 8.38188 27.6592C8.4226 27.6843 8.44297 27.678 8.49047 27.7344C8.41582 27.5841 8.09684 27.2647 8.06291 27.2835C7.98825 27.1833 8.07648 27.2397 8.04255 27.1708C7.96111 27.0267 7.73036 26.8765 7.71 26.7825C7.71 26.77 7.73036 26.7888 7.74393 26.8076C7.64213 26.7074 7.45889 26.4444 7.47925 26.5446C7.31637 26.2941 7.09919 26.1125 6.96346 25.9121C6.8888 25.8683 6.80736 25.7681 6.73271 25.6804C6.65805 25.5928 6.59697 25.5176 6.54946 25.5239C6.59019 25.5051 6.52232 25.3986 6.4273 25.2797C6.33908 25.1607 6.21691 25.0292 6.14905 24.9603C6.20334 24.9979 6.08797 24.8163 6.15583 24.8538C6.03367 24.6848 5.92508 24.5282 5.90472 24.5846C5.85043 24.3967 5.74184 24.2402 5.64004 24.0961C5.54503 23.9521 5.46359 23.8206 5.48395 23.7016C5.17854 23.1631 4.94101 22.6371 4.75098 22.1174C4.79849 22.1174 4.84599 22.2614 4.90029 22.3991C4.95458 22.5369 5.00209 22.6684 5.04281 22.6434C4.82563 22.1612 4.66275 21.8919 4.54059 21.3847C4.51344 21.2532 4.60167 21.4473 4.62882 21.4912C4.58131 21.3659 4.54059 21.2407 4.50666 21.1217C4.47272 21.0027 4.432 20.8712 4.41164 20.7648C4.35735 20.5393 4.3302 20.3076 4.28948 20.0822C4.26233 20.126 4.2284 20.0446 4.19447 19.9444C4.16053 19.8317 4.1266 19.7002 4.11303 19.694C4.24197 19.8442 4.11981 19.2306 4.28269 19.4685C4.26912 19.4059 4.24876 19.3308 4.22161 19.3495C4.22161 19.2556 4.23519 19.2243 4.27591 19.3182C4.2284 18.9801 4.19447 19.1053 4.16053 18.8048C4.18089 18.8048 4.19447 18.8611 4.22161 18.8924C4.16732 18.7421 4.10624 18.5981 4.09945 18.3414C4.11303 18.3539 4.11981 18.3351 4.13339 18.3727C4.1266 18.3476 4.1266 18.3163 4.11981 18.2913C4.11303 18.2662 4.11303 18.2412 4.10624 18.2099C4.10624 18.0471 4.09945 17.8905 4.09945 17.7277C4.09945 17.5649 4.10624 17.3958 4.14696 17.2017C4.22161 17.352 4.19447 17.0451 4.26912 17.0264L4.27591 16.7696L4.2284 16.8698C4.25555 16.6444 4.2284 16.444 4.26912 16.2561L4.28269 16.4252C4.29627 16.2874 4.30984 16.1434 4.32341 16.0056C4.30305 16.0808 4.28269 16.1622 4.26233 16.2373C4.25555 16.0056 4.16053 16.2499 4.2284 15.9556C4.2284 16.0182 4.26233 15.7301 4.32341 15.6237C4.31663 15.5109 4.30984 15.392 4.35735 15.2354C4.39128 15.1979 4.432 15.2855 4.45236 15.2605C4.432 15.2041 4.45236 15.0726 4.47951 14.9411C4.50666 14.8096 4.5338 14.6781 4.52023 14.603C4.52702 14.6531 4.56095 14.6656 4.57452 14.6468C4.56774 14.6155 4.55416 14.5779 4.54738 14.5466C4.59488 14.4527 4.60846 14.4401 4.62882 14.4652C4.67632 14.3212 4.64918 14.3337 4.62203 14.3462C4.59488 14.3587 4.57452 14.3587 4.66275 14.1959C4.65596 14.2272 4.66954 14.2147 4.65596 14.2711C4.67632 14.2272 4.6899 14.1897 4.71026 14.1458C4.73062 14.102 4.74419 14.0644 4.76455 14.0206C4.79849 13.9392 4.83921 13.8578 4.87314 13.7826C4.95458 13.6261 5.04281 13.4758 5.14461 13.3318C5.26677 13.2817 4.9953 13.601 5.11746 13.5322C5.24641 13.3193 5.36857 13.075 5.47716 12.8371C5.57896 12.5991 5.68755 12.3737 5.85722 12.2171C5.83686 12.2359 5.80971 12.2547 5.78935 12.2735C5.76899 12.2171 5.84364 12.1545 5.93866 12.1107C5.95223 12.1044 5.96581 12.0982 5.97938 12.0919C5.99295 12.0856 6.01331 12.0794 6.02689 12.0669C6.06761 12.0543 6.08797 12.0168 6.1219 11.9917C6.14226 11.9667 6.16262 11.9479 6.18298 11.9228C6.20334 11.8978 6.2237 11.8727 6.23727 11.8477C6.20334 11.8978 6.23049 11.9416 6.23049 11.9228C6.45445 11.6911 6.6852 11.4281 7.07883 11.09L7.0449 11.1463C7.22135 11.0399 7.47925 10.8395 7.66928 10.7268C7.70321 10.6704 7.8118 10.6015 7.72357 10.6141C7.88645 10.5452 8.03576 10.4638 8.1715 10.3761C8.23936 10.3323 8.30723 10.2822 8.36831 10.2384C8.40224 10.2133 8.42939 10.1883 8.46333 10.1695L8.51083 10.1319L8.53119 10.1131L8.57191 10.0818C8.61942 10.0505 8.70086 10.0129 8.76873 9.98161C8.8366 9.9503 8.91125 9.91899 8.9859 9.89394C9.12843 9.84385 9.28452 9.80628 9.44062 9.78749C9.37275 9.80628 9.28452 9.85637 9.33882 9.84385C9.5017 9.78749 9.66458 9.73113 9.82746 9.67477C9.77317 9.64346 9.75281 9.66851 9.63743 9.66225C9.69173 9.61842 9.82746 9.56206 9.95641 9.53075C9.73923 9.61842 9.97677 9.59963 10.0854 9.59337C10.065 9.58711 10.0921 9.56206 10.0854 9.54954C10.3704 9.56206 10.1057 9.44934 10.4858 9.4243L10.4722 9.44934C10.6079 9.40551 10.7233 9.35541 10.8794 9.33663C10.9473 9.3742 10.7369 9.38672 10.7369 9.43056C10.9405 9.38672 11.1305 9.26775 11.3341 9.29906C11.2459 9.3241 11.1169 9.33663 11.0287 9.36168C11.1373 9.3742 11.1916 9.38046 11.2459 9.38046C11.3002 9.38046 11.3409 9.3742 11.4156 9.3742H11.402C11.4088 9.3742 11.4156 9.3742 11.4223 9.3742H11.4156C11.4766 9.3742 11.5377 9.38046 11.6056 9.38046C11.5649 9.3742 11.5309 9.3742 11.5038 9.3742C11.5852 9.3742 11.6735 9.38046 11.7549 9.38046L11.6667 9.36794C11.7956 9.29906 11.9313 9.29279 12.0807 9.29279C12.23 9.29279 12.3861 9.30532 12.5693 9.27401C12.2164 9.33037 12.5082 9.31784 12.4743 9.3742C12.5625 9.39925 12.705 9.4243 12.6643 9.43682C12.8408 9.39925 12.9494 9.48692 13.1937 9.4243C13.2005 9.44308 13.3701 9.43056 13.3362 9.48065C13.5534 9.47439 13.2887 9.44934 13.3091 9.4243C13.4787 9.39925 13.6755 9.43056 13.8791 9.47439C13.9334 9.48692 13.9809 9.49944 14.0352 9.51196C14.0624 9.51822 14.0895 9.52449 14.1099 9.53075L14.1506 9.54327L14.171 9.54954L14.1913 9.5558H14.2049L14.2117 9.56206L14.2524 9.59337C14.2931 9.63094 14.3406 9.66851 14.3881 9.70608C14.5375 9.84385 14.6393 9.91273 14.7411 9.98161C14.7886 10.0129 14.8361 10.0505 14.8972 10.0881C14.9379 10.1131 14.9854 10.1256 15.0329 10.1382C15.0736 10.1507 15.1143 10.1569 15.1551 10.1569C15.1822 10.1695 15.1618 10.182 15.1211 10.1945C15.094 10.2008 15.0668 10.2008 15.0397 10.2008C15.0125 10.2008 14.999 10.1945 14.999 10.1945C15.1143 10.2509 15.2365 10.2384 15.3247 10.2258C15.4129 10.2133 15.5012 10.1945 15.603 10.1695C15.5623 10.1883 15.6098 10.2008 15.6708 10.2133C15.8337 10.1883 15.7659 10.1319 15.983 10.1256C15.9491 10.1507 15.9084 10.1883 15.8337 10.2258C16.0238 10.182 16.207 10.1131 16.397 10.0568C16.4581 10.0755 16.2884 10.1319 16.2274 10.1632C16.3359 10.1319 16.4785 10.0943 16.6006 10.0505C16.6617 10.0254 16.716 10.0004 16.7499 9.98161C16.7907 9.96283 16.8178 9.94404 16.8314 9.93152C16.7974 9.93778 16.7635 9.93778 16.7296 9.94404C16.7567 9.9503 16.7364 9.98787 16.6956 10.0067C16.5192 10.1006 16.4174 10.063 16.4038 10.0505C16.4513 10.038 16.492 10.0192 16.5395 10.0067C16.4513 9.97535 16.3224 10.0129 16.1663 10.0568C16.017 10.1006 15.8473 10.1569 15.7048 10.1757L15.7862 10.1006C16.078 10.0568 16.3699 10.0067 16.6617 9.91899C17.035 9.79375 17.4829 9.83132 17.8969 9.76244ZM27.8123 1.08959C27.8055 1.10837 27.8055 1.13342 27.7987 1.15847C27.7784 1.15847 27.758 1.15221 27.7648 1.13968C27.7716 1.14594 27.792 1.10837 27.8123 1.08959ZM27.5341 1.02697C27.5341 1.03949 27.5341 1.05828 27.5341 1.0708L27.4866 1.04575C27.4866 1.03323 27.4933 1.0207 27.4933 1.00818L27.5341 1.02697ZM18.3312 7.33905L18.3516 7.35158C18.3516 7.35784 18.3516 7.3641 18.3584 7.3641C18.3584 7.37036 18.3584 7.37036 18.3584 7.37662C18.3516 7.37662 18.3448 7.37662 18.338 7.38289L18.3041 7.37036C18.3109 7.35784 18.3177 7.34531 18.3312 7.33905ZM18.2837 7.32027L18.2973 7.32653L18.2837 7.35784L18.2566 7.34531L18.2837 7.32027ZM18.2905 7.37662L18.3177 7.38915L18.3109 7.39541L18.2905 7.37662C18.2905 7.37662 18.2905 7.38289 18.2905 7.37662ZM24.1135 4.13291L24.0796 4.20806C24.066 4.2018 24.0457 4.18927 24.0389 4.17049C24.066 4.15796 24.0932 4.14544 24.1135 4.13291ZM27.7445 1.14594L27.7716 1.16473C27.758 1.17725 27.7445 1.18352 27.7377 1.18352L27.7173 1.17099C27.7241 1.16473 27.7309 1.15847 27.7445 1.14594ZM17.5779 8.1719C17.5711 8.1719 17.5711 8.1719 17.5643 8.1719C17.5643 8.16564 17.5643 8.15937 17.5643 8.14685C17.5847 8.15937 17.5983 8.1719 17.6254 8.13432C17.6119 8.10301 17.5847 8.10928 17.5643 8.11554C17.5643 8.10302 17.5643 8.09675 17.5643 8.08423C17.5711 8.09049 17.5847 8.09049 17.5983 8.08423L17.6119 8.02161C17.6119 8.01535 17.6119 8.00282 17.6119 7.97778C17.639 7.97778 17.6458 7.9903 17.6526 8.02161C17.6458 7.95899 17.6865 7.87132 17.6526 7.82749C17.7204 7.78992 17.7001 7.63963 17.7815 7.66468C17.7679 7.63963 17.7476 7.55196 17.7612 7.4956C17.8358 7.61458 17.829 7.30774 17.9308 7.3641C17.863 7.27017 17.9715 7.10736 17.9648 6.97586C17.9715 6.98212 17.9783 7.00091 17.9715 7.01343C18.0055 6.95081 18.0394 6.93828 18.0666 6.90071C17.9919 6.8694 18.0123 6.76295 17.9851 6.68781C18.0869 6.63145 18.053 6.76295 18.1344 6.76295C18.0733 6.75043 18.1276 6.60014 18.0666 6.61266C18.1344 6.56257 18.1073 6.56883 18.1819 6.5563C18.0937 6.51247 18.1887 6.49368 18.148 6.4248C18.2294 6.34966 18.243 6.43106 18.2566 6.32461C18.3041 6.28704 18.3041 6.38723 18.3041 6.38723C18.3448 6.28704 18.2566 6.31835 18.2227 6.28078C18.2498 6.15554 18.2973 6.2432 18.3516 6.21816C18.3652 6.13675 18.3245 6.05534 18.3516 6.00525C18.3652 6.00525 18.372 5.99899 18.3855 6.01777C18.3788 5.96768 18.3991 5.91132 18.4263 5.85496C18.4534 5.7986 18.4806 5.73598 18.467 5.67962C18.4738 5.67336 18.4806 5.67336 18.4873 5.67336C18.4466 5.67336 18.4127 5.66084 18.3855 5.64831C18.4059 5.60448 18.3855 5.54812 18.433 5.55439C18.4195 5.57943 18.433 5.59196 18.4398 5.61074L18.4466 5.55439C18.5281 5.54186 18.4398 5.62327 18.4873 5.64831C18.5077 5.54812 18.5145 5.42915 18.5688 5.36653C18.6366 5.37905 18.5077 5.52934 18.6095 5.46672L18.5281 5.56065C18.6706 5.52934 18.4873 5.61701 18.6299 5.59196C18.7181 5.46672 18.6774 5.42915 18.7724 5.30391C18.7588 5.26007 18.7181 5.29138 18.6977 5.24129C18.7452 5.02212 18.9353 5.1724 18.9421 4.99707C18.9285 4.94071 18.8538 4.88435 18.9624 4.80921L19.0031 4.87809C19.0914 4.75911 18.9556 4.75285 19.0914 4.65266C19.0981 4.69023 19.0439 4.75911 19.0642 4.74659C19.1728 4.69649 19.0642 4.66518 19.1117 4.60256L19.1796 4.62761C19.2203 4.56499 19.261 4.48985 19.3017 4.4147C19.3425 4.33956 19.39 4.26442 19.4443 4.19553C19.4511 4.21432 19.4511 4.25189 19.4918 4.23311C19.6139 4.05151 19.8243 3.8887 20.0144 3.77598L20.0347 3.68205C20.0483 3.66953 20.0822 3.67579 20.0754 3.70084C20.1569 3.66326 20.0551 3.66953 20.0687 3.63195C20.1026 3.60064 20.1433 3.61317 20.1297 3.64448C20.1705 3.58186 20.2315 3.49419 20.313 3.41905C20.3944 3.35016 20.4826 3.28128 20.5641 3.2625L20.5505 3.29381C20.6659 3.24371 20.598 3.12473 20.727 3.10595L20.7134 3.12473C20.7745 3.09342 20.8356 3.06211 20.8966 3.02454C20.9238 3.00576 20.9577 2.98697 20.9849 2.97445C20.9984 2.96818 21.0052 2.96192 21.0188 2.95566L21.0663 2.93687C21.1885 2.88052 21.3174 2.83668 21.4328 2.83042C21.4328 2.74275 21.7043 2.75528 21.6703 2.64882C21.84 2.6363 21.8061 2.67387 22.03 2.61751C22.0843 2.59873 22.0843 2.51732 22.1454 2.47975L22.1725 2.52984L22.2404 2.43591L22.3218 2.47975L22.3761 2.44218C22.349 2.44844 22.3151 2.44218 22.3083 2.42339C22.3897 2.36077 22.5594 2.37956 22.573 2.4046C22.6476 2.36703 22.7223 2.3232 22.7969 2.28563C22.7969 2.30441 22.7766 2.31694 22.7562 2.33572C22.8376 2.27936 22.7833 2.39834 22.8784 2.31694C22.858 2.31067 22.8784 2.27936 22.8784 2.26684C22.9055 2.2731 22.9462 2.2731 22.9937 2.26684C23.0141 2.26058 23.0412 2.26058 23.0616 2.25432L23.1023 2.24179C23.1227 2.23553 23.143 2.22927 23.1634 2.21674C23.1838 2.21048 23.1973 2.19796 23.2109 2.1917V2.23553C23.3874 2.17917 23.5706 2.08524 23.7742 2.02262C23.6928 2.02888 23.686 1.96 23.7471 1.93495L23.7946 1.98505C23.8217 1.93496 23.7267 1.98505 23.7878 1.91617C23.8692 1.89738 23.8624 1.96626 23.8285 1.99757L23.9167 1.94748C23.9303 1.96626 23.9099 1.97879 23.9099 2.00384C23.9371 1.95374 24.0864 2.0101 24.1203 1.93495L24.1135 1.94122C24.3172 1.8786 24.4054 1.83476 24.575 1.78467C24.5615 1.73457 24.6293 1.72831 24.6701 1.67195C24.799 1.65317 24.9483 1.65317 25.0976 1.60933C25.1926 1.55297 25.118 1.55924 25.1519 1.5154C25.1723 1.55924 25.3216 1.5154 25.2537 1.5655C25.4302 1.50914 25.4845 1.49035 25.7016 1.3839C25.6677 1.37138 25.6406 1.37138 25.6474 1.35259C25.6881 1.3338 25.7492 1.34633 25.7492 1.36511L25.7424 1.37138C25.8034 1.3338 25.8713 1.31502 25.946 1.30249C25.9799 1.29623 26.0206 1.28997 26.0613 1.28371C26.1021 1.27745 26.1428 1.27118 26.1767 1.26492C26.3328 1.23987 26.4685 1.22109 26.5432 1.13342L26.5364 1.13968C26.5975 1.09585 26.6586 1.05828 26.7197 1.0207C26.8147 0.995656 26.6789 1.07706 26.7604 1.07706C26.9504 0.926775 27.1065 0.97687 27.2694 0.870417C27.3169 0.895465 27.3712 0.895465 27.4255 0.889203C27.4458 0.889203 27.4662 0.882941 27.4933 0.876679C27.4526 0.895465 27.4119 0.914251 27.3712 0.933037C27.3169 0.958084 27.249 0.983132 27.1676 1.03949L27.1608 1.0708C27.154 1.08332 27.154 1.08959 27.154 1.09585V1.13968C27.1404 1.15221 27.1133 1.14594 27.1201 1.12716C27.059 1.16473 27.1472 1.15221 27.1404 1.18978C27.1201 1.22109 27.0794 1.2023 27.0861 1.17725C27.0454 1.28997 26.9368 1.48409 26.8011 1.52793L26.8079 1.50288C26.7197 1.55297 26.8147 1.65943 26.7129 1.67821L26.7197 1.65943C26.55 1.77841 26.4007 1.96626 26.2174 1.99757C26.2446 2.07898 26.0274 2.0915 26.0885 2.18543C25.9528 2.21048 25.9731 2.17291 25.8034 2.23553C25.7627 2.25432 25.7899 2.32946 25.7492 2.36703L25.7152 2.31694L25.6881 2.41087L25.6134 2.37329L25.5795 2.41713C25.5998 2.41087 25.6338 2.41713 25.6406 2.42965C25.5863 2.49853 25.4437 2.5048 25.4234 2.48601L25.2809 2.6363C25.2741 2.61751 25.2809 2.60499 25.2944 2.57994C25.2537 2.64882 25.2469 2.52984 25.1994 2.61751C25.2198 2.62377 25.213 2.64882 25.2198 2.66135C25.1587 2.66135 25.0637 2.72397 25.0026 2.78032L24.989 2.73649C24.8601 2.81163 24.7447 2.93061 24.609 3.01202C24.6701 2.99949 24.704 3.06211 24.6633 3.09342L24.609 3.05585C24.609 3.10595 24.6633 3.04959 24.6429 3.11847C24.5886 3.14352 24.5683 3.0809 24.5818 3.04959L24.5343 3.10595C24.5208 3.09342 24.5275 3.07464 24.5208 3.05585C24.5208 3.10595 24.3782 3.06838 24.3782 3.14352L24.3647 3.131C24.2289 3.2124 24.1746 3.2625 24.0525 3.32512C24.0796 3.37521 24.0253 3.38774 24.0117 3.44409C23.9167 3.4754 23.7946 3.48793 23.6928 3.54429C23.6317 3.60691 23.6928 3.59438 23.6792 3.63822C23.6521 3.60064 23.5435 3.657 23.5842 3.60064C23.462 3.66953 23.4213 3.68831 23.2788 3.80729C23.3059 3.81355 23.3331 3.81355 23.3263 3.83234C23.2991 3.85112 23.2448 3.84486 23.2381 3.82608L23.2448 3.81981C23.0955 3.97636 22.7494 3.90748 22.6544 4.06403L22.6612 4.05777L22.5322 4.17675C22.4576 4.2018 22.5594 4.12665 22.4915 4.12039C22.3694 4.27068 22.2268 4.23937 22.1182 4.35208C21.9418 4.27694 21.7518 4.53994 21.5617 4.53368L21.5889 4.55873C21.5685 4.60882 21.5346 4.56499 21.5007 4.57125C21.521 4.59004 21.5549 4.57751 21.5414 4.60256C21.2495 4.79042 20.8763 4.88435 20.5437 5.02838C20.4216 5.08474 20.5777 5.20998 20.3876 5.22876L20.3944 5.15362C20.2994 5.24755 20.184 5.31643 20.0687 5.38531C19.9533 5.45419 19.8379 5.52308 19.7497 5.62327C19.7565 5.60448 19.7429 5.5857 19.7632 5.57317C19.7293 5.57317 19.6818 5.59822 19.6547 5.62953C19.6275 5.66084 19.6072 5.69841 19.6207 5.7172C19.5868 5.73598 19.5936 5.69841 19.5596 5.69841C19.4986 5.71094 19.485 5.82365 19.4307 5.80486C19.4239 5.80486 19.4307 5.79234 19.4307 5.78608C19.4036 5.82365 19.3085 5.87375 19.3628 5.89253C19.3153 5.91132 19.2814 5.94889 19.2475 5.9802C19.2203 6.01151 19.1864 6.04282 19.1457 6.05534C19.1457 6.09292 19.1117 6.11796 19.0778 6.13675C19.0439 6.1618 19.0235 6.18058 19.0506 6.21816C18.9896 6.15554 18.8674 6.28704 18.8606 6.36218C18.8538 6.33087 18.7995 6.38097 18.7927 6.3434C18.7452 6.39349 18.7113 6.45611 18.7588 6.4749C18.6774 6.49368 18.6434 6.55004 18.6231 6.6064C18.6027 6.66276 18.5824 6.70659 18.5009 6.69407C18.4602 6.78174 18.4195 6.86314 18.3855 6.93829C18.3652 6.97586 18.3448 7.01343 18.3245 7.051C18.3041 7.08857 18.2905 7.11988 18.2498 7.17624C18.2362 7.20129 18.2294 7.22007 18.2159 7.23886C18.1887 7.22634 18.1887 7.20129 18.2091 7.16372C18.2227 7.14493 18.2362 7.11988 18.2498 7.1011C18.2566 7.08857 18.2702 7.07605 18.277 7.06353C18.2905 7.03848 18.2905 7.01343 18.2634 7.00091C18.2362 7.051 18.2362 7.08231 18.1955 7.16372C18.1819 7.19503 18.1684 7.22634 18.1684 7.25765C18.1684 7.28896 18.1684 7.32027 18.1752 7.35158C18.1819 7.38289 18.1887 7.40793 18.1955 7.43924C18.2023 7.45803 18.2023 7.47682 18.2023 7.48934L18.1955 7.78365L18.4806 7.6271C18.4941 7.62084 18.5077 7.61458 18.5213 7.60832C18.5688 7.59579 18.5213 7.65215 18.5145 7.67094C18.5824 7.61458 18.6502 7.57075 18.7249 7.52691C18.7588 7.50813 18.7995 7.48308 18.8403 7.45177C18.8742 7.42046 18.9013 7.38915 18.9285 7.35784C18.9353 7.3641 18.9285 7.38289 18.9217 7.39541C18.9421 7.37662 18.9828 7.3641 18.9556 7.33279L18.9421 7.35784C18.8674 7.34531 18.9556 7.19503 18.9421 7.16998C18.976 7.28896 19.0846 7.1011 19.1117 7.25765C19.1253 7.23886 19.1321 7.21381 19.1117 7.19503C19.1389 7.1825 19.1592 7.18876 19.1524 7.2326C19.2271 7.15119 19.166 7.14493 19.2475 7.08231C19.261 7.09483 19.2475 7.11362 19.2542 7.13867C19.2678 7.08231 19.2882 7.02595 19.3628 6.98838C19.3696 7.0009 19.3832 7.00717 19.3628 7.01969C19.4714 6.93202 19.4918 6.80052 19.6411 6.7379C19.6547 6.83183 19.7022 6.72538 19.7565 6.77547L19.8108 6.71285L19.7632 6.70659C19.8243 6.66276 19.8447 6.58761 19.9126 6.56883L19.8854 6.62519L19.9872 6.53126L19.9058 6.5563C19.9397 6.48116 19.8379 6.49368 19.9329 6.44985C19.9193 6.46864 19.994 6.40602 20.0551 6.41854C20.0687 6.38097 20.0822 6.33713 20.1433 6.32461C20.1705 6.33713 20.184 6.39349 20.2044 6.39975C20.1976 6.33087 20.3333 6.2933 20.3333 6.21189C20.3333 6.23068 20.3537 6.26199 20.3605 6.26825L20.3537 6.21189C20.3944 6.20563 20.4012 6.21189 20.4148 6.23694C20.503 6.18685 20.3333 6.18058 20.4555 6.14927C20.4487 6.15554 20.4555 6.1618 20.4487 6.18058C20.5641 6.13049 20.6319 6.0303 20.7405 5.99272C20.8084 6.03656 20.6659 6.05534 20.7338 6.08665C20.8627 5.99272 20.9713 5.8487 21.1206 5.78608L21.0934 5.79234C21.0595 5.69841 21.2224 5.77982 21.2699 5.70467C21.2563 5.7172 21.2767 5.76729 21.2767 5.75477C21.3785 5.7172 21.4599 5.63579 21.5889 5.5356L21.5821 5.56691C21.65 5.56065 21.7382 5.50429 21.8061 5.4855C21.8128 5.45419 21.8468 5.44167 21.8061 5.41662C22.0775 5.45419 22.1318 5.16614 22.3626 5.18493C22.3422 5.19745 22.3286 5.22876 22.3422 5.2225L22.4712 5.12857C22.4372 5.09726 22.4372 5.11605 22.3897 5.10352C22.3965 5.07221 22.4237 5.03464 22.4576 5.01585C22.4101 5.07221 22.4915 5.07847 22.5322 5.08474C22.5187 5.07847 22.5255 5.05969 22.5119 5.04716C22.6273 5.07847 22.4779 4.96576 22.6069 4.9595L22.6137 4.98454C22.6476 4.95323 22.668 4.9094 22.7087 4.89688C22.7494 4.93445 22.6815 4.94071 22.7019 4.97828C22.7562 4.94697 22.7698 4.83426 22.8444 4.85304C22.8241 4.87809 22.7901 4.89688 22.7766 4.92192C22.8648 4.94697 22.8648 4.92819 22.9123 4.91566H22.9055L23.0209 4.89061H22.9869C22.9937 4.74033 23.1227 4.79668 23.177 4.67144C23.1227 4.79042 23.1838 4.72154 23.2109 4.77164C23.2448 4.77164 23.2924 4.77164 23.2924 4.79042C23.3127 4.7278 23.3874 4.78416 23.4213 4.69023C23.4349 4.70275 23.4688 4.66518 23.4824 4.70902C23.5367 4.66518 23.4484 4.69023 23.4417 4.66518C23.5027 4.56499 23.6996 4.62135 23.7878 4.47732C23.876 4.39592 23.876 4.3333 23.9439 4.25815C23.9507 4.25189 23.9642 4.24563 23.971 4.24563C24.005 4.25815 23.9642 4.31451 23.9642 4.31451C24.0389 4.30825 24.0796 4.2832 24.1203 4.23311C24.1203 4.25189 24.1339 4.25815 24.1611 4.27068C24.2018 4.24563 24.1543 4.19553 24.2289 4.18927C24.2289 4.21432 24.2357 4.24563 24.2221 4.27694C24.2629 4.23311 24.2968 4.17675 24.3443 4.13918C24.3782 4.15796 24.3375 4.19553 24.3307 4.22684C24.385 4.18301 24.4732 4.12039 24.4597 4.06403L24.4257 4.07029C24.4393 4.07656 24.4461 4.10787 24.4393 4.12039C24.4122 4.18301 24.3579 4.14544 24.3443 4.12665L24.3782 4.09534C24.2832 4.0202 24.2357 4.18927 24.1543 4.22684L24.1475 4.15796C24.4665 3.99515 24.6904 3.87617 24.7311 3.85112C24.7311 3.85112 24.7379 3.85112 24.7379 3.84486C24.7515 3.86991 24.7651 3.90122 24.7786 3.92627C24.7719 3.92627 24.7583 3.92627 24.7515 3.93253L24.7651 4.00141L24.7854 3.98263L24.799 3.9701L24.8058 3.96384C24.8329 3.98889 24.8737 4.00141 24.9347 3.99515L25.023 4.03272L24.9551 3.97636C24.9687 3.95132 24.9823 3.92627 24.9958 3.89496L25.0501 3.91374L24.9822 3.96384C25.0501 3.9701 25.0501 3.92627 25.0637 3.8887C25.0841 3.90122 25.1044 3.90748 25.1248 3.90122L25.1519 3.78224C25.1859 3.80103 25.1587 3.86365 25.2266 3.8386C25.2401 3.78224 25.1383 3.80103 25.1859 3.73841C25.2469 3.74467 25.2605 3.77598 25.2809 3.71962C25.3012 3.73215 25.3012 3.75093 25.2944 3.76972C25.3148 3.71962 25.3895 3.68831 25.3759 3.63822C25.4437 3.65074 25.498 3.53802 25.5456 3.60691C25.5456 3.58186 25.5727 3.50671 25.5998 3.48167C25.5998 3.60064 25.7356 3.40026 25.7831 3.50045C25.7763 3.45036 25.817 3.41278 25.8577 3.38774C25.8781 3.37521 25.9052 3.35643 25.9256 3.3439C25.9528 3.32512 25.9799 3.30633 25.9935 3.28128C25.9935 3.28754 25.9867 3.30633 25.9799 3.30633C26.041 3.28128 26.0681 3.29381 26.1156 3.28754C26.0817 3.22492 26.1496 3.15604 26.1631 3.09342C26.2717 3.10595 26.1767 3.18735 26.2446 3.23119C26.2039 3.18735 26.3192 3.10595 26.2649 3.0809C26.3396 3.0809 26.3192 3.06838 26.3871 3.09969C26.3328 3.02454 26.421 3.05585 26.421 2.98071C26.5161 2.96192 26.4957 3.0308 26.55 2.95566C26.6043 2.9494 26.5636 3.02454 26.5636 3.02454C26.6382 2.96818 26.55 2.94314 26.5364 2.90556C26.6043 2.8179 26.6111 2.91183 26.6654 2.91183C26.7061 2.85547 26.6925 2.77406 26.7332 2.74275C26.7468 2.74901 26.7536 2.74275 26.7604 2.76154C26.774 2.67387 26.9165 2.61751 26.9165 2.51106C26.9233 2.51106 26.93 2.51106 26.9368 2.51732C26.9029 2.5048 26.869 2.47975 26.8554 2.46096C26.8825 2.42965 26.8758 2.37956 26.9233 2.39834C26.9029 2.41713 26.9165 2.42965 26.9233 2.44844L26.9368 2.4046C27.0115 2.42339 26.9165 2.46096 26.9504 2.49227C26.9911 2.42339 27.0183 2.31694 27.0726 2.28563C27.1336 2.3232 26.9843 2.39834 27.0929 2.37956L27.0047 2.42965C27.1336 2.44844 26.9572 2.46722 27.0929 2.49227C27.1472 2.4547 27.1608 2.42339 27.1812 2.39208C27.2015 2.36077 27.2151 2.33572 27.2762 2.29189C27.2694 2.24805 27.2287 2.26058 27.2219 2.21674C27.2626 2.12908 27.3169 2.12908 27.3712 2.12908C27.4255 2.12908 27.4662 2.13534 27.4798 2.05393C27.4662 1.99757 27.4051 1.94122 27.5001 1.89112L27.5409 1.96C27.6223 1.86607 27.4933 1.84103 27.6155 1.76588C27.6291 1.79719 27.5816 1.85981 27.5951 1.84729C27.6969 1.80972 27.5951 1.77841 27.6291 1.72831L27.6969 1.75336C27.7309 1.697 27.7512 1.6469 27.7852 1.57802C27.8123 1.52793 27.8259 1.46531 27.8327 1.41521C27.8395 1.36511 27.8395 1.32754 27.8395 1.28997C27.8463 1.28997 27.8463 1.29623 27.853 1.29623C27.853 1.30249 27.853 1.30876 27.853 1.31502C27.853 1.30876 27.8598 1.30249 27.8598 1.30249C27.8666 1.30876 27.8802 1.31502 27.887 1.30876C27.8395 1.45904 28.0431 1.434 27.9141 1.60307L27.8598 1.53419C27.8598 1.85355 27.6902 2.16039 27.6834 2.46722C27.6698 2.44844 27.6562 2.44218 27.663 2.41713C27.6291 2.44844 27.6155 2.48601 27.6155 2.52984C27.6087 2.57368 27.6155 2.61751 27.6291 2.62377C27.6087 2.66135 27.5951 2.61751 27.5612 2.6363C27.5137 2.67387 27.5476 2.79285 27.4866 2.79911C27.4798 2.79911 27.4798 2.77406 27.4866 2.7678C27.4866 2.79285 27.4594 2.83042 27.4458 2.86799C27.4255 2.90556 27.4187 2.93061 27.4526 2.92435C27.4119 2.97445 27.3848 3.02454 27.3576 3.10595L27.3508 3.11847V3.12473L27.344 3.14352C27.3372 3.15604 27.3372 3.16857 27.3305 3.17483C27.3237 3.19362 27.3101 3.21866 27.2965 3.23745C27.3372 3.31259 27.1947 3.40026 27.2694 3.45036C27.1879 3.41278 27.1201 3.59438 27.1201 3.67579C27.1065 3.64448 27.0658 3.71962 27.0454 3.67579C27.0047 3.74467 26.9843 3.81981 27.0318 3.82608C26.9436 3.86365 26.9233 3.93879 26.9029 4.00141C26.8825 4.06403 26.8622 4.12039 26.774 4.12039C26.6789 4.34582 26.5568 4.53994 26.4278 4.72154C26.36 4.66518 26.5839 4.52742 26.4957 4.48358C26.3939 4.66518 26.3735 4.80295 26.2107 4.94697C26.1631 4.97828 26.2039 4.90314 26.2039 4.87809C26.0885 5.05343 25.912 5.1724 25.8102 5.33522C25.8034 5.32895 25.8102 5.31017 25.8238 5.29138C25.7967 5.31643 25.7492 5.34148 25.7831 5.36653L25.8034 5.33522C25.8917 5.33522 25.7831 5.51681 25.8034 5.54186C25.7695 5.41662 25.6406 5.64832 25.6134 5.47924C25.5998 5.49803 25.5931 5.5356 25.6134 5.54812C25.5795 5.56691 25.5591 5.56065 25.5659 5.51681C25.4777 5.61701 25.5456 5.61701 25.4437 5.69215C25.4302 5.67963 25.4437 5.65458 25.437 5.63579C25.4166 5.69841 25.3895 5.76729 25.3012 5.81739C25.3012 5.80487 25.2809 5.7986 25.3012 5.77982C25.2334 5.83618 25.1859 5.89253 25.1316 5.95515C25.0773 6.01151 25.023 6.07413 24.9212 6.10544C24.9212 6.01151 24.8465 6.11796 24.799 6.06161L24.7176 6.13049L24.7719 6.13675C24.7311 6.1618 24.6972 6.19311 24.6701 6.22442C24.6361 6.24947 24.6022 6.27451 24.5615 6.28704L24.609 6.23068L24.4597 6.31835L24.5615 6.29956C24.4936 6.37471 24.6158 6.37471 24.4936 6.41228C24.514 6.39349 24.4054 6.45611 24.3443 6.43733C24.3104 6.4749 24.2764 6.51873 24.2018 6.52499C24.1746 6.51247 24.1814 6.44985 24.1611 6.43733C24.1475 6.50621 23.9642 6.53752 23.9371 6.61266C23.9507 6.59388 23.9371 6.5563 23.9235 6.5563L23.9032 6.61266C23.8557 6.61266 23.8489 6.6064 23.8421 6.58135C23.7131 6.61892 23.9167 6.65023 23.7539 6.66902C23.7606 6.66276 23.7539 6.6565 23.7742 6.64397C23.7335 6.65023 23.6996 6.66276 23.6656 6.68154C23.6317 6.69407 23.5978 6.70659 23.557 6.72538C23.4892 6.75669 23.4213 6.78174 23.3466 6.79426C23.2856 6.7379 23.462 6.7379 23.3942 6.70033C23.2991 6.7379 23.1973 6.78174 23.1023 6.83183C23.0073 6.87567 22.9055 6.91324 22.8037 6.93202H22.8444C22.8444 7.03221 22.6815 6.9195 22.5933 6.98838C22.6137 6.97586 22.6137 6.92576 22.6069 6.93829C22.4644 6.95081 22.3354 7.01969 22.1318 7.08857L22.1522 7.05726C22.064 7.051 21.935 7.08231 21.8468 7.08857C21.8264 7.11988 21.7721 7.11988 21.8128 7.15119C21.5142 7.051 21.3038 7.314 21.0392 7.23886C21.0663 7.2326 21.107 7.20755 21.0799 7.20755L20.8763 7.27017C20.9034 7.30774 20.9102 7.28896 20.9577 7.314C20.9374 7.34531 20.8831 7.37036 20.8288 7.38289C20.917 7.33905 20.8152 7.314 20.7677 7.30148C20.7745 7.314 20.7677 7.33279 20.7745 7.34531C20.6455 7.29522 20.7813 7.43298 20.6184 7.42046V7.39541C20.5641 7.42046 20.5234 7.46429 20.4623 7.47055C20.4216 7.42672 20.5098 7.43298 20.503 7.38915C20.4216 7.4142 20.3673 7.52691 20.279 7.4956C20.3062 7.47055 20.3605 7.45803 20.3876 7.43298C20.2858 7.40167 20.2858 7.4142 20.218 7.42672H20.2247L20.0754 7.43924L20.1162 7.44551C20.0551 7.60206 19.9193 7.52691 19.8108 7.65215C19.9193 7.53944 19.8175 7.60206 19.8108 7.5457C19.77 7.53944 19.7157 7.53944 19.7225 7.52065C19.7022 7.55196 19.6682 7.55196 19.6479 7.5457C19.6479 7.5457 19.6479 7.5457 19.6411 7.5457C19.6411 7.5457 19.6411 7.5457 19.6411 7.55196V7.57701V7.60206V7.60832C19.6411 7.62084 19.6275 7.4956 19.6343 7.5457C19.6275 7.5457 19.6139 7.5457 19.6072 7.55196C19.5868 7.55822 19.5664 7.56448 19.5461 7.58953C19.5393 7.57075 19.4714 7.59579 19.4782 7.55196C19.39 7.58327 19.5054 7.57701 19.4986 7.60206C19.4375 7.64589 19.3493 7.63963 19.261 7.63963C19.1728 7.63963 19.071 7.65215 18.9896 7.71477C18.847 7.78365 18.8267 7.84627 18.7181 7.91516C18.7045 7.92142 18.6909 7.92142 18.6774 7.92768C18.6434 7.90889 18.7113 7.8588 18.7113 7.8588C18.6231 7.8588 18.562 7.87758 18.4941 7.92142C18.5009 7.90263 18.4806 7.89637 18.4534 7.88385C18.3923 7.90889 18.433 7.95899 18.3448 7.95899C18.3516 7.93394 18.3584 7.89637 18.3788 7.87132C18.3109 7.90889 18.2498 7.96525 18.1819 8.00282C18.1548 7.97778 18.2091 7.94647 18.2294 7.91516C18.148 7.95273 18.0258 8.00282 18.0123 8.05918H18.0598C18.0462 8.05292 18.0462 8.02161 18.0666 8.00909C18.1276 7.95273 18.1752 7.99656 18.1887 8.01535L18.1412 8.0404C18.2294 8.12806 18.3516 7.95899 18.4602 7.93394L18.4466 8.00282C18.1344 8.03413 17.863 8.11554 17.5779 8.1719ZM18.4263 7.94647L18.4941 7.87132C18.5145 7.87758 18.5281 7.89637 18.5281 7.91516C18.4941 7.92768 18.4602 7.9402 18.4263 7.94647ZM19.0303 7.77739C19.0303 7.76487 19.0439 7.74608 19.0778 7.72103C19.0914 7.73356 19.1049 7.74608 19.1185 7.75861C19.0846 7.75861 19.0574 7.77113 19.0303 7.77739ZM18.1276 4.63387C18.1073 4.67144 18.0733 4.7278 18.0191 4.82799C18.0666 4.74033 18.1073 4.67771 18.1276 4.63387ZM17.7137 5.46046C17.7408 5.4041 17.7679 5.34148 17.8019 5.2726C17.8358 5.25381 17.8358 5.29138 17.8019 5.37279C17.8087 5.32269 17.7137 5.51055 17.6458 5.62327C17.6661 5.57317 17.6865 5.52308 17.7137 5.46046ZM24.4122 10.3636C24.4122 10.3824 24.419 10.4012 24.3986 10.4074C24.2968 10.3573 24.2018 10.3198 24.1135 10.2822C24.1203 10.2822 24.1271 10.2822 24.1407 10.2822C24.1882 10.2884 24.2696 10.301 24.4122 10.3636ZM17.9173 8.67286L17.7815 8.68538C17.8901 8.63528 18.0055 8.58519 18.1209 8.53509C18.1005 8.56014 18.0462 8.59771 17.9173 8.67286ZM20.2519 8.08423C20.1908 8.07797 20.1433 8.05918 20.1569 8.0404C20.3062 8.02787 20.4555 8.01535 20.6048 7.99656C20.4894 8.02787 20.3741 8.05292 20.2519 8.08423ZM24.0864 7.26391C24.1 7.25765 24.1135 7.25765 24.1339 7.25138C24.1203 7.28269 24.1068 7.30774 24.1 7.33279L24.0321 7.27643C24.0525 7.27017 24.066 7.27017 24.0864 7.26391Z" fill="#DB8670"/>
<path d="M8.85698 12.4864C8.66695 12.5052 8.49729 12.6868 8.50407 12.8621C8.51765 13.1251 8.7484 13.3318 9.00629 13.3067C9.23704 13.2879 9.44743 13.075 9.42028 12.8809C9.39992 12.6617 9.11488 12.4614 8.85698 12.4864Z" fill="#DB8670"/>
<path d="M10.0039 13.3568C9.96993 13.6198 10.16 13.8452 10.4314 13.8578C10.73 13.8703 11.0151 13.6261 10.9947 13.3631C10.9608 12.9811 10.0649 12.8371 10.0039 13.3568Z" fill="#DB8670"/>
<path d="M10.1464 12.0105C10.1193 11.8414 9.9089 11.7162 9.70529 11.76C9.31166 11.8414 9.41346 12.3675 9.77995 12.3549C9.99034 12.3361 10.1736 12.1671 10.1464 12.0105Z" fill="#DB8670"/>
</svg>
