<svg width="26" height="28" viewBox="0 0 26 28" fill="none" xmlns="http://www.w3.org/2000/svg">
<path d="M14.23 0.190001C13.0528 -0.0800728 11.8275 -0.0594798 10.66 0.250001V0.250001C10.2811 0.47659 9.91703 0.727097 9.57 1L9.22 1.2C9.0559 1.25056 8.91449 1.35662 8.82 1.5L8.67 1.74H8.3H8.23C6.91101 1.72941 5.59533 1.87373 4.31 2.17C4.31 2.17 0.32 3.5 0 7.41V8.91C0.184589 10.1658 0.722643 11.3432 1.55133 12.3047C2.38002 13.2662 3.46515 13.9721 4.68 14.34L5.05 14.46V14.84C5.01445 15.4895 5.01445 16.1405 5.05 16.79C5.08424 17.3461 5.08424 17.9039 5.05 18.46C5.04737 18.6912 5.02731 18.9218 4.99 19.15V19.32C4.84844 20.0105 4.92895 20.7281 5.22 21.37H7C8.87 21.37 10.74 21.37 12.71 21.26C15.22 21.2 18.07 21.13 21.09 21.16C21.115 20.667 21.115 20.173 21.09 19.68V19.16C21.0222 18.3966 21.0457 17.6278 21.16 16.87L21.21 16.63L21.43 16.52C22.526 16.0306 23.4639 15.2455 24.1387 14.2529C24.8134 13.2602 25.1982 12.0992 25.25 10.9C25.2987 10.0739 25.1793 9.2466 24.8991 8.46799C24.619 7.68937 24.1838 6.97566 23.62 6.37V6.37C22.5043 5.18253 20.9765 4.46695 19.35 4.37H19.01L18.91 4C18.6063 3.13292 18.0947 2.35351 17.42 1.73L17.14 1.41L16.84 1.07L16.77 1C16.62 0.920001 16.34 0.800001 16.06 0.690001L15.94 0.630001C15.75 0.560001 15 0.380001 14.23 0.190001ZM18.47 5.14C19.3523 5.10058 20.2331 5.24564 21.0562 5.56591C21.8792 5.88618 22.6264 6.37461 23.25 7C23.754 7.58176 24.1272 8.26488 24.3446 9.00323C24.5619 9.74158 24.6184 10.518 24.51 11.28C24.4122 12.4133 23.9609 13.4873 23.2199 14.3503C22.4788 15.2134 21.4855 15.8219 20.38 16.09C20.38 16.71 20.38 17.33 20.32 17.91C20.2864 18.5329 20.2864 19.1571 20.32 19.78V20.25H19.85C19.0858 20.2957 18.319 20.2385 17.57 20.08L17.35 20.2L17.11 20.1C17.0635 20.0722 17.0129 20.0519 16.96 20.04L16.76 20.17L16.54 20.09C16.3402 20.0148 16.1198 20.0148 15.92 20.09H15.35H15.03C14.8022 20.0818 14.5742 20.0985 14.35 20.14L13.95 20.07C13.57 20.07 13.16 20.07 12.77 20.07H8.31C7.96145 20.115 7.60855 20.115 7.26 20.07H6.95H6.73H6.2V19.54C6.27669 18.4981 6.27669 17.4519 6.2 16.41C6.1644 16.1077 6.1644 15.8023 6.2 15.5C6.29 14.6 6.34 13.6 5.83 13.33C5.66392 13.2826 5.49263 13.2557 5.32 13.25C5.08785 13.2526 4.85725 13.2119 4.64 13.13C3.59065 12.749 2.68644 12.0499 2.05361 11.1302C1.42077 10.2105 1.09088 9.11621 1.11 8C1.11684 7.225 1.30056 6.46179 1.64717 5.76858C1.99377 5.07538 2.4941 4.47047 3.11 4C3.91592 3.39573 4.85309 2.99022 5.84529 2.81645C6.83749 2.64269 7.85669 2.70557 8.82 3C9.64443 1.99798 10.7531 1.26929 12 0.910001H12.11C13.5092 0.674268 14.9457 0.980447 16.1272 1.76625C17.3087 2.55205 18.1464 3.75844 18.47 5.14Z" fill="#DB8670"/>
<path d="M5.29999 27.24C5.90999 27.24 6.46999 27.29 6.98999 27.32H7.55999C8.19387 27.393 8.83248 27.4164 9.46999 27.39H9.69999L10.1 27.45L11.1 27.53C11.1 27.53 12.33 27.53 12.81 27.6C13.2076 27.6133 13.6057 27.5933 14 27.54L14.22 27.48L14.41 27.61C14.9385 27.561 15.4693 27.541 16 27.55C16.6289 27.5607 17.2576 27.5206 17.88 27.43H18H18.26H18.47C19.41 27.52 20.76 27.65 21.34 27.15C21.2435 26.5517 21.22 25.9439 21.27 25.34C21.3353 24.5118 21.2712 23.6785 21.08 22.87C16.88 23.03 13.57 23.06 9.01999 23.1C7.84999 23.1 6.61999 23.1 5.28999 23.1L5.29999 27.24ZM5.99999 24.29V23.8H6.48999C6.89999 23.8 7.20999 23.8 7.54999 23.8C7.88999 23.8 8.20999 23.8 8.54999 23.8H8.73999C8.73999 23.8 9.94999 23.8 10.19 24.03C10.4209 23.9829 10.659 23.9829 10.89 24.03V24.03H11.07L11.38 24.08H11.44C11.6987 24.0199 11.9651 23.9997 12.23 24.02H12.45C12.7835 24.0654 13.1226 24.0484 13.45 23.97L13.64 23.92L13.81 24.01C14.45 24.01 15.06 24.01 15.64 24.01C17 24.01 18.17 24.01 19.5 23.89H19.94L20.03 24.32C20.1377 24.7954 20.1648 25.2856 20.11 25.77V26.22L18.03 26.3C15.52 26.37 12.76 26.45 9.79999 26.45C8.70999 26.45 7.58999 26.45 6.43999 26.45H5.99999V25.45C5.93816 25.0658 5.93816 24.6742 5.99999 24.29Z" fill="#DB8670"/>
</svg>
