<svg width="32" height="32" viewBox="0 0 32 32" fill="none" xmlns="http://www.w3.org/2000/svg">
<path d="M29.3479 19.6697L29.3592 19.6246C29.4382 19.3423 29.4382 18.5067 29.4382 17.897C29.4382 17.6711 29.4382 17.4453 29.4382 17.2421C29.427 16.7114 29.4044 16.2484 29.3931 15.808C29.3705 15.0064 29.3366 14.2385 29.314 13.2788V13.0529L29.2237 12.7819C29.1785 12.6464 29.0995 12.5222 28.9979 12.4206L28.6027 12.048C28.4107 11.8673 28.1962 11.6754 27.9929 11.4834C27.5977 11.1334 27.1912 10.7608 26.8751 10.3994L26.6041 10.2414L26.5476 10.1736C26.3557 9.92519 26.0508 9.63162 25.7234 9.31546C25.4749 9.08963 25.2152 8.82992 24.9555 8.55893L24.8991 8.71701L24.5265 8.27664V8.28793L22.7989 6.51517C21.952 5.8151 21.3761 5.21666 20.8229 4.65208C20.2583 4.07622 19.7276 3.53423 18.9372 2.87932L16.916 0.937191C16.8934 0.9259 16.8821 0.914608 16.8596 0.903317C16.7579 0.835568 16.6902 0.756528 16.6563 0.677488L16.1708 0.180663C16.0014 0.0677488 15.8095 0 15.6062 0C15.4594 0 15.3239 0.0225829 15.1884 0.0677488C15.0642 0.112915 14.9287 0.203246 14.8384 0.293578L13.6189 1.46789C13.5399 1.54693 13.4608 1.62597 13.3818 1.70501L13.5512 1.62597L11.4848 3.5681C11.3493 3.7036 11.1912 3.85039 11.0445 3.99718C10.7283 4.30205 10.4121 4.6295 10.1411 4.83275C9.9379 4.99083 9.74594 5.23924 9.61044 5.43119C9.5427 5.52152 9.48624 5.58927 9.44107 5.65702C9.2717 5.86027 9.10233 6.00706 8.98941 6.09739C8.93296 6.14256 8.84263 6.2103 8.75229 6.25547C8.67325 6.3458 8.58292 6.44742 8.50388 6.54905C8.26676 6.83133 8.00706 7.1362 7.61186 7.47495L7.53282 7.50882L7.48765 7.52011C7.36344 7.61044 7.04728 7.96048 6.84404 8.17502C6.52788 8.52505 6.29076 8.77347 6.08751 8.88638C5.73747 9.15737 5.4439 9.47354 5.11644 9.80099C4.78899 10.1397 4.46154 10.4785 4.06634 10.8059L3.52435 11.5625L2.6549 12.7706C2.54199 12.8723 2.47424 13.0078 2.47424 13.1658V16.892C2.45166 17.1856 2.41778 17.5243 2.3952 17.8179C2.36133 18.1793 2.32745 18.518 2.32745 18.6535V18.71C2.29358 18.9132 2.30487 19.1729 2.31616 19.4552C2.32745 19.7036 2.32745 19.952 2.31616 20.2117C2.30487 20.6972 2.28229 20.8553 2.22583 20.9908C2.24841 21.0473 2.2597 21.115 2.2597 21.1828V21.2054L2.18066 21.8941H2.12421C2.12421 22.0409 2.11291 22.1877 2.10162 22.3458C2.09033 22.6168 2.06775 23.0572 2.09033 23.2152L2.1355 23.2943L2.12421 23.4298C2.11291 23.5201 2.11291 23.6104 2.10162 23.6782H2.15808L2.09033 24.1637H2.10162C2.12421 24.3896 2.10162 24.8073 2.05646 25.4622C2.03387 25.7784 2 26.2301 2 26.4785C2.04517 26.5236 2.09033 26.5688 2.11291 26.6253L2.18066 26.6817L2.35004 29.1658C2.31616 29.5046 2.24841 30.1821 2.2597 30.4192L2.31616 30.5095L2.22583 30.8709C2.22583 30.8821 2.22583 30.8934 2.22583 30.8934V30.9047C2.22583 30.9273 2.22583 30.9386 2.22583 30.9386C2.22583 31.0289 2.24841 31.1193 2.29358 31.1983C2.31616 31.2548 2.35004 31.2999 2.3952 31.3451C2.40649 31.3564 2.46295 31.4128 2.49682 31.4241L2.50812 31.4354C2.51941 31.4354 2.51941 31.4354 2.5307 31.4354C2.56457 31.4354 2.58716 31.4467 2.62103 31.458C2.6662 31.4693 2.71136 31.4806 2.76782 31.4919C2.80169 31.5032 2.84686 31.5145 2.90332 31.5258L2.9259 31.5371C2.95977 31.5483 2.99365 31.5483 3.02752 31.5596L3.4566 31.6274V31.6725L3.53564 31.6838C3.68243 31.6951 3.81793 31.7177 3.97601 31.729H3.99859C4.13409 31.6951 4.37121 31.6613 4.83416 31.6613C5.00353 31.6613 5.1729 31.6613 5.33098 31.6613C5.68102 31.65 6.06493 31.65 6.6295 31.6951L6.84404 31.6161L8.02964 31.7064V31.8306C8.57163 31.8306 8.94425 31.8419 9.79111 31.8758L10.0395 31.8645C10.4686 31.8419 10.7396 31.8306 10.9203 31.8758C11.5865 31.8871 12.7269 31.9097 13.5286 32L13.6528 31.9323H13.777C13.8786 31.9323 13.9915 31.9548 14.0819 31.9661C14.1157 31.9661 14.1496 31.9774 14.1835 31.9774L14.2061 31.9548L14.7594 31.9097L14.7142 31.8532L15.3465 31.8871C15.4594 31.8871 15.5949 31.8871 15.753 31.9097H15.7982C15.8772 31.9097 15.9224 31.9097 15.9562 31.921C16.103 31.8645 16.3063 31.8758 16.566 31.8871L16.6337 31.8984C16.645 31.8984 16.6563 31.8871 16.6563 31.8871C16.7579 31.8532 16.9273 31.7968 17.2096 31.808H17.2661L17.65 31.921C17.9548 31.9435 18.1242 31.9323 18.3726 31.9097C18.5984 31.8871 18.892 31.8645 19.355 31.8645H19.3888C19.5131 31.8758 19.6937 31.8871 19.8631 31.9323L21.2858 31.7855C21.7939 31.729 22.2569 31.729 22.6972 31.7629L22.9795 31.7855L23.386 31.7742L23.4199 31.8306L23.7699 31.8193V31.808C23.8941 31.808 24.5039 31.7855 24.8652 31.808L25.4749 31.8645V31.8758C25.7798 31.8758 26.096 31.8645 26.4347 31.8419C26.7622 31.8193 27.1122 31.808 27.5074 31.808H27.6994C27.7558 31.808 27.8236 31.7968 27.9026 31.808H28.4785L28.5914 31.7742C28.7495 31.7177 28.9076 31.6161 29.0318 31.4693C29.1221 31.379 29.1673 31.2999 29.2124 31.2322C29.2237 31.2096 29.235 31.187 29.2463 31.1757C29.2689 31.1306 29.314 31.0741 29.3705 31.0176C29.3705 30.9838 29.3705 30.9499 29.3705 30.9273L29.3592 30.7579L29.4157 30.6789C29.4044 30.5886 29.4157 30.5095 29.4157 30.4305C29.427 30.3514 29.427 30.2724 29.4157 30.103L29.3931 29.9562L29.3366 29.9337L29.2915 29.7078C29.2237 29.3578 29.2463 29.132 29.2576 28.9513C29.2689 28.8497 29.2689 28.7594 29.2689 28.669H29.2915C29.2915 28.4658 29.2915 28.3303 29.314 28.2061C29.2915 28.1496 29.2802 28.0819 29.2802 28.0028V27.9915C29.2802 27.9012 29.2802 27.8222 29.3028 27.7544C29.2124 27.4947 29.2237 27.156 29.2576 26.8624L29.2689 26.8059C29.2689 26.7495 29.2689 26.6817 29.2802 26.5914L29.2915 26.5124L29.2802 26.4559L29.2915 26.3656C29.3028 26.3091 29.2915 26.2188 29.2915 26.151C29.2802 26.0268 29.2802 25.88 29.3366 25.7558L29.3592 24.3105L29.156 24.3896L29.3479 23.5314C29.3592 23.4637 29.3592 23.204 29.3592 23.0797C29.3592 22.8088 29.3479 22.5829 29.427 22.4136C29.427 22.0974 29.4044 21.8151 29.3931 21.5215C29.3592 21.0247 29.3366 20.5053 29.3705 19.7375L29.3479 19.6697ZM27.451 13.8885C27.4397 13.9562 27.4171 14.024 27.3945 14.0805V14.103C27.3945 14.1143 27.3832 14.1256 27.3832 14.1482L27.3719 14.2837C27.3606 14.3402 27.3606 14.3966 27.3606 14.4531L27.4284 15.0741L27.3493 15.5483H27.3042C27.2929 15.6951 27.2703 15.8193 27.2477 15.9774C27.2816 16.1016 27.3155 16.3275 27.3155 16.7227C27.3155 16.8694 27.3155 17.0049 27.3155 17.1517C27.3267 17.4453 27.3267 17.7841 27.2816 18.2696L27.3606 18.4615L27.259 19.5681H27.1348C27.1348 20.0085 27.1235 20.3359 27.0896 21.036L27.1009 21.2392C27.1235 21.6119 27.1348 21.849 27.0896 22.0296C27.0783 22.6055 27.0558 23.554 26.9654 24.2541L27.0332 24.3557V24.4912C27.0332 24.5928 27.0106 24.6944 26.9993 24.7735C26.9993 24.7848 26.9993 24.796 26.988 24.8073L26.9993 24.8186L27.0445 25.3042L27.1009 25.259L27.067 25.8462C27.067 25.9478 27.067 26.0607 27.0445 26.1962V26.2414C27.0445 26.2865 27.0445 26.3204 27.0445 26.3543C27.1009 26.5011 27.0896 26.693 27.0783 26.9188V26.964C27.1235 27.0882 27.18 27.235 27.1687 27.4834V27.5512L27.0558 27.8899C27.0332 28.1157 27.0445 28.2512 27.0558 28.4206V28.4771C27.067 28.5674 27.0783 28.669 27.0783 28.7932C27.0783 28.861 27.0896 28.94 27.0896 29.0303C27.0896 29.0642 27.0896 29.0868 27.0896 29.1207L26.5138 29.7643L26.3783 29.8885L26.3105 29.7869L26.0847 29.8095C25.633 29.8659 25.2265 29.8772 24.8313 29.832L24.5942 29.8095L24.1877 29.832L24.1651 29.7869L23.9054 29.7982C23.8038 29.7982 23.2618 29.8207 22.9344 29.7982L22.3698 29.7417C22.1214 29.7417 21.873 29.753 21.602 29.7756C21.3987 29.7869 21.1955 29.7982 20.9697 29.8095L21.0035 29.8433L20.4954 29.8208C20.4502 29.8208 20.3938 29.8208 20.3373 29.8208L18.7001 29.8433L18.9598 29.7078C18.9259 29.6965 18.892 29.6853 18.8694 29.674L18.6323 29.7304L18.5533 29.6288C18.5081 29.6288 18.4742 29.6288 18.4291 29.6175C18.3613 29.6062 18.3049 29.6062 18.1694 29.6175L18.079 29.6288L18.0565 29.6853L17.8193 29.7417C17.5032 29.8095 17.2886 29.7982 17.1306 29.7756C17.0402 29.7643 16.9838 29.7643 16.9047 29.7643V29.7417C16.7241 29.7417 16.6112 29.7417 16.5095 29.7191C16.4531 29.7304 16.3966 29.7417 16.3289 29.753H16.3176C16.2385 29.753 16.1708 29.753 16.1143 29.7417C15.8433 29.832 15.5046 29.8095 15.3239 29.7869H15.2788C15.2223 29.7869 15.1546 29.7869 15.0755 29.7756H15.0416L14.9965 29.7869L14.8948 29.7756C14.861 29.7756 14.7819 29.7756 14.7255 29.7756C14.6239 29.7869 14.4771 29.7982 14.3416 29.7304L13.1673 29.7078L13.2463 29.9224L12.4107 29.7078C12.3543 29.6965 12.151 29.6965 12.0494 29.6965C11.8236 29.6965 11.609 29.7078 11.4397 29.6288C11.18 29.6288 10.9428 29.6514 10.7057 29.6627C10.2653 29.6965 9.81369 29.7191 9.14749 29.6853H9.09104L9.03458 29.674C8.80875 29.6062 8.0861 29.6062 7.56669 29.6062C7.36344 29.6062 7.17149 29.6062 7.00212 29.6062L4.78899 29.6965C4.74383 29.7078 4.68737 29.7078 4.61962 29.7191L4.21313 29.7643L4.12279 29.3691C4.1115 29.3239 4.10021 29.2675 4.08892 29.1884L4.06634 29.0303L4.12279 28.94V28.9174C4.13409 28.8158 4.13409 28.7142 4.13409 28.59C4.13409 28.3642 4.13409 28.1157 4.12279 27.8335L4.1115 27.6641C4.08892 27.2011 4.06634 26.7382 4.10021 26.3091L4.03246 26.0381L4.05505 25.9365C4.10021 25.6768 4.10021 25.3155 4.08892 24.9203C4.08892 24.6493 4.07763 24.3444 4.08892 24.0395L3.93084 24.1073L3.99859 23.5766L4.07763 21.4086C3.9873 20.4488 4.02117 19.7488 4.04375 19.06C4.06634 18.3712 4.08892 17.7163 3.99859 16.8243L3.97601 14.3627C3.95342 14.2272 3.96471 14.1256 3.9873 14.0353L4.5067 13.2336L4.93578 12.8271L6.00847 11.7883C6.07622 11.7205 6.13267 11.6641 6.20042 11.5963L6.05363 11.6641L7.86027 9.97036C7.98447 9.85745 8.10868 9.72195 8.24418 9.59774C8.51517 9.32675 8.79746 9.04446 9.04587 8.8638C9.21524 8.73959 9.37332 8.51376 9.47495 8.36697C9.5314 8.28793 9.57657 8.22018 9.63303 8.16373C9.73465 8.02823 9.98306 7.75723 10.2428 7.63303C10.3105 7.55399 10.367 7.47495 10.4347 7.39591C10.638 7.1475 10.8638 6.86521 11.2251 6.57163L11.2929 6.51517L11.338 6.50388C11.451 6.42484 11.7107 6.13126 11.8687 5.96189C12.0268 5.79252 12.1736 5.63444 12.2978 5.51023L12.3091 5.49894C12.3881 5.4199 12.4672 5.36344 12.5462 5.31828C12.8398 5.09245 13.0995 4.82145 13.3705 4.53917C13.6528 4.24559 13.9351 3.95201 14.2851 3.66972L14.7255 3.01482L16.0579 2.02117L16.1821 2.43896L18.9259 5.10374C19.0953 5.2957 19.2872 5.52152 19.4453 5.72477C19.6373 5.9506 19.8292 6.18772 19.9083 6.26676L19.9308 6.28934L19.9534 6.32322C20.055 6.45872 20.2131 6.60551 20.3938 6.76359C20.5519 6.91037 20.7212 7.05716 20.868 7.22654C21.1277 7.49753 21.2406 7.62174 21.2971 7.75723C21.3423 7.77982 21.3874 7.81369 21.4326 7.84757L21.4778 7.89273L21.8391 8.34439L21.7939 8.37826C21.8843 8.4686 21.9633 8.57022 22.0536 8.66055C22.2004 8.81863 22.4375 9.07833 22.5505 9.16867L22.6408 9.19125L22.7424 9.30416C22.7763 9.33804 22.8102 9.3832 22.844 9.41708L22.8892 9.37191L23.1489 9.73324L23.1715 9.74453C23.3409 9.86874 23.578 10.151 23.9619 10.5801C24.1313 10.7721 24.3684 11.043 24.5152 11.1898C24.5603 11.1898 24.6168 11.1898 24.6733 11.2011L24.7862 11.1898L25.2491 11.1221L25.4185 11.3253L26.4912 12.6239C26.6154 12.7706 26.8186 13.0191 26.9767 13.1997L27.1122 13.0868L27.451 13.7756V13.8885Z" fill="#DB8670"/>
<path d="M11.1687 18.5406C11.6429 18.868 12.2075 19.0374 12.8059 19.0374C13.1898 19.0374 13.5738 18.9696 13.9464 18.8229C14.048 18.8229 14.127 18.7551 14.1609 18.7099C14.2061 18.6648 14.2287 18.6422 14.2399 18.6309H14.2851L14.3416 18.5857C14.4658 18.4841 14.4884 18.4841 14.5335 18.4728C14.5787 18.4615 14.6464 18.4502 14.7368 18.4051L15.0191 18.2696L14.9174 18.1792C14.9626 18.1228 14.9965 18.055 15.0191 17.9986C15.2562 17.6147 15.3352 17.4114 15.4143 17.2308C15.4481 17.1517 15.482 17.0727 15.5272 16.9711L15.5498 16.9259V16.5871C15.6175 16.0564 15.4256 14.8708 14.861 14.5434C14.2174 13.6627 13.1673 13.3126 12.0946 13.6288C11.0896 13.9337 10.0621 14.8821 10.0282 16.3274C9.99436 17.1969 10.4234 18.0212 11.1687 18.5406ZM11.4622 15.1757C11.8913 14.6789 12.6704 14.2724 13.4834 14.7692C13.5286 14.8144 13.5738 14.8257 13.5963 14.837C13.6076 14.837 13.6189 14.8483 13.6641 14.8934L13.6867 14.916L13.7318 14.9499C13.7996 14.9951 13.8447 15.0176 13.856 15.0402C13.8673 15.0741 13.8899 15.1193 13.9125 15.1531C13.9238 15.1644 13.9464 15.1983 13.9802 15.2773C14.0028 15.3225 14.0367 15.3677 14.048 15.4015C14.0819 15.458 14.127 15.5032 14.1609 15.5483C14.2851 15.7064 14.3754 15.8193 14.4319 16.0564C14.4093 16.7226 14.1383 17.3324 13.7205 17.6937C13.3818 17.9873 12.9527 18.1002 12.4672 18.0325C12.1284 17.9873 11.8236 17.8179 11.5074 17.626C11.451 17.5921 11.3945 17.5582 11.338 17.5356C10.7057 16.7339 10.9541 15.7629 11.4622 15.1757Z" fill="#DB8670"/>
<path d="M18.892 18.6422C19.2759 18.9019 19.7163 19.0374 20.1905 19.0374C20.4954 19.0374 20.789 18.981 21.0826 18.868C21.1842 18.868 21.2519 18.8003 21.2745 18.7664C21.2858 18.7551 21.2971 18.7325 21.3197 18.7213H21.3536L21.41 18.6761C21.5004 18.6083 21.5116 18.597 21.5342 18.597C21.5681 18.5858 21.6246 18.5745 21.7036 18.5406L21.9859 18.4051L21.8843 18.3148C21.9068 18.2809 21.9294 18.2357 21.952 18.1906C22.1327 17.897 22.2004 17.7389 22.2569 17.5921C22.2795 17.5244 22.302 17.4679 22.3472 17.4002L22.3698 17.355V17.0727C22.4263 16.5646 22.2456 15.7064 21.8165 15.4467C21.3084 14.7467 20.4615 14.4757 19.6147 14.7241C18.813 14.9612 18 15.7177 17.9661 16.8695C17.9548 17.5695 18.2936 18.2244 18.892 18.6422ZM19.1743 16.0113C19.4905 15.6387 20.0776 15.3338 20.6874 15.6951C20.7212 15.729 20.7664 15.7516 20.7777 15.7516C20.7777 15.7516 20.789 15.7629 20.8003 15.7855L20.8229 15.8194L20.868 15.8532C20.9132 15.8758 20.9358 15.8984 20.9471 15.9097C20.9584 15.9436 20.9697 15.9661 20.9922 15.9887C21.0035 16 21.0148 16.0226 21.0261 16.0452L21.0374 16.0565C21.0713 16.1129 21.0939 16.1581 21.1164 16.1807C21.1503 16.2258 21.1729 16.2597 21.2068 16.2936C21.2971 16.4065 21.3649 16.4968 21.41 16.6662C21.3874 17.1743 21.1842 17.6373 20.8793 17.897C20.6196 18.1115 20.3035 18.2018 19.9308 18.1454C19.6824 18.1115 19.4679 17.9873 19.2195 17.8518C19.1743 17.8292 19.1179 17.7954 19.0727 17.7728C18.5984 17.1856 18.7904 16.4517 19.1743 16.0113Z" fill="#DB8670"/>
<path d="M24.5942 21.4086C24.6055 20.9682 24.6168 20.5617 24.5942 20.0988V20.0085L24.5265 19.952C24.4248 19.8617 24.3684 19.7713 24.3119 19.6584C24.2442 19.5342 24.1651 19.3874 24.0183 19.2632C23.928 19.1842 23.8151 19.139 23.7248 19.1051C23.6909 19.0939 23.657 19.0826 23.6344 19.06L23.657 18.9922L23.6231 18.9809C23.5667 18.9584 23.5102 18.9358 23.4538 18.8906C23.2279 18.7664 22.9231 18.597 22.4375 18.6648C22.2795 18.6083 22.0988 18.6309 21.9068 18.7212C21.7375 18.8003 21.5907 18.9245 21.5003 19.06C21.4326 19.0487 21.3648 19.0826 21.3197 19.0939L21.2858 19.1164C20.8003 19.4326 19.9534 19.4326 19.3775 19.2858C19.2195 19.1842 18.9711 19.0487 18.7001 18.9358L18.6436 18.8793C18.3613 18.5519 17.808 18.6535 17.5145 18.6987C17.1983 18.7438 16.9047 18.868 16.645 19.0374L16.5886 19.0035C16.3063 18.8342 15.9224 18.6083 15.3126 18.6987C15.132 18.6309 14.9174 18.6422 14.7029 18.7438C14.4658 18.8567 14.2512 19.0487 14.127 19.2745C14.0254 19.2519 13.9351 19.2971 13.8786 19.3197L13.8447 19.3423C13.1898 19.8278 12.0833 19.8165 11.338 19.5907C11.1348 19.4326 10.796 19.2294 10.446 19.06L10.367 18.9584C10.0282 18.518 9.35073 18.6422 8.97811 18.7099L8.94424 18.7212C8.22159 18.8454 7.58926 19.2858 7.17148 19.9407C7.13761 19.9859 7.10373 20.0423 7.08115 20.0875L6.90049 19.9746L7.04727 20.1553C6.65207 20.8892 6.53916 21.7699 6.74241 22.6394C6.6182 22.9894 6.62949 23.7008 6.67466 24.6718C6.69724 25.1461 6.71982 25.6316 6.68595 25.8462C6.66337 25.8913 6.66336 25.9365 6.66336 25.9816C6.69724 26.1849 6.83274 26.1849 7.55539 26.2075L7.75864 26.2188L7.76993 26.0155C7.81509 25.3945 7.9393 22.7184 7.82639 21.6796L7.87155 21.4538C7.87155 21.4425 7.89413 21.4199 7.91672 21.3973C7.97317 21.3183 8.08609 21.1602 8.0748 20.9682C8.10867 20.9231 8.13125 20.8779 8.13125 20.8102C8.17642 20.7876 8.21029 20.7537 8.22159 20.7198C8.25546 20.6634 8.26675 20.6069 8.24417 20.5392C8.42483 20.4827 8.57162 20.3472 8.70712 20.2343C8.80874 20.144 8.91037 20.0536 9.0007 20.0085C9.11361 19.9746 9.17007 19.9746 9.23782 19.9746C9.33944 19.9746 9.42977 19.9746 9.5314 19.9068C10.1863 20.3924 11.1799 21.036 12.3204 21.0473H12.343C13.3479 21.0473 14.3867 20.6069 15.1207 19.873C15.211 19.8504 15.3352 19.873 15.4594 19.8956C15.6062 19.9181 15.7643 19.952 15.9111 19.9294L16.1369 20.1553L16.2498 19.8843L16.3063 19.952C16.3176 19.9633 16.3176 19.9746 16.3176 19.9746L16.2611 20.1214L16.3853 20.2117C16.5547 20.3359 16.7353 20.4827 16.837 20.7311C17.0289 21.1602 17.0176 22.0183 17.0063 22.8539C17.0063 23.1249 16.9951 23.3959 16.9951 23.6443V23.8589H17.0741V24.5928L17.2773 25.2816H18.0452C18.0677 25.2816 18.0903 25.2816 18.1129 25.2816H18.1468H18.1919V25.2703C18.2597 25.259 18.3726 25.2251 18.3726 25.067C18.3726 24.988 18.3387 24.9315 18.2823 24.8977C18.2484 24.2089 18.2371 23.4975 18.2145 22.8087C18.1919 21.9958 18.1694 21.2279 18.1355 20.5279V20.4375L18.0564 20.3811C17.8758 20.2343 17.7855 20.0762 17.6951 19.8956C17.6612 19.8278 17.6274 19.7601 17.5822 19.6923C17.6274 19.681 17.6612 19.681 17.6951 19.681C17.7629 19.681 17.8306 19.681 17.921 19.6471C18.4291 19.9746 19.1856 20.415 20.0776 20.415H20.1002C20.8793 20.415 21.681 20.1214 22.2569 19.6246C22.3133 19.6133 22.415 19.6246 22.5053 19.6471C22.6182 19.6697 22.7311 19.681 22.8553 19.6697C22.9457 19.7488 23.0473 19.8165 23.1376 19.8843C23.3183 20.0085 23.4876 20.1101 23.5667 20.302C23.6909 20.5617 23.6796 21.1489 23.6683 21.657C23.6683 21.8377 23.657 22.0296 23.6683 22.2103V22.4135H23.7135V23.283L24.007 23.0233C24.0635 23.0233 24.1764 23.0233 24.391 23.0233H24.4474C24.5829 23.0007 24.6168 22.8765 24.6168 22.82C24.6168 22.7636 24.5942 22.7071 24.5603 22.6733C24.5829 22.199 24.5829 21.8038 24.5942 21.4086Z" fill="#DB8670"/>
</svg>
