<svg width="32" height="32" viewBox="0 0 32 32" fill="none" xmlns="http://www.w3.org/2000/svg">
<path d="M4.0343 2.95041L4.04377 2.9867C4.04377 2.97762 4.04377 2.96855 4.0343 2.95041Z" fill="#DB8670"/>
<path d="M3.58923 2.54218C3.58923 2.55157 3.59904 2.56096 3.59904 2.57036C3.59904 2.55157 3.59904 2.54218 3.58923 2.54218Z" fill="#DB8670"/>
<path d="M3.60833 2.57924L3.59869 2.5694C3.59869 2.5694 3.60833 2.57924 3.60833 2.57924Z" fill="#DB8670"/>
<path d="M4.46994 3.3042C4.50782 3.31327 4.53623 3.3677 4.5457 3.35863C4.51729 3.34049 4.49835 3.3042 4.46994 3.3042Z" fill="#DB8670"/>
<path d="M8.46644 7.10523C8.4475 7.08708 8.42856 7.07801 8.40015 7.06894C8.40962 7.08708 8.43803 7.10523 8.46644 7.10523Z" fill="#DB8670"/>
<path d="M7.55728 6.17086L7.50046 6.14365L7.52887 6.17086C7.52887 6.17086 7.53834 6.16179 7.55728 6.17086Z" fill="#DB8670"/>
<path d="M9.12954 7.69593C9.12954 7.69593 9.13935 7.68654 9.13935 7.67715C9.10993 7.64896 9.12954 7.67715 9.12954 7.69593Z" fill="#DB8670"/>
<path d="M6.73403 5.48141C6.72422 5.48141 6.72422 5.48141 6.71442 5.48141C6.72422 5.49144 6.72422 5.49144 6.73403 5.48141Z" fill="#DB8670"/>
<path d="M4.77304 3.65799C4.78285 3.66738 4.78285 3.66738 4.80246 3.67678C4.79266 3.66738 4.78285 3.66738 4.77304 3.65799Z" fill="#DB8670"/>
<path d="M7.21634 5.95312C7.22615 5.96252 7.23595 5.96252 7.24576 5.97191C7.22615 5.95313 7.21634 5.95312 7.21634 5.95312Z" fill="#DB8670"/>
<path d="M4.8298 3.69427L4.85923 3.72246L4.8298 3.69427Z" fill="#DB8670"/>
<path d="M4.65939 3.48563C4.66886 3.4947 4.6878 3.51284 4.69727 3.52191C4.6878 3.50377 4.66886 3.4947 4.65939 3.48563Z" fill="#DB8670"/>
<path d="M5.93784 4.79196C5.97706 4.812 5.95745 4.80198 5.93784 4.79196V4.79196Z" fill="#DB8670"/>
<path d="M4.98138 3.785L4.99119 3.79502H5.001L4.98138 3.785Z" fill="#DB8670"/>
<path d="M4.54575 3.35864C4.55555 3.36866 4.55555 3.36866 4.56536 3.36866C4.55555 3.36866 4.55555 3.35864 4.54575 3.35864Z" fill="#DB8670"/>
<path d="M5.55057 4.35651C5.53096 4.35651 5.53096 4.35651 5.52115 4.35651C5.53096 4.37655 5.54076 4.37655 5.55057 4.35651Z" fill="#DB8670"/>
<path d="M14.3667 10.6169L14.3569 10.5887C14.3569 10.5887 14.3569 10.6075 14.3667 10.6169Z" fill="#DB8670"/>
<path d="M14.9261 10.9072C14.9163 10.9072 14.9065 10.8972 14.8967 10.8972C14.9163 10.8972 14.9261 10.9072 14.9261 10.9072Z" fill="#DB8670"/>
<path d="M14.8873 10.8791L14.8969 10.8889C14.8969 10.8889 14.8969 10.8791 14.8873 10.8791Z" fill="#DB8670"/>
<path d="M13.9213 10.3347C13.8834 10.3347 13.855 10.2803 13.8455 10.2984C13.8739 10.3075 13.9023 10.3438 13.9213 10.3347Z" fill="#DB8670"/>
<path d="M11.62 10.3892C11.6295 10.4073 11.6484 10.4254 11.6768 10.4345C11.6674 10.4164 11.6484 10.3982 11.62 10.3892Z" fill="#DB8670"/>
<path d="M11.2223 9.33685V9.36407C11.2317 9.36407 11.2317 9.36407 11.2412 9.37314L11.2223 9.33685Z" fill="#DB8670"/>
<path d="M11.9041 10.7702L11.9138 10.78C11.9041 10.7702 11.9041 10.7702 11.9041 10.7702Z" fill="#DB8670"/>
<path d="M12.1697 11.0698C12.1501 11.051 12.1599 11.0792 12.1599 11.0886C12.1599 11.0886 12.1697 11.0792 12.1697 11.0698Z" fill="#DB8670"/>
<path d="M11.3927 9.002C11.4024 9.002 11.4024 8.99216 11.4024 8.99216C11.3927 8.99216 11.3927 9.002 11.3927 9.002Z" fill="#DB8670"/>
<path d="M13.6003 10.0451C13.5905 10.0451 13.5905 10.0357 13.5709 10.0263C13.5807 10.0357 13.5905 10.0357 13.6003 10.0451Z" fill="#DB8670"/>
<path d="M11.137 9.10101C11.137 9.11041 11.137 9.11041 11.1468 9.1198C11.1468 9.11041 11.1468 9.10101 11.137 9.10101Z" fill="#DB8670"/>
<path d="M13.5435 10.0182L13.5141 9.99002L13.5435 10.0182Z" fill="#DB8670"/>
<path d="M13.7224 10.1896C13.7129 10.1805 13.694 10.1715 13.6845 10.1624C13.7034 10.1805 13.7129 10.1805 13.7224 10.1896Z" fill="#DB8670"/>
<path d="M12.2932 9.25502C12.2539 9.24641 12.2735 9.25502 12.2932 9.25502V9.25502Z" fill="#DB8670"/>
<path d="M13.3822 9.96376L13.3724 9.95374H13.3625L13.3822 9.96376Z" fill="#DB8670"/>
<path d="M13.8462 10.2904C13.8364 10.2904 13.8364 10.2803 13.8266 10.2803C13.8364 10.2904 13.8364 10.2904 13.8462 10.2904C13.8462 10.2904 13.8462 10.3004 13.8462 10.2904Z" fill="#DB8670"/>
<path d="M12.7564 9.54605C12.7662 9.54605 12.7761 9.53666 12.7859 9.53666C12.7761 9.52726 12.7662 9.52726 12.7564 9.54605Z" fill="#DB8670"/>
<path d="M12.6617 8.50229L12.6715 8.53047C12.6715 8.52108 12.6716 8.51168 12.6617 8.50229Z" fill="#DB8670"/>
<path d="M13.1068 8.69278C13.1447 8.69278 13.1826 8.73814 13.192 8.72C13.1636 8.71093 13.1258 8.67464 13.1068 8.69278Z" fill="#DB8670"/>
<path d="M17.037 12.0039C17.0465 12.0221 17.0749 12.0402 17.1033 12.0402C17.0843 12.0221 17.0749 12.013 17.037 12.0039Z" fill="#DB8670"/>
<path d="M16.3078 11.1058L16.2604 11.0786L16.2794 11.1058C16.2794 11.0968 16.2888 11.0968 16.3078 11.1058Z" fill="#DB8670"/>
<path d="M17.3779 12.3577C17.3779 12.3577 17.3875 12.3577 17.3875 12.3676C17.3779 12.3577 17.3779 12.3577 17.3779 12.3577Z" fill="#DB8670"/>
<path d="M17.6625 12.6573C17.6429 12.6385 17.6527 12.6667 17.6527 12.6761C17.6625 12.6761 17.6625 12.6667 17.6625 12.6573Z" fill="#DB8670"/>
<path d="M15.5224 10.4527C15.5126 10.4527 15.5126 10.4527 15.5028 10.4527C15.5126 10.4627 15.5126 10.4627 15.5224 10.4527Z" fill="#DB8670"/>
<path d="M13.4762 8.94678C13.486 8.94678 13.4958 8.9568 13.5056 8.9568C13.4958 8.9568 13.486 8.94678 13.4762 8.94678Z" fill="#DB8670"/>
<path d="M15.9858 10.8881C15.9956 10.8975 16.0054 10.8975 16.0152 10.9069C15.9956 10.8975 15.9858 10.8881 15.9858 10.8881Z" fill="#DB8670"/>
<path d="M13.533 8.974L13.5624 8.99279L13.533 8.974Z" fill="#DB8670"/>
<path d="M13.3246 8.8107C13.3341 8.81977 13.3531 8.82884 13.3625 8.83791C13.3531 8.81977 13.3436 8.8107 13.3246 8.8107Z" fill="#DB8670"/>
<path d="M14.7357 9.85394C14.7652 9.86255 14.7554 9.85394 14.7357 9.85394V9.85394Z" fill="#DB8670"/>
<path d="M13.694 9.01935L13.7038 9.02937H13.7136L13.694 9.01935Z" fill="#DB8670"/>
<path d="M13.1921 8.72C13.2019 8.72 13.2019 8.73002 13.2117 8.73002C13.2019 8.72 13.1921 8.72 13.1921 8.72Z" fill="#DB8670"/>
<path d="M14.32 9.48203C14.3004 9.48203 14.3004 9.48202 14.2906 9.49205C14.3004 9.49205 14.3102 9.49205 14.32 9.48203Z" fill="#DB8670"/>
<path d="M16.5446 15.9955C16.5067 15.9955 16.4688 15.9501 16.4593 15.9683C16.4877 15.9773 16.5256 16.0046 16.5446 15.9955Z" fill="#DB8670"/>
<path d="M12.3871 12.7387C12.3776 12.7206 12.3397 12.7025 12.3208 12.7025C12.3397 12.7206 12.3492 12.7297 12.3871 12.7387Z" fill="#DB8670"/>
<path d="M13.1731 13.6368L13.2205 13.6641L13.1921 13.6368C13.1921 13.6459 13.1826 13.6459 13.1731 13.6368Z" fill="#DB8670"/>
<path d="M12.0279 12.395C12.0279 12.395 12.0181 12.395 12.0083 12.3849C12.0279 12.395 12.0279 12.395 12.0279 12.395Z" fill="#DB8670"/>
<path d="M11.734 12.0674C11.7242 12.0674 11.7242 12.0768 11.7242 12.0862C11.7438 12.1144 11.734 12.0862 11.734 12.0674Z" fill="#DB8670"/>
<path d="M13.9971 14.2816C14.0069 14.2816 14.0069 14.2816 14.0167 14.2816C13.9971 14.2716 13.9971 14.2716 13.9971 14.2816Z" fill="#DB8670"/>
<path d="M16.1573 15.7515C16.1475 15.7515 16.1376 15.7415 16.1278 15.7415C16.1376 15.7415 16.1475 15.7515 16.1573 15.7515Z" fill="#DB8670"/>
<path d="M13.5056 13.8464C13.4958 13.8364 13.486 13.8364 13.4762 13.8364C13.486 13.8464 13.4958 13.8464 13.5056 13.8464Z" fill="#DB8670"/>
<path d="M16.091 15.724L16.0616 15.7052L16.091 15.724Z" fill="#DB8670"/>
<path d="M16.3078 15.8776C16.2983 15.8685 16.2794 15.8594 16.2604 15.8503C16.2794 15.8685 16.2983 15.8776 16.3078 15.8776Z" fill="#DB8670"/>
<path d="M14.8218 14.8807C14.7825 14.8607 14.8021 14.8707 14.8218 14.8807V14.8807Z" fill="#DB8670"/>
<path d="M15.2661 15.2431C15.2857 15.2431 15.2857 15.2337 15.2955 15.2337C15.2759 15.2243 15.2661 15.2243 15.2661 15.2431Z" fill="#DB8670"/>
<path d="M7.63303 7.48625L7.59515 7.43182C7.59515 7.4409 7.60462 7.45904 7.63303 7.48625Z" fill="#DB8670"/>
<path d="M8.70316 8.3299C8.7221 8.34804 8.75051 8.37525 8.75998 8.36618C8.74104 8.35711 8.7221 8.33897 8.70316 8.3299Z" fill="#DB8670"/>
<path d="M8.67474 8.31188C8.68455 8.32128 8.69436 8.32128 8.70417 8.33067C8.69436 8.31188 8.68455 8.30249 8.67474 8.31188Z" fill="#DB8670"/>
<path d="M6.71439 6.67886C6.65757 6.64258 6.57234 6.53372 6.56287 6.55186C6.61022 6.58815 6.67651 6.66979 6.71439 6.67886Z" fill="#DB8670"/>
<path d="M17.1412 9.01028L17.1791 9.0375C17.1601 9.02843 17.1506 9.01936 17.1412 9.01028Z" fill="#DB8670"/>
<path d="M7.94554 3.83944C7.90766 3.80316 7.86978 3.77594 7.81296 3.73965C7.85084 3.78501 7.90766 3.8213 7.94554 3.83944Z" fill="#DB8670"/>
<path d="M6.36401 2.29724C6.35454 2.28817 6.35454 2.2791 6.3356 2.26096C6.34507 2.27003 6.35454 2.2791 6.36401 2.29724Z" fill="#DB8670"/>
<path d="M1.27484 3.72659C1.27473 3.68025 1.28013 3.61421 1.29127 3.62113C1.30474 3.82226 1.35504 3.9229 1.40159 4.00578C1.44815 4.08866 1.49095 4.1538 1.55614 4.2791C1.54125 4.25443 1.5375 4.23668 1.52261 4.21201C1.62123 4.35807 1.61748 4.34031 1.69922 4.40649C1.66767 4.39461 1.67892 4.44787 1.73474 4.52879C1.78129 4.61167 1.88906 4.70944 2.01162 4.78553C2.04129 4.78853 1.90009 4.67002 1.95017 4.67798C1.97245 4.69181 2.00588 4.71257 2.02816 4.7264L2.10427 4.76595C2.11541 4.77287 2.09501 4.76791 2.0746 4.76295C2.21569 4.83513 2.29754 4.94764 2.35501 4.94477L2.45914 5.07111L2.42009 5.02373C2.44789 5.01786 2.60199 5.10583 2.63541 5.12659C2.7969 5.20372 2.84522 5.24915 2.91769 5.31728C2.9028 5.29261 2.84886 5.22056 2.97141 5.29666C2.94185 5.33999 3.211 5.46855 3.19622 5.49022C3.24079 5.51789 3.32253 5.58407 3.33918 5.57128L3.31514 5.5949C3.35584 5.55848 3.52483 5.67113 3.66779 5.75218C3.59742 5.78559 3.82189 5.84015 3.84991 5.92695C3.90363 5.90633 4.10054 6.05943 4.14686 6.04964C4.24713 6.1119 4.21382 6.13748 4.23986 6.16907L4.30108 6.18395C4.34013 6.23133 4.5314 6.35781 4.64469 6.43586L4.77827 6.47253L4.80618 6.513C4.82659 6.51796 4.92311 6.56246 4.87479 6.51704L4.9305 6.55163C4.96193 6.51717 5.01588 6.58922 5.14582 6.65448C5.16998 6.67719 5.16071 6.67915 5.12916 6.66727C5.18487 6.70186 5.14781 6.70969 5.17384 6.74128C5.13667 6.70278 5.4206 6.80967 5.28128 6.70003C5.27753 6.68228 5.37405 6.72679 5.43163 6.77026L5.44288 6.82351L5.5319 6.83251C5.62103 6.88786 5.64894 6.92832 5.71766 6.9787C5.64155 6.93915 5.51547 6.93798 5.70487 7.05558C5.6046 6.99332 5.54338 6.97844 5.48028 6.95469C5.51558 6.98431 5.53786 6.99815 5.46363 6.96748C5.61773 7.05545 5.52485 6.98236 5.67895 7.07033C5.6549 7.09395 5.6902 7.12358 5.80724 7.21939L5.72175 7.13546C5.73101 7.1335 5.74028 7.13154 5.74216 7.14042C5.70686 7.11079 5.69571 7.10387 5.70123 7.08416C5.73465 7.10492 5.89978 7.15347 5.90729 7.18897C5.79201 7.05571 6.1857 7.31558 6.10948 7.2297C6.12989 7.23466 6.23942 7.29496 6.23391 7.31467C6.10021 7.23165 6.3045 7.37392 6.26744 7.38176C6.3194 7.39859 6.18195 7.29783 6.25619 7.3285C6.3323 7.36805 6.37323 7.42431 6.40853 7.45393L6.37698 7.44206L6.481 7.52207C6.5088 7.51619 6.38437 7.43122 6.49391 7.49152C6.51806 7.51424 6.6276 7.57454 6.62021 7.58537C6.55899 7.57049 6.57951 7.62179 6.48111 7.5684C6.55723 7.60795 6.79119 7.75322 6.71497 7.66734L6.8041 7.72268C6.75578 7.67726 6.61458 7.55874 6.79284 7.66943L6.78358 7.67138L6.92091 7.72581L6.96923 7.77123C6.97662 7.7604 6.99702 7.76536 7.04346 7.80191C7.04721 7.81966 7.09178 7.84733 7.08439 7.85816C7.21808 7.94117 7.21433 7.92342 7.24213 7.91755C7.31824 7.9571 7.34428 7.98868 7.2942 7.98072C7.39447 8.04298 7.57273 8.15367 7.63406 8.21488C7.77514 8.28706 7.6099 8.19217 7.70267 8.21893C7.7864 8.34031 8.1428 8.51534 8.36563 8.6537C8.33948 8.57577 8.41946 8.67941 8.48619 8.67458C8.46954 8.68737 8.66456 8.8316 8.47891 8.73175L8.59959 8.79897C8.6628 8.86906 8.39354 8.69416 8.49392 8.80276C8.62761 8.88577 8.74443 8.8889 8.89489 9.00546C8.82628 9.00141 9.02483 9.07072 8.9581 9.07555C8.91728 9.06563 8.87272 9.03796 8.82815 9.01029L8.85231 9.033C9.13459 9.22369 8.96174 9.04696 9.12323 9.1241C9.30149 9.23479 9.24402 9.23766 9.24777 9.25541C9.27193 9.27812 9.36106 9.33346 9.41301 9.3503C9.29609 9.30083 9.22725 9.20411 9.28847 9.21899C9.34429 9.29992 9.54659 9.38697 9.60781 9.40185C9.383 9.20829 9.42956 9.29117 9.22515 9.10256C9.18434 9.09264 9.17143 9.12319 9.03399 9.02242C9.13051 9.06693 9.0395 9.00271 9.01534 8.98C9.03211 9.01355 8.90768 8.92858 8.86499 8.90978C8.83708 8.86932 8.97442 8.92375 8.83697 8.82298L8.78325 8.84361C8.72567 8.80014 8.82771 8.82494 8.69776 8.75968C8.77939 8.77952 8.69765 8.71334 8.87216 8.80628C8.70305 8.6473 8.55657 8.64117 8.39507 8.56403C8.41548 8.56899 8.41548 8.56899 8.43589 8.57395C8.39508 8.56403 8.33937 8.52944 8.2948 8.50177C8.20192 8.42867 8.38757 8.52852 8.37268 8.50386L8.20744 8.40897L8.20556 8.40009C8.16287 8.38129 8.11831 8.35362 8.10529 8.33783C8.1257 8.34279 8.14611 8.34775 8.16651 8.35271L9.68172 9.29352L9.82655 9.38345L9.81211 9.54412C9.78322 9.86548 9.80441 10.1948 9.87568 10.5321C9.86454 10.5251 9.87955 10.5962 9.85726 10.5823L9.90216 10.749C9.91342 10.8023 9.93394 10.8535 9.95633 10.9137C9.96383 10.9492 9.90978 10.8308 9.9303 10.8821C9.93416 10.9462 9.96946 10.9758 9.98623 11.0094C9.9752 11.0488 10.0758 11.2501 10.0461 11.2471C10.1134 11.4739 10.1205 11.3241 10.2007 11.5204C10.1989 11.5579 10.1206 11.3704 10.1412 11.4681L10.2511 11.6674C10.2288 11.6535 10.1973 11.6417 10.1711 11.5637C10.2979 11.8429 10.393 12.0639 10.5047 12.2721C10.6165 12.4803 10.7337 12.6687 10.9326 12.8771C10.968 12.953 10.8862 12.8405 10.8305 12.8059C10.9773 12.9511 11.0703 13.0705 11.1521 13.183C11.234 13.2955 11.314 13.3992 11.4459 13.5196L11.4626 13.5068C11.7842 13.8839 12.2912 14.2218 12.7721 14.5282C12.7591 14.5124 12.7369 14.4986 12.7238 14.4828C12.8055 14.5026 12.915 14.5629 13.0004 14.6005C13.0041 14.6182 12.9151 14.6092 13.0747 14.6775C13.0506 14.6548 12.9856 14.6222 13.0134 14.6163C13.2158 14.7497 13.5537 14.9286 13.9527 15.0761C14.3517 15.2236 14.8044 15.3505 15.2069 15.423C15.4869 15.4658 15.7725 15.4889 16.0636 15.4923C16.2101 15.4985 16.3621 15.4849 16.4974 15.4841C16.6328 15.4833 16.7755 15.4717 16.9294 15.467C17.0814 15.4534 17.2427 15.4379 17.389 15.3977C17.5373 15.3664 17.6744 15.3281 17.8189 15.279C18.1005 15.1917 18.3746 15.0689 18.6227 14.9145C18.469 15.0118 18.5096 14.9291 18.6318 14.8662C18.8115 14.8004 18.9355 14.7 19.0484 14.5927C19.1612 14.4854 19.2703 14.3604 19.409 14.2383C19.4479 14.1931 19.4756 14.1408 19.5144 14.0956C19.5439 14.0522 19.5735 14.0089 19.6012 13.9567C19.6529 13.8808 19.6954 13.807 19.7471 13.7311C19.7583 13.738 19.7694 13.745 19.7917 13.7588C19.8028 13.7657 19.8158 13.7815 19.8381 13.7953C19.8493 13.8023 19.8511 13.8111 19.8641 13.8269L19.8753 13.8339L19.8734 13.825L19.8697 13.8072L19.8753 13.8339C19.8565 13.7451 19.8489 13.6633 19.8302 13.5745C20.0018 13.2415 20.1122 12.8937 20.1039 12.5338L20.1317 12.5279C20.1519 12.4402 20.137 12.4156 20.1368 12.3229L20.146 12.3209C20.1606 12.2066 20.1455 12.0893 20.1415 11.9788C20.1283 11.8704 20.1169 11.7708 20.113 11.7067L20.0834 11.7037C20.0664 11.5775 20.098 11.6357 20.0606 11.5045L20.0699 11.5025L20.0195 11.3556C20.0491 11.3586 20.0211 11.2718 19.9986 11.1653C19.9668 11.0607 19.9239 10.9493 19.9238 10.9029C19.8623 10.749 19.7244 10.4629 19.6274 10.2331C19.631 10.2045 19.5956 10.1285 19.5453 10.0279C19.4969 9.93612 19.4336 9.8197 19.387 9.73681C19.2847 9.57301 19.1489 9.38845 18.9927 9.19893C18.8365 9.0094 18.6691 8.81297 18.4981 8.64511L18.4852 8.67566C18.4592 8.64407 18.4239 8.61444 18.3905 8.59369C18.3997 8.59173 18.3867 8.57594 18.3997 8.59173C18.3811 8.54931 18.3216 8.49697 18.2641 8.45351C18.2065 8.41004 18.1489 8.36658 18.1191 8.31724C18.1508 8.37545 18.1804 8.37845 18.238 8.42192C18.3031 8.50089 18.2159 8.45442 18.1173 8.3547L18.1266 8.35274L18.0486 8.30432C18.0523 8.27573 18.0002 8.21256 18.0057 8.19285C17.6806 7.93703 17.4189 7.79763 17.0605 7.56738C17.1087 7.56647 16.7857 7.41219 16.8932 7.41728C16.6575 7.30947 16.9138 7.46858 16.7913 7.43882C16.7263 7.40619 16.6521 7.37552 16.6484 7.35777C16.6892 7.36769 16.6093 7.31039 16.6613 7.32722C16.6074 7.30151 16.5629 7.27384 16.509 7.24813C16.4979 7.24121 16.5294 7.25309 16.5499 7.25805C16.2214 7.12348 15.9948 6.96737 15.6775 6.88606C15.6497 6.89193 15.7945 6.93553 15.7667 6.9414C15.6127 6.89977 15.5403 6.87797 15.4846 6.84338C15.4196 6.81075 15.3658 6.78504 15.2137 6.75228L15.2804 6.74745C15.1821 6.7404 15.1339 6.74131 14.9873 6.68884C14.9706 6.6553 15.1246 6.69693 15.2043 6.7079C15.1004 6.67422 14.8277 6.62058 14.9038 6.66013C14.774 6.6412 14.7276 6.60466 14.6645 6.5809C14.6571 6.59174 14.7795 6.62149 14.7016 6.61941C14.5272 6.57281 14.2453 6.52113 14.0283 6.50207C14.0265 6.4932 14.0153 6.48628 14.0338 6.48236C13.854 6.50181 13.8799 6.44073 13.6277 6.43838C13.2977 6.43395 12.9084 6.46984 12.5359 6.53929C12.1541 6.61069 11.791 6.72451 11.4798 6.85517C11.4465 6.88075 11.4113 6.89746 11.378 6.92304C11.3688 6.925 11.3521 6.93779 11.3521 6.93779L11.3447 6.94862L11.3373 6.95946C11.3281 6.96142 11.3207 6.97225 11.3114 6.97421L11.2891 6.96037C11.2946 6.94066 11.302 6.92983 11.3094 6.919L11.3001 6.92095C11.2909 6.92291 11.2779 6.90712 11.2667 6.9002L11.1906 6.86065C11.1423 6.81523 11.3001 6.92095 11.2165 6.8459L11.1479 6.84186C11.1442 6.82411 10.8007 6.61853 11.0568 6.7313L10.522 6.39925C10.4087 6.3212 10.433 6.39025 10.3067 6.2964C10.2918 6.27173 10.3587 6.31324 10.3549 6.29549C9.98714 6.02087 9.85753 6.09462 9.50465 5.84466L9.5362 5.85654C9.46196 5.82587 9.35055 5.75669 9.34128 5.75865C9.36555 5.8277 9.42291 5.77849 9.51954 5.86933C9.48623 5.89492 9.36919 5.79911 9.35629 5.82966C9.27455 5.76348 9.2152 5.75748 9.13721 5.70905C9.02944 5.61129 8.83453 5.5134 8.7583 5.42751C8.68406 5.39684 8.59505 5.38784 8.46135 5.30482C8.38513 5.21894 8.49841 5.29699 8.38138 5.20119L8.34431 5.20902C8.24217 5.13788 8.26257 5.14284 8.27184 5.14089C8.16043 5.07171 8.15866 5.10917 8.02122 5.00841L8.11399 5.03516C8.00445 4.97486 7.95988 4.94719 7.81505 4.85726C7.82244 4.84643 7.88929 4.88793 7.92459 4.91756C7.8595 4.8386 7.7835 4.84538 7.73894 4.81771C7.74269 4.83546 7.84296 4.89772 7.78361 4.89172C7.71489 4.84134 7.61286 4.81654 7.57381 4.76916L7.66658 4.79592C7.50508 4.71878 7.56454 4.77112 7.40481 4.65652C7.41595 4.66344 7.41408 4.65456 7.42334 4.6526C7.29715 4.60509 7.1671 4.4935 7.00185 4.39861L7.0334 4.41048C6.95917 4.37981 6.91835 4.36989 6.88493 4.34914C6.96667 4.41531 6.94626 4.41035 6.94075 4.43006C6.84036 4.32147 6.73105 4.35384 6.54529 4.20765C6.55268 4.19682 6.6139 4.2117 6.66222 4.25712C6.75123 4.26613 6.77528 4.2425 6.91449 4.3058C6.82911 4.26821 6.73998 4.21287 6.76965 4.21587L6.7252 4.23454C6.68064 4.20687 6.64721 4.18611 6.61191 4.15649C6.57485 4.16432 6.67887 4.24433 6.57121 4.1929C6.44127 4.12764 6.52653 4.1189 6.49874 4.12477C6.32423 4.03184 6.40972 4.11576 6.25187 4.01004C6.27227 4.015 6.30382 4.02688 6.31684 4.04267C6.21282 3.96266 6.02904 3.87169 6.02706 3.81647C6.04746 3.82143 6.06412 3.80864 6.09942 3.83827L6.09015 3.84023C6.22561 3.88578 6.01404 3.80068 6.03808 3.77706C6.00841 3.77405 5.87472 3.69104 5.81714 3.64758L5.82464 3.68308C5.53707 3.60477 5.86534 3.64666 5.62211 3.50335C5.46062 3.42621 5.67969 3.54681 5.57391 3.50426C5.47176 3.43313 5.45312 3.39071 5.29162 3.31357C5.25445 3.27507 5.18385 3.21581 5.18749 3.18722C5.09097 3.14272 4.91635 3.00345 4.84774 2.9994C4.98894 3.11792 5.01662 3.06571 5.18385 3.21581L5.11524 3.21176C4.99269 3.13567 4.81818 3.04274 4.73832 2.98544C4.75133 3.00123 4.75321 3.01011 4.74394 3.01206C4.55829 2.91221 4.48781 2.89929 4.31881 2.78665C4.31131 2.75115 4.41158 2.81341 4.48957 2.86183C4.39294 2.77099 4.37628 2.78378 4.20729 2.67114C4.21093 2.64255 4.32058 2.74919 4.35764 2.74136L4.11452 2.64438C4.0608 2.665 3.96969 2.55445 3.84901 2.48723C3.78216 2.44573 3.72645 2.41114 3.67262 2.38542C3.61879 2.35971 3.58725 2.34783 3.53529 2.331C3.45179 2.30228 3.3813 2.28936 3.28114 2.27344C3.23658 2.24577 3.22356 2.22997 3.24209 2.22606C3.32008 2.27448 3.31633 2.25673 3.346 2.25973C3.22908 2.21026 3.08799 2.13809 3.16587 2.14017C2.95441 2.10141 3.23084 2.1728 3.10288 2.16276C3.01199 2.14487 2.91183 2.12895 2.81355 2.1219C2.84697 2.14266 2.94526 2.1497 2.80252 2.16132C2.67832 2.16902 2.61897 2.16302 2.46145 2.19631C2.48738 2.18156 2.40762 2.17059 2.52995 2.15402C2.45395 2.1608 2.32423 2.18822 2.2928 2.22267C2.38545 2.20309 2.3132 2.22763 2.24283 2.26105C2.17246 2.29446 2.10396 2.33675 2.16882 2.32305C2.1151 2.34367 2.06138 2.3643 2.00954 2.39379C2.04285 2.36821 2.04097 2.35934 2.09282 2.32984C2.03347 2.32383 1.97435 2.4105 1.92438 2.44888C1.87254 2.47838 1.75044 2.58763 1.74117 2.58958C1.71161 2.63292 1.6173 2.7363 1.60065 2.74909C1.59326 2.75992 1.59326 2.75992 1.58587 2.77075L1.58774 2.77963C1.58774 2.77963 1.58962 2.78851 1.59888 2.78655C1.60815 2.78459 1.61741 2.78263 1.61929 2.79151L1.54539 2.89984C1.52509 2.94122 1.5048 2.9826 1.4845 3.02397C1.46597 3.02789 1.4085 3.03076 1.41953 2.99134C1.39384 3.09876 1.44932 3.04068 1.39406 3.19144C1.3827 3.09185 1.32038 3.39245 1.31078 3.2554C1.296 3.27706 1.2831 3.30761 1.28133 3.34507C1.2703 3.38448 1.26115 3.43278 1.26126 3.47912C1.25222 3.57375 1.26546 3.68221 1.2712 3.75518C1.28245 3.80843 1.27495 3.77293 1.27484 3.72659ZM9.10013 8.00707L9.12054 8.01203C9.08899 8.00015 9.03516 7.97444 9.02589 7.9764C9.01862 8.03357 9.0741 7.97548 9.10388 8.02482C9.08171 8.05732 9.03152 8.00303 9.01861 8.03357C8.99071 7.99311 8.95364 8.00094 8.92022 7.98018C8.87929 7.92393 8.78465 7.8883 8.76413 7.837C8.73258 7.82512 8.67886 7.84575 8.61202 7.80424C8.5915 7.75294 8.63794 7.78949 8.58775 7.73519L8.56183 7.74994C8.51539 7.7134 8.52653 7.72031 8.53392 7.70948C8.47821 7.67489 8.47645 7.71235 8.41699 7.66001L8.46707 7.66797C8.41324 7.64226 8.40022 7.62647 8.33338 7.58496C8.34077 7.57413 8.36492 7.59684 8.38721 7.61067C8.36669 7.55938 8.31484 7.58888 8.30183 7.57308C8.3037 7.58196 8.35014 7.61851 8.31308 7.62634C8.27966 7.60559 8.22219 7.60846 8.21469 7.57295L8.26476 7.58092C8.18126 7.5522 8.2073 7.58379 8.1367 7.52453C8.14596 7.52257 8.14596 7.52257 8.14409 7.5137C8.07548 7.50965 8.02341 7.44648 7.95469 7.3961L7.97509 7.40106C7.94355 7.38918 7.91575 7.39505 7.89347 7.38122C7.93064 7.41972 7.91023 7.41476 7.90472 7.43447C7.87118 7.36738 7.7953 7.42051 7.71168 7.34546C7.71907 7.33462 7.74874 7.33762 7.7729 7.36033C7.82849 7.34859 7.85254 7.32496 7.91376 7.33984C7.87295 7.32992 7.82838 7.30225 7.84691 7.29833L7.8136 7.32392C7.79132 7.31008 7.78018 7.30316 7.7579 7.28933C7.73198 7.30408 7.78029 7.3495 7.71907 7.33462C7.65597 7.31087 7.70969 7.29024 7.69116 7.29416C7.60578 7.25657 7.63557 7.30591 7.57611 7.25357C7.58538 7.25161 7.60578 7.25657 7.60766 7.26544C7.55934 7.22002 7.47584 7.19131 7.48499 7.14301C7.49426 7.14106 7.51091 7.12826 7.52393 7.14406L7.51467 7.14602C7.59442 7.15698 7.46084 7.1203 7.50529 7.10164C7.49977 7.12135 7.42178 7.07292 7.39763 7.05021L7.39211 7.06992C7.23636 7.06575 7.43094 7.02463 7.31214 6.96628C7.22863 6.93757 7.33629 6.989 7.28621 6.98103C7.23977 6.94449 7.23415 6.91786 7.15991 6.88719C7.14502 6.86252 7.11898 6.83093 7.13189 6.80039C7.07993 6.78355 7.01673 6.71346 6.9704 6.72325C7.02247 6.78642 7.06129 6.74113 7.11711 6.82206L7.08005 6.82989C7.02434 6.7953 6.93896 6.75771 6.91293 6.72612C6.9148 6.735 6.91668 6.74387 6.90741 6.74583C6.82204 6.70824 6.77571 6.71803 6.70511 6.65877C6.70875 6.63019 6.75519 6.66674 6.78674 6.67861C6.74769 6.63123 6.73103 6.64402 6.66043 6.58477C6.66595 6.56506 6.71614 6.61936 6.73279 6.60656L6.64554 6.5601C6.61223 6.58568 6.57869 6.51859 6.52486 6.49288C6.40231 6.41678 6.35047 6.44628 6.25957 6.4284C6.24468 6.40373 6.24281 6.39486 6.26134 6.39094C6.2781 6.42449 6.28549 6.41365 6.30403 6.40974C6.25946 6.38207 6.23707 6.32189 6.26674 6.3249C6.1925 6.29422 6.28351 6.35844 6.23155 6.3416L6.14055 6.27739C6.13691 6.30597 6.17033 6.32672 6.11838 6.30989C6.07569 6.29109 6.05341 6.27726 6.00696 6.24071C6.01623 6.23875 6.00873 6.20325 6.04403 6.23288C6.01987 6.21017 5.98457 6.18054 5.95865 6.19529C6.00884 6.24959 5.85286 6.15274 5.88265 6.20208L5.83246 6.14778C5.8436 6.1547 5.85099 6.14386 5.87327 6.1577C5.87503 6.12024 5.81944 6.13199 5.79903 6.12703C5.78602 6.11123 5.73031 6.07664 5.73582 6.05693C5.71542 6.05197 5.66898 6.01543 5.67449 5.99572C5.64294 5.98384 5.65784 6.00851 5.64857 6.01047L5.52238 5.96296C5.52789 5.94325 5.54819 5.90187 5.56859 5.90683C5.52778 5.89691 5.52789 5.94325 5.47219 5.90866C5.51852 5.89887 5.42012 5.84549 5.48686 5.84066C5.46821 5.79824 5.38096 5.75177 5.32713 5.72606C5.27892 5.72697 5.37544 5.77148 5.3514 5.79511C5.20656 5.70518 5.16035 5.7613 5.06747 5.68821L5.09162 5.71092C5.01926 5.68912 5.02853 5.68717 4.97845 5.6792C5.01363 5.6625 4.96333 5.56186 4.85379 5.50156C4.83714 5.51435 4.8966 5.56669 4.85953 5.57452L4.79269 5.53302C4.79081 5.52414 4.80195 5.53106 4.81122 5.5291C4.74625 5.49647 4.72198 5.42742 4.68679 5.44413L4.65138 5.36817L4.66815 5.40171C4.64961 5.40563 4.58464 5.373 4.56424 5.36804C4.48073 5.33932 4.46584 5.31465 4.43793 5.27419C4.44168 5.29194 4.45106 5.33632 4.39723 5.31061C4.42679 5.26727 4.29133 5.22172 4.31538 5.1981C4.2931 5.18426 4.26519 5.1438 4.25041 5.16547L4.27445 5.14184C4.24302 5.1763 4.16503 5.12788 4.10006 5.09524C4.14815 5.04799 4.03321 5.05374 4.03861 4.98769C4.0053 5.01328 3.92169 4.93823 3.8865 4.95493C3.84193 4.92726 3.8641 4.89476 3.86035 4.87701L3.83068 4.87401C3.81391 4.84046 3.73405 4.78316 3.68573 4.73774L3.61712 4.7337L3.6115 4.70707C3.60223 4.70903 3.55027 4.69219 3.57443 4.7149L3.55027 4.69219C3.5281 4.72469 3.50946 4.68227 3.44636 4.65852C3.43335 4.64272 3.44261 4.64076 3.46302 4.64572C3.44074 4.63189 3.45739 4.6191 3.45364 4.60135C3.46854 4.62601 3.3183 4.60213 3.37963 4.66335C3.37412 4.68305 3.32216 4.66622 3.30727 4.64155L3.30903 4.60409L3.25344 4.61584C3.21075 4.59704 3.20325 4.56154 3.17909 4.53883C3.21251 4.55958 3.29215 4.52421 3.20302 4.46887C3.24759 4.49654 3.28465 4.4887 3.3162 4.50058C3.29392 4.48675 3.29204 4.47787 3.33098 4.47891C3.25674 4.44824 3.29392 4.48675 3.22707 4.44524C3.25111 4.42161 3.23622 4.39695 3.18791 4.35152L3.21769 4.40086L3.20842 4.40282C3.22144 4.41861 3.22332 4.42749 3.22519 4.43636C3.21405 4.42945 3.12503 4.42044 3.12128 4.40269C3.15857 4.48753 2.97656 4.3591 3.00822 4.41731C2.99895 4.41927 2.94512 4.39355 2.95064 4.37385C3.02112 4.38677 2.92824 4.31367 2.95416 4.29892C2.92449 4.29592 2.98395 4.34826 2.9524 4.33639C2.91898 4.31563 2.90221 4.28209 2.88919 4.26629L2.9096 4.27125L2.86128 4.22583C2.84463 4.23862 2.89294 4.28405 2.83911 4.25833C2.8261 4.24254 2.77414 4.2257 2.7908 4.21291C2.82786 4.20508 2.82962 4.16762 2.87419 4.19529C2.84076 4.17454 2.73123 4.11423 2.75175 4.16553L2.70718 4.13786C2.72207 4.16253 2.78528 4.23262 2.69803 4.18615L2.70729 4.1842L2.63681 4.17127L2.62004 4.13773C2.61265 4.14856 2.60339 4.15052 2.5811 4.13669C2.57923 4.12781 2.56621 4.11202 2.5736 4.10118C2.50863 4.06855 2.5105 4.07743 2.49197 4.08134C2.45855 4.06059 2.43627 4.04676 2.47333 4.03892C2.45105 4.02509 2.45105 4.02509 2.43991 4.01817C2.42876 4.01125 2.41762 4.00434 2.40648 3.99742C2.3842 3.98358 2.36931 3.95891 2.36556 3.94116C2.31173 3.91545 2.36931 3.95891 2.32849 3.94899C2.33026 3.91153 2.31349 3.87799 2.2837 3.82865C2.2558 3.78819 2.22601 3.73885 2.20549 3.68755C2.16479 3.72397 2.1906 3.66288 2.14052 3.65492C2.1628 3.66876 2.16809 3.55638 2.19424 3.6343C2.19049 3.61655 2.18674 3.5988 2.18299 3.58105C2.20516 3.54855 2.20913 3.65897 2.24608 3.6048C2.23483 3.55155 2.17912 3.51696 2.20493 3.45587C2.24023 3.4855 2.20294 3.40066 2.23637 3.42141C2.24938 3.43721 2.24199 3.44804 2.24575 3.46579L2.25314 3.45496C2.27883 3.34754 2.21596 3.41645 2.20096 3.34545C2.22301 3.26661 2.24905 3.2982 2.26758 3.29428C2.27497 3.28345 2.28787 3.25291 2.28412 3.23515C2.28423 3.28149 2.23052 3.30211 2.21562 3.27745C2.26934 3.25682 2.27099 3.17302 2.26537 3.1464C2.2154 3.18477 2.20989 3.20448 2.19323 3.21727C2.18772 3.23698 2.17106 3.24977 2.13223 3.29507C2.13598 3.31282 2.1768 3.32274 2.15099 3.38382C2.14161 3.33945 2.13058 3.37886 2.12319 3.3897C2.14911 3.37495 2.1233 3.43603 2.12893 3.46266C2.11415 3.48433 2.08062 3.41724 2.06595 3.48524L2.1179 3.50208C2.11426 3.53066 2.07709 3.49216 2.08834 3.54541C2.06231 3.51383 2.04201 3.5552 2.0344 3.47336C1.9883 3.57583 2.06628 3.62425 2.09982 3.69134C2.09794 3.68246 2.08868 3.68442 2.0868 3.67555C2.09982 3.69134 2.11471 3.71601 2.11846 3.73376C2.12045 3.78897 2.08316 3.70413 2.07765 3.72384C2.08328 3.75047 2.09817 3.77514 2.10379 3.80176C2.11681 3.81756 2.12983 3.83335 2.12244 3.84418C2.1113 3.83727 2.10203 3.83922 2.09089 3.83231C2.07412 3.79876 2.05548 3.75634 2.0461 3.71196C1.98068 3.49399 2.02645 3.25252 2.15208 3.06835C2.27771 2.88417 2.43875 2.77597 2.65186 2.73093C2.64447 2.74177 2.68341 2.74281 2.67602 2.75364C2.73162 2.7419 2.77982 2.74098 2.82802 2.74007C2.83916 2.74699 2.78357 2.75873 2.81137 2.75286C2.84292 2.76474 2.8577 2.74307 2.87623 2.73915C2.88924 2.75495 2.99492 2.75116 2.97275 2.78366C3.03419 2.89121 3.00617 2.80442 3.08603 2.86172C3.08979 2.87947 3.01367 2.83992 3.03971 2.87151C3.07125 2.88338 3.1028 2.89526 3.13435 2.90714C3.12508 2.9091 3.09916 2.92384 3.06762 2.91197C3.12332 2.94656 3.1605 2.98506 3.20881 3.03048C3.24599 3.06899 3.28504 3.11637 3.32221 3.15487C3.39656 3.23188 3.46903 3.30001 3.58784 3.35836C3.60648 3.40078 3.55816 3.35536 3.53037 3.36123C3.71039 3.43445 3.72363 3.54292 3.85733 3.62593L3.87398 3.61314C4.02643 3.78491 4.27143 3.89076 4.46833 4.04386L4.45344 4.0192C4.49237 4.02024 4.53694 4.04791 4.57963 4.0667C4.5815 4.07558 4.52591 4.08733 4.60015 4.118C4.58713 4.10221 4.57224 4.07754 4.5815 4.07558C4.7302 4.2296 5.12753 4.46088 5.41357 4.66933C5.82204 4.90753 6.24364 5.20787 6.64285 5.44803C6.57788 5.4154 6.63899 5.38394 6.67616 5.42244C6.75625 5.57242 6.89523 5.54305 6.99937 5.66939C7.24811 5.793 7.41358 5.98056 7.66221 6.05783L7.6567 6.07754C7.68273 6.10912 7.69939 6.09633 7.73281 6.11709L7.72355 6.11904C7.79414 6.1783 7.90919 6.21889 7.94637 6.2574L7.96115 6.23573C8.00571 6.2634 7.97792 6.26928 8.02987 6.28611L8.02248 6.29695L8.09297 6.30987C8.06153 6.34433 8.22666 6.39288 8.24531 6.4353C8.31028 6.46793 8.43835 6.52432 8.52935 6.58853C8.53498 6.61516 8.64826 6.69321 8.71699 6.7436C8.85995 6.82465 9.06975 6.94721 9.24062 7.06873L9.25353 7.03818L9.29809 7.06586C9.28883 7.06781 9.29997 7.07473 9.2907 7.07669C9.31122 7.12798 9.40951 7.13503 9.42815 7.17745C9.42065 7.14195 9.39473 7.1567 9.37057 7.13399C9.34266 7.09353 9.39274 7.10149 9.43918 7.13803L9.42991 7.13999L9.47073 7.14991C9.46521 7.16962 9.49124 7.20121 9.47646 7.22287C9.63057 7.31085 9.76415 7.34752 9.91273 7.4552C9.88681 7.46995 10.0334 7.52242 9.96855 7.53613C10.0743 7.57868 9.97032 7.49867 10.0371 7.49384C10.0593 7.50767 10.1001 7.51759 10.0946 7.5373C10.0761 7.54122 10.1021 7.57281 10.0799 7.55897L10.1448 7.5916C10.1467 7.60048 10.1356 7.59356 10.1263 7.59552C10.1578 7.60739 10.1913 7.62815 10.2247 7.6489L10.247 7.66274L10.2581 7.66965L10.26 7.67853C10.2619 7.6874 10.2545 7.69824 10.273 7.69432C10.2915 7.69041 10.2711 7.68545 10.2897 7.68153C10.3175 7.67566 10.3193 7.68453 10.3119 7.69537C10.3027 7.69732 10.2953 7.70816 10.3138 7.70424L10.2749 7.7032C10.3027 7.69732 10.3231 7.70228 10.2953 7.70816C10.2563 7.70711 10.2656 7.70516 10.2471 7.70907C10.2471 7.70907 10.249 7.71795 10.286 7.71012C10.2879 7.71899 10.2582 7.71599 10.249 7.71795C10.2582 7.71599 10.2694 7.72291 10.2879 7.71899C10.2786 7.72095 10.2694 7.72291 10.2601 7.72487C10.2453 7.74653 10.2213 7.77016 10.2046 7.78295C10.2027 7.77407 10.1842 7.77799 10.1916 7.76716C10.1713 7.80853 10.1546 7.82132 10.1361 7.82524C10.1176 7.82916 10.0917 7.84391 10.0602 7.87836C10.0528 7.8892 10.0362 7.90199 10.0288 7.91282L10.014 7.93449L9.96592 7.98174C9.94188 8.00537 9.93085 8.04478 9.90868 8.07729C9.89577 8.10783 9.88838 8.11866 9.87548 8.1492C9.85518 8.19058 9.83489 8.23196 9.82386 8.27138C9.81647 8.28221 9.81095 8.30192 9.80356 8.31275C9.80356 8.31275 9.80169 8.30388 9.79242 8.30584L9.76639 8.27425L9.75525 8.26733L9.75712 8.27621L9.76088 8.29396L9.77037 8.38467C9.77412 8.40242 9.77787 8.42018 9.77235 8.43988C9.77235 8.43988 9.76309 8.44184 9.75382 8.4438L9.7611 8.38663L9.75371 8.39746C9.75922 8.37776 9.7611 8.38663 9.75735 8.36888C9.74996 8.37971 9.75183 8.38859 9.74444 8.39942C9.74996 8.37971 9.73143 8.38363 9.75547 8.36L9.55493 8.23548C9.49923 8.2009 9.49934 8.24723 9.45102 8.20181C9.44727 8.18406 9.48069 8.20481 9.47694 8.18706C9.35053 8.04688 9.25247 8.1325 9.10013 8.00707ZM2.0856 3.94469C2.08372 3.93581 2.07258 3.9289 2.07071 3.92002C2.08185 3.92694 2.09299 3.93386 2.0856 3.94469C2.09487 3.94273 2.09299 3.93386 2.0856 3.94469ZM12.4526 7.38209C12.5546 7.36055 12.6676 7.34593 12.7807 7.33131C12.7733 7.34214 12.8122 7.34319 12.8048 7.35402L12.955 7.33157C12.9661 7.33849 12.9198 7.34828 12.9383 7.34436C12.9699 7.35624 12.9828 7.32569 13.0032 7.33065C13.0162 7.34645 13.1181 7.32491 13.1145 7.35349C13.2146 7.36942 13.1533 7.3082 13.2535 7.32412C13.2665 7.33992 13.1775 7.33091 13.2202 7.34971L13.3147 7.339C13.3073 7.34984 13.2925 7.37151 13.2628 7.3685C13.3908 7.37855 13.4947 7.41223 13.5893 7.44786C13.6821 7.47462 13.7749 7.50137 13.8917 7.5045C13.9177 7.53609 13.8658 7.51925 13.8399 7.534C14.0104 7.51651 14.07 7.61519 14.2091 7.63215L14.2146 7.61244C14.4002 7.71229 14.6431 7.7166 14.8473 7.81253L14.8231 7.78982C14.8602 7.78199 14.9103 7.78995 14.9492 7.79099C14.9511 7.79987 14.9085 7.82741 14.9771 7.83146C14.966 7.82454 14.9437 7.8107 14.9511 7.79987C15.1182 7.90364 15.5023 8.02646 15.779 8.19052C16.1724 8.35772 16.5495 8.63038 16.8893 8.86454C16.8336 8.82995 16.8873 8.80933 16.9226 8.83896C16.9712 8.97705 17.1139 8.96544 17.1791 9.09074C17.2813 9.16187 17.3556 9.23888 17.4318 9.32477C17.5081 9.41065 17.5805 9.47878 17.6901 9.53909L17.6753 9.56075C17.6921 9.5943 17.7106 9.59038 17.7347 9.61309L17.7255 9.61505C17.7775 9.67822 17.8574 9.73552 17.8853 9.77599L17.9112 9.76124C17.9484 9.79974 17.9076 9.78982 17.954 9.82637L17.9466 9.8372L18.0005 9.86291C17.9838 9.87571 17.9987 9.90037 18.0248 9.93196C18.0508 9.96355 18.0861 9.99318 18.0806 10.0129C18.1289 10.0583 18.2144 10.1422 18.2609 10.2251C18.248 10.2557 18.315 10.3435 18.3504 10.4195C18.3913 10.4757 18.436 10.5497 18.4825 10.6326C18.5291 10.7155 18.5757 10.7984 18.6111 10.8743L18.637 10.8596L18.6556 10.902C18.6464 10.904 18.6482 10.9128 18.6464 10.904C18.6279 10.9542 18.7041 10.9938 18.6949 11.0421C18.7078 11.0115 18.6874 11.0066 18.6725 10.9819C18.6743 10.9444 18.717 10.9632 18.7189 11.0184L18.7097 11.0204C18.7208 11.0273 18.732 11.0342 18.7357 11.052C18.7191 11.0648 18.7173 11.1022 18.6895 11.1081C18.723 11.1752 18.7547 11.2334 18.7864 11.2916C18.818 11.3498 18.8404 11.41 18.8573 11.4899C18.848 11.4919 18.848 11.4919 18.8499 11.5007L18.8518 11.5096C18.8537 11.5185 18.8555 11.5274 18.8259 11.5244C18.85 11.5471 18.8629 11.5165 18.9037 11.5264C18.9056 11.5353 18.9186 11.5511 18.9075 11.5442C18.8963 11.5373 18.8797 11.5501 18.8778 11.5412L18.8816 11.5589L18.8704 11.552C18.8834 11.5678 18.8853 11.5767 18.876 11.5787C18.8668 11.5806 18.8556 11.5737 18.8798 11.5964C18.904 11.6191 18.8891 11.5944 18.904 11.6191C18.93 11.6507 18.9188 11.6438 18.9077 11.6369C18.8966 11.6299 18.8835 11.6142 18.9003 11.6477L18.8724 11.6072C18.8966 11.6299 18.9152 11.6724 18.9003 11.6477C18.8613 11.6003 18.8705 11.5984 18.8575 11.5826C18.8575 11.5826 18.8705 11.5984 18.9003 11.6477C18.9152 11.6724 18.8762 11.625 18.8724 11.6072C18.8854 11.623 18.8984 11.6388 18.9152 11.6724C18.8911 11.6497 18.8929 11.6585 18.8929 11.6585C18.8799 11.6427 18.8762 11.625 18.8613 11.6003C18.9097 11.6921 18.8483 11.5845 18.8426 11.5579C18.8464 11.5757 18.8631 11.6092 18.865 11.6181C18.8688 11.6358 18.8595 11.6378 18.8539 11.6112C18.8577 11.6752 18.8447 11.6594 18.8355 11.6614L18.8409 11.5954C18.8427 11.6042 18.8335 11.6062 18.8335 11.6062C18.839 11.5865 18.8409 11.5954 18.8371 11.5776C18.8297 11.5884 18.8316 11.5973 18.8242 11.6082C18.8297 11.5884 18.8186 11.5815 18.8315 11.551L18.8054 11.5194C18.7664 11.472 18.748 11.5223 18.7163 11.4641C18.7218 11.4443 18.7386 11.4779 18.7441 11.4582C18.6306 11.2875 18.5195 11.3573 18.4005 11.2063L18.4209 11.2112C18.3894 11.1994 18.3503 11.152 18.3429 11.1628C18.3245 11.2131 18.3837 11.1727 18.4043 11.224C18.3709 11.2496 18.3393 11.1914 18.3152 11.215C18.2966 11.1726 18.2577 11.1716 18.2335 11.1488C18.2018 11.0906 18.1238 11.0422 18.1107 10.9801C18.0792 10.9682 18.0217 10.9711 17.9734 10.9256C17.9621 10.8724 17.9993 10.9109 17.9603 10.8635L17.9343 10.8783C17.8972 10.8398 17.9064 10.8378 17.9157 10.8358C17.8693 10.7993 17.8563 10.8298 17.8135 10.7647L17.8636 10.7727C17.8191 10.745 17.806 10.7292 17.7466 10.6769C17.754 10.666 17.7781 10.6887 17.7912 10.7045C17.7799 10.6513 17.7262 10.6719 17.7132 10.6561C17.715 10.665 17.7429 10.7055 17.7133 10.7025C17.6891 10.6797 17.6298 10.6737 17.6315 10.6363L17.6816 10.6442C17.6055 10.6047 17.6315 10.6363 17.5702 10.5751L17.5795 10.5731C17.5182 10.5582 17.4754 10.4931 17.416 10.4408L17.4364 10.4457C17.4048 10.4338 17.3771 10.4397 17.364 10.4239C17.3919 10.4644 17.3808 10.4575 17.366 10.4791C17.3418 10.4101 17.264 10.4543 17.1989 10.3754C17.2063 10.3645 17.236 10.3675 17.2527 10.4011C17.3083 10.3893 17.3324 10.3657 17.3955 10.3895C17.362 10.3687 17.3194 10.3499 17.3379 10.346L17.3027 10.3627C17.2804 10.3489 17.2674 10.3331 17.2563 10.3262C17.2303 10.3409 17.2694 10.3883 17.2156 10.3626C17.1617 10.3369 17.2154 10.3162 17.1969 10.3202C17.1208 10.2806 17.1413 10.3319 17.0893 10.2687C17.0985 10.2668 17.1097 10.2737 17.1208 10.2806C17.0818 10.2332 17.0075 10.2025 17.0167 10.1543C17.0259 10.1523 17.0426 10.1395 17.0556 10.1553L17.0463 10.1573C17.1168 10.1702 17.0018 10.1296 17.037 10.1129C17.0222 10.1345 16.9627 10.0822 16.9386 10.0595L16.9349 10.0881C16.7884 10.0819 16.9756 10.0517 16.8754 9.9894C16.8011 9.95873 16.8903 10.0141 16.8476 9.99528C16.8104 9.95677 16.8048 9.93015 16.7398 9.89752C16.7268 9.88172 16.6989 9.84126 16.7229 9.81763C16.6802 9.79884 16.617 9.72875 16.58 9.73658C16.632 9.79975 16.6616 9.75642 16.7174 9.83734L16.6803 9.84518C16.6339 9.80863 16.5485 9.77104 16.5225 9.73945C16.5244 9.74833 16.5262 9.7572 16.517 9.75916C16.4316 9.72157 16.3945 9.7294 16.3239 9.67015C16.3276 9.64156 16.3721 9.66923 16.4056 9.68998C16.3758 9.64065 16.3591 9.65344 16.2904 9.60306C16.3052 9.58139 16.3368 9.6396 16.3628 9.62485L16.2755 9.57839C16.2422 9.60397 16.2179 9.53492 16.1548 9.51117C16.0323 9.43507 15.9897 9.46262 15.9007 9.45361C15.8877 9.43782 15.8839 9.42006 15.9024 9.41615C15.9192 9.44969 15.9247 9.42998 15.9451 9.43494C15.9024 9.41615 15.8782 9.3471 15.9078 9.3501C15.8336 9.31943 15.9246 9.38365 15.8727 9.36681L15.7835 9.31147C15.778 9.33118 15.8133 9.36081 15.7614 9.34397C15.7187 9.32518 15.7056 9.30938 15.6499 9.27479C15.6592 9.27284 15.6517 9.23733 15.687 9.26696C15.6628 9.24425 15.6294 9.2235 15.6016 9.22937C15.6499 9.27479 15.4958 9.18682 15.5256 9.23616L15.4773 9.19074C15.4884 9.19765 15.4958 9.18682 15.5181 9.20066C15.5199 9.1632 15.4662 9.18382 15.4439 9.16998C15.4309 9.15419 15.3752 9.1196 15.3826 9.10877C15.3621 9.10381 15.3176 9.07614 15.3231 9.05643C15.2915 9.04455 15.3064 9.06922 15.2991 9.08005L15.2099 9.02471C15.2154 9.005 15.2357 8.96363 15.245 8.96167C15.2042 8.95175 15.2043 8.99809 15.1597 8.97041C15.2061 8.96062 15.1077 8.90724 15.1651 8.90437C15.1484 8.87082 15.0611 8.82436 15.0073 8.79865C14.961 8.80843 15.0537 8.83519 15.0297 8.85882C14.8905 8.79551 14.8442 8.85164 14.7532 8.78742L14.7774 8.81013C14.705 8.78834 14.7162 8.79525 14.668 8.79617C14.7032 8.77946 14.6436 8.68079 14.5378 8.63824C14.5212 8.65103 14.5787 8.69449 14.5528 8.70924L14.4786 8.67857C14.4767 8.66969 14.4878 8.67661 14.4971 8.67465C14.434 8.6509 14.4097 8.58185 14.3672 8.60939L14.3318 8.53343L14.3485 8.56697C14.3319 8.57976 14.2576 8.54909 14.2484 8.55105C14.1667 8.53121 14.1518 8.50654 14.1258 8.47495C14.1296 8.4927 14.1482 8.53512 14.0944 8.50941C14.1221 8.4572 13.983 8.44023 13.9977 8.41857C13.9755 8.40473 13.9402 8.3751 13.9346 8.39481L13.9568 8.36231C13.9273 8.40565 13.8511 8.3661 13.7788 8.3443C13.8157 8.29013 13.7064 8.3225 13.7026 8.25842C13.6711 8.29288 13.5801 8.22866 13.5561 8.25228C13.5041 8.23545 13.5263 8.20294 13.5225 8.18519L13.4947 8.19107C13.4798 8.1664 13.3833 8.12189 13.3369 8.08534L13.272 8.09905L13.2571 8.07438C13.2479 8.07634 13.1978 8.06838 13.2219 8.09109L13.1904 8.07921C13.1701 8.12059 13.1515 8.07817 13.0828 8.07412C13.0717 8.0672 13.0791 8.05637 13.0976 8.05245C13.0661 8.04058 13.092 8.02583 13.079 8.01003C13.092 8.02583 12.9511 8.04632 13.018 8.08783C13.0217 8.10558 12.9717 8.09762 12.9401 8.08574L12.9326 8.05024L12.89 8.07778C12.8492 8.06786 12.8343 8.04319 12.8009 8.02244C12.8417 8.03236 12.9083 7.98119 12.8156 7.95443C12.8657 7.96239 12.9027 7.95456 12.9231 7.95952C12.9027 7.95456 12.8916 7.94764 12.9286 7.93981C12.8489 7.92885 12.8934 7.95652 12.8211 7.93472C12.834 7.90418 12.821 7.88839 12.756 7.85576L12.7932 7.89426L12.7839 7.89622C12.8043 7.90118 12.8062 7.91005 12.8007 7.92976C12.7895 7.92285 12.7061 7.94047 12.6931 7.92467C12.7471 7.99672 12.5485 7.92742 12.5857 7.96592C12.5764 7.96788 12.5263 7.95992 12.5226 7.94217C12.5893 7.93734 12.4835 7.89479 12.5076 7.87116C12.4798 7.87703 12.5448 7.90967 12.517 7.91554C12.4873 7.91254 12.4724 7.88787 12.4501 7.87403L12.4928 7.89283C12.4909 7.88395 12.4909 7.88395 12.4909 7.88395L12.4186 7.86216L12.4909 7.88395L12.5021 7.89087L12.4594 7.87208L12.5021 7.89087L12.4909 7.88395L12.4186 7.86216C12.4074 7.85524 12.387 7.85028 12.3759 7.84336C12.3592 7.85615 12.4223 7.87991 12.3741 7.88082C12.363 7.8739 12.324 7.87286 12.3222 7.86398C12.3481 7.84923 12.3406 7.81373 12.3703 7.81673C12.3406 7.81373 12.2794 7.79885 12.298 7.84127C12.2869 7.83436 12.2776 7.83631 12.2757 7.82744C12.2795 7.84519 12.3278 7.89061 12.2647 7.86686L12.2628 7.85798C12.2443 7.8619 12.235 7.86385 12.2146 7.85889C12.2127 7.85002 12.2109 7.84114 12.1997 7.83423C12.1923 7.84506 12.1831 7.84702 12.1608 7.83318C12.1589 7.82431 12.1459 7.80851 12.1533 7.79768C12.0976 7.76309 12.0921 7.7828 12.0735 7.78672C12.0401 7.76596 12.029 7.75905 12.0568 7.75317C12.0438 7.73738 12.0215 7.72354 11.9992 7.70971C12.0047 7.69 11.9824 7.67616 12.025 7.64862C12.1177 7.62904 12.1047 7.65958 12.1085 7.67734C12.1196 7.68425 12.1641 7.66559 12.19 7.65084C12.1382 7.68034 12.0843 7.65463 12.1065 7.62212C12.1511 7.64979 12.2362 7.59471 12.2622 7.57996C12.1231 7.563 12.1695 7.59954 12.0489 7.57866C12.0323 7.59145 12.049 7.625 11.973 7.63178C12.0156 7.60424 11.9693 7.61403 11.9489 7.60907C11.9619 7.62487 11.9044 7.62774 11.8878 7.64053C11.8859 7.63165 11.8859 7.63165 11.884 7.62278C11.8895 7.60307 11.8951 7.58336 11.8487 7.59315C11.8376 7.58623 11.8357 7.57736 11.8264 7.57931C11.8357 7.57736 11.8357 7.57736 11.845 7.5754C11.8338 7.56848 11.8153 7.5724 11.806 7.57435C11.806 7.57435 11.806 7.57435 11.7949 7.56744L12.2396 7.47345L12.462 7.42646L12.4526 7.38209ZM17.4353 14.6091C17.3446 14.6375 17.2426 14.6591 17.15 14.6786C17.0481 14.7002 16.9535 14.7109 16.8516 14.7324C16.859 14.7216 16.8201 14.7205 16.8275 14.7097L16.6773 14.7322C16.6662 14.7252 16.7125 14.7154 16.694 14.7194C16.6624 14.7075 16.6495 14.738 16.6291 14.7331C16.6161 14.7173 16.5142 14.7388 16.5178 14.7102C16.4177 14.6943 16.479 14.7555 16.3788 14.7396C16.3658 14.7238 16.4548 14.7328 16.4122 14.714C16.3751 14.7218 16.3454 14.7188 16.3084 14.7267C16.3157 14.7158 16.3305 14.6942 16.3602 14.6972C16.223 14.6891 16.1191 14.6554 16.0244 14.6198C15.9725 14.6029 15.9317 14.593 15.8816 14.5851C15.8315 14.5771 15.7814 14.5691 15.7128 14.5651C15.6775 14.5355 15.7387 14.5503 15.7646 14.5356C15.5848 14.555 15.5345 14.4544 15.3862 14.4394L15.3807 14.4591C15.195 14.3593 14.941 14.348 14.7275 14.2541L14.7517 14.2768C14.7146 14.2846 14.6646 14.2766 14.6256 14.2756C14.6237 14.2667 14.6663 14.2392 14.5977 14.2351C14.6088 14.2421 14.633 14.2648 14.6237 14.2667C14.4474 14.1649 14.0521 14.0352 13.7755 13.8711C13.3709 13.697 12.9846 13.4263 12.6428 13.1833C12.6985 13.2178 12.6448 13.2385 12.6095 13.2088C12.5591 13.0619 12.4164 13.0735 12.3512 12.9482C12.249 12.877 12.1728 12.7912 12.0966 12.7053C12.0594 12.6668 12.0203 12.6194 11.9739 12.5828C11.9367 12.5443 11.8903 12.5078 11.8365 12.4821L11.8512 12.4604C11.8345 12.4269 11.8159 12.4308 11.7918 12.4081L11.801 12.4061C11.749 12.3429 11.6672 12.2768 11.6486 12.2344L11.6227 12.2491C11.5855 12.2106 11.6263 12.2205 11.5799 12.184L11.5891 12.182L11.5334 12.1474C11.576 12.1199 11.4516 12.0349 11.4422 11.9905C11.3939 11.9451 11.3158 11.8503 11.2692 11.7675C11.2821 11.7369 11.2226 11.6382 11.189 11.5712C11.1053 11.4498 11.0084 11.2663 10.9431 11.0946L10.9172 11.1094C10.9135 11.0916 10.9023 11.0847 10.8986 11.0669C10.9078 11.065 10.906 11.0561 10.9078 11.065C10.9263 11.0147 10.8575 10.9644 10.8686 10.9249C10.8464 10.9574 10.8761 10.9604 10.8817 10.9871C10.8818 11.0334 10.8372 11.0057 10.8353 10.9505L10.8445 10.9486L10.8185 10.917C10.8351 10.9042 10.8369 10.8667 10.8647 10.8608C10.8386 10.7829 10.8069 10.7247 10.7752 10.6665C10.7566 10.6241 10.7566 10.6241 10.7454 10.6172C10.7436 10.6083 10.7398 10.5905 10.7379 10.5817C10.7491 10.5886 10.7472 10.5797 10.7453 10.5708C10.7435 10.5619 10.7435 10.5619 10.775 10.5738C10.7639 10.5669 10.7527 10.56 10.7435 10.5619C10.7323 10.555 10.7138 10.5589 10.7008 10.5432C10.6989 10.5343 10.6859 10.5185 10.7082 10.5323C10.7193 10.5392 10.7397 10.5442 10.7416 10.5531L10.7397 10.5442C10.7397 10.5442 10.7509 10.5511 10.7527 10.56C10.7397 10.5442 10.7471 10.5334 10.749 10.5422C10.7582 10.5403 10.7713 10.5561 10.7452 10.5245C10.7192 10.4929 10.736 10.5264 10.7192 10.4929C10.6913 10.4524 10.7024 10.4594 10.7154 10.4751C10.7285 10.4909 10.7415 10.5067 10.7247 10.4732L10.7545 10.5225C10.7377 10.489 10.7061 10.4308 10.734 10.4712C10.7489 10.4959 10.7656 10.5294 10.7824 10.563C10.7824 10.563 10.7768 10.5364 10.7358 10.4801C10.7191 10.4466 10.7526 10.5137 10.7656 10.5294C10.7526 10.5137 10.7377 10.489 10.7191 10.4466C10.7321 10.4624 10.734 10.4712 10.734 10.4712C10.734 10.4712 10.7321 10.4624 10.7432 10.4693C10.747 10.487 10.7619 10.5117 10.7768 10.5364C10.7376 10.4426 10.7917 10.561 10.7973 10.5877C10.7935 10.5699 10.7879 10.5433 10.786 10.5344C10.7842 10.5255 10.7953 10.5324 10.8064 10.5394C10.8175 10.4999 10.8286 10.5069 10.8509 10.5207L10.8213 10.564C10.8306 10.5621 10.8306 10.5621 10.8399 10.5601C10.8325 10.571 10.8306 10.5621 10.8251 10.5818C10.8325 10.571 10.8417 10.569 10.851 10.567C10.851 10.567 10.8529 10.5759 10.864 10.5828C10.877 10.5986 10.8808 10.6164 10.8919 10.6233C10.9068 10.648 10.9106 10.6657 10.8549 10.6311C10.9181 10.7012 10.9813 10.7713 11.0519 10.8306C11.0909 10.8779 11.1094 10.8277 11.1503 10.8839C11.154 10.9017 11.128 10.8701 11.1132 10.8918C11.236 11.0605 11.3471 10.9907 11.4735 11.1309L11.4531 11.1259C11.4846 11.1378 11.5329 11.1832 11.5311 11.1744C11.5495 11.1241 11.4921 11.1733 11.4697 11.1131C11.5031 11.0876 11.5347 11.1458 11.5588 11.1222C11.5774 11.1646 11.6163 11.1656 11.6498 11.1864C11.6814 11.2446 11.7613 11.3019 11.7818 11.3532C11.8134 11.3651 11.8708 11.3622 11.9265 11.3968C11.947 11.4481 11.9006 11.4115 11.9415 11.4678L11.9675 11.453C12.0046 11.4915 11.9954 11.4935 11.9861 11.4954C12.0325 11.532 12.0454 11.5015 12.0956 11.5557L12.0456 11.5478C12.0901 11.5755 12.1124 11.5893 12.1626 11.6436C12.1552 11.6544 12.131 11.6317 12.118 11.6159C12.1293 11.6692 12.183 11.6485 12.196 11.6643C12.1941 11.6555 12.157 11.617 12.1959 11.618C12.2201 11.6407 12.2794 11.6467 12.2869 11.6822L12.2368 11.6743C12.3111 11.7049 12.2869 11.6822 12.3575 11.7415L12.3482 11.7434C12.4095 11.7583 12.4523 11.8235 12.521 11.8738L12.5006 11.8689C12.5321 11.8807 12.5599 11.8749 12.5729 11.8907C12.545 11.8502 12.5562 11.8571 12.571 11.8355C12.5952 11.9045 12.673 11.8603 12.7473 11.9373C12.7399 11.9481 12.7103 11.9451 12.6954 11.9204C12.6398 11.9322 12.6157 11.9558 12.5526 11.932C12.5861 11.9528 12.6288 11.9716 12.6102 11.9755L12.6435 11.9499C12.6658 11.9638 12.6788 11.9796 12.69 11.9865C12.7159 11.9717 12.6769 11.9243 12.7307 11.9501C12.7845 11.9758 12.7308 11.9964 12.7493 11.9925C12.8254 12.032 12.8049 11.9807 12.8663 12.0419C12.857 12.0439 12.8366 12.0389 12.8347 12.0301C12.8738 12.0774 12.9573 12.1062 12.9481 12.1545C12.9388 12.1564 12.9222 12.1692 12.9092 12.1534L12.9184 12.1515C12.8479 12.1385 12.9723 12.1772 12.9278 12.1958C12.9426 12.1742 13.002 12.2265 13.0355 12.2473L13.0391 12.2187C13.1949 12.2228 12.9984 12.2551 13.1079 12.3154C13.1822 12.3461 13.0838 12.2927 13.1357 12.3095C13.1822 12.3461 13.1785 12.3746 13.2528 12.4053C13.2658 12.4211 13.2937 12.4616 13.2808 12.4921C13.3235 12.5109 13.396 12.579 13.433 12.5712C13.381 12.508 13.3514 12.5514 13.2956 12.4705L13.3326 12.4626C13.3884 12.4972 13.4645 12.5368 13.4998 12.5664C13.4979 12.5575 13.496 12.5486 13.5053 12.5467C13.5907 12.5843 13.6277 12.5764 13.6983 12.6357C13.6947 12.6643 13.6501 12.6366 13.6167 12.6159C13.6557 12.6632 13.6631 12.6524 13.7411 12.7008C13.7356 12.7205 13.6854 12.6662 13.6688 12.679L13.756 12.7255C13.7893 12.6999 13.8229 12.767 13.8767 12.7927C13.9992 12.8688 14.0492 12.8304 14.1401 12.8483C14.1531 12.8641 14.1569 12.8819 14.1383 12.8858C14.1216 12.8522 14.1161 12.8719 14.0956 12.867C14.1383 12.8858 14.1626 12.9548 14.1329 12.9518C14.2072 12.9825 14.1162 12.9183 14.1681 12.9351L14.2573 12.9905C14.2516 12.9638 14.2275 12.9411 14.2794 12.958C14.3221 12.9767 14.3444 12.9906 14.389 13.0183C14.3797 13.0202 14.3872 13.0557 14.3519 13.0261C14.3761 13.0488 14.4095 13.0696 14.4373 13.0637C14.389 13.0183 14.5431 13.1062 14.5114 13.048L14.5597 13.0934C14.5486 13.0865 14.5412 13.0974 14.5189 13.0835C14.5171 13.121 14.5709 13.1004 14.5931 13.1142C14.6062 13.13 14.6619 13.1646 14.6637 13.1734C14.6841 13.1784 14.7287 13.2061 14.7325 13.2238C14.764 13.2357 14.7491 13.211 14.7565 13.2002L14.8456 13.2555C14.8401 13.2753 14.8291 13.3147 14.8106 13.3186C14.8514 13.3285 14.8513 13.2822 14.9051 13.3079C14.8588 13.3177 14.9664 13.3691 14.8997 13.3739C14.9165 13.4075 15.013 13.452 15.0649 13.4688C15.1113 13.459 15.0185 13.4323 15.0333 13.4106C15.1725 13.4739 15.2168 13.4089 15.3171 13.4712L15.2929 13.4485C15.3634 13.4614 15.3542 13.4633 15.4024 13.4624C15.369 13.488 15.436 13.5758 15.5418 13.6184C15.5584 13.6056 15.5009 13.5621 15.5268 13.5474L15.601 13.5781C15.6029 13.5869 15.5936 13.5889 15.5825 13.582C15.6549 13.6038 15.6791 13.6728 15.7124 13.6472L15.7571 13.7212L15.7403 13.6877C15.757 13.6749 15.8312 13.7056 15.8498 13.7017C15.9314 13.7215 15.9537 13.7353 15.9816 13.7758C15.9778 13.7581 15.9592 13.7156 16.013 13.7413C15.9946 13.7916 16.1244 13.8105 16.1097 13.8322C16.1301 13.8371 16.1672 13.8757 16.182 13.854L16.1691 13.8845C16.1894 13.8432 16.2748 13.8807 16.3471 13.9025C16.3102 13.9567 16.4195 13.9243 16.4326 13.9865C16.4641 13.952 16.5551 14.0162 16.5865 13.9818C16.6385 13.9986 16.6163 14.0311 16.6293 14.0469L16.6571 14.041C16.672 14.0657 16.7685 14.1102 16.8224 14.1359L16.8872 14.1222L16.9021 14.1469C16.9114 14.1449 16.9615 14.1529 16.9373 14.1302L16.9688 14.142C16.9799 14.1026 17.017 14.1411 17.0764 14.1471C17.0875 14.1541 17.0801 14.1649 17.0709 14.1668C17.1024 14.1787 17.0765 14.1935 17.0895 14.2093C17.0765 14.1935 17.2174 14.173 17.1413 14.1334C17.1375 14.1157 17.1857 14.1148 17.2191 14.1355L17.2266 14.171L17.2692 14.1435C17.3193 14.1514 17.3249 14.1781 17.3657 14.188C17.3249 14.1781 17.2602 14.2381 17.3622 14.2629C17.3121 14.2549 17.2769 14.2717 17.2473 14.2687C17.2677 14.2736 17.2788 14.2805 17.2417 14.2884C17.3215 14.2993 17.2769 14.2717 17.3493 14.2935C17.3364 14.324 17.3587 14.3378 17.4125 14.3635L17.3661 14.327L17.3753 14.325C17.3549 14.3201 17.353 14.3112 17.3512 14.3023C17.3623 14.3092 17.4531 14.2808 17.4587 14.3074C17.3955 14.2373 17.6033 14.3047 17.5643 14.2573C17.5717 14.2465 17.6329 14.2613 17.6274 14.281C17.5606 14.2859 17.6664 14.3284 17.6516 14.3501C17.6794 14.3442 17.6052 14.3135 17.6441 14.3146C17.6738 14.3176 17.698 14.3403 17.711 14.3561C17.5924 14.3904 17.6926 14.4064 17.6241 14.4486C17.5333 14.4771 17.5462 14.4466 17.5332 14.4308C17.5128 14.4258 17.4776 14.4425 17.4535 14.4661C17.5035 14.4278 17.5592 14.4623 17.5444 14.484C17.4906 14.4583 17.4073 14.5223 17.3925 14.5439C17.5298 14.552 17.4833 14.5155 17.6113 14.5255C17.6261 14.5039 17.6093 14.4703 17.6853 14.4635C17.6427 14.4911 17.6983 14.4793 17.7095 14.4862C17.6872 14.4724 17.7539 14.4676 17.778 14.4439C17.8002 14.4578 17.7521 14.505 17.8263 14.4894L17.8243 14.4342C17.854 14.4372 17.8225 14.4716 17.8836 14.4402C17.8615 14.4727 17.9004 14.4737 17.8208 14.5091C17.919 14.5161 17.9541 14.4531 18.0133 14.4127C18.0133 14.4127 18.0133 14.4127 18.0245 14.4197C18.0319 14.4088 18.0411 14.4069 18.0504 14.4049C18.0523 14.4138 18.0634 14.4207 18.0542 14.4227C18.0542 14.4227 18.0634 14.4207 18.0653 14.4296C18.0653 14.4296 18.0653 14.4296 18.0672 14.4385L18.0764 14.4365C18.1265 14.4445 18.1228 14.4267 18.132 14.4248L18.1413 14.4228C18.132 14.4248 18.1135 14.4287 18.1154 14.4375C18.1246 14.4356 18.132 14.4248 18.1413 14.4228C18.1524 14.4297 18.1617 14.4278 18.1636 14.4366L17.4353 14.6091ZM11.0926 8.50396C11.1223 8.50696 11.1501 8.50109 11.189 8.50213C11.1928 8.51988 11.2021 8.56426 11.1836 8.56818C11.2188 8.55147 11.202 8.51792 11.2521 8.52589C11.2207 8.56034 11.3264 8.55656 11.2745 8.58606C11.2987 8.60877 11.3877 8.61777 11.4452 8.6149C11.4785 8.58932 11.3932 8.59806 11.3968 8.56948C11.5433 8.57561 11.558 8.50761 11.6619 8.54128L11.6396 8.52745C11.7064 8.52262 11.6971 8.52458 11.7434 8.51479C11.7194 8.53841 11.7937 8.61542 11.905 8.63826C11.9217 8.62547 11.8567 8.59284 11.8715 8.57117L11.942 8.58409C11.9438 8.59297 11.9346 8.59493 11.9253 8.59688C11.9939 8.60093 12.0367 8.66606 12.0589 8.63356L12.111 8.69673L12.0961 8.67206C12.1127 8.65927 12.1832 8.67219 12.2017 8.66828C12.2796 8.67037 12.3038 8.69308 12.3391 8.72271C12.3353 8.70496 12.3074 8.66449 12.3686 8.67937C12.3502 8.72962 12.4856 8.72884 12.4727 8.75938C12.4931 8.76434 12.5284 8.79397 12.5431 8.7723L12.5302 8.80285C12.5505 8.76147 12.634 8.79018 12.7045 8.80311C12.6676 8.85727 12.7769 8.8249 12.7808 8.88899C12.8122 8.85453 12.9032 8.91875 12.9254 8.88625C12.9773 8.90309 12.9551 8.93559 12.9589 8.95334L12.9867 8.94746C13.0016 8.97213 13.0962 9.00776 13.1427 9.04431L13.2075 9.03061L13.2224 9.05527C13.2317 9.05332 13.2818 9.06128 13.2576 9.03857L13.2799 9.0524C13.3002 9.01103 13.3207 9.06232 13.3893 9.06637C13.4005 9.07329 13.3931 9.08412 13.3745 9.08803C13.4061 9.09991 13.3802 9.11466 13.3932 9.13045C13.3802 9.11466 13.5229 9.10304 13.4561 9.06154C13.4616 9.04183 13.5024 9.05175 13.5265 9.07446L13.5248 9.11192L13.5785 9.0913C13.6193 9.10122 13.6268 9.13672 13.6602 9.15747C13.6287 9.14559 13.5509 9.18984 13.6456 9.22547C13.5936 9.20864 13.5658 9.21451 13.5361 9.21151C13.5565 9.21647 13.5584 9.22534 13.5306 9.23122C13.603 9.25302 13.5677 9.22339 13.6308 9.24714C13.6086 9.27964 13.6309 9.29348 13.6773 9.33002L13.6402 9.29152L13.6494 9.28956C13.6364 9.27377 13.6364 9.27377 13.6327 9.25602C13.6438 9.26294 13.7291 9.25419 13.7347 9.28082C13.69 9.20681 13.8738 9.29778 13.844 9.24845C13.8533 9.24649 13.9052 9.26332 13.8997 9.28303C13.8311 9.27899 13.9202 9.33433 13.9055 9.356C13.9351 9.359 13.8775 9.31553 13.9072 9.31854C13.9388 9.33041 13.9555 9.36396 13.9685 9.37975L13.9481 9.37479L13.9946 9.41134C14.0112 9.39855 13.9555 9.36396 14.0075 9.3808C14.0205 9.39659 14.0706 9.40455 14.0632 9.41538C14.0261 9.42322 14.0336 9.45872 13.9909 9.43992C14.0225 9.4518 14.1302 9.50323 14.1096 9.45193L14.1523 9.47073C14.1374 9.44606 14.078 9.39372 14.1615 9.42243L14.1541 9.43326L14.2227 9.43731L14.2376 9.46198C14.245 9.45115 14.2542 9.44919 14.2765 9.46302C14.2784 9.4719 14.2914 9.48769 14.284 9.49853C14.349 9.53116 14.3452 9.51341 14.3638 9.50949C14.3953 9.52137 14.4083 9.53716 14.3805 9.54303C14.4251 9.5707 14.5105 9.60829 14.5273 9.64184C14.5996 9.66364 14.5142 9.62605 14.5624 9.62513C14.5886 9.70306 14.7537 9.75161 14.8521 9.80499C14.8501 9.74978 14.8837 9.81687 14.9262 9.78933C14.8984 9.7952 15.0025 9.87521 14.9078 9.83958L14.9617 9.86529C14.9803 9.90771 14.8689 9.83854 14.9005 9.89675C14.9655 9.92938 15.0285 9.9068 15.088 9.95914C15.0435 9.97781 15.1511 9.98289 15.1066 10.0016C15.0881 10.0055 15.0658 9.99164 15.0435 9.97781L15.0565 9.9936C15.181 10.0786 15.1121 9.98185 15.1937 10.0017C15.2699 10.0412 15.2347 10.0579 15.2384 10.0757C15.2514 10.0915 15.283 10.1034 15.3127 10.1064C15.2533 10.1004 15.2402 10.0382 15.268 10.0324C15.2792 10.0856 15.3794 10.1015 15.4091 10.1045C15.3198 10.0029 15.3311 10.0561 15.253 9.96136C15.2344 9.96527 15.2123 9.99777 15.1621 9.94348C15.2122 9.95144 15.1676 9.92377 15.1657 9.91489C15.1713 9.94152 15.1138 9.89805 15.0934 9.89309C15.0877 9.86647 15.1563 9.87051 15.0988 9.82705L15.0581 9.86347C15.0339 9.84075 15.0914 9.83788 15.0283 9.81413C15.0653 9.8063 15.0393 9.77471 15.1154 9.81426C15.0485 9.72641 14.9688 9.76179 14.8965 9.73999C14.9057 9.73803 14.9057 9.73803 14.915 9.73607C14.8965 9.73999 14.8649 9.72811 14.8426 9.71428C14.8055 9.67577 14.8908 9.71336 14.8871 9.69561L14.811 9.65606C14.7906 9.6511 14.7702 9.64614 14.7664 9.62839C14.7757 9.62644 14.7849 9.62448 14.8035 9.62056C15.0225 9.74116 15.2416 9.86177 15.4756 10.007C15.652 10.1088 15.8191 10.2126 15.9751 10.3095C15.9658 10.3114 15.9899 10.3341 15.9714 10.338L16.094 10.4141C16.0977 10.4319 16.0532 10.4042 16.0754 10.4181C16.0903 10.4427 16.1181 10.4369 16.1385 10.4418C16.1423 10.4596 16.2295 10.506 16.2055 10.5297C16.2798 10.6067 16.2611 10.5179 16.3336 10.586C16.328 10.6057 16.2667 10.5445 16.2946 10.585L16.3819 10.6315C16.3726 10.6334 16.3467 10.6482 16.3225 10.6255C16.5232 10.7963 16.5681 10.963 16.7779 11.0856C16.7854 11.1211 16.7482 11.0825 16.7185 11.0795C16.88 11.1567 16.8747 11.2691 16.9899 11.356L17.0066 11.3432C17.1201 11.5139 17.3318 11.6454 17.4842 11.8171L17.4786 11.7905C17.5194 11.8004 17.5547 11.8301 17.5881 11.8508C17.5807 11.8616 17.5418 11.8606 17.5901 11.906C17.5864 11.8883 17.5715 11.8636 17.5826 11.8705C17.6869 12.0432 17.9879 12.3227 18.1572 12.5743C18.2967 12.7303 18.412 12.9099 18.4978 13.0865C18.535 13.1713 18.5723 13.2562 18.5762 13.3202C18.5781 13.3291 18.5799 13.338 18.5799 13.338C18.5818 13.3469 18.5818 13.3469 18.5818 13.3469L18.5837 13.3558L18.5782 13.3755C18.5763 13.3666 18.6301 13.3923 18.6116 13.3962C18.5689 13.3774 18.5689 13.3774 18.5615 13.3883C18.5615 13.3883 18.5615 13.3883 18.5541 13.3991C18.5541 13.3991 18.5541 13.3991 18.5449 13.401C18.5263 13.405 18.5059 13.4 18.4855 13.395C18.404 13.4215 18.2946 13.4076 18.1944 13.3916C18.1443 13.3837 18.085 13.3777 18.0349 13.3697C17.9848 13.3618 17.9274 13.3646 17.8699 13.3675L17.8735 13.3389C17.842 13.327 17.8346 13.3379 17.7957 13.3368L17.7938 13.328C17.7103 13.2992 17.6046 13.303 17.5619 13.2842L17.5471 13.3059C17.4971 13.2979 17.5323 13.2812 17.4748 13.2841L17.4822 13.2733L17.4173 13.287C17.4376 13.2456 17.2837 13.2503 17.2466 13.2118C17.1761 13.1989 17.0574 13.1869 16.9609 13.1424C16.9552 13.1157 16.8309 13.0771 16.7641 13.0356C16.6917 13.0138 16.6063 12.9762 16.5136 12.9494C16.4189 12.9138 16.3243 12.8782 16.237 12.8317L16.2241 12.8623L16.1722 12.8454C16.1703 12.8365 16.1703 12.8365 16.1796 12.8346C16.1609 12.7922 16.0645 12.794 16.0385 12.7624C16.046 12.7979 16.0719 12.7832 16.0942 12.797C16.1295 12.8266 16.0739 12.8384 16.0274 12.8018L16.0348 12.791L15.9959 12.79C16.0014 12.7702 15.9754 12.7387 15.9809 12.7189C15.8231 12.6596 15.7026 12.6387 15.5504 12.5596C15.5763 12.5448 15.4334 12.5101 15.4871 12.4895C15.3832 12.4558 15.4854 12.5269 15.4298 12.5387C15.4075 12.5249 15.3686 12.5238 15.3741 12.5041C15.3926 12.5002 15.3666 12.4686 15.387 12.4736L15.322 12.4409C15.3201 12.4321 15.3313 12.439 15.3405 12.437C15.2051 12.3915 15.1363 12.2947 15.0027 12.2581C14.986 12.2709 15.0472 12.2857 15.0306 12.2985C14.897 12.2619 14.9451 12.2146 14.8319 12.1829L14.869 12.1751C14.8282 12.1651 14.8022 12.1799 14.7539 12.1345C14.7576 12.1059 14.8133 12.1405 14.8429 12.1435C14.8095 12.1227 14.7019 12.0713 14.7205 12.1137C14.6685 12.0969 14.6629 12.0703 14.648 12.0456C14.6388 12.0475 14.6852 12.0841 14.6463 12.083C14.5961 12.0287 14.4977 11.9754 14.4308 11.9339C14.4401 11.9319 14.4363 11.9141 14.4475 11.9211C14.3677 11.9101 14.4066 11.8648 14.3212 11.8272C14.1002 11.6977 13.7977 11.5484 13.5915 11.3973C13.5229 11.3932 13.456 11.3517 13.3892 11.3102L13.4095 11.2688L13.3464 11.2451C13.3315 11.2204 13.3909 11.2728 13.3612 11.2234L13.3241 11.2313C13.3296 11.2115 13.194 11.1197 13.2998 11.1622L13.0918 11.0022C13.0453 10.9656 13.0362 11.0139 12.9971 10.9666C12.9934 10.9488 13.0176 10.9715 13.0249 10.9607C12.8985 10.8205 12.7893 10.8992 12.6648 10.7679L12.6852 10.7729C12.6536 10.761 12.6072 10.7244 12.6072 10.7244C12.5888 10.7747 12.6461 10.7255 12.6685 10.7856C12.6352 10.8112 12.6054 10.7619 12.5814 10.7855C12.5535 10.7451 12.5257 10.7509 12.4923 10.7302C12.4606 10.672 12.3826 10.6235 12.3714 10.5703C12.3398 10.5584 12.2842 10.5702 12.2359 10.5247C12.2247 10.4715 12.2618 10.51 12.2228 10.4626L12.1969 10.4774C12.1597 10.4388 12.1689 10.4369 12.1782 10.4349C12.141 10.3964 12.1189 10.4289 12.0779 10.3727L12.1188 10.3826C12.0742 10.3549 12.0612 10.3391 12.011 10.2848C12.0184 10.274 12.0425 10.2967 12.0555 10.3125C12.0536 10.2573 11.9998 10.2779 11.9868 10.2621C11.9794 10.273 12.0166 10.3115 11.9777 10.3104C11.9535 10.2877 11.9034 10.2797 11.9052 10.2423L11.946 10.2522C11.8792 10.2107 11.8959 10.2442 11.8439 10.1811L11.8531 10.1791C11.7919 10.1642 11.7584 10.0971 11.7063 10.034L11.7174 10.0409C11.684 10.0201 11.6655 10.024 11.6525 10.0083C11.6711 10.0507 11.66 10.0438 11.6452 10.0654C11.6302 9.99442 11.5506 10.0298 11.4929 9.93999C11.5002 9.92915 11.5318 9.94103 11.5374 9.96766C11.5949 9.96479 11.6208 9.95004 11.6746 9.97575C11.6412 9.955 11.6059 9.92537 11.6245 9.92145L11.5893 9.93816C11.5762 9.92237 11.5632 9.90657 11.5521 9.89966C11.5243 9.90553 11.5541 9.95487 11.5095 9.9272C11.4631 9.89065 11.5187 9.8789 11.5001 9.88282C11.4314 9.83244 11.4519 9.88373 11.4091 9.8186C11.4203 9.82552 11.4314 9.83244 11.4333 9.84131C11.4035 9.79197 11.3348 9.74159 11.3643 9.69826C11.3736 9.6963 11.3921 9.69238 11.3959 9.71014L11.3866 9.71209C11.4497 9.73585 11.3513 9.68246 11.3865 9.66576C11.3717 9.68742 11.3289 9.62229 11.3029 9.59071L11.2881 9.61237C11.1527 9.56682 11.3307 9.58483 11.2545 9.49895C11.1969 9.45548 11.2694 9.52362 11.2267 9.50482C11.1988 9.46436 11.2117 9.43382 11.1522 9.38148C11.1485 9.36372 11.1391 9.31935 11.1631 9.29572C11.1278 9.26609 11.0998 9.17929 11.0609 9.17825C11.0759 9.24926 11.1277 9.21976 11.1372 9.31047L11.0983 9.30943C11.0685 9.26009 11.009 9.20775 10.9996 9.16337C11.0015 9.17225 10.9941 9.18308 10.983 9.17616C10.9309 9.11299 10.8901 9.10307 10.864 9.02515C10.888 9.00152 10.8974 9.0459 10.9234 9.07749C10.9214 9.02227 10.8936 9.02815 10.8694 8.9591C10.886 8.94631 10.8899 9.0104 10.9177 9.00452C10.9028 8.97985 10.8879 8.95518 10.873 8.93052C10.873 8.93052 10.873 8.93052 10.8823 8.92856C10.8359 8.93835 10.8599 8.86839 10.832 8.82792C10.8002 8.72337 10.7427 8.72625 10.7111 8.66803C10.7185 8.6572 10.7277 8.65524 10.737 8.65328C10.7222 8.67495 10.7315 8.67299 10.7426 8.67991C10.7351 8.64441 10.7814 8.63462 10.8018 8.63958C10.8 8.6307 10.8 8.6307 10.7981 8.62183L10.7888 8.62378C10.7796 8.62574 10.7814 8.63462 10.7684 8.61882L10.7886 8.53111C10.8053 8.51832 10.8145 8.51636 10.7922 8.50253L10.8609 8.50657C10.8423 8.51049 10.8442 8.51936 10.8257 8.52328C10.8498 8.54599 10.8794 8.50266 10.8979 8.49874C10.9276 8.50174 10.9647 8.49391 10.9777 8.5097C10.9943 8.49691 11.0333 8.49796 11.0463 8.51375C11.1075 8.52863 11.0852 8.51479 11.0926 8.50396ZM17.9817 14.3545C17.9817 14.3545 17.9798 14.3457 17.9705 14.3476L17.9817 14.3545C17.9891 14.3437 17.9891 14.3437 17.9817 14.3545ZM17.6887 14.3423C17.6961 14.3314 17.7054 14.3295 17.7054 14.3295L17.7499 14.3571C17.7407 14.3591 17.7407 14.3591 17.7314 14.3611C17.761 14.3177 17.6888 14.3886 17.6887 14.3423ZM17.7685 14.3532C17.7759 14.3424 17.722 14.3167 17.7702 14.3158C17.7814 14.3227 17.8018 14.3276 17.8129 14.3346C17.8036 14.3365 17.787 14.3493 17.7685 14.3532ZM18.0429 14.3694C18.0336 14.3714 18.0355 14.3802 18.0262 14.3822L18.0244 14.3733C18.0355 14.3802 18.0448 14.3783 18.0429 14.3694ZM14.7793 9.59785L14.7496 9.59485L14.7478 9.58597C14.7589 9.59289 14.77 9.59981 14.7793 9.59785ZM11.5909 7.56418L11.5854 7.58389L11.5966 7.5908C11.6058 7.58885 11.617 7.59576 11.6188 7.60464C11.6096 7.6066 11.6022 7.61743 11.5929 7.61939L11.6003 7.60855C11.6003 7.60855 11.591 7.61051 11.5929 7.61939L11.5818 7.61247L11.5873 7.59276C11.5873 7.59276 11.5984 7.59968 11.5966 7.5908L11.5873 7.59276L11.5854 7.58389L11.5631 7.57005L11.5909 7.56418ZM8.04959 8.30324C8.05885 8.30128 8.05885 8.30128 8.04771 8.29437L8.09228 8.32204L8.04959 8.30324Z" fill="#DB8670"/>
<path d="M5.90944 1.8346L5.80527 1.76202L5.87156 1.81645C5.87156 1.80738 5.88103 1.80738 5.90944 1.8346Z" fill="#DB8670"/>
<path d="M8.64633 4.50168C8.65614 4.51107 8.66595 4.51107 8.67575 4.52047C8.66595 4.50168 8.65614 4.50168 8.64633 4.50168Z" fill="#DB8670"/>
<path d="M9.37556 5.1276C9.31874 5.08225 9.35662 5.12761 9.37556 5.16389C9.38503 5.16389 9.3945 5.15482 9.37556 5.1276Z" fill="#DB8670"/>
<path d="M3.56138 1.26309C3.54177 1.28188 3.54177 1.29128 3.55158 1.29128C3.56138 1.27249 3.56138 1.26309 3.56138 1.26309Z" fill="#DB8670"/>
<path d="M6.00415 5.93498C5.99468 5.9259 5.97574 5.90776 5.94733 5.88962C5.97574 5.90776 5.99468 5.9259 6.00415 5.93498Z" fill="#DB8670"/>
<path d="M5.19916 1.28122C5.2181 1.29936 5.24651 1.30843 5.26545 1.31751C5.22757 1.29029 5.20863 1.28122 5.19916 1.28122Z" fill="#DB8670"/>
<path d="M5.89997 5.84426L5.84315 5.78076C5.84315 5.78076 5.84315 5.78076 5.83368 5.78076L5.89997 5.84426Z" fill="#DB8670"/>
<path d="M6.29772 6.2797C6.26931 6.25249 6.24089 6.22527 6.22195 6.19806C6.25037 6.23435 6.26931 6.26156 6.29772 6.2797Z" fill="#DB8670"/>
<path d="M3.43772 3.45842C3.42825 3.45842 3.42825 3.44934 3.43772 3.45842C3.37142 3.41306 3.39983 3.44027 3.43772 3.45842Z" fill="#DB8670"/>
<path d="M5.58847 5.61812C5.58847 5.60873 5.58847 5.60873 5.58847 5.61812L5.55905 5.59933L5.58847 5.61812Z" fill="#DB8670"/>
<path d="M6.56287 6.54278C6.5534 6.53371 6.53446 6.52464 6.52499 6.51556C6.53446 6.52464 6.54393 6.53371 6.5534 6.55185C6.5534 6.55185 6.5534 6.54278 6.56287 6.54278Z" fill="#DB8670"/>
<path d="M4.3374 4.38374C4.36581 4.39281 4.37528 4.39281 4.37528 4.39281C4.35634 4.3656 4.34687 4.35653 4.3374 4.38374Z" fill="#DB8670"/>
<path d="M26.7819 17.9912C26.7819 18.0003 26.8198 18.0094 26.8861 18.0094L26.7819 17.9912Z" fill="#DB8670"/>
<path d="M28.9885 17.883C29.0358 17.883 29.0832 17.883 29.0926 17.8733C29.0642 17.8733 29.0263 17.8733 28.9885 17.883Z" fill="#DB8670"/>
<path d="M24.9636 18.0547C24.8594 18.0741 24.6416 18.0547 24.6416 18.0644C24.7553 18.0644 24.9163 18.0838 24.9636 18.0547Z" fill="#DB8670"/>
<path d="M6.32614 27.4893L6.38296 27.5255C6.35455 27.5165 6.33561 27.4983 6.32614 27.4893Z" fill="#DB8670"/>
<path d="M6.03256 18.0819C6.10832 18.0819 6.18409 18.0819 6.28826 18.0638C6.20303 18.0547 6.08938 18.0638 6.03256 18.0819Z" fill="#DB8670"/>
<path d="M9.49866 18.1001C9.5176 18.1001 9.53654 18.1098 9.56495 18.1098C9.55548 18.1001 9.52707 18.1001 9.49866 18.1001Z" fill="#DB8670"/>
<path d="M7.10269 18.11C7.11146 18.0998 7.11146 18.0998 7.10269 18.11C7.10269 18.0998 7.10269 18.0998 7.10269 18.11Z" fill="#DB8670"/>
<path d="M10.512 18.1182L10.7109 18.1001H10.5783C10.5783 18.1092 10.5688 18.1182 10.512 18.1182Z" fill="#DB8670"/>
<path d="M4.52678 18.091C4.50784 18.091 4.49837 18.091 4.47943 18.1007C4.50784 18.1007 4.51731 18.091 4.52678 18.091Z" fill="#DB8670"/>
<path d="M3.021 18.1364C3.12518 18.1273 3.03048 18.1273 2.98312 18.1182C2.98312 18.1182 2.98312 18.1273 3.021 18.1364Z" fill="#DB8670"/>
<path d="M14.177 18.0466C14.2064 18.0366 14.2162 18.0366 14.2064 18.0366C14.1868 18.0366 14.177 18.0466 14.177 18.0466Z" fill="#DB8670"/>
<path d="M11.8662 18.0457C11.8283 18.0457 11.7905 18.0457 11.7621 18.0553C11.8189 18.0553 11.8473 18.0553 11.8662 18.0457Z" fill="#DB8670"/>
<path d="M23.1358 18.0275H23.0033C23.0033 18.0275 23.0033 18.0275 23.0033 18.0372L23.1358 18.0275Z" fill="#DB8670"/>
<path d="M17.7662 18.0003C17.7662 18.0003 17.7568 18.0003 17.7473 18.0003C17.6431 18.0197 17.7094 18.01 17.7662 18.0003Z" fill="#DB8670"/>
<path d="M22.5487 18.0729C22.5392 18.0729 22.5392 18.0729 22.5297 18.0729L22.4919 18.0826L22.5487 18.0729Z" fill="#DB8670"/>
<path d="M24.6511 18.0729C24.6227 18.0729 24.6037 18.0729 24.5848 18.0826C24.6037 18.0729 24.6227 18.0729 24.6511 18.0729Z" fill="#DB8670"/>
<path d="M19.7928 18.0457C19.8307 18.0366 19.8497 18.0275 19.8497 18.0275C19.8023 18.0275 19.7739 18.0275 19.7928 18.0457Z" fill="#DB8670"/>
<path d="M31.1855 21.9919L31.1382 22.0826C31.1382 22.0826 31.1666 22.0554 31.1855 21.9919Z" fill="#DB8670"/>
<path d="M31.8585 18.4176C31.8585 18.4176 31.8585 18.4176 31.8485 18.4278C31.8585 18.438 31.8585 18.4278 31.8585 18.4176Z" fill="#DB8670"/>
<path d="M31.6212 19.8146C31.6212 19.8419 31.6117 19.8781 31.6117 19.9144C31.6117 19.8781 31.6307 19.8237 31.6212 19.8146Z" fill="#DB8670"/>
<path d="M30.3332 23.9695C30.2953 24.0239 30.2669 24.0692 30.2764 24.0783C30.3332 23.9785 30.4185 23.8425 30.4185 23.788C30.409 23.8334 30.3711 23.906 30.3332 23.9695Z" fill="#DB8670"/>
<path d="M0.32198 20.368C0.31251 20.3408 0.31251 20.3227 0.30304 20.2954C0.31251 20.3317 0.32198 20.3499 0.32198 20.368Z" fill="#DB8670"/>
<path d="M13.5709 30.9002C13.4857 30.8912 13.372 30.9002 13.3057 30.9184C13.3815 30.9184 13.4667 30.9184 13.5709 30.9002Z" fill="#DB8670"/>
<path d="M16.9233 30.9547C16.9423 30.9547 16.9612 30.9643 16.9991 30.9643C16.9707 30.9546 16.9518 30.9547 16.9233 30.9547Z" fill="#DB8670"/>
<path d="M31.9811 18.2906C31.9621 18.2815 31.9432 18.3087 31.9337 18.1636C31.9337 17.837 31.9716 17.9005 31.9905 17.8824C31.9905 17.8552 32 17.8007 32 17.7463C32 17.7191 32 17.6828 32 17.6556C32 17.6374 32 17.6102 31.9905 17.583C31.9905 17.6102 32 17.6374 32 17.6556C32 17.6828 32 17.7009 32 17.7282C32 17.7735 31.9905 17.8098 31.9811 17.837C31.9716 17.8914 31.9527 17.9096 31.9432 17.8642C31.9527 17.8279 31.9621 17.7826 31.9621 17.7282C31.9621 17.7009 31.9621 17.6737 31.9621 17.6374C31.9621 17.6012 31.9527 17.5558 31.9337 17.5104C31.9148 17.4651 31.8864 17.4197 31.8485 17.3834C31.8106 17.3471 31.7632 17.329 31.7254 17.3199C31.6496 17.2927 31.5928 17.3018 31.5644 17.3109C31.6401 17.3199 31.7159 17.3381 31.7727 17.3744C31.8295 17.4106 31.8579 17.4651 31.8769 17.5104C31.9053 17.5921 31.8958 17.6465 31.8958 17.6828C31.8958 17.7644 31.8864 17.837 31.8579 18.0547C31.8674 18.1182 31.9148 18.1092 31.8864 18.3722C31.8769 18.209 31.8674 18.3813 31.8579 18.4267C31.8864 18.3813 31.8485 18.6081 31.8579 18.6898C31.839 18.7623 31.8201 18.5265 31.7917 18.7986L31.839 18.853C31.8201 18.9528 31.8106 18.8077 31.8011 19.0254C31.7917 18.9075 31.7538 19.0617 31.7727 18.7533C31.7538 18.844 31.7443 18.9165 31.7348 18.9891C31.7254 19.0617 31.7254 19.1252 31.7159 19.1887C31.7159 19.3157 31.7159 19.4336 31.7064 19.5788C31.7064 19.5516 31.697 19.5425 31.697 19.5153C31.697 19.5425 31.697 19.5878 31.697 19.6332C31.6875 19.6786 31.678 19.7239 31.678 19.7693C31.6307 19.9507 31.678 19.6241 31.6591 19.6695L31.6023 19.9598C31.6023 19.9689 31.6023 19.9689 31.5928 19.9689C31.5833 20.0505 31.5738 20.1231 31.5549 20.1503C31.5549 20.114 31.5549 20.0959 31.5549 20.0686C31.7064 19.2794 31.7917 18.472 31.7917 17.6465C31.7917 17.5014 31.7159 17.4197 31.5644 17.4197H29.3673C29.4052 17.4106 29.2631 17.4106 29.2915 17.3925H28.7233C28.6665 17.3834 28.8748 17.3744 28.7896 17.3834C28.6854 17.3653 28.6191 17.3925 28.5528 17.3925C28.5055 17.3744 28.1267 17.3925 28.1456 17.3562C27.7573 17.3381 27.9846 17.4016 27.6247 17.3834C27.5774 17.3653 27.9089 17.3744 27.7479 17.3562L27.3785 17.3653C27.4164 17.3562 27.4543 17.329 27.5869 17.3381C26.583 17.3109 26.0432 17.202 25.1246 17.2292C24.992 17.202 25.2193 17.2111 25.314 17.202C24.6511 17.2292 24.3764 17.1476 23.8177 17.1566L23.8082 17.1748C23.0222 17.1113 22.0752 17.1476 21.185 17.1204L21.2891 17.1385C21.166 17.1566 20.9672 17.1566 20.8251 17.1657C20.8062 17.1566 20.9293 17.1204 20.6736 17.1294C20.7304 17.1385 20.8346 17.1476 20.8062 17.1566C20.0391 17.1022 18.4291 17.1204 17.1696 17.0931C15.4649 17.1113 13.6277 17.0659 11.9515 17.0841C12.2072 17.0841 12.0935 17.1294 11.9041 17.1204C11.3832 17.0387 10.995 17.1385 10.4552 17.075C9.47973 17.1022 8.61793 17.0296 7.70879 17.0931L7.68985 17.0659C7.55727 17.0569 7.51938 17.075 7.37733 17.075V17.0659C7.04587 17.0569 6.63865 17.0841 6.43978 17.0659L6.43031 17.0931C6.23143 17.0931 6.32613 17.075 6.12726 17.0841L6.13673 17.075L5.89997 17.1022C5.91891 17.0569 5.34123 17.1022 5.18023 17.075C4.92453 17.0841 4.43208 17.1022 4.0438 17.0931C3.96804 17.0659 3.49453 17.0659 3.18201 17.0569C2.58538 17.0659 1.73306 17.0659 0.975437 17.0659L0.984907 17.0931H0.786031C0.786031 17.0841 0.757621 17.0841 0.795502 17.0841C0.786031 17.0841 0.776561 17.0841 0.767091 17.075C0.74815 17.075 0.72921 17.075 0.710269 17.075C0.662918 17.075 0.615567 17.075 0.568215 17.075C0.473513 17.075 0.37881 17.1022 0.293578 17.1476C0.208346 17.1929 0.142054 17.2655 0.0947026 17.3471C0.0568215 17.4197 0.0284108 17.5014 0.0189405 17.5649C0.037881 17.4832 0.0568215 17.4288 0.0852323 17.3744C0.113643 17.3199 0.142054 17.2655 0.208346 17.202C0.265167 17.1657 0.303048 17.1476 0.312519 17.1476C0.321989 17.1476 0.312518 17.1566 0.274637 17.1839C0.217816 17.2292 0.0947026 17.3381 0.0568215 17.5104V17.5104C0.0473513 17.5921 0.0568215 17.6828 0.0568215 17.7644C0.0473513 17.7735 0.0473513 17.7917 0.037881 17.8189C0.037881 17.837 0.0284108 17.8552 0.0284108 17.8733C0.0189405 17.9096 0.00947026 17.9459 0 17.9549C0.00947026 18.1182 0.00947026 18.2634 0.0284108 18.3995C0.0473513 18.5355 0.0568215 18.6716 0.0757621 18.8077C0.0852323 18.8712 0.0947026 18.9438 0.0947026 19.0073C0.104173 19.0798 0.113643 19.1433 0.123113 19.2159C0.142054 19.3611 0.160994 19.5062 0.179935 19.6695C0.142054 19.606 0.274637 20.1321 0.198875 20.0142C0.293578 20.4043 0.227286 19.9416 0.293578 20.114C0.312519 20.2229 0.340929 20.3317 0.331459 20.3589C0.312519 20.3136 0.321989 20.4497 0.303048 20.368L0.36934 20.622C0.36934 20.6492 0.3504 20.5948 0.340929 20.5676C0.37881 20.6946 0.407221 20.8216 0.435632 20.9395C0.464043 21.0575 0.501924 21.1754 0.530334 21.2843C0.558745 21.3931 0.587156 21.511 0.625037 21.6199C0.662918 21.7288 0.700799 21.8376 0.74815 21.9556C0.776561 21.9828 0.691329 21.7741 0.71974 21.8013C0.814442 22.0281 0.842853 22.1279 0.871264 22.2277C0.899675 22.3275 0.928085 22.4273 1.03226 22.6269L0.975437 22.5452C1.01332 22.6087 1.04173 22.6541 1.07014 22.7176C1.09855 22.772 1.12696 22.8446 1.17431 22.9625C1.17431 22.9897 1.1459 22.9444 1.10802 22.8809C1.07961 22.8174 1.04173 22.7357 1.01332 22.6813C1.07014 22.8355 1.25954 23.2165 1.23113 23.0895C1.32584 23.2709 1.33531 23.3435 1.37319 23.4433C1.38266 23.4433 1.3069 23.2709 1.37319 23.3707C1.42054 23.4977 1.50577 23.652 1.591 23.8152C1.62888 23.8969 1.67624 23.9785 1.72359 24.0602C1.77094 24.1418 1.81829 24.2144 1.85617 24.287C1.8467 24.287 1.85617 24.3142 1.83723 24.287C1.92246 24.3958 1.95087 24.4503 1.97928 24.5138C2.00769 24.5773 2.04558 24.6589 2.14975 24.8131C2.21604 24.9129 2.2918 25.0218 2.36756 25.1306C2.44333 25.2395 2.52856 25.3393 2.61379 25.4572C2.77479 25.6749 2.96419 25.8927 3.1536 26.1104C3.23883 26.2192 3.343 26.319 3.4377 26.4279C3.53241 26.5277 3.62711 26.6365 3.72181 26.7363C3.81651 26.8361 3.91122 26.9268 4.00592 27.0266C4.05327 27.072 4.10062 27.1173 4.14797 27.1627C4.19532 27.208 4.24268 27.2534 4.29003 27.2897C4.38473 27.3532 4.4889 27.4348 4.59308 27.5256C4.70672 27.6163 4.82983 27.7161 4.95294 27.8158L4.934 27.8521C5.00977 27.9066 5.07606 27.961 5.15182 28.0064C5.1897 28.0426 5.15182 28.0154 5.11394 27.9882C5.08553 27.961 5.05712 27.9519 5.12341 28.0154L5.21811 28.0517C5.22758 28.0789 5.74845 28.469 5.37911 28.2241C5.51169 28.3239 5.65374 28.4327 5.7958 28.5234C5.93785 28.6232 6.07991 28.723 6.22196 28.8137C6.41136 28.9317 6.35454 28.85 6.56289 28.9952C6.60077 29.0315 6.47766 28.9589 6.48713 28.977C6.63865 29.0859 6.77123 29.1585 6.88488 29.2129C6.99852 29.2673 7.10269 29.3127 7.1974 29.349C7.24475 29.3671 7.2921 29.3852 7.34892 29.4125C7.39627 29.4306 7.45309 29.4487 7.50991 29.476C7.62356 29.5213 7.74667 29.5848 7.90767 29.6665L7.85084 29.6483C7.90767 29.6755 7.98343 29.7028 8.05919 29.73C8.12548 29.7572 8.1823 29.7753 8.1823 29.7753C8.12548 29.6937 8.04972 29.7481 7.86978 29.6302C7.88872 29.612 7.94555 29.6393 8.01184 29.6665C8.06866 29.6846 8.12548 29.7118 8.12548 29.6937C8.26753 29.7753 8.37171 29.7935 8.50429 29.8479C8.60846 29.9114 8.75052 29.9658 8.8831 30.0112C9.01569 30.0656 9.1388 30.111 9.22403 30.1654C9.34714 30.1926 9.47973 30.1926 9.72595 30.2743C9.89642 30.3559 9.6786 30.2924 9.91536 30.3741L9.96271 30.365C10.1616 30.4194 10.1237 30.4194 10.1142 30.4285C10.3321 30.492 10.3036 30.4466 10.5688 30.5373L10.4173 30.5192C10.6162 30.5646 10.7014 30.5827 10.976 30.6462C10.9666 30.6553 10.8529 30.6281 10.7772 30.6099C10.9192 30.6734 11.0423 30.6553 11.1181 30.6734C11.0991 30.6553 10.9003 30.6099 11.0044 30.6099C11.0707 30.6281 11.1465 30.6371 11.2223 30.6462C11.2885 30.6553 11.3548 30.6644 11.4022 30.6825L11.2412 30.6734C11.5348 30.7097 11.4022 30.6734 11.7336 30.7369C11.7147 30.7369 11.7242 30.746 11.7147 30.746C11.9325 30.7551 12.2072 30.8095 12.5197 30.8549H12.4629C12.5954 30.8639 12.6617 30.8458 12.728 30.8549C12.5481 30.8276 12.5954 30.8276 12.586 30.8004C12.8227 30.8549 12.9553 30.7823 13.3341 30.8367C13.3247 30.8549 13.23 30.8549 13.1258 30.8367C12.9932 30.8639 12.9743 30.9002 12.728 30.9002C12.8796 30.9002 13.05 30.9093 13.0121 30.9274L13.0595 30.8911C13.1447 30.9002 13.2205 30.9002 13.2868 30.9093C13.3247 30.8911 13.1068 30.8639 13.3152 30.8549C13.5519 30.8458 13.4383 30.8911 13.4762 30.8821C13.7982 30.873 13.6088 30.8458 13.9213 30.8639C13.8929 30.8639 13.8266 30.873 13.8076 30.8639C14.0349 30.8911 14.3474 30.8639 14.4137 30.9093C14.3853 30.9184 14.3759 30.9274 14.2906 30.9274V30.9184C14.0633 30.9456 14.4327 30.9184 14.4232 30.9456C14.4706 30.9274 14.7263 30.9365 14.8494 30.9365L14.802 30.9093C15.2661 30.8276 14.7736 30.9637 15.2376 30.9546C15.5312 30.9365 15.124 30.9456 15.3039 30.9274C15.5028 30.9365 15.5691 30.9546 15.8627 30.9456C15.9384 30.9546 16.1089 30.9728 16.1184 31C16.2888 30.9909 16.6487 31.0091 16.7434 30.9819C16.4498 30.9546 16.4498 31.0091 16.0994 30.9728L16.1941 30.9456C16.4309 30.9456 16.7434 30.9365 16.9139 30.9456C16.876 30.9365 16.8665 30.9365 16.8855 30.9274C17.2264 30.9184 17.3306 30.8911 17.662 30.9002C17.7094 30.9274 17.5105 30.9184 17.3685 30.9274C17.5863 30.9456 17.5957 30.9274 17.9272 30.9365C17.9461 30.9637 17.6999 30.9365 17.662 30.9546L18.0314 30.9456C18.0314 30.9456 18.0314 30.9456 18.0314 30.9546C18.0882 30.9184 18.3155 30.9546 18.5428 30.9365C18.6753 30.9365 18.789 30.9274 18.8742 30.9184C18.9595 30.9093 19.0352 30.8911 19.092 30.8821C19.2152 30.8549 19.3099 30.8276 19.4614 30.8004C19.5466 30.8095 19.5656 30.8095 19.5371 30.8276C19.4046 30.8186 19.4235 30.8276 19.3856 30.8458C19.5656 30.8367 19.7928 30.8458 19.6887 30.873C19.9822 30.8276 19.5845 30.8639 19.755 30.8276L20.1527 30.7823C20.1054 30.7641 19.9633 30.7823 20.1622 30.7369C20.3326 30.7097 20.4179 30.6916 20.6452 30.6553C20.6168 30.6734 20.7209 30.6734 20.5505 30.7006C20.6641 30.6916 20.8346 30.6644 20.8914 30.6281C20.7683 30.6371 20.863 30.619 20.9766 30.5918C21.0808 30.5646 21.1944 30.5283 21.0997 30.5373L21.346 30.5011C21.2891 30.5101 21.2891 30.5283 21.2039 30.5373C21.2797 30.5555 21.4028 30.4829 21.488 30.4648C21.5732 30.4557 21.7911 30.3922 21.8195 30.4013C21.8952 30.3741 22.0752 30.3287 22.1225 30.3378C22.2362 30.3015 22.1225 30.3196 22.1509 30.3015C22.2835 30.2743 22.4066 30.2198 22.5297 30.1836C22.5582 30.1926 22.6055 30.2289 22.5487 30.2471C22.6907 30.1836 22.5866 30.1836 22.8044 30.111C22.7476 30.1473 22.8233 30.1291 22.8896 30.111C22.9559 30.0928 23.0127 30.0838 22.937 30.1291C23.0695 30.1019 23.4199 29.9749 23.5999 29.8933C23.6567 29.857 23.5999 29.8751 23.5336 29.9023C23.4673 29.9205 23.3915 29.9477 23.3915 29.9386C23.5241 29.8842 23.6283 29.8388 23.7041 29.7935C23.7798 29.7481 23.8461 29.7118 23.9029 29.6755C24.0166 29.603 24.1113 29.5485 24.3007 29.4669L24.1965 29.5122C24.4238 29.3852 24.3954 29.4034 24.528 29.3127C24.4996 29.3399 24.5848 29.3308 24.7079 29.2855C24.8405 29.2401 25.0204 29.1494 25.2004 29.0405C25.2193 29.0133 24.9731 29.1312 25.0204 29.0768L25.2666 28.9317C25.2856 28.9226 25.2572 28.9407 25.2288 28.9679C25.4466 28.8319 25.6549 28.7593 25.7023 28.6867C25.7875 28.6504 25.8727 28.6232 25.9485 28.5869C25.9201 28.596 25.8822 28.6142 25.8538 28.6232C25.8727 28.596 26.1095 28.4236 26.1474 28.3874C26.261 28.2966 26.3463 28.2422 26.4125 28.1969C26.4788 28.1515 26.5357 28.1152 26.6114 28.0789C26.5641 28.0971 26.441 28.1515 26.6209 28.0064C26.6493 28.0517 27.0186 27.7342 27.0281 27.7523C27.0944 27.6888 27.2365 27.5981 27.227 27.58L27.2365 27.6163C27.227 27.5891 27.2933 27.5256 27.3785 27.4439C27.4637 27.3623 27.5679 27.2625 27.6626 27.1718C27.6626 27.2534 27.871 26.9813 27.9941 26.9359C27.9941 26.8724 28.3066 26.6002 28.3066 26.5458C28.4392 26.4007 28.4581 26.437 28.496 26.4097L28.5434 26.3281C28.5812 26.3009 28.6665 26.2102 28.7612 26.1194C28.8559 26.0287 28.9506 25.9108 29.0263 25.8292L29.121 25.6477L29.1873 25.6024C29.2063 25.5751 29.301 25.43 29.2252 25.5116L29.2915 25.4209C29.2631 25.3937 29.3767 25.2939 29.4904 25.1034C29.5283 25.0671 29.5283 25.0853 29.4999 25.1216C29.5661 25.0399 29.5567 25.0762 29.5946 25.049C29.5756 25.0399 29.7461 24.6952 29.5756 24.9129C29.5472 24.922 29.6324 24.7678 29.6987 24.6861L29.765 24.6498L29.8029 24.5228C29.8976 24.3777 29.945 24.3323 30.0207 24.2144C29.9544 24.3323 29.926 24.5138 30.1059 24.2053C30.0112 24.3686 29.9828 24.4593 29.9355 24.55C29.9828 24.4865 30.0018 24.4593 29.9544 24.5682C30.0965 24.3233 29.9828 24.4775 30.1249 24.2325C30.1438 24.2598 30.2007 24.1963 30.3332 23.9967L30.2196 24.1418C30.2196 24.1328 30.2196 24.1237 30.2291 24.1055C30.1912 24.16 30.1722 24.1781 30.1533 24.1872C30.1817 24.1418 30.2859 23.8878 30.3238 23.8606C30.1438 24.0783 30.5132 23.4161 30.409 23.5522C30.4185 23.5159 30.5037 23.3526 30.5321 23.3344C30.4848 23.4433 30.5226 23.407 30.5605 23.3526C30.5984 23.2982 30.6458 23.2165 30.6458 23.2347C30.6742 23.153 30.5416 23.3889 30.5795 23.28C30.6363 23.153 30.7026 23.0714 30.7405 23.0079L30.7215 23.0623L30.8257 22.8718C30.8257 22.8355 30.712 23.0442 30.7878 22.8627C30.7973 22.8446 30.8257 22.7811 30.8541 22.7357C30.873 22.6813 30.892 22.645 30.9015 22.645C30.8825 22.7357 30.9488 22.6904 30.8825 22.8446C30.9393 22.7176 31.1003 22.3003 31.0056 22.4636L31.0719 22.3093C31.0151 22.4001 30.8825 22.6631 31.0056 22.3547L31.0151 22.3638L31.0814 22.1461L31.1287 22.0553C31.1193 22.0553 31.1287 22.0191 31.1571 21.9374C31.1761 21.9193 31.2045 21.8467 31.214 21.8558C31.2992 21.6199 31.2708 21.638 31.2708 21.6018C31.3181 21.4748 31.3276 21.4203 31.3371 21.4929C31.3939 21.3115 31.4886 20.994 31.536 20.876C31.5833 20.622 31.517 20.9214 31.5265 20.7762C31.5833 20.6764 31.6401 20.4769 31.6875 20.241C31.7254 20.0142 31.7727 19.7511 31.7917 19.5516C31.7254 19.6514 31.7917 19.4518 31.7632 19.3701C31.7822 19.3701 31.8485 19.0073 31.8201 19.3338L31.8485 19.1161C31.8958 18.971 31.8201 19.479 31.8864 19.2613C31.9053 19.1343 31.9053 19.0345 31.9053 18.9256C31.9053 18.8168 31.9053 18.6988 31.9242 18.5628C31.9527 18.6625 31.9337 18.336 31.9621 18.4085C31.9716 18.472 31.9621 18.5537 31.9526 18.6353L31.9621 18.5809C32 18.336 31.9905 18.2906 31.9811 18.2906ZM31.0435 20.2138C31.0056 20.3862 30.9772 20.5494 30.9299 20.7218C30.9109 20.7672 30.9488 20.5857 30.9299 20.6583C30.892 20.749 30.9015 20.8125 30.8825 20.867C30.873 20.8851 30.8446 20.9849 30.8162 21.0665C30.7878 21.1482 30.7594 21.2298 30.7405 21.2207C30.6079 21.5473 30.7405 21.375 30.6173 21.6834C30.5889 21.7197 30.6931 21.4294 30.6268 21.5655C30.5984 21.6743 30.5511 21.7832 30.5132 21.8921C30.5132 21.8558 30.5037 21.8195 30.5511 21.7015C30.2007 22.5634 29.8881 22.9625 29.4999 23.7064C29.4241 23.7971 29.5283 23.6247 29.5567 23.5431C29.4241 23.8152 29.2915 23.9876 29.1684 24.1509C29.1116 24.2325 29.0453 24.3051 28.979 24.3958C28.9127 24.4775 28.8464 24.5682 28.7706 24.6771L28.7801 24.6952C28.3066 25.2395 27.7668 25.9289 27.1418 26.4642L27.2175 26.4097C27.1796 26.4551 27.1323 26.5095 27.0849 26.564C27.0281 26.6184 26.9713 26.6728 26.9239 26.7182C26.905 26.7272 26.9713 26.6275 26.7914 26.7907C26.8292 26.7635 26.9145 26.7 26.8955 26.7272C26.8292 26.7817 26.744 26.8452 26.6588 26.9087C26.5735 26.9813 26.4694 27.0448 26.3747 27.1264C26.2705 27.199 26.1663 27.2897 26.0527 27.3713C25.939 27.453 25.8159 27.5346 25.6928 27.6253C25.1909 27.961 24.6132 28.3057 24.0923 28.5597C23.3915 28.9226 22.615 29.222 21.8289 29.4397C21.0334 29.6574 20.2285 29.8025 19.4519 29.8842C19.6887 29.857 19.594 29.9114 19.414 29.9205C19.1678 29.9023 18.95 29.9205 18.7416 29.9386C18.5238 29.9477 18.3155 29.9658 18.0598 29.9386C17.1222 29.9658 16.2888 29.8933 15.4176 29.9568L15.3986 29.9295C15.2661 29.9205 15.2376 29.9386 15.0956 29.9386V29.9295C14.7736 29.9205 14.3853 29.9477 14.1959 29.9295L14.1864 29.9568C13.997 29.9568 14.0823 29.9386 13.8929 29.9477L13.9023 29.9386L13.6751 29.9568C13.6845 29.9386 13.5519 29.9295 13.4004 29.9295C13.2489 29.9205 13.069 29.9114 13.0027 29.9023C12.9458 29.9023 12.8701 29.9023 12.7848 29.8933C12.6996 29.8933 12.6144 29.8842 12.5197 29.8751C12.3303 29.857 12.1219 29.8388 11.942 29.8025C11.9136 29.7844 11.781 29.7572 11.6295 29.73C11.478 29.7028 11.298 29.6574 11.156 29.6211C11.0897 29.612 11.0139 29.5939 10.9381 29.5758C10.8624 29.5576 10.7866 29.5395 10.7109 29.5213C10.6351 29.5032 10.5499 29.485 10.4646 29.4578C10.4268 29.4487 10.3794 29.4397 10.3415 29.4215C10.3036 29.4125 10.2563 29.3943 10.2184 29.3852C10.0479 29.3308 9.87748 29.2855 9.69754 29.222C9.52708 29.1585 9.35661 29.095 9.19562 29.0315V29.0677L9.02516 29.0042C9.03463 28.9952 9.00622 28.9861 9.03463 28.9952C8.9778 28.9498 8.87363 28.9135 8.77893 28.8772C8.73158 28.8591 8.67476 28.8409 8.63687 28.8228C8.58952 28.8047 8.55164 28.7865 8.52323 28.7593C8.59899 28.8228 8.63687 28.8228 8.73158 28.8591C8.86416 28.9317 8.72211 28.9044 8.54217 28.8047H8.55164L8.41906 28.7593C8.41906 28.7321 8.30542 28.6686 8.30542 28.6414C8.23912 28.6142 8.17283 28.5779 8.10654 28.5507C8.04025 28.5234 7.98343 28.4872 7.92661 28.4599C7.80349 28.4055 7.68985 28.3511 7.57621 28.2876C7.46256 28.2241 7.34892 28.1696 7.23528 28.0971C7.17846 28.0608 7.11216 28.0245 7.05534 27.9882C6.99852 27.9519 6.93223 27.9066 6.86594 27.8612C6.93223 27.8703 6.48713 27.6253 6.61971 27.6526C6.30719 27.453 6.64812 27.7161 6.48713 27.6435C6.40189 27.58 6.30719 27.5256 6.29772 27.5074C6.34507 27.5256 6.25037 27.4348 6.31666 27.4802L6.11779 27.335C6.09885 27.3169 6.1462 27.3441 6.17461 27.3623C6.11779 27.326 6.07044 27.2897 6.02308 27.2625C5.97573 27.2262 5.92838 27.1899 5.88103 27.1536C5.7958 27.081 5.71057 27.0085 5.62533 26.9359C5.46434 26.7907 5.31281 26.6456 5.13288 26.5095C5.095 26.5005 5.26546 26.6275 5.22758 26.6184C5.03818 26.4823 4.98136 26.4007 4.91506 26.3281C4.84877 26.2555 4.79195 26.1829 4.63096 26.0469C4.65937 26.065 4.68778 26.0741 4.70672 26.0922C4.59307 26.0106 4.54572 25.9743 4.40367 25.8019C4.3942 25.7566 4.55519 25.9289 4.63096 25.9924C4.52678 25.8836 4.25215 25.6024 4.31844 25.7021C4.18585 25.5751 4.16691 25.5026 4.10062 25.4209C4.09115 25.4209 4.19532 25.5661 4.11956 25.4844C4.0438 25.3846 3.93963 25.2576 3.83545 25.1306C3.73128 24.9946 3.62711 24.8585 3.54188 24.7406C3.55135 24.7406 3.54188 24.7133 3.56082 24.7315C3.38088 24.5591 3.45664 24.541 3.25777 24.2688C2.72743 23.5431 2.17816 22.5089 1.88458 21.6743C1.82776 21.5927 1.78988 21.4838 1.74253 21.3568C1.69518 21.2389 1.64782 21.1028 1.60994 20.9667L1.64782 20.9214L1.57206 20.6946C1.56259 20.5948 1.62888 20.867 1.60047 20.7037L1.54365 20.622C1.55312 20.6129 1.50577 20.4678 1.4963 20.368C1.47736 20.2682 1.47736 20.2229 1.53418 20.4134C1.46789 20.114 1.4016 19.8237 1.35425 19.5243C1.32584 19.3248 1.28796 19.4155 1.27848 19.1887C1.28796 19.1433 1.29743 19.2703 1.31637 19.2431C1.3069 19.0798 1.28796 18.9438 1.26901 18.8349C1.25007 18.726 1.23113 18.6263 1.21219 18.5355C1.19325 18.4448 1.17431 18.3541 1.15537 18.2452V18.2271V18.218V18.209C1.15537 18.1999 1.15537 18.1999 1.15537 18.1908C1.15537 18.1817 1.15537 18.1636 1.15537 18.1455L1.16484 18.1636C1.16484 18.1545 1.15537 18.1455 1.15537 18.1364C1.16484 18.1364 1.16484 18.1364 1.17431 18.1364C1.18378 18.1364 1.20272 18.1364 1.19325 18.1273C1.17431 18.1001 1.16484 18.1092 1.15537 18.1182C1.15537 18.1273 1.13643 18.1273 1.13643 18.1455C1.12696 18.1364 1.11749 18.1273 1.11749 18.1182C1.11749 18.1092 1.11749 18.1092 1.10802 18.1001H1.11749C1.13643 18.1001 1.1459 18.091 1.13643 18.082C1.21219 18.1001 1.18378 18.0729 1.35425 18.0729C1.591 18.1001 1.92246 18.082 2.09293 18.1092C2.20657 18.1001 2.32968 18.0547 2.57591 18.0547C2.75585 18.082 2.53803 18.082 2.77479 18.1001L2.81267 18.0729C3.01154 18.0729 2.97366 18.082 2.97366 18.091C3.18201 18.091 3.14413 18.0638 3.40929 18.0729L3.26724 18.091C3.46611 18.082 3.54188 18.082 3.80704 18.091C3.79757 18.1001 3.6934 18.1001 3.61764 18.1001C3.75969 18.1364 3.87334 18.082 3.9491 18.091C3.93016 18.082 3.74075 18.0729 3.83545 18.0547C3.96804 18.0547 4.11956 18.0275 4.21426 18.0547L4.07221 18.0729C4.35632 18.0547 4.22374 18.0457 4.54572 18.0547C4.52678 18.0547 4.53625 18.0638 4.52678 18.0638C4.72566 18.0366 5.0003 18.0638 5.29387 18.0638L5.23705 18.0729C5.36017 18.0638 5.42646 18.0457 5.49275 18.0457C5.32228 18.0366 5.36964 18.0275 5.3507 18.0003C5.57798 18.0366 5.7011 17.9549 6.07044 17.9822C6.06096 17.9912 5.97573 18.0094 5.87156 18.0003C5.74845 18.0366 5.72951 18.0729 5.50222 18.091C5.64427 18.082 5.80527 18.0729 5.77686 18.091L5.82421 18.0547C5.90944 18.0547 5.97573 18.0547 6.04202 18.0547C6.07991 18.0275 5.87156 18.0185 6.07044 18.0003C6.28825 17.9912 6.18408 18.0366 6.22196 18.0185C6.52501 18.0003 6.34507 17.9822 6.63865 17.9912C6.61024 17.9912 6.55342 18.0003 6.52501 18.0003C6.73335 18.0185 7.04587 17.9912 7.10269 18.0366C7.07428 18.0457 7.06481 18.0547 6.98905 18.0547V18.0457C6.77123 18.0729 7.12163 18.0457 7.12163 18.0729C7.16898 18.0547 7.41521 18.0638 7.52886 18.0638L7.49097 18.0366C7.93608 17.9549 7.46256 18.091 7.90767 18.082C8.1823 18.0638 7.80349 18.0729 7.97396 18.0547C8.16336 18.0638 8.22965 18.082 8.50429 18.0729C8.58005 18.082 8.74105 18.1001 8.75052 18.1273C8.92098 18.1182 9.26191 18.1364 9.35661 18.1092C9.07251 18.082 9.07251 18.1364 8.74105 18.1001L8.83575 18.0729C9.06304 18.0729 9.36608 18.0638 9.52708 18.0729C9.49867 18.0638 9.47973 18.0638 9.49867 18.0547C9.83013 18.0457 9.92483 18.0185 10.2468 18.0275C10.2847 18.0547 10.1048 18.0457 9.96271 18.0547C10.1711 18.0729 10.1805 18.0547 10.5025 18.0638C10.5215 18.091 10.2847 18.0638 10.2468 18.082L10.6067 18.0729C10.6067 18.0729 10.6067 18.0729 10.6067 18.082C10.654 18.0457 10.8813 18.082 11.0991 18.0729C11.6105 18.0729 11.6958 18.0185 11.9799 17.9912C12.0556 18.0003 12.0746 18.0094 12.0462 18.0185C11.9231 18.0003 11.942 18.0185 11.8946 18.0275C12.0651 18.0275 12.2735 18.0638 12.1788 18.082C12.4534 18.0729 12.0746 18.0638 12.245 18.0457H12.6239C12.5765 18.0275 12.4439 18.0185 12.6428 18.0094C12.8038 18.0003 12.889 18.0094 13.1068 18.0094C13.0784 18.0185 13.1731 18.0366 13.0121 18.0366C13.1163 18.0457 13.2773 18.0457 13.3436 18.0275C13.1068 18.0094 13.7319 18.0094 13.5519 17.9822L13.7887 18.0003C13.7319 18.0003 13.7319 18.0094 13.6466 18.0094C13.7129 18.0366 13.836 18.0003 13.9213 18.0003C14.0065 18.0094 14.2243 18.0094 14.2338 18.0185C14.3096 18.0094 14.4895 18.0185 14.5274 18.0366C14.641 18.0275 14.5368 18.0185 14.5653 18.0094H14.9441C14.963 18.0275 14.9914 18.0729 14.9346 18.082C15.0767 18.0638 14.9819 18.0366 15.1998 18.0366C15.0767 18.0729 15.4839 18.0638 15.3039 18.1001C15.4271 18.1273 15.7775 18.1273 15.9763 18.1182C16.0994 18.091 15.768 18.1001 15.7775 18.082C16.3267 18.0729 16.3551 18.0003 16.7624 18.0094L16.6582 18.0003C16.9044 17.9822 16.876 17.9912 17.0275 17.964C16.9612 18.0003 17.3116 18.0547 17.7189 18.0457C17.7567 18.0275 17.4916 18.0185 17.5579 17.9912L17.8325 17.9822C17.8514 17.9822 17.823 17.9912 17.7851 17.9912C18.0314 17.9822 18.2397 18.0366 18.3155 17.9912L18.5617 18.0366L18.467 18.0185C18.5049 18.0003 18.7795 18.0003 18.8363 17.9912C19.1205 17.9731 19.2152 17.9912 19.3667 18.0094C19.3193 18.0003 19.1962 17.964 19.414 17.964C19.414 18.0185 19.8781 17.9822 19.8686 18.0094C19.9538 18.0094 20.1148 18.0275 20.1243 18.0003L20.1054 18.0366C20.1243 17.9912 20.4463 17.9912 20.702 17.9822C20.6452 18.0457 20.9766 17.9731 21.0808 18.0366C21.1281 17.9912 21.5259 18.0185 21.5638 17.9822C21.7532 17.9822 21.7342 18.0185 21.7816 18.0366L21.8668 18.0185C21.9615 18.0366 22.3214 18.0457 22.5392 18.0547L22.7381 18.0185L22.8139 18.0366C22.8423 18.0275 23.0127 18.0185 22.9086 18.0094H23.0127C23.0222 17.9731 23.1643 18.0003 23.3821 17.9822C23.4294 17.9912 23.4199 18.0003 23.3726 18.0003C23.4768 18.0003 23.4294 18.0185 23.4957 18.0366C23.4199 18.0275 23.884 17.964 23.5904 17.9459C23.5715 17.9277 23.7419 17.9187 23.8461 17.9277L23.9124 17.964L24.0355 17.9277C24.1965 17.9187 24.2723 17.9459 24.4049 17.9459C24.2723 17.9459 24.1018 18.0185 24.4522 18.0185C24.2628 18.0275 24.1776 18.0457 24.0829 18.0547C24.1586 18.0547 24.1965 18.0638 24.0829 18.0729C24.3575 18.0638 24.1776 18.0547 24.4522 18.0457C24.4333 18.082 24.509 18.091 24.7553 18.1001L24.5753 18.0729C24.5848 18.0729 24.5943 18.0638 24.6132 18.0638C24.5469 18.0638 24.528 18.0547 24.509 18.0457C24.5659 18.0457 24.8215 18.0094 24.8689 18.0275C24.5943 17.9731 25.3519 17.9912 25.1719 17.9549C25.2004 17.9459 25.3898 17.9459 25.4182 17.964C25.1909 17.9912 25.5886 18.0003 25.5508 18.0275C25.636 18.0185 25.3708 18.0003 25.4845 17.9912C25.617 17.9912 25.7212 18.0094 25.797 18.0185L25.7402 18.0275L25.9485 18.0457C25.9864 18.0275 25.7496 18.0185 25.939 18.0094C25.9864 18.0185 26.1853 18.0094 26.1758 18.0185C26.0811 18.0366 26.1474 18.0729 25.9864 18.0729C26.119 18.0729 26.5546 18.0638 26.3841 18.0366H26.5451C26.441 18.0185 26.1569 18.0003 26.4788 17.9912V18.0003L26.7061 17.9731L26.8008 17.9912C26.8008 17.9822 26.8292 17.9731 26.9145 17.9731C26.9334 17.9822 27.0186 17.9912 27.0092 18.0003C27.2554 18.0003 27.2365 17.9822 27.2649 17.9731C27.3975 17.9731 27.4543 17.9822 27.388 18.0003C27.5774 18.0003 27.8994 18.0003 28.032 18.0185C28.2877 18.0003 27.9846 18.0094 28.1267 17.9912C28.3445 18.0457 28.96 18.0094 29.3673 18.0094C29.2631 17.964 29.462 18.0003 29.5472 17.964C29.5567 17.9822 29.9071 18.0003 29.5851 18.0094L29.8029 18.0003C29.9544 18.0275 29.443 18.0185 29.6703 18.0547C29.9165 18.0547 30.0775 18.0003 30.3616 18.0185C30.2669 18.0547 30.5795 18.0094 30.5132 18.0457C30.4564 18.0547 30.3711 18.0547 30.2954 18.0547L30.3427 18.0638C30.8825 18.0729 30.4942 18.0185 30.7783 18.0003C31.1098 18.0003 31.034 18.0275 31.053 18.0457C31.0814 18.0457 31.1477 18.0457 31.214 18.0457C31.214 18.082 31.2234 18.1182 31.2234 18.1364C31.2329 18.1001 31.2329 18.0729 31.2329 18.0457C31.2708 18.0457 31.3181 18.0366 31.3466 18.0366V18.1455C31.3181 18.8349 31.2329 19.5062 31.0909 20.1684C31.1003 20.0868 31.053 20.2501 31.0435 20.2138ZM31.3466 17.9549L31.2519 17.8642H31.3466V17.9549ZM31.3466 17.964V18.0094L31.2992 17.964C31.2803 17.964 31.2613 17.964 31.2424 17.964C31.2424 17.9459 31.2424 17.9277 31.2519 17.9096L31.214 17.8642H31.2613C31.2613 17.8733 31.2613 17.8914 31.2613 17.9096L31.3181 17.964C31.3087 17.9549 31.3276 17.9549 31.3466 17.964ZM31.3466 18.0094V18.0366C31.3087 18.0366 31.2708 18.0457 31.2329 18.0457C31.2329 18.0366 31.2329 18.0275 31.2329 18.0094C31.2708 18.0094 31.3087 18.0094 31.3466 18.0094ZM31.2045 18.0457C31.0814 18.0457 30.9962 18.0094 31.0719 18.0003C31.1098 18.0094 31.1571 18.0185 31.2045 18.0185C31.2045 18.0185 31.2045 18.0366 31.2045 18.0457ZM31.195 17.8642C31.195 17.9005 31.195 17.9277 31.195 17.9549C31.1287 17.9549 31.0435 17.9459 30.873 17.9277C30.8162 17.9368 30.8257 17.9731 30.5605 17.964C30.7215 17.9459 30.5511 17.9459 30.5037 17.9368C30.5511 17.9549 30.3238 17.9459 30.2385 17.9549C30.1628 17.9368 30.3995 17.9096 30.1249 17.9005L30.0775 17.9459C29.9734 17.9368 30.1249 17.9096 29.8976 17.9187C30.0207 17.8914 29.8597 17.8824 30.1628 17.8733C29.8029 17.8279 29.6135 17.8914 29.3294 17.9096C29.3578 17.9096 29.3578 17.9005 29.3862 17.9005C29.3294 17.9096 29.2157 17.9096 29.14 17.9187C28.96 17.9096 29.282 17.9005 29.2347 17.8824H28.9316C28.9222 17.8824 28.9222 17.8824 28.9222 17.8824C28.8464 17.8914 28.7706 17.8914 28.7422 17.8824C28.7801 17.8733 28.8085 17.8733 28.8275 17.8642H31.034H31.195V17.8642ZM28.6286 17.8733C28.6381 17.8733 28.6286 17.8642 28.6191 17.8642H28.7044L28.6286 17.8733ZM31.5265 20.2773C31.536 20.2501 31.536 20.2229 31.5454 20.1957L31.536 20.2682C31.536 20.2592 31.5265 20.2682 31.5265 20.2773Z" fill="#DB8670"/>
<path d="M31.9814 17.5749C31.9814 17.5655 31.9814 17.5561 31.9716 17.5467C31.9814 17.5561 31.9814 17.5655 31.9814 17.5749Z" fill="#DB8670"/>
<path d="M14.4232 30.9646C14.432 30.9544 14.432 30.9544 14.4232 30.9646C14.4232 30.9544 14.4232 30.9544 14.4232 30.9646Z" fill="#DB8670"/>
<path d="M17.9745 30.9728L18.1829 30.9547C18.1355 30.9547 18.0882 30.9547 18.0503 30.9547C18.0408 30.9637 18.0314 30.9728 17.9745 30.9728Z" fill="#DB8670"/>
<path d="M11.7147 30.7551C11.6958 30.7551 11.6768 30.7551 11.6674 30.7551C11.6958 30.7634 11.7052 30.7551 11.7147 30.7551Z" fill="#DB8670"/>
<path d="M10.1521 30.4648C10.2658 30.492 10.1711 30.4557 10.1143 30.4376C10.1048 30.4376 10.1143 30.4466 10.1521 30.4648Z" fill="#DB8670"/>
<path d="M21.8005 30.4375C21.8289 30.4285 21.8384 30.4194 21.8289 30.4194C21.8005 30.4194 21.791 30.4285 21.8005 30.4375Z" fill="#DB8670"/>
<path d="M29.8607 24.7224C29.8509 24.7318 29.8411 24.7412 29.8313 24.7506C29.8411 24.7506 29.8509 24.7412 29.8607 24.7224Z" fill="#DB8670"/>
<path d="M29.5093 25.1488C29.4904 25.1669 29.4715 25.2032 29.4431 25.2395C29.4809 25.2032 29.4999 25.176 29.5093 25.1488Z" fill="#DB8670"/>
<path d="M19.3951 30.8458C19.3572 30.8458 19.3193 30.8549 19.2909 30.8639C19.3477 30.8549 19.3762 30.8549 19.3951 30.8458Z" fill="#DB8670"/>
<path d="M29.3862 25.3393L29.301 25.4482C29.301 25.4482 29.301 25.4482 29.301 25.4572L29.3862 25.3393Z" fill="#DB8670"/>
<path d="M29.9544 24.5773C29.926 24.6226 29.8787 24.6861 29.8503 24.7224C29.9071 24.668 29.9355 24.6226 29.9544 24.5773Z" fill="#DB8670"/>
<path d="M25.2477 28.977L25.2382 28.9861C25.1435 29.0405 25.2004 29.0042 25.2477 28.977Z" fill="#DB8670"/>
<path d="M29.0453 25.8473C29.0453 25.8473 29.0358 25.8564 29.0358 25.8654L29.0169 25.9017L29.0453 25.8473Z" fill="#DB8670"/>
<path d="M30.2764 24.0783C30.2669 24.1055 30.248 24.1237 30.248 24.1418C30.2575 24.1237 30.2764 24.1055 30.2953 24.0783C30.2859 24.0783 30.2764 24.0783 30.2764 24.0783Z" fill="#DB8670"/>
<path d="M27.0092 27.8249C27.0376 27.7887 27.0376 27.7796 27.0376 27.7705C26.9997 27.7977 26.9808 27.8249 27.0092 27.8249Z" fill="#DB8670"/>
</svg>
