<svg width="26" height="26" viewBox="0 0 26 26" fill="none" xmlns="http://www.w3.org/2000/svg">
<path d="M18.2815 25.8548C18.2057 25.9009 18.1298 25.9516 18.0493 25.9885C18.0161 26.0069 17.9687 25.9977 17.926 25.9977C17.6701 26.0023 17.4189 25.97 17.1677 25.9562C16.8406 25.9424 16.5183 25.9516 16.1912 25.9378C15.3238 25.9009 14.4565 25.8917 13.5891 25.8963C12.9207 25.9009 12.2477 25.9101 11.5794 25.9147C11.0912 25.9193 10.6029 25.9285 10.1147 25.9193C9.52226 25.9101 8.92504 25.8917 8.33255 25.8732C8.15718 25.8686 7.97706 25.8594 7.80169 25.8502C7.72111 25.8456 7.71163 25.8317 7.71163 25.7533C7.71163 25.6519 7.71637 25.5459 7.72585 25.4445C7.74007 25.2693 7.75429 25.0895 7.77325 24.9143C7.80169 24.6561 7.83013 24.3933 7.85857 24.1351C7.85857 24.1167 7.86331 24.0982 7.86805 24.0798C7.89175 23.8493 7.91545 23.6188 7.94388 23.3882C7.96758 23.1854 8.0055 22.9871 8.03394 22.7889C8.0529 22.6552 8.07186 22.5215 8.09082 22.3832C8.11452 22.1942 8.13822 22.0051 8.16666 21.8115C8.1951 21.6225 8.22354 21.4335 8.25198 21.2444C8.25671 21.2168 8.26146 21.1937 8.2662 21.1661C8.28989 20.9724 8.31359 20.7788 8.33729 20.5852C8.36573 20.3639 8.40365 20.1426 8.42735 19.9167C8.45579 19.6631 8.47475 19.4095 8.50319 19.156C8.51267 19.0499 8.52215 18.9439 8.54111 18.8378C8.55533 18.741 8.60747 18.6949 8.707 18.6949C8.77336 18.6949 8.84446 18.7134 8.91082 18.7134C8.97717 18.7134 9.04353 18.7041 9.10989 18.6995C9.18099 18.6903 9.20469 18.6396 9.22839 18.5797C9.30896 18.3491 9.30422 18.1186 9.28527 17.8789C9.28053 17.8466 9.28053 17.8097 9.27105 17.7821C9.22365 17.6392 9.23787 17.4916 9.24261 17.3441C9.24261 17.3164 9.24261 17.2934 9.25683 17.2703C9.31844 17.1274 9.29474 17.1505 9.4322 17.1551C9.73081 17.1551 10.0294 17.1735 10.328 17.1136C10.4181 17.0951 10.5176 17.1044 10.6124 17.0997C10.7357 17.0951 10.7546 17.0767 10.7546 16.9614C10.7546 16.5188 10.7546 16.0762 10.7546 15.6337C10.7546 15.5322 10.6977 15.4907 10.6266 15.4492C10.4465 15.3478 10.2664 15.251 10.0958 15.1403C9.71659 14.896 9.38006 14.5963 9.07197 14.2736C8.55533 13.7342 8.14296 13.121 7.77325 12.4848C7.4936 12.0053 7.25186 11.5074 7.00539 11.0095C6.92481 10.8435 6.84424 10.6775 6.7684 10.507C6.73522 10.4378 6.68782 10.4101 6.61672 10.3917C6.46979 10.3594 6.32759 10.3179 6.17592 10.2903C5.96736 10.2534 5.77303 10.175 5.57395 10.1059C5.39858 10.0459 5.22794 9.96294 5.06205 9.87995C4.61176 9.65404 4.19939 9.37282 3.82495 9.03626C3.332 8.59367 2.93385 8.07731 2.59258 7.51485C2.36033 7.12758 2.15651 6.72648 1.98588 6.30694C1.87212 6.03493 1.77733 5.7537 1.68253 5.47708C1.60669 5.26039 1.54033 5.04371 1.47397 4.82702C1.42184 4.65183 1.38392 4.47203 1.34126 4.29222C1.28912 4.08476 1.24172 3.87729 1.19432 3.66983C1.16588 3.53613 1.14692 3.40243 1.12322 3.26873C1.09479 3.11659 1.06635 2.96444 1.03317 2.8123C1.02843 2.79386 1.02369 2.77542 1.01895 2.75698C0.995248 2.58179 0.971549 2.40659 0.947849 2.2314C0.91941 2.03316 0.886231 1.8303 0.862532 1.63206C0.843572 1.48914 0.829353 1.34622 0.829353 1.2033C0.810393 1.00044 0.810393 0.783754 0.815133 0.567068C0.815133 0.511744 0.834093 0.45181 0.862532 0.401096C0.92415 0.285838 0.957318 0.424151 1.01894 0.308892C1.05211 0.248958 1.09477 0.225906 1.16113 0.225906C1.44552 0.221296 1.72992 0.216685 2.01431 0.207465C2.275 0.198244 2.53569 0.179803 2.79638 0.175192C3.23719 0.170582 3.67326 0.175192 4.11407 0.170582C4.87718 0.161361 5.63556 0.152141 6.39868 0.13831C7.00538 0.129089 7.61208 0.115258 8.21404 0.115258C9.66444 0.110648 11.1148 0.115258 12.5652 0.110648C13.0914 0.110648 13.6175 0.0968166 14.1436 0.0922063C14.3616 0.087596 14.5797 0.0691546 14.7977 0.0230512C14.8593 0.0092202 14.9257 0.00460986 14.9873 0.00460986C16.0016 0.00460986 17.016 0.00460986 18.035 0.00460986C18.9024 0.00460986 19.7698 -4.76087e-07 20.6372 -4.76087e-07C21.7037 -4.76087e-07 22.7749 0.00460986 23.8414 0.00460986C24.1495 0.00460986 24.4528 0.0092202 24.7609 0.00460986C24.8462 0.00460986 24.9078 0.0276616 24.96 0.087596C25.0737 0.225906 25.1685 0.368827 25.1543 0.567071C25.1401 0.82064 25.1875 0.829858 25.1875 1.08804C25.1875 1.35544 25.1828 1.62745 25.178 1.89485C25.1733 2.10231 25.1022 2.30056 25.0453 2.4988C25.0074 2.64633 24.9505 2.78464 24.9078 2.93217C24.8699 3.06126 24.832 3.19035 24.7988 3.32405C24.7514 3.50385 24.7088 3.68827 24.6614 3.86807C24.6329 3.98794 24.6045 4.1032 24.5808 4.22307C24.5666 4.27839 24.5571 4.33833 24.5571 4.39826C24.5618 4.61034 24.4955 4.81319 24.4291 5.01143C24.3675 5.20046 24.2727 5.37565 24.1874 5.55546C24.0452 5.85513 23.9077 6.15941 23.7608 6.45447C23.6328 6.71265 23.4906 6.96622 23.3484 7.21518C23.1351 7.584 22.8981 7.939 22.6327 8.27555C22.2109 8.81035 21.7179 9.26678 21.1254 9.61716C20.879 9.76008 20.6278 9.88917 20.3576 9.98138C20.1822 10.0413 20.0116 10.1012 19.8315 10.1427C19.6466 10.1888 19.4665 10.2349 19.2769 10.2534C19.2153 10.258 19.1584 10.2811 19.1015 10.2903C19.0541 10.2949 19.0304 10.3225 19.0115 10.364C18.9261 10.5438 18.8408 10.7236 18.7508 10.9034C18.6228 11.1662 18.4948 11.429 18.3574 11.6872C18.1772 12.0238 17.9877 12.3603 17.7933 12.6923C17.5705 13.0749 17.3099 13.4299 17.0302 13.7757C16.6463 14.2506 16.2102 14.6747 15.7125 15.0297C15.5182 15.168 15.3096 15.2879 15.1058 15.417C15.0489 15.4539 15.0158 15.4953 15.0158 15.5691C15.0205 16.1177 15.0158 16.6664 15.0158 17.2196C15.0158 17.3349 15.0252 17.3441 15.1485 17.3441C15.5608 17.3441 15.9732 17.3441 16.3856 17.3441C16.414 17.3441 16.4377 17.3441 16.4662 17.3441C16.5183 17.3441 16.542 17.3671 16.542 17.4179C16.5467 17.5147 16.5515 17.6115 16.5515 17.7037C16.5467 18.0449 16.542 18.3906 16.5373 18.7318C16.5373 18.7871 16.5467 18.8286 16.6036 18.8424C16.6605 18.8563 16.7174 18.8793 16.779 18.8839C16.9117 18.8886 17.0444 18.8839 17.1771 18.8839C17.2862 18.8839 17.2909 18.8886 17.3146 18.99C17.3193 19.0038 17.3193 19.0176 17.3241 19.0315C17.3478 19.2389 17.3667 19.451 17.3952 19.6585C17.4236 19.8613 17.4615 20.0642 17.49 20.2717C17.5089 20.41 17.5279 20.5483 17.5421 20.6866C17.5658 20.8894 17.5895 21.0877 17.6179 21.2905C17.6464 21.498 17.6748 21.7055 17.708 21.9129C17.7127 21.9406 17.7175 21.9636 17.7222 21.9913C17.7459 22.1942 17.7649 22.3924 17.7933 22.5953C17.8218 22.7935 17.8549 22.9871 17.8881 23.1854C17.9071 23.3237 17.926 23.462 17.945 23.6003C17.9687 23.7847 17.9877 23.9738 18.0161 24.1582C18.0445 24.3518 18.0777 24.5454 18.1061 24.7345C18.1298 24.882 18.1535 25.0249 18.1725 25.1724C18.2104 25.3984 18.2436 25.6243 18.2815 25.8502C18.2863 25.8409 18.2815 25.8502 18.2815 25.8548ZM5.85361 1.08804C5.86783 1.1618 5.88204 1.21252 5.88678 1.26323C5.91048 1.50297 5.9247 1.74732 5.9484 1.99166C5.96262 2.1438 5.98632 2.30056 6.00528 2.4527C6.01476 2.53568 6.02898 2.61867 6.03846 2.70627C6.06216 2.89529 6.0906 3.08431 6.11904 3.27334C6.14274 3.44853 6.16644 3.62372 6.19488 3.79892C6.21384 3.91878 6.23279 4.03865 6.25649 4.15852C6.28493 4.31988 6.31811 4.47664 6.34655 4.638C6.37025 4.78092 6.38921 4.92845 6.41765 5.07137C6.46031 5.29728 6.51245 5.51857 6.56458 5.73987C6.62146 5.99344 6.67834 6.2424 6.73522 6.49135C6.79684 6.75414 6.85846 7.01232 6.92007 7.27511C6.93903 7.36271 6.96273 7.44569 6.99117 7.52868C7.03857 7.70387 7.09071 7.87446 7.14285 8.04965C7.19025 8.2064 7.23765 8.36776 7.28504 8.52451C7.33244 8.66743 7.3751 8.81035 7.4225 8.95327C7.4699 9.08697 7.51256 9.22528 7.5647 9.35898C7.62631 9.52957 7.69267 9.69554 7.75429 9.86612C7.82065 10.0367 7.88227 10.2027 7.95336 10.3686C8.0529 10.5992 8.15244 10.8297 8.26145 11.0556C8.39891 11.3368 8.54111 11.618 8.68804 11.8947C8.8966 12.2773 9.13359 12.6462 9.39428 13.0011C9.55544 13.2224 9.73081 13.4345 9.92989 13.6282C10.2332 13.9278 10.5792 14.1676 10.9584 14.3612C11.1386 14.4534 11.3281 14.5272 11.513 14.6009C11.6315 14.647 11.7547 14.6793 11.8732 14.7162C12.0059 14.7577 12.1387 14.8084 12.2809 14.8084C12.3046 14.8084 12.3235 14.8176 12.3472 14.8222C12.4088 14.8361 12.4705 14.8545 12.5368 14.8591C12.6411 14.8729 12.7454 14.8776 12.8544 14.8822C13.2667 14.9144 13.6649 14.8683 14.063 14.7623C14.2953 14.7024 14.5086 14.6148 14.7171 14.5041C15.0774 14.3105 15.3855 14.0523 15.6699 13.7619C16.2055 13.2086 16.6084 12.5724 16.9686 11.9085C17.1392 11.5904 17.3004 11.2631 17.4568 10.9403C17.6179 10.6084 17.7649 10.2718 17.9213 9.93527C18.0493 9.65865 18.1772 9.38665 18.3005 9.11003C18.3479 9.00399 18.3905 8.89795 18.4237 8.79191C18.4569 8.68126 18.4711 8.57062 18.4996 8.45997C18.5185 8.37237 18.5422 8.28939 18.5612 8.20179C18.5896 8.08192 18.6228 7.95744 18.6512 7.83757C18.6749 7.73153 18.6986 7.62089 18.7271 7.51485C18.7602 7.37654 18.7934 7.23823 18.8266 7.09531C18.8503 6.98927 18.8787 6.87862 18.9024 6.77258C18.9309 6.65272 18.9593 6.53746 18.9878 6.41759C19.0162 6.29772 19.0399 6.17324 19.0636 6.04876C19.0826 5.95655 19.1015 5.85974 19.1252 5.76753C19.1537 5.62922 19.1868 5.49552 19.2153 5.35721C19.2437 5.22351 19.2627 5.08981 19.2911 4.95611C19.3101 4.85007 19.329 4.74865 19.3527 4.64261C19.3812 4.49969 19.4143 4.35677 19.438 4.20924C19.4665 4.04326 19.4854 3.87268 19.5091 3.70671C19.5471 3.43931 19.585 3.17652 19.6229 2.90912C19.6229 2.89529 19.6276 2.88146 19.6276 2.86302C19.6608 2.55412 19.694 2.24984 19.7224 1.94095C19.7367 1.76576 19.7461 1.58595 19.7556 1.41076C19.7556 1.37849 19.7556 1.34622 19.7556 1.30011C19.713 1.2955 19.675 1.29089 19.6324 1.28628C19.5897 1.27706 19.5423 1.28167 19.5139 1.25862C19.3859 1.1618 19.239 1.15258 19.0826 1.15258C16.5041 1.15258 13.9256 1.15719 11.3424 1.14797C10.4039 1.14336 9.46538 1.18024 8.52689 1.12953C8.23776 1.1157 7.94388 1.12492 7.65475 1.1157C7.12389 1.10187 6.59302 1.07882 6.0669 1.06498C5.9958 1.06498 5.92944 1.07882 5.85361 1.08804ZM10.1906 19.9397C10.1906 19.9213 10.1906 19.8982 10.1811 19.8798C10.1669 19.8291 10.1053 19.8152 10.0816 19.8613C10.0484 19.9305 9.9915 19.9259 9.93463 19.9489C9.86353 19.9766 9.77347 19.9996 9.73081 20.055C9.65971 20.1333 9.61705 20.2348 9.61232 20.35C9.60758 20.41 9.5981 20.4745 9.57914 20.5344C9.51278 20.7189 9.46064 20.9033 9.42272 21.0969C9.4085 21.1753 9.37058 21.249 9.34214 21.3228C9.33266 21.3413 9.32318 21.3689 9.32792 21.3874C9.3611 21.5164 9.30896 21.6363 9.29474 21.7562C9.29 21.7838 9.27578 21.8115 9.25683 21.8299C9.19995 21.8853 9.19047 21.9406 9.22839 22.0098C9.24261 22.0328 9.24261 22.0651 9.24261 22.0927C9.22839 22.2449 9.21417 22.4016 9.19995 22.5538C9.19521 22.5953 9.18099 22.6414 9.16203 22.6736C9.12885 22.7244 9.11463 22.7797 9.10989 22.8396C9.10515 22.941 9.10041 23.0379 9.08619 23.1347C9.06249 23.2822 9.02931 23.4297 9.00087 23.5773C8.95821 23.7801 8.91556 23.9876 8.86816 24.1904C8.81128 24.4256 8.76862 24.6561 8.7544 24.8958C8.74966 24.965 8.76862 24.988 8.84446 24.9926C8.85868 24.9926 8.8729 24.9926 8.89186 24.9926C9.93937 24.9834 10.9916 24.9788 12.0391 24.9696C12.5226 24.965 13.0061 24.9696 13.4943 24.9604C14.6555 24.9465 15.8168 24.9235 16.9828 24.905C17.0207 24.905 17.0634 24.8912 17.1013 24.882C17.0871 24.7391 17.0823 24.6054 17.0634 24.4763C17.0207 24.1858 16.9686 23.8954 16.9212 23.6049C16.9022 23.4943 16.8785 23.379 16.8596 23.2684C16.8359 23.1347 16.8122 23.001 16.7885 22.8673C16.7695 22.7658 16.7458 22.6644 16.7221 22.5676C16.6937 22.4293 16.6605 22.2864 16.6368 22.1481C16.6084 22.0005 16.5847 21.853 16.561 21.7009C16.5278 21.4888 16.4946 21.2721 16.4614 21.0554C16.4425 20.9171 16.4235 20.7788 16.4093 20.6405C16.3856 20.4146 16.3714 20.1841 16.3477 19.9582C16.3429 19.889 16.324 19.8752 16.2529 19.8798C16.0917 19.8844 15.9258 19.8936 15.7647 19.8936C15.0774 19.8936 14.3948 19.9535 13.7123 19.9535C12.6316 19.9535 11.5557 19.9858 10.475 20.0089C10.366 20.0181 10.2759 20.0043 10.1906 19.9397ZM23.6944 2.01933C23.6992 2.01933 23.6992 2.01933 23.7039 2.01933C23.7039 1.78881 23.7039 1.55368 23.7039 1.32316C23.7039 1.23096 23.6707 1.20791 23.5807 1.20791C23.1683 1.21713 22.756 1.23096 22.3436 1.23096C21.9786 1.23096 21.6184 1.2494 21.2534 1.21252C21.1965 1.20791 21.1823 1.22635 21.1776 1.2955C21.1586 1.65972 21.1397 2.02394 21.116 2.38815C21.1112 2.48497 21.097 2.5864 21.0875 2.68321C21.0638 2.86763 21.0354 3.05665 21.0117 3.24106C21.0069 3.26412 21.0069 3.28717 21.0069 3.30561C21.0117 3.47158 21.0117 3.63755 21.0212 3.79892C21.0354 4.06632 21.0117 4.3291 20.9216 4.58267C20.8695 4.72559 20.8505 4.87773 20.7937 5.01604C20.732 5.17741 20.6894 5.33877 20.6515 5.50474C20.6372 5.56006 20.623 5.62 20.6041 5.67532C20.5424 5.87357 20.4713 6.0672 20.4192 6.26545C20.3054 6.66194 20.1869 7.05843 20.0353 7.44569C20.0021 7.53329 19.9737 7.6255 19.9452 7.7177C19.912 7.81452 19.8836 7.91595 19.8457 8.00815C19.7319 8.28478 19.585 8.54756 19.5091 8.83802C19.4807 8.94405 19.457 9.0547 19.438 9.16074C19.4238 9.24372 19.4617 9.27139 19.5376 9.24372C19.675 9.1884 19.8125 9.1423 19.9405 9.07775C20.149 8.97172 20.3528 8.86568 20.5472 8.7412C21.1017 8.3862 21.5615 7.939 21.9549 7.42725C22.4242 6.81408 22.7702 6.14097 23.0403 5.42637C23.1588 5.10825 23.2679 4.79014 23.3437 4.45819C23.3627 4.3706 23.3864 4.28761 23.4101 4.20002C23.4432 4.05248 23.4764 3.90495 23.5049 3.75742C23.5333 3.60989 23.557 3.46236 23.5759 3.31022C23.6091 3.05204 23.6423 2.79386 23.6707 2.53107C23.6802 2.36971 23.685 2.19452 23.6944 2.01933ZM6.17592 8.97633C6.17118 8.93022 6.17592 8.90256 6.16644 8.8749C6.12378 8.72276 6.07164 8.57523 6.02898 8.42309C5.96262 8.17413 5.901 7.92517 5.83939 7.67621C5.78251 7.4503 5.73037 7.2244 5.67349 7.0031C5.64979 6.91089 5.63083 6.81869 5.60713 6.72187C5.57869 6.602 5.54551 6.47752 5.51708 6.35765C5.48864 6.23778 5.46968 6.11331 5.44598 5.98883C5.42702 5.89201 5.40332 5.79519 5.37962 5.69838C5.35118 5.56929 5.318 5.4402 5.28956 5.31111C5.26112 5.17741 5.24216 5.04371 5.21846 4.91001C5.19951 4.79936 5.17581 4.69332 5.15211 4.58728C5.12367 4.44436 5.09523 4.29683 5.06205 4.15391C5.03361 4.03404 5.00517 3.91878 4.97199 3.80353C4.92459 3.62372 4.84402 3.44853 4.87719 3.2549C4.88193 3.23645 4.87245 3.2134 4.86298 3.19035C4.81558 3.00594 4.76344 2.82152 4.71604 2.6325C4.67812 2.48036 4.65916 2.32822 4.60702 2.18069C4.50275 1.89024 4.43165 1.59517 4.38899 1.29089C4.37951 1.20791 4.36055 1.19407 4.27997 1.21252C4.21361 1.22635 4.14726 1.2494 4.07142 1.26784C4.06668 1.23557 4.06194 1.21252 4.0572 1.18485C4.04772 1.14797 4.02402 1.12953 3.98136 1.13414C3.9624 1.13414 3.94344 1.13875 3.92448 1.14336C3.73015 1.19868 3.53581 1.18024 3.33674 1.15258C3.13293 1.12031 2.92437 1.09265 2.72056 1.07421C2.55466 1.06037 2.38877 1.0696 2.22287 1.0696C2.15177 1.0696 2.08068 1.0696 2.00958 1.0696C2.00484 1.10187 1.99536 1.12492 2.0001 1.14797C2.0238 1.43842 2.05224 1.72887 2.07594 2.01933C2.08542 2.10692 2.09964 2.19452 2.10912 2.28211C2.13281 2.47114 2.15651 2.66016 2.18495 2.84919C2.19917 2.95983 2.21813 3.07509 2.24183 3.18574C2.27027 3.32866 2.29871 3.47619 2.33189 3.61911C2.35085 3.70671 2.36981 3.7897 2.38877 3.87729C2.41247 3.99716 2.43143 4.11703 2.46461 4.23229C2.52622 4.45819 2.59258 4.6841 2.66368 4.91001C2.75848 5.19124 2.85327 5.47708 2.96703 5.74909C3.09027 6.05337 3.2372 6.34843 3.40784 6.62966C3.64009 7.02154 3.90078 7.38576 4.21835 7.7177C4.51697 8.03121 4.84402 8.30322 5.21372 8.52912C5.5076 8.70893 5.81569 8.86568 6.17592 8.97633ZM12.8591 17.0582C12.8923 17.0536 12.9255 17.0536 12.9634 17.0536C13.1957 17.0767 13.4232 17.0306 13.6412 16.9522C13.845 16.8784 13.9635 16.7309 14.0299 16.5373C14.0867 16.3667 14.0867 16.1869 14.082 16.0117C14.0773 15.9057 14.0678 15.8964 13.9635 15.8964C13.2952 15.8826 12.6316 15.9103 11.968 15.9564C11.878 15.961 11.859 15.984 11.8685 16.067C11.8827 16.1823 11.9064 16.2929 11.9206 16.4036C11.9396 16.5972 11.9775 16.7862 12.0391 16.9753C12.077 17.0951 12.0913 17.109 12.224 17.1044C12.4325 17.0905 12.6458 17.0721 12.8591 17.0582ZM14.9731 18.6995C14.9968 18.7041 15.011 18.7087 15.0205 18.7041C15.12 18.6626 15.2196 18.6719 15.3191 18.7041C15.3855 18.7226 15.4566 18.7456 15.5277 18.7502C15.6177 18.7549 15.6699 18.7087 15.6651 18.6165C15.6556 18.5105 15.6651 18.4045 15.6651 18.2938C15.6651 18.1924 15.6604 18.1832 15.5561 18.1786C15.3144 18.1693 15.0726 18.1647 14.8309 18.1693C14.665 18.1739 14.4991 18.1924 14.3332 18.2016C14.1436 18.2108 13.954 18.2154 13.7644 18.2247C13.608 18.2339 13.4469 18.2523 13.2904 18.2523C12.897 18.2523 12.5036 18.2708 12.1102 18.2339C11.9301 18.2154 11.7453 18.2108 11.5651 18.2154C11.4277 18.2154 11.2855 18.2431 11.148 18.2523C10.9158 18.2662 10.7546 18.1693 10.565 18.2938C10.3754 18.0771 10.4465 18.5197 10.4513 18.5843C10.4892 18.5889 10.565 18.7041 10.565 18.5981C10.6503 18.6027 10.7305 18.6857 10.8158 18.6949C11.1618 18.7364 11.4987 18.7226 11.8447 18.6949C11.9537 18.6857 12.115 18.6903 12.224 18.6949C12.4894 18.6995 12.5984 18.6534 12.8591 18.6165C12.9302 18.6073 13.1424 18.7134 13.2904 18.6165C13.4658 18.6119 13.4658 18.6995 13.6412 18.6949C13.8355 18.6903 14.1389 18.6857 14.3332 18.6949C14.556 18.7041 14.5292 18.6027 14.7472 18.6949C14.752 18.718 14.9684 18.6673 14.9731 18.6995Z" fill="#DB8670"/>
</svg>
