<svg width="22" height="31" viewBox="0 0 22 31" fill="none" xmlns="http://www.w3.org/2000/svg">
<path d="M15.3168 19.0231V19.0332C15.3289 19.039 15.3406 19.0457 15.3517 19.0533L15.3168 19.0231Z" fill="#DB8670"/>
<path d="M15.2386 20.6417V20.6524C15.243 20.6509 15.2518 20.6524 15.2386 20.6417Z" fill="#DB8670"/>
<path d="M15.1688 15.2962C15.1696 15.2865 15.1671 15.2769 15.1618 15.2689C15.1653 15.2776 15.1676 15.2868 15.1688 15.2962V15.2962Z" fill="#DB8670"/>
<path d="M15.0781 6.00214C15.0803 5.99611 15.0831 5.99032 15.0864 5.98486L15.0781 6.00214Z" fill="#DB8670"/>
<path d="M15.1004 6.03382C15.0906 6.06982 15.0808 6.02518 15.078 6.00934C15.0606 6.046 15.0566 6.08797 15.0669 6.12742C15.0878 6.12742 15.085 6.04822 15.1004 6.03382Z" fill="#DB8670"/>
<path d="M14.9901 0.624969L14.9999 0.64081C14.9978 0.634855 14.9945 0.629447 14.9901 0.624969V0.624969Z" fill="#DB8670"/>
<path d="M14.112 15.4604V15.4359C14.1102 15.4397 14.1093 15.4439 14.1093 15.4482C14.1093 15.4524 14.1102 15.4566 14.112 15.4604V15.4604Z" fill="#DB8670"/>
<path d="M14.9733 1.47318L15.0068 1.48135C14.9965 1.47593 14.985 1.47312 14.9733 1.47318V1.47318Z" fill="#DB8670"/>
<path d="M15.3573 19.0533L15.3699 19.0642C15.3667 19.0596 15.3624 19.0558 15.3573 19.0533Z" fill="#DB8670"/>
<path d="M15.2177 22.1365C15.2084 22.1363 15.1992 22.1387 15.1912 22.1433L15.2177 22.1365Z" fill="#DB8670"/>
<path d="M14.7165 29.6737H14.7291L14.7053 29.6435C14.7065 29.6544 14.7103 29.6648 14.7165 29.6737V29.6737Z" fill="#DB8670"/>
<path d="M15.085 24.1929C15.085 24.1929 15.085 24.1929 15.0962 24.1929C15.11 24.1116 15.1142 24.0289 15.1088 23.9466L15.0669 23.9394L15.085 24.1929Z" fill="#DB8670"/>
<path d="M14.1175 26.435L14.1999 26.2147C14.2432 26.916 14.1594 27.2443 14.2306 27.8448L14.2125 27.8117C14.1929 27.8996 14.3828 27.9471 14.1566 28.9134H14.1482C14.1482 28.9479 14.1664 28.9479 14.1482 29.0142L14.1999 28.8471C14.2327 28.9511 14.2556 29.0582 14.2683 29.1668C14.266 29.177 14.261 29.1862 14.2538 29.1936C14.2467 29.201 14.2377 29.2062 14.2278 29.2086L14.2432 29.5355L14.1901 29.6363C14.2194 29.7356 14.3297 29.6896 14.2725 29.9574C14.3507 29.8566 14.32 30.0899 14.3604 30.0568C14.3507 30.0697 14.3367 30.1 14.3228 30.1259C14.3259 30.3056 14.3512 30.4842 14.3981 30.6573C14.4665 30.389 14.55 30.125 14.648 29.8667C14.6271 30.0913 14.6578 29.9257 14.6843 29.8811L14.6648 29.8667C14.683 29.7328 14.7346 29.7328 14.7472 29.6651H14.7332V29.6737C14.732 29.6752 14.7305 29.6764 14.7289 29.6773C14.7272 29.6781 14.7253 29.6785 14.7234 29.6785C14.7216 29.6785 14.7197 29.6781 14.718 29.6773C14.7163 29.6764 14.7148 29.6752 14.7137 29.6737C14.7025 29.6737 14.6941 29.6737 14.6969 29.6319C14.6912 29.5673 14.6912 29.5022 14.6969 29.4375H14.7388C14.6592 29.3382 14.8589 28.7679 14.8603 28.6354C14.9133 28.5001 14.8463 28.3345 14.8714 28.1674C14.884 27.901 14.9329 28.0335 14.9678 27.8996C14.9929 27.7325 14.9189 27.9341 14.9161 27.8664L14.9733 27.6663C14.9733 27.7815 15.0041 27.7181 15.0208 27.698C15.0208 27.5237 15.1032 27.2501 15.0208 27.1983C15.0599 26.9635 15.0934 26.9635 15.0976 26.8627C15.0822 26.8958 15.0683 26.9635 15.0515 26.9635C15.0878 26.8699 15.0418 26.9189 15.0348 26.9635C14.9971 26.8195 15.1842 26.2219 15.092 26.1917H15.1088C15.039 26.1585 14.9692 26.2118 14.9343 26.1125L14.965 26.0462L14.9343 25.9454C14.9566 25.8792 14.9747 25.9123 14.9831 25.9123C14.9674 25.7161 14.9716 25.5187 14.9957 25.3233L14.81 25.5336C14.8519 25.3665 14.9384 25.0655 14.8784 25.0324L14.9412 24.9316C15.0599 24.5961 14.8868 24.6983 14.9231 24.5644L14.9901 24.3959V24.563C15.0142 24.438 15.0478 24.3152 15.0906 24.1958C15.0906 24.2044 15.0906 24.2102 15.0808 24.2116V24.1929C15.0459 24.1727 15.0222 24.0863 15.025 23.9682C15.0334 23.8012 14.9817 23.6701 15.0529 23.4023L14.9831 23.336L15.0236 23.1359H15.0794C15.0794 23.3317 15.1004 23.7018 15.1046 23.9538H15.1297C15.1297 23.8098 15.1032 23.6341 15.1088 23.5348C15.1199 23.4872 15.1772 23.3634 15.2149 23.4527L15.1604 23.3605C15.1417 23.0179 15.1581 22.6743 15.2093 22.3352L15.1814 22.3813C15.1646 22.2776 15.1479 22.1739 15.1925 22.1451C15.192 21.8608 15.2296 21.5778 15.3042 21.3041L15.2386 21.2595C15.2386 21.1932 15.3405 21.0939 15.2484 21.0622L15.2177 20.9182C15.2177 20.8275 15.1856 20.7742 15.2177 20.6691L15.226 20.6503C15.254 20.4459 15.1674 20.6503 15.2037 20.4185C15.2498 20.3436 15.1199 20.3364 15.1339 20.2212L15.2274 20.106C15.2805 19.9001 15.187 19.8641 15.1842 19.5645C15.2177 19.4205 15.2972 19.3514 15.3698 19.4465C15.2819 19.3154 15.3126 19.386 15.2707 19.2132C15.3056 19.1858 15.314 19.2045 15.3461 19.2434C15.3866 19.0879 15.3126 19.1484 15.3154 19.0317C15.247 18.9986 15.1409 18.9597 15.1367 18.9223L15.1157 18.9669C15.0735 18.8375 15.0663 18.6985 15.0948 18.5651H15.1283L15.1102 18.4125L15.1534 18.4024L15.1395 18.185L15.1283 18.2152C15.1135 18.1107 15.1135 18.0044 15.1283 17.8998H15.152C15.226 17.6277 15.1269 17.4059 15.1171 17.0877L15.166 17.1294C15.2135 17.0214 15.0906 17.1006 15.1144 16.971H15.1744C15.0948 16.8572 15.1897 16.827 15.2205 16.7449L15.1409 16.7824L15.1576 16.6384C15.1828 16.4756 15.2568 16.5376 15.2972 16.562L15.2344 16.4512L15.3042 16.4296C15.2232 16.3489 15.3168 16.3489 15.2735 16.2078C15.2986 16.1963 15.314 16.2323 15.3252 16.1833L15.226 15.9515L15.2707 16.0955L15.1688 16.0796C15.0906 15.9356 15.1786 15.8809 15.1507 15.7772L15.18 15.8492C15.1548 15.6778 15.1981 15.6692 15.2205 15.5727C15.2009 15.603 15.173 15.6476 15.1604 15.5799C15.1479 15.5122 15.1953 15.5511 15.2065 15.5036C15.1395 15.4921 15.1018 15.3697 15.1339 15.2588C15.1433 15.2596 15.1521 15.2637 15.159 15.2703C15.1479 15.2415 15.1297 15.2271 15.1465 15.1781L15.2219 15.2069L15.1493 15.1119C15.1702 15.0485 15.1144 14.9564 15.166 14.9679L15.1814 15.0039L15.1967 14.5244H15.2568C15.1744 14.4783 15.2875 14.2637 15.1842 14.2796C15.24 14.1888 15.1423 13.9239 15.2595 13.9771C15.2665 13.6618 15.1534 13.4933 15.2079 13.1131C15.307 12.9763 15.2721 12.6033 15.2819 12.3571C15.2386 11.8775 15.1995 11.5679 15.166 11.0769C15.3056 10.7889 15.1144 10.3425 15.1911 10.0242L15.1353 9.9378C15.2219 9.72611 15.113 9.40354 15.1967 9.10833C15.1815 9.06683 15.1703 9.02391 15.1632 8.98016C15.1605 8.99124 15.1545 9.00114 15.1459 9.0084C15.1374 9.01566 15.1268 9.0199 15.1157 9.02049C15.1395 8.93696 15.1074 8.7656 15.1772 8.77712V8.79872C15.247 8.81024 15.1437 8.54239 15.2037 8.44734L15.1297 8.49919L15.1409 8.33934L15.1562 8.38254C14.9873 7.687 15.2219 7.37451 15.0669 6.71928C15.1493 6.80569 15.0236 6.59112 15.113 6.57528C15.2232 6.40967 15.0878 6.26999 15.0571 6.13462C15.0539 6.13443 15.0508 6.13356 15.0479 6.13208C15.045 6.13059 15.0424 6.12852 15.0404 6.12598L15.0501 5.88981C15.1632 6.03382 14.9566 5.71989 15.0501 5.84949C15.1311 5.23315 15.0404 4.4296 15.0767 3.71677L15.0473 3.74846C15.0311 3.56756 15.0358 3.38531 15.0613 3.20556C15.1074 3.06875 14.9873 2.90602 14.9817 2.85274C14.9315 2.70874 15.0292 2.56473 15.025 2.63097C15.0096 2.46969 14.9063 2.31848 14.9496 2.09528C15.0445 2.01895 14.8533 1.48757 14.9608 1.48037H14.951C15.0264 1.19236 14.8966 0.925953 14.9622 0.616342C14.9683 0.621014 14.9736 0.626885 14.9775 0.633623L14.6592 0L14.3018 0.180006L14.017 0.720026L14.0868 2.19032L13.9793 3.3654L14.0324 6.22102L14.1133 6.42407C13.9737 6.98713 14.1413 7.70572 14.0435 8.31054L14.1133 8.3235C14.1189 8.35864 14.1173 8.39458 14.1086 8.42904C14.1 8.46351 14.0845 8.49573 14.0631 8.52367C14.0854 10.1077 14.1859 11.7422 14.1064 13.1693C14.0603 13.3133 14.0896 13.7251 14.0421 13.8331C14.1154 14.3019 14.143 14.7771 14.1245 15.2516L14.1161 15.2343L14.1301 15.4532C14.1301 15.4618 14.1161 15.4633 14.1119 15.4532C14.1748 15.6994 14.1119 16.0883 14.091 16.3907L14.084 16.372C14.084 18.1346 14.2236 19.7676 14.1287 21.5158C14.0198 22.328 14.1804 23.2727 14.091 24.2044C14.0226 24.383 14.084 26.268 14.1175 26.435Z" fill="#DB8670"/>
<path d="M14.2237 29.2082V29.2014C14.1943 29.2014 14.2055 29.2123 14.2237 29.2082Z" fill="#DB8670"/>
<path d="M15.0055 25.3103L15.0041 25.3233L15.046 25.2758L15.0055 25.3103Z" fill="#DB8670"/>
<path d="M15.0418 27.8045C15.0501 27.6922 15.0418 27.6879 15.032 27.7037C15.0289 27.7377 15.0322 27.7719 15.0418 27.8045V27.8045Z" fill="#DB8670"/>
<path d="M14.2837 30.123C14.2837 30.182 14.299 30.1604 14.3186 30.123V30.0208C14.306 30.0568 14.2907 30.0971 14.2837 30.123Z" fill="#DB8670"/>
<path d="M14.6802 29.8811L14.7039 29.8998C14.6983 29.8652 14.6899 29.8667 14.6802 29.8811Z" fill="#DB8670"/>
<path d="M9.89709 0.52612C9.90001 0.519988 9.90001 0.51079 9.89709 0.52612V0.52612Z" fill="#DB8670"/>
<path d="M7.53905 0.902896C7.5365 0.902641 7.53392 0.903157 7.53167 0.904375C7.52943 0.905593 7.52762 0.907454 7.52649 0.909707C7.53017 0.906642 7.53444 0.904326 7.53905 0.902896V0.902896Z" fill="#DB8670"/>
<path d="M3.39438 1.23179L3.38562 1.2226L3.39438 1.23179Z" fill="#DB8670"/>
<path d="M3.40791 1.20532C3.42466 1.2154 3.40791 1.22548 3.39813 1.2298C3.40423 1.23791 3.41301 1.24343 3.42279 1.24528C3.43258 1.24714 3.44269 1.24522 3.45118 1.23988C3.44979 1.21828 3.41628 1.2226 3.40791 1.20532Z" fill="#DB8670"/>
<path d="M0.987061 1.28221V1.27301C0.987061 1.27301 0.98998 1.27914 0.987061 1.28221Z" fill="#DB8670"/>
<path d="M7.7244 1.97864H7.71497C7.71497 1.97864 7.72305 1.98274 7.7244 1.97864Z" fill="#DB8670"/>
<path d="M1.36681 1.31334V1.27878C1.36577 1.29027 1.36577 1.30184 1.36681 1.31334V1.31334Z" fill="#DB8670"/>
<path d="M9.17948 0.512661V0.49826C9.17854 0.503012 9.17854 0.50791 9.17948 0.512661Z" fill="#DB8670"/>
<path d="M10.5588 0.432007C10.5608 0.440919 10.5636 0.449605 10.5672 0.457928V0.457928L10.5588 0.432007Z" fill="#DB8670"/>
<path d="M13.9821 0.252005V0.239044L13.9738 0.266405C13.9781 0.262774 13.9811 0.257673 13.9821 0.252005V0.252005Z" fill="#DB8670"/>
<path d="M11.4887 0.408977C11.4894 0.405173 11.4894 0.401261 11.4887 0.397457C11.4518 0.391055 11.4139 0.39402 11.3784 0.406097V0.449299L11.4887 0.408977Z" fill="#DB8670"/>
<path d="M12.6809 1.18517L12.565 1.12181C12.8708 1.01524 13.0341 1.06277 13.2868 0.931721L13.2757 0.953322C13.319 0.963402 13.2966 0.768995 13.7797 0.89572V0.90436C13.7936 0.90436 13.7894 0.882759 13.8243 0.90436L13.7406 0.864038C13.7811 0.830917 13.809 0.780515 13.8676 0.760355C13.8812 0.768082 13.8912 0.781024 13.8955 0.796356L14.0352 0.744514L14.0924 0.787716C14.1301 0.745954 14.0812 0.64371 14.2153 0.669631C14.151 0.600509 14.2613 0.606269 14.2376 0.568828C14.246 0.577468 14.2627 0.588989 14.2767 0.600509C14.3451 0.571708 14.4721 0.515546 14.4945 0.466584C14.3529 0.42563 14.2154 0.370653 14.084 0.302418C14.1873 0.302418 14.1064 0.286578 14.084 0.264977V0.288018C14.0198 0.288018 14.0072 0.233296 13.9751 0.226095C13.9746 0.230878 13.9746 0.235713 13.9751 0.240496V0.240496C13.9767 0.243603 13.9775 0.247063 13.9775 0.250576C13.9775 0.254089 13.9767 0.25755 13.9751 0.260657C13.9751 0.270737 13.9751 0.280817 13.9612 0.280817C13.9338 0.292909 13.9044 0.299272 13.8746 0.299538L13.8648 0.256336C13.8397 0.3485 13.5437 0.211695 13.4837 0.221775C13.4125 0.182894 13.3552 0.266417 13.2757 0.257777C13.1556 0.272177 13.2031 0.210255 13.1361 0.187214C13.069 0.164173 13.1626 0.233296 13.1361 0.243376L13.0355 0.205935C13.0858 0.188654 13.0523 0.168493 13.0355 0.155533C12.9588 0.165613 12.8219 0.116651 12.8177 0.207375C12.7144 0.177134 12.7047 0.144012 12.6628 0.144012C12.6809 0.156973 12.713 0.164173 12.7172 0.180014C12.6684 0.152653 12.6991 0.194414 12.7172 0.198734C12.6628 0.252016 12.3598 0.116651 12.3668 0.213135V0.195854C12.3668 0.267857 12.4045 0.331219 12.3668 0.378741L12.3305 0.35426L12.2858 0.397462C12.2509 0.381621 12.2621 0.36002 12.2607 0.35138C12.1951 0.398902 12.0876 0.383061 11.9982 0.393141L12.1295 0.561628C12.0471 0.534267 11.8963 0.475224 11.8935 0.538587L11.8377 0.485305C11.6659 0.393141 11.7441 0.558747 11.6785 0.534267L11.5906 0.479545L11.6646 0.465144C11.6012 0.450187 11.5402 0.42645 11.4831 0.394581V0.394581C11.4852 0.395207 11.4872 0.396303 11.4889 0.397795C11.4906 0.399286 11.4919 0.401138 11.4928 0.403222H11.4831C11.4831 0.440663 11.4468 0.472344 11.3937 0.479545C11.3183 0.479545 11.2708 0.547227 11.1396 0.496825L11.1284 0.576028L11.0293 0.555867V0.498265C11.1159 0.485305 11.275 0.430583 11.3853 0.406102V0.380181C11.3197 0.393141 11.2457 0.433463 11.2052 0.436343C11.1647 0.439223 11.1159 0.381621 11.148 0.335539L11.1187 0.398902C10.9694 0.445655 10.8116 0.455521 10.658 0.427703L10.6831 0.452184C10.6398 0.478105 10.5979 0.502585 10.577 0.452184C10.4453 0.473507 10.3104 0.456553 10.1875 0.403222L10.1791 0.472344C10.1498 0.472344 10.0897 0.381621 10.0897 0.472344L10.0325 0.511226C9.99201 0.511226 9.97386 0.554427 9.9222 0.524186L9.91243 0.516986C9.81749 0.501145 9.9222 0.576028 9.8133 0.554427C9.77282 0.512666 9.78957 0.645151 9.73652 0.63939L9.6709 0.550107C9.57177 0.509786 9.57038 0.609149 9.43775 0.63075C9.40625 0.619834 9.38001 0.596877 9.36443 0.566606C9.34884 0.536334 9.3451 0.501053 9.35398 0.468024C9.3093 0.564508 9.33583 0.528506 9.26603 0.583228C9.24927 0.550107 9.25625 0.540027 9.26603 0.505465C9.19203 0.473784 9.22833 0.544347 9.17667 0.550107C9.17667 0.62067 9.17667 0.731554 9.15294 0.738754L9.17667 0.757475C9.15421 0.780947 9.12588 0.797543 9.09483 0.805423C9.06378 0.813303 9.03122 0.812158 9.00076 0.802116V0.767555L8.93515 0.793476L8.92398 0.750274L8.83044 0.777635L8.8444 0.787716C8.80058 0.807707 8.7521 0.814208 8.70479 0.806436V0.780515C8.57495 0.721473 8.48839 0.836677 8.34878 0.862598L8.36134 0.810757C8.30689 0.766115 8.36134 0.888519 8.29712 0.871239L8.28735 0.810757C8.24686 0.89716 8.22033 0.800676 8.18124 0.774755L8.20777 0.853958L8.14076 0.843878C8.06537 0.826597 8.08351 0.748834 8.0891 0.699873L8.04861 0.770435L8.03046 0.699873C8.00394 0.787716 7.99277 0.691232 7.93553 0.743074C7.92715 0.717153 7.93553 0.699873 7.91877 0.691232L7.81825 0.807876L7.87549 0.756035V0.861158C7.81965 0.947561 7.78614 0.861158 7.74426 0.89572L7.77218 0.859718C7.69958 0.894279 7.68981 0.851078 7.64513 0.833797C7.66049 0.851078 7.68423 0.876999 7.65491 0.89428C7.62559 0.91156 7.63815 0.859718 7.61582 0.851078C7.61582 0.9202 7.56835 0.964842 7.5153 0.937481C7.51452 0.928378 7.51452 0.919223 7.5153 0.91012C7.50413 0.923081 7.49994 0.941801 7.4762 0.927401V0.849638L7.4427 0.927401C7.41198 0.90868 7.37708 0.969162 7.37568 0.91588L7.38964 0.8986H7.17464L7.16627 0.836677C7.1537 0.924521 7.0462 0.816517 7.06435 0.921641C7.01828 0.868359 6.90938 0.979243 6.92474 0.858278C6.78513 0.858278 6.71951 0.987883 6.5436 0.943241C6.47519 0.846758 6.31184 0.894279 6.20155 0.892839C5.99213 0.951882 5.85671 1.00516 5.6431 1.05125C5.50349 0.91732 5.31781 1.12181 5.17122 1.05125L5.13631 1.11029C5.03719 1.02676 4.89897 1.14485 4.76215 1.06277C4.74584 1.07787 4.7275 1.09048 4.70771 1.10021C4.70771 1.10021 4.72306 1.11317 4.72865 1.14773C4.68956 1.12469 4.61417 1.16069 4.61696 1.08869L4.62533 1.08005C4.62533 1.00804 4.51225 1.11893 4.46757 1.05989L4.4941 1.13477L4.4215 1.12613L4.44105 1.11029C4.13669 1.29605 3.98731 1.05557 3.70111 1.21973C3.7374 1.13477 3.64386 1.26581 3.63828 1.17365C3.56149 1.06133 3.49867 1.20245 3.44282 1.23557C3.44379 1.24129 3.44379 1.24714 3.44282 1.25285L3.33672 1.24421C3.39815 1.12757 3.26272 1.34214 3.31857 1.24421C3.03935 1.16213 2.68473 1.25429 2.36502 1.21541L2.37898 1.24565C2.29801 1.23845 2.19749 1.27445 2.13606 1.22549C2.07463 1.17653 1.99645 1.30037 1.9783 1.30469C1.90989 1.3551 1.84986 1.25285 1.87917 1.25861C1.80658 1.27301 1.73956 1.37814 1.63765 1.33206C1.60553 1.23413 1.35842 1.42134 1.35842 1.31045V1.32053C1.23975 1.24133 1.11689 1.37094 0.977282 1.29605L0.984263 1.28165L0.698059 1.60855L0.766469 1.98008L1.00381 2.28681C1.22858 2.27097 1.45336 2.25801 1.67813 2.23785L2.21285 2.36025C2.64843 2.34873 3.08402 2.33001 3.51961 2.30697L3.61036 2.22057C3.87143 2.36457 4.19533 2.18313 4.47455 2.27241V2.20041C4.55134 2.19177 4.54855 2.23641 4.56809 2.24793C5.29268 2.20185 6.02843 2.04776 6.68461 2.08088C6.75162 2.12408 6.9401 2.08088 6.99315 2.11976C7.19335 2.02513 7.41095 1.97602 7.63117 1.97576V1.9844L7.7289 1.95848C7.73062 1.96154 7.73152 1.96502 7.73152 1.96856C7.73152 1.9721 7.73062 1.97557 7.7289 1.97864C7.83361 1.90232 8.0165 1.94264 8.15751 1.95128V1.95992C8.94911 1.87207 9.66811 1.62871 10.4709 1.59126C10.8576 1.64167 11.2541 1.4055 11.6897 1.41414C11.779 1.47318 12.6139 1.23557 12.6809 1.18517Z" fill="#DB8670"/>
<path d="M13.8956 0.796356C13.8984 0.826597 13.9012 0.813637 13.8956 0.796356V0.796356Z" fill="#DB8670"/>
<path d="M11.9982 0.393124H12.0038L11.9759 0.355682L11.9982 0.393124Z" fill="#DB8670"/>
<path d="M13.0872 0.119537C13.0355 0.119537 13.0355 0.131058 13.0439 0.141138C13.0605 0.13999 13.076 0.132246 13.0872 0.119537V0.119537Z" fill="#DB8670"/>
<path d="M14.2865 0.635056C14.313 0.635056 14.299 0.614895 14.2781 0.600494L14.2348 0.616335C14.2516 0.620655 14.2697 0.632175 14.2865 0.635056Z" fill="#DB8670"/>
<path d="M14.0826 0.264965V0.239044C14.0715 0.249125 14.0742 0.257765 14.0826 0.264965Z" fill="#DB8670"/>
<path d="M1.30536 18.8733V18.882L1.34026 18.9007L1.30536 18.8733Z" fill="#DB8670"/>
<path d="M1.21326 20.3249C1.21269 20.3284 1.21269 20.3321 1.21326 20.3356C1.21764 20.3341 1.22639 20.3356 1.21326 20.3249Z" fill="#DB8670"/>
<path d="M1.18673 15.5267C1.1877 15.5221 1.18757 15.5173 1.18635 15.5128C1.18514 15.5083 1.18287 15.5041 1.17975 15.5007C1.18307 15.5091 1.18542 15.5178 1.18673 15.5267V15.5267Z" fill="#DB8670"/>
<path d="M1.17133 7.18155L1.1811 7.16571L1.17133 7.18155Z" fill="#DB8670"/>
<path d="M1.19507 7.21033C1.1839 7.24201 1.17412 7.20169 1.17133 7.18729C1.15445 7.22 1.15045 7.25817 1.16016 7.29385C1.1811 7.29385 1.17831 7.22617 1.19507 7.21033Z" fill="#DB8670"/>
<path d="M1.12805 2.35159L1.13782 2.36743C1.13573 2.36148 1.1324 2.35607 1.12805 2.35159V2.35159Z" fill="#DB8670"/>
<path d="M0.128437 15.6649C0.129232 15.6577 0.129232 15.6505 0.128437 15.6433C0.126459 15.6503 0.126459 15.6578 0.128437 15.6649V15.6649Z" fill="#DB8670"/>
<path d="M1.10431 3.11482L1.13782 3.12299C1.1281 3.11626 1.11613 3.11334 1.10431 3.11482V3.11482Z" fill="#DB8670"/>
<path d="M1.34027 18.9007L1.35423 18.9102L1.34027 18.9007Z" fill="#DB8670"/>
<path d="M0.617065 28.4295H0.631026L0.605896 28.4022C0.607357 28.4121 0.611196 28.4215 0.617065 28.4295V28.4295Z" fill="#DB8670"/>
<path d="M1.03036 23.5074H1.04293C1.05604 23.4343 1.06026 23.3598 1.05549 23.2856H1.01361L1.03036 23.5074Z" fill="#DB8670"/>
<path d="M0.0446794 25.5177L0.129842 25.3219C0.166141 25.9512 0.0809784 26.2449 0.146596 26.7835L0.128446 26.7547C0.108901 26.8325 0.298773 26.8771 0.0628289 27.744H0.0544522C0.0544522 27.7743 0.0726017 27.7728 0.0544522 27.8333L0.107505 27.6893C0.139733 27.7825 0.161743 27.8791 0.173122 27.9773C0.170276 27.9868 0.16501 27.9952 0.157883 28.0018C0.150755 28.0084 0.14203 28.0129 0.132635 28.0148L0.146596 28.3028L0.0907512 28.3921C0.12007 28.4813 0.230363 28.441 0.17033 28.6801C0.251305 28.5894 0.217798 28.7996 0.258285 28.7694C0.248512 28.7809 0.234551 28.8097 0.22059 28.8313C0.222023 28.9933 0.246002 29.1543 0.291792 29.3094C0.362838 29.0685 0.448162 28.8324 0.547281 28.6023C0.524943 28.8025 0.557054 28.6542 0.58358 28.6153L0.55845 28.6038C0.577996 28.4828 0.629652 28.4828 0.643613 28.4223H0.629652C0.621275 28.4223 0.615691 28.4223 0.610106 28.4223C0.604522 28.4223 0.590561 28.4223 0.594749 28.3863C0.588962 28.3279 0.588962 28.269 0.594749 28.2106H0.636633C0.557054 28.1213 0.760887 27.6116 0.763679 27.4906C0.818128 27.3696 0.75251 27.2199 0.779036 27.0701C0.792998 26.831 0.840466 26.9506 0.878161 26.831C0.904687 26.687 0.827901 26.8613 0.826504 26.8008L0.901895 26.641C0.901895 26.7461 0.932609 26.6885 0.947967 26.6698C0.956343 26.5142 1.03453 26.2694 0.947967 26.2205C0.988454 26.0117 1.02196 26.0117 1.02755 25.9209C1.01219 25.9512 0.996831 26.0102 0.980077 26.0117C1.01777 25.9267 0.971701 25.9713 0.963324 26.0117C0.927025 25.8835 1.11829 25.3464 1.02615 25.319H1.0429C0.974493 25.2888 0.903291 25.3363 0.869784 25.247L0.900499 25.1879L0.87118 25.0972C0.894914 25.0367 0.913064 25.067 0.92144 25.067C0.906517 24.8908 0.912141 24.7133 0.938194 24.5385L0.749718 24.7257C0.794394 24.5817 0.88933 24.3066 0.822316 24.2764L0.886537 24.1857C1.0066 23.8861 0.834881 23.9769 0.87118 23.8573L0.940986 23.7061V23.8501C0.967256 23.7381 1.00179 23.6284 1.0443 23.5218V23.5218C1.04254 23.5279 1.03853 23.5331 1.03313 23.5362V23.5146C0.999623 23.4959 0.975889 23.4181 0.978681 23.313C0.960882 23.1428 0.972223 22.9708 1.01219 22.8047L0.942382 22.7456L0.984266 22.5656H1.04011C1.04011 22.7413 1.05686 23.074 1.05826 23.3H1.08479C1.08479 23.1661 1.06105 23.012 1.06664 22.9242C1.07781 22.881 1.13644 22.7701 1.17414 22.8507L1.1169 22.7643C1.10106 22.4568 1.12028 22.1485 1.17414 21.8456L1.14621 21.8859C1.12946 21.7923 1.1141 21.7001 1.16018 21.6742C1.16141 21.418 1.20097 21.1634 1.27745 20.9196L1.21183 20.8808C1.21183 20.8217 1.31515 20.7367 1.223 20.7036L1.19508 20.5769C1.19508 20.4963 1.16297 20.4459 1.19508 20.3537L1.20346 20.3364C1.23277 20.1535 1.14482 20.3364 1.18251 20.1276C1.22998 20.0614 1.10014 20.0527 1.1155 19.9505L1.21044 19.8482C1.26488 19.6625 1.16995 19.6308 1.17135 19.3615C1.20485 19.2319 1.28583 19.17 1.35703 19.2564C1.27047 19.1383 1.30118 19.2031 1.2593 19.0461C1.2956 19.0231 1.30258 19.0389 1.33469 19.0735C1.37657 18.9295 1.30258 18.9885 1.30537 18.8834C1.23836 18.8532 1.13225 18.8172 1.12807 18.784L1.10712 18.8244C1.06591 18.709 1.05958 18.5835 1.08897 18.4643H1.12248L1.10573 18.3203L1.14901 18.3117L1.13644 18.1159L1.12527 18.1432C1.11091 18.0478 1.11091 17.9506 1.12527 17.8552H1.14901C1.2244 17.6118 1.12807 17.4117 1.12108 17.1265L1.16995 17.164C1.21881 17.0675 1.09456 17.1366 1.11829 17.02H1.17833C1.10014 16.9177 1.19648 16.8889 1.22579 16.8184L1.14761 16.8515L1.16436 16.719C1.19089 16.575 1.26488 16.6297 1.30398 16.6513L1.24674 16.5606L1.31654 16.5419C1.23557 16.4699 1.32911 16.4699 1.28583 16.3431C1.31235 16.3316 1.32771 16.3647 1.33888 16.3215L1.24255 16.1113L1.28443 16.238L1.18391 16.2222C1.10712 16.0911 1.19508 16.0451 1.16716 15.95L1.19648 16.0148C1.17274 15.8622 1.21602 15.8535 1.23836 15.7671C1.22021 15.7945 1.19229 15.8348 1.17833 15.7671C1.16436 15.6994 1.21462 15.7426 1.22579 15.6994C1.15878 15.6894 1.12248 15.5799 1.15459 15.4806C1.16372 15.4801 1.1727 15.4832 1.17972 15.4892C1.16995 15.4647 1.1518 15.4518 1.16855 15.4071L1.24394 15.433L1.17274 15.3481C1.19229 15.2919 1.13923 15.2041 1.18949 15.2156L1.20485 15.2487L1.2244 14.8167H1.28443C1.20206 14.7735 1.31654 14.5834 1.21323 14.5964C1.26907 14.5157 1.17414 14.2767 1.29141 14.3256C1.30118 14.0376 1.18949 13.8936 1.24674 13.5466C1.34586 13.4242 1.31515 13.0886 1.32631 12.8683C1.28722 12.4363 1.25092 12.1584 1.22161 11.7163C1.36122 11.4513 1.17553 11.0553 1.25511 10.7701L1.20066 10.6924C1.28862 10.5023 1.18251 10.2128 1.26907 9.94788C1.25395 9.91082 1.24272 9.8722 1.23557 9.83267C1.23557 9.84419 1.223 9.86292 1.1881 9.86868C1.21183 9.79235 1.1881 9.63971 1.25232 9.65123V9.66995C1.32073 9.68147 1.22021 9.43954 1.28024 9.35458L1.20625 9.40066L1.21881 9.25665L1.23277 9.29554C1.07082 8.67055 1.30816 8.38974 1.15878 7.8022C1.23975 7.87996 1.1169 7.687 1.20485 7.6798C1.31794 7.53579 1.18251 7.40475 1.1532 7.28378C1.14998 7.28359 1.14684 7.28272 1.14396 7.28124C1.14108 7.27975 1.13852 7.27768 1.13644 7.27514L1.14761 7.06345C1.2593 7.19018 1.05547 6.91081 1.14761 7.02745C1.23417 6.47447 1.14761 5.75301 1.19229 5.11362L1.16297 5.14098C1.16297 4.97826 1.13505 4.77665 1.18112 4.65425C1.22719 4.53184 1.1169 4.39504 1.1169 4.34608C1.06803 4.21215 1.16716 4.08975 1.16157 4.14735C1.14901 4.00334 1.04709 3.86654 1.09177 3.66637C1.1867 3.59869 0.999623 3.12059 1.10712 3.11483H1.09875C1.17414 2.8585 1.04709 2.61657 1.1169 2.34008L1.13086 2.35448L0.805563 1.78854L0.446761 1.94695L0.153576 2.43369L0.212213 3.75421L0.0949396 4.80833L0.124258 7.37306L0.203837 7.55595C0.064225 8.05997 0.22059 8.70799 0.118674 9.24945L0.188479 9.26097C0.188479 9.41362 0.147992 9.40498 0.136823 9.44098C0.146596 10.8652 0.233155 12.3312 0.136823 13.6171C0.0907512 13.741 0.115881 14.1168 0.0670172 14.2133C0.137334 14.6316 0.161687 15.0567 0.139615 15.4806V15.4647L0.15218 15.662C0.151003 15.6635 0.149514 15.6647 0.147823 15.6656C0.146132 15.6664 0.144281 15.6668 0.142408 15.6668C0.140534 15.6668 0.138683 15.6664 0.136992 15.6656C0.135301 15.6647 0.133813 15.6635 0.132635 15.662C0.192668 15.8838 0.132635 16.238 0.104712 16.503V16.4872C0.0865629 18.0712 0.210817 19.5372 0.104712 21.104C-0.0111653 21.8326 0.142408 22.688 0.0446794 23.5189C-0.0335031 23.6745 0.0125687 25.368 0.0446794 25.5177Z" fill="#DB8670"/>
<path d="M0.128453 28.0086V28.0018C0.0991346 28.0018 0.110304 28.0113 0.128453 28.0086Z" fill="#DB8670"/>
<path d="M0.942406 24.5155C0.941724 24.5193 0.941724 24.5232 0.942406 24.527L0.977309 24.4809L0.942406 24.5155Z" fill="#DB8670"/>
<path d="M0.957772 26.7547C0.967545 26.6539 0.957772 26.6496 0.948 26.664C0.945647 26.6946 0.948963 26.7254 0.957772 26.7547V26.7547Z" fill="#DB8670"/>
<path d="M0.181519 28.8313C0.181519 28.8831 0.196876 28.8629 0.216421 28.8313C0.216421 28.7765 0.216421 28.7391 0.216421 28.7391C0.203856 28.7708 0.188499 28.801 0.181519 28.8313Z" fill="#DB8670"/>
<path d="M0.579407 28.6167L0.603141 28.6326C0.597556 28.6023 0.58918 28.6038 0.579407 28.6167Z" fill="#DB8670"/>
<path d="M9.25763 29.259C9.26114 29.2467 9.26534 29.2347 9.27019 29.223L9.25763 29.259Z" fill="#DB8670"/>
<path d="M9.9892 29.4267C9.99306 29.4229 9.99435 29.4152 9.9892 29.4267V29.4267Z" fill="#DB8670"/>
<path d="M7.53905 29.2099C7.5372 29.2087 7.53501 29.208 7.53277 29.208C7.53053 29.208 7.52834 29.2087 7.52649 29.2099C7.53061 29.2089 7.53493 29.2089 7.53905 29.2099V29.2099Z" fill="#DB8670"/>
<path d="M3.28818 28.8016L3.28088 28.7924L3.28818 28.8016Z" fill="#DB8670"/>
<path d="M3.30461 28.7809C3.31997 28.7938 3.29763 28.801 3.29065 28.8025C3.2959 28.8116 3.30412 28.8185 3.31384 28.8219C3.32356 28.8253 3.33414 28.8251 3.3437 28.8212C3.35068 28.801 3.31159 28.801 3.30461 28.7809Z" fill="#DB8670"/>
<path d="M0.822327 28.6029L0.831084 28.5937L0.822327 28.6029Z" fill="#DB8670"/>
<path d="M7.50415 30.303H7.49298C7.49468 30.304 7.4966 30.3045 7.49857 30.3045C7.50053 30.3045 7.50245 30.304 7.50415 30.303V30.303Z" fill="#DB8670"/>
<path d="M1.20905 28.6657L1.21603 28.6311C1.21223 28.6423 1.20988 28.6539 1.20905 28.6657V28.6657Z" fill="#DB8670"/>
<path d="M9.27586 29.223V29.21C9.27556 29.2143 9.27556 29.2187 9.27586 29.223V29.223Z" fill="#DB8670"/>
<path d="M10.6691 29.5211C10.6683 29.5302 10.6683 29.5393 10.6691 29.5484V29.5211Z" fill="#DB8670"/>
<path d="M14.0575 30.4485V30.4341L14.0408 30.4585C14.0441 30.4581 14.0473 30.457 14.0501 30.4552C14.053 30.4535 14.0555 30.4512 14.0575 30.4485V30.4485Z" fill="#DB8670"/>
<path d="M11.5878 29.7745C11.5878 29.7745 11.5878 29.7745 11.5878 29.763C11.5533 29.7464 11.5156 29.738 11.4775 29.7385L11.4691 29.7803L11.5878 29.7745Z" fill="#DB8670"/>
<path d="M13.6966 30.9982C13.6973 30.9988 13.698 30.9994 13.6987 31L13.6966 30.9982Z" fill="#DB8670"/>
<path d="M13.7936 30.928C13.788 30.9611 13.7936 30.9482 13.7936 30.928V30.928Z" fill="#DB8670"/>
<path d="M12.096 29.9171L12.0792 29.8724L12.096 29.9171Z" fill="#DB8670"/>
<path d="M13.2394 30.0132C13.1891 29.9996 13.1863 30.0132 13.1919 30.0132C13.2072 30.0189 13.2241 30.0189 13.2394 30.0132V30.0132Z" fill="#DB8670"/>
<path d="M14.2181 30.9165C14.2446 30.9165 14.2362 30.9021 14.2181 30.8805H14.172C14.1901 30.8891 14.2027 30.9064 14.2181 30.9165Z" fill="#DB8670"/>
<path d="M14.1496 30.496L14.1608 30.4729C14.1441 30.4773 14.1441 30.4859 14.1496 30.496Z" fill="#DB8670"/>
<path d="M11.867 15.6836L11.8963 15.6635L11.867 15.6836Z" fill="#DB8670"/>
<path d="M11.8796 15.8226C11.8834 15.8188 11.8873 15.8124 11.8796 15.8226V15.8226Z" fill="#DB8670"/>
<path d="M12.1727 14.7461C12.171 14.7423 12.1701 14.7381 12.1701 14.7339C12.1701 14.7297 12.171 14.7255 12.1727 14.7217C12.1644 14.7044 12.1588 14.7029 12.156 14.713C12.1532 14.7231 12.1685 14.7303 12.1727 14.7461Z" fill="#DB8670"/>
<path d="M12.8261 14.6597L12.8192 14.6943C12.8219 14.6885 12.8247 14.6698 12.8261 14.6597Z" fill="#DB8670"/>
<path d="M11.8949 15.663L11.9061 15.6548L11.8949 15.663Z" fill="#DB8670"/>
<path d="M11.9787 15.9039L11.9703 15.9284L11.9787 15.9039Z" fill="#DB8670"/>
<path d="M13.0355 16.1675L13.0258 16.1574L13.0383 16.179C13.0388 16.177 13.0388 16.1749 13.0383 16.1729C13.0378 16.1709 13.0369 16.169 13.0355 16.1675Z" fill="#DB8670"/>
<path d="M12.163 16.0969V16.0854C12.163 16.0724 12.149 16.0695 12.1351 16.0695V16.1128L12.163 16.0969Z" fill="#DB8670"/>
<path d="M12.6907 17.043L12.6153 16.971C12.7717 16.8904 12.882 16.9364 12.9923 16.804V16.8241C13.0062 16.8241 12.9923 16.7867 13.0188 16.7521C13.0453 16.7176 13.0984 16.7046 13.2715 16.7147V16.7219C13.2715 16.7147 13.2715 16.7003 13.2966 16.7075L13.2282 16.6931C13.2366 16.6585 13.2282 16.6124 13.2533 16.5851C13.2664 16.59 13.278 16.5985 13.2868 16.6095C13.3064 16.5879 13.3231 16.562 13.3413 16.5375L13.4027 16.5606C13.4027 16.5188 13.3092 16.4468 13.4027 16.4396C13.3259 16.4051 13.3888 16.3806 13.3511 16.3604L13.3916 16.3719C13.4097 16.3316 13.4376 16.2553 13.4139 16.2179C13.3731 16.2225 13.3321 16.2249 13.291 16.2251C13.2288 16.2261 13.1669 16.2158 13.1081 16.1948C13.1542 16.1775 13.1081 16.1804 13.083 16.1675L13.0956 16.1833C13.0635 16.1833 13.0272 16.1531 13.009 16.1516L13.0202 16.1603C13.0259 16.1644 13.0307 16.1698 13.0341 16.1761C13.0341 16.1761 13.0467 16.1905 13.0341 16.1934C13.0341 16.2063 13.0146 16.2135 13.0062 16.2164L12.9769 16.1847C12.9992 16.2222 12.956 16.2207 12.9071 16.2049C12.872 16.1897 12.8355 16.1782 12.7982 16.1703C12.7521 16.1372 12.7661 16.2063 12.7312 16.1977C12.6963 16.1891 12.6837 16.1531 12.6502 16.13C12.6167 16.107 12.6781 16.1732 12.6712 16.179L12.6181 16.1372C12.6307 16.1257 12.6181 16.107 12.6013 16.0926C12.5846 16.0782 12.5176 16.0364 12.5441 16.1199C12.5008 16.0911 12.4897 16.058 12.4771 16.058C12.4872 16.0705 12.4961 16.084 12.5036 16.0983C12.4813 16.0666 12.5036 16.1099 12.5036 16.1156C12.5036 16.1214 12.4659 16.1156 12.438 16.0839C12.4101 16.0522 12.3863 16.0364 12.3947 16.0839V16.0666C12.41 16.1197 12.4203 16.1742 12.4254 16.2294L12.4087 16.2006V16.2337C12.3997 16.2191 12.3948 16.2021 12.3947 16.1847C12.378 16.2236 12.3403 16.1847 12.3137 16.1847C12.3291 16.2467 12.3473 16.31 12.3668 16.3719C12.3333 16.3316 12.283 16.2481 12.2816 16.3086L12.2635 16.2438C12.2132 16.1214 12.2314 16.2985 12.2118 16.2625C12.1923 16.2265 12.1965 16.2164 12.1895 16.1919C12.1969 16.1927 12.2044 16.1927 12.2118 16.1919C12.191 16.1594 12.1759 16.1233 12.1672 16.0854C12.1679 16.0887 12.1679 16.0921 12.1672 16.0954V16.0954C12.1672 16.13 12.1504 16.1531 12.135 16.1502C12.1197 16.1473 12.0904 16.1891 12.068 16.1084L12.0485 16.1775L12.0303 16.1315L12.0415 16.0753C12.0744 16.0801 12.1078 16.0801 12.1406 16.0753V16.0494C12.1239 16.0494 12.1015 16.071 12.0904 16.0638C12.084 16.0267 12.0869 15.9885 12.0987 15.9529L12.0792 16.0062C12.0261 16.0062 12.0234 16.0062 11.9926 15.927V15.9558C11.9773 15.9687 11.9619 15.9788 11.9759 15.9342C11.9508 15.9154 11.9382 15.8694 11.9619 15.7902L11.927 15.8478C11.927 15.8478 11.9689 15.7498 11.9186 15.8305L11.8935 15.8492C11.8935 15.8406 11.8656 15.8694 11.881 15.8319C11.881 15.7988 11.8461 15.8809 11.853 15.8319C11.86 15.783 11.7944 15.8967 11.7958 15.8751L11.8516 15.7945C11.8782 15.7426 11.8111 15.8132 11.7916 15.7945C11.8304 15.7415 11.8776 15.6958 11.9312 15.6591C11.8614 15.7124 11.8865 15.6951 11.8488 15.7138C11.8754 15.6894 11.8823 15.6865 11.9075 15.6663C11.9326 15.6462 11.8796 15.6836 11.8768 15.6764C11.8223 15.7167 11.7372 15.7801 11.7274 15.7801L11.7134 15.7959C11.6771 15.8089 11.6562 15.8031 11.6771 15.7714L11.705 15.7542H11.6827L11.7204 15.7311L11.6981 15.721L11.6883 15.7297C11.6883 15.7297 11.6618 15.7182 11.6785 15.6994L11.6995 15.6894C11.7288 15.6606 11.719 15.6548 11.6995 15.6505C11.6799 15.6462 11.6534 15.639 11.6436 15.6246L11.6911 15.613C11.7344 15.5886 11.6185 15.6332 11.638 15.613L11.6953 15.5958C11.6157 15.6073 11.7064 15.577 11.7344 15.5626L11.659 15.5857L11.6729 15.567C11.7167 15.5451 11.7641 15.5319 11.8125 15.5281H11.7497L11.8181 15.5122C11.7372 15.5209 11.8293 15.5036 11.7832 15.5007C11.8008 15.4988 11.8181 15.4949 11.8349 15.4892C11.8014 15.4892 11.7693 15.4892 11.7358 15.4892L11.7804 15.4964L11.6799 15.5093C11.6017 15.5093 11.6897 15.4877 11.6604 15.4805H11.6911C11.6646 15.4647 11.7078 15.4604 11.7288 15.4489C11.7091 15.4544 11.6884 15.4544 11.6687 15.4489C11.6687 15.4489 11.7036 15.4489 11.7148 15.4388C11.6464 15.4388 11.6115 15.4287 11.6436 15.4157H11.6673C11.6576 15.4157 11.6394 15.4157 11.6562 15.4057H11.7316L11.659 15.397C11.6799 15.3898 11.6255 15.3797 11.6757 15.3812H11.6911C11.6966 15.3642 11.7036 15.3479 11.712 15.3322H11.7721C11.6897 15.3193 11.8056 15.3106 11.7023 15.3005C11.7581 15.3005 11.6673 15.2573 11.7818 15.2818C11.7986 15.2573 11.6883 15.2113 11.7567 15.1897C11.8544 15.2069 11.8321 15.1666 11.8516 15.1522C11.8395 15.1276 11.8293 15.1021 11.8209 15.0759C11.812 15.051 11.8073 15.0247 11.807 14.9981C11.8712 15.0284 11.8684 15.0097 11.8628 14.9852C11.8572 14.9607 11.8502 14.929 11.8865 14.9477L11.8516 14.9016C11.9256 14.9578 11.874 14.8527 11.9438 14.9103C11.9392 14.8996 11.9354 14.8885 11.9326 14.8772C11.9218 14.8651 11.912 14.8521 11.9033 14.8383C11.9228 14.8556 11.9173 14.821 11.9536 14.8815C11.9899 14.9434 11.9536 14.8412 11.9898 14.8916L11.9494 14.8268H11.9689V14.8412C11.9591 14.749 11.9968 14.7548 12.0261 14.7634C12.0555 14.772 12.0834 14.785 12.1015 14.7015C12.1127 14.785 12.1015 14.6554 12.1281 14.7432C12.1546 14.8311 12.156 14.713 12.1672 14.6784C12.1663 14.6727 12.1663 14.6669 12.1672 14.6612H12.1979C12.1979 14.7778 12.1979 14.5632 12.1979 14.6612C12.2802 14.736 12.3794 14.6439 12.4771 14.6885V14.6583C12.5022 14.6583 12.5371 14.6309 12.5539 14.6799C12.5706 14.7288 12.6041 14.6093 12.6139 14.605C12.6418 14.556 12.653 14.6597 12.6432 14.654C12.6684 14.6424 12.7047 14.5402 12.734 14.5892C12.734 14.6885 12.8443 14.5085 12.8303 14.618V14.6093C12.8638 14.6928 12.928 14.5704 12.9699 14.6496V14.664L13.1235 14.4005L13.1598 14.0319C13.1458 13.9267 13.1319 13.823 13.1151 13.7179C13.0216 13.7179 12.9252 13.7294 12.8275 13.7381C12.7563 13.6891 12.6809 13.6416 12.6 13.5941C12.3814 13.5907 12.1634 13.6154 11.9508 13.6675L11.9186 13.7597C11.8825 13.738 11.8411 13.7274 11.7992 13.7291C11.7574 13.7309 11.717 13.745 11.6827 13.7698C11.612 13.8203 11.5285 13.8483 11.4426 13.8504L11.4719 13.9152C11.4356 13.9397 11.4174 13.8994 11.4007 13.8951C11.2176 14.0198 11.0644 14.1857 10.9525 14.3803C10.8436 14.5618 10.7655 14.7404 10.6733 14.9074C10.6161 14.929 10.6217 15.0442 10.5686 15.0629C10.615 15.1846 10.6299 15.3166 10.6119 15.446V15.446L10.6258 15.5021C10.6195 15.5042 10.6127 15.5042 10.6063 15.5021C10.6747 15.5641 10.6175 15.6678 10.6063 15.7556H10.5979C10.6422 15.9962 10.7494 16.2198 10.9079 16.4022C11.0679 16.5827 11.2446 16.7467 11.4356 16.8918C11.4754 16.9389 11.524 16.9772 11.5784 17.0047C11.6328 17.0321 11.692 17.0481 11.7525 17.0516C11.8759 17.0595 11.9976 17.0852 12.1141 17.128C12.1336 17.1668 12.2747 17.1755 12.4101 17.151C12.51 17.1358 12.6056 17.099 12.6907 17.043V17.043Z" fill="#DB8670"/>
<path d="M13.2938 16.6096C13.312 16.6327 13.3078 16.6232 13.2938 16.6096V16.6096Z" fill="#DB8670"/>
<path d="M12.3082 16.1804L12.311 16.1819L12.2998 16.1401L12.3082 16.1804Z" fill="#DB8670"/>
<path d="M12.6139 16.0638C12.5972 16.0638 12.5986 16.0638 12.6056 16.0782C12.6125 16.0926 12.6153 16.0739 12.6139 16.0638Z" fill="#DB8670"/>
<path d="M13.4237 16.3921C13.4348 16.3806 13.4237 16.3734 13.3971 16.3691L13.3846 16.3936C13.3976 16.3924 13.4106 16.3919 13.4237 16.3921V16.3921Z" fill="#DB8670"/>
<path d="M13.0886 16.1646L13.0732 16.1459C13.0732 16.1545 13.0802 16.1603 13.0886 16.1646Z" fill="#DB8670"/>
<path d="M19.1505 1.02027C19.1518 1.01641 19.1518 1.00871 19.1505 1.02027V1.02027Z" fill="#DB8670"/>
<path d="M16.3178 1.11382C16.3183 1.11026 16.3183 1.10665 16.3178 1.10309V1.11382Z" fill="#DB8670"/>
<path d="M16.3248 1.08868C16.3276 1.09208 16.3292 1.09643 16.3292 1.10092C16.3292 1.10542 16.3276 1.10976 16.3248 1.11316C16.3331 1.13189 16.3401 1.13333 16.3485 1.12469C16.3569 1.11605 16.3345 1.10596 16.3248 1.08868Z" fill="#DB8670"/>
<path d="M15.4425 1.19811V1.16211C15.4419 1.1741 15.4419 1.18612 15.4425 1.19811V1.19811Z" fill="#DB8670"/>
<path d="M19.4395 1.04404C19.4387 1.05314 19.4387 1.0623 19.4395 1.0714V1.0714V1.04404Z" fill="#DB8670"/>
<path d="M20.8971 1.60565C20.8971 1.60565 20.8971 1.59557 20.8971 1.59125V1.61573C20.898 1.61243 20.898 1.60894 20.8971 1.60565V1.60565Z" fill="#DB8670"/>
<path d="M19.836 1.19668C19.836 1.19668 19.836 1.18948 19.836 1.18516C19.836 1.18084 19.8109 1.17076 19.7886 1.1722V1.2154L19.836 1.19668Z" fill="#DB8670"/>
<path d="M20.2702 2.20616L20.2269 2.11975C20.3666 2.07943 20.4266 2.16727 20.5425 2.09671V2.11543C20.5606 2.13559 20.569 1.93975 20.7561 2.17879V2.18743C20.7561 2.18743 20.7561 2.16871 20.7756 2.18743L20.7435 2.13415C20.7631 2.11255 20.7798 2.07079 20.8049 2.06503C20.8108 2.0781 20.8137 2.09239 20.8133 2.10679L20.8761 2.09095L20.8957 2.14855C20.9152 2.11687 20.9069 2.00455 20.9585 2.06503C20.939 1.98295 20.9836 2.01607 20.9781 1.97287C20.9816 1.98652 20.9858 1.99998 20.9906 2.01319C21.0213 2.00311 21.08 1.98007 21.0939 1.93831C21.0362 1.85701 20.9853 1.77078 20.9418 1.68054C20.985 1.70358 20.9529 1.67046 20.9418 1.6431V1.66326C20.9152 1.6431 20.9152 1.59125 20.9027 1.57685V1.58405C20.9041 1.59118 20.9041 1.59853 20.9027 1.60565C20.9027 1.61573 20.9027 1.62437 20.8943 1.62149C20.8831 1.63013 20.865 1.62149 20.8566 1.62149V1.57829C20.837 1.66182 20.7268 1.45301 20.7016 1.45013C20.6751 1.39541 20.643 1.46309 20.6109 1.43573C20.5788 1.40837 20.5857 1.37237 20.5592 1.33492C20.5327 1.29748 20.5662 1.38533 20.5592 1.38821L20.5215 1.32772C20.5439 1.32772 20.5313 1.29748 20.5215 1.2802C20.488 1.273 20.435 1.19236 20.4252 1.2802C20.3791 1.23844 20.3791 1.20388 20.3596 1.19956C20.3666 1.2154 20.3791 1.2298 20.3791 1.24708C20.361 1.2082 20.3707 1.25572 20.3791 1.26436C20.3512 1.3018 20.2395 1.1074 20.2297 1.20244V1.17508C20.2316 1.23502 20.2265 1.29498 20.2144 1.35364L20.2004 1.32196L20.1823 1.3522C20.1738 1.33693 20.1713 1.31891 20.1753 1.3018C20.1432 1.33492 20.0999 1.3018 20.0608 1.28596L20.1013 1.47893C20.0692 1.43429 20.0105 1.34356 20.005 1.40549L19.9854 1.34068C19.9212 1.21684 19.9407 1.39541 19.9142 1.35796L19.8821 1.2874H19.9142C19.8864 1.2555 19.8625 1.22019 19.843 1.18228V1.18228C19.8438 1.18558 19.8438 1.18905 19.843 1.19236V1.19236C19.843 1.22836 19.8221 1.25284 19.7997 1.24996C19.7774 1.24708 19.7411 1.29172 19.6894 1.21684L19.6769 1.28884L19.6378 1.24708V1.18948C19.6769 1.18948 19.7481 1.17076 19.7969 1.16788V1.15204C19.769 1.15204 19.7355 1.17796 19.716 1.1722C19.7065 1.1559 19.7003 1.13784 19.6977 1.11906C19.6951 1.10027 19.696 1.08114 19.7006 1.06275L19.6825 1.11892C19.6475 1.12614 19.6113 1.12483 19.5769 1.11508C19.5425 1.10533 19.5107 1.08741 19.4842 1.06275L19.494 1.09156C19.473 1.10884 19.4535 1.12468 19.4479 1.07859C19.4136 1.07284 19.3811 1.05908 19.3528 1.03836C19.3245 1.01765 19.3012 0.990524 19.2846 0.95907L19.2762 1.02675C19.2636 1.02675 19.2441 0.921629 19.2385 1.01667L19.2106 1.04547C19.1938 1.04547 19.1826 1.08003 19.1631 1.04547C19.124 1.01523 19.1631 1.10596 19.1184 1.06707C19.1045 1.01811 19.1031 1.15348 19.0807 1.13764L19.0584 1.03971C19.0179 0.984991 19.0109 1.08147 18.9537 1.08291C18.9373 1.05432 18.9268 1.02259 18.9227 0.989667C18.9187 0.956742 18.9211 0.923304 18.93 0.891388C18.9048 0.980671 18.9188 0.94899 18.8853 0.992192C18.8789 0.966689 18.8789 0.939931 18.8853 0.914429C18.856 0.871227 18.8671 0.94755 18.8448 0.94611C18.8417 1.00748 18.8347 1.06858 18.8238 1.129L18.8322 1.1506C18.8085 1.18804 18.782 1.20532 18.754 1.17076V1.12036L18.7247 1.13908V1.09444L18.6814 1.1074V1.12036C18.6703 1.12036 18.6382 1.14052 18.62 1.12036V1.093C18.5684 1.01667 18.5251 1.11748 18.4636 1.12468L18.472 1.07427C18.4511 1.02531 18.472 1.15204 18.4413 1.12756V1.06563C18.419 1.14628 18.4134 1.04835 18.398 1.01811L18.405 1.09876L18.3757 1.08147C18.345 1.05411 18.3575 0.979231 18.3617 0.93747L18.3408 1.00227V0.930269C18.3254 1.01379 18.3254 0.917309 18.2975 0.96195C18.2975 0.934589 18.2975 0.918749 18.2975 0.907229L18.2514 1.00803L18.2794 0.963391V1.06851C18.2514 1.14772 18.2417 1.05699 18.2221 1.08579L18.2361 1.05555C18.2026 1.08003 18.2012 1.03539 18.1816 1.01235C18.1816 1.03251 18.197 1.06131 18.1816 1.07427C18.1663 1.08724 18.1816 1.03827 18.1677 1.02675C18.1677 1.09588 18.1411 1.13332 18.1202 1.1002C18.1194 1.09158 18.1194 1.08289 18.1202 1.07427C18.1202 1.08579 18.1118 1.10308 18.1035 1.08724V1.00947L18.0839 1.08291C18.0727 1.06131 18.0546 1.11748 18.056 1.06563V1.04979L17.9638 1.03107V0.967711C17.9541 1.05411 17.9136 0.93603 17.9164 1.04259C17.8982 0.983551 17.848 1.08291 17.8577 0.963391C17.7963 0.95331 17.7642 1.06995 17.6902 1.01091C17.6637 0.908669 17.5911 0.94179 17.5506 0.931709C17.4584 0.973471 17.3984 1.01235 17.3035 1.04547C17.2462 0.901468 17.1639 1.09444 17.0996 1.01379L17.0829 1.06995C17.041 0.980671 16.9796 1.09012 16.9223 1.00227C16.9163 1.0154 16.9077 1.02715 16.8972 1.03683C16.8972 1.03683 16.9042 1.04979 16.9056 1.08579C16.8888 1.06131 16.8553 1.08579 16.8581 1.02099C16.8581 0.94899 16.8079 1.05411 16.7897 0.992192L16.8009 1.06851L16.7688 1.05555L16.7771 1.04115C16.6375 1.21108 16.5817 0.967711 16.456 1.12324C16.4728 1.03971 16.4309 1.16788 16.4295 1.07571C16.3974 0.96051 16.3709 1.10164 16.3443 1.13188C16.3449 1.13762 16.3449 1.14341 16.3443 1.14916L16.2983 1.13764C16.3248 1.02243 16.2648 1.23412 16.2899 1.13764C16.1712 1.05123 16.0107 1.13764 15.8711 1.1002V1.129C15.8362 1.129 15.7929 1.16068 15.7664 1.11172C15.7398 1.06275 15.7077 1.18804 15.6979 1.19236C15.6686 1.2442 15.6421 1.14196 15.6547 1.14772C15.6239 1.16212 15.5946 1.26724 15.5513 1.22116C15.5374 1.12324 15.4341 1.31764 15.4327 1.2082V1.21684C15.3768 1.13908 15.3252 1.27156 15.2651 1.201V1.18516L15.1451 1.52069L15.1786 1.89078L15.2833 2.19031L15.5625 2.12551L15.7901 2.24216L16.3485 2.20328L16.3876 2.11975C16.4965 2.26376 16.6347 2.09815 16.752 2.20184V2.12983C16.7841 2.12983 16.7827 2.17015 16.7911 2.18311C17.0969 2.16727 17.4138 2.07079 17.6888 2.16151C17.7153 2.20904 17.7963 2.18167 17.8172 2.23064C17.8545 2.19575 17.8992 2.17051 17.9478 2.15698C17.9963 2.14346 18.0473 2.14205 18.0965 2.15287V2.16151L18.1397 2.14711C18.1411 2.15376 18.1411 2.16063 18.1397 2.16727C18.1872 2.10391 18.2626 2.16727 18.3212 2.19175V2.2004C18.6619 2.21336 18.9774 2.07943 19.3153 2.18023C19.473 2.29688 19.6559 2.13559 19.836 2.23208C19.8723 2.294 20.2437 2.24072 20.2702 2.20616Z" fill="#DB8670"/>
<path d="M20.0538 1.28453L20.0455 1.24133L20.0538 1.28453Z" fill="#DB8670"/>
<path d="M20.5355 1.25981C20.5145 1.25027 20.5131 1.25981 20.5159 1.26934C20.5178 1.26998 20.5199 1.27024 20.5219 1.27011C20.5239 1.26997 20.5259 1.26945 20.5277 1.26856C20.5295 1.26767 20.5312 1.26644 20.5325 1.26494C20.5338 1.26344 20.5348 1.26169 20.5355 1.25981V1.25981Z" fill="#DB8670"/>
<path d="M20.9837 2.05352C20.9948 2.05352 20.9837 2.03768 20.9837 2.01752H20.9641C20.9711 2.03048 20.9767 2.04632 20.9837 2.05352Z" fill="#DB8670"/>
<path d="M20.9418 1.6431V1.61862C20.9334 1.62438 20.9418 1.63302 20.9418 1.6431Z" fill="#DB8670"/>
<path d="M21.947 18.7394V18.7495L21.9833 18.7668L21.947 18.7394Z" fill="#DB8670"/>
<path d="M21.8604 20.1996V20.2103C21.8648 20.2088 21.8735 20.2103 21.8604 20.1996Z" fill="#DB8670"/>
<path d="M21.8157 15.3754C21.8176 15.3716 21.8185 15.3674 21.8185 15.3632C21.8185 15.3589 21.8176 15.3548 21.8157 15.351C21.8167 15.3591 21.8167 15.3673 21.8157 15.3754V15.3754Z" fill="#DB8670"/>
<path d="M21.7654 6.98425L21.7738 6.96841L21.7654 6.98425Z" fill="#DB8670"/>
<path d="M21.7906 7.0145C21.7794 7.04618 21.7696 7.00586 21.7669 6.99146C21.75 7.02417 21.746 7.06234 21.7557 7.09802C21.7794 7.09802 21.7794 7.03034 21.7906 7.0145Z" fill="#DB8670"/>
<path d="M21.704 2.12982L21.7138 2.14422C21.7114 2.13888 21.7081 2.13401 21.704 2.12982V2.12982Z" fill="#DB8670"/>
<path d="M20.7575 15.5194C20.7581 15.5118 20.7581 15.5041 20.7575 15.4964C20.7553 15.5039 20.7553 15.5119 20.7575 15.5194Z" fill="#DB8670"/>
<path d="M21.6831 2.89594L21.718 2.90411C21.7072 2.89863 21.6953 2.89583 21.6831 2.89594Z" fill="#DB8670"/>
<path d="M21.9833 18.7668L21.9958 18.7777C21.9923 18.7734 21.9881 18.7697 21.9833 18.7668Z" fill="#DB8670"/>
<path d="M21.8395 21.549C21.8303 21.5501 21.8214 21.5524 21.8129 21.5558V21.5558L21.8395 21.549Z" fill="#DB8670"/>
<path d="M21.2978 28.3517H21.3104L21.2866 28.3244C21.2885 28.3342 21.2923 28.3435 21.2978 28.3517Z" fill="#DB8670"/>
<path d="M21.6915 23.4008C21.6915 23.4008 21.6915 23.4008 21.7041 23.4008C21.7164 23.3277 21.7206 23.2533 21.7166 23.1791H21.6733L21.6915 23.4008Z" fill="#DB8670"/>
<path d="M20.7128 25.4256L20.7979 25.2283C20.837 25.8605 20.7519 26.1571 20.8203 26.6986L20.8021 26.6683C20.7826 26.7475 20.9725 26.7922 20.7407 27.6634H20.7323C20.7323 27.6936 20.7505 27.6936 20.7323 27.7541L20.784 27.6101C20.8171 27.7032 20.8401 27.7998 20.8524 27.8981C20.8495 27.9076 20.8443 27.916 20.8371 27.9226C20.83 27.9292 20.8213 27.9337 20.8119 27.9356L20.8259 28.2308L20.7714 28.3215C20.8007 28.4108 20.911 28.3705 20.8524 28.6095C20.932 28.5188 20.8999 28.729 20.9403 28.7002C20.9268 28.7202 20.9142 28.7409 20.9026 28.7622C20.9053 28.9252 20.9297 29.087 20.9752 29.2431C21.0451 29.0004 21.1295 28.7623 21.2279 28.5303C21.207 28.7319 21.2377 28.5836 21.2656 28.5433L21.2447 28.5303C21.2642 28.4093 21.3159 28.4093 21.3299 28.3489H21.3145L21.3215 28.3561C21.3189 28.3587 21.3154 28.3602 21.3117 28.3602C21.3081 28.3602 21.3045 28.3587 21.3019 28.3561C21.2908 28.3561 21.2824 28.3561 21.2852 28.3186C21.2794 28.2602 21.2794 28.2013 21.2852 28.1429H21.3271C21.2475 28.0537 21.4499 27.541 21.4527 27.4229C21.5058 27.3019 21.4388 27.1522 21.4653 27.001C21.4792 26.759 21.5267 26.88 21.563 26.759C21.5895 26.6078 21.5141 26.7893 21.5114 26.7288L21.57 26.5488C21.57 26.6539 21.6007 26.5963 21.6161 26.5776C21.6161 26.4206 21.7012 26.1744 21.6161 26.1254C21.6566 25.9152 21.6901 25.9137 21.6942 25.8245C21.6789 25.8547 21.6649 25.9137 21.6482 25.9152C21.6859 25.8302 21.6398 25.8749 21.6314 25.9152C21.5937 25.7856 21.7836 25.2456 21.6915 25.2182H21.7082C21.6398 25.1894 21.5686 25.2369 21.5351 25.1476L21.5658 25.0871L21.5365 24.9964C21.5588 24.9359 21.577 24.9662 21.5853 24.9662C21.5699 24.7891 21.5751 24.6107 21.6007 24.4348L21.4136 24.6235C21.4555 24.4722 21.5435 24.2015 21.4834 24.1713L21.5463 24.0805C21.6663 23.7781 21.4946 23.8703 21.5309 23.7493L21.5993 23.5981V23.7421C21.6247 23.6291 21.6588 23.5184 21.7012 23.4109C21.7012 23.4196 21.6942 23.4253 21.6901 23.4253V23.4052C21.6552 23.3864 21.6328 23.3072 21.6342 23.2021C21.644 23.0509 21.5937 22.9328 21.6663 22.6909L21.5965 22.6319L21.637 22.4504H21.6928C21.6928 22.6275 21.711 22.9616 21.7152 23.1892H21.7403C21.7403 23.0538 21.7152 22.9011 21.7208 22.8104C21.7319 22.7672 21.7892 22.6563 21.8269 22.737L21.7724 22.6535C21.757 22.3442 21.7753 22.034 21.8269 21.7289L21.799 21.7693C21.7822 21.6757 21.7654 21.5821 21.8115 21.5561C21.8127 21.2987 21.8513 21.0429 21.926 20.7972L21.8604 20.7569C21.8604 20.6979 21.9637 20.6129 21.8716 20.5798L21.8422 20.4516C21.8422 20.3695 21.8101 20.3206 21.8422 20.227L21.8492 20.2097C21.8771 20.0254 21.7892 20.2097 21.8269 20.0009C21.8743 19.9332 21.7445 19.926 21.7585 19.8223L21.8534 19.7186C21.9065 19.5329 21.8129 19.5012 21.8115 19.2305C21.845 19.0994 21.926 19.0375 21.9972 19.1239C21.9106 19.0044 21.9414 19.0692 21.8995 18.9122C21.9358 18.8892 21.9428 18.905 21.9749 18.9396C22.0167 18.7956 21.9428 18.8532 21.9441 18.7495C21.8771 18.7178 21.771 18.6832 21.7668 18.6487L21.7459 18.689C21.7042 18.5733 21.6974 18.4473 21.7264 18.3275H21.7599L21.7431 18.1835L21.7864 18.1749L21.7724 17.9776L21.7613 18.005C21.7468 17.9095 21.7468 17.8124 21.7613 17.717H21.7864C21.8604 17.4722 21.7627 17.2705 21.7543 16.984L21.8031 17.0214C21.852 16.9235 21.7278 16.9955 21.7529 16.8774H21.8129C21.7333 16.7752 21.8297 16.7449 21.859 16.6744L21.7808 16.7075L21.7962 16.575C21.8227 16.431 21.8967 16.4843 21.9358 16.5059L21.8743 16.4065L21.9428 16.3878C21.8632 16.3144 21.9567 16.3144 21.9134 16.1876C21.9386 16.1761 21.9539 16.2092 21.9651 16.166L21.8674 15.9558L21.9106 16.0825L21.8087 16.0667C21.7319 15.9342 21.8199 15.8881 21.792 15.7931L21.8227 15.8579C21.7976 15.7038 21.8408 15.6966 21.8632 15.6087C21.8436 15.6361 21.8157 15.6778 21.8031 15.6087C21.7906 15.5396 21.838 15.5842 21.8492 15.541C21.7822 15.531 21.7459 15.4201 21.778 15.3207C21.7827 15.3204 21.7873 15.3212 21.7917 15.3229C21.796 15.3246 21.7999 15.3273 21.8031 15.3308C21.792 15.3049 21.7752 15.2919 21.7906 15.2473L21.866 15.2732L21.7948 15.1868C21.8157 15.1306 21.7613 15.0428 21.8115 15.0543L21.8269 15.0874L21.845 14.6554H21.9051C21.8213 14.6136 21.9358 14.4207 21.8325 14.4351C21.8883 14.353 21.7934 14.1139 21.9092 14.1615C21.9176 13.8735 21.8059 13.7295 21.8632 13.3781C21.9609 13.2557 21.9288 12.9187 21.94 12.6969C21.8981 12.2649 21.8604 11.9769 21.8283 11.5449C21.9679 11.2785 21.7808 10.881 21.859 10.5945L21.8045 10.5153C21.8911 10.3252 21.785 10.0343 21.8702 9.76787C21.8545 9.73102 21.8432 9.69233 21.8366 9.65267C21.8366 9.66419 21.8227 9.68291 21.7878 9.68867C21.8129 9.61235 21.7878 9.45826 21.852 9.46834L21.859 9.4885C21.9274 9.50002 21.8255 9.25665 21.8855 9.17169L21.8115 9.21777L21.8241 9.07377L21.838 9.11265C21.6733 8.48479 21.9092 8.2011 21.7585 7.61067C21.8394 7.68988 21.7152 7.49547 21.8045 7.48683C21.9162 7.34283 21.7794 7.21178 21.7501 7.08938C21.7469 7.08918 21.7437 7.08832 21.7409 7.08683C21.738 7.08535 21.7354 7.08327 21.7333 7.08074L21.7445 6.86761C21.8562 6.99577 21.651 6.71496 21.7445 6.83161C21.8283 6.27575 21.7445 5.5514 21.7808 4.9077L21.7515 4.93506C21.7515 4.77233 21.7222 4.56929 21.7682 4.44544C21.8143 4.3216 21.6942 4.17471 21.6901 4.12719C21.6398 3.99182 21.7389 3.86798 21.7333 3.92558C21.7194 3.78158 21.6175 3.64477 21.6607 3.44316C21.7571 3.37404 21.5672 2.8945 21.6747 2.8873H21.6663C21.7417 2.62953 21.6133 2.38617 21.6817 2.10824L21.6956 2.12264L21.3703 1.55814L21.0213 1.72806L20.7309 2.21768L20.7938 3.54541L20.6807 4.60817L20.7198 7.18586L20.8007 7.37019C20.6611 7.87708 20.8231 8.52223 20.7225 9.07233L20.791 9.08385C20.7966 9.11604 20.7951 9.14916 20.7864 9.18062C20.7776 9.21209 20.762 9.24106 20.7407 9.26529C20.7561 10.6967 20.8496 12.1713 20.763 13.4587C20.717 13.5826 20.7435 13.9613 20.6946 14.0578C20.7667 14.4802 20.7924 14.9096 20.7714 15.338L20.763 15.3222L20.777 15.5194C20.777 15.5281 20.763 15.5295 20.7575 15.5194C20.8189 15.7412 20.7575 16.0955 20.7337 16.3648L20.7253 16.3489C20.7142 17.933 20.844 19.4148 20.7477 20.9916C20.6346 21.7246 20.791 22.5757 20.6974 23.4181C20.6276 23.5722 20.6807 25.2744 20.7128 25.4256Z" fill="#DB8670"/>
<path d="M20.8021 27.9367C20.7784 27.923 20.7896 27.9367 20.8021 27.9367V27.9367Z" fill="#DB8670"/>
<path d="M21.6063 24.4146V24.4262L21.6468 24.3844L21.6063 24.4146Z" fill="#DB8670"/>
<path d="M21.6314 26.6654C21.6412 26.5646 21.6314 26.5603 21.6216 26.5747C21.6193 26.6053 21.6226 26.6361 21.6314 26.6654V26.6654Z" fill="#DB8670"/>
<path d="M20.8636 28.7564C20.8636 28.8097 20.8789 28.7895 20.8985 28.7564C20.8985 28.7017 20.8985 28.6642 20.8985 28.6642C20.8859 28.6959 20.8706 28.7247 20.8636 28.7564Z" fill="#DB8670"/>
<path d="M21.2615 28.5389L21.2852 28.5562C21.2796 28.5245 21.2699 28.526 21.2615 28.5389Z" fill="#DB8670"/>
<path d="M16.9699 29.7817C16.9684 29.7878 16.967 29.797 16.9699 29.7817V29.7817Z" fill="#DB8670"/>
<path d="M18.0923 29.7377C18.0923 29.7377 18.0923 29.7377 18.0923 29.73C18.0923 29.7223 18.0937 29.7377 18.0923 29.7377Z" fill="#DB8670"/>
<path d="M20.0371 29.714C20.0287 29.7039 20.0371 29.6939 20.0371 29.691C20.0371 29.6881 20.0203 29.6694 20.0119 29.6795C20.0036 29.6895 20.0329 29.6982 20.0371 29.714Z" fill="#DB8670"/>
<path d="M21.1721 29.6276V29.6384C21.1723 29.6348 21.1723 29.6312 21.1721 29.6276Z" fill="#DB8670"/>
<path d="M18.0588 28.6473C18.0588 28.6473 18.0604 28.6422 18.0588 28.6473V28.6473Z" fill="#DB8670"/>
<path d="M20.9934 29.606V29.6406C20.9948 29.6291 20.9948 29.6175 20.9934 29.606Z" fill="#DB8670"/>
<path d="M17.3035 29.9084V29.9228C17.303 29.9181 17.303 29.9132 17.3035 29.9084V29.9084Z" fill="#DB8670"/>
<path d="M16.6557 29.7587C16.6565 29.7501 16.6565 29.7414 16.6557 29.7328V29.7587Z" fill="#DB8670"/>
<path d="M15.078 29.1985C15.0774 29.2028 15.0774 29.2072 15.078 29.2115V29.187C15.0771 29.1908 15.0771 29.1947 15.078 29.1985Z" fill="#DB8670"/>
<path d="M16.2256 29.606C16.2256 29.606 16.2256 29.6147 16.2256 29.619C16.2256 29.6233 16.2522 29.6334 16.2773 29.6319V29.5887L16.2256 29.606Z" fill="#DB8670"/>
<path d="M15.7552 28.5966L15.7998 28.6844C15.6602 28.7233 15.5848 28.6369 15.4578 28.7074V28.6887C15.4396 28.6686 15.4299 28.863 15.2274 28.6239V28.6153C15.2204 28.6153 15.2204 28.6354 15.2065 28.6153L15.2414 28.67C15.2204 28.6916 15.2023 28.7334 15.1744 28.7391C15.168 28.7262 15.1647 28.7119 15.1646 28.6974L15.0962 28.7118L15.078 28.657C15.0571 28.6873 15.0669 28.801 15.011 28.7406C15.032 28.8226 14.9831 28.7895 14.9901 28.8313C14.9857 28.818 14.9806 28.8051 14.9747 28.7924C14.9426 28.801 14.8798 28.8241 14.863 28.8673C14.926 28.9487 14.9817 29.036 15.0292 29.1279C14.9817 29.1063 15.0166 29.138 15.0292 29.1668V29.1452C15.0571 29.1654 15.0571 29.2172 15.0711 29.2316V29.2172V29.2244C15.0696 29.2178 15.0696 29.2109 15.0711 29.2043C15.0711 29.1927 15.0711 29.1841 15.0794 29.187C15.0861 29.1841 15.0932 29.1827 15.1004 29.1827C15.1076 29.1827 15.1147 29.1841 15.1213 29.187V29.2302C15.1423 29.1481 15.2609 29.3569 15.2889 29.3598C15.3168 29.4145 15.3517 29.3454 15.388 29.3727C15.4243 29.4001 15.4159 29.4361 15.4438 29.4736C15.4717 29.511 15.4438 29.4232 15.4508 29.4203L15.4927 29.4808C15.4676 29.4808 15.4815 29.5124 15.4927 29.5297C15.529 29.5297 15.5862 29.6161 15.5974 29.5297C15.6463 29.5715 15.6477 29.606 15.6686 29.6104C15.6686 29.5945 15.6477 29.5801 15.6463 29.5628C15.6658 29.6003 15.656 29.5528 15.6463 29.5441C15.677 29.5067 15.8026 29.7025 15.8082 29.6075V29.6248C15.8052 29.5647 15.8109 29.5045 15.825 29.4462L15.8389 29.4779L15.8599 29.4476C15.8645 29.455 15.8676 29.4633 15.8691 29.4719C15.8705 29.4806 15.8702 29.4895 15.8682 29.498C15.9017 29.4649 15.9492 29.498 15.9911 29.5139L15.9478 29.3209C15.9827 29.3641 16.0455 29.4548 16.0525 29.3929L16.0735 29.4577C16.1433 29.5816 16.1223 29.4044 16.1503 29.4419L16.1852 29.5124H16.1503C16.1803 29.5441 16.2066 29.5794 16.2284 29.6176V29.6176C16.227 29.6139 16.227 29.6097 16.2284 29.606V29.606C16.2284 29.5715 16.2508 29.547 16.2759 29.5499C16.301 29.5528 16.3373 29.5067 16.3946 29.5816L16.4085 29.5096L16.4504 29.5528V29.6104C16.4085 29.6104 16.3318 29.6291 16.2787 29.632V29.6651C16.3108 29.6651 16.3457 29.6392 16.3667 29.6449C16.3775 29.6608 16.3847 29.6791 16.3876 29.6983C16.3905 29.7176 16.3891 29.7372 16.3834 29.7558L16.403 29.6996C16.4406 29.6915 16.4795 29.6924 16.5167 29.7021C16.554 29.7118 16.5886 29.7302 16.618 29.7558L16.6096 29.727C16.6305 29.7097 16.6529 29.6924 16.6584 29.74C16.6945 29.7446 16.7291 29.7577 16.7596 29.7781C16.79 29.7986 16.8156 29.8259 16.8344 29.858L16.8441 29.7904C16.8581 29.7904 16.879 29.8969 16.886 29.8019L16.9153 29.7716C16.9349 29.7716 16.946 29.7385 16.967 29.7716V29.7803C17.0103 29.8091 16.967 29.7184 17.0158 29.7587C17.0312 29.8062 17.034 29.6723 17.0577 29.6867L17.0815 29.7846C17.1247 29.8408 17.1317 29.7428 17.1959 29.7428C17.2133 29.771 17.2244 29.8028 17.2285 29.8359C17.2326 29.869 17.2296 29.9026 17.2197 29.9344C17.2476 29.8451 17.2322 29.8753 17.2685 29.8336C17.2756 29.8585 17.2756 29.885 17.2685 29.9099C17.3007 29.9531 17.2881 29.8768 17.3132 29.8796C17.3165 29.8177 17.324 29.7562 17.3356 29.6953L17.3272 29.6737C17.3523 29.6377 17.3802 29.6204 17.4109 29.655V29.6896L17.4431 29.6723V29.7169L17.4891 29.7025V29.691C17.4989 29.691 17.5352 29.6694 17.5547 29.691V29.7155C17.6106 29.7932 17.6581 29.6924 17.7251 29.6838L17.7153 29.7342C17.739 29.7846 17.7153 29.6564 17.7488 29.6824V29.7443C17.7725 29.6622 17.7795 29.7616 17.7963 29.7918L17.7879 29.7112L17.8186 29.7284C17.8535 29.7544 17.8396 29.8307 17.8354 29.8724L17.8577 29.8091V29.8811C17.8745 29.7976 17.8745 29.894 17.9038 29.8494C17.9038 29.8768 17.9038 29.8912 17.9038 29.9027L17.9526 29.8019L17.9233 29.8465V29.7428C17.954 29.6636 17.9652 29.7544 17.9875 29.7241L17.9722 29.7558C18.0071 29.7299 18.0099 29.7745 18.0294 29.7976C18.0294 29.7788 18.0141 29.75 18.0294 29.7356C18.0448 29.7212 18.0294 29.7731 18.0462 29.7846C18.0462 29.714 18.0741 29.678 18.0978 29.7112C18.0978 29.7198 18.0978 29.7299 18.0978 29.7356C18.0978 29.7414 18.1062 29.7068 18.1174 29.7241L18.1104 29.8019L18.1313 29.727C18.1439 29.7486 18.1635 29.6924 18.1621 29.7443L18.1537 29.7601L18.2542 29.7788V29.8408C18.264 29.7558 18.31 29.8739 18.3059 29.7673C18.3254 29.8249 18.3813 29.7256 18.3701 29.8465C18.4357 29.8552 18.472 29.74 18.5516 29.7976C18.5809 29.8998 18.6591 29.8667 18.7107 29.8782C18.7981 29.8355 18.8876 29.7975 18.9788 29.7644C19.0416 29.9084 19.1338 29.7155 19.2008 29.7961L19.2189 29.7385C19.2622 29.8292 19.3306 29.7184 19.392 29.8062C19.3991 29.7929 19.4085 29.7812 19.42 29.7716C19.42 29.7716 19.413 29.7587 19.4116 29.7227C19.4283 29.7486 19.4646 29.7227 19.4618 29.7889V29.7961C19.4618 29.8667 19.5163 29.7616 19.5358 29.8249L19.5247 29.7472L19.5582 29.7601L19.5498 29.7745C19.6894 29.6046 19.7606 29.848 19.8988 29.6924C19.8807 29.776 19.9254 29.6492 19.9267 29.74C19.9617 29.8552 19.991 29.7155 20.0189 29.6852C20.0183 29.6795 20.0183 29.6737 20.0189 29.668L20.0678 29.6795C20.0384 29.7947 20.1041 29.583 20.0761 29.6795C20.206 29.7659 20.3749 29.6795 20.5243 29.7184V29.6881C20.5634 29.6881 20.6095 29.6579 20.6388 29.7054C20.6681 29.7529 20.7016 29.6305 20.7128 29.6248C20.7449 29.5744 20.7728 29.6752 20.7602 29.6708C20.7937 29.6564 20.8245 29.5513 20.8719 29.596C20.8873 29.6939 20.999 29.4995 21.0004 29.6104V29.6003C21.0604 29.6795 21.1162 29.547 21.1819 29.6176C21.1822 29.6223 21.1822 29.6272 21.1819 29.632L21.3131 29.2964L21.2754 28.9278L21.1623 28.6282L20.8538 28.693L20.6067 28.575L20.0077 28.6153L19.9644 28.6988C19.8472 28.5548 19.695 28.7204 19.5679 28.6167V28.6887C19.533 28.6887 19.5358 28.6484 19.5261 28.6354C19.1938 28.6513 18.8503 28.7463 18.5488 28.657C18.5195 28.6095 18.4315 28.6369 18.4092 28.5865C18.3681 28.621 18.3202 28.6459 18.2688 28.6594C18.2175 28.6728 18.1639 28.6745 18.1118 28.6642V28.657L18.0657 28.67C18.0643 28.6638 18.0643 28.6574 18.0657 28.6513C18.0141 28.7146 17.9261 28.6513 17.8689 28.6254V28.6182C17.4989 28.6052 17.1555 28.7377 16.7883 28.6383C16.618 28.5217 16.4197 28.683 16.2298 28.585C16.1852 28.513 15.7901 28.5634 15.7552 28.5966Z" fill="#DB8670"/>
<path d="M15.1716 28.693C15.173 28.657 15.1716 28.6743 15.1716 28.693V28.693Z" fill="#DB8670"/>
<path d="M15.9897 29.5211L15.9995 29.5628L15.9897 29.5211Z" fill="#DB8670"/>
<path d="M15.4662 29.5435C15.4899 29.5517 15.4899 29.5435 15.4871 29.534C15.4831 29.5326 15.4786 29.5329 15.4747 29.5346C15.4708 29.5364 15.4678 29.5396 15.4662 29.5435Z" fill="#DB8670"/>
<path d="M14.9803 28.7506C14.9678 28.7506 14.972 28.7665 14.9803 28.7866H15.0027C14.9943 28.7737 14.9873 28.7578 14.9803 28.7506Z" fill="#DB8670"/>
<path d="M15.0306 29.161V29.1855C15.033 29.1819 15.0343 29.1777 15.0343 29.1733C15.0343 29.1689 15.033 29.1646 15.0306 29.161V29.161Z" fill="#DB8670"/>
</svg>
