<svg xmlns="http://www.w3.org/2000/svg" viewBox="0 0 157.58 215.27"><defs><style>.cls-1{fill:#1d1d1d;}</style></defs><g id="Calque_2" data-name="Calque 2"><g id="Calque_4" data-name="Calque 4"><path class="cls-1" d="M108.63,62.26c0-.09,0-.13,0,0Z"/><path class="cls-1" d="M109.71,132.1v.07a1.86,1.86,0,0,1,.25.14Z"/><path class="cls-1" d="M109.15,143.34l0,.07C109.18,143.4,109.24,143.41,109.15,143.34Z"/><path class="cls-1" d="M108.65,106.22a.29.29,0,0,0-.05-.19A.74.74,0,0,1,108.65,106.22Z"/><path class="cls-1" d="M108,41.68v0a.67.67,0,0,1,.06-.12Z"/><path class="cls-1" d="M108.16,41.9c-.07.25-.14-.06-.16-.17a1.17,1.17,0,0,0-.08.82C108.07,42.55,108.05,42,108.16,41.9Z"/><path class="cls-1" d="M107.37,4.34l.07.11A.3.3,0,0,0,107.37,4.34Z"/><path class="cls-1" d="M101.08,107.36l0-.17A.2.2,0,0,0,101.08,107.36Z"/><path class="cls-1" d="M107.25,10.23l.24.06A.5.5,0,0,0,107.25,10.23Z"/><path class="cls-1" d="M110,132.31l.09.08A.24.24,0,0,0,110,132.31Z"/><path class="cls-1" d="M109,153.72a.36.36,0,0,0-.19.05v0Z"/><path class="cls-1" d="M105.41,206.06l.09,0-.17-.21A.45.45,0,0,0,105.41,206.06Z"/><path class="cls-1" d="M108.05,168s0,0,.08,0a7.1,7.1,0,0,0,.09-1.71l-.3-.05Z"/><path class="cls-1" d="M101.12,183.57l.59-1.53c.31,4.87-.29,7.15.22,11.32l-.13-.23c-.14.61,1.22.94-.4,7.65h-.06c0,.24.13.24,0,.7l.37-1.16a11.68,11.68,0,0,1,.49,2.22.39.39,0,0,1-.29.29l.11,2.27-.38.7c.21.69,1,.37.59,2.23.56-.7.34.92.63.69-.07.09-.17.3-.27.48a14.69,14.69,0,0,0,.54,3.69,49.74,49.74,0,0,1,1.79-5.49c-.15,1.56.07.41.26.1l-.14-.1c.13-.93.5-.93.59-1.4l-.1,0,0,.06a.09.09,0,0,1-.14,0c-.08,0-.14,0-.12-.29l0,0a7.45,7.45,0,0,1,0-1.35h.3c-.57-.69.86-4.65.87-5.57.38-.94-.1-2.09.08-3.25.09-1.85.44-.93.69-1.86.18-1.16-.35.24-.37-.23l.41-1.39c0,.8.22.36.34.22,0-1.21.59-3.11,0-3.47.28-1.63.52-1.63.55-2.33-.11.23-.21.7-.33.7.26-.65-.07-.31-.12,0-.27-1,1.07-5.15.41-5.36h.12c-.5-.23-1,.14-1.25-.55l.22-.46-.22-.7c.16-.46.29-.23.35-.23a19.6,19.6,0,0,1,.09-4.09l-1.33,1.46c.3-1.16.92-3.25.49-3.48l.45-.7c.85-2.33-.39-1.62-.13-2.55l.48-1.17v1.16a16.75,16.75,0,0,1,.72-2.55h0c0,.06,0,.1-.07.11V168c-.25-.14-.42-.74-.4-1.56.06-1.16-.31-2.07.2-3.93l-.5-.46.29-1.39h.4c0,1.36.15,3.93.18,5.68l.18,0c0-1-.19-2.22-.15-2.91.08-.33.49-1.19.76-.57l-.39-.64a33.86,33.86,0,0,1,.35-7.12l-.2.32c-.12-.72-.24-1.44.08-1.64a21.42,21.42,0,0,1,.8-5.84l-.47-.31c0-.46.73-1.15.07-1.37l-.22-1c0-.63-.23-1,0-1.73h0l.06-.13h0c.2-1.42-.42,0-.16-1.61.33-.52-.6-.57-.5-1.37l.67-.8c.38-1.43-.29-1.68-.31-3.76.24-1,.81-1.48,1.33-.82-.63-.91-.41-.42-.71-1.62.25-.19.31-.06.54.21.29-1.08-.24-.66-.22-1.47-.49-.23-1.25-.5-1.28-.76l-.15.31a5.22,5.22,0,0,1-.15-2.79l.24,0-.13-1.06.31-.07-.1-1.51-.08.21a7.56,7.56,0,0,1,0-2.19l.17,0c.53-1.89-.18-3.43-.25-5.64l.35.29c.34-.75-.54-.2-.37-1.1l.43,0c-.57-.79.11-1,.33-1.57l-.57.26.12-1c.18-1.13.71-.7,1-.53l-.45-.77.5-.15c-.58-.56.09-.56-.22-1.54.18-.08.29.17.37-.17l-.71-1.61.32,1-.73-.11c-.56-1,.07-1.38-.13-2.1l.21.5c-.18-1.19.13-1.25.29-1.92-.14.21-.34.52-.43.05s.25-.2.33-.53c-.48-.08-.75-.93-.52-1.7a.3.3,0,0,1,.18.08c-.08-.2-.21-.3-.09-.64l.54.2-.52-.66c.15-.44-.25-1.08.12-1l.11.25.11-3.33.43,0c-.59-.32.22-1.81-.52-1.7.4-.63-.3-2.47.54-2.1.05-2.19-.76-3.36-.37-6,.71-.95.46-3.54.53-5.25-.31-3.33-.59-5.48-.83-8.89,1-2-.37-5.1.18-7.31l-.4-.6c.62-1.47-.16-3.71.44-5.76a4.74,4.74,0,0,1-.24-.89.37.37,0,0,1-.34.28c.17-.58-.06-1.77.44-1.69l0,.15c.5.08-.24-1.78.19-2.44l-.53.36.08-1.11.11.3c-1.21-4.83.47-7-.64-11.55.59.6-.31-.89.33-1,.79-1.15-.18-2.12-.4-3.06a.17.17,0,0,1-.12-.06l.07-1.64c.81,1-.67-1.18,0-.28.58-4.28-.07-9.86.19-14.81l-.21.22a15.94,15.94,0,0,1,.1-3.77c.33-.95-.53-2.08-.57-2.45-.36-1,.34-2,.31-1.54-.11-1.12-.85-2.17-.54-3.72.68-.53-.69-4.22.08-4.27l-.07,0c.54-2-.39-3.85.08-6a.42.42,0,0,1,.11.12L105,0l-2.56,1.25L100.4,5l.5,10.21-.77,8.16.38,19.83.58,1.41c-1,3.91.2,8.9-.5,13.1l.5.09a1.78,1.78,0,0,1-.36,1.39c.16,11,.88,22.35.31,32.26-.33,1-.12,3.86-.46,4.61a49.39,49.39,0,0,1,.59,9.85l-.06-.12.1,1.52c0,.06-.1.07-.13,0,.45,1.71,0,4.41-.15,6.51l-.05-.13c0,12.24,1,23.58.32,35.72-.78,5.64.37,12.2-.27,18.67C100.44,169.32,100.88,182.41,101.12,183.57Z"/><path class="cls-1" d="M101.88,202.83v-.05C101.67,202.78,101.75,202.86,101.88,202.83Z"/><polygon class="cls-1" points="107.48 175.76 107.47 175.85 107.77 175.52 107.48 175.76"/><path class="cls-1" d="M107.74,193.08c.06-.78,0-.81-.07-.7A1.84,1.84,0,0,0,107.74,193.08Z"/><path class="cls-1" d="M102.31,209.18c0,.41.11.26.25,0l0-.71C102.47,208.72,102.36,209,102.31,209.18Z"/><path class="cls-1" d="M105.15,207.5l.17.13C105.28,207.39,105.22,207.4,105.15,207.5Z"/><path class="cls-1" d="M33.78,7.67s-.06,0,0,0Z"/><path class="cls-1" d="M65.69,3.82h0l0-.26Z"/><path class="cls-1" d="M70.89,3.65l0,0C70.91,3.61,70.91,3.55,70.89,3.65Z"/><path class="cls-1" d="M54,6.27a.09.09,0,0,0-.09.05A.26.26,0,0,1,54,6.27Z"/><path class="cls-1" d="M24.31,8.55h0l-.06-.06Z"/><path class="cls-1" d="M24.41,8.37c.12.07,0,.14-.07.17a.29.29,0,0,0,.38.07C24.71,8.46,24.47,8.49,24.41,8.37Z"/><path class="cls-1" d="M7.07,8.9l0-.06S7.09,8.88,7.07,8.9Z"/><path class="cls-1" d="M55.33,13.74l-.07,0S55.32,13.77,55.33,13.74Z"/><path class="cls-1" d="M9.79,9.12l0-.24A1.29,1.29,0,0,0,9.79,9.12Z"/><path class="cls-1" d="M65.75,3.56l0-.1A.25.25,0,0,0,65.75,3.56Z"/><path class="cls-1" d="M75.63,3a.93.93,0,0,0,.06.18h0Z"/><path class="cls-1" d="M100.15,1.75l0-.09-.06.19A.17.17,0,0,0,100.15,1.75Z"/><path class="cls-1" d="M82.29,2.84a.21.21,0,0,0,0-.08,1.65,1.65,0,0,0-.79.06l0,.3Z"/><path class="cls-1" d="M90.83,8.23,90,7.79c2.19-.74,3.36-.41,5.17-1.32l-.08.15c.31.07.15-1.28,3.61-.4l0,.06c.1,0,.07-.15.32,0L98.42,6c.29-.23.49-.58.91-.72a.42.42,0,0,1,.2.25l1-.36.41.3c.27-.29-.08-1,.88-.82-.46-.48.33-.44.16-.7.06.06.18.14.28.22.49-.2,1.4-.59,1.56-.93a16.35,16.35,0,0,1-2.94-1.14c.74,0,.16-.11,0-.26V2c-.46,0-.55-.38-.78-.43a.42.42,0,0,0,0,.1v0a.15.15,0,0,1,0,.14c0,.07,0,.14-.1.14v0a1.61,1.61,0,0,1-.62.13l-.07-.3c-.18.64-2.3-.31-2.73-.24-.51-.27-.92.31-1.49.25-.86.1-.52-.33-1-.49s.19.32,0,.39l-.72-.26c.36-.12.12-.26,0-.35-.55.07-1.53-.27-1.56.36C91.07,1.23,91,1,90.7,1c.13.09.36.14.39.25-.35-.19-.13.1,0,.13-.39.37-2.56-.57-2.51.1l0-.12c0,.5.27.94,0,1.27l-.26-.17L88,2.76c-.25-.11-.17-.26-.18-.32-.47.33-1.24.22-1.88.29l.94,1.17c-.59-.19-1.67-.6-1.69-.16l-.4-.37c-1.23-.64-.67.51-1.14.34l-.63-.38.53-.1a5.15,5.15,0,0,1-1.3-.49v0a.11.11,0,0,1,.07.06l-.07,0c0,.26-.26.48-.64.53-.54,0-.88.47-1.82.12L79.71,4,79,3.86,79,3.46c.62-.09,1.76-.47,2.55-.64l0-.18c-.47.09-1,.37-1.29.39s-.64-.38-.41-.7l-.21.44a7.12,7.12,0,0,1-3.3.2l.18.17c-.31.18-.61.35-.76,0a5.14,5.14,0,0,1-2.79-.34l-.06.48c-.21,0-.64-.63-.64,0l-.41.27c-.29,0-.42.3-.79.09h0l-.07-.05v0c-.68-.11.07.41-.71.26-.29-.29-.17.63-.55.59l-.47-.62c-.71-.28-.72.41-1.67.56A.93.93,0,0,1,67,3.25c-.32.67-.13.42-.63.8-.12-.23-.07-.3,0-.54-.53-.22-.27.27-.64.31,0,.49,0,1.26-.17,1.31l.17.13a1.24,1.24,0,0,1-1.26.31l0-.24L64,5.51l-.08-.3-.67.19.1.07a1.78,1.78,0,0,1-1,.13V5.42c-.93-.41-1.55.39-2.55.57l.09-.36c-.39-.31,0,.54-.46.42l-.07-.42c-.29.6-.48-.07-.76-.25l.19.55-.48-.07c-.54-.12-.41-.66-.37-1l-.29.49-.13-.49c-.19.61-.27-.06-.68.3-.06-.18,0-.3-.12-.36L56,5.61l.41-.36,0,.73c-.4.6-.64,0-.94.24l.2-.25c-.52.24-.59-.06-.91-.18.11.12.28.3.07.42s-.12-.24-.28-.3c0,.48-.34.79-.72.6a1.09,1.09,0,0,1,0-.19c-.08.09-.11.22-.28.12l0-.54-.24.54c-.22-.13-.47.29-.48-.08l.1-.12-1.54,0-.06-.43c-.09.61-.86-.14-.73.59-.33-.37-1.11.4-1-.44-1,0-1.47.9-2.73.59-.49-.67-1.66-.34-2.45-.35-1.5.41-2.47.78-4,1.1-1-.93-2.33.49-3.38,0l-.25.41c-.71-.58-1.7.24-2.68-.33a1.64,1.64,0,0,1-.39.26s.11.09.15.33c-.28-.16-.82.09-.8-.41l.06-.06c0-.5-.81.27-1.13-.14l.19.52-.52-.06.14-.11c-2.18,1.29-3.25-.38-5.3.76.26-.59-.41.32-.45-.32-.55-.78-1,.2-1.4.43a.35.35,0,0,1,0,.12l-.76-.06c.44-.81-.53.68-.13,0-2-.57-4.54.07-6.83-.2l.1.21c-.58-.05-1.3.2-1.74-.14s-1,.52-1.13.55c-.49.35-.92-.36-.71-.32-.52.1-1,.83-1.73.51-.23-.68-2,.62-2-.15v.07C8.88,8.62,8,9.52,7,9l.05-.1L5,11.17l.49,2.58,1.7,2.13c1.61-.11,3.22-.2,4.83-.34l3.83.85c3.12-.08,6.24-.21,9.36-.37l.65-.6c1.87,1,4.19-.26,6.19.36l0-.5c.55-.06.53.25.67.33,5.19-.32,10.46-1.39,15.16-1.16.48.3,1.83,0,2.21.27a11,11,0,0,1,4.57-1l0,.06.7-.18a.14.14,0,0,1,0,.14c.75-.53,2.06-.25,3.07-.19l0,.06C64.1,13,69.25,11.31,75,11.05c2.77.35,5.61-1.29,8.73-1.23C84.37,10.23,90.35,8.58,90.83,8.23Z"/><path class="cls-1" d="M99.53,5.53h0C99.55,5.74,99.57,5.65,99.53,5.53Z"/><polygon class="cls-1" points="85.94 2.73 85.98 2.73 85.78 2.47 85.94 2.73"/><path class="cls-1" d="M93.74.83c-.37,0-.37.08-.31.15A.46.46,0,0,0,93.74.83Z"/><path class="cls-1" d="M102.33,4.41c.19,0,.09-.14-.06-.24l-.31.11C102.08,4.31,102.21,4.39,102.33,4.41Z"/><path class="cls-1" d="M100.87,1.84V1.66C100.79,1.73,100.81,1.79,100.87,1.84Z"/><path class="cls-1" d="M8.85,68.35c0-.08,0-.12,0,0Z"/><path class="cls-1" d="M9.35,131.06v.06l.25.13Z"/><path class="cls-1" d="M8.69,141.14a.21.21,0,0,0,0,.07C8.72,141.2,8.78,141.21,8.69,141.14Z"/><path class="cls-1" d="M8.5,107.82a.2.2,0,0,0-.05-.18A.78.78,0,0,1,8.5,107.82Z"/><path class="cls-1" d="M8.39,49.87v0l.07-.11Z"/><path class="cls-1" d="M8.56,50.07c-.08.22-.15-.06-.17-.16a1,1,0,0,0-.08.74C8.46,50.65,8.44,50.18,8.56,50.07Z"/><path class="cls-1" d="M8.08,16.33l.07.11A.3.3,0,0,0,8.08,16.33Z"/><path class="cls-1" d="M.92,108.78a.66.66,0,0,0,0-.15A.27.27,0,0,0,.92,108.78Z"/><path class="cls-1" d="M7.91,21.63l.24.06A.34.34,0,0,0,7.91,21.63Z"/><path class="cls-1" d="M9.6,131.25l.1.07Z"/><path class="cls-1" d="M8.49,150.46l-.18,0s0,0,0,0Z"/><path class="cls-1" d="M4.42,197.42l.1,0-.18-.19A.42.42,0,0,0,4.42,197.42Z"/><path class="cls-1" d="M7.38,163.24l.09,0a6.21,6.21,0,0,0,.09-1.54l-.3,0Z"/><path class="cls-1" d="M.32,177.2l.61-1.36c.26,4.37-.35,6.41.12,10.15l-.13-.2c-.14.54,1.22.85-.47,6.87H.39c0,.21.13.2,0,.62l.38-1a9.2,9.2,0,0,1,.47,2,.38.38,0,0,1-.29.26l.1,2-.4.62c.21.62,1,.34.57,2,.58-.63.34.83.63.62-.07.08-.17.28-.27.43a11.76,11.76,0,0,0,.51,3.32,42.69,42.69,0,0,1,1.83-4.91c-.16,1.39.07.36.26.09L4,198.63c.14-.84.51-.84.61-1.26l-.1,0,0,0c-.06,0-.1,0-.14,0s-.14,0-.11-.25l0,0a6,6,0,0,1,0-1.22h.3c-.57-.62.89-4.16.91-5,.39-.84-.08-1.88.11-2.92.1-1.66.44-.83.71-1.66.19-1-.36.21-.37-.21L6.46,185c0,.73.22.33.33.2.06-1.08.62-2.78,0-3.12.29-1.45.53-1.45.57-2.08-.11.21-.22.62-.34.63.27-.59-.06-.28-.12,0-.26-.89,1.11-4.62.45-4.81h.12c-.49-.21-1,.12-1.24-.5l.22-.41-.21-.63c.17-.42.3-.21.36-.21a15.36,15.36,0,0,1,.12-3.67l-1.35,1.3c.32-1,1-2.91.52-3.12l.46-.63c.86-2.08-.37-1.45-.11-2.28l.5-1.05,0,1a15.69,15.69,0,0,1,.74-2.28h0a.17.17,0,0,1-.08.1v-.15c-.24-.13-.41-.67-.39-1.4a10.14,10.14,0,0,1,.24-3.53l-.5-.41.3-1.25h.4c0,1.22.12,3.53.13,5.1l.19,0c0-.93-.17-2-.13-2.61.08-.3.5-1.07.77-.51L8,158.08a27.33,27.33,0,0,1,.41-6.38l-.2.28c-.12-.65-.23-1.29.1-1.47a17.3,17.3,0,0,1,.84-5.24L8.68,145c0-.41.74-1,.08-1.23l-.2-.88c0-.56-.23-.91,0-1.55h0l.06-.12h0c.21-1.27-.42,0-.15-1.45.34-.46-.59-.52-.48-1.23l.68-.71c.39-1.29-.29-1.51-.28-3.38.24-.9.82-1.33,1.33-.73-.62-.82-.4-.37-.7-1.46.26-.16.31-.05.54.19.3-1-.23-.59-.21-1.32-.48-.21-1.24-.46-1.27-.69l-.15.28a4.22,4.22,0,0,1-.13-2.5l.24,0-.12-1,.31-.06-.09-1.36-.08.19a6.52,6.52,0,0,1,0-2l.17,0c.54-1.69-.15-3.08-.2-5.06l.35.26c.35-.67-.54-.19-.37-1l.43,0c-.56-.71.13-.91.34-1.4l-.56.23.12-.92c.19-1,.72-.62,1-.47L8.93,115l.5-.13c-.58-.5.09-.5-.22-1.38.19-.08.3.15.38-.15l-.69-1.46.3.88-.72-.11c-.55-.91.08-1.23-.12-1.89l.21.45c-.17-1.06.14-1.12.3-1.72-.13.19-.33.47-.43,0s.26-.17.34-.47c-.48-.07-.74-.83-.51-1.52a.26.26,0,0,1,.18.06c-.07-.17-.2-.26-.08-.57l.54.18-.51-.59c.14-.39-.24-1,.12-.92l.11.23.14-3,.43,0c-.59-.3.23-1.62-.51-1.53.4-.56-.28-2.22.56-1.88.07-2-.73-3-.32-5.41.71-.85.49-3.18.57-4.71-.28-3-.54-4.93-.75-8,1-1.84-.33-4.59.24-6.57l-.39-.54c.63-1.32-.13-3.33.49-5.17a3.91,3.91,0,0,1-.24-.8c0,.08-.09.21-.34.25.17-.53,0-1.59.46-1.51l0,.13c.49.08-.23-1.6.2-2.19l-.53.32.09-1,.1.27c-1.16-4.34.54-6.29-.53-10.37.58.54-.3-.8.33-.85.81-1-.16-1.91-.37-2.75a.17.17,0,0,1-.12-.06l.08-1.47c.8.88-.66-1.06,0-.25.62-3.84,0-8.85.32-13.29l-.21.19c0-1.13-.2-2.53.13-3.38S8,30.52,8,30.18c-.35-.93.36-1.78.32-1.38-.09-1-.82-1.95-.5-3.34.68-.47-.66-3.79.11-3.83l-.06,0c.54-1.78-.37-3.46.13-5.38l.1.1L5.77,12.42,3.2,13.52,1.1,16.9l.42,9.17L.68,33.39.89,51.2l.57,1.27c-1,3.5.12,8-.61,11.76l.5.08c0,1.06-.29,1-.37,1.25.07,9.89.69,20.07,0,29-.33.86-.15,3.47-.5,4.14A39.2,39.2,0,0,1,1,107.5L1,107.39l.09,1.37a.09.09,0,0,1-.14,0c.43,1.54,0,4-.2,5.84l0-.11c-.13,11,.76,21.18,0,32.06-.83,5.06.27,11-.43,16.77C-.24,164.4.09,176.16.32,177.2Z"/><path class="cls-1" d="M.92,194.5v-.05C.71,194.45.79,194.52.92,194.5Z"/><path class="cls-1" d="M6.75,170.24a.22.22,0,0,0,0,.08L7,170Z"/><path class="cls-1" d="M6.86,185.79c.07-.7,0-.73-.07-.63A1.68,1.68,0,0,0,6.86,185.79Z"/><path class="cls-1" d="M1.3,200.21c0,.36.11.22.25,0,0-.38,0-.64,0-.64C1.46,199.79,1.35,200,1.3,200.21Z"/><path class="cls-1" d="M4.15,198.72l.17.11C4.28,198.62,4.22,198.63,4.15,198.72Z"/><path class="cls-1" d="M33.31,200.49s-.07,0,0,0Z"/><path class="cls-1" d="M66.31,203.18h0a2.3,2.3,0,0,1,.09-.25Z"/><path class="cls-1" d="M71.55,204.35l0,0C71.58,204.32,71.59,204.26,71.55,204.35Z"/><path class="cls-1" d="M54,202.84a.08.08,0,0,0-.09,0A.18.18,0,0,1,54,202.84Z"/><path class="cls-1" d="M23.55,200h0l-.05-.06Z"/><path class="cls-1" d="M23.67,199.86c.11.09-.05.14-.1.15a.31.31,0,0,0,.38.13C24,200,23.72,200,23.67,199.86Z"/><path class="cls-1" d="M5.89,198.62l.06-.06Z"/><path class="cls-1" d="M53.75,210.43l-.08,0A.08.08,0,0,0,53.75,210.43Z"/><path class="cls-1" d="M8.66,199.06l.05-.24A.93.93,0,0,0,8.66,199.06Z"/><path class="cls-1" d="M66.44,202.93l0-.09A.73.73,0,0,0,66.44,202.93Z"/><path class="cls-1" d="M76.42,205a1,1,0,0,0,0,.19h0Z"/><path class="cls-1" d="M100.69,211.44v-.1l-.12.17A.18.18,0,0,0,100.69,211.44Z"/><path class="cls-1" d="M83,206.76s0,0,0-.08a1.81,1.81,0,0,0-.79-.17l-.06.29Z"/><path class="cls-1" d="M89.65,214.5l-.65-.68c2.32,0,3.33.67,5.35.39l-.13.12c.28.17.58-1.16,3.57.81v.06c.11,0,.12-.11.33.07l-.51-.43a3.32,3.32,0,0,1,1.1-.37.44.44,0,0,1,.1.3h1.08l.29.43c.35-.18.29-1,1.11-.47-.27-.6.47-.3.4-.6a2.35,2.35,0,0,0,.19.3,3.71,3.71,0,0,0,1.8-.34,18,18,0,0,1-2.4-2.07c.72.23.2-.05.08-.26l-.07.14c-.42-.19-.38-.55-.59-.67a.34.34,0,0,0,0,.1l0,0a.13.13,0,0,1,0,.14c0,.08,0,.14-.14.1l0,0a1.74,1.74,0,0,1-.63-.1l0-.3c-.39.54-2.1-1.1-2.54-1.16-.4-.43-1,0-1.52-.26-.86-.18-.39-.48-.8-.78s.07.36-.15.35l-.61-.48c.38,0,.2-.2.14-.32-.56-.11-1.4-.76-1.64-.18-.73-.36-.71-.6-1-.66.1.12.31.24.3.36-.28-.3-.15.05,0,.12-.5.21-2.32-1.34-2.48-.7v-.12c-.16.48,0,1-.39,1.21l-.19-.24-.35.18a.26.26,0,0,1-.08-.36c-.56.17-1.28-.18-1.92-.31l.55,1.4c-.51-.36-1.43-1.09-1.59-.67l-.28-.48c-1-1-.8.29-1.21,0l-.5-.55.54.07a5.88,5.88,0,0,1-1.12-.85,0,0,0,0,0,0,0,.1.1,0,0,1,0,.08H83a.67.67,0,0,1-.78.32c-.54-.13-1,.19-1.83-.42l-.27.48-.62-.37,0-.39c.64.09,1.87.06,2.7.13l0-.18c-.49-.05-1.07.06-1.39,0-.15-.1-.51-.55-.19-.79l-.34.36a8,8,0,0,1-3.31-.74l.12.22c-.35.08-.7.16-.76-.17a5.32,5.32,0,0,1-2.67-1.11l-.19.46c-.21-.05-.47-.79-.64-.15l-.48.16c-.3-.07-.5.18-.81-.12h0l0-.06v0c-.65-.28,0,.42-.78.07-.21-.36-.33.56-.7.42l-.3-.71c-.64-.46-.82.2-1.81.1a.93.93,0,0,1-.25-1.36c-.49.57-.23.38-.83.62-.06-.26,0-.31.15-.52-.47-.35-.33.19-.71.14-.16.46-.37,1.21-.5,1.23l.14.16a1.25,1.25,0,0,1-1.33,0l0-.24-.51.07v-.31l-.72,0,.09.1a1.85,1.85,0,0,1-1-.12l0-.17c-.83-.63-1.63,0-2.67-.06l.17-.33c-.32-.38-.15.52-.56.31l0-.43c-.42.52-.46-.17-.7-.41l.07.57-.47-.17c-.52-.24-.26-.74-.15-1l-.41.4v-.5c-.33.55-.26-.12-.75.14,0-.19.11-.29,0-.38l-.84.62.49-.27-.13.72c-.53.5-.64-.14-1,0l.26-.19c-.58.12-.58-.19-.88-.38.09.14.22.36,0,.43s-.06-.27-.21-.36c-.09.48-.52.69-.86.42a.67.67,0,0,1,.06-.17c-.1.07-.16.19-.31.05l.15-.52-.37.48c-.19-.17-.53.19-.46-.17l.12-.1-1.55-.29,0-.43c-.21.57-.83-.31-.85.43-.26-.43-1.2.16-.94-.65-1-.17-1.66.57-2.87,0-.38-.75-1.62-.65-2.42-.81-1.6.13-2.64.29-4.27.35-.87-1.08-2.45.09-3.43-.57l-.32.36c-.63-.7-1.76,0-2.67-.75a1.45,1.45,0,0,1-.44.19s.1.11.09.36c-.25-.2-.84,0-.75-.54l.08,0c.09-.49-.86.15-1.13-.32l.12.55-.52-.14.15-.09c-2.4.94-3.25-.85-5.5,0,.34-.55-.46.26-.42-.38-.46-.85-1,.07-1.48.24a.21.21,0,0,1,0,.11l-.77-.16c.55-.75-.62.61-.13,0-2-.8-4.65-.47-7-1l.08.21c-.59-.1-1.35.07-1.76-.3s-1,.42-1.22.43c-.53.31-.9-.44-.69-.38-.54,0-1.11.72-1.81.33-.18-.7-2.06.46-2-.31l0,.07c-.88-.64-1.85.18-2.81-.41a.44.44,0,0,1,.06-.1L3.6,200.73l.32,2.61,1.57,2.25,4.86,0,3.76,1.21,9.38.7.73-.51c1.73,1.2,4.21.28,6.11,1.21l.09-.5c.57,0,.5.34.62.44,5.21.42,10.62.32,15.23,1.43.42.37,1.81.32,2.12.7a11.13,11.13,0,0,1,4.7,0l-.06,0,.73,0a.14.14,0,0,1,0,.14c.86-.35,2.08.21,3,.49l-.06.05c5.76.69,11.21.32,16.85,1.6,2.58,1.09,5.79.29,8.77,1.28C82.87,214.4,89.08,214.67,89.65,214.5Z"/><path class="cls-1" d="M98.8,214.77h0C98.76,215,98.8,214.91,98.8,214.77Z"/><path class="cls-1" d="M86.64,207.75h0l-.12-.31Z"/><path class="cls-1" d="M94.83,208.42c-.36-.1-.38,0-.34,0A.48.48,0,0,0,94.83,208.42Z"/><path class="cls-1" d="M101.84,214.69c.19,0,.13-.1,0-.25h-.33C101.64,214.5,101.73,214.62,101.84,214.69Z"/><path class="cls-1" d="M101.35,211.77l.08-.16C101.31,211.64,101.31,211.7,101.35,211.77Z"/><path class="cls-1" d="M85.35,103.47s0,0,0,0Z"/><path class="cls-1" d="M85,108.91h0l.21-.14Z"/><path class="cls-1" d="M85.09,109.88v0C85.12,109.85,85.15,109.8,85.09,109.88Z"/><path class="cls-1" d="M83.5,107.15s0,0,0,0A.06.06,0,0,1,83.5,107.15Z"/><path class="cls-1" d="M87.19,102.22h0l0,.06Z"/><path class="cls-1" d="M87.19,102.4a.2.2,0,0,1,0-.17c-.06-.12-.1-.13-.12-.06S87.16,102.29,87.19,102.4Z"/><path class="cls-1" d="M92.82,102.12l0,.06Z"/><path class="cls-1" d="M75.93,107.62s0,0,0,0A0,0,0,0,0,75.93,107.62Z"/><path class="cls-1" d="M91.87,101.8l-.05.24C91.84,102,91.86,101.87,91.87,101.8Z"/><path class="cls-1" d="M85.2,108.77l.08-.06Z"/><path class="cls-1" d="M85.8,110.44l-.06.17h0Z"/><path class="cls-1" d="M93.37,112.27l-.07-.07.09.15A.09.09,0,0,0,93.37,112.27Z"/><path class="cls-1" d="M87.12,111.78v-.08c0-.09-.1-.11-.2-.11l0,.3Z"/><path class="cls-1" d="M90.9,118.35l-.54-.5c1.12-.56,1.91-.24,2.7-1.16v.14c.1,0,0-.26.19-.5s.57-.33,1.81-.26l0,.05c0-.05,0-.15.18-.1l-.49-.1c.06-.24,0-.56.18-.75a.56.56,0,0,1,.24.17c.14-.15.26-.33.39-.5L96,115c0-.29-.67-.79,0-.84-.55-.24-.1-.41-.37-.55l.29.08c.13-.28.33-.81.16-1.07a8.17,8.17,0,0,1-.88.05,3.82,3.82,0,0,1-1.31-.21c.33-.12,0-.1-.18-.19l.09.11c-.23,0-.49-.21-.62-.22l.08.06,0,0a.33.33,0,0,1,.1.11s.09.1,0,.12l0,0c0,.09-.14.14-.2.16l-.21-.22c.16.26-.15.25-.5.14a4.19,4.19,0,0,0-.78-.24c-.33-.23-.23.25-.48.19s-.34-.31-.58-.47.2.3.15.34l-.38-.29c.09-.08,0-.21-.12-.31s-.6-.39-.41.19c-.31-.2-.39-.43-.48-.43a1.73,1.73,0,0,1,.19.28c-.16-.22,0,.08,0,.12s-.27,0-.47-.22-.37-.33-.31,0l0-.12A6,6,0,0,1,89,112.7l-.12-.2,0,.23a.64.64,0,0,1-.1-.34c-.12.27-.39,0-.58,0,.11.43.24.87.38,1.3-.24-.28-.6-.86-.61-.44l-.13-.45c-.36-.85-.23.38-.37.13s-.11-.32-.16-.49a.85.85,0,0,0,.16,0,2.3,2.3,0,0,1-.32-.74v0a.15.15,0,0,1,0,.07h0c0,.24-.12.4-.23.38s-.32.27-.48-.29l-.14.48-.13-.32.08-.39a2.55,2.55,0,0,0,.71,0l0-.18c-.12,0-.28.15-.36.1a1.55,1.55,0,0,1,.06-.77l-.14.37c-.38,0-.4,0-.62-.55l0,.2c-.11.09-.22.16-.12-.15-.18-.13-.27-.45-.1-1l-.25.4s.3-.68-.06-.12l-.18.13c0-.06-.2.14-.09-.12h0l0,0,0,0c0-.23-.25.34-.2,0s-.42.45-.41.3l.4-.56c.19-.36-.29.13-.43,0a4.07,4.07,0,0,1,1-.94c-.5.37-.32.25-.59.38.19-.17.24-.19.42-.33s-.2.12-.22.07c-.39.28-1,.72-1.07.72l-.1.11c-.26.09-.41.05-.26-.17l.2-.12-.16,0,.27-.16-.16-.07-.07.06s-.19-.08-.07-.21l.15-.07c.21-.2.14-.24,0-.27s-.33-.08-.4-.18l.34-.08c.31-.17-.52.14-.38,0l.41-.12c-.57.08.08-.13.28-.23l-.54.16.1-.13a2.79,2.79,0,0,1,1-.27l-.45,0,.49-.11c-.58.06.08-.06-.25-.08a1.79,1.79,0,0,0,.37-.08c-.24,0-.47,0-.71,0l.32.05-.72.09c-.56,0,.07-.15-.14-.2l.22,0c-.19-.11.12-.14.27-.22a.81.81,0,0,1-.43,0s.25,0,.33-.07c-.49,0-.74-.07-.51-.16h.17c-.07,0-.2,0-.08-.07h.54l-.52-.06c.15-.05-.24-.12.12-.11l.11,0a2.07,2.07,0,0,1,.15-.34l.43,0c-.59-.09.24-.15-.5-.22.4,0-.25-.3.57-.13.12-.17-.67-.49-.18-.64.7.12.54-.16.68-.26a3.75,3.75,0,0,1-.22-.53,1.62,1.62,0,0,1-.1-.54c.46.21.44.08.4-.09s-.09-.39.17-.26l-.25-.32c.53.39.16-.34.66.06a1.45,1.45,0,0,1-.08-.23,2.08,2.08,0,0,1-.21-.27c.14.12.1-.12.36.3l0,0c.26.43,0-.28.26.07l-.29-.45.14,0,0,.1c-.07-.64.2-.6.41-.54s.41.15.54-.43c.08.58,0-.32.19.29s.2-.21.28-.45a.41.41,0,0,1,0-.12l.22,0c0,.81,0-.68,0,0,.59.52,1.3-.12,2,.19l0-.21c.18,0,.43-.19.55.15s.36-.49.43-.52c.2-.34.28.38.21.34.18-.08.44-.79.65-.45,0,.69.79-.56.69.2v-.06c.24.58.7-.27,1,.28l0,.1L94,100l.26-2.56c-.1-.73-.2-1.45-.32-2.18-.67,0-1.36.08-2.06.14-.51-.34-1.05-.67-1.63-1a18.9,18.9,0,0,0-4.65.51l-.23.64a1.57,1.57,0,0,0-1.69.07,3.15,3.15,0,0,1-1.72.56l.21.45c-.26.17-.39-.11-.51-.14a10.39,10.39,0,0,0-3.21,3.37c-.78,1.26-1.34,2.5-2,3.66-.41.15-.37.95-.75,1.08a5.23,5.23,0,0,1,.31,2.66l0,0,.1.39a.23.23,0,0,1-.14,0c.49.43.08,1.15,0,1.76l-.06,0a9.34,9.34,0,0,0,2.22,4.49,26.05,26.05,0,0,0,3.78,3.4,3.26,3.26,0,0,0,2.27,1.11,9.48,9.48,0,0,1,2.59.53c.14.27,1.15.33,2.12.16A5.13,5.13,0,0,0,90.9,118.35Z"/><path class="cls-1" d="M95.22,115.34v0C95.35,115.51,95.32,115.44,95.22,115.34Z"/><polygon class="cls-1" points="88.16 112.36 88.18 112.37 88.1 112.08 88.16 112.36"/><path class="cls-1" d="M90.35,111.55c-.12,0-.11,0-.06.1S90.36,111.62,90.35,111.55Z"/><path class="cls-1" d="M96.15,113.83c.08-.08,0-.13-.19-.16l-.09.17A2.62,2.62,0,0,1,96.15,113.83Z"/><path class="cls-1" d="M93.75,112.25l-.11-.13C93.64,112.18,93.69,112.22,93.75,112.25Z"/><path class="cls-1" d="M121,7.2s0,0,0,0Z"/><path class="cls-1" d="M134.93,6.47h0c0-.1,0-.19,0-.26Z"/><path class="cls-1" d="M137.17,7.09v0C137.18,7.06,137.18,7,137.17,7.09Z"/><path class="cls-1" d="M129.76,7.4s0,0,0,0Z"/><path class="cls-1" d="M116.88,7.73h0a.25.25,0,0,0,0-.07Z"/><path class="cls-1" d="M116.93,7.56a.13.13,0,0,1,0,.17c.06.13.11.14.17.08S117,7.68,116.93,7.56Z"/><path class="cls-1" d="M109.43,8.16l0-.06Z"/><path class="cls-1" d="M130,15l0,0S130,15,130,15Z"/><path class="cls-1" d="M110.61,8.32V8.07A2.36,2.36,0,0,0,110.61,8.32Z"/><path class="cls-1" d="M135,6.21V6.12S135,6.17,135,6.21Z"/><path class="cls-1" d="M139.24,7.25a1,1,0,0,0,0,.19h0Z"/><path class="cls-1" d="M149.68,11.15s0-.07,0-.1l0,.17A.13.13,0,0,0,149.68,11.15Z"/><path class="cls-1" d="M142.08,8.31s0-.05,0-.08-.18-.1-.34-.09v.3Z"/><path class="cls-1" d="M145.19,15.32l-.31-.6c1-.28,1.43.33,2.26-.16l0,.13c.13.14.19-1.22,1.53.44v.06s0-.13.14,0l-.23-.37c.14-.15.26-.44.44-.48a.65.65,0,0,1,.06.29l.45-.11.14.4c.14-.22.08-1,.45-.58-.14-.57.18-.34.14-.64a2.9,2.9,0,0,0,.09.28c.22-.07.64-.23.74-.52A12.28,12.28,0,0,1,150,11.67c.31.16.08-.07,0-.26l0,.14c-.19-.14-.19-.5-.28-.6V11a.37.37,0,0,1,0,.15c0,.07,0,.13-.06.11v0c-.08.06-.21,0-.27,0v-.3c-.14.58-.93-.87-1.11-.89-.19-.38-.42.09-.65-.1s-.18-.44-.37-.7.05.35,0,.37l-.27-.42c.16,0,.07-.21,0-.33-.24-.05-.62-.61-.69,0-.33-.29-.33-.53-.47-.56.05.11.14.21.14.33-.13-.27-.06.06,0,.12-.2.26-1-1.09-1.07-.43V8.16a5.15,5.15,0,0,1-.11,1.24l-.1-.22-.13.21a.48.48,0,0,1-.05-.35c-.23.23-.54,0-.82-.11l.29,1.34c-.23-.31-.65-.94-.69-.51l-.14-.45c-.46-.86-.32.38-.51.12l-.23-.49h.23a3.64,3.64,0,0,1-.51-.73v0a.14.14,0,0,1,0,.07h0c0,.25-.15.42-.31.4s-.42.29-.79-.23l-.09.5-.28-.29v-.4c.28,0,.79-.13,1.14-.15V8c-.2,0-.44.18-.58.14a1,1,0,0,1-.11-.76l-.13.39a1.64,1.64,0,0,1-1.42-.39l.07.2c-.15.12-.29.23-.33-.09a1.63,1.63,0,0,1-1.17-.83l-.06.47c-.09,0-.23-.73-.27-.07l-.2.2c-.12,0-.2.24-.34,0h0l0,0v0c-.28-.21,0,.42-.32.15-.1-.34-.11.6-.27.49l-.16-.68c-.29-.38-.34.29-.75.3a1.7,1.7,0,0,1-.17-1.33c-.18.62-.08.4-.32.7a1.08,1.08,0,0,1,0-.54c-.21-.3-.13.23-.29.22a9.63,9.63,0,0,1-.15,1.27l.06.15c-.17.26-.36.38-.56.14V7.78l-.21.13V7.6l-.31.09,0,.09c-.08,0-.31.14-.44,0V7.59c-.37-.53-.68.17-1.12.22l.06-.35c-.15-.34,0,.54-.22.37V7.4c-.16.56-.2-.12-.31-.33l.05.56-.21-.12c-.22-.19-.13-.71-.1-1l-.15.45,0-.5c-.11.58-.11-.09-.31.22,0-.19,0-.3,0-.38l-.33.7.2-.31,0,.73c-.2.55-.27-.08-.41.12l.1-.21c-.24.17-.25-.14-.39-.3,0,.14.11.34,0,.43s0-.25-.1-.33c0,.48-.19.74-.34.51a.92.92,0,0,1,0-.18c0,.08-.06.2-.12.09l0-.54-.14.51c-.08-.15-.21.24-.2-.12l0-.11-.66-.13V6.72c-.07.6-.36-.22-.34.52-.13-.41-.49.28-.42-.55-.44-.07-.67.74-1.2.33-.19-.71-.71-.48-1-.55-.66.29-1.09.56-1.77.79-.41-1-1,.34-1.46-.22l-.12.39c-.3-.62-.74.14-1.15-.47a.76.76,0,0,1-.18.24s.05.09.06.34c-.12-.17-.36,0-.34-.45l0,0c0-.5-.36.23-.49-.2l.08.53-.23-.09.06-.1c-1,1.18-1.4-.51-2.3.57.12-.58-.18.31-.19-.33-.23-.8-.42.18-.61.39a.57.57,0,0,1,0,.12l-.33-.08c.19-.8-.24.67-.06,0-.85-.6-2,0-3-.26l0,.2c-.25,0-.56.22-.75-.12s-.42.53-.49.56c-.21.36-.4-.35-.31-.31-.22.1-.43.83-.74.51-.1-.68-.84.67-.85-.09v.06c-.4-.54-.77.38-1.2-.11l0-.11-.86,2.33.24,2.57.75,2.08,2-.45,1.63.81,4-.27.28-.58c.78,1,1.77-.15,2.61.57l0-.5c.23,0,.22.28.28.37,2.19-.11,4.46-.78,6.43-.15.19.33.77.14.92.48a2.27,2.27,0,0,1,2-.54l0,.06.31-.1a.33.33,0,0,1,0,.14c.34-.44.88,0,1.3.17l0,.06c2.44.09,4.7-.84,7.12-.14,1.13.81,2.44-.31,3.73.36C142.34,15.93,145,15.56,145.19,15.32Z"/><path class="cls-1" d="M149,14.66h0C149,14.87,149,14.79,149,14.66Z"/><path class="cls-1" d="M143.64,8.92h0l-.06-.3Z"/><path class="cls-1" d="M147.09,8.75c-.15-.07-.16,0-.14.07A.11.11,0,0,0,147.09,8.75Z"/><path class="cls-1" d="M150.3,14.26c.08,0,0-.11,0-.25l-.14,0C150.21,14.1,150.25,14.21,150.3,14.26Z"/><path class="cls-1" d="M150,11.41l0-.17C149.94,11.28,150,11.34,150,11.41Z"/><path class="cls-1" d="M156.45,67.09c0-.08,0-.12,0,0Z"/><path class="cls-1" d="M157.2,130.13v.07l.26.12Z"/><path class="cls-1" d="M156.58,140.27l0,.07C156.61,140.33,156.67,140.34,156.58,140.27Z"/><path class="cls-1" d="M156.26,106.77a.19.19,0,0,0,0-.17A.69.69,0,0,1,156.26,106.77Z"/><path class="cls-1" d="M155.9,48.5v0l.06-.11Z"/><path class="cls-1" d="M156.08,48.71c-.08.22-.15-.06-.17-.16a1,1,0,0,0-.08.74C156,49.29,156,48.82,156.08,48.71Z"/><path class="cls-1" d="M155.46,14.79l.07.1A.36.36,0,0,0,155.46,14.79Z"/><path class="cls-1" d="M148.68,107.77a.94.94,0,0,0,0-.16A.28.28,0,0,0,148.68,107.77Z"/><path class="cls-1" d="M155.31,20.11l.25.06A.53.53,0,0,0,155.31,20.11Z"/><path class="cls-1" d="M157.46,130.32l.09.08A.36.36,0,0,0,157.46,130.32Z"/><path class="cls-1" d="M156.43,149.64a.74.74,0,0,0-.19.05v0Z"/><path class="cls-1" d="M152.55,196.88l.09,0-.17-.19A.51.51,0,0,0,152.55,196.88Z"/><path class="cls-1" d="M155.37,162.5s0,0,.09,0a6.77,6.77,0,0,0,.09-1.54l-.31,0Z"/><path class="cls-1" d="M148.36,176.56l.61-1.37c.28,4.39-.33,6.45.16,10.21l-.13-.21c-.14.55,1.22.86-.44,6.91h-.06c0,.21.13.21,0,.63l.37-1a9.24,9.24,0,0,1,.49,2,.38.38,0,0,1-.29.26l.1,2.05-.39.63c.21.62,1,.34.58,2,.57-.63.34.83.63.63a4.94,4.94,0,0,0-.27.43,12.31,12.31,0,0,0,.52,3.34,42.39,42.39,0,0,1,1.81-4.95c-.15,1.4.07.37.27.09l-.15-.09c.14-.84.51-.84.61-1.26l-.11,0,.05.05a.1.1,0,0,1-.14,0c-.08,0-.14,0-.12-.26l0,0a6,6,0,0,1,0-1.22h.3c-.57-.62.88-4.18.9-5,.38-.84-.1-1.88.09-2.93.1-1.68.44-.84.7-1.68.19-1.05-.35.21-.37-.21l.42-1.25c0,.73.22.33.33.2,0-1.09.61-2.8,0-3.14.29-1.46.53-1.47.56-2.09-.11.21-.21.62-.33.63.27-.59-.06-.28-.12,0-.27-.9,1.09-4.65.43-4.84h.12c-.49-.2-1,.13-1.24-.49l.22-.42-.21-.63c.16-.42.29-.21.35-.21a15.48,15.48,0,0,1,.11-3.69l-1.34,1.31c.3-1.05.93-2.93.5-3.14l.45-.63c.86-2.1-.37-1.46-.11-2.3l.49-1.05v1a15.24,15.24,0,0,1,.73-2.3,0,0,0,0,1,0,0c0,.06-.05.1-.08.1v-.14c-.25-.13-.41-.68-.4-1.41.07-1.05-.29-1.87.23-3.55l-.5-.41.29-1.26h.4c0,1.23.13,3.55.16,5.13l.18,0c0-.94-.18-2-.14-2.63.08-.3.49-1.07.76-.51l-.39-.58a28.77,28.77,0,0,1,.39-6.42l-.2.28c-.12-.65-.24-1.3.09-1.48a17.88,17.88,0,0,1,.82-5.27l-.47-.28c0-.41.74-1,.08-1.23l-.21-.89c0-.57-.23-.91,0-1.56h0l.05-.12h0c.2-1.28-.43,0-.16-1.45.34-.47-.59-.52-.49-1.24l.68-.72c.38-1.29-.29-1.51-.3-3.39.24-.91.82-1.34,1.33-.74-.62-.83-.4-.38-.7-1.47.26-.16.31-.05.54.19.3-1-.23-.6-.22-1.32-.48-.22-1.24-.46-1.27-.7l-.15.28a4.25,4.25,0,0,1-.14-2.51l.24,0-.12-1,.31-.06-.1-1.37-.08.19a6.48,6.48,0,0,1,0-2l.18,0c.53-1.7-.17-3.1-.23-5.09l.35.26c.35-.68-.54-.18-.36-1l.43,0c-.57-.71.12-.92.33-1.41l-.56.23.11-.92c.19-1,.72-.63,1-.48l-.44-.69.49-.13c-.57-.51.1-.51-.21-1.39.18-.08.29.15.37-.15l-.7-1.46.31.88-.73-.11c-.55-.92.08-1.24-.12-1.9l.22.45c-.18-1.07.13-1.12.29-1.73-.14.19-.34.48-.43,0s.25-.17.33-.47c-.48-.07-.74-.84-.51-1.53a.23.23,0,0,1,.18.07c-.08-.18-.2-.27-.09-.58l.54.18-.51-.6c.15-.39-.24-1,.12-.92l.11.23.13-3,.43,0c-.6-.29.22-1.63-.52-1.53.4-.57-.28-2.23.55-1.9.06-2-.74-3-.33-5.44.7-.85.47-3.19.55-4.73-.3-3-.57-5-.8-8,1-1.85-.34-4.61.22-6.6l-.39-.55c.62-1.32-.14-3.34.47-5.19a3.44,3.44,0,0,1-.24-.8c0,.08-.1.21-.35.25.18-.53,0-1.6.46-1.53l.05.14c.49.08-.24-1.61.19-2.2l-.53.32.09-1,.1.27c-1.18-4.36.51-6.33-.57-10.43.58.55-.31-.8.33-.86.8-1-.18-1.91-.39-2.76a.17.17,0,0,1-.12-.06l.08-1.48c.8.89-.67-1.06,0-.25.6-3.86,0-8.89.26-13.36l-.21.19c0-1.13-.21-2.54.12-3.4s-.53-1.88-.56-2.21c-.36-.94.35-1.8.31-1.4-.1-1-.83-1.95-.52-3.35.69-.48-.67-3.81.1-3.86h-.06c.54-1.79-.38-3.48.11-5.41l.1.1-2.33-3.92L150.57,12l-2.08,3.4.45,9.22L148.13,32l.28,17.9.58,1.28c-1,3.52.16,8-.56,11.82l.49.08a1.48,1.48,0,0,1-.36,1.26c.11,9.94.78,20.18.16,29.12-.33.86-.14,3.49-.49,4.16a39.71,39.71,0,0,1,.55,8.89l-.06-.11.1,1.37c0,.06-.1.07-.14,0,.44,1.54,0,4-.17,5.87l-.06-.11c-.08,11,.85,21.29.16,32.24-.81,5.09.31,11-.36,16.85C147.75,163.69,148.13,175.51,148.36,176.56Z"/><path class="cls-1" d="M149,194v0C148.83,193.9,148.91,194,149,194Z"/><path class="cls-1" d="M154.76,169.54v.08l.29-.29Z"/><path class="cls-1" d="M154.94,185.17c.07-.7,0-.73-.07-.63A1.68,1.68,0,0,0,154.94,185.17Z"/><path class="cls-1" d="M149.44,199.69c0,.37.11.23.25,0,0-.38,0-.64,0-.64C149.6,199.27,149.49,199.47,149.44,199.69Z"/><path class="cls-1" d="M152.29,198.18l.17.12C152.42,198.08,152.35,198.09,152.29,198.18Z"/><path class="cls-1" d="M139.11,206.7s0,0,0,0Z"/><path class="cls-1" d="M124,207.44h0c0,.1,0,.19,0,.25Z"/><path class="cls-1" d="M121.55,206.81l0,0C121.54,206.85,121.53,206.91,121.55,206.81Z"/><path class="cls-1" d="M129.59,206.5s0,0,0-.05S129.6,206.5,129.59,206.5Z"/><path class="cls-1" d="M143.56,206.17h0l0,.06Z"/><path class="cls-1" d="M143.52,206.34c-.06-.07,0-.14,0-.16s-.12-.15-.18-.08S143.49,206.23,143.52,206.34Z"/><path class="cls-1" d="M151.65,205.74l0,.07A.64.64,0,0,0,151.65,205.74Z"/><path class="cls-1" d="M129.35,198.93l0,0S129.36,198.9,129.35,198.93Z"/><path class="cls-1" d="M150.37,205.59v.24A1,1,0,0,0,150.37,205.59Z"/><path class="cls-1" d="M123.94,207.69l0,.1A.44.44,0,0,1,123.94,207.69Z"/><path class="cls-1" d="M119.3,206.65a1,1,0,0,0,0-.18h0Z"/><path class="cls-1" d="M108,202.76a.28.28,0,0,0,0,.09l0-.17A.16.16,0,0,0,108,202.76Z"/><path class="cls-1" d="M116.22,205.59s0,.06,0,.09.19.1.37.09v-.3Z"/><path class="cls-1" d="M112.85,198.58l.32.61c-1,.27-1.54-.33-2.45.16l0-.13c-.13-.14-.2,1.21-1.65-.45v-.06c-.05,0-.05.14-.15,0l.25.38c-.15.15-.28.44-.48.48a.65.65,0,0,1-.07-.29l-.49.1L108,199c-.15.21-.08,1-.48.58.15.57-.2.34-.15.63a2.57,2.57,0,0,0-.11-.27c-.23.06-.68.22-.8.52a11.8,11.8,0,0,1,1.19,1.81c-.34-.15-.09.07,0,.27l0-.15c.2.14.2.5.3.6v-.1l0,.05a.31.31,0,0,1,0-.14c0-.08,0-.14.06-.12v0a.39.39,0,0,1,.3,0v.3c.15-.57,1,.88,1.2.9.2.38.45-.1.71.09s.2.44.4.7,0-.35.05-.37l.3.42c-.18,0-.08.22,0,.34.26,0,.67.6.75,0,.35.29.36.53.51.56,0-.11-.15-.21-.16-.33.14.26.07-.07,0-.13.22-.26,1.12,1.1,1.16.44v.12a4.24,4.24,0,0,1,.12-1.24l.1.22.15-.21a.45.45,0,0,1,.06.35c.24-.23.58,0,.88.11l-.31-1.34c.25.3.7.93.75.5l.15.45c.5.86.35-.37.55-.11l.25.49h-.25a3.81,3.81,0,0,1,.56.73h0a.11.11,0,0,1,0-.08h0c0-.24.16-.41.34-.39s.44-.3.85.22l.1-.5.3.3v.4c-.3,0-.85.13-1.23.15V206c.23,0,.48-.18.63-.14a.88.88,0,0,1,.12.77l.14-.39a1.81,1.81,0,0,1,1.54.39l-.06-.2c.15-.12.31-.24.35.09a1.72,1.72,0,0,1,1.26.82l.07-.47c.1,0,.25.74.3.08l.21-.21c.14,0,.22-.23.37,0h0l0,.06v0c.31.2,0-.43.35-.15.11.33.13-.6.3-.5l.17.68c.31.39.36-.29.82-.29a1.58,1.58,0,0,1,.17,1.33c.2-.62.09-.41.35-.7a.94.94,0,0,1,0,.53c.23.3.14-.23.32-.21a9.28,9.28,0,0,1,.16-1.28l-.06-.15c.18-.25.38-.37.6-.13v.24l.23-.12v.31l.33-.1,0-.08c.07,0,.33-.15.47,0v.17c.4.54.74-.16,1.22-.22l-.07.35c.17.35,0-.54.24-.36v.43c.17-.57.22.12.34.33l-.06-.56.22.12c.25.18.15.71.12,1l.16-.44,0,.5c.12-.58.12.09.33-.22,0,.19,0,.29,0,.37l.35-.7-.21.31,0-.72c.22-.55.3.08.46-.13l-.11.22c.25-.18.27.13.41.29,0-.13-.11-.33,0-.43s0,.26.12.34c0-.49.2-.74.37-.51,0,.06,0,.13,0,.17s.06-.2.14-.08l-.05.54.15-.52c.09.15.23-.24.22.12l-.06.11.72.13v.43c.07-.59.4.23.37-.51.14.4.54-.29.46.55.47.06.73-.74,1.3-.34.21.71.77.48,1.14.56a19.87,19.87,0,0,1,1.92-.79c.45,1,1.11-.34,1.59.22l.13-.4c.31.63.8-.14,1.24.47a.8.8,0,0,1,.2-.24s-.05-.09-.06-.34c.12.18.38,0,.36.46l0,.05c0,.49.39-.24.53.2l-.08-.54.24.09-.06.1c1-1.18,1.51.51,2.5-.57-.13.58.19-.3.2.33.25.8.46-.17.66-.38a.6.6,0,0,1,0-.12l.35.08c-.21.8.26-.67.06,0,.93.6,2.14,0,3.21.27l0-.21c.28,0,.61-.21.82.12s.45-.52.53-.56c.23-.35.43.35.34.32.24-.1.46-.83.8-.52.11.68.91-.67.92.1v-.07c.43.55.83-.37,1.3.12a.65.65,0,0,1,0,.1l.94-2.33-.27-2.56-.81-2.08-2.21.45-1.77-.82-4.29.28-.31.58c-.84-1-1.93.15-2.84-.57l0,.5c-.25,0-.23-.28-.3-.37-2.38.11-4.84.77-7,.15-.21-.33-.84-.14-1-.49a2.6,2.6,0,0,1-2.13.54l0-.05-.33.09a.28.28,0,0,1,0-.13c-.37.44-1,0-1.41-.18l0-.05c-2.65-.09-5.11.83-7.74.14-1.22-.81-2.64.31-4-.37C115.93,198,113.1,198.35,112.85,198.58Z"/><path class="cls-1" d="M108.67,199.25h0C108.68,199,108.67,199.12,108.67,199.25Z"/><path class="cls-1" d="M114.53,205h0l.07.29Z"/><path class="cls-1" d="M110.78,205.16c.17.06.17,0,.15-.07A.12.12,0,0,0,110.78,205.16Z"/><path class="cls-1" d="M107.3,199.65c-.09,0-.06.11,0,.25l.16,0C107.4,199.81,107.35,199.7,107.3,199.65Z"/><path class="cls-1" d="M107.66,202.5l0,.17A.15.15,0,0,0,107.66,202.5Z"/></g></g></svg>