<svg width="183" height="52" viewBox="0 0 183 52" fill="none" xmlns="http://www.w3.org/2000/svg">
<g filter="url(#filter0_d_359_20813)">
<path d="M7.13996 7.6363L7.3542 6.34464C7.51377 5.38263 8.34387 4.67593 9.31902 4.67192L171.408 4.00512C172.169 4.00199 172.867 4.43201 173.206 5.11412L174.138 6.98697C174.232 7.17535 174.264 7.3885 174.23 7.59609L173.775 10.336C173.751 10.4793 173.759 10.6261 173.798 10.7661L174.8 14.3928C174.817 14.4546 174.84 14.5145 174.869 14.5719L176.051 16.9468C176.309 17.4649 176.329 18.0693 176.108 18.6039L175.427 20.2445C175.389 20.3369 175.337 20.4229 175.273 20.4999L173.969 22.0722C173.82 22.2517 173.739 22.4775 173.739 22.7106V23.4615C173.739 23.5929 173.765 23.7231 173.815 23.8445L174.79 26.1946C174.814 26.2527 174.832 26.313 174.845 26.3746L175.281 28.4741C175.337 28.7477 175.277 29.0326 175.114 29.2597L174.464 30.1669C174.26 30.4506 174.22 30.8197 174.356 31.1409L175.833 34.614C175.886 34.7378 175.913 34.8709 175.913 35.0054V37.9757C175.913 38.044 175.92 38.112 175.934 38.1788L176.503 40.9249C176.76 42.1632 175.817 43.3259 174.553 43.3309L9.99914 43.9905C8.76065 43.9955 7.81542 42.8851 8.01808 41.6633L8.13355 40.9671C8.16011 40.8069 8.14728 40.6427 8.09616 40.4886L7.087 37.4465L6.04509 32.4211C6.01539 32.2779 6.01748 32.1299 6.05121 31.9876L7.02783 27.8659C7.06665 27.7021 7.06348 27.5311 7.01863 27.3689L6.77022 26.4703C6.62535 25.9462 6.70007 25.3858 6.97717 24.9181L9.04416 21.4287C9.1827 21.1948 9.22006 20.9146 9.14763 20.6526L8.79115 19.3631C8.74295 19.1887 8.74295 19.0045 8.79115 18.8302L9.15228 17.5238C9.22197 17.2717 9.19012 17.0024 9.06358 16.7735L8.33498 15.4557C8.23047 15.2667 8.18998 15.0489 8.21955 14.8349L8.67521 11.5383C8.70276 11.339 8.66954 11.136 8.57991 10.9559L7.2312 8.24542C7.13746 8.05704 7.10553 7.84388 7.13996 7.6363Z" fill="#DBE0D1"/>
</g>
<defs>
<filter id="filter0_d_359_20813" x="0.0234375" y="0.00585938" width="182.521" height="51.9844" filterUnits="userSpaceOnUse" color-interpolation-filters="sRGB">
<feFlood flood-opacity="0" result="BackgroundImageFix"/>
<feColorMatrix in="SourceAlpha" type="matrix" values="0 0 0 0 0 0 0 0 0 0 0 0 0 0 0 0 0 0 127 0" result="hardAlpha"/>
<feOffset dy="2"/>
<feGaussianBlur stdDeviation="3"/>
<feComposite in2="hardAlpha" operator="out"/>
<feColorMatrix type="matrix" values="0 0 0 0 0 0 0 0 0 0 0 0 0 0 0 0 0 0 0.2 0"/>
<feBlend mode="normal" in2="BackgroundImageFix" result="effect1_dropShadow_359_20813"/>
<feBlend mode="normal" in="SourceGraphic" in2="effect1_dropShadow_359_20813" result="shape"/>
</filter>
</defs>
</svg>
