<svg width="14" height="40" viewBox="0 0 14 40" fill="none" xmlns="http://www.w3.org/2000/svg">
<path d="M0.973946 3.6785L1.15674 2.39652C1.29726 1.41099 2.14121 0.678836 3.13672 0.678839L8.44248 0.678859C9.24303 0.678862 9.96646 1.15625 10.2813 1.89229L11.0538 3.69828C11.1258 3.86661 11.1502 4.05148 11.1244 4.23273L10.7235 7.04459C10.7058 7.16868 10.7116 7.295 10.7405 7.41695L11.6113 11.0812C11.6245 11.1366 11.6424 11.1909 11.6648 11.2433L12.7247 13.721C12.9228 14.1841 12.9389 14.7048 12.7698 15.1792L12.1452 16.9314C12.1141 17.0185 12.0711 17.1009 12.0175 17.1762L10.8824 18.7682C10.7616 18.9377 10.6967 19.1406 10.6967 19.3487V20.1665C10.6967 20.281 10.7163 20.3945 10.7547 20.5023L11.6032 22.8825C11.6218 22.9346 11.636 22.9882 11.6457 23.0428L12.0314 25.2068C12.0745 25.4486 12.0271 25.6978 11.8983 25.9069L11.2926 26.8899C11.132 27.1505 11.0996 27.4703 11.2047 27.7578L12.5048 31.3141C12.545 31.4241 12.5656 31.5404 12.5656 31.6575V34.6688C12.5656 34.7276 12.5708 34.7863 12.5811 34.8442L13.081 37.6491C13.2994 38.8747 12.357 40 11.112 40L3.70705 40C2.49017 40 1.55531 38.9224 1.72708 37.7177L1.83883 36.9339C1.85864 36.795 1.84898 36.6535 1.8105 36.5185L0.934436 33.4465L0.0335022 28.3916C0.0113673 28.2674 0.0129305 28.1402 0.0381091 28.0165L0.890404 23.8323C0.91941 23.6899 0.91703 23.5429 0.883431 23.4015L0.637143 22.3652C0.527446 21.9035 0.585427 21.418 0.80073 20.9952L2.63655 17.3901C2.7442 17.1787 2.77319 16.9359 2.71835 16.7051L2.39103 15.3278C2.35491 15.1758 2.35491 15.0174 2.39103 14.8654L2.72191 13.473C2.77459 13.2514 2.74999 13.0184 2.65219 12.8126L1.99276 11.4251C1.91182 11.2548 1.88068 11.0651 1.90293 10.8779L2.30455 7.49783C2.32521 7.3239 2.29983 7.1476 2.23095 6.98656L1.04452 4.21294C0.972513 4.04461 0.948103 3.85975 0.973946 3.6785Z" fill="#F5F5F0"/>
</svg>
