<svg width="24" height="25" viewBox="0 0 24 25" fill="none" xmlns="http://www.w3.org/2000/svg">
<path d="M11.0929 0.500411C11.5299 0.496075 11.9626 0.526423 12.3953 0.574113C12.8151 0.621802 13.2348 0.669492 13.6502 0.730187C14.0051 0.777877 14.3642 0.834237 14.7147 0.903604C15.0868 0.977306 15.446 1.10737 15.7965 1.25911C16.3417 1.49755 16.8523 1.80537 17.3673 2.09584C17.9558 2.42967 18.5486 2.75916 19.1371 3.09732C19.6087 3.37045 20.0588 3.67393 20.4482 4.05978C20.7252 4.33725 20.9891 4.63639 21.2487 4.9312C21.5733 5.30404 21.8719 5.68989 22.1531 6.09742C22.4777 6.56565 22.7459 7.06422 22.9883 7.58013C23.2219 8.08737 23.421 8.60762 23.5811 9.14088C23.6979 9.53106 23.7931 9.92992 23.8624 10.3331C23.9835 11.0224 24.0311 11.7161 23.9792 12.4141C23.9446 12.8607 23.871 13.3029 23.7369 13.7277C23.6547 13.9879 23.5638 14.248 23.4945 14.5124C23.4296 14.7422 23.3864 14.9763 23.3388 15.2104C23.2695 15.5616 23.2046 15.9171 23.1354 16.2726C23.0791 16.5804 22.9926 16.8796 22.8844 17.17C22.7546 17.5169 22.5685 17.829 22.3608 18.1368C21.98 18.7048 21.53 19.2164 21.0757 19.7279C20.7511 20.0921 20.4223 20.452 20.0674 20.7901C19.5698 21.2583 19.0376 21.6832 18.4491 22.0344C17.9471 22.3379 17.4278 22.6153 16.9129 22.9015C16.5321 23.1139 16.147 23.3177 15.7446 23.4867C15.4547 23.6081 15.1604 23.7208 14.8489 23.7772C14.6368 23.8162 14.4378 23.7859 14.243 23.6905C14.1825 23.6602 14.1305 23.6558 14.0656 23.6732C13.9791 23.6992 13.8839 23.7035 13.7887 23.7165C13.2694 23.7859 12.7502 23.8249 12.2266 23.8336C11.7463 23.8422 11.2659 23.8206 10.7856 23.7815C10.3096 23.7425 9.83798 23.6818 9.37065 23.5865C8.97255 23.5041 8.57445 23.4044 8.18067 23.3046C7.7869 23.2093 7.40611 23.0749 7.02964 22.9318C6.62722 22.7801 6.23777 22.6066 5.85265 22.4159C5.34205 22.1601 4.84875 21.874 4.38141 21.5445C3.89244 21.202 3.43376 20.8248 3.01402 20.3999C2.50774 19.8927 2.06205 19.3421 1.68558 18.7308C1.33075 18.1542 1.04516 17.5429 0.841782 16.8969C0.690331 16.4114 0.534553 15.9215 0.387429 15.4316C0.274922 15.0457 0.179724 14.6555 0.106162 14.261C0.00231014 13.7017 -0.0193257 13.1425 0.0152917 12.5745C0.0455819 12.0976 0.0888537 11.6207 0.166743 11.1482C0.23165 10.7493 0.318194 10.3548 0.404737 9.95593C0.517244 9.45303 0.67735 8.95879 0.859091 8.47756C1.1317 7.75788 1.4649 7.06855 1.863 6.40523C2.46015 5.40809 3.17846 4.50633 4.03091 3.71295C4.43767 3.33143 4.86606 2.97593 5.34637 2.68546C5.74015 2.44267 6.1469 2.23024 6.55798 2.02647C7.09888 1.75768 7.63978 1.48888 8.18067 1.22009C8.50088 1.05968 8.82975 0.907939 9.16727 0.786548C9.66057 0.613131 10.1625 0.500411 10.6861 0.500411C10.8203 0.500411 10.9587 0.500411 11.0929 0.500411ZM1.71154 12.8043C1.71154 12.9083 1.70722 13.0124 1.71154 13.1164C1.72453 13.6367 1.78511 14.1526 1.87598 14.6642C1.95387 15.1021 2.05339 15.5313 2.17888 15.9561C2.28273 16.2986 2.38658 16.6368 2.50342 16.975C2.59862 17.2438 2.70247 17.5169 2.82363 17.7727C3.07028 18.3059 3.42943 18.7655 3.83186 19.186C4.12611 19.4895 4.43334 19.78 4.74057 20.0704C5.13001 20.4346 5.51513 20.8031 5.9392 21.1283C6.27672 21.3884 6.62722 21.6355 7.02099 21.8003C7.34986 21.939 7.68305 22.0561 8.02057 22.1731C8.46194 22.3292 8.91197 22.4419 9.37065 22.546C9.83798 22.65 10.314 22.728 10.79 22.7844C11.703 22.8928 12.616 22.9058 13.5334 22.8017C13.6762 22.7844 13.8147 22.7844 13.9531 22.8234C14.0007 22.8364 14.0397 22.8278 14.0786 22.7974C14.1738 22.7194 14.282 22.6717 14.4032 22.637C14.5459 22.5936 14.6887 22.5503 14.8272 22.4983C15.2383 22.3422 15.6321 22.1428 16.0085 21.9173C16.3937 21.6875 16.7744 21.4448 17.1552 21.2106C17.7957 20.8161 18.3798 20.3522 18.8861 19.793C19.2712 19.3724 19.6434 18.9389 20.0112 18.501C20.2492 18.2192 20.4699 17.9201 20.6862 17.6166C21.0843 17.053 21.3266 16.4244 21.4435 15.7437C21.4997 15.4272 21.5776 15.1151 21.6728 14.8073C21.8113 14.3737 21.9584 13.9402 22.1012 13.5066C22.2526 13.0471 22.3219 12.5702 22.3262 12.0846C22.3305 11.5427 22.2873 11.0051 22.1791 10.4718C22.1099 10.1293 22.0363 9.78685 21.9411 9.44869C21.8199 9.00648 21.6642 8.57727 21.4781 8.16107C21.2574 7.65383 21.0021 7.16393 20.6862 6.70438C20.353 6.21881 20.0025 5.74625 19.6174 5.29971C19.2972 4.92686 18.9553 4.57136 18.5572 4.28089C18.2024 4.01643 17.8259 3.78665 17.4365 3.57421C16.9259 3.29675 16.411 3.02362 15.909 2.73748C15.4417 2.47302 14.9527 2.25625 14.4334 2.11752C13.9704 1.99179 13.4944 1.91375 13.0185 1.85306C12.5122 1.79236 12.0102 1.736 11.5039 1.68831C11.1015 1.64929 10.7034 1.65796 10.3053 1.723C9.9202 1.78803 9.55672 1.91375 9.20621 2.08717C8.70426 2.33862 8.19798 2.58574 7.69603 2.84587C6.9907 3.21004 6.31133 3.61323 5.68822 4.10747C5.16463 4.51933 4.6973 4.98322 4.2992 5.51648C3.83619 6.14077 3.43376 6.79976 3.07893 7.49342C2.6765 8.28247 2.35197 9.10186 2.1183 9.95593C1.99714 10.3895 1.90627 10.8317 1.83703 11.2739C1.75049 11.7811 1.70289 12.2927 1.71154 12.8043Z" fill="#3E5C57"/>
<path d="M13.4683 10.6925C13.4293 11.629 13.3904 12.5698 13.3514 13.5062C13.3298 13.9918 13.3125 14.4773 13.2952 14.9586C13.2909 15.1233 13.2779 15.2837 13.226 15.4398C13.1264 15.7389 12.936 15.9514 12.6461 16.0684C12.2696 16.2202 11.9062 16.1942 11.5686 15.9644C11.3436 15.8127 11.2181 15.5959 11.1749 15.3314C11.1576 15.21 11.1489 15.0886 11.1446 14.9672C11.1056 13.3892 11.1056 11.8154 11.1229 10.2373C11.1273 9.88615 11.11 9.53065 11.11 9.17514C11.1013 8.49449 11.0883 7.81816 11.0927 7.1375C11.097 6.66061 11.1489 6.18371 11.2268 5.71115C11.2528 5.56375 11.2787 5.41635 11.322 5.27328C11.4085 4.98714 11.6033 4.79205 11.8759 4.67933C12.2567 4.52325 12.6331 4.53192 12.9923 4.74436C13.2346 4.88743 13.3731 5.1042 13.425 5.386C13.5765 6.18805 13.5851 6.99877 13.5591 7.80949C13.5289 8.76762 13.4856 9.72574 13.4466 10.6882C13.4639 10.6925 13.4683 10.6925 13.4683 10.6925Z" fill="#3E5C57"/>
<path d="M13.4814 19.0291C13.4597 19.5494 13.265 19.9396 12.8193 20.178C12.5683 20.3124 12.2957 20.3297 12.0231 20.2777C11.5385 20.1867 11.2615 19.8615 11.0928 19.4193C11.0235 19.2329 11.0322 19.0465 11.0581 18.8557C11.0928 18.6086 11.136 18.3658 11.2182 18.1274C11.3048 17.8672 11.4389 17.6331 11.6337 17.4424C11.8543 17.2213 12.127 17.1302 12.4385 17.1822C12.5986 17.2082 12.7371 17.2906 12.8539 17.399C13.1525 17.6808 13.3299 18.0233 13.3862 18.4265C13.4035 18.5349 13.4251 18.6433 13.4424 18.7517C13.464 18.86 13.4727 18.9598 13.4814 19.0291Z" fill="#3E5C57"/>
</svg>
