<svg width="24" height="25" viewBox="0 0 24 25" fill="none" xmlns="http://www.w3.org/2000/svg">
<path d="M4.18683 20.5669C4.1823 20.5525 4.18239 20.5429 4.17314 20.5334C4.16398 20.5142 4.1501 20.4999 4.14094 20.4807C4.11791 20.4472 4.1229 20.4134 4.14186 20.3843C4.15601 20.3698 4.16553 20.3504 4.17969 20.3358C4.19384 20.3212 4.1894 20.2972 4.18014 20.2876C4.17089 20.2781 4.16627 20.2733 4.16173 20.2589C4.15248 20.2494 4.14323 20.2398 4.1387 20.2254C4.11566 20.1919 4.0841 20.0718 4.09381 20.0332C4.0939 20.0236 4.094 20.0139 4.09871 20.0091C4.1321 19.9365 4.15614 19.864 4.21275 19.8056C4.24105 19.7764 4.26936 19.7472 4.29766 19.718C4.32597 19.6888 4.34493 19.6598 4.34529 19.6212C4.34575 19.573 4.36943 19.5391 4.39782 19.5003C4.41197 19.4857 4.43084 19.4662 4.445 19.4516C4.46386 19.4322 4.46405 19.4129 4.45026 19.3889C4.43203 19.341 4.40446 19.2931 4.38624 19.2451C4.3817 19.2307 4.37254 19.2115 4.37735 19.197C4.3779 19.1392 4.37845 19.0814 4.39768 19.0234C4.4122 18.9703 4.42672 18.9171 4.44124 18.864C4.44604 18.8495 4.45085 18.835 4.45566 18.8205C4.46528 18.7915 4.48424 18.7624 4.49386 18.7334C4.49866 18.7189 4.50819 18.6995 4.513 18.685C4.53668 18.6511 4.55573 18.6123 4.57007 18.5785C4.58431 18.5543 4.59383 18.5349 4.60807 18.5107C4.6459 18.4621 4.67911 18.4088 4.71231 18.3555C4.73136 18.3167 4.75504 18.2828 4.78334 18.2536C4.83533 18.1904 4.88259 18.1322 4.92995 18.0642C4.96787 18.0061 5.01504 17.9574 5.05758 17.904C5.08589 17.8748 5.10957 17.8408 5.13787 17.8117C5.2558 17.69 5.36439 17.5685 5.46372 17.4375C5.47316 17.4277 5.47787 17.4229 5.48731 17.4131C5.61477 17.2722 5.72825 17.1265 5.85099 16.9904C5.92184 16.9078 5.99278 16.8155 6.05901 16.7282C6.0874 16.6893 6.12052 16.6457 6.15354 16.6116C6.19608 16.5582 6.24335 16.4999 6.28127 16.4417C6.42315 16.2572 6.56966 16.0775 6.72542 15.9074C6.80561 15.8247 6.88118 15.7372 6.96146 15.6449C7.00401 15.5915 7.05127 15.5332 7.09382 15.4798C7.12221 15.4409 7.15995 15.402 7.18834 15.3632C7.26863 15.2709 7.35354 15.1833 7.43845 15.0957C7.47147 15.0617 7.50921 15.0228 7.5376 14.9839C7.62732 14.8819 7.72629 14.7894 7.81592 14.6969C7.87252 14.6386 7.93385 14.5753 7.99045 14.5169C8.04234 14.4634 8.09423 14.4099 8.14141 14.3613C8.16028 14.3418 8.17915 14.3224 8.20264 14.3077C8.2685 14.2588 8.32982 14.1956 8.3818 14.1324C8.51388 13.9962 8.65068 13.8552 8.78276 13.719C8.84409 13.6557 8.90541 13.5925 8.96674 13.5292C9.05165 13.4417 9.13656 13.3541 9.22609 13.2713C9.25439 13.2421 9.28741 13.2081 9.31572 13.1789C9.43365 13.0573 9.54686 12.9405 9.66479 12.8189C9.67423 12.8092 9.68366 12.7994 9.69309 12.7897C9.70253 12.78 9.70271 12.7607 9.69346 12.7512C9.68884 12.7464 9.68421 12.7416 9.67959 12.7369C9.57764 12.6512 9.48041 12.5606 9.37374 12.4798C9.2532 12.3847 9.13266 12.2896 9.02155 12.1847C8.9752 12.1467 8.92423 12.1038 8.87788 12.0658C8.79443 11.9992 8.71099 11.9326 8.62292 11.8612C8.60904 11.8469 8.58582 11.8327 8.57195 11.8184C8.48859 11.7421 8.40052 11.6708 8.31717 11.5946C8.29404 11.5707 8.26619 11.5517 8.24307 11.5279C8.18747 11.4803 8.13658 11.4278 8.07636 11.3754C7.94212 11.2467 7.79845 11.1277 7.66422 10.999C7.52064 10.8704 7.37706 10.7418 7.243 10.5938C7.10423 10.4507 6.97018 10.3028 6.83141 10.1597C6.80366 10.131 6.78525 10.1023 6.75749 10.0737C6.56802 9.85886 6.36921 9.6441 6.17503 9.43412C6.06401 9.31963 5.95299 9.20515 5.85141 9.08093C5.84679 9.07616 5.84216 9.07139 5.83754 9.06662C5.71264 8.93783 5.60181 8.80407 5.48163 8.67041C5.4585 8.64656 5.44472 8.62261 5.42631 8.5939C5.40327 8.56041 5.38486 8.5317 5.35239 8.50794C5.26894 8.44135 5.19493 8.36502 5.12092 8.2887C5.0099 8.17421 4.89889 8.05973 4.78787 7.94524C4.72774 7.88323 4.68638 7.81139 4.64974 7.73469C4.62689 7.68194 4.63651 7.65294 4.67887 7.61879C4.68359 7.61393 4.69302 7.6042 4.69774 7.59933C4.70246 7.59447 4.70255 7.58483 4.70255 7.58483C4.69801 7.57043 4.68876 7.56089 4.68423 7.54648C4.63362 7.46511 4.63362 7.46511 4.61113 7.37381C4.61113 7.37381 4.60651 7.36904 4.61123 7.36417C4.60225 7.32573 4.60724 7.29196 4.62158 7.2581C4.65505 7.17587 4.69778 7.10318 4.76373 7.04472C4.77788 7.03012 4.79204 7.01553 4.80619 7.00093C4.82977 6.97661 4.84873 6.94751 4.8491 6.90897C4.84919 6.89934 4.84928 6.88971 4.84937 6.88007C4.85437 6.8463 4.86861 6.82208 4.89682 6.80252C4.91097 6.78793 4.93447 6.77324 4.94862 6.75864C4.96277 6.74405 4.96767 6.71992 4.95851 6.70074C4.95398 6.68634 4.94935 6.68157 4.94482 6.66716C4.91716 6.6289 4.90364 6.57605 4.89004 6.53284C4.88551 6.51843 4.8856 6.5088 4.88569 6.49917C4.88615 6.45099 4.89132 6.39795 4.90112 6.34968C4.91573 6.28691 4.93969 6.22405 4.95892 6.16605C4.96373 6.15155 4.97316 6.14183 4.97797 6.12733C4.9875 6.10796 4.99702 6.0886 5.00183 6.0741C5.01145 6.0451 5.02569 6.02087 5.03994 5.99664C5.05418 5.97241 5.06371 5.95305 5.07795 5.92882C5.09228 5.89496 5.11125 5.86586 5.13021 5.83677C5.1586 5.79795 5.19171 5.75426 5.21548 5.71067C5.23925 5.66708 5.26765 5.62825 5.30538 5.58934C5.35256 5.54069 5.3952 5.47764 5.43774 5.42422C5.49453 5.34658 5.5466 5.27379 5.61727 5.21046C5.64557 5.18127 5.66916 5.15695 5.69746 5.12776C5.71161 5.11317 5.72567 5.10821 5.74898 5.11279C5.79561 5.12195 5.84695 5.12625 5.88405 5.15478C5.9772 5.18274 6.04205 5.23989 6.11153 5.30181C6.13937 5.32079 6.1625 5.34465 6.18563 5.3685C6.24114 5.42574 6.29674 5.47335 6.34753 5.53545C6.38916 5.57839 6.43097 5.60205 6.49166 5.60625C6.53365 5.61064 6.57084 5.62954 6.5986 5.65816C6.62172 5.68201 6.64494 5.69622 6.6776 5.70071C6.68694 5.70062 6.70091 5.70529 6.71016 5.71483C6.74726 5.74336 6.79388 5.75252 6.83588 5.75691C6.87787 5.76131 6.91506 5.7802 6.94744 5.81359C6.95669 5.82313 6.96595 5.83267 6.9752 5.84221C7.03996 5.909 7.10471 5.97578 7.16485 6.03779C7.22961 6.10458 7.29437 6.17136 7.36394 6.22364C7.42888 6.27115 7.48439 6.3284 7.53989 6.38564C7.57227 6.41903 7.614 6.45233 7.6511 6.48086C7.69291 6.50452 7.72529 6.53791 7.76701 6.57121C7.90133 6.69027 8.03558 6.81898 8.16509 6.95254C8.24845 7.02877 8.32708 7.10986 8.41034 7.19573C8.59084 7.37213 8.77595 7.5533 8.95645 7.72971C9.0583 7.82502 9.15553 7.91556 9.25267 8.01573C9.4007 8.16838 9.55815 8.3113 9.71089 8.45908C9.7664 8.51632 9.82662 8.5687 9.88685 8.62108C10.0166 8.72574 10.1463 8.84004 10.2761 8.9447C10.3827 9.03514 10.4893 9.12559 10.6006 9.21117C10.7211 9.30629 10.8417 9.40141 10.9622 9.49653C11.1198 9.62018 11.2775 9.74383 11.4398 9.86261C11.5697 9.95764 11.6996 10.0527 11.8249 10.1429C11.8666 10.1762 11.9037 10.2047 11.9454 10.238C11.9593 10.2524 11.9732 10.257 11.9871 10.2713C12.0659 10.3332 12.0566 10.3333 12.132 10.2651C12.2545 10.1482 12.3771 10.0314 12.4997 9.91452C12.5515 9.86101 12.6081 9.81227 12.6552 9.76363C12.8817 9.53013 13.1127 9.30139 13.3439 9.06303C13.4193 8.98519 13.4948 8.90736 13.5703 8.82952C13.6646 8.73223 13.7636 8.63971 13.8627 8.53755C13.9476 8.44999 14.0325 8.36243 14.122 8.27963C14.2258 8.17261 14.3388 8.07513 14.4519 7.97765C14.5131 7.92404 14.579 7.86557 14.6403 7.81197C14.7487 7.70972 14.8616 7.62187 14.9745 7.53402C15.1533 7.39734 15.3276 7.24626 15.4833 7.08572C15.5352 7.03221 15.5917 6.98347 15.6482 6.93473C15.6811 6.91031 15.7047 6.88599 15.733 6.8568C15.8367 6.75941 15.9404 6.66203 16.0533 6.57418C16.0863 6.54976 16.1239 6.52048 16.1568 6.49606C16.2181 6.44246 16.2792 6.39849 16.3404 6.34488C16.4205 6.27182 16.5145 6.21306 16.5945 6.14963C16.7027 6.06665 16.8156 5.98844 16.9192 5.90069C17.0227 5.82257 17.1216 5.73968 17.2296 5.67597C17.3189 5.62208 17.3989 5.55865 17.4836 5.49036C17.5918 5.40738 17.7047 5.32917 17.8267 5.27013C17.9065 5.22597 17.9863 5.18181 18.0616 5.12325C18.0993 5.09397 18.1368 5.07432 18.1791 5.04981C18.2965 4.986 18.4139 4.92219 18.5266 4.85362C18.5642 4.83397 18.597 4.81919 18.6346 4.79954C18.6674 4.78476 18.7002 4.76997 18.7377 4.75996C18.7893 4.73535 18.8503 4.71065 18.911 4.70522C18.9251 4.70026 18.9392 4.6953 18.9532 4.69034C18.9813 4.68043 19.0094 4.68014 19.0373 4.6895C19.0792 4.70352 19.1211 4.71755 19.1629 4.74121C19.1954 4.76497 19.2325 4.7935 19.2603 4.82212C19.2741 4.83643 19.288 4.85074 19.3019 4.86505C19.3434 4.91762 19.3945 4.95082 19.4599 4.95016C19.4692 4.95006 19.4785 4.9596 19.4877 4.96915C19.497 4.97869 19.5016 4.98346 19.5109 4.993L19.5155 4.99777C19.553 4.98775 19.5759 5.03088 19.6087 5.02573C19.6227 5.02077 19.6367 5.02544 19.6507 5.03012C19.6693 5.02993 19.6832 5.04424 19.6877 5.05864C19.6924 5.06342 19.6923 5.07305 19.6923 5.07305C19.7058 5.1259 19.7334 5.17379 19.7797 5.21186C19.7982 5.23094 19.812 5.25489 19.8164 5.27893C19.8208 5.3126 19.8205 5.34151 19.8109 5.37051C19.806 5.39464 19.8057 5.42354 19.7915 5.44777C19.7818 5.48641 19.7814 5.52494 19.8044 5.55843C19.8136 5.57761 19.8228 5.59678 19.8366 5.61109C19.855 5.64944 19.8639 5.68789 19.8636 5.72643C19.8632 5.76497 19.8581 5.80837 19.8391 5.8471C19.8247 5.88096 19.815 5.9196 19.8007 5.95346C19.724 6.15655 19.6427 6.35486 19.5428 6.54374C19.481 6.66479 19.4005 6.77639 19.3201 6.87836C19.2729 6.93664 19.2303 6.99005 19.1784 7.04356C19.1217 7.11158 19.0557 7.17968 18.9944 7.24292C18.9519 7.2867 18.9188 7.33039 18.8763 7.37417C18.763 7.50056 18.6543 7.64135 18.5317 7.75819C18.4845 7.80684 18.4327 7.86035 18.3901 7.91377C18.2956 8.03033 18.1871 8.14222 18.0833 8.24924C17.9748 8.36112 17.8663 8.47301 17.7577 8.59453C17.7294 8.62372 17.7011 8.65291 17.6728 8.68209C17.5361 8.81353 17.4134 8.94965 17.2859 9.09063C17.1868 9.20242 17.0829 9.31908 16.9745 9.42133C16.9509 9.44565 16.9273 9.46998 16.9037 9.4943C16.8423 9.56717 16.7763 9.63528 16.7101 9.71302C16.6582 9.76653 16.6064 9.82004 16.5498 9.87842C16.4696 9.96112 16.394 10.0486 16.3183 10.1457C16.2947 10.1796 16.2711 10.204 16.2428 10.2332C16.172 10.3061 16.1106 10.379 16.0398 10.452C15.9408 10.5541 15.8464 10.6514 15.7427 10.7488C15.7333 10.7585 15.7286 10.7634 15.7192 10.7731C15.6012 10.8947 15.4647 11.0069 15.3375 11.119C15.2951 11.1628 15.2573 11.2017 15.2149 11.2455C15.1441 11.3184 15.0781 11.3865 15.0073 11.4595C14.9318 11.5374 14.8564 11.6152 14.7809 11.693C14.7384 11.7368 14.696 11.7806 14.6581 11.8291C14.6157 11.8729 14.5731 11.9263 14.5307 11.9701C14.4458 12.0577 14.3656 12.1404 14.2807 12.2279C14.2665 12.2425 14.2477 12.262 14.2381 12.2814C14.2334 12.2862 14.2332 12.3055 14.2425 12.315C14.2471 12.3198 14.2517 12.3246 14.2564 12.3293C14.3489 12.4247 14.4461 12.5153 14.534 12.6059C14.5664 12.6393 14.6081 12.6726 14.6358 12.7109C14.7468 12.8253 14.8579 12.9302 14.9736 13.0398C15.1078 13.1685 15.2467 13.302 15.3857 13.4258C15.4921 13.5259 15.5986 13.626 15.7098 13.7212C15.8117 13.8165 15.9135 13.9118 16.0201 14.0023C16.1127 14.088 16.2053 14.1738 16.3026 14.2547C16.4092 14.3452 16.5157 14.4452 16.6176 14.5405C16.6869 14.6121 16.761 14.6788 16.8304 14.7503C16.9461 14.8696 17.0524 14.989 17.1633 15.1131C17.2927 15.2563 17.4174 15.4043 17.5562 15.5474C17.584 15.5761 17.6117 15.6047 17.6347 15.6382C17.6948 15.7098 17.7502 15.7767 17.815 15.8435C17.9166 15.9581 18.0183 16.0726 18.1105 16.2066C18.1704 16.2879 18.2304 16.3595 18.2951 16.4359C18.332 16.4837 18.3737 16.5267 18.4059 16.5793C18.521 16.7564 18.6548 16.9236 18.7793 17.1006C18.8437 17.1963 18.9129 17.2871 18.9774 17.3828C19.0742 17.5215 19.1757 17.6554 19.2725 17.7941C19.3692 17.9328 19.4707 18.0666 19.5816 18.2004C19.6047 18.2242 19.6185 18.2482 19.6369 18.2769C19.7014 18.3726 19.7659 18.4683 19.8303 18.564C19.8994 18.6644 19.9592 18.765 20.0236 18.8703C20.0513 18.9086 20.0695 18.9565 20.0924 18.9997C20.1108 19.038 20.1197 19.0765 20.124 19.1198C20.1284 19.1534 20.128 19.192 20.123 19.2258C20.1132 19.274 20.1034 19.3223 20.0982 19.3753C20.0933 19.3995 20.0978 19.4235 20.1069 19.4427C20.1115 19.4571 20.1207 19.4666 20.1252 19.481C20.1298 19.4954 20.139 19.505 20.1483 19.5145C20.2172 19.6342 20.2207 19.7546 20.1775 19.8851C20.1583 19.9335 20.1439 19.977 20.1247 20.0254C20.1151 20.0544 20.1008 20.0882 20.0912 20.1172C20.0768 20.1511 20.0671 20.1897 20.0528 20.2236C20.029 20.2672 20.0053 20.3108 19.9769 20.3496C19.9673 20.3689 19.9532 20.3835 19.939 20.3981C19.8919 20.4468 19.8447 20.4954 19.7929 20.5393C19.6939 20.6318 19.6088 20.7387 19.5331 20.8454C19.5092 20.8986 19.4576 20.9232 19.406 20.9478C19.3919 20.9528 19.3731 20.9626 19.3592 20.9579C19.3077 20.9633 19.2563 20.9686 19.205 20.9643C19.1536 20.96 19.1022 20.9654 19.0509 20.9611C19.0041 20.9615 18.9527 20.9669 18.9061 20.9577C18.8035 20.9395 18.7057 20.9067 18.6175 20.8546C18.5664 20.8214 18.5152 20.7979 18.4594 20.7792C18.4081 20.7652 18.357 20.7417 18.3057 20.7277C18.2359 20.7044 18.1661 20.6713 18.0965 20.6287C17.9619 20.5385 17.8179 20.4485 17.6881 20.3438C17.6742 20.3295 17.651 20.3153 17.6372 20.301C17.5677 20.2391 17.4982 20.1771 17.424 20.1201C17.248 19.9677 17.0813 19.8056 16.9195 19.629C16.8825 19.5909 16.8501 19.5575 16.8131 19.5193C16.6789 19.3906 16.5541 19.2522 16.434 19.1089C16.3832 19.0468 16.3278 18.9799 16.277 18.9178C16.2446 18.8844 16.217 18.8461 16.1846 18.8128C16.1013 18.7269 16.0228 18.6362 15.9442 18.5454C15.9165 18.5168 15.8887 18.4882 15.861 18.4596C15.7546 18.3499 15.6482 18.2401 15.5464 18.1352C15.5279 18.1161 15.5094 18.097 15.4909 18.078C15.4215 18.0064 15.3522 17.9348 15.2781 17.8682C15.2087 17.7966 15.1346 17.7299 15.0605 17.6632C15.0188 17.6203 14.9771 17.587 14.9355 17.5441C14.7689 17.382 14.5975 17.2247 14.4262 17.0675C14.3706 17.0199 14.315 16.9723 14.2594 16.9247C14.1899 16.8628 14.1157 16.8057 14.0463 16.7438C13.9073 16.62 13.7683 16.5058 13.6292 16.3916C13.4949 16.2725 13.3512 16.1535 13.2216 16.0296C13.1475 15.9629 13.0688 15.8914 12.9947 15.8248C12.8326 15.6771 12.6658 15.5342 12.5131 15.3768C12.4669 15.3291 12.4113 15.2815 12.365 15.2338C12.3003 15.167 12.2308 15.1051 12.1707 15.0431C12.0781 14.9573 11.9808 14.8668 11.8929 14.7762C11.8883 14.7714 11.8791 14.7618 11.8744 14.7571C11.8652 14.7475 11.8511 14.7525 11.8418 14.7526C11.8324 14.7623 11.823 14.7624 11.8136 14.7721C11.7287 14.8597 11.6438 14.9473 11.5635 15.0396C11.4738 15.132 11.3936 15.2244 11.3039 15.3168C11.2096 15.4141 11.1199 15.5161 11.0301 15.6278C10.9781 15.691 10.9308 15.7493 10.8742 15.8076C10.7704 15.9147 10.6619 16.0266 10.5582 16.1336C10.4827 16.2114 10.4025 16.2941 10.327 16.3719C10.2374 16.4644 10.1478 16.5568 10.0581 16.6492C10.0015 16.7076 9.94492 16.766 9.88831 16.8244C9.78934 16.9169 9.695 17.0142 9.60999 17.1114C9.54386 17.1891 9.47319 17.2524 9.40243 17.3254C9.33168 17.3984 9.2562 17.4762 9.18082 17.5444C9.09119 17.6368 9.00166 17.7196 8.91203 17.8121C8.77532 17.9435 8.64315 18.0893 8.52032 18.2351C8.48249 18.2836 8.44475 18.3226 8.40229 18.3663C8.34569 18.4247 8.29371 18.4879 8.24173 18.551C8.21333 18.5898 8.17559 18.6288 8.14257 18.6628C8.0954 18.7114 8.05757 18.76 8.02437 18.8133C7.98654 18.8619 7.95334 18.9152 7.91551 18.9638C7.854 19.0463 7.78315 19.1289 7.71702 19.2066C7.67919 19.2552 7.63664 19.3086 7.59881 19.3571C7.53259 19.4445 7.46636 19.5319 7.39089 19.6097C7.34843 19.6535 7.31532 19.6972 7.27749 19.7457C7.20664 19.8283 7.13579 19.9109 7.06494 19.9935C7.02249 20.0373 6.98937 20.081 6.95155 20.1296C6.90891 20.1926 6.85693 20.2558 6.80032 20.3141C6.78145 20.3336 6.75787 20.3579 6.74362 20.3821C6.6774 20.4695 6.5972 20.5522 6.5171 20.6253C6.46521 20.6788 6.41333 20.7323 6.37069 20.7954C6.34701 20.8293 6.31871 20.8585 6.2904 20.8877C6.24323 20.9363 6.19606 20.985 6.15814 21.0432C6.10607 21.1159 6.03096 21.1552 5.95585 21.1945C5.9231 21.1997 5.89498 21.2096 5.86233 21.2051C5.79693 21.2058 5.73153 21.2064 5.66622 21.1975C5.64753 21.1977 5.62422 21.1931 5.60553 21.1933C5.53551 21.1892 5.4653 21.2043 5.39065 21.1954C5.32997 21.1912 5.26466 21.1823 5.20887 21.1539C5.19491 21.1492 5.18094 21.1446 5.16697 21.1399C5.13432 21.1354 5.10175 21.1213 5.07862 21.0974C5.0369 21.0641 4.99046 21.0357 4.93931 21.0121C4.8974 20.9981 4.85558 20.9744 4.80896 20.9653C4.79962 20.9654 4.79499 20.9606 4.79499 20.9606C4.75318 20.9369 4.70665 20.9181 4.66474 20.9041C4.6368 20.8948 4.61359 20.8805 4.58556 20.8808C4.56225 20.8762 4.53431 20.8669 4.5158 20.8478C4.48796 20.8288 4.46946 20.8098 4.43689 20.7956C4.33023 20.7148 4.25622 20.6385 4.18683 20.5669Z" fill="#3E5C57"/>
</svg>
