<svg width="24" height="24" viewBox="0 0 24 24" fill="none" xmlns="http://www.w3.org/2000/svg">
<path d="M21.9455 13.5817C21.4307 13.55 20.8599 13.5183 20.2891 13.4866C19.8049 13.4601 19.3207 13.4337 18.8366 13.4072C17.8631 13.3491 16.8846 13.3015 15.9111 13.3332C15.3403 13.3491 14.7695 13.3914 14.2037 13.4337C13.8674 13.4601 13.531 13.5183 13.1946 13.55C12.792 13.5923 12.3944 13.587 11.9918 13.5553C11.5331 13.5236 11.0795 13.4918 10.6208 13.4495C10.05 13.402 9.47916 13.3861 8.90324 13.4284C8.66879 13.4443 8.43945 13.4813 8.205 13.5077C7.62399 13.5659 7.03788 13.6029 6.45176 13.5923C6.30906 13.587 6.17145 13.5817 6.02874 13.5817C6.00836 13.5817 5.98797 13.5976 5.96758 13.6029C5.97778 13.6187 5.98797 13.6399 6.00326 13.6505C6.29886 13.8831 6.59956 14.1052 6.89007 14.3431C7.40483 14.7608 7.8992 15.2102 8.363 15.6966C8.84718 16.2042 9.30078 16.7382 9.70341 17.3145C9.79515 17.4467 9.88689 17.5789 9.96843 17.7164C10.0092 17.7851 10.0347 17.8644 10.0449 17.9384C10.106 18.2768 10.0959 18.6205 10.0398 18.9589C10.0194 19.1016 9.98372 19.2497 9.90727 19.3766C9.82063 19.5246 9.7136 19.5405 9.60148 19.4189C9.45877 19.2708 9.33136 19.1122 9.18865 18.9589C8.74524 18.4777 8.27635 18.0283 7.78708 17.6C7.32838 17.1982 6.8544 16.8175 6.36002 16.4633C5.9421 16.1619 5.51908 15.8711 5.09096 15.5856C4.77497 15.3741 4.45389 15.1732 4.1277 14.9723C3.8219 14.7819 3.50591 14.6022 3.19502 14.4224C2.90451 14.2532 2.614 14.084 2.3184 13.9201C2.05337 13.7668 1.78325 13.624 1.51823 13.4707C1.24811 13.3226 0.983083 13.1693 0.712962 13.0213C0.641609 12.9843 0.575352 12.9367 0.504 12.905C0.335811 12.8309 0.233878 12.6882 0.167622 12.5243C-0.0158564 12.0749 -0.0260487 11.6096 0.0300142 11.1337C0.0554974 10.9328 0.111559 10.7425 0.213492 10.568C0.305231 10.4199 0.42755 10.3354 0.595739 10.3142C0.876053 10.2772 1.15637 10.2455 1.43159 10.1926C1.67113 10.145 1.91067 10.0763 2.14511 10.0075C2.33879 9.95467 2.52736 9.89651 2.71594 9.82778C2.9198 9.75375 3.11347 9.67445 3.31224 9.58985C3.49572 9.51583 3.6792 9.43652 3.85758 9.35192C4.02067 9.2779 4.17867 9.19859 4.33666 9.11928C4.52524 9.02411 4.71381 8.92894 4.89729 8.82849C5.14193 8.6963 5.38657 8.56412 5.63121 8.42665C5.86565 8.29447 6.095 8.16229 6.32435 8.03011C6.58428 7.88207 6.8442 7.72874 7.09903 7.57541C7.34877 7.42736 7.59341 7.28461 7.83805 7.13128C8.13365 6.95151 8.42416 6.76646 8.71467 6.5814C8.9695 6.4175 9.21923 6.25359 9.46897 6.0844C9.76967 5.88348 10.0653 5.68257 10.3609 5.47108C10.738 5.20143 11.1101 4.93178 11.477 4.65155C11.8338 4.3819 12.1855 4.10168 12.5371 3.83203C12.5779 3.80031 12.6289 3.7633 12.6798 3.75272C12.8225 3.73157 12.8888 3.83732 12.9449 3.94306C13.0723 4.1757 13.1232 4.42949 13.1589 4.68857C13.2099 5.0481 13.2099 5.40763 13.1385 5.76716C13.1029 5.94164 13.0621 6.11613 12.9398 6.25359C12.8633 6.34348 12.7665 6.41221 12.6747 6.48623C12.2619 6.80347 11.844 7.1207 11.4261 7.42736C11.0438 7.70759 10.6565 7.97724 10.264 8.24689C9.88689 8.50596 9.50974 8.76504 9.12749 9.01354C8.75034 9.25675 8.36809 9.48939 7.98585 9.72203C7.64437 9.93352 7.2978 10.1344 6.94614 10.3354C6.59447 10.5363 6.23261 10.7319 5.87584 10.9328C5.86055 10.9434 5.85036 10.9592 5.84017 10.9698C5.85546 10.9804 5.86565 11.0015 5.88604 11.0068C5.92171 11.0174 5.95739 11.0227 5.99307 11.028C6.51292 11.102 7.03787 11.1232 7.55773 11.0491C7.95017 10.9963 8.34261 10.9381 8.73505 10.8905C9.20394 10.8324 9.67283 10.8271 10.1468 10.8641C10.84 10.9222 11.5331 10.9804 12.2262 11.028C12.7767 11.065 13.322 11.0174 13.8674 10.954C14.2649 10.9064 14.6675 10.8799 15.0702 10.8641C15.59 10.8482 16.115 10.8376 16.6348 10.8535C17.2617 10.8694 17.8886 10.9064 18.5155 10.954C19.2188 11.0068 19.917 11.0756 20.6153 11.1337C21.2269 11.1813 21.8385 11.2289 22.4501 11.2659C22.7712 11.2871 23.0973 11.2976 23.4184 11.3082C23.6274 11.3135 23.7599 11.4192 23.8415 11.6096C24.0198 12.022 24.03 12.4555 23.9587 12.8944C23.9332 13.0689 23.8873 13.2328 23.7956 13.3808C23.7191 13.513 23.6121 13.5923 23.4541 13.5923C22.9852 13.587 22.4959 13.587 21.9455 13.5817Z" fill="#3E5C57"/>
</svg>
