<svg width="24" height="25" viewBox="0 0 24 25" fill="none" xmlns="http://www.w3.org/2000/svg">
<path d="M16.8753 24.3659C16.8053 24.4085 16.7352 24.4553 16.6609 24.4894C16.6302 24.5064 16.5865 24.4979 16.5471 24.4979C16.3108 24.5021 16.079 24.4723 15.8471 24.4596C15.5452 24.4468 15.2477 24.4553 14.9458 24.4425C14.1451 24.4085 13.3444 24.4 12.5437 24.4042C11.9268 24.4085 11.3055 24.417 10.6886 24.4213C10.238 24.4255 9.78734 24.434 9.33668 24.4255C8.78978 24.417 8.23849 24.4 7.69159 24.383C7.5297 24.3787 7.36344 24.3702 7.20156 24.3617C7.12718 24.3574 7.11843 24.3447 7.11843 24.2723C7.11843 24.1787 7.1228 24.0808 7.13155 23.9872C7.14468 23.8255 7.15781 23.6595 7.17531 23.4978C7.20156 23.2595 7.22781 23.0169 7.25406 22.7786C7.25406 22.7615 7.25844 22.7445 7.26281 22.7275C7.28469 22.5147 7.30656 22.3019 7.33282 22.0891C7.35469 21.9019 7.38969 21.7189 7.41595 21.5359C7.43345 21.4125 7.45095 21.2891 7.46845 21.1614C7.49033 20.9869 7.5122 20.8124 7.53845 20.6337C7.5647 20.4592 7.59096 20.2847 7.61721 20.1102C7.62158 20.0847 7.62596 20.0634 7.63033 20.0379C7.65221 19.8592 7.67409 19.6804 7.69596 19.5017C7.72221 19.2974 7.75722 19.0931 7.77909 18.8846C7.80534 18.6505 7.82284 18.4165 7.8491 18.1824C7.85785 18.0845 7.8666 17.9867 7.8841 17.8888C7.89722 17.7994 7.94535 17.7568 8.03723 17.7568C8.09849 17.7568 8.16411 17.7739 8.22537 17.7739C8.28662 17.7739 8.34788 17.7654 8.40913 17.7611C8.47476 17.7526 8.49663 17.7058 8.51851 17.6505C8.59289 17.4377 8.58852 17.2249 8.57101 17.0036C8.56664 16.9738 8.56664 16.9398 8.55789 16.9142C8.51414 16.7823 8.52726 16.6461 8.53164 16.5099C8.53164 16.4844 8.53164 16.4631 8.54476 16.4418C8.60164 16.3099 8.57976 16.3312 8.70665 16.3354C8.98229 16.3354 9.25793 16.3525 9.53357 16.2971C9.6167 16.2801 9.70858 16.2886 9.79609 16.2844C9.90984 16.2801 9.92734 16.2631 9.92734 16.1567C9.92734 15.7482 9.92734 15.3396 9.92734 14.9311C9.92734 14.8374 9.87484 14.7991 9.80921 14.7608C9.64295 14.6672 9.47669 14.5778 9.31918 14.4757C8.96916 14.2502 8.65852 13.9735 8.37413 13.6756C7.89722 13.1777 7.51658 12.6117 7.17531 12.0244C6.91717 11.5818 6.69403 11.1222 6.46652 10.6626C6.39214 10.5094 6.31776 10.3562 6.24775 10.1987C6.21713 10.1349 6.17337 10.1094 6.10774 10.0923C5.97211 10.0625 5.84085 10.0242 5.70085 9.99871C5.50833 9.96467 5.32895 9.89232 5.14519 9.82848C4.9833 9.77316 4.82579 9.69656 4.67266 9.61995C4.25701 9.41143 3.87636 9.15183 3.53072 8.84116C3.07569 8.43262 2.70817 7.95598 2.39315 7.43678C2.17876 7.0793 1.99063 6.70906 1.83312 6.32179C1.72811 6.0707 1.64061 5.81111 1.5531 5.55577C1.4831 5.35575 1.42185 5.15573 1.36059 4.95571C1.31246 4.79399 1.27746 4.62802 1.23808 4.46205C1.18996 4.27054 1.1462 4.07904 1.10245 3.88753C1.0762 3.76412 1.0587 3.6407 1.03682 3.51729C1.01057 3.37685 0.984319 3.23641 0.953693 3.09597C0.949317 3.07895 0.944942 3.06193 0.940567 3.0449C0.91869 2.88319 0.896814 2.72147 0.874938 2.55975C0.848686 2.37676 0.81806 2.18951 0.796183 2.00651C0.778682 1.87459 0.765556 1.74266 0.765556 1.61073C0.748055 1.42348 0.748055 1.22347 0.752431 1.02345C0.752431 0.972379 0.769932 0.917055 0.796183 0.870242C0.853062 0.76385 0.883678 0.891524 0.940556 0.785131C0.971183 0.729807 1.01056 0.708529 1.07181 0.708529C1.33433 0.704273 1.59684 0.700017 1.85936 0.691506C2.1 0.682995 2.34064 0.665972 2.58128 0.661716C2.98818 0.65746 3.3907 0.661716 3.7976 0.65746C4.50202 0.648949 5.20206 0.640438 5.90647 0.62767C6.46651 0.619159 7.02654 0.606392 7.5822 0.606392C8.92102 0.602136 10.2599 0.606392 11.5987 0.602136C12.0843 0.602136 12.57 0.589369 13.0556 0.585114C13.2569 0.580858 13.4582 0.563835 13.6594 0.521278C13.7163 0.508511 13.7776 0.504255 13.8344 0.504255C14.7707 0.504255 15.707 0.504255 16.6477 0.504255C17.4484 0.504255 18.2491 0.5 19.0497 0.5C20.0342 0.5 21.023 0.504255 22.0074 0.504255C22.2918 0.504255 22.5718 0.508511 22.8562 0.504255C22.935 0.504255 22.9919 0.525534 23.04 0.580858C23.145 0.708529 23.2325 0.840455 23.2194 1.02345C23.2062 1.25751 23.25 1.26602 23.25 1.50434C23.25 1.75117 23.2456 2.00226 23.2412 2.24909C23.2369 2.44059 23.1712 2.62359 23.1187 2.80658C23.0837 2.94277 23.0312 3.07044 22.9919 3.20662C22.9569 3.32578 22.9219 3.44494 22.8912 3.56835C22.8475 3.73433 22.8081 3.90455 22.7643 4.07053C22.7381 4.18117 22.7118 4.28757 22.69 4.39822C22.6768 4.44928 22.6681 4.50461 22.6681 4.55993C22.6725 4.75569 22.6112 4.94294 22.55 5.12594C22.4931 5.30042 22.4056 5.46214 22.3268 5.62811C22.1956 5.90473 22.0687 6.18561 21.9331 6.45797C21.8149 6.69629 21.6837 6.93036 21.5524 7.16016C21.3555 7.50062 21.1368 7.82831 20.8917 8.13897C20.5023 8.63263 20.0473 9.05395 19.5004 9.37738C19.2729 9.50931 19.041 9.62847 18.7916 9.71358C18.6297 9.7689 18.4722 9.82423 18.306 9.86253C18.1353 9.90509 17.9691 9.94764 17.7941 9.96467C17.7372 9.96892 17.6847 9.9902 17.6322 9.99871C17.5884 10.003 17.5665 10.0285 17.549 10.0668C17.4703 10.2328 17.3915 10.3987 17.3084 10.5647C17.1903 10.8073 17.0721 11.0499 16.9453 11.2882C16.779 11.5989 16.604 11.9095 16.4246 12.2159C16.219 12.5692 15.9783 12.8968 15.7202 13.216C15.3658 13.6544 14.9633 14.0459 14.5039 14.3736C14.3245 14.5012 14.132 14.6119 13.9438 14.731C13.8913 14.7651 13.8607 14.8034 13.8607 14.8715C13.8651 15.3779 13.8607 15.8843 13.8607 16.395C13.8607 16.5014 13.8695 16.5099 13.9832 16.5099C14.3639 16.5099 14.7445 16.5099 15.1252 16.5099C15.1514 16.5099 15.1733 16.5099 15.1995 16.5099C15.2477 16.5099 15.2695 16.5312 15.2695 16.578C15.2739 16.6674 15.2783 16.7568 15.2783 16.8419C15.2739 17.1568 15.2695 17.476 15.2652 17.7909C15.2652 17.842 15.2739 17.8803 15.3264 17.893C15.3789 17.9058 15.4314 17.9271 15.4883 17.9313C15.6108 17.9356 15.7333 17.9313 15.8558 17.9313C15.9564 17.9313 15.9608 17.9356 15.9827 18.0292C15.9871 18.042 15.9871 18.0547 15.9915 18.0675C16.0133 18.259 16.0308 18.4548 16.0571 18.6463C16.0833 18.8335 16.1183 19.0208 16.1446 19.2123C16.1621 19.34 16.1796 19.4676 16.1927 19.5953C16.2146 19.7826 16.2365 19.9656 16.2627 20.1528C16.289 20.3443 16.3152 20.5358 16.3458 20.7273C16.3502 20.7529 16.3546 20.7741 16.359 20.7997C16.3808 20.9869 16.3983 21.1699 16.4246 21.3572C16.4509 21.5402 16.4815 21.7189 16.5121 21.9019C16.5296 22.0296 16.5471 22.1572 16.5646 22.2849C16.5865 22.4551 16.604 22.6296 16.6302 22.7998C16.6565 22.9786 16.6871 23.1573 16.7134 23.3318C16.7352 23.468 16.7571 23.5999 16.7746 23.7361C16.8096 23.9446 16.8403 24.1532 16.8753 24.3617C16.8796 24.3532 16.8753 24.3617 16.8753 24.3659ZM5.40333 1.50434C5.41645 1.57243 5.42958 1.61925 5.43396 1.66606C5.45583 1.88735 5.46896 2.11291 5.49083 2.33846C5.50396 2.4789 5.52584 2.62359 5.54334 2.76403C5.55209 2.84063 5.56521 2.91723 5.57396 2.99809C5.59584 3.17257 5.62209 3.34706 5.64834 3.52154C5.67022 3.68326 5.6921 3.84497 5.71835 4.00669C5.73585 4.11734 5.75335 4.22799 5.77523 4.33864C5.80148 4.48759 5.8321 4.63228 5.85836 4.78123C5.88023 4.91315 5.89773 5.04934 5.92398 5.18126C5.96336 5.38979 6.01149 5.59407 6.05962 5.79834C6.11212 6.0324 6.16462 6.26221 6.21713 6.49202C6.274 6.73459 6.33088 6.97291 6.38776 7.21549C6.40526 7.29635 6.42714 7.37295 6.45339 7.44955C6.49714 7.61127 6.54527 7.76873 6.5934 7.93044C6.63715 8.07514 6.6809 8.22409 6.72466 8.36878C6.76841 8.50071 6.80779 8.63263 6.85154 8.76456C6.89529 8.88798 6.93467 9.01565 6.9828 9.13906C7.03967 9.29652 7.10093 9.44973 7.15781 9.60719C7.21906 9.76465 7.27594 9.91785 7.34157 10.0711C7.43345 10.2838 7.52533 10.4966 7.62596 10.7052C7.75284 10.9648 7.8841 11.2244 8.01973 11.4797C8.21224 11.8329 8.43101 12.1734 8.67165 12.5011C8.8204 12.7053 8.98229 12.9011 9.16605 13.0798C9.44606 13.3565 9.76546 13.5778 10.1155 13.7565C10.2817 13.8416 10.4567 13.9097 10.6274 13.9778C10.7368 14.0203 10.8505 14.0501 10.9599 14.0842C11.0824 14.1225 11.2049 14.1693 11.3362 14.1693C11.3581 14.1693 11.3756 14.1778 11.3974 14.1821C11.4543 14.1948 11.5112 14.2119 11.5724 14.2161C11.6687 14.2289 11.765 14.2331 11.8656 14.2374C12.2462 14.2672 12.6138 14.2246 12.9813 14.1267C13.1957 14.0714 13.3925 13.9906 13.5851 13.8884C13.9176 13.7097 14.202 13.4714 14.4645 13.2032C14.9589 12.6926 15.3308 12.1053 15.6633 11.4925C15.8208 11.1988 15.9696 10.8967 16.114 10.5988C16.2627 10.2924 16.3983 9.98169 16.5427 9.67102C16.6609 9.41568 16.779 9.1646 16.8928 8.90925C16.9365 8.81137 16.9759 8.71349 17.0065 8.61561C17.0371 8.51347 17.0503 8.41134 17.0765 8.3092C17.094 8.22834 17.1159 8.15174 17.1334 8.07088C17.1596 7.96023 17.1903 7.84533 17.2165 7.73468C17.2384 7.6368 17.2603 7.53466 17.2865 7.43678C17.3172 7.30911 17.3478 7.18144 17.3784 7.04951C17.4003 6.95163 17.4265 6.8495 17.4484 6.75162C17.4747 6.64097 17.5009 6.53457 17.5272 6.42393C17.5534 6.31328 17.5753 6.19838 17.5972 6.08347C17.6147 5.99836 17.6322 5.90899 17.654 5.82387C17.6803 5.6962 17.7109 5.57279 17.7372 5.44512C17.7634 5.3217 17.7809 5.19829 17.8072 5.07487C17.8247 4.97699 17.8422 4.88336 17.8641 4.78548C17.8903 4.65356 17.9209 4.52163 17.9428 4.38545C17.9691 4.23224 17.9866 4.07478 18.0084 3.92158C18.0434 3.67475 18.0784 3.43217 18.1135 3.18534C18.1135 3.17257 18.1178 3.15981 18.1178 3.14278C18.1485 2.85765 18.1791 2.57678 18.2053 2.29165C18.2185 2.12993 18.2272 1.96396 18.236 1.80224C18.236 1.77245 18.236 1.74266 18.236 1.7001C18.1966 1.69585 18.1616 1.69159 18.1222 1.68734C18.0828 1.67883 18.0391 1.68308 18.0128 1.6618C17.8947 1.57243 17.7591 1.56392 17.6147 1.56392C15.2345 1.56392 12.8544 1.56818 10.4699 1.55967C9.60357 1.55541 8.73727 1.58946 7.87097 1.54264C7.60408 1.52988 7.33282 1.53839 7.06593 1.52988C6.5759 1.51711 6.08587 1.49583 5.60021 1.48306C5.53459 1.48306 5.47333 1.49583 5.40333 1.50434ZM9.40669 18.9059C9.40669 18.8889 9.40669 18.8676 9.39794 18.8506C9.38481 18.8037 9.32793 18.791 9.30606 18.8335C9.27543 18.8974 9.22293 18.8931 9.17042 18.9144C9.1048 18.9399 9.02167 18.9612 8.98229 19.0123C8.91666 19.0846 8.87728 19.1782 8.87291 19.2846C8.86853 19.34 8.85978 19.3995 8.84228 19.4549C8.78103 19.6251 8.7329 19.7953 8.6979 19.9741C8.68477 20.0464 8.64977 20.1145 8.62352 20.1826C8.61477 20.1996 8.60602 20.2252 8.61039 20.2422C8.64102 20.3613 8.59289 20.472 8.57976 20.5826C8.57539 20.6082 8.56226 20.6337 8.54476 20.6507C8.49226 20.7018 8.48351 20.7529 8.51851 20.8167C8.53164 20.838 8.53164 20.8678 8.53164 20.8933C8.51851 21.0337 8.50538 21.1784 8.49226 21.3189C8.48788 21.3572 8.47476 21.3997 8.45726 21.4295C8.42663 21.4763 8.41351 21.5274 8.40913 21.5827C8.40475 21.6763 8.40038 21.7657 8.38725 21.8551C8.36538 21.9913 8.33475 22.1274 8.3085 22.2636C8.26912 22.4509 8.22974 22.6424 8.18599 22.8296C8.13349 23.0467 8.09411 23.2595 8.08099 23.4808C8.07661 23.5446 8.09411 23.5659 8.16411 23.5701C8.17724 23.5701 8.19037 23.5701 8.20787 23.5701C9.1748 23.5616 10.1461 23.5574 11.113 23.5489C11.5593 23.5446 12.0056 23.5489 12.4562 23.5403C13.5282 23.5276 14.6001 23.5063 15.6764 23.4893C15.7114 23.4893 15.7508 23.4765 15.7858 23.468C15.7727 23.3361 15.7683 23.2127 15.7508 23.0935C15.7114 22.8254 15.6633 22.5573 15.6196 22.2892C15.6021 22.187 15.5802 22.0806 15.5627 21.9785C15.5408 21.8551 15.5189 21.7317 15.497 21.6083C15.4795 21.5146 15.4577 21.421 15.4358 21.3316C15.4095 21.204 15.3789 21.072 15.357 20.9444C15.3308 20.8082 15.3089 20.672 15.287 20.5316C15.2564 20.3358 15.2258 20.1358 15.1952 19.9358C15.1777 19.8081 15.1602 19.6804 15.147 19.5528C15.1252 19.3442 15.112 19.1314 15.0901 18.9229C15.0858 18.8591 15.0683 18.8463 15.0026 18.8506C14.8539 18.8548 14.7007 18.8633 14.552 18.8633C13.9176 18.8633 13.2875 18.9187 12.6575 18.9187C11.6599 18.9187 10.6668 18.9484 9.6692 18.9697C9.56857 18.9782 9.48544 18.9655 9.40669 18.9059ZM21.8718 2.36399C21.8762 2.36399 21.8762 2.36399 21.8805 2.36399C21.8805 2.15121 21.8805 1.93417 21.8805 1.72138C21.8805 1.63627 21.8499 1.61499 21.7668 1.61499C21.3861 1.6235 21.0055 1.63627 20.6248 1.63627C20.288 1.63627 19.9554 1.65329 19.6185 1.61925C19.566 1.61499 19.5529 1.63201 19.5485 1.69585C19.531 2.03205 19.5135 2.36825 19.4917 2.70445C19.4873 2.79382 19.4742 2.88744 19.4654 2.97681C19.4435 3.14704 19.4173 3.32152 19.3954 3.49175C19.391 3.51303 19.391 3.53431 19.391 3.55133C19.3954 3.70454 19.3954 3.85774 19.4042 4.00669C19.4173 4.25352 19.3954 4.4961 19.3123 4.73016C19.2641 4.86209 19.2466 5.00252 19.1941 5.1302C19.1373 5.27914 19.0979 5.42809 19.0629 5.5813C19.0498 5.63237 19.0366 5.68769 19.0191 5.73876C18.9623 5.92175 18.8966 6.10049 18.8485 6.28349C18.7435 6.64948 18.6341 7.01547 18.4941 7.37295C18.4635 7.45381 18.4372 7.53892 18.411 7.62403C18.3803 7.7134 18.3541 7.80703 18.3191 7.89214C18.2141 8.14748 18.0784 8.39006 18.0084 8.65817C17.9822 8.75605 17.9603 8.85818 17.9428 8.95607C17.9297 9.03267 17.9647 9.0582 18.0347 9.03267C18.1616 8.9816 18.2885 8.93904 18.4066 8.87946C18.5991 8.78158 18.7872 8.6837 18.9666 8.5688C19.4785 8.24111 19.9029 7.82831 20.2661 7.35592C20.6992 6.78992 21.0186 6.16859 21.268 5.50895C21.3774 5.21531 21.478 4.92167 21.548 4.61526C21.5655 4.5344 21.5874 4.4578 21.6093 4.37694C21.6399 4.24075 21.6705 4.10457 21.6968 3.96839C21.723 3.83221 21.7449 3.69603 21.7624 3.55559C21.793 3.31727 21.8237 3.07895 21.8499 2.83637C21.8587 2.68743 21.863 2.52571 21.8718 2.36399ZM5.70085 8.78584C5.69647 8.74328 5.70085 8.71775 5.6921 8.69221C5.65272 8.55178 5.60459 8.41559 5.56521 8.27516C5.50396 8.04535 5.44708 7.81554 5.3902 7.58573C5.3377 7.3772 5.28957 7.16867 5.23707 6.9644C5.21519 6.87929 5.19769 6.79417 5.17582 6.7048C5.14956 6.59416 5.11894 6.47925 5.09269 6.3686C5.06643 6.25796 5.04893 6.14305 5.02706 6.02815C5.00956 5.93878 4.98768 5.84941 4.9658 5.76004C4.93955 5.64088 4.90893 5.52172 4.88267 5.40256C4.85642 5.27914 4.83892 5.15573 4.81704 5.03231C4.79954 4.93018 4.77767 4.8323 4.75579 4.73442C4.72954 4.60249 4.70329 4.46631 4.67266 4.33438C4.64641 4.22373 4.62016 4.11734 4.58953 4.01095C4.54578 3.84497 4.4714 3.68326 4.50203 3.50452C4.5064 3.4875 4.49765 3.46622 4.4889 3.44494C4.44515 3.27471 4.39702 3.10448 4.35327 2.93C4.31827 2.78956 4.30076 2.64912 4.25264 2.51294C4.15638 2.24483 4.09075 1.97247 4.05137 1.69159C4.04262 1.61499 4.02512 1.60222 3.95074 1.61925C3.88949 1.63201 3.82824 1.65329 3.75823 1.67031C3.75386 1.64052 3.74948 1.61925 3.74511 1.59371C3.73636 1.55967 3.71448 1.54264 3.6751 1.5469C3.6576 1.5469 3.6401 1.55115 3.6226 1.55541C3.44321 1.60648 3.26383 1.58946 3.08007 1.56392C2.89193 1.53413 2.69942 1.5086 2.51128 1.49157C2.35815 1.47881 2.20502 1.48732 2.05188 1.48732C1.98625 1.48732 1.92062 1.48732 1.855 1.48732C1.85062 1.51711 1.84187 1.53839 1.84624 1.55967C1.86812 1.82777 1.89437 2.09588 1.91625 2.36399C1.925 2.44485 1.93813 2.52571 1.94688 2.60657C1.96875 2.78105 1.99063 2.95553 2.01688 3.13002C2.03001 3.23215 2.04751 3.33855 2.06938 3.44068C2.09563 3.57261 2.12189 3.70879 2.15251 3.84072C2.17001 3.92158 2.18751 3.99818 2.20502 4.07904C2.22689 4.18969 2.24439 4.30033 2.27502 4.40673C2.3319 4.61526 2.39315 4.82378 2.45878 5.03231C2.54629 5.29191 2.63379 5.55577 2.7388 5.80685C2.85255 6.08773 2.98819 6.36009 3.1457 6.61969C3.36008 6.98142 3.60072 7.31762 3.89387 7.62403C4.16951 7.91342 4.4714 8.16451 4.81267 8.37304C5.08394 8.53901 5.36833 8.6837 5.70085 8.78584ZM11.87 16.2461C11.9006 16.2418 11.9312 16.2418 11.9662 16.2418C12.1806 16.2631 12.3906 16.2205 12.5919 16.1482C12.78 16.0801 12.8894 15.9439 12.9506 15.7652C13.0031 15.6077 13.0031 15.4417 12.9988 15.28C12.9944 15.1821 12.9857 15.1736 12.8894 15.1736C12.2725 15.1609 11.6599 15.1864 11.0474 15.229C10.9643 15.2332 10.9468 15.2545 10.9555 15.3311C10.9687 15.4375 10.9905 15.5396 11.0037 15.6418C11.0212 15.8205 11.0562 15.995 11.113 16.1695C11.148 16.2801 11.1612 16.2929 11.2837 16.2886C11.4762 16.2759 11.6731 16.2588 11.87 16.2461ZM13.8213 17.7611C13.8432 17.7654 13.8563 17.7696 13.8651 17.7654C13.957 17.7271 14.0488 17.7356 14.1407 17.7654C14.202 17.7824 14.2676 17.8037 14.3332 17.8079C14.4164 17.8122 14.4645 17.7696 14.4601 17.6845C14.4514 17.5866 14.4601 17.4887 14.4601 17.3866C14.4601 17.293 14.4557 17.2845 14.3595 17.2802C14.1363 17.2717 13.9132 17.2674 13.6901 17.2717C13.5369 17.276 13.3838 17.293 13.2307 17.3015C13.0557 17.31 12.8806 17.3143 12.7056 17.3228C12.5612 17.3313 12.4125 17.3483 12.2681 17.3483C11.905 17.3483 11.5418 17.3653 11.1787 17.3313C11.0124 17.3143 10.8418 17.31 10.6755 17.3143C10.5486 17.3143 10.4174 17.3398 10.2905 17.3483C10.0761 17.3611 9.92734 17.2717 9.75233 17.3866C9.57732 17.1866 9.64295 17.5951 9.64733 17.6547C9.68233 17.659 9.75233 17.7654 9.75233 17.6675C9.83109 17.6717 9.90509 17.7483 9.98384 17.7568C10.3032 17.7951 10.6142 17.7824 10.9336 17.7568C11.0342 17.7483 11.183 17.7526 11.2837 17.7568C11.5287 17.7611 11.6293 17.7185 11.87 17.6845C11.9356 17.676 12.1315 17.7739 12.2681 17.6845C12.43 17.6802 12.43 17.7611 12.5919 17.7568C12.7713 17.7526 13.0513 17.7483 13.2307 17.7568C13.4363 17.7654 13.4116 17.6717 13.6128 17.7568C13.6172 17.7781 13.8169 17.7313 13.8213 17.7611Z" fill="#3E5C57"/>
</svg>
