<svg width="24" height="24" viewBox="0 0 24 24" fill="none" xmlns="http://www.w3.org/2000/svg">
<path fill-rule="evenodd" clip-rule="evenodd" d="M12.3107 5.12029C12.2715 5.38169 12.4022 5.47317 12.4545 5.64308C12.2323 5.5908 12.363 6.12666 12.0886 5.94368C12.0886 6.29656 11.8794 6.24428 12.0101 6.53182C11.4481 6.59716 11.6834 7.32906 11.5658 7.49897C11.801 7.79957 12.1147 7.52511 12.0886 7.86492C12.8858 7.74729 13.1733 6.72786 13.1995 6.08745C13.6831 5.43397 13.1472 4.81969 12.8335 4.53216C12.2323 3.98323 11.8141 3.46045 12.167 2.5325C12.3238 2.12734 12.8335 1.87902 12.3107 1.5H12.0232C11.5919 2.12734 11.2129 2.82003 11.2129 3.87868C11.4351 4.34918 11.8794 4.59751 12.1016 5.06801C12.2062 5.21178 12.2715 4.95039 12.3107 5.12029Z" fill="#75A37D"/>
<path fill-rule="evenodd" clip-rule="evenodd" d="M22.4447 12.021C22.4578 11.4851 22.4055 10.8839 22.5231 10.4657C21.0724 10.335 18.8113 10.4004 17.622 10.2435C16.9947 10.4918 17.708 10.0083 17.1329 10.4657C17.0284 10.0213 16.3749 10.2697 15.9436 10.0213C16.5579 9.35478 17.1068 7.95633 16.5317 6.9761C16.1789 6.68857 15.5384 6.32262 15.4208 5.78677C15.2901 5.14635 15.9567 4.67585 15.9436 4.00929C15.7868 3.94395 15.7214 3.78711 15.4992 3.78711C15.081 4.41445 14.5059 5.18556 14.6105 6.00895C14.7412 7.01531 16.6755 7.69493 15.4208 8.53139C15.2378 8.60981 15.5384 8.83199 15.4208 8.89734C14.9765 8.76665 15.1464 9.44627 14.9765 9.78608C15.1856 9.95598 15.3947 9.96905 15.5646 10.0083C15.1725 10.3481 14.5452 10.0083 14.1531 10.3742C13.9701 10.4004 14.1923 10.0344 13.9309 10.152C12.4017 10.1259 10.7288 10.152 9.02976 10.2304C9.39571 9.38092 9.81394 8.92348 9.84008 8.15237C9.89236 7.00224 8.65074 6.84541 8.42856 5.99588C8.23251 5.23784 9.14739 4.87189 8.87293 3.99622C8.78144 3.98315 8.66381 4.00929 8.65074 3.91781C7.95805 4.36217 7.68359 5.22477 7.68359 6.36183C7.91884 6.93689 8.84679 7.39433 8.87293 7.99554C8.886 8.34842 8.49391 8.45297 8.42856 8.74051C8.78144 8.49218 7.51368 9.75994 8.35014 10.152C5.48789 10.1912 4.3914 10.2566 1.77747 10.2304C1.30697 10.5572 1.81668 11.459 1.47687 11.8642C1.12399 11.642 0.522787 11.9426 0.222185 11.7857C0.209115 11.9687 0.0914884 12.0471 8.58461e-07 12.1517V12.9881C0.117628 13.0666 0.117628 13.6547 8.58461e-07 13.7331V14.0991C0.143767 14.1644 0.182976 14.2951 0.261394 14.3866C0.810319 14.3997 1.1632 14.2559 1.5945 14.465C1.97352 17.2488 0.41823 21.3527 4.11694 21.3658C6.44334 21.3658 7.23922 21.1044 9.0559 21.1436C12.2449 21.222 14.2108 21.0521 17.7658 21.222C19.0074 21.2743 20.4843 21.3266 21.0985 21.1436C23.438 20.464 21.9873 16.4647 22.5101 14.1775C23.0851 14.0991 23.5818 14.3343 24 14.1775V12.021C23.4772 12.021 22.9544 12.021 22.4447 12.021ZM15.9436 10.1651C15.826 10.2958 15.6038 10.3219 15.3555 10.3089C15.5254 10.2304 15.7345 9.98212 15.9436 10.1651ZM23.3334 13.5763C22.8237 13.5632 22.2617 13.6155 21.8566 13.4979C21.6605 15.3668 21.6736 17.7847 21.6344 19.7974C21.4514 19.719 21.3338 19.4707 21.4906 19.7974C21.0071 19.9673 20.8633 20.1895 20.4581 20.3202C20.1445 20.3071 20.4451 20.2679 20.4581 20.1764C19.9615 20.4248 19.6478 20.0065 19.2688 20.3986C19.0466 20.3986 19.0858 20.1372 18.8244 20.1764C17.243 20.2941 16.5448 20.1111 15.3685 20.3986C15.3816 20.3071 15.4992 20.3333 15.5907 20.3202C14.4014 20.0719 12.5194 20.3202 10.6243 20.3202C8.49391 20.3202 6.71644 20.3071 4.83441 20.3202C3.61893 20.3202 4.5221 20.3986 3.24127 20.2418C2.05194 19.2485 2.87532 15.406 2.65314 13.5632C2.48323 13.1058 1.47687 13.5109 1.09785 13.2626V12.9881C1.42459 12.5176 2.0258 12.9881 2.43096 12.766C2.7577 12.3739 2.36561 11.7204 2.57472 11.2107C9.58005 11.0538 14.1193 11.1845 21.7912 11.1323C21.8958 11.5113 21.8566 12.0471 21.8696 12.5438C22.2225 12.7137 22.876 12.5699 23.3465 12.6222C23.3334 12.9359 23.3334 13.2495 23.3334 13.5763Z" fill="#75A37D"/>
</svg>
