<svg width="12" height="12" viewBox="0 0 12 12" fill="none" xmlns="http://www.w3.org/2000/svg">
<path d="M2.09342 10.0335C2.09115 10.0263 2.0912 10.0214 2.08657 10.0167C2.08199 10.0071 2.07505 9.99994 2.07047 9.99035C2.05895 9.97361 2.06145 9.95672 2.07093 9.94217C2.07801 9.93488 2.08277 9.9252 2.08984 9.9179C2.09692 9.9106 2.0947 9.89858 2.09007 9.89381C2.08545 9.88904 2.08313 9.88666 2.08087 9.87945C2.07624 9.87468 2.07162 9.86991 2.06935 9.86271C2.05783 9.84597 2.04205 9.78592 2.04691 9.7666C2.04695 9.76178 2.047 9.75696 2.04936 9.75453C2.06605 9.71824 2.07807 9.68199 2.10638 9.6528C2.12053 9.63821 2.13468 9.62361 2.14883 9.60902C2.16298 9.59442 2.17246 9.57988 2.17265 9.56061C2.17288 9.53652 2.18471 9.51954 2.19891 9.50013C2.20599 9.49283 2.21542 9.4831 2.2225 9.47581C2.23193 9.46608 2.23202 9.45644 2.22513 9.44447C2.21602 9.42048 2.20223 9.39653 2.19312 9.37254C2.19085 9.36534 2.18627 9.35575 2.18867 9.3485C2.18895 9.31959 2.18922 9.29069 2.19884 9.26169C2.2061 9.23513 2.21336 9.20856 2.22062 9.18199C2.22302 9.17474 2.22543 9.16749 2.22783 9.16024C2.23264 9.14574 2.24212 9.1312 2.24693 9.1167C2.24933 9.10945 2.2541 9.09977 2.2565 9.09252C2.26834 9.07554 2.27787 9.05617 2.28503 9.03924C2.29215 9.02713 2.29692 9.01744 2.30404 9.00533C2.32295 8.98105 2.33955 8.95439 2.35616 8.92773C2.36568 8.90837 2.37752 8.89139 2.39167 8.87679C2.41766 8.84522 2.4413 8.81608 2.46497 8.78212C2.48393 8.75303 2.50752 8.72871 2.52879 8.702C2.54294 8.6874 2.55478 8.67042 2.56894 8.65583C2.6279 8.59502 2.68219 8.53426 2.73186 8.46873C2.73658 8.46387 2.73894 8.46143 2.74365 8.45657C2.80738 8.38608 2.86413 8.31325 2.9255 8.24519C2.96092 8.20389 2.99639 8.15777 3.0295 8.11409C3.0437 8.09467 3.06026 8.07283 3.07677 8.0558C3.09804 8.0291 3.12167 7.99996 3.14063 7.97086C3.21157 7.87862 3.28483 7.78877 3.36271 7.70369C3.4028 7.66234 3.44059 7.6186 3.48073 7.57243C3.502 7.54573 3.52564 7.51659 3.54691 7.48988C3.56111 7.47047 3.57997 7.45101 3.59417 7.4316C3.63431 7.38543 3.67677 7.34165 3.71923 7.29787C3.73574 7.28084 3.7546 7.26138 3.7688 7.24197C3.81366 7.19094 3.86314 7.14468 3.90796 7.09846C3.93626 7.06928 3.96692 7.03766 3.99523 7.00847C4.02117 6.98171 4.04712 6.95496 4.0707 6.93063C4.08014 6.9209 4.08957 6.91118 4.10132 6.90383C4.13425 6.87941 4.16491 6.84779 4.1909 6.81622C4.25694 6.74812 4.32534 6.67758 4.39138 6.60947C4.42204 6.57785 4.45271 6.54623 4.48337 6.51461C4.52582 6.47083 4.56828 6.42705 4.61305 6.38565C4.6272 6.37106 4.64371 6.35403 4.65786 6.33944C4.71682 6.27863 4.77343 6.22026 4.8324 6.15945C4.83711 6.15458 4.84183 6.14972 4.84655 6.14485C4.85126 6.13999 4.85136 6.13036 4.84673 6.12559C4.84442 6.1232 4.84211 6.12082 4.83979 6.11843C4.78882 6.07559 4.7402 6.03032 4.68687 5.98992C4.6266 5.94236 4.56633 5.8948 4.51078 5.84237C4.4876 5.82334 4.46211 5.80192 4.43894 5.78289C4.39722 5.74959 4.35549 5.71629 4.31146 5.68061C4.30452 5.67345 4.29291 5.66634 4.28597 5.65919C4.2443 5.62107 4.20026 5.58539 4.15858 5.54728C4.14702 5.53535 4.1331 5.52586 4.12153 5.51393C4.09373 5.49013 4.06829 5.46389 4.03818 5.4377C3.97106 5.37335 3.89923 5.31387 3.83211 5.24952C3.76032 5.18521 3.68853 5.12091 3.6215 5.04692C3.55212 4.97537 3.48509 4.90138 3.41571 4.82983C3.40183 4.81552 3.39262 4.80116 3.37875 4.78685C3.28401 4.67943 3.18461 4.57205 3.08751 4.46706C3.032 4.40982 2.9765 4.35257 2.92571 4.29047C2.92339 4.28808 2.92108 4.2857 2.91877 4.28331C2.85632 4.21891 2.8009 4.15204 2.74082 4.08521C2.72925 4.07328 2.72236 4.06131 2.71315 4.04695C2.70164 4.03021 2.69243 4.01585 2.67619 4.00397C2.63447 3.97067 2.59747 3.93251 2.56046 3.89435C2.50495 3.83711 2.44944 3.77986 2.39394 3.72262C2.36387 3.69162 2.34319 3.6557 2.32487 3.61735C2.31344 3.59097 2.31825 3.57647 2.33944 3.5594C2.34179 3.55696 2.34651 3.5521 2.34887 3.54967C2.35123 3.54723 2.35127 3.54242 2.35127 3.54242C2.34901 3.53521 2.34438 3.53044 2.34211 3.52324C2.31681 3.48255 2.31681 3.48255 2.30557 3.43691C2.30557 3.43691 2.30325 3.43452 2.30561 3.43209C2.30112 3.41286 2.30362 3.39598 2.31079 3.37905C2.32753 3.33793 2.34889 3.30159 2.38187 3.27236C2.38894 3.26506 2.39602 3.25776 2.40309 3.25047C2.41489 3.2383 2.42437 3.22376 2.42455 3.20449C2.4246 3.19967 2.42464 3.19485 2.42469 3.19004C2.42718 3.17315 2.4343 3.16104 2.44841 3.15126C2.45549 3.14396 2.46723 3.13662 2.47431 3.12932C2.48138 3.12203 2.48384 3.10996 2.47926 3.10037C2.47699 3.09317 2.47468 3.09078 2.47241 3.08358C2.45858 3.06445 2.45182 3.03803 2.44502 3.01642C2.44275 3.00922 2.4428 3.0044 2.44285 2.99958C2.44307 2.9755 2.44566 2.94898 2.45056 2.92484C2.45787 2.89346 2.46984 2.86203 2.47946 2.83303C2.48187 2.82578 2.48658 2.82091 2.48899 2.81366C2.49375 2.80398 2.49851 2.7943 2.50092 2.78705C2.50573 2.77255 2.51285 2.76044 2.51997 2.74832C2.52709 2.73621 2.53185 2.72652 2.53898 2.71441C2.54614 2.69748 2.55562 2.68293 2.5651 2.66839C2.5793 2.64897 2.59586 2.62713 2.60774 2.60533C2.61962 2.58354 2.63382 2.56413 2.65269 2.54467C2.67628 2.52035 2.6976 2.48882 2.71887 2.46211C2.74727 2.42329 2.7733 2.3869 2.80863 2.35523C2.82279 2.34064 2.83458 2.32847 2.84873 2.31388C2.85581 2.30658 2.86284 2.3041 2.87449 2.3064C2.8978 2.31098 2.92347 2.31313 2.94202 2.32739C2.9886 2.34137 3.02103 2.36994 3.05576 2.4009C3.06969 2.4104 3.08125 2.42232 3.09281 2.43425C3.12057 2.46287 3.14837 2.48667 3.17376 2.51773C3.19458 2.53919 3.21549 2.55102 3.24583 2.55313C3.26683 2.55532 3.28542 2.56477 3.2993 2.57908C3.31086 2.591 3.32247 2.59811 3.3388 2.60036C3.34347 2.60031 3.35045 2.60265 3.35508 2.60742C3.37363 2.62168 3.39694 2.62626 3.41794 2.62846C3.43894 2.63065 3.45753 2.6401 3.47372 2.6568C3.47835 2.66157 3.48297 2.66634 3.4876 2.67111C3.51998 2.7045 3.55236 2.73789 3.58242 2.7689C3.6148 2.80229 3.64718 2.83568 3.68197 2.86182C3.71444 2.88558 3.74219 2.9142 3.76995 2.94282C3.78614 2.95952 3.807 2.97616 3.82555 2.99043C3.84645 3.00226 3.86264 3.01895 3.8835 3.0356C3.95067 3.09514 4.01779 3.15949 4.08255 3.22627C4.12422 3.26439 4.16354 3.30493 4.20517 3.34786C4.29542 3.43606 4.38798 3.52665 4.47822 3.61485C4.52915 3.66251 4.57777 3.70778 4.62634 3.75787C4.70035 3.83419 4.77908 3.90565 4.85545 3.97954C4.8832 4.00816 4.91331 4.03435 4.94342 4.06054C5.00832 4.11287 5.07317 4.17002 5.13807 4.22235C5.19135 4.26757 5.24464 4.3128 5.30029 4.35559C5.36056 4.40315 5.42083 4.45071 5.4811 4.49827C5.55992 4.56009 5.63874 4.62192 5.71992 4.68131C5.78486 4.72882 5.8498 4.77633 5.91243 4.82146C5.93329 4.83811 5.95184 4.85237 5.9727 4.86902C5.97964 4.87618 5.98663 4.87852 5.99356 4.88567C6.03297 4.91658 6.0283 4.91663 6.06599 4.88253C6.12727 4.82411 6.18855 4.76568 6.24983 4.70726C6.27577 4.68051 6.30403 4.65614 6.32762 4.63181C6.44083 4.51506 6.55636 4.4007 6.67193 4.28151C6.70967 4.2426 6.7474 4.20368 6.78514 4.16476C6.83231 4.11612 6.8818 4.06985 6.93133 4.01877C6.97378 3.97499 7.01624 3.93121 7.06101 3.88982C7.1129 3.83631 7.16941 3.78756 7.22593 3.73882C7.25654 3.71202 7.28952 3.68279 7.32013 3.65598C7.37434 3.60486 7.4308 3.56093 7.48727 3.51701C7.57667 3.44867 7.6638 3.37313 7.74164 3.29286C7.76758 3.26611 7.79584 3.24173 7.8241 3.21736C7.84056 3.20515 7.85235 3.19299 7.86651 3.1784C7.91835 3.12971 7.97019 3.08101 8.02666 3.03709C8.04313 3.02488 8.06195 3.01024 8.07841 2.99803C8.10903 2.97123 8.1396 2.94924 8.17022 2.92244C8.21027 2.88591 8.25726 2.85653 8.29726 2.82482C8.35137 2.78333 8.4078 2.74422 8.45959 2.70034C8.51135 2.66129 8.56078 2.61984 8.6148 2.58799C8.65943 2.56104 8.69944 2.52933 8.7418 2.49518C8.79591 2.45369 8.85234 2.41458 8.91334 2.38507C8.95325 2.36299 8.99317 2.34091 9.03081 2.31162C9.04964 2.29698 9.06841 2.28716 9.08955 2.2749C9.14824 2.243 9.20693 2.2111 9.26331 2.17681C9.28209 2.16699 9.2985 2.15959 9.31728 2.14977C9.3337 2.14238 9.35012 2.13499 9.36885 2.12998C9.39466 2.11768 9.42514 2.10533 9.45552 2.10261C9.46255 2.10013 9.46958 2.09765 9.47661 2.09517C9.49067 2.09021 9.50469 2.09007 9.51866 2.09475C9.53961 2.10176 9.56056 2.10878 9.58147 2.12061C9.5977 2.13248 9.61625 2.14675 9.63013 2.16106C9.63707 2.16821 9.64401 2.17537 9.65095 2.18253C9.67172 2.20881 9.69725 2.22541 9.72995 2.22508C9.73462 2.22503 9.73925 2.2298 9.74387 2.23457C9.7485 2.23934 9.75081 2.24173 9.75544 2.2465L9.75775 2.24888C9.77648 2.24388 9.78795 2.26544 9.80433 2.26286C9.81136 2.26038 9.81834 2.26272 9.82532 2.26506C9.83467 2.26497 9.84161 2.27212 9.84387 2.27932C9.84619 2.28171 9.84614 2.28653 9.84614 2.28653C9.8529 2.31295 9.86668 2.3369 9.88986 2.35593C9.89911 2.36547 9.906 2.37744 9.90822 2.38946C9.9104 2.4063 9.91026 2.42075 9.90545 2.43525C9.903 2.44732 9.90286 2.46177 9.89574 2.47389C9.89089 2.4932 9.8907 2.51247 9.90222 2.52922C9.9068 2.5388 9.91138 2.54839 9.91832 2.55555C9.92748 2.57472 9.93197 2.59394 9.93178 2.61321C9.9316 2.63248 9.92906 2.65419 9.91953 2.67355C9.91237 2.69048 9.90751 2.7098 9.90035 2.72673C9.86201 2.82827 9.82137 2.92743 9.77142 3.02187C9.74049 3.08239 9.70025 3.13819 9.66007 3.18918C9.63643 3.21832 9.61516 3.24503 9.58922 3.27178C9.56087 3.30579 9.52785 3.33984 9.49718 3.37146C9.47596 3.39335 9.4594 3.41519 9.43817 3.43709C9.38152 3.50028 9.32714 3.57067 9.26586 3.6291C9.24227 3.65342 9.21633 3.68018 9.19505 3.70688C9.14779 3.76516 9.09354 3.82111 9.04165 3.87462C8.9874 3.93056 8.93316 3.98651 8.87886 4.04727C8.86471 4.06186 8.85056 4.07645 8.83641 4.09105C8.76805 4.15677 8.70668 4.22483 8.64296 4.29531C8.59338 4.35121 8.54144 4.40954 8.48724 4.46066C8.47545 4.47283 8.46366 4.48499 8.45186 4.49715C8.42116 4.53359 8.38813 4.56764 8.35507 4.60651C8.32912 4.63327 8.30318 4.66002 8.27488 4.68921C8.23478 4.73056 8.197 4.77429 8.15917 4.82284C8.14733 4.83982 8.13553 4.85198 8.12138 4.86658C8.086 4.90306 8.0553 4.9395 8.01992 4.97599C7.97039 5.02706 7.92321 5.07571 7.87137 5.1244C7.86665 5.12927 7.86429 5.1317 7.85958 5.13657C7.80061 5.19737 7.73235 5.25346 7.66876 5.3095C7.64753 5.33139 7.62866 5.35084 7.60744 5.37274C7.57206 5.40922 7.53904 5.44327 7.50366 5.47976C7.46592 5.51868 7.42818 5.55759 7.39044 5.59651C7.36922 5.6184 7.34799 5.64029 7.32907 5.66457C7.30785 5.68646 7.28657 5.71317 7.26535 5.73506C7.22289 5.77884 7.18279 5.82019 7.14034 5.86397C7.13326 5.87127 7.12383 5.88099 7.11907 5.89068C7.11671 5.89311 7.11662 5.90274 7.12124 5.90751C7.12355 5.9099 7.12587 5.91229 7.12818 5.91467C7.17444 5.96237 7.22305 6.00764 7.267 6.05296C7.28319 6.06966 7.30405 6.0863 7.31788 6.10543C7.37339 6.16267 7.42894 6.2151 7.48681 6.26991C7.55392 6.33426 7.62336 6.401 7.69283 6.46291C7.74607 6.51295 7.79931 6.563 7.85491 6.6106C7.90584 6.65826 7.95677 6.70591 8.01006 6.75114C8.05636 6.79402 8.10266 6.83691 8.15132 6.87736C8.20461 6.92258 8.25785 6.97262 8.30878 7.02028C8.34347 7.05605 8.38052 7.0894 8.41521 7.12517C8.47303 7.1848 8.52619 7.24448 8.58165 7.30654C8.64636 7.37814 8.70872 7.45217 8.7781 7.52372C8.79198 7.53803 8.80585 7.55234 8.81737 7.56909C8.84739 7.60491 8.8751 7.63835 8.90748 7.67174C8.95832 7.72903 9.00915 7.78632 9.05523 7.85329C9.0852 7.89393 9.11522 7.92976 9.14756 7.96797C9.16602 7.99186 9.18683 8.01333 9.20293 8.03966C9.26048 8.12819 9.32741 8.21181 9.38963 8.3003C9.42187 8.34814 9.45647 8.39356 9.48871 8.4414C9.5371 8.51076 9.58785 8.57768 9.63623 8.64704C9.68462 8.71639 9.73536 8.78332 9.79078 8.8502C9.80234 8.86212 9.80924 8.8741 9.81844 8.88845C9.85068 8.9363 9.88293 8.98414 9.91517 9.03198C9.94972 9.08221 9.97961 9.13249 10.0118 9.18515C10.0256 9.20428 10.0348 9.22827 10.0462 9.24983C10.0554 9.26901 10.0599 9.28823 10.062 9.30989C10.0642 9.32672 10.064 9.34599 10.0615 9.36288C10.0566 9.38701 10.0517 9.41115 10.0491 9.43766C10.0467 9.44973 10.0489 9.46175 10.0535 9.47134C10.0557 9.47854 10.0604 9.48331 10.0626 9.49051C10.0649 9.49772 10.0695 9.50249 10.0741 9.50726C10.1086 9.56712 10.1104 9.62732 10.0887 9.69256C10.0792 9.71674 10.0719 9.73849 10.0624 9.76268C10.0576 9.77718 10.0504 9.79411 10.0456 9.80861C10.0384 9.82554 10.0336 9.84485 10.0264 9.86179C10.0145 9.88358 10.0026 9.90538 9.98843 9.92479C9.98367 9.93447 9.97659 9.94177 9.96951 9.94907C9.94593 9.97339 9.92234 9.99771 9.89644 10.0197C9.84696 10.0659 9.80441 10.1193 9.76654 10.1727C9.75461 10.1993 9.7288 10.2116 9.70299 10.2239C9.69596 10.2264 9.68657 10.2313 9.67959 10.229C9.65387 10.2316 9.62816 10.2343 9.60249 10.2322C9.57682 10.23 9.5511 10.2327 9.52543 10.2305C9.50207 10.2308 9.47636 10.2334 9.45305 10.2289C9.40175 10.2197 9.35286 10.2034 9.30874 10.1773C9.2832 10.1607 9.25762 10.1489 9.22969 10.1396C9.20406 10.1326 9.17848 10.1208 9.15286 10.1139C9.11794 10.1022 9.08306 10.0857 9.04823 10.0643C8.98093 10.0193 8.90896 9.97423 8.84406 9.9219C8.83712 9.91475 8.82551 9.90764 8.81858 9.90049C8.78384 9.86953 8.7491 9.83857 8.712 9.81004C8.62398 9.73386 8.54067 9.65281 8.45977 9.56452C8.44126 9.54543 8.42507 9.52874 8.40657 9.50966C8.33945 9.44531 8.27705 9.37609 8.21701 9.30444C8.19161 9.27339 8.16391 9.23995 8.13851 9.2089C8.12232 9.1922 8.10849 9.17307 8.0923 9.15638C8.05067 9.11345 8.0114 9.06808 7.97212 9.02272C7.95825 9.00841 7.94437 8.9941 7.93049 8.97978C7.8773 8.92493 7.8241 8.87007 7.77322 8.8176C7.76397 8.80806 7.75472 8.79852 7.74547 8.78898C7.71077 8.7532 7.67608 8.71742 7.63903 8.68408C7.60434 8.6483 7.56729 8.61496 7.53024 8.58161C7.50942 8.56015 7.48856 8.5435 7.46774 8.52203C7.38444 8.44099 7.29877 8.36237 7.2131 8.28376C7.1853 8.25995 7.1575 8.23615 7.1297 8.21235C7.09496 8.18139 7.05787 8.15286 7.02313 8.1219C6.95365 8.05998 6.88413 8.00288 6.81461 7.94578C6.74744 7.88625 6.67561 7.82676 6.61081 7.76479C6.57375 7.73145 6.53439 7.69572 6.49734 7.66238C6.4163 7.58853 6.3329 7.51712 6.25657 7.43841C6.23345 7.41456 6.20565 7.39076 6.18252 7.36691C6.15014 7.33351 6.1154 7.30255 6.08533 7.27155C6.03903 7.22866 5.99042 7.18339 5.94647 7.13808C5.94416 7.13569 5.93953 7.13092 5.93722 7.12854C5.93259 7.12377 5.92556 7.12625 5.92089 7.12629C5.91618 7.13116 5.9115 7.1312 5.90679 7.13607C5.86433 7.17985 5.82188 7.22363 5.78174 7.2698C5.73692 7.31601 5.69678 7.36218 5.65197 7.40839C5.60479 7.45704 5.55993 7.50807 5.51503 7.56392C5.48904 7.59549 5.46541 7.62463 5.4371 7.65382C5.38521 7.70733 5.33097 7.76328 5.27908 7.81679C5.24134 7.8557 5.20124 7.89705 5.16351 7.93597C5.11869 7.98218 5.07388 8.0284 5.02906 8.07461C5.00076 8.1038 4.97246 8.13299 4.94416 8.16218C4.89467 8.20844 4.8475 8.25708 4.805 8.30568C4.77193 8.34455 4.7366 8.37622 4.70122 8.41271C4.66584 8.44919 4.6281 8.48811 4.59041 8.52221C4.5456 8.56842 4.50083 8.60982 4.45601 8.65603C4.38766 8.72175 4.32157 8.79467 4.26016 8.86755C4.24124 8.89182 4.22237 8.91128 4.20115 8.93317C4.17284 8.96236 4.14685 8.99393 4.12086 9.02551C4.10667 9.04492 4.0878 9.06438 4.07129 9.0814C4.0477 9.10572 4.02879 9.13 4.01218 9.15666C3.99327 9.18094 3.97667 9.2076 3.95775 9.23188C3.927 9.27313 3.89158 9.31443 3.85851 9.3533C3.83959 9.37758 3.81832 9.40429 3.79941 9.42856C3.76629 9.47225 3.73318 9.51594 3.69544 9.55485C3.67422 9.57674 3.65766 9.59859 3.63875 9.62286C3.60332 9.66417 3.5679 9.70547 3.53247 9.74677C3.51124 9.76866 3.49469 9.7905 3.47577 9.81478C3.45445 9.84631 3.42846 9.87788 3.40016 9.90707C3.39073 9.9168 3.37893 9.92896 3.37181 9.94107C3.3387 9.98476 3.2986 10.0261 3.25855 10.0626C3.23261 10.0894 3.20666 10.1162 3.18534 10.1477C3.17351 10.1647 3.15935 10.1793 3.1452 10.1938C3.12162 10.2182 3.09803 10.2425 3.07907 10.2716C3.05303 10.308 3.01548 10.3276 2.97792 10.3473C2.96155 10.3498 2.94749 10.3548 2.93116 10.3526C2.89846 10.3529 2.86576 10.3532 2.83311 10.3487C2.82377 10.3488 2.81211 10.3465 2.80277 10.3466C2.76775 10.3446 2.73265 10.3522 2.69532 10.3477C2.66498 10.3456 2.63233 10.3411 2.60444 10.327C2.59745 10.3246 2.59047 10.3223 2.58348 10.3199C2.56716 10.3177 2.55088 10.3106 2.53931 10.2987C2.51845 10.2821 2.49523 10.2678 2.46965 10.2561C2.4487 10.2491 2.42779 10.2372 2.40448 10.2326C2.39981 10.2327 2.3975 10.2303 2.3975 10.2303C2.37659 10.2185 2.35332 10.2091 2.33237 10.2021C2.3184 10.1974 2.30679 10.1903 2.29278 10.1904C2.28112 10.1881 2.26715 10.1834 2.2579 10.1739C2.24398 10.1644 2.23473 10.1549 2.21845 10.1478C2.16511 10.1074 2.12811 10.0692 2.09342 10.0335Z" fill="#F5F5F0"/>
</svg>
