<svg width="33" height="32" viewBox="0 0 33 32" fill="none" xmlns="http://www.w3.org/2000/svg">
<path d="M5.75592 26.7559C5.74968 26.7367 5.74981 26.7239 5.73709 26.7111C5.72449 26.6856 5.70542 26.6665 5.69282 26.6409C5.66115 26.5963 5.66801 26.5513 5.69408 26.5125C5.71354 26.493 5.72663 26.4672 5.74609 26.4477C5.76555 26.4283 5.75944 26.3962 5.74672 26.3835C5.734 26.3708 5.72764 26.3644 5.72141 26.3452C5.70869 26.3325 5.69597 26.3198 5.68973 26.3006C5.65806 26.2559 5.61467 26.0958 5.62802 26.0443C5.62814 26.0314 5.62827 26.0186 5.63475 26.0121C5.68066 25.9153 5.71372 25.8186 5.79156 25.7408C5.83047 25.7019 5.86939 25.663 5.90831 25.624C5.94723 25.5851 5.9733 25.5463 5.9738 25.495C5.97443 25.4307 6.00699 25.3854 6.04603 25.3337C6.06549 25.3142 6.09143 25.2883 6.11089 25.2688C6.13683 25.2429 6.13708 25.2172 6.11813 25.1853C6.09307 25.1213 6.05516 25.0574 6.03009 24.9934C6.02386 24.9742 6.01126 24.9487 6.01787 24.9293C6.01863 24.8523 6.01939 24.7752 6.04583 24.6978C6.0658 24.627 6.08576 24.5562 6.10572 24.4853C6.11233 24.466 6.11894 24.4466 6.12556 24.4273C6.13878 24.3886 6.16485 24.3499 6.17807 24.3112C6.18469 24.2919 6.19779 24.266 6.2044 24.2467C6.23695 24.2014 6.26315 24.1498 6.28286 24.1046C6.30245 24.0723 6.31554 24.0465 6.33512 24.0142C6.38714 23.9495 6.4328 23.8784 6.47845 23.8073C6.50465 23.7556 6.5372 23.7104 6.57612 23.6715C6.64759 23.5873 6.71258 23.5096 6.7777 23.419C6.82984 23.3414 6.8947 23.2765 6.9532 23.2053C6.99212 23.1664 7.02468 23.1211 7.06359 23.0822C7.22575 22.9201 7.37505 22.758 7.51164 22.5833C7.52461 22.5703 7.5311 22.5638 7.54407 22.5509C7.71933 22.3629 7.87537 22.1687 8.04414 21.9872C8.14156 21.877 8.2391 21.7541 8.33016 21.6376C8.3692 21.5858 8.41473 21.5276 8.46014 21.4821C8.51864 21.4109 8.58362 21.3332 8.63576 21.2556C8.83085 21.0097 9.0323 20.7701 9.24647 20.5432C9.35674 20.4329 9.46064 20.3163 9.57103 20.1932C9.62953 20.1219 9.69452 20.0442 9.75302 19.973C9.79206 19.9212 9.84395 19.8694 9.883 19.8176C9.99339 19.6945 10.1101 19.5777 10.2269 19.461C10.2723 19.4156 10.3242 19.3637 10.3632 19.3119C10.4866 19.1758 10.6227 19.0525 10.7459 18.9292C10.8237 18.8514 10.9081 18.7671 10.9859 18.6892C11.0572 18.6179 11.1286 18.5466 11.1935 18.4817C11.2194 18.4557 11.2453 18.4298 11.2777 18.4102C11.3682 18.3451 11.4525 18.2608 11.524 18.1766C11.7056 17.995 11.8937 17.8069 12.0753 17.6253C12.1596 17.5409 12.244 17.4566 12.3283 17.3723C12.445 17.2556 12.5618 17.1388 12.6849 17.0284C12.7238 16.9895 12.7692 16.9441 12.8081 16.9052C12.9703 16.743 13.126 16.5873 13.2881 16.4252C13.3011 16.4122 13.3141 16.3993 13.327 16.3863C13.34 16.3733 13.3403 16.3476 13.3275 16.3349C13.3212 16.3285 13.3148 16.3222 13.3085 16.3158C13.1683 16.2016 13.0346 16.0809 12.8879 15.9731C12.7222 15.8463 12.5564 15.7195 12.4037 15.5797C12.3399 15.5289 12.2698 15.4718 12.2061 15.421C12.0914 15.3322 11.9766 15.2434 11.8555 15.1483C11.8365 15.1292 11.8045 15.1103 11.7854 15.0912C11.6708 14.9895 11.5497 14.8944 11.4351 14.7927C11.4033 14.7609 11.365 14.7356 11.3332 14.7038C11.2568 14.6403 11.1868 14.5704 11.104 14.5005C10.9194 14.3289 10.7219 14.1703 10.5373 13.9987C10.3399 13.8272 10.1425 13.6558 9.95815 13.4585C9.76734 13.2677 9.58302 13.0704 9.39221 12.8796C9.35405 12.8414 9.32874 12.8031 9.29057 12.7649C9.03005 12.4785 8.75669 12.1921 8.48968 11.9122C8.33704 11.7595 8.18439 11.6069 8.04471 11.4412C8.03835 11.4349 8.03199 11.4285 8.02563 11.4222C7.85391 11.2504 7.70151 11.0721 7.53627 10.8939C7.50447 10.8621 7.48551 10.8302 7.46019 10.7919C7.42852 10.7472 7.4032 10.7089 7.35855 10.6773C7.24382 10.5885 7.14205 10.4867 7.04029 10.3849C6.88764 10.2323 6.73499 10.0796 6.58235 9.92699C6.49966 9.84431 6.4428 9.74852 6.39242 9.64626C6.36099 9.57592 6.37422 9.53725 6.43247 9.49172C6.43896 9.48524 6.45193 9.47226 6.45842 9.46578C6.4649 9.45929 6.46503 9.44644 6.46503 9.44644C6.45879 9.42723 6.44607 9.41452 6.43984 9.39531C6.37025 9.28681 6.37025 9.28681 6.33933 9.16508C6.33933 9.16508 6.33297 9.15872 6.33946 9.15223C6.32711 9.10097 6.33398 9.05595 6.35369 9.01079C6.39972 8.90116 6.45847 8.80425 6.54915 8.72629C6.56861 8.70683 6.58807 8.68737 6.60753 8.66791C6.63996 8.63548 6.66603 8.59669 6.66654 8.5453C6.66666 8.53245 6.66679 8.51961 6.66691 8.50676C6.67378 8.46174 6.69336 8.42943 6.73215 8.40336C6.75161 8.3839 6.78391 8.36432 6.80337 8.34486C6.82283 8.3254 6.82957 8.29322 6.81698 8.26765C6.81074 8.24845 6.80438 8.24209 6.79815 8.22288C6.76011 8.17187 6.74153 8.10141 6.72283 8.04379C6.7166 8.02458 6.71672 8.01174 6.71685 7.99889C6.71748 7.93466 6.72459 7.86394 6.73807 7.79958C6.75816 7.71589 6.79109 7.63207 6.81754 7.55474C6.82415 7.53541 6.83712 7.52244 6.84373 7.5031C6.85683 7.47728 6.86993 7.45147 6.87654 7.43213C6.88977 7.39347 6.90935 7.36116 6.92893 7.32886C6.94852 7.29655 6.96162 7.27073 6.9812 7.23843C7.00091 7.19328 7.02699 7.15449 7.05306 7.1157C7.0921 7.06393 7.13763 7.00568 7.17031 6.94756C7.20299 6.88944 7.24204 6.83767 7.29392 6.78578C7.35879 6.72092 7.41741 6.63685 7.47592 6.56563C7.554 6.4621 7.6256 6.36506 7.72277 6.28061C7.76168 6.2417 7.79411 6.20926 7.83303 6.17035C7.85249 6.15089 7.87182 6.14428 7.90388 6.15039C7.96798 6.16261 8.03858 6.16834 8.08959 6.20637C8.21767 6.24365 8.30684 6.31985 8.40237 6.40241C8.44066 6.42773 8.47246 6.45953 8.50426 6.49133C8.58059 6.56765 8.65704 6.63113 8.72687 6.71394C8.78412 6.77118 8.84161 6.80273 8.92505 6.80833C8.9828 6.81419 9.03393 6.83938 9.07209 6.87754C9.10389 6.90935 9.13582 6.9283 9.18072 6.93428C9.19357 6.93416 9.21277 6.94039 9.22549 6.95311C9.2765 6.99115 9.34061 7.00336 9.39835 7.00922C9.4561 7.01508 9.50723 7.04027 9.55175 7.08479C9.56448 7.09751 9.5772 7.11023 9.58992 7.12295C9.67896 7.212 9.76801 7.30104 9.85069 7.38372C9.93973 7.47277 10.0288 7.56181 10.1244 7.63152C10.2137 7.69487 10.2901 7.7712 10.3664 7.84752C10.4109 7.89204 10.4683 7.93644 10.5193 7.97448C10.5768 8.00603 10.6213 8.05055 10.6787 8.09494C10.8634 8.2537 11.0479 8.4253 11.226 8.60339C11.3406 8.70503 11.4488 8.81315 11.5632 8.92764C11.8114 9.16284 12.066 9.40441 12.3141 9.63961C12.4542 9.76669 12.5879 9.88741 12.7214 10.021C12.925 10.2245 13.1415 10.4151 13.3515 10.6121C13.4278 10.6884 13.5106 10.7583 13.5934 10.8281C13.7719 10.9677 13.9502 11.12 14.1287 11.2596C14.2752 11.3802 14.4218 11.5008 14.5748 11.6149C14.7406 11.7417 14.9063 11.8686 15.072 11.9954C15.2888 12.1602 15.5056 12.3251 15.7288 12.4835C15.9074 12.6102 16.086 12.7369 16.2582 12.8572C16.3156 12.9016 16.3666 12.9397 16.424 12.9841C16.443 13.0031 16.4622 13.0094 16.4813 13.0285C16.5897 13.1109 16.5769 13.111 16.6805 13.0201C16.849 12.8643 17.0175 12.7085 17.1861 12.5527C17.2574 12.4814 17.3351 12.4164 17.4 12.3515C17.7113 12.0402 18.029 11.7352 18.3468 11.4174C18.4506 11.3136 18.5544 11.2098 18.6582 11.106C18.7879 10.9763 18.924 10.8529 19.0602 10.7167C19.1769 10.6 19.2937 10.4832 19.4168 10.3728C19.5595 10.2301 19.7149 10.1002 19.8703 9.97019C19.9545 9.89872 20.0452 9.82076 20.1294 9.74929C20.2784 9.61296 20.4337 9.49582 20.589 9.3787C20.8349 9.19645 21.0745 8.99501 21.2885 8.78096C21.3599 8.70962 21.4376 8.64462 21.5153 8.57964C21.5606 8.54708 21.593 8.51465 21.6319 8.47573C21.7745 8.34589 21.9171 8.21604 22.0723 8.09891C22.1176 8.06635 22.1694 8.02731 22.2147 7.99475C22.2989 7.92328 22.3829 7.86465 22.4671 7.79318C22.5773 7.69576 22.7065 7.61742 22.8165 7.53284C22.9653 7.4222 23.1205 7.31792 23.2629 7.20092C23.4052 7.09676 23.5412 6.98625 23.6897 6.9013C23.8125 6.82945 23.9225 6.74487 24.039 6.65381C24.1878 6.54317 24.3429 6.43889 24.5107 6.36018C24.6205 6.3013 24.7302 6.24242 24.8338 6.16433C24.8855 6.12529 24.9372 6.09909 24.9953 6.06641C25.1567 5.98133 25.3181 5.89626 25.4731 5.80482C25.5248 5.77863 25.5699 5.75891 25.6215 5.73272C25.6667 5.71301 25.7119 5.6933 25.7634 5.67995C25.8343 5.64714 25.9181 5.6142 26.0017 5.60696C26.021 5.60035 26.0404 5.59374 26.0597 5.58713C26.0984 5.5739 26.1369 5.57353 26.1753 5.586C26.233 5.6047 26.2906 5.6234 26.3481 5.65495C26.3927 5.68663 26.4437 5.72466 26.4819 5.76282C26.501 5.7819 26.52 5.80099 26.5391 5.82007C26.5962 5.89016 26.6665 5.93443 26.7564 5.93355C26.7692 5.93342 26.7819 5.94614 26.7947 5.95886C26.8074 5.97158 26.8138 5.97794 26.8265 5.99066L26.8328 5.99702C26.8843 5.98367 26.9159 6.04117 26.9609 6.0343C26.9803 6.02769 26.9995 6.03393 27.0187 6.04016C27.0444 6.03991 27.0634 6.05899 27.0697 6.07819C27.076 6.08455 27.0759 6.0974 27.0759 6.0974C27.0945 6.16787 27.1324 6.23172 27.1961 6.28248C27.2216 6.30792 27.2405 6.33985 27.2466 6.3719C27.2526 6.4168 27.2522 6.45534 27.239 6.49401C27.2323 6.52619 27.2319 6.56472 27.2123 6.59703C27.199 6.64854 27.1985 6.69993 27.2301 6.74457C27.2427 6.77014 27.2553 6.79571 27.2744 6.81479C27.2996 6.86592 27.3119 6.91718 27.3114 6.96857C27.3109 7.01996 27.3039 7.07783 27.2777 7.12947C27.258 7.17462 27.2447 7.22613 27.225 7.27128C27.1196 7.54206 27.0078 7.80649 26.8704 8.05831C26.7854 8.21971 26.6747 8.36852 26.5642 8.50448C26.4992 8.58218 26.4407 8.65341 26.3694 8.72475C26.2914 8.81543 26.2006 8.90624 26.1163 8.99056C26.0579 9.04894 26.0124 9.10719 25.954 9.16556C25.7982 9.33408 25.6486 9.5218 25.4801 9.67759C25.4153 9.74245 25.3439 9.8138 25.2854 9.88502C25.1554 10.0404 25.0063 10.1896 24.8636 10.3323C24.7144 10.4815 24.5652 10.6307 24.4159 10.7927C24.377 10.8316 24.3381 10.8705 24.2991 10.9095C24.1112 11.0847 23.9424 11.2662 23.7672 11.4542C23.6308 11.6032 23.488 11.7588 23.3389 11.8951C23.3065 11.9275 23.2741 11.96 23.2416 11.9924C23.1572 12.0896 23.0664 12.1804 22.9755 12.284C22.9041 12.3554 22.8328 12.4267 22.7549 12.5046C22.6447 12.6148 22.5408 12.7314 22.4367 12.8609C22.4042 12.9062 22.3717 12.9386 22.3328 12.9775C22.2355 13.0748 22.1511 13.172 22.0538 13.2693C21.9176 13.4055 21.7879 13.5352 21.6453 13.6651C21.6323 13.678 21.6258 13.6845 21.6129 13.6975C21.4507 13.8597 21.263 14.0092 21.0881 14.1587C21.0297 14.217 20.9778 14.2689 20.9195 14.3273C20.8222 14.4246 20.7314 14.5154 20.6341 14.6127C20.5303 14.7165 20.4265 14.8202 20.3227 14.924C20.2644 14.9824 20.206 15.0408 20.154 15.1055C20.0956 15.1639 20.0371 15.2351 19.9787 15.2935C19.862 15.4102 19.7517 15.5205 19.635 15.6372C19.6155 15.6567 19.5896 15.6827 19.5765 15.7085C19.57 15.715 19.5697 15.7407 19.5824 15.7534C19.5888 15.7597 19.5952 15.7661 19.6015 15.7725C19.7287 15.8997 19.8624 16.0204 19.9833 16.1412C20.0278 16.1857 20.0852 16.2301 20.1232 16.2812C20.2758 16.4338 20.4286 16.5736 20.5877 16.7198C20.7723 16.8914 20.9632 17.0693 21.1543 17.2344C21.3007 17.3679 21.4471 17.5013 21.6 17.6283C21.7401 17.7554 21.8801 17.8824 22.0267 18.003C22.154 18.1174 22.2813 18.2317 22.4152 18.3396C22.5617 18.4602 22.7081 18.5937 22.8482 18.7207C22.9436 18.8161 23.0455 18.9051 23.1409 19.0005C23.2999 19.1595 23.446 19.3186 23.5986 19.4841C23.7765 19.675 23.948 19.8725 24.1388 20.0633C24.177 20.1014 24.2151 20.1396 24.2468 20.1842C24.3294 20.2798 24.4056 20.3689 24.4946 20.458C24.6344 20.6107 24.7742 20.7635 24.9009 20.9421C24.9833 21.0505 25.0659 21.146 25.1548 21.2479C25.2056 21.3116 25.2628 21.3689 25.3071 21.4391C25.4653 21.6752 25.6494 21.8982 25.8205 22.1341C25.9092 22.2617 26.0043 22.3828 26.093 22.5104C26.226 22.6953 26.3656 22.8738 26.4987 23.0588C26.6317 23.2437 26.7713 23.4222 26.9237 23.6005C26.9555 23.6323 26.9744 23.6643 26.9997 23.7025C27.0884 23.8301 27.1771 23.9577 27.2657 24.0853C27.3608 24.2192 27.4429 24.3533 27.5315 24.4937C27.5695 24.5447 27.5946 24.6087 27.6261 24.6662C27.6513 24.7174 27.6637 24.7686 27.6695 24.8264C27.6755 24.8713 27.675 24.9226 27.6681 24.9677C27.6547 25.032 27.6412 25.0964 27.6341 25.1671C27.6273 25.1993 27.6334 25.2313 27.646 25.2569C27.6523 25.2761 27.665 25.2888 27.6712 25.308C27.6775 25.3272 27.6902 25.34 27.7029 25.3527C27.7977 25.5123 27.8025 25.6728 27.743 25.8468C27.7167 25.9113 27.6969 25.9693 27.6705 26.0338C27.6573 26.0725 27.6376 26.1176 27.6244 26.1563C27.6047 26.2014 27.5913 26.2529 27.5716 26.2981C27.5389 26.3562 27.5062 26.4143 27.4672 26.4661C27.4541 26.4919 27.4346 26.5114 27.4152 26.5308C27.3503 26.5957 27.2855 26.6606 27.2142 26.7191C27.0782 26.8424 26.9612 26.9849 26.857 27.1272C26.8242 27.1982 26.7532 27.231 26.6823 27.2638C26.6629 27.2704 26.6371 27.2835 26.6179 27.2773C26.5472 27.2844 26.4765 27.2915 26.4059 27.2858C26.3353 27.28 26.2645 27.2871 26.194 27.2814C26.1297 27.282 26.059 27.2892 25.9949 27.2769C25.8538 27.2526 25.7194 27.209 25.598 27.1395C25.5278 27.0953 25.4575 27.0638 25.3807 27.0389C25.3102 27.0203 25.2399 26.9889 25.1694 26.9703C25.0734 26.9391 24.9774 26.8951 24.8817 26.8383C24.6966 26.7181 24.4987 26.598 24.3202 26.4584C24.3011 26.4393 24.2692 26.4204 24.2501 26.4013C24.1546 26.3187 24.059 26.2362 23.957 26.1601C23.715 25.957 23.4859 25.7408 23.2634 25.5054C23.2125 25.4545 23.168 25.41 23.1171 25.3591C22.9325 25.1875 22.7609 25.0029 22.5958 24.8119C22.526 24.729 22.4498 24.6399 22.3799 24.5571C22.3354 24.5125 22.2974 24.4615 22.2528 24.417C22.1384 24.3025 22.0304 24.1815 21.9224 24.0606C21.8842 24.0224 21.846 23.9843 21.8079 23.9461C21.6616 23.7998 21.5153 23.6535 21.3754 23.5136C21.3499 23.4882 21.3245 23.4627 21.2991 23.4373C21.2037 23.3419 21.1082 23.2465 21.0064 23.1575C20.911 23.0621 20.8091 22.9732 20.7072 22.8843C20.6499 22.8271 20.5926 22.7827 20.5353 22.7254C20.3062 22.5093 20.0706 22.2997 19.8351 22.09C19.7586 22.0265 19.6822 21.9631 19.6057 21.8996C19.5102 21.817 19.4082 21.741 19.3126 21.6584C19.1216 21.4933 18.9304 21.341 18.7392 21.1887C18.5545 21.03 18.357 20.8714 18.1787 20.7061C18.0768 20.6172 17.9686 20.5219 17.8667 20.433C17.6438 20.2361 17.4145 20.0457 17.2046 19.8358C17.141 19.7722 17.0646 19.7087 17.0009 19.6451C16.9119 19.556 16.8164 19.4735 16.7337 19.3908C16.6064 19.2764 16.4727 19.1557 16.3518 19.0349C16.3455 19.0285 16.3327 19.0158 16.3264 19.0094C16.3137 18.9967 16.2943 19.0033 16.2815 19.0034C16.2685 19.0164 16.2557 19.0165 16.2427 19.0295C16.1259 19.1463 16.0092 19.263 15.8988 19.3861C15.7756 19.5094 15.6652 19.6325 15.5419 19.7557C15.4122 19.8854 15.2888 20.0215 15.1654 20.1705C15.0939 20.2547 15.0289 20.3324 14.9511 20.4102C14.8084 20.5529 14.6592 20.7021 14.5165 20.8448C14.4127 20.9485 14.3024 21.0588 14.1987 21.1626C14.0754 21.2858 13.9522 21.4091 13.8289 21.5323C13.7511 21.6101 13.6733 21.688 13.5954 21.7658C13.4594 21.8892 13.3296 22.0189 13.2128 22.1485C13.1218 22.2521 13.0247 22.3366 12.9274 22.4339C12.8301 22.5312 12.7263 22.635 12.6226 22.7259C12.4994 22.8491 12.3763 22.9595 12.2531 23.0827C12.0651 23.258 11.8834 23.4525 11.7145 23.6468C11.6624 23.7115 11.6106 23.7634 11.5522 23.8218C11.4743 23.8996 11.4029 23.9838 11.3314 24.068C11.2924 24.1198 11.2405 24.1717 11.1951 24.2171C11.1302 24.2819 11.0782 24.3467 11.0325 24.4178C10.9805 24.4825 10.9349 24.5536 10.8828 24.6183C10.7983 24.7283 10.7009 24.8385 10.6099 24.9421C10.5579 25.0069 10.4994 25.0781 10.4474 25.1428C10.3563 25.2593 10.2653 25.3758 10.1615 25.4796C10.1031 25.538 10.0576 25.5962 10.0056 25.661C9.90816 25.7711 9.81074 25.8812 9.71332 25.9914C9.65495 26.0498 9.60941 26.108 9.5574 26.1728C9.49877 26.2568 9.4273 26.341 9.34946 26.4188C9.32352 26.4448 9.29109 26.4772 9.2715 26.5095C9.18044 26.626 9.07018 26.7363 8.96004 26.8337C8.88869 26.9051 8.81735 26.9764 8.75872 27.0605C8.72616 27.1058 8.68725 27.1447 8.64833 27.1836C8.58347 27.2484 8.5186 27.3133 8.46646 27.3909C8.39486 27.4879 8.29159 27.5403 8.18831 27.5927C8.14329 27.5996 8.10462 27.6128 8.05972 27.6068C7.9698 27.6077 7.87987 27.6086 7.79007 27.5966C7.76438 27.5969 7.73232 27.5908 7.70663 27.591C7.61035 27.5855 7.51381 27.6058 7.41116 27.5939C7.32773 27.5883 7.23792 27.5763 7.16122 27.5386C7.14202 27.5323 7.12281 27.5261 7.10361 27.5199C7.05871 27.5139 7.01393 27.495 6.98213 27.4632C6.92476 27.4188 6.86091 27.3809 6.79057 27.3495C6.73295 27.3308 6.67545 27.2993 6.61134 27.287C6.5985 27.2872 6.59214 27.2808 6.59214 27.2808C6.53464 27.2493 6.47066 27.2242 6.41304 27.2055C6.37463 27.193 6.3427 27.1741 6.30416 27.1744C6.27211 27.1683 6.23369 27.1559 6.20825 27.1304C6.16996 27.1051 6.14453 27.0797 6.09975 27.0608C5.95309 26.9531 5.85132 26.8513 5.75592 26.7559Z" fill="#B8402E"/>
</svg>
