<svg width="24" height="24" viewBox="0 0 24 24" fill="none" xmlns="http://www.w3.org/2000/svg">
<path d="M21.6838 0.605848C21.6737 0.497828 21.6584 0.399202 21.638 0.446167C21.638 0.432077 21.6431 0.422684 21.6431 0.408595C21.6431 0.399202 21.6482 0.389809 21.6482 0.371023C21.6482 0.342844 21.6482 0.319362 21.6431 0.300576C21.638 0.258307 21.6227 0.230128 21.6126 0.206646C21.6024 0.183163 21.5922 0.164377 21.5769 0.136198C21.5617 0.112716 21.5464 0.0845369 21.5108 0.0469649C21.4599 0.0563579 21.3835 0.0140895 21.2817 0.00469649C21.2664 0.00469649 21.2563 0 21.241 0C21.2257 0 21.2155 0 21.2003 0C21.185 0 21.1697 0 21.1545 0.00469649C21.1443 0.00469649 21.1341 0.00939299 21.1188 0.00939299C21.0934 0.0140895 21.073 0.018786 21.0527 0.0234825C21.0323 0.028179 21.0069 0.0375719 20.9865 0.0469649C20.6607 0.0798404 20.8898 0 20.5487 0.0939299C20.4622 0.103323 20.4978 0.0845369 20.5487 0.0610544C20.6047 0.0422684 20.676 0.018786 20.676 0.018786C20.3248 0.0939299 20.5233 0.103323 20.4571 0.150288C20.0448 0.258307 20.2535 0.154984 20.1059 0.164377C19.8514 0.239521 19.6682 0.333451 19.4747 0.375719C19.4595 0.371023 19.4188 0.375719 19.4595 0.356933C19.1999 0.460256 18.6502 0.554186 18.3498 0.680991C18.3244 0.680991 18.3142 0.680991 18.304 0.680991C18.3651 0.695081 18.3804 0.718563 18.3702 0.737349C18.2175 0.774921 18.0903 0.840672 18.0241 0.821886C18.1208 0.798404 18.1208 0.784314 18.1666 0.760832L18.0088 0.81719C17.851 0.807797 18.2226 0.746742 18.2175 0.70917C17.907 0.8031 17.5507 0.934602 17.3064 0.99096C17.2402 0.958085 17.8663 0.821886 17.5303 0.868851C17.6576 0.840672 17.7848 0.81719 17.9121 0.789011C17.6016 0.789011 18.1412 0.737349 17.8561 0.72326C17.6067 0.779618 17.4693 0.821886 17.3369 0.864155C17.1995 0.91112 17.0672 0.953388 16.8177 1.02384C16.7159 1.08489 16.8686 1.04732 16.7668 1.10837C16.4309 1.24457 16.2884 1.27745 16.1611 1.29623C16.1 1.31032 16.044 1.31502 15.9728 1.3432C15.9372 1.35729 15.9015 1.37138 15.8557 1.39486C15.8354 1.40425 15.8099 1.41834 15.7895 1.43713C15.7794 1.44652 15.7641 1.45122 15.7539 1.46061C15.7488 1.46531 15.7386 1.47 15.7336 1.4747L15.7234 1.4794L15.7183 1.48409H15.7132C15.6827 1.43243 15.7539 1.55454 15.7437 1.53575L15.7285 1.51227L15.7132 1.48879L15.7081 1.48409V1.4794L15.703 1.48409C15.6979 1.48879 15.6928 1.49348 15.6877 1.49818C15.6776 1.50757 15.6674 1.51697 15.6521 1.52636C15.6267 1.54515 15.6063 1.56863 15.5707 1.59211C15.5045 1.63908 15.4129 1.68604 15.2347 1.76588C15.2653 1.72831 15.2907 1.69074 15.3213 1.65786C15.0922 1.77527 15.0464 1.83633 14.9904 1.89269C14.965 1.92087 14.9395 1.94904 14.8937 1.98662C14.8479 2.02419 14.7817 2.07115 14.6748 2.15099C14.6901 2.13221 14.7105 2.10873 14.741 2.08055C14.7715 2.05237 14.8021 2.02888 14.8326 2.00071C14.8886 1.95374 14.9344 1.91617 14.9039 1.93965C14.7563 2.02419 14.7155 2.06646 14.6901 2.10873C14.6596 2.15099 14.6443 2.18857 14.5476 2.2731H14.4712C14.0895 2.63004 13.7535 3.09499 13.4939 3.58812C13.4939 3.55525 13.5245 3.46132 13.4481 3.57403C13.3667 3.73371 13.2903 3.89809 13.2191 4.06716C13.1478 4.23624 13.0765 4.41001 13.0104 4.57908C12.878 4.92192 12.761 5.26007 12.6337 5.55595C12.6184 5.63579 12.6032 5.71563 12.5828 5.79547C12.5625 5.84713 12.5217 5.88471 12.537 5.82365C12.4148 6.03969 12.5574 5.84713 12.5217 5.95985C12.4607 6.08665 12.4148 6.11483 12.4403 6.0303C12.3792 6.17589 12.2825 6.35905 12.1349 6.52343C12.0993 6.5657 12.0585 6.60327 12.0178 6.64084L11.9516 6.6972C11.9313 6.71599 11.9058 6.73477 11.8804 6.74886L11.8091 6.79583L11.7939 6.80522C11.7888 6.80522 11.7888 6.80991 11.7837 6.80991C11.7786 6.81461 11.7684 6.81461 11.7633 6.81931C11.7531 6.824 11.7379 6.824 11.7226 6.8287C11.6971 6.71129 11.6768 6.60327 11.6564 6.50464L11.6921 6.59388C11.6513 6.41071 11.6004 6.31209 11.5444 6.21816C11.4885 6.12423 11.4375 6.03499 11.3866 5.86592C11.3968 5.88471 11.4121 5.90349 11.4223 5.92697C11.3459 5.73442 11.2441 5.54656 11.1372 5.36339C11.0812 5.27416 11.0303 5.18493 10.9744 5.09569C10.9184 5.00646 10.8675 4.91723 10.8115 4.83269C10.6995 4.65892 10.5824 4.48985 10.445 4.33956C10.3737 4.26442 10.3025 4.19397 10.2159 4.13291C10.1294 4.07186 10.0276 4.02489 9.91053 4.00141C9.88508 4.00611 9.84945 4.00611 9.80873 4.0155C9.76292 4.0202 9.70693 4.03429 9.66621 4.04838C9.57459 4.07186 9.4677 4.10943 9.3659 4.1517C9.16229 4.23624 8.99432 4.36304 8.99941 4.4147C8.89252 4.48515 8.82126 4.54621 8.77036 4.59787C8.71946 4.64953 8.67874 4.6918 8.64311 4.74815C8.62275 4.77633 8.60748 4.80921 8.59221 4.85148C8.58203 4.87026 8.57694 4.89844 8.57185 4.92192C8.56676 4.9501 8.56167 4.97828 8.56676 5.01585C8.57185 5.0863 8.60239 5.17554 8.66856 5.25068C8.73473 5.32582 8.82635 5.38218 8.92815 5.41975C8.95869 5.43384 8.97396 5.43384 8.98923 5.43854C9.0045 5.44324 9.02486 5.44793 9.04013 5.45263C9.07576 5.46202 9.1063 5.46672 9.13684 5.47611C9.20302 5.4902 9.27428 5.51368 9.37099 5.56534L9.35063 5.60292C9.43716 5.64049 9.52878 5.68745 9.61531 5.73911C9.64585 5.78608 9.67639 5.83304 9.70693 5.87531C9.76292 5.91288 9.81382 5.95046 9.86472 5.99272C9.80873 5.94106 9.75274 5.87062 9.7731 5.87062C9.90035 5.95985 10.0276 6.09605 10.104 6.22285C10.1447 6.28391 10.1701 6.34027 10.1905 6.38253C10.1905 6.38723 10.1956 6.39193 10.1956 6.39662C10.1956 6.40132 10.2007 6.40602 10.2007 6.40602C10.2007 6.41071 10.2007 6.41071 10.2007 6.41541C10.2007 6.42011 10.1956 6.42011 10.1956 6.4248C10.2058 6.4342 10.2159 6.44829 10.2261 6.46237C10.2312 6.47177 10.2363 6.47646 10.2414 6.48586L10.2516 6.49995L10.2567 6.50934C10.2567 6.51404 10.2617 6.51404 10.2567 6.51404C10.2312 6.51873 10.2007 6.52343 10.1549 6.52343C10.1599 6.50934 10.1803 6.50934 10.1905 6.49995C10.1803 6.50464 10.1701 6.50464 10.165 6.49995C10.1549 6.49525 10.1549 6.49055 10.1498 6.48586C10.1498 6.48116 10.1447 6.47177 10.1447 6.47177C10.1599 6.47177 10.0887 6.46237 9.99197 6.45298C10.0429 6.47177 9.95634 6.47177 9.94616 6.48116C9.84945 6.45298 9.68657 6.4248 9.50333 6.41071C9.32009 6.39662 9.11648 6.40132 8.94342 6.42011L9.00959 6.38723C8.96887 6.38723 8.92815 6.39193 8.89252 6.39662C8.8518 6.40132 8.81617 6.40602 8.77545 6.40602C8.6991 6.41541 8.62275 6.42011 8.5464 6.4295C8.3937 6.44359 8.23081 6.46237 8.07302 6.48586C7.75235 6.53282 7.41641 6.58448 7.08046 6.67841C7.20262 6.65493 7.25352 6.65963 7.24843 6.67372C7.24334 6.68781 7.18735 6.72068 7.09064 6.74886L6.99902 6.73007C6.88195 6.79583 7.20771 6.68311 6.96339 6.79583C6.83614 6.83809 6.79542 6.84279 6.79542 6.824C6.79542 6.81461 6.8056 6.80522 6.82596 6.78643C6.84632 6.77234 6.87686 6.75356 6.91249 6.73947C6.86159 6.75825 6.81069 6.78174 6.76488 6.80052L6.62745 6.86158C6.60709 6.85688 6.66817 6.824 6.67835 6.80052C6.57655 6.87097 6.17443 6.95551 6.03191 7.07761L6.01155 7.07292C5.70615 7.21381 5.48727 7.34062 5.29894 7.48151C5.11061 7.61771 4.95282 7.7633 4.7594 7.94177C4.77976 7.97934 4.62706 8.10615 4.53034 8.23295C4.45399 8.29401 4.37764 8.35506 4.30129 8.41142C4.26057 8.4396 4.21985 8.47247 4.17913 8.50065L4.13332 8.53822C4.12314 8.54292 4.11805 8.55231 4.11296 8.56171L4.0926 8.58519C4.07733 8.60398 4.06206 8.62276 4.04679 8.64155C3.91954 8.79653 3.77193 8.95621 3.62431 9.12998C3.43089 9.38829 3.59377 9.22391 3.51742 9.35072C3.49197 9.35072 3.41053 9.43995 3.34945 9.5057C3.28837 9.57615 3.25274 9.61842 3.31382 9.5104C3.14585 9.74053 3.05932 9.9096 2.98806 10.1022C2.97788 10.1256 2.97279 10.1491 2.96261 10.1773C2.95243 10.2008 2.94734 10.229 2.94225 10.2571C2.93716 10.2712 2.93716 10.2853 2.93207 10.2994C2.93207 10.2994 2.93207 10.3041 2.93207 10.3088L2.92698 10.3135L2.9168 10.3323C2.90662 10.3464 2.90153 10.3605 2.89644 10.3746C2.83536 10.4873 2.77937 10.6235 2.72847 10.7925C2.76919 10.7221 2.80991 10.6469 2.80482 10.6939C2.7641 10.816 2.69792 10.9616 2.68265 10.9428L2.68774 10.91C2.60121 11.2951 2.51977 11.7271 2.44342 12.1404C2.40779 12.3424 2.37216 12.5396 2.33653 12.7275C2.32635 12.7745 2.32126 12.8167 2.31108 12.859C2.30599 12.8825 2.30599 12.9013 2.3009 12.9247C2.29581 12.9482 2.29581 12.9717 2.29072 12.9952C2.28563 13.0422 2.28054 13.0844 2.28054 13.1267C2.27545 13.169 2.27545 13.2112 2.28054 13.2488V13.2112C2.27036 13.4273 2.28054 13.6433 2.3009 13.85C2.3009 14.1411 2.27036 13.6762 2.25 13.8922C2.29072 14.2304 2.3009 14.4934 2.29072 14.7376C2.29072 14.7658 2.28563 14.7986 2.28563 14.8268V14.8738C2.28563 14.902 2.28563 14.9255 2.29072 14.9536C2.29581 14.9677 2.29581 14.9771 2.3009 14.9865L2.30599 15.0053L2.31617 15.0476C2.32126 15.0757 2.32635 15.1039 2.33144 15.1321C2.3518 15.2495 2.37725 15.3763 2.4027 15.5078C2.39761 15.5642 2.39252 15.6205 2.39252 15.6957C2.39252 15.7708 2.4027 15.8601 2.41288 15.9493C2.43833 16.1231 2.48414 16.3156 2.52995 16.5082C2.5554 16.6021 2.57576 16.7007 2.6063 16.8087C2.61648 16.8369 2.62157 16.8604 2.63175 16.8886C2.64193 16.9168 2.65211 16.9449 2.66229 16.9637C2.68265 17.0107 2.69792 17.053 2.71829 17.0999C2.78955 17.2784 2.85063 17.4475 2.88626 17.5884L2.90153 17.5461C2.98297 17.6776 2.95243 17.7199 2.99315 17.8279C3.00842 17.8044 2.95243 17.6682 3.00333 17.748C3.13058 18.0439 3.25783 18.3445 3.40035 18.6498C3.47161 18.8001 3.55305 18.9597 3.65486 19.1053C3.75666 19.2556 3.86864 19.3824 3.96535 19.5139C4.01625 19.5797 4.06715 19.6454 4.11296 19.7112L4.25548 19.9178C4.35219 20.0587 4.45399 20.1949 4.56088 20.3311C4.66269 20.4673 4.76958 20.5988 4.87647 20.7303C4.92737 20.7961 4.97827 20.8618 5.03935 20.9323C5.10043 20.998 5.15642 21.0638 5.2175 21.1295C5.39056 21.308 5.46182 21.3315 5.54327 21.3737C5.58399 21.3972 5.62471 21.4207 5.67052 21.4724C5.72142 21.524 5.7825 21.5992 5.84358 21.726C5.80286 21.6884 5.75705 21.6555 5.71124 21.6227C5.74687 21.6649 5.7825 21.7072 5.81304 21.7542L5.86903 21.8387C5.87412 21.8481 5.8843 21.8622 5.89448 21.8716C5.90466 21.881 5.90975 21.8904 5.91993 21.8997C5.9352 21.9138 5.95047 21.9279 5.96574 21.942C6.02173 21.989 6.07263 22.0266 6.11844 22.0688L6.26605 22.1862C6.36276 22.2661 6.46457 22.3459 6.56128 22.4258L6.70889 22.5479L6.78015 22.6089L6.8565 22.6747C7.07028 22.8437 7.29933 22.9846 7.52839 23.1067C7.76253 23.2289 7.99158 23.3322 8.22063 23.4355C8.16464 23.4167 8.15446 23.4308 8.06793 23.3885C8.08829 23.4026 8.11374 23.4214 8.14428 23.4402C8.17482 23.459 8.20536 23.4778 8.25117 23.4966C8.2919 23.5153 8.33262 23.5388 8.37843 23.5529C8.42424 23.5717 8.46496 23.5858 8.51077 23.5999C8.68383 23.6562 8.83653 23.6797 8.84162 23.6656C8.99941 23.7079 8.87216 23.6985 8.96378 23.7361C9.07067 23.7736 9.2132 23.7877 9.33536 23.8018C9.46261 23.8159 9.57459 23.8206 9.62549 23.8441C9.63567 23.8488 9.60513 23.8488 9.5695 23.8488C9.75274 23.8629 10.1599 23.9286 10.0429 23.877C10.0887 23.8864 10.1345 23.8911 10.1854 23.9005C10.2363 23.9051 10.2821 23.9145 10.3279 23.9145C10.4195 23.9239 10.5112 23.9239 10.5977 23.9286C10.7708 23.9333 10.9387 23.9333 11.0914 23.9521C11.2899 23.9145 11.748 23.9803 11.8142 23.9145C11.7989 23.9474 11.9669 23.9568 12.1756 23.9521C12.2011 23.9521 12.2265 23.9474 12.257 23.9474C12.2876 23.9427 12.3181 23.9427 12.3436 23.938C12.3894 23.9333 12.4403 23.9239 12.4861 23.9192C12.5777 23.9098 12.6541 23.9051 12.7101 23.9005C12.6744 23.9098 12.7202 23.9145 12.7661 23.9239C12.8119 23.9333 12.8526 23.9474 12.8119 23.9568C12.8729 23.9615 12.934 23.9709 12.9951 23.9803C13.0562 23.9897 13.1173 23.9944 13.1682 23.9991C13.27 24.0038 13.331 23.9897 13.3056 23.9756C13.3412 23.9803 13.3769 23.985 13.4125 23.9897C13.4481 23.9944 13.4838 23.9944 13.5194 23.9944C13.555 23.9944 13.5906 23.9944 13.6212 23.9897C13.6568 23.985 13.6874 23.985 13.723 23.9756C13.7942 23.9615 13.8553 23.9427 13.9062 23.9333C13.9571 23.9192 13.9877 23.9145 14.0538 23.9051C14.1709 23.8911 14.2778 23.8723 14.3796 23.8582C14.4763 23.8488 14.5679 23.8394 14.6443 23.8535C15.0617 23.7596 15.4383 23.6093 15.7895 23.4355C16.1357 23.2523 16.4462 23.0363 16.7108 22.7827C16.7261 22.8156 16.5734 22.9518 16.4156 23.0692C16.3953 23.0833 16.3749 23.0974 16.3545 23.1114C16.3342 23.1255 16.3138 23.1396 16.2986 23.1537C16.2629 23.1819 16.2273 23.2054 16.1968 23.2242C16.1408 23.2664 16.1051 23.2946 16.1204 23.304C16.4207 23.1114 16.6294 22.9189 16.8126 22.7216C16.8585 22.67 16.9043 22.6183 16.9501 22.5666C16.9908 22.515 17.0366 22.4586 17.0824 22.4023C17.169 22.2943 17.2606 22.1862 17.3776 22.0641C17.4998 21.942 17.3369 22.1534 17.3064 22.205C17.7238 21.6978 18.187 21.2657 18.528 20.782C18.4313 20.8383 18.7265 20.4063 18.752 20.3358C18.7163 20.5143 19.1286 19.885 19.0319 20.1902C19.0726 20.1245 19.1184 20.0399 19.093 20.0446C19.1693 19.9554 19.1999 19.9366 19.149 20.0399C19.2711 19.8709 19.2966 19.8051 19.3271 19.7534C19.3424 19.7253 19.3526 19.6971 19.378 19.6595C19.4035 19.6173 19.434 19.5656 19.4849 19.4857C19.4951 19.4951 19.4595 19.5609 19.4544 19.6032C19.5358 19.4294 19.6071 19.2509 19.7801 18.9879C19.7801 19.0067 19.8005 18.9879 19.7751 19.0349C19.9023 18.8095 19.9939 18.6075 20.0906 18.4009C20.1874 18.1848 20.2892 17.9641 20.4215 17.6964C20.4164 17.7903 20.4419 17.7433 20.4775 17.6729C20.5131 17.6025 20.5538 17.5085 20.5844 17.4991C20.5996 17.4475 20.62 17.3958 20.6302 17.3395C20.6455 17.2878 20.6556 17.2314 20.6709 17.1845C20.6505 17.222 20.6302 17.2596 20.6098 17.3019C20.6913 17.0342 20.7116 16.79 20.7982 16.5692L20.7625 16.7712L20.8949 16.2733L20.7931 16.5504C20.8389 16.2733 20.7167 16.5645 20.8287 16.2123C20.8236 16.2311 20.8287 16.2217 20.8338 16.1982C20.8389 16.1747 20.8542 16.1371 20.8643 16.0855C20.8796 15.9916 20.9051 15.8694 20.9305 15.799C20.9305 15.6628 20.9305 15.5219 20.9712 15.32C20.9967 15.2683 21.0272 15.3669 21.0425 15.334C21.0119 15.1979 21.1137 14.6953 21.0832 14.5216C21.0883 14.5779 21.1188 14.5873 21.1239 14.5685L21.0985 14.4511C21.129 14.3243 21.1341 14.3102 21.1545 14.3337C21.2105 13.9533 21.0679 14.4464 21.1545 14.0002C21.1545 14.0378 21.1596 14.019 21.1596 14.0942C21.1952 13.8687 21.2105 13.648 21.2206 13.432C21.2257 13.3239 21.2257 13.2159 21.2206 13.1079C21.2155 12.9999 21.2054 12.8919 21.1901 12.7839C21.2054 12.7181 21.2308 12.8073 21.241 12.9013C21.2563 12.9952 21.2614 13.0844 21.2817 13.0093C21.2715 12.8872 21.2461 12.7604 21.2155 12.643C21.2105 12.6289 21.2105 12.6195 21.2155 12.5866C21.2155 12.5584 21.2257 12.5209 21.2206 12.4786C21.2054 12.3753 21.2003 12.2625 21.1799 12.1451C21.1697 12.0888 21.1545 12.0277 21.1392 11.9761C21.1239 11.9244 21.1087 11.868 21.0934 11.8164C21.0323 11.605 20.9712 11.3984 20.9152 11.1964L20.9407 11.3045C20.8898 11.2763 20.8694 11.1683 20.8389 11.0321C20.8083 10.8959 20.7778 10.7362 20.7014 10.6C20.732 10.6657 20.7778 10.6751 20.7625 10.661C20.6964 10.4685 20.6098 10.2759 20.4928 10.0646C20.3757 9.85794 20.2281 9.63251 20.0296 9.38829L20.0906 9.43995C20.0296 9.33663 19.9328 9.20513 19.831 9.07832C19.7292 8.94682 19.6122 8.82471 19.5206 8.72608C19.4849 8.7026 19.4391 8.66503 19.4086 8.64624C19.378 8.62746 19.3628 8.61806 19.3831 8.66033C19.317 8.58049 19.2406 8.51005 19.1643 8.4396C19.0879 8.37385 19.0014 8.31279 18.9301 8.25643C18.8945 8.22826 18.8589 8.20008 18.8334 8.1672C18.8029 8.13433 18.7774 8.10615 18.7469 8.06388C18.6807 7.98873 18.6094 7.91359 18.528 7.85254C18.4466 7.79148 18.3498 7.74452 18.2582 7.70694C18.1666 7.66937 18.075 7.64589 18.0088 7.59893C17.9885 7.58953 17.9783 7.57544 17.9579 7.56135L17.9019 7.51909C17.8612 7.49091 17.8256 7.46273 17.7848 7.43455C17.7085 7.37819 17.6271 7.32653 17.5507 7.27487C17.6321 7.31244 17.7492 7.3641 17.6881 7.32653C17.4947 7.22321 17.2911 7.14337 17.0875 7.07292C17.1231 7.11988 17.1588 7.11988 17.2708 7.19503C17.1893 7.18094 17.0162 7.12928 16.8635 7.07761C17.1435 7.15745 16.8839 7.02595 16.7719 6.96959C16.7872 6.98368 16.7414 6.98368 16.7516 6.99308C16.609 6.90854 16.5887 6.91793 16.5531 6.92733C16.5174 6.93672 16.4716 6.93672 16.2578 6.85688L16.2884 6.84749C16.1204 6.81461 15.9575 6.80522 15.7743 6.77234C15.703 6.72538 15.9575 6.78174 15.9779 6.75356C15.7183 6.70659 15.4587 6.75356 15.2246 6.70659C15.3365 6.6972 15.4943 6.71129 15.6063 6.71129C15.3518 6.64084 15.3213 6.65493 15.1278 6.64084H15.1482C15.0006 6.63145 14.853 6.62205 14.7054 6.61736L14.8173 6.62675C14.6545 6.67841 14.4865 6.68781 14.3083 6.6925C14.2167 6.6972 14.1251 6.6972 14.0284 6.7019C13.9266 6.70659 13.8248 6.72538 13.7179 6.75356C13.8197 6.72538 13.8808 6.71129 13.9062 6.7019C13.9317 6.6925 13.9317 6.68781 13.9113 6.68781C13.8808 6.68311 13.7942 6.68781 13.8095 6.66432C13.6924 6.66432 13.5194 6.67841 13.5652 6.65963C13.3972 6.71598 13.27 6.70659 13.0765 6.75825C13.0918 6.74886 13.1122 6.73947 13.1274 6.73477C13.3158 6.64084 13.5194 6.55161 13.723 6.44359C13.952 6.34027 14.0895 6.27921 14.2218 6.22285C14.3389 6.17589 14.4509 6.12892 14.629 6.08666C14.6697 6.07726 14.7155 6.07257 14.7563 6.06317C14.7919 6.06787 14.7664 6.08196 14.7257 6.09605C14.7003 6.10544 14.6697 6.11483 14.6494 6.12423C14.6239 6.13362 14.6087 6.13832 14.6087 6.13832C14.6748 6.12892 14.7308 6.12423 14.7919 6.11483C14.8479 6.11014 14.9039 6.10074 14.9599 6.09605C15.0668 6.08196 15.1787 6.06787 15.3009 6.05378C15.25 6.06787 15.306 6.07726 15.3823 6.08196C15.5809 6.05848 15.5096 6.0209 15.7692 6.00681C15.7285 6.0303 15.6725 6.05848 15.5809 6.08666C15.8099 6.04439 16.0339 5.98803 16.268 5.93167C16.3342 5.94576 16.1306 5.99272 16.0491 6.0209C16.3138 5.96924 16.7363 5.86592 16.8076 5.81426L16.6803 5.83304C16.7108 5.83304 16.6752 5.86592 16.6243 5.88001C16.4054 5.95515 16.2935 5.93167 16.2782 5.92228L16.4462 5.88001C16.2578 5.83774 15.7743 6.01621 15.4282 6.04439C15.4638 6.0256 15.4994 6.00681 15.5401 5.98333C16.3902 5.88471 17.2148 5.67336 18.0343 5.45263C18.0495 5.46672 18.0699 5.48081 18.0903 5.50429C18.0953 5.50429 18.0953 5.50429 18.1004 5.50429C18.1004 5.50899 18.1004 5.51368 18.1055 5.51368C18.1004 5.50899 18.0953 5.50429 18.0953 5.50429C18.075 5.50899 18.0444 5.51368 18.0037 5.52308L17.9274 5.59352L18.0241 5.56065L18.075 5.54656L18.1004 5.53717L18.1106 5.53247H18.1157H18.1208C18.1361 5.54186 18.1717 5.54186 18.2226 5.53717C18.2582 5.53247 18.2989 5.52777 18.3448 5.51838C18.3957 5.50899 18.4516 5.4902 18.5229 5.46672L18.6094 5.41975L18.6909 5.36809C18.7163 5.34931 18.7469 5.33522 18.7723 5.31643L18.8487 5.26007C18.8894 5.25068 18.9352 5.23659 18.9759 5.2272C18.9301 5.25538 18.8843 5.28355 18.8334 5.30704C18.7876 5.33522 18.7367 5.3587 18.6909 5.38218C18.8741 5.32582 18.9607 5.24129 19.0574 5.15675C19.093 5.15675 19.149 5.13327 19.2152 5.09569C19.261 5.05343 19.3068 5.00646 19.3475 4.96419C19.3882 4.91723 19.434 4.87496 19.4747 4.82799C19.5256 4.8186 19.378 4.97359 19.5867 4.82799C19.6987 4.69649 19.4188 4.88905 19.6274 4.69649C19.7852 4.60256 19.7649 4.65422 19.8972 4.48985C19.9329 4.48045 19.9074 4.51803 19.8514 4.58378C19.9787 4.44288 20.1975 4.22684 20.2281 4.13291C20.2484 4.11882 20.2688 4.10004 20.2892 4.08125C20.3095 4.05777 20.3299 4.03429 20.3553 4.01081C20.4011 3.95914 20.4469 3.90748 20.4826 3.85112C20.564 3.7478 20.6251 3.66326 20.6505 3.68675C20.6607 3.65857 20.6964 3.58342 20.7371 3.49889C20.7778 3.41435 20.8236 3.31572 20.8643 3.24528C20.8236 3.39556 20.9051 3.25937 20.9967 3.09969C21.0883 2.94 21.1799 2.74745 21.2003 2.79911C21.2155 2.6817 21.2919 2.49384 21.3682 2.2825C21.4446 2.07115 21.5209 1.84103 21.5566 1.63908C21.5566 1.66256 21.5566 1.70952 21.5413 1.7424C21.6075 1.52636 21.638 1.46531 21.6787 1.31971C21.6533 1.30093 21.6482 1.2023 21.6482 1.08959C21.6482 0.972174 21.6431 0.840672 21.6278 0.746742C21.6584 0.610544 21.6787 0.652813 21.694 0.718563C21.7093 0.784314 21.7246 0.873548 21.75 0.831279C21.7042 0.835976 21.694 0.718563 21.6838 0.605848ZM15.9422 5.45263C15.9422 5.43854 15.9575 5.42445 15.9881 5.41036C15.9931 5.41975 15.9982 5.42915 15.9982 5.44324C15.9779 5.44324 15.9575 5.44793 15.9422 5.45263ZM20.9 0.915816C20.9 0.878244 20.9051 0.840672 20.9152 0.8031L20.9712 0.601151C20.9712 0.601151 20.9712 0.601151 20.9712 0.596455L20.9763 0.577669C20.9763 0.582365 20.9763 0.591758 20.9763 0.591758C20.9763 0.582365 20.9763 0.577669 20.9763 0.572972L20.9865 0.563579C21.0069 0.554186 21.0374 0.54949 21.0578 0.54949H21.0679H21.073V0.554186L21.0628 0.572972C21.0578 0.587062 21.0476 0.596455 21.0425 0.605848C21.0374 0.615241 21.0272 0.624634 21.0221 0.62933C21.0221 0.62933 21.0221 0.62933 21.017 0.634027L21.0069 0.662206L20.9865 0.718563C20.9509 0.789011 20.9254 0.854762 20.9 0.915816ZM20.8389 0.91112C20.8491 0.91112 20.8542 0.915816 20.8592 0.925209L20.8389 0.91112ZM20.844 0.934602C20.844 0.948692 20.844 0.958085 20.844 0.967478C20.8389 0.962781 20.8389 0.953388 20.844 0.934602ZM17.7492 3.31103L17.7136 3.29224C17.7289 3.28285 17.7441 3.27815 17.7594 3.26876C17.7645 3.27346 17.7645 3.28754 17.7492 3.31103ZM16.5632 3.91688C16.5581 3.90748 16.548 3.89809 16.5429 3.8887C16.5581 3.884 16.5683 3.87461 16.5836 3.86991C16.5887 3.8793 16.5887 3.89339 16.5632 3.91688ZM13.9164 5.61701L13.8808 5.59822L13.8757 5.59352V5.59822L13.8401 5.57943C13.8401 5.57943 13.8401 5.57943 13.8401 5.57474C13.8502 5.57004 13.8553 5.56534 13.8655 5.56065L13.9113 5.58413C13.9113 5.59822 13.9113 5.60761 13.9164 5.61701ZM13.8757 5.61701L13.8502 5.60292C13.8502 5.59822 13.8502 5.59822 13.8451 5.59352L13.8757 5.60761C13.8757 5.61231 13.8757 5.61701 13.8757 5.61701ZM14.685 3.01985C14.6697 3.03393 14.6545 3.05272 14.6341 3.07151C14.6188 3.06681 14.6137 3.05272 14.6239 3.04333C14.629 3.05272 14.6596 3.02924 14.685 3.01985ZM14.5781 3.13726C14.5679 3.15135 14.5578 3.16074 14.5527 3.17013C14.5578 3.16074 14.5679 3.15604 14.5781 3.13726ZM20.2892 12.2672C20.279 12.225 20.2739 12.1921 20.2739 12.1686C20.279 12.1874 20.279 12.2156 20.2892 12.2672ZM20.3706 12.5302C20.3553 12.5115 20.3655 12.6054 20.3655 12.6617C20.3604 12.6148 20.3502 12.5584 20.335 12.4927C20.3451 12.4786 20.3604 12.488 20.3706 12.5302ZM6.63254 7.39698C6.62745 7.41576 6.59691 7.43924 6.52056 7.47682C6.51038 7.47212 6.5002 7.45803 6.5002 7.44864C6.53583 7.42985 6.58164 7.41576 6.63254 7.39698ZM9.77819 5.26477C9.7731 5.26007 9.7731 5.26007 9.76801 5.25538C9.7731 5.25068 9.77819 5.25068 9.78328 5.24598C9.78837 5.25068 9.79346 5.25538 9.79346 5.25068C9.78837 5.25538 9.78837 5.26007 9.78328 5.26477C9.78328 5.26946 9.77819 5.26477 9.77819 5.26477ZM9.36081 4.76224C9.39644 4.79512 9.37099 4.78103 9.39135 4.79982C9.37608 4.78573 9.36081 4.76694 9.35063 4.75755C9.35063 4.75285 9.33536 4.72937 9.35572 4.75285C9.35572 4.75285 9.36081 4.76224 9.37099 4.77164L9.36081 4.76224ZM9.46261 4.75755C9.47279 4.77633 9.4677 4.77633 9.47279 4.78103C9.50842 4.80921 9.45752 4.75285 9.46261 4.74815L9.49315 4.78573C9.49824 4.77164 9.48806 4.73876 9.49315 4.72467C9.50333 4.73876 9.50842 4.74815 9.5186 4.76224C9.5186 4.73407 9.54914 4.74815 9.57968 4.76694L9.55932 4.72937C9.55932 4.72937 9.5695 4.74346 9.57459 4.75285C9.58986 4.76224 9.55932 4.72937 9.55423 4.71528C9.55423 4.71058 9.5695 4.73406 9.57459 4.74346C9.56441 4.71058 9.55932 4.66362 9.58986 4.69649L9.59495 4.70589C9.61022 4.71528 9.55932 4.62605 9.58477 4.65892V4.66831C9.61022 4.67771 9.61022 4.63544 9.65094 4.6871C9.62549 4.63074 9.67639 4.70589 9.64585 4.62605C9.6713 4.65892 9.67639 4.67301 9.69675 4.69649C9.69675 4.69649 9.69675 4.69649 9.69675 4.70119C9.69675 4.70119 9.69675 4.70119 9.69675 4.69649C9.71711 4.72937 9.72729 4.77633 9.73747 4.79512C9.70184 4.71998 9.71711 4.78103 9.6713 4.6871C9.6713 4.6918 9.67639 4.70589 9.68657 4.72467C9.68148 4.71998 9.67639 4.71058 9.66621 4.6918C9.66621 4.71058 9.68148 4.73407 9.67639 4.73876C9.6713 4.72467 9.6713 4.71997 9.66112 4.70589C9.6713 4.73406 9.67639 4.75755 9.66621 4.74815C9.66112 4.73876 9.65603 4.72937 9.66112 4.72937C9.65094 4.73876 9.6713 4.80451 9.64585 4.78573C9.62549 4.72937 9.63567 4.76694 9.61531 4.71998V4.73876L9.62549 4.76224C9.6204 4.76224 9.62549 4.79982 9.61531 4.78573L9.61022 4.76224L9.60004 4.77633L9.61531 4.79512C9.6204 4.8233 9.64076 4.85617 9.62549 4.84678C9.62549 4.84208 9.6204 4.84678 9.60513 4.8186C9.60513 4.83739 9.61022 4.85148 9.60004 4.84208C9.59495 4.82799 9.58477 4.78573 9.57968 4.77633C9.58986 4.8186 9.5695 4.79042 9.57968 4.83739C9.57968 4.82799 9.5695 4.79982 9.5695 4.79512L9.57459 4.82799C9.5695 4.8186 9.56441 4.81391 9.55932 4.79042C9.54914 4.78573 9.57968 4.85617 9.55932 4.82799C9.55932 4.8233 9.55932 4.8186 9.55932 4.81391C9.54405 4.79982 9.54405 4.84208 9.52878 4.8233C9.51351 4.77164 9.53387 4.80921 9.52369 4.76694C9.51351 4.78103 9.50842 4.83269 9.49315 4.8233L9.49824 4.82799C9.50842 4.90314 9.48297 4.79512 9.47788 4.82799C9.47788 4.8233 9.47279 4.78573 9.47279 4.79512C9.4677 4.78573 9.46261 4.79982 9.45243 4.8186C9.43207 4.79042 9.39644 4.74346 9.42189 4.76224L9.45243 4.80921C9.48806 4.79982 9.43207 4.73876 9.46261 4.75755ZM9.47788 4.6871C9.48297 4.69649 9.48806 4.70119 9.49824 4.70589H9.49315C9.48297 4.70119 9.47788 4.6871 9.47788 4.6871ZM9.48806 4.71998C9.48806 4.71998 9.48297 4.71998 9.48806 4.71998C9.48297 4.71998 9.48806 4.71998 9.48806 4.71998ZM9.79346 5.25068C9.79346 5.25068 9.79346 5.24598 9.79346 5.24129C9.79346 5.24129 9.79346 5.24129 9.79346 5.24598C9.79855 5.24598 9.79855 5.24598 9.79346 5.25068ZM9.33027 4.87496C9.33027 4.87026 9.33536 4.87026 9.33536 4.86557L9.34045 4.87026C9.34045 4.87496 9.33536 4.87966 9.33536 4.88435C9.33027 4.87966 9.33027 4.87966 9.33027 4.87496ZM9.38117 4.86087C9.38117 4.86557 9.38117 4.86557 9.38117 4.87026C9.38117 4.86557 9.37608 4.86557 9.37608 4.86087C9.37608 4.85617 9.37608 4.85617 9.37608 4.85148C9.37608 4.85148 9.37608 4.85617 9.38117 4.86087ZM9.41171 4.88905C9.41171 4.89375 9.41171 4.89844 9.41171 4.89844L9.40662 4.89375C9.40662 4.88905 9.40662 4.88905 9.41171 4.88905C9.40662 4.88435 9.40662 4.88905 9.41171 4.88905ZM9.40662 4.87496C9.40662 4.87026 9.40662 4.87026 9.41171 4.86557C9.41171 4.87026 9.41171 4.87496 9.41171 4.87966C9.40662 4.87966 9.40662 4.87966 9.40662 4.87496ZM9.35572 4.88435C9.35572 4.87966 9.35572 4.87966 9.35572 4.88435V4.87496L9.36081 4.87966C9.36081 4.88435 9.36081 4.88905 9.36081 4.88905C9.35572 4.88435 9.35572 4.88435 9.35572 4.88435ZM9.37099 4.88905C9.37099 4.89375 9.37099 4.89375 9.37099 4.89375V4.88905ZM9.37099 4.88905C9.37099 4.87966 9.37099 4.87496 9.37099 4.87026L9.37608 4.87496C9.37608 4.87966 9.37608 4.88435 9.37099 4.88905ZM9.3659 4.85617C9.3659 4.85148 9.3659 4.85148 9.3659 4.85617C9.3659 4.85148 9.3659 4.85148 9.3659 4.85617C9.3659 4.85148 9.3659 4.85148 9.3659 4.85617C9.3659 4.85148 9.3659 4.85148 9.3659 4.85617ZM9.36081 4.87496C9.35572 4.86557 9.37099 4.87966 9.35063 4.85617C9.35572 4.86087 9.35572 4.86087 9.36081 4.86557C9.36081 4.86557 9.36081 4.87026 9.36081 4.87496ZM9.35063 4.87026C9.35063 4.87496 9.35063 4.87496 9.35063 4.87026C9.34554 4.87026 9.34554 4.87026 9.34045 4.86557C9.34554 4.87026 9.35063 4.87026 9.35063 4.87026ZM9.34554 4.88435C9.34554 4.88905 9.34045 4.89375 9.34045 4.89375C9.34045 4.88905 9.34045 4.88435 9.34045 4.87966C9.34554 4.87966 9.34554 4.87966 9.34554 4.88435ZM9.40662 4.89375L9.41171 4.89844H9.40662C9.40662 4.89844 9.40662 4.89844 9.40662 4.89375ZM9.80873 4.60726C9.80873 4.61196 9.80873 4.61196 9.80873 4.60726C9.80873 4.60726 9.80364 4.60726 9.80364 4.60256V4.59787C9.80364 4.60256 9.80873 4.60726 9.80873 4.60726ZM9.79855 4.59787V4.60256C9.79855 4.60256 9.79855 4.60256 9.79855 4.59787C9.79855 4.60256 9.79855 4.59787 9.79855 4.59787ZM9.75783 5.2272C9.76292 5.23189 9.76801 5.23659 9.7731 5.24129L9.76292 5.25068C9.76292 5.24598 9.75783 5.23659 9.75783 5.2272ZM9.77819 4.66362C9.77819 4.67301 9.77819 4.67771 9.7731 4.6871C9.76292 4.67301 9.75783 4.66362 9.75783 4.65892C9.76801 4.67301 9.7731 4.67301 9.77819 4.66362ZM9.74765 4.64483C9.75274 4.65892 9.75274 4.66362 9.75274 4.67301C9.75274 4.65892 9.75274 4.66831 9.75783 4.67771C9.75783 4.6824 9.75783 4.6871 9.74765 4.6871L9.74256 4.6824C9.74765 4.67301 9.74765 4.65892 9.74765 4.64483ZM9.72729 4.67301C9.72729 4.67301 9.71711 4.65422 9.71202 4.64483C9.71202 4.63074 9.7222 4.64483 9.73238 4.66362C9.73238 4.66831 9.72729 4.66831 9.72729 4.67301ZM9.7222 4.67301C9.71711 4.67301 9.71711 4.67771 9.71711 4.67771L9.70693 4.63544L9.7222 4.67301ZM9.71202 4.67771C9.71202 4.6824 9.70693 4.6871 9.71202 4.69649C9.71202 4.69649 9.71202 4.69649 9.71202 4.6918C9.70693 4.67771 9.69675 4.64483 9.69675 4.63544L9.71202 4.67771ZM9.47279 4.8233C9.47279 4.82799 9.4677 4.83269 9.4677 4.83739V4.8186C9.46261 4.79982 9.45243 4.80921 9.44734 4.79982C9.44734 4.80451 9.44734 4.80921 9.44734 4.80921C9.43716 4.79982 9.43207 4.79042 9.42189 4.78103C9.40662 4.74815 9.45243 4.80451 9.47279 4.8233ZM9.4168 4.80921L9.39644 4.79982C9.40662 4.80921 9.41171 4.81391 9.4168 4.8186C9.4168 4.8186 9.4168 4.8233 9.41171 4.8233V4.82799C9.40662 4.8233 9.40153 4.8186 9.39644 4.81391C9.40153 4.8186 9.40662 4.82799 9.41171 4.83269C9.40662 4.84208 9.40153 4.84678 9.39644 4.84208C9.39644 4.83739 9.40662 4.83269 9.39135 4.80921L9.39644 4.81391L9.39135 4.80921C9.39135 4.80921 9.39135 4.80921 9.39135 4.80451V4.79982V4.79512C9.38626 4.77633 9.37099 4.74815 9.38117 4.75755C9.41171 4.79512 9.38117 4.78103 9.4168 4.80921ZM9.34045 4.86557C9.34045 4.86557 9.33536 4.86087 9.34045 4.86557C9.33536 4.86087 9.33536 4.86087 9.34045 4.86557C9.33536 4.86087 9.34045 4.86087 9.34045 4.86557ZM9.315 4.85148C9.30991 4.84678 9.30991 4.84208 9.30482 4.83739C9.30991 4.84208 9.30991 4.84678 9.315 4.85148ZM9.60004 5.18962C9.60513 5.18962 9.60513 5.18962 9.60004 5.18962C9.60513 5.18962 9.60513 5.18962 9.60004 5.18962C9.60513 5.18962 9.60513 5.18962 9.60004 5.18962ZM9.75783 5.25538V5.24129C9.76292 5.24598 9.76292 5.25068 9.76801 5.25538H9.75783ZM9.80873 5.27886C9.81382 5.26007 9.84436 5.24598 9.84436 5.24598C9.83927 5.23189 9.83418 5.2225 9.824 5.2225V5.2178C9.85454 5.24129 9.85454 5.18962 9.89017 5.24129C9.88508 5.23189 9.88508 5.21311 9.88508 5.19902C9.88508 5.19902 9.89017 5.19902 9.89526 5.19902C9.89526 5.19432 9.89017 5.18962 9.89017 5.18493C9.91053 5.26007 9.93089 5.16614 9.97161 5.24129C9.94616 5.17554 10.0022 5.18962 10.0072 5.14266C10.0072 5.14736 10.0123 5.15675 10.0072 5.15675C10.0225 5.15205 10.0378 5.17084 10.0531 5.17554C10.0225 5.12857 10.0378 5.10509 10.0327 5.06752C10.0785 5.10509 10.0581 5.12857 10.0938 5.17084C10.0683 5.13327 10.0989 5.11448 10.0734 5.0863C10.104 5.10978 10.0938 5.09569 10.1243 5.12857C10.0887 5.06752 10.1294 5.10978 10.1192 5.06752C10.1549 5.0863 10.1599 5.11918 10.1701 5.091C10.1905 5.10509 10.1854 5.13327 10.1854 5.13327C10.2058 5.12387 10.165 5.0863 10.1549 5.05812C10.1701 5.02994 10.1854 5.0863 10.2108 5.10509C10.2159 5.10039 10.2108 5.0957 10.2058 5.091C10.2007 5.0863 10.2007 5.07691 10.1956 5.07221C10.1905 5.05812 10.1854 5.04873 10.1905 5.04873C10.1956 5.05812 10.1956 5.05812 10.2007 5.06752C10.1956 5.04873 10.2007 5.04403 10.2007 5.03934C10.2058 5.03464 10.2058 5.02994 10.2108 4.99707C10.2108 5.00176 10.2108 5.00646 10.2108 5.01116C10.2058 4.98298 10.2058 4.9548 10.2007 4.93132C10.2058 4.92662 10.2108 4.88435 10.2159 4.92662C10.2108 4.92662 10.2108 4.94541 10.2108 4.9548L10.2159 4.93601C10.221 4.98768 10.2058 4.9595 10.2108 5.00176C10.2159 4.97828 10.2363 4.92192 10.2414 4.93601C10.2363 4.99707 10.221 4.96419 10.2261 5.01116C10.2261 5.00646 10.221 5.00177 10.2159 4.99237C10.221 5.07691 10.2108 4.98768 10.2159 5.0816C10.2159 5.09569 10.2261 5.04873 10.2261 5.06282C10.2363 5.02525 10.2363 5.01116 10.2465 4.97359C10.2668 4.93132 10.2567 4.98298 10.2465 5.02055C10.2363 5.05812 10.221 5.091 10.2414 5.05343C10.2567 5.01585 10.2923 4.9501 10.2821 4.99707C10.2719 5.01585 10.2617 5.03464 10.2465 5.05343C10.2465 5.06282 10.2974 4.97828 10.2821 5.02525C10.2668 5.04403 10.2668 5.03464 10.2617 5.03934C10.2363 5.0863 10.2872 5.01585 10.2872 5.02055L10.2516 5.06282C10.2567 5.06282 10.2668 5.05812 10.2821 5.05812C10.2872 5.05812 10.2974 5.05812 10.3025 5.05812C10.3076 5.05812 10.3076 5.05812 10.3126 5.05812C10.3177 5.05812 10.3177 5.06282 10.3228 5.06752C10.3076 5.07221 10.2923 5.07691 10.2821 5.091C10.3279 5.11918 10.3279 5.17554 10.3228 5.2272L10.3686 5.2225C10.3686 5.2272 10.3534 5.23659 10.3432 5.23659C10.3381 5.26007 10.3686 5.2272 10.389 5.2225C10.3941 5.23189 10.3737 5.24598 10.3585 5.24598C10.4094 5.25538 10.4755 5.28825 10.445 5.33522H10.4297C10.4246 5.36339 10.5264 5.32113 10.501 5.3587H10.4908C10.501 5.41506 10.5621 5.44793 10.5213 5.51368C10.5824 5.4949 10.5213 5.57004 10.6028 5.54186C10.5773 5.58413 10.557 5.58413 10.5468 5.63579C10.5468 5.64518 10.6079 5.63109 10.6181 5.64049L10.5773 5.65927H10.6333L10.5875 5.68745L10.6028 5.69685C10.6028 5.69215 10.6181 5.67806 10.6282 5.67336C10.6588 5.68276 10.6181 5.72972 10.5977 5.73911L10.6537 5.76729C10.6384 5.77199 10.6333 5.76729 10.6231 5.76729C10.6537 5.77669 10.5722 5.78608 10.6181 5.79547C10.6282 5.79078 10.6435 5.78608 10.6537 5.78608C10.6333 5.80486 10.6435 5.83304 10.6639 5.84713L10.6435 5.85183L10.6333 5.85653C10.6333 5.85653 10.6333 5.85653 10.6333 5.86122L10.613 5.87062L10.6333 5.87531V5.87062C10.6384 5.8894 10.6537 5.90349 10.6639 5.91758C10.6486 5.92228 10.6231 5.95985 10.6282 5.92697C10.6333 5.92697 10.6384 5.92228 10.6435 5.92228C10.6333 5.8894 10.5824 5.8894 10.5773 5.85653C10.6181 5.81895 10.6028 5.86592 10.6384 5.83304C10.6028 5.80956 10.5264 5.80956 10.5112 5.77199V5.78138C10.445 5.82365 10.5213 5.73442 10.4806 5.74381C10.4908 5.74381 10.5213 5.72033 10.5112 5.72502C10.501 5.69685 10.4552 5.69215 10.4094 5.67806L10.4297 5.66867C10.4348 5.64518 10.4094 5.63109 10.4043 5.61231C10.3839 5.6217 10.3788 5.61231 10.3635 5.63579C10.4094 5.52308 10.2414 5.60292 10.277 5.50429C10.2821 5.50899 10.3025 5.50429 10.2974 5.49959L10.2516 5.48081C10.2312 5.50429 10.2414 5.49959 10.2261 5.52308C10.2058 5.53247 10.1854 5.53717 10.1803 5.52777C10.2108 5.52308 10.221 5.4902 10.2261 5.47141C10.221 5.48081 10.2108 5.4855 10.2007 5.4949C10.2261 5.43854 10.1498 5.54186 10.1549 5.4902L10.1701 5.48081C10.1549 5.48081 10.1294 5.4902 10.1243 5.48081C10.1498 5.44793 10.1447 5.47611 10.1701 5.45263C10.1549 5.44323 10.0938 5.4855 10.109 5.44793C10.1243 5.44324 10.1294 5.45263 10.1447 5.44793C10.165 5.40566 10.1549 5.41036 10.1498 5.39627L10.1396 5.36339V5.37748C10.0531 5.43854 10.0887 5.36339 10.0225 5.39627C10.0836 5.36339 10.048 5.37279 10.0785 5.33991C10.0785 5.32582 10.0785 5.30704 10.0887 5.30234C10.0531 5.32113 10.0887 5.26477 10.0378 5.29764C10.048 5.28825 10.0276 5.28825 10.048 5.26007C10.0276 5.26007 10.0378 5.28355 10.0225 5.29295C9.99706 5.30234 9.99197 5.28355 9.98179 5.26477C9.97161 5.24598 9.96143 5.2272 9.9258 5.24129C9.88508 5.24598 9.85454 5.27886 9.81891 5.28355C9.81382 5.28355 9.80873 5.28355 9.80873 5.27886ZM10.3279 5.06282C10.3279 5.06282 10.333 5.06752 10.3381 5.07221C10.333 5.06752 10.3279 5.06282 10.3279 5.06282ZM10.3483 5.091C10.3585 5.08161 10.3737 5.07691 10.3737 5.0816C10.3635 5.0863 10.3635 5.0957 10.3534 5.10978C10.3585 5.10039 10.3534 5.0957 10.3483 5.091ZM10.7657 5.93637C10.7657 5.95046 10.7148 5.96455 10.6995 5.95985L10.7199 5.96924C10.6842 5.97864 10.6842 5.94106 10.6435 5.95985C10.6537 5.95515 10.669 5.94576 10.6791 5.93637C10.6842 5.94106 10.6842 5.94576 10.6893 5.95046C10.6995 5.93167 10.7504 5.91758 10.7606 5.92697L10.7148 5.94576C10.7453 5.95046 10.7249 5.93637 10.7657 5.93637ZM10.2465 5.60761C10.2414 5.60292 10.2414 5.60292 10.2363 5.59822C10.2465 5.58883 10.2617 5.58413 10.2719 5.58413C10.2668 5.58883 10.2567 5.59822 10.2465 5.60761ZM10.8878 6.33087C10.8827 6.33087 10.8827 6.33087 10.8776 6.33087C10.8827 6.33087 10.8827 6.33087 10.8878 6.33087ZM10.6995 6.05378C10.7046 6.05848 10.7097 6.06787 10.7148 6.07257C10.7046 6.07726 10.6995 6.07726 10.6995 6.06317C10.7046 6.06787 10.6995 6.06317 10.6995 6.05378ZM10.6842 6.00212C10.6791 6.01621 10.669 6.0256 10.6995 6.0209L10.6842 6.0256C10.674 6.0256 10.6639 6.0209 10.669 6.01151C10.674 6.00681 10.6791 6.00681 10.6842 6.00212ZM10.6435 5.95515C10.6486 5.94106 10.6486 5.93637 10.6639 5.92697C10.669 5.93167 10.669 5.93637 10.674 5.94106L10.6435 5.95515ZM10.7097 7.08231C10.7453 7.11988 10.7809 7.15746 10.8166 7.19972C10.8013 7.19503 10.7708 7.18094 10.7199 7.14337C10.7199 7.12928 10.7148 7.11049 10.7097 7.0917C10.7097 7.08701 10.7046 7.08231 10.7046 7.08231C10.7046 7.08231 10.7046 7.08231 10.7097 7.08231ZM11.5903 7.61302C11.6615 7.60362 11.7277 7.59423 11.7989 7.58484L11.6412 7.64589C11.6106 7.6365 11.5852 7.6271 11.5903 7.61302ZM9.90544 5.29764L9.89017 5.33052C9.88508 5.32582 9.87999 5.32582 9.8749 5.32113C9.88508 5.31173 9.89017 5.30704 9.90544 5.29764ZM13.4227 7.32183C13.4278 7.32183 13.4379 7.32183 13.443 7.31714C13.4379 7.34062 13.4278 7.3641 13.4278 7.38289L13.3769 7.3688C13.382 7.37819 13.382 7.38289 13.3769 7.38289C13.3972 7.37819 13.4176 7.37819 13.4278 7.37819C13.4278 7.38289 13.4278 7.39228 13.4329 7.39698C13.4329 7.40167 13.4379 7.40167 13.4379 7.40637C13.4278 7.40167 13.4023 7.39698 13.3565 7.38758L13.3056 7.43924L13.3718 7.42516L13.4023 7.41576L13.4176 7.41107H13.4278H13.4329C13.4278 7.41107 13.4278 7.41107 13.4278 7.41107C13.4278 7.41107 13.4329 7.41107 13.4379 7.41107C13.4634 7.43455 13.5245 7.44864 13.6721 7.44864C13.7433 7.42516 13.8197 7.40637 13.891 7.38289L13.9673 7.41107C13.9062 7.41576 13.8401 7.42046 13.779 7.42985C13.891 7.44864 13.9571 7.41576 14.0284 7.39228C14.0487 7.40637 14.0793 7.42046 14.1251 7.42046C14.1964 7.39698 14.2727 7.37349 14.3491 7.35001C14.3745 7.37349 14.2473 7.40167 14.4 7.41576C14.5069 7.38758 14.2982 7.3594 14.4712 7.34062C14.5832 7.37349 14.5476 7.39698 14.6799 7.37349C14.6952 7.39228 14.6697 7.40167 14.6188 7.40637C14.7359 7.38758 14.9191 7.41107 14.9853 7.37819C15.0973 7.42046 15.3722 7.40167 15.3569 7.46273C15.3925 7.45333 15.5656 7.43455 15.6725 7.44864C15.5707 7.47212 15.6674 7.48621 15.7845 7.505C15.8455 7.51439 15.8964 7.52378 15.9321 7.53787C15.9677 7.55196 15.9881 7.56605 15.9728 7.58484C16.044 7.56605 16.1611 7.59423 16.2935 7.64119C16.3596 7.66468 16.4309 7.68816 16.5022 7.71164C16.5378 7.72573 16.5734 7.73512 16.609 7.74452C16.6396 7.75391 16.6752 7.7633 16.7058 7.768C16.6905 7.768 16.6599 7.768 16.6447 7.75861C16.7719 7.81496 16.8025 7.84784 16.8788 7.89011C16.8992 7.86663 16.9603 7.87602 17.0366 7.88541C17.1079 7.9042 17.1893 7.92768 17.2504 7.93707C17.3776 8.05918 17.1231 7.95116 17.1486 8.01691C17.1639 7.97464 17.4387 8.10615 17.4031 8.04509C17.4998 8.13433 17.4896 8.11554 17.5253 8.18599C17.5863 8.13902 17.6372 8.23295 17.7543 8.25174C17.8917 8.37854 17.7543 8.33158 17.9375 8.42551C18.0037 8.49596 17.8408 8.41611 17.8408 8.41611C18.0088 8.53353 17.9528 8.4302 18.0088 8.4302C18.0648 8.46308 18.0953 8.48187 18.1106 8.50065C18.1259 8.51944 18.131 8.52883 18.131 8.53822C18.1259 8.55701 18.1055 8.56171 18.1259 8.59928C18.1921 8.64155 18.2531 8.66973 18.3142 8.6979C18.3753 8.72608 18.4262 8.75426 18.4669 8.79183C18.4669 8.80592 18.4822 8.82001 18.4516 8.81062C18.528 8.84819 18.6145 8.92803 18.7061 9.01257C18.7927 9.1018 18.8792 9.19104 18.9708 9.2427C18.9759 9.25679 18.9759 9.26148 18.9759 9.27088C18.9759 9.2333 18.9963 9.20982 19.0166 9.20513C19.0777 9.27557 19.1541 9.31784 19.149 9.36481C19.1134 9.32254 19.0981 9.32724 19.0726 9.31315L19.149 9.3789C19.1643 9.47752 19.0523 9.28497 19.0217 9.30845C19.0879 9.3742 19.1643 9.44465 19.2355 9.51509C19.3017 9.58554 19.3577 9.65599 19.3984 9.71704C19.3729 9.7687 19.1897 9.45404 19.261 9.63251C19.2253 9.56676 19.1846 9.5104 19.1388 9.44934C19.1795 9.62311 19.0574 9.34132 19.0879 9.5104C19.1286 9.56676 19.1643 9.60902 19.1948 9.65129C19.2253 9.68886 19.2508 9.72174 19.2762 9.74992C19.3271 9.81097 19.3831 9.87203 19.4493 9.99883C19.5104 10.0411 19.4747 9.96126 19.5358 10.0035C19.6682 10.1679 19.6733 10.2524 19.6783 10.3229C19.6783 10.3605 19.6783 10.3886 19.6936 10.4309C19.7089 10.4685 19.7292 10.5108 19.7751 10.5765C19.8056 10.6047 19.8412 10.6235 19.8718 10.6563C19.887 10.6751 19.9023 10.6939 19.9176 10.7268C19.9329 10.7597 19.9481 10.7972 19.9583 10.8489C19.9328 10.8301 19.9074 10.816 19.8769 10.8019C19.9227 10.9334 19.9532 10.9616 19.9838 10.9945C19.999 11.0133 20.0143 11.0274 20.0245 11.0602C20.0397 11.0931 20.055 11.1354 20.0601 11.2105C20.0296 11.1636 19.9736 11.0086 19.9787 11.0508C19.9838 11.0978 19.9888 11.1307 19.999 11.1495C20.0041 11.173 20.0143 11.187 20.0245 11.1964C20.0448 11.2199 20.0703 11.234 20.0906 11.3045L20.0499 11.3467C20.0601 11.3796 20.0703 11.4172 20.0856 11.45C20.0957 11.4876 20.1059 11.5205 20.1161 11.5581C20.1365 11.6332 20.1568 11.7084 20.1823 11.7835C20.2026 11.8586 20.2179 11.9385 20.2332 12.0183C20.2433 12.0559 20.2484 12.0982 20.2586 12.1404C20.2637 12.1827 20.2739 12.225 20.279 12.2672C20.2586 12.2485 20.2332 12.1921 20.2332 12.2766C20.2535 12.3847 20.279 12.4927 20.2993 12.596C20.3197 12.6993 20.3299 12.8073 20.335 12.9107C20.3401 13.1173 20.3146 13.3286 20.279 13.5212L20.3044 13.6762C20.2993 13.7091 20.2739 13.7372 20.2739 13.6997C20.2383 13.85 20.2993 13.7091 20.3095 13.7842C20.2993 13.8734 20.2688 13.8969 20.2637 13.8406C20.2637 13.911 20.2586 13.9909 20.2535 14.0848C20.2535 14.1083 20.2484 14.1317 20.2484 14.1552C20.2484 14.1787 20.2433 14.2069 20.2433 14.2304C20.2433 14.2445 20.2433 14.2586 20.2383 14.2773V14.3008V14.3243C20.2383 14.3478 20.2383 14.3713 20.2433 14.3948C20.2484 14.5826 20.2179 14.7799 20.167 14.9161L20.1619 14.8597C20.1059 15.0757 20.2077 15.1227 20.1263 15.3247V15.2824C20.1008 15.4045 20.0754 15.5313 20.055 15.6581C20.0499 15.691 20.0448 15.7239 20.0448 15.7567C20.0397 15.7896 20.0397 15.8178 20.0347 15.8507C20.0296 15.9117 20.0194 15.9681 20.0092 16.0244C19.9888 16.1418 19.9583 16.2499 19.9176 16.3485C19.8972 16.4002 19.8769 16.4471 19.8514 16.4894C19.8412 16.5129 19.826 16.5317 19.8158 16.5551C19.8005 16.5786 19.7903 16.6021 19.7751 16.6256C19.7801 16.6491 19.7751 16.6913 19.7598 16.7383C19.7445 16.7853 19.7242 16.8416 19.7038 16.898C19.6631 17.0107 19.6274 17.114 19.6631 17.1422C19.5918 17.269 19.5613 17.3113 19.5256 17.3676C19.49 17.424 19.4493 17.4944 19.3577 17.6682C19.3119 17.7621 19.3424 17.8326 19.2966 17.9547L19.2559 17.9406L19.2202 18.1191L19.1286 18.1801L19.0828 18.2928C19.1083 18.2506 19.149 18.2083 19.1592 18.2224C19.1235 18.3116 19.0625 18.4103 19.0014 18.4901C18.9403 18.5652 18.8894 18.6169 18.8792 18.6122C18.8181 18.7484 18.7469 18.8846 18.6756 19.0208C18.6654 19.002 18.7011 18.9363 18.7214 18.8799C18.6349 19.11 18.6552 18.894 18.5738 19.1006C18.5993 19.0819 18.5891 19.1288 18.5942 19.1382C18.5484 19.1758 18.4924 19.2509 18.4364 19.3308C18.3753 19.4153 18.3142 19.5045 18.2633 19.5844L18.2582 19.5374C18.1564 19.6736 18.0495 19.8192 17.9375 19.9695C17.8307 20.1198 17.7136 20.2607 17.5812 20.4063C17.683 20.3123 17.7085 20.3687 17.6372 20.4579L17.566 20.4626C17.5405 20.5331 17.6627 20.3875 17.5863 20.519C17.4845 20.6223 17.4794 20.5565 17.5202 20.4861L17.4133 20.627C17.3929 20.627 17.4184 20.5894 17.4082 20.5706C17.3827 20.6411 17.1588 20.7679 17.1333 20.8806H17.113C17.0977 20.8994 17.0773 20.9229 17.0621 20.9417C17.0468 20.9604 17.0315 20.9792 17.0213 20.998C16.9959 21.0309 16.9704 21.0638 16.9501 21.0919C16.9043 21.153 16.8635 21.2047 16.8279 21.2563C16.7516 21.3596 16.6752 21.4536 16.5734 21.5663C16.604 21.5992 16.5123 21.679 16.4716 21.7682C16.2986 21.9232 16.0848 22.0688 15.8659 22.2379C15.7234 22.3694 15.8404 22.2989 15.7895 22.3694C15.7539 22.3506 15.5249 22.5056 15.6267 22.407C15.4892 22.5056 15.3976 22.5573 15.3009 22.623C15.25 22.6559 15.1991 22.6841 15.1329 22.7216C15.1024 22.7404 15.0668 22.7639 15.0311 22.7827C14.9904 22.8015 14.9497 22.825 14.9039 22.8531C14.9548 22.8484 15.0057 22.8297 14.9853 22.8531C14.9141 22.8907 14.8173 22.9142 14.8173 22.8907L14.8326 22.8766C14.8173 22.886 14.8072 22.8907 14.7919 22.9001C14.7766 22.9095 14.7715 22.9142 14.7563 22.9189C14.7308 22.9283 14.7054 22.9377 14.6799 22.9424C14.6545 22.9471 14.6239 22.9518 14.5985 22.9565C14.5628 22.9612 14.5323 22.9612 14.4967 22.9659C14.3592 22.9752 14.2167 22.9752 14.0793 22.9799C13.7993 22.9846 13.5397 22.9893 13.3565 23.0316L13.3769 23.0269C13.3107 23.0363 13.2496 23.041 13.1834 23.041C13.1173 23.041 13.0511 23.041 12.9798 23.041C12.7915 23.0175 13.0969 23.0269 12.9595 22.9893C12.8475 22.994 12.7406 22.9893 12.649 22.9846C12.6235 22.9846 12.6032 22.9799 12.5828 22.9799C12.5625 22.9799 12.5421 22.9752 12.5217 22.9752C12.4759 22.9705 12.4352 22.9658 12.3894 22.9565C12.3436 22.9518 12.2978 22.9471 12.2469 22.9471H12.1807C12.1603 22.9471 12.14 22.9471 12.1196 22.9471C12.0331 22.9471 11.9516 22.9565 11.8549 22.9705C11.7073 22.9236 11.4579 22.9377 11.1932 22.9471C11.0609 22.9518 10.9285 22.9565 10.8064 22.9518C10.6842 22.9471 10.5672 22.9377 10.4755 22.9142L10.4959 22.9424C10.3992 22.9565 10.3788 22.9189 10.3126 22.9048C10.3228 22.9236 10.4144 22.9377 10.3534 22.9424C9.94107 22.9236 9.52369 22.839 9.12666 22.7028C8.72964 22.5666 8.35807 22.3788 8.01703 22.1628C7.95595 22.1252 7.91014 22.1064 7.87451 22.097C7.83888 22.0876 7.80834 22.0876 7.7778 22.0829C7.71672 22.0735 7.65055 22.0594 7.51821 21.9232L7.63528 21.9467C7.37059 21.7964 7.13645 21.5992 6.91758 21.3878C6.69871 21.1765 6.49511 20.9511 6.28641 20.7444C6.31695 20.7632 6.33222 20.7585 6.36785 20.8008C6.31186 20.6881 6.07263 20.4485 6.04718 20.4626C5.99119 20.3875 6.05736 20.4297 6.03191 20.3781C5.97083 20.2701 5.79777 20.1573 5.7825 20.0869C5.7825 20.0775 5.79777 20.0916 5.80795 20.1057C5.7316 20.0305 5.59417 19.8333 5.60944 19.9084C5.48727 19.7206 5.32439 19.5844 5.22259 19.4341C5.1666 19.4012 5.10552 19.3261 5.04953 19.2603C4.99354 19.1946 4.94773 19.1382 4.9121 19.1429C4.94264 19.1288 4.89174 19.049 4.82048 18.9597C4.75431 18.8705 4.66269 18.7719 4.61179 18.7202C4.65251 18.7484 4.56597 18.6122 4.61688 18.6404C4.52525 18.5136 4.44381 18.3962 4.42854 18.4384C4.38782 18.2975 4.30638 18.1801 4.23003 18.0721C4.15877 17.9641 4.09769 17.8655 4.11296 17.7762C3.88391 17.3723 3.70576 16.9778 3.56323 16.588C3.59886 16.588 3.63449 16.696 3.67522 16.7994C3.71594 16.9027 3.75157 17.0013 3.78211 16.9825C3.61922 16.6209 3.49706 16.4189 3.40544 16.0385C3.38508 15.9399 3.45125 16.0855 3.47161 16.1184C3.43598 16.0244 3.40544 15.9305 3.37999 15.8413C3.35454 15.752 3.324 15.6534 3.30873 15.5736C3.26801 15.4045 3.24765 15.2307 3.21711 15.0617C3.19675 15.0945 3.1713 15.0335 3.14585 14.9583C3.1204 14.8738 3.09495 14.7752 3.08477 14.7705C3.18148 14.8832 3.08986 14.4229 3.21202 14.6014C3.20184 14.5544 3.18657 14.4981 3.16621 14.5122C3.16621 14.4417 3.17639 14.4182 3.20693 14.4887C3.1713 14.2351 3.14585 14.329 3.1204 14.1036C3.13567 14.1036 3.14585 14.1458 3.16621 14.1693C3.12549 14.0566 3.07968 13.9486 3.07459 13.756C3.08477 13.7654 3.08986 13.7513 3.10004 13.7795C3.09495 13.7607 3.09495 13.7372 3.08986 13.7185C3.08477 13.6997 3.08477 13.6809 3.07968 13.6574C3.07968 13.5353 3.07459 13.4179 3.07459 13.2958C3.07459 13.1737 3.07968 13.0469 3.11022 12.9013C3.16621 13.014 3.14585 12.7839 3.20184 12.7698L3.20693 12.5772L3.1713 12.6524C3.19166 12.4833 3.1713 12.333 3.20184 12.1921L3.21202 12.3189C3.2222 12.2156 3.23238 12.1076 3.24256 12.0042C3.22729 12.0606 3.21202 12.1216 3.19675 12.178C3.19166 12.0042 3.1204 12.1874 3.1713 11.9667C3.1713 12.0136 3.19675 11.7976 3.24256 11.7177C3.23747 11.6332 3.23238 11.544 3.26801 11.4266C3.29346 11.3984 3.324 11.4641 3.33927 11.4454C3.324 11.4031 3.33927 11.3045 3.35963 11.2058C3.37999 11.1072 3.40035 11.0086 3.39017 10.9522C3.39526 10.9898 3.42071 10.9992 3.43089 10.9851C3.4258 10.9616 3.41562 10.9334 3.41053 10.91C3.44616 10.8395 3.45634 10.8301 3.47161 10.8489C3.50724 10.7409 3.48688 10.7503 3.46652 10.7597C3.44616 10.7691 3.43089 10.7691 3.49706 10.6469C3.49197 10.6704 3.50215 10.661 3.49197 10.7033C3.50724 10.6704 3.51742 10.6423 3.53269 10.6094C3.54796 10.5765 3.55814 10.5483 3.57341 10.5154C3.59886 10.4544 3.6294 10.3933 3.65486 10.337C3.71594 10.2196 3.78211 10.1069 3.85846 9.99883C3.95008 9.96126 3.74648 10.2008 3.8381 10.1491C3.93481 9.98944 4.02643 9.80628 4.10787 9.62781C4.18422 9.44934 4.26566 9.28027 4.39291 9.16286C4.37764 9.17695 4.35728 9.19104 4.34201 9.20513C4.32674 9.16286 4.38273 9.11589 4.45399 9.08302C4.46417 9.07832 4.47435 9.07362 4.48453 9.06893C4.49471 9.06423 4.50998 9.05954 4.52016 9.05014C4.5507 9.04075 4.56597 9.01257 4.59143 8.99378C4.6067 8.975 4.62197 8.96091 4.63724 8.94212C4.65251 8.92334 4.66778 8.90455 4.67796 8.88576C4.65251 8.92334 4.67287 8.95621 4.67287 8.94212C4.84084 8.76835 5.0139 8.5711 5.30912 8.31749L5.28367 8.35976C5.41601 8.27992 5.60944 8.12963 5.75196 8.04509C5.77741 8.00282 5.85885 7.95116 5.79268 7.96056C5.91484 7.90889 6.02682 7.84784 6.12862 7.78209C6.17952 7.74921 6.23042 7.71164 6.27623 7.67877C6.30168 7.65998 6.32204 7.64119 6.34749 7.6271L6.38312 7.59893L6.39839 7.58484L6.42894 7.56135C6.46457 7.53787 6.52565 7.50969 6.57655 7.48621C6.62745 7.46273 6.68344 7.43924 6.73943 7.42046C6.84632 7.38289 6.96339 7.35471 7.08046 7.34062C7.02956 7.35471 6.96339 7.39228 7.00411 7.38289C7.12627 7.34062 7.24843 7.29835 7.37059 7.25608C7.32987 7.2326 7.3146 7.25139 7.22807 7.24669C7.26879 7.21381 7.37059 7.17154 7.46731 7.14806C7.30442 7.21381 7.48258 7.19972 7.56402 7.19503C7.54875 7.19033 7.56911 7.17154 7.56402 7.16215C7.7778 7.17154 7.57929 7.08701 7.86433 7.06822L7.85415 7.08701C7.95595 7.05413 8.04248 7.01656 8.15955 7.00247C8.21045 7.03065 8.05266 7.04004 8.05266 7.07292C8.20536 7.04004 8.34789 6.95081 8.50059 6.97429C8.43442 6.99308 8.33771 7.00247 8.27153 7.02126C8.35298 7.03065 8.3937 7.03535 8.43442 7.03535C8.47514 7.03535 8.50568 7.03065 8.56167 7.03065H8.55149C8.55658 7.03065 8.56167 7.03065 8.56676 7.03065H8.56167C8.60748 7.03065 8.65329 7.03535 8.70419 7.03535C8.67365 7.03065 8.6482 7.03065 8.62784 7.03065C8.68892 7.03065 8.75509 7.03535 8.81617 7.03535L8.75 7.02595C8.84671 6.97429 8.94851 6.96959 9.06049 6.96959C9.17247 6.96959 9.28955 6.97899 9.42698 6.95551C9.16229 6.99777 9.38117 6.98838 9.35572 7.03065C9.42189 7.04944 9.52878 7.06822 9.49824 7.07761C9.63058 7.04944 9.71202 7.11519 9.89526 7.06822C9.90035 7.08231 10.0276 7.07292 10.0022 7.11049C10.165 7.10579 9.96652 7.08701 9.98179 7.06822C10.109 7.04944 10.2567 7.07292 10.4094 7.10579C10.4501 7.11519 10.4857 7.12458 10.5264 7.13397C10.5468 7.13867 10.5672 7.14337 10.5824 7.14806L10.613 7.15745L10.6282 7.16215L10.6435 7.16685H10.6537L10.6588 7.17154L10.6893 7.19503C10.7199 7.22321 10.7555 7.25138 10.7911 7.27956C10.9031 7.38289 10.9794 7.43455 11.0558 7.48621C11.0914 7.50969 11.1271 7.53787 11.1729 7.56605C11.2034 7.58484 11.239 7.59423 11.2747 7.60362C11.3052 7.61301 11.3357 7.61771 11.3663 7.61771C11.3866 7.6271 11.3714 7.6365 11.3408 7.64589C11.3205 7.65059 11.3001 7.65059 11.2798 7.65059C11.2594 7.65059 11.2492 7.64589 11.2492 7.64589C11.3357 7.68816 11.4274 7.67877 11.4935 7.66937C11.5597 7.65998 11.6259 7.64589 11.7022 7.6271C11.6717 7.64119 11.7073 7.65059 11.7531 7.65998C11.8753 7.64119 11.8244 7.59893 11.9873 7.59423C11.9618 7.61301 11.9313 7.64119 11.8753 7.66937C12.0178 7.6365 12.1552 7.58484 12.2978 7.54257C12.3436 7.55666 12.2163 7.59893 12.1705 7.62241C12.252 7.59893 12.3588 7.57075 12.4505 7.53787C12.4963 7.51908 12.537 7.5003 12.5625 7.48621C12.593 7.47212 12.6134 7.45803 12.6235 7.44864C12.5981 7.45333 12.5726 7.45333 12.5472 7.45803C12.5675 7.46273 12.5523 7.49091 12.5217 7.505C12.3894 7.57544 12.313 7.54726 12.3029 7.53787C12.3385 7.52848 12.369 7.51439 12.4047 7.505C12.3385 7.48151 12.2418 7.50969 12.1247 7.54257C12.0127 7.57544 11.8855 7.61771 11.7786 7.6318L11.8397 7.57544C12.0585 7.54257 12.2774 7.505 12.4963 7.43924C12.7762 7.34531 13.1122 7.37349 13.4227 7.32183ZM20.8592 0.81719C20.8542 0.831279 20.8542 0.850065 20.8491 0.868851C20.8338 0.868851 20.8185 0.864155 20.8236 0.854762C20.8287 0.859458 20.844 0.831279 20.8592 0.81719ZM20.6505 0.770225C20.6505 0.779618 20.6505 0.793707 20.6505 0.8031L20.6149 0.784314C20.6149 0.774921 20.62 0.765528 20.62 0.756135L20.6505 0.770225ZM13.7484 5.50429L13.7637 5.51368C13.7637 5.51838 13.7637 5.52308 13.7688 5.52308C13.7688 5.52777 13.7688 5.52777 13.7688 5.53247C13.7637 5.53247 13.7586 5.53247 13.7535 5.53717L13.7281 5.52777C13.7332 5.51838 13.7383 5.50899 13.7484 5.50429ZM13.7128 5.4902L13.723 5.4949L13.7128 5.51838L13.6924 5.50899L13.7128 5.4902ZM13.7179 5.53247L13.7383 5.54186L13.7332 5.54656L13.7179 5.53247C13.7179 5.53717 13.7179 5.53247 13.7179 5.53247ZM18.0852 3.09969L18.0597 3.15604C18.0495 3.15135 18.0343 3.14195 18.0292 3.12786C18.0495 3.11847 18.0699 3.10908 18.0852 3.09969ZM20.8083 0.859458L20.8287 0.873548C20.8185 0.882941 20.8083 0.887637 20.8032 0.887637L20.788 0.878244C20.7931 0.873548 20.7982 0.868851 20.8083 0.859458ZM13.1834 6.12892C13.1783 6.12892 13.1783 6.12892 13.1733 6.12892C13.1733 6.12423 13.1733 6.11953 13.1733 6.11014C13.1885 6.11953 13.1987 6.12892 13.2191 6.10074C13.2089 6.07726 13.1885 6.08196 13.1733 6.08666C13.1733 6.07726 13.1733 6.07257 13.1733 6.06317C13.1783 6.06787 13.1885 6.06787 13.1987 6.06317L13.2089 6.01621C13.2089 6.01151 13.2089 6.00212 13.2089 5.98333C13.2292 5.98333 13.2343 5.99273 13.2394 6.01621C13.2343 5.96924 13.2649 5.90349 13.2394 5.87062C13.2903 5.84244 13.2751 5.72972 13.3361 5.74851C13.326 5.72972 13.3107 5.66397 13.3209 5.6217C13.3769 5.71094 13.3718 5.48081 13.4481 5.52308C13.3972 5.45263 13.4787 5.33052 13.4736 5.23189C13.4787 5.23659 13.4838 5.25068 13.4787 5.26007C13.5041 5.21311 13.5296 5.20371 13.5499 5.17554C13.4939 5.15205 13.5092 5.07221 13.4888 5.01585C13.5652 4.97359 13.5397 5.07221 13.6008 5.07221C13.555 5.06282 13.5957 4.9501 13.5499 4.9595C13.6008 4.92192 13.5805 4.92662 13.6365 4.91723C13.5703 4.88435 13.6415 4.87026 13.611 4.8186C13.6721 4.76224 13.6823 4.8233 13.6924 4.74346C13.7281 4.71528 13.7281 4.79042 13.7281 4.79042C13.7586 4.71528 13.6924 4.73876 13.667 4.71058C13.6874 4.61665 13.723 4.6824 13.7637 4.66362C13.7739 4.60256 13.7433 4.54151 13.7637 4.50394C13.7739 4.50394 13.779 4.49924 13.7892 4.51333C13.7841 4.47576 13.7993 4.43349 13.8197 4.39122C13.8401 4.34895 13.8604 4.30199 13.8502 4.25972C13.8553 4.25502 13.8604 4.25502 13.8655 4.25502C13.835 4.25502 13.8095 4.24563 13.7892 4.23624C13.8044 4.20336 13.7892 4.16109 13.8248 4.16579C13.8146 4.18458 13.8248 4.19397 13.8299 4.20806L13.835 4.16579C13.896 4.1564 13.8299 4.21745 13.8655 4.23624C13.8808 4.16109 13.8859 4.07186 13.9266 4.02489C13.9775 4.03429 13.8808 4.147 13.9571 4.10004L13.896 4.17049C14.0029 4.147 13.8655 4.21275 13.9724 4.19397C14.0386 4.10004 14.008 4.07186 14.0793 3.97793C14.0691 3.94505 14.0386 3.96854 14.0233 3.93096C14.0589 3.76659 14.2014 3.8793 14.2065 3.7478C14.1964 3.70553 14.1404 3.66326 14.2218 3.60691L14.2523 3.65857C14.3185 3.56933 14.2167 3.56464 14.3185 3.48949C14.3236 3.51767 14.2829 3.56933 14.2982 3.55994C14.3796 3.52237 14.2982 3.49889 14.3338 3.45192L14.3847 3.47071C14.4152 3.42374 14.4458 3.36739 14.4763 3.31103C14.5069 3.25467 14.5425 3.19831 14.5832 3.14665C14.5883 3.16074 14.5883 3.18892 14.6188 3.17483C14.7105 3.03863 14.8682 2.91652 15.0108 2.83199L15.026 2.76154C15.0362 2.75214 15.0617 2.75684 15.0566 2.77563C15.1177 2.74745 15.0413 2.75214 15.0515 2.72397C15.0769 2.70048 15.1075 2.70988 15.0973 2.73336C15.1278 2.68639 15.1736 2.62064 15.2347 2.56429C15.2958 2.51262 15.362 2.46096 15.4231 2.44687L15.4129 2.47036C15.4994 2.43278 15.4485 2.34355 15.5452 2.32946L15.535 2.34355C15.5809 2.32007 15.6267 2.29659 15.6725 2.26841C15.6928 2.25432 15.7183 2.24023 15.7386 2.23083C15.7488 2.22614 15.7539 2.22144 15.7641 2.21674L15.7997 2.20266C15.8913 2.16039 15.9881 2.12751 16.0746 2.12281C16.0746 2.05706 16.2782 2.06646 16.2527 1.98662C16.38 1.97722 16.3545 2.0054 16.5225 1.96313C16.5632 1.94904 16.5632 1.88799 16.609 1.85981L16.6294 1.89738L16.6803 1.82694L16.7414 1.85981L16.7821 1.83163C16.7617 1.83633 16.7363 1.83163 16.7312 1.81754C16.7923 1.77058 16.9195 1.78467 16.9297 1.80345C16.9857 1.77527 17.0417 1.7424 17.0977 1.71422C17.0977 1.72831 17.0824 1.7377 17.0672 1.75179C17.1282 1.70952 17.0875 1.79876 17.1588 1.7377C17.1435 1.73301 17.1588 1.70952 17.1588 1.70013C17.1791 1.70483 17.2097 1.70483 17.2453 1.70013C17.2606 1.69543 17.2809 1.69543 17.2962 1.69074L17.3267 1.68134C17.342 1.67665 17.3573 1.67195 17.3726 1.66256C17.3878 1.65786 17.398 1.64847 17.4082 1.64377V1.67665C17.5405 1.63438 17.678 1.56393 17.8307 1.51697C17.7696 1.52166 17.7645 1.47 17.8103 1.45122L17.8459 1.48879C17.8663 1.45122 17.795 1.48879 17.8408 1.43713C17.9019 1.42304 17.8968 1.4747 17.8714 1.49818L17.9375 1.46061C17.9477 1.4747 17.9325 1.48409 17.9325 1.50288C17.9528 1.46531 18.0648 1.50757 18.0903 1.45122L18.0852 1.45591C18.2379 1.40895 18.304 1.37607 18.4313 1.3385C18.4211 1.30093 18.472 1.29623 18.5025 1.25396C18.5993 1.23987 18.7112 1.23987 18.8232 1.207C18.8945 1.16473 18.8385 1.16943 18.8639 1.13655C18.8792 1.16943 18.9912 1.13655 18.9403 1.17412C19.0726 1.13185 19.1134 1.11777 19.2762 1.03792C19.2508 1.02853 19.2304 1.02853 19.2355 1.01444C19.2661 1.00035 19.3119 1.00975 19.3119 1.02384L19.3068 1.02853C19.3526 1.00035 19.4035 0.986263 19.4595 0.97687C19.4849 0.972174 19.5155 0.967478 19.546 0.962781C19.5765 0.958085 19.6071 0.953388 19.6325 0.948692C19.7496 0.929906 19.8514 0.915816 19.9074 0.850065L19.9023 0.854762C19.9481 0.821886 19.9939 0.793707 20.0397 0.765528C20.111 0.746742 20.0092 0.807797 20.0703 0.807797C20.2128 0.695081 20.3299 0.732653 20.452 0.652812C20.4877 0.671598 20.5284 0.671598 20.5691 0.666902C20.5844 0.666902 20.5996 0.662206 20.62 0.657509C20.5895 0.671598 20.5589 0.685688 20.5284 0.699777C20.4877 0.718563 20.4368 0.737349 20.3757 0.779618L20.3706 0.8031C20.3655 0.812493 20.3655 0.81719 20.3655 0.821886V0.854762C20.3553 0.864155 20.335 0.859458 20.3401 0.845369C20.2942 0.873548 20.3604 0.864155 20.3553 0.892334C20.3401 0.915816 20.3095 0.901727 20.3146 0.882941C20.2841 0.967478 20.2026 1.11307 20.1008 1.14594L20.1059 1.12716C20.0397 1.16473 20.111 1.24457 20.0347 1.25866L20.0397 1.24457C19.9125 1.3338 19.8005 1.4747 19.6631 1.49818C19.6834 1.55924 19.5206 1.56863 19.5664 1.63908C19.4646 1.65786 19.4798 1.62968 19.3526 1.67665C19.322 1.69074 19.3424 1.7471 19.3119 1.77527L19.2864 1.7377L19.2661 1.80815L19.2101 1.77997L19.1846 1.81285C19.1999 1.80815 19.2253 1.81285 19.2304 1.82224C19.1897 1.8739 19.0828 1.8786 19.0675 1.86451L18.9607 1.97722C18.9556 1.96313 18.9606 1.95374 18.9708 1.93496C18.9403 1.98662 18.9352 1.89738 18.8996 1.96313C18.9148 1.96783 18.9097 1.98662 18.9148 1.99601C18.869 1.99601 18.7978 2.04297 18.752 2.08524L18.7418 2.05237C18.6451 2.10873 18.5585 2.19796 18.4567 2.25901C18.5025 2.24962 18.528 2.29659 18.4975 2.32007L18.4567 2.29189C18.4567 2.32946 18.4975 2.28719 18.4822 2.33885C18.4415 2.35764 18.4262 2.31067 18.4364 2.28719L18.4007 2.32946C18.3906 2.32007 18.3957 2.30598 18.3906 2.29189C18.3906 2.32946 18.2837 2.30128 18.2837 2.35764L18.2735 2.34825C18.1717 2.4093 18.131 2.44687 18.0394 2.49384C18.0597 2.53141 18.019 2.5408 18.0088 2.58307C17.9375 2.60655 17.8459 2.61595 17.7696 2.65821C17.7238 2.70518 17.7696 2.69579 17.7594 2.72866C17.739 2.70048 17.6576 2.74275 17.6881 2.70048C17.5965 2.75214 17.566 2.76623 17.4591 2.85547C17.4794 2.86016 17.4998 2.86016 17.4947 2.87425C17.4744 2.88834 17.4336 2.88365 17.4285 2.86956L17.4336 2.86486C17.3217 2.98227 17.0621 2.93061 16.9908 3.04802L16.9959 3.04333L16.8992 3.13256C16.8432 3.15135 16.9195 3.09499 16.8686 3.09029C16.777 3.20301 16.6701 3.17953 16.5887 3.26406C16.4563 3.2077 16.3138 3.40496 16.1713 3.40026L16.1917 3.41905C16.1764 3.45662 16.1509 3.42374 16.1255 3.42844C16.1408 3.44253 16.1662 3.43314 16.156 3.45192C15.9372 3.59282 15.6572 3.66326 15.4078 3.77128C15.3162 3.81355 15.4332 3.90748 15.2907 3.92157L15.2958 3.86521C15.2246 3.93566 15.138 3.98732 15.0515 4.03898C14.965 4.09065 14.8784 4.14231 14.8123 4.21745C14.8173 4.20336 14.8072 4.18927 14.8224 4.17988C14.797 4.17988 14.7614 4.19866 14.741 4.22215C14.7206 4.24563 14.7054 4.27381 14.7155 4.2879C14.6901 4.30199 14.6952 4.27381 14.6697 4.27381C14.6239 4.2832 14.6137 4.36774 14.573 4.35365C14.5679 4.35365 14.573 4.34426 14.573 4.33956C14.5527 4.36774 14.4814 4.40531 14.5221 4.4194C14.4865 4.43349 14.461 4.46167 14.4356 4.48515C14.4152 4.50863 14.3898 4.53212 14.3592 4.54151C14.3592 4.56969 14.3338 4.58847 14.3083 4.60256C14.2829 4.62135 14.2676 4.63544 14.288 4.66362C14.2422 4.61665 14.1505 4.71528 14.1455 4.77164C14.1404 4.74815 14.0996 4.78573 14.0946 4.75755C14.0589 4.79512 14.0335 4.84208 14.0691 4.85617C14.008 4.87026 13.9826 4.91253 13.9673 4.9548C13.952 4.99707 13.9368 5.02994 13.8757 5.02055C13.8451 5.0863 13.8146 5.14736 13.7892 5.20371C13.7739 5.23189 13.7586 5.26007 13.7433 5.28825C13.7281 5.31643 13.7179 5.33991 13.6874 5.38218C13.6772 5.40097 13.6721 5.41506 13.6619 5.42915C13.6415 5.41975 13.6415 5.40097 13.6568 5.37279C13.667 5.3587 13.6772 5.33991 13.6874 5.32582C13.6924 5.31643 13.7026 5.30704 13.7077 5.29764C13.7179 5.27886 13.7179 5.26007 13.6975 5.25068C13.6772 5.28825 13.6772 5.31173 13.6466 5.37279C13.6365 5.39627 13.6263 5.41975 13.6263 5.44324C13.6263 5.46672 13.6263 5.4902 13.6314 5.51368C13.6365 5.53717 13.6415 5.55595 13.6466 5.57943C13.6517 5.59352 13.6517 5.60761 13.6517 5.61701L13.6466 5.83774L13.8604 5.72033C13.8706 5.71563 13.8808 5.71094 13.891 5.70624C13.9266 5.69685 13.891 5.73911 13.8859 5.7532C13.9368 5.71094 13.9877 5.67806 14.0437 5.64518C14.0691 5.63109 14.0996 5.61231 14.1302 5.58883C14.1556 5.56534 14.176 5.54186 14.1964 5.51838C14.2014 5.52308 14.1964 5.53717 14.1913 5.54656C14.2065 5.53247 14.2371 5.52308 14.2167 5.49959L14.2065 5.51838C14.1505 5.50899 14.2167 5.39627 14.2065 5.37748C14.232 5.46672 14.3134 5.32582 14.3338 5.44324C14.344 5.42915 14.3491 5.41036 14.3338 5.39627C14.3542 5.38688 14.3694 5.39157 14.3643 5.42445C14.4203 5.36339 14.3745 5.3587 14.4356 5.31173C14.4458 5.32113 14.4356 5.33522 14.4407 5.354C14.4509 5.31173 14.4661 5.26946 14.5221 5.24129C14.5272 5.25068 14.5374 5.25538 14.5221 5.26477C14.6036 5.19902 14.6188 5.10039 14.7308 5.05343C14.741 5.12387 14.7766 5.04403 14.8173 5.0816L14.8581 5.03464L14.8224 5.02994C14.8682 4.99707 14.8835 4.94071 14.9344 4.92662L14.9141 4.96889L14.9904 4.89844L14.9293 4.91723C14.9548 4.86087 14.8784 4.87026 14.9497 4.83739C14.9395 4.85148 14.9955 4.80451 15.0413 4.81391C15.0515 4.78573 15.0617 4.75285 15.1075 4.74346C15.1278 4.75285 15.138 4.79512 15.1533 4.79982C15.1482 4.74815 15.25 4.71997 15.25 4.65892C15.25 4.67301 15.2653 4.69649 15.2704 4.70119L15.2653 4.65892C15.2958 4.65422 15.3009 4.65892 15.3111 4.67771C15.3773 4.64013 15.25 4.63544 15.3416 4.61196C15.3365 4.61665 15.3416 4.62135 15.3365 4.63544C15.4231 4.59787 15.474 4.52272 15.5554 4.49454C15.6063 4.52742 15.4994 4.54151 15.5503 4.56499C15.647 4.49454 15.7285 4.38652 15.8404 4.33956L15.8201 4.34426C15.7946 4.27381 15.9168 4.33486 15.9524 4.2785C15.9422 4.2879 15.9575 4.32547 15.9575 4.31608C16.0339 4.2879 16.0949 4.22684 16.1917 4.1517L16.1866 4.17518C16.2375 4.17049 16.3036 4.12822 16.3545 4.11413C16.3596 4.09065 16.3851 4.08125 16.3545 4.06247C16.5581 4.09065 16.5989 3.87461 16.7719 3.8887C16.7567 3.89809 16.7465 3.92157 16.7567 3.91688L16.8534 3.84643C16.8279 3.82295 16.8279 3.83703 16.7923 3.82764C16.7974 3.80416 16.8177 3.77598 16.8432 3.76189C16.8076 3.80416 16.8686 3.80886 16.8992 3.81355C16.889 3.80886 16.8941 3.79477 16.8839 3.78537C16.9704 3.80886 16.8585 3.72432 16.9552 3.71962L16.9603 3.73841C16.9857 3.71493 17.001 3.68205 17.0315 3.67266C17.0621 3.70084 17.0112 3.70553 17.0264 3.73371C17.0672 3.71023 17.0773 3.62569 17.1333 3.63978C17.118 3.65857 17.0926 3.67266 17.0824 3.69144C17.1486 3.71023 17.1486 3.69614 17.1842 3.68675H17.1791L17.2657 3.66796H17.2402C17.2453 3.55524 17.342 3.59751 17.3827 3.50358C17.342 3.59282 17.3878 3.54116 17.4082 3.57873C17.4336 3.57873 17.4693 3.57873 17.4693 3.59282C17.4845 3.54585 17.5405 3.58812 17.566 3.51767C17.5762 3.52707 17.6016 3.49889 17.6118 3.53176C17.6525 3.49889 17.5863 3.51767 17.5812 3.49889C17.6271 3.42374 17.7747 3.46601 17.8408 3.35799C17.907 3.29694 17.907 3.24997 17.9579 3.19362C17.963 3.18892 17.9732 3.18422 17.9783 3.18422C18.0037 3.19362 17.9732 3.23588 17.9732 3.23588C18.0292 3.23119 18.0597 3.2124 18.0903 3.17483C18.0903 3.18892 18.1004 3.19361 18.1208 3.20301C18.1513 3.18422 18.1157 3.14665 18.1717 3.14195C18.1717 3.16074 18.1768 3.18422 18.1666 3.2077C18.1971 3.17483 18.2226 3.13256 18.2582 3.10438C18.2837 3.11847 18.2531 3.14665 18.248 3.17013C18.2888 3.13726 18.3549 3.09029 18.3448 3.04802L18.3193 3.05272C18.3295 3.05742 18.3346 3.0809 18.3295 3.09029C18.3091 3.13726 18.2684 3.10908 18.2582 3.09499L18.2837 3.07151C18.2124 3.01515 18.1768 3.14195 18.1157 3.17013L18.1106 3.11847C18.3498 2.99636 18.5178 2.90713 18.5484 2.88834C18.5484 2.88834 18.5534 2.88834 18.5534 2.88365C18.5636 2.90243 18.5738 2.92592 18.584 2.9447C18.5789 2.9447 18.5687 2.9447 18.5636 2.9494L18.5738 3.00106L18.5891 2.98697L18.5993 2.97758L18.6043 2.97288C18.6247 2.99167 18.6552 3.00106 18.7011 2.99636L18.7672 3.02454L18.7163 2.98227C18.7265 2.96349 18.7367 2.9447 18.7469 2.92122L18.7876 2.93531L18.7367 2.97288C18.7876 2.97758 18.7876 2.9447 18.7978 2.91652C18.813 2.92592 18.8283 2.93061 18.8436 2.92592L18.8639 2.83668C18.8894 2.85077 18.869 2.89774 18.9199 2.87895C18.9301 2.83668 18.8538 2.85077 18.8894 2.80381C18.9352 2.8085 18.9454 2.83199 18.9607 2.78972C18.9759 2.79911 18.9759 2.8132 18.9708 2.82729C18.9861 2.78972 19.0421 2.76623 19.0319 2.72866C19.0828 2.73806 19.1235 2.65352 19.1592 2.70518C19.1592 2.68639 19.1795 2.63004 19.1999 2.61125C19.1999 2.70048 19.3017 2.5502 19.3373 2.62534C19.3322 2.58777 19.3628 2.55959 19.3933 2.5408C19.4086 2.53141 19.4289 2.51732 19.4442 2.50793C19.4646 2.49384 19.4849 2.47975 19.4951 2.46096C19.4951 2.46566 19.49 2.47975 19.4849 2.47975C19.5307 2.46096 19.5511 2.47036 19.5867 2.46566C19.5613 2.41869 19.6122 2.36703 19.6224 2.32007C19.7038 2.32946 19.6325 2.39051 19.6834 2.42339C19.6529 2.39051 19.7394 2.32946 19.6987 2.31067C19.7547 2.31067 19.7394 2.30128 19.7903 2.32476C19.7496 2.26841 19.8158 2.29189 19.8158 2.23553C19.887 2.22144 19.8718 2.2731 19.9125 2.21674C19.9532 2.21205 19.9227 2.26841 19.9227 2.26841C19.9787 2.22614 19.9125 2.20735 19.9023 2.17917C19.9532 2.11342 19.9583 2.18387 19.999 2.18387C20.0296 2.1416 20.0194 2.08055 20.0499 2.05706C20.0601 2.06176 20.0652 2.05706 20.0703 2.07115C20.0805 2.0054 20.1874 1.96313 20.1874 1.88329C20.1924 1.88329 20.1975 1.88329 20.2026 1.88799C20.1772 1.8786 20.1517 1.85981 20.1415 1.84572C20.1619 1.82224 20.1568 1.78467 20.1924 1.79876C20.1772 1.81285 20.1874 1.82224 20.1924 1.83633L20.2026 1.80345C20.2586 1.81754 20.1874 1.84572 20.2128 1.8692C20.2433 1.81754 20.2637 1.7377 20.3044 1.71422C20.3502 1.7424 20.2383 1.79876 20.3197 1.78467L20.2535 1.82224C20.3502 1.83633 20.2179 1.85042 20.3197 1.8692C20.3604 1.84103 20.3706 1.81754 20.3859 1.79406C20.4011 1.77058 20.4113 1.75179 20.4571 1.71892C20.452 1.68604 20.4215 1.69543 20.4164 1.66256C20.4469 1.59681 20.4877 1.59681 20.5284 1.59681C20.5691 1.59681 20.5996 1.6015 20.6098 1.54045C20.5996 1.49818 20.5538 1.45591 20.6251 1.41834L20.6556 1.47C20.7167 1.39955 20.62 1.38077 20.7116 1.32441C20.7218 1.34789 20.6862 1.39486 20.6964 1.38547C20.7727 1.35729 20.6964 1.3338 20.7218 1.29623L20.7727 1.31502C20.7982 1.27275 20.8134 1.23518 20.8389 1.18352C20.8592 1.14594 20.8694 1.09898 20.8745 1.06141C20.8796 1.02384 20.8796 0.995656 20.8796 0.967478C20.8847 0.967478 20.8847 0.972174 20.8898 0.972174C20.8898 0.976871 20.8898 0.981567 20.8898 0.986264C20.8898 0.981567 20.8949 0.97687 20.8949 0.97687C20.9 0.981567 20.9101 0.986263 20.9152 0.981567C20.8796 1.09428 21.0323 1.0755 20.9356 1.2023L20.8949 1.15064C20.8949 1.39016 20.7676 1.62029 20.7625 1.85042C20.7523 1.83633 20.7422 1.83163 20.7473 1.81285C20.7218 1.83633 20.7116 1.86451 20.7116 1.89738C20.7065 1.93026 20.7116 1.96313 20.7218 1.96783C20.7065 1.99601 20.6964 1.96313 20.6709 1.97722C20.6353 2.0054 20.6607 2.09464 20.6149 2.09933C20.6098 2.09933 20.6098 2.08055 20.6149 2.07585C20.6149 2.09464 20.5946 2.12281 20.5844 2.15099C20.5691 2.17917 20.564 2.19796 20.5895 2.19326C20.5589 2.23083 20.5386 2.26841 20.5182 2.32946L20.5131 2.33885V2.34355L20.508 2.35764C20.5029 2.36703 20.5029 2.37643 20.4978 2.38112C20.4928 2.39521 20.4826 2.414 20.4724 2.42809C20.5029 2.48444 20.396 2.5502 20.452 2.58777C20.391 2.55959 20.3401 2.69579 20.3401 2.75684C20.3299 2.73336 20.2993 2.78972 20.2841 2.75684C20.2535 2.8085 20.2383 2.86486 20.2739 2.86956C20.2077 2.89774 20.1924 2.95409 20.1772 3.00106C20.1619 3.04802 20.1466 3.09029 20.0805 3.09029C20.0092 3.25937 19.9176 3.40496 19.8209 3.54116C19.77 3.49889 19.9379 3.39556 19.8718 3.36269C19.7954 3.49889 19.7801 3.60221 19.658 3.71023C19.6224 3.73371 19.6529 3.67735 19.6529 3.65857C19.5664 3.79007 19.434 3.8793 19.3577 4.00141C19.3526 3.99672 19.3577 3.98263 19.3679 3.96854C19.3475 3.98732 19.3119 4.00611 19.3373 4.02489L19.3526 4.00141C19.4188 4.00141 19.3373 4.13761 19.3526 4.1564C19.3271 4.06247 19.2304 4.23624 19.2101 4.10943C19.1999 4.12352 19.1948 4.1517 19.2101 4.16109C19.1846 4.17518 19.1693 4.17049 19.1744 4.13761C19.1083 4.21275 19.1592 4.21275 19.0828 4.26911C19.0726 4.25972 19.0828 4.24093 19.0777 4.22684C19.0625 4.27381 19.0421 4.32547 18.9759 4.36304C18.9759 4.35365 18.9607 4.34895 18.9759 4.33486C18.925 4.37713 18.8894 4.4194 18.8487 4.46636C18.8079 4.50863 18.7672 4.5556 18.6909 4.57908C18.6909 4.50863 18.6349 4.58847 18.5993 4.54621L18.5382 4.59787L18.5789 4.60256C18.5484 4.62135 18.5229 4.64483 18.5025 4.66831C18.4771 4.6871 18.4516 4.70589 18.4211 4.71528L18.4567 4.67301L18.3448 4.73876L18.4211 4.72467C18.3702 4.78103 18.4618 4.78103 18.3702 4.80921C18.3855 4.79512 18.304 4.84208 18.2582 4.82799C18.2328 4.85617 18.2073 4.88905 18.1513 4.89375C18.131 4.88435 18.1361 4.83739 18.1208 4.82799C18.1106 4.87966 17.9732 4.90314 17.9528 4.9595C17.963 4.94541 17.9528 4.91723 17.9426 4.91723L17.9274 4.9595C17.8917 4.9595 17.8866 4.9548 17.8816 4.93601C17.7848 4.96419 17.9375 4.98768 17.8154 5.00176C17.8205 4.99707 17.8154 4.99237 17.8307 4.98298C17.8001 4.98768 17.7747 4.99707 17.7492 5.01116C17.7238 5.02055 17.6983 5.02994 17.6678 5.04403C17.6169 5.06752 17.566 5.0863 17.51 5.09569C17.4642 5.05343 17.5965 5.05343 17.5456 5.02525C17.4744 5.05343 17.398 5.0863 17.3267 5.12387C17.2555 5.15675 17.1791 5.18493 17.1028 5.19902H17.1333C17.1333 5.27416 17.0112 5.18962 16.945 5.24129C16.9603 5.23189 16.9603 5.19432 16.9552 5.20371C16.8483 5.21311 16.7516 5.26477 16.5989 5.31643L16.6141 5.29295C16.548 5.28825 16.4513 5.31173 16.3851 5.31643C16.3698 5.33991 16.3291 5.33991 16.3596 5.36339C16.1357 5.28825 15.9779 5.4855 15.7794 5.42915C15.7997 5.42445 15.8303 5.40566 15.8099 5.40566L15.6572 5.45263C15.6776 5.48081 15.6827 5.46672 15.7183 5.4855C15.703 5.50899 15.6623 5.52777 15.6216 5.53717C15.6877 5.50429 15.6114 5.4855 15.5758 5.47611C15.5809 5.4855 15.5758 5.49959 15.5809 5.50899C15.4841 5.47141 15.5859 5.57474 15.4638 5.56534V5.54656C15.4231 5.56534 15.3925 5.59822 15.3467 5.60292C15.3162 5.57004 15.3823 5.57474 15.3773 5.54186C15.3162 5.56065 15.2755 5.64518 15.2093 5.6217C15.2296 5.60292 15.2704 5.59352 15.2907 5.57474C15.2144 5.55125 15.2144 5.56065 15.1635 5.57004H15.1686L15.0566 5.57943L15.0871 5.58413C15.0413 5.70154 14.9395 5.64518 14.8581 5.73911C14.9395 5.65458 14.8632 5.70154 14.8581 5.65927C14.8275 5.65458 14.7868 5.65458 14.7919 5.64049C14.7766 5.66397 14.7512 5.66397 14.7359 5.65927C14.7359 5.65927 14.7359 5.65927 14.7308 5.65927C14.7308 5.65927 14.7308 5.65927 14.7308 5.66397V5.68276V5.70154V5.70624C14.7308 5.71563 14.7206 5.6217 14.7257 5.65927C14.7206 5.65927 14.7105 5.65927 14.7054 5.66397C14.6901 5.66867 14.6748 5.67336 14.6596 5.69215C14.6545 5.67806 14.6036 5.69685 14.6087 5.66397C14.5425 5.68745 14.629 5.68276 14.6239 5.70154C14.5781 5.73442 14.5119 5.72972 14.4458 5.72972C14.3796 5.72972 14.3033 5.73911 14.2422 5.78608C14.1353 5.83774 14.12 5.88471 14.0386 5.93637C14.0284 5.94106 14.0182 5.94106 14.008 5.94576C13.9826 5.93167 14.0335 5.8941 14.0335 5.8941C13.9673 5.8941 13.9215 5.90819 13.8706 5.94106C13.8757 5.92697 13.8604 5.92228 13.8401 5.91288C13.7942 5.93167 13.8248 5.96924 13.7586 5.96924C13.7637 5.95046 13.7688 5.92228 13.7841 5.90349C13.7332 5.93167 13.6874 5.97394 13.6365 6.00212C13.6161 5.98333 13.6568 5.95985 13.6721 5.93637C13.611 5.96455 13.5194 6.00212 13.5092 6.04439H13.5448C13.5347 6.03969 13.5347 6.01621 13.5499 6.00681C13.5957 5.96455 13.6314 5.99742 13.6415 6.01151L13.6059 6.0303C13.6721 6.09605 13.7637 5.96924 13.8451 5.95046L13.835 6.00212C13.6008 6.0256 13.3972 6.08665 13.1834 6.12892ZM13.8197 5.95985L13.8706 5.90349C13.8859 5.90819 13.896 5.92228 13.896 5.93637C13.8706 5.94576 13.8451 5.95515 13.8197 5.95985ZM14.2727 5.83304C14.2727 5.82365 14.2829 5.80956 14.3083 5.79078C14.3185 5.80017 14.3287 5.80956 14.3389 5.81895C14.3134 5.81895 14.2931 5.82835 14.2727 5.83304ZM13.5957 3.4754C13.5805 3.50358 13.555 3.54585 13.5143 3.621C13.5499 3.55524 13.5805 3.50828 13.5957 3.4754ZM13.2852 4.09534C13.3056 4.05307 13.326 4.00611 13.3514 3.95445C13.3769 3.94036 13.3769 3.96854 13.3514 4.02959C13.3565 3.99202 13.2852 4.13291 13.2343 4.21745C13.2496 4.17988 13.2649 4.14231 13.2852 4.09534ZM18.3091 7.7727C18.3091 7.78679 18.3142 7.80087 18.2989 7.80557C18.2226 7.768 18.1513 7.73982 18.0852 7.71164C18.0903 7.71164 18.0953 7.71164 18.1055 7.71164C18.1412 7.71634 18.2022 7.72573 18.3091 7.7727ZM13.4379 6.50464L13.3361 6.51404C13.4176 6.47646 13.5041 6.43889 13.5906 6.40132C13.5754 6.42011 13.5347 6.44828 13.4379 6.50464ZM15.1889 6.06317C15.1431 6.05848 15.1075 6.04439 15.1177 6.0303C15.2296 6.0209 15.3416 6.01151 15.4536 5.99742C15.3671 6.0209 15.2805 6.03969 15.1889 6.06317ZM18.0648 5.44793C18.075 5.44324 18.0852 5.44324 18.1004 5.43854C18.0903 5.46202 18.0801 5.48081 18.075 5.49959L18.0241 5.45732C18.0393 5.45263 18.0495 5.45263 18.0648 5.44793Z" fill="#3E5C57"/>
<path d="M6.64178 9.36487C6.49926 9.37896 6.37201 9.51516 6.3771 9.64666C6.38728 9.84392 6.56034 9.9989 6.75377 9.98012C6.92683 9.96603 7.08462 9.80634 7.06426 9.66075C7.04899 9.49638 6.83521 9.34609 6.64178 9.36487Z" fill="#3E5C57"/>
<path d="M7.50294 10.0167C7.47749 10.2139 7.62001 10.383 7.82361 10.3924C8.04758 10.4018 8.26136 10.2186 8.24609 10.0214C8.22064 9.73488 7.54875 9.62686 7.50294 10.0167Z" fill="#3E5C57"/>
<path d="M7.60933 9.00697C7.58897 8.88017 7.43118 8.78624 7.27848 8.81911C6.98325 8.88017 7.05961 9.27467 7.33447 9.26528C7.49226 9.25119 7.62969 9.12439 7.60933 9.00697Z" fill="#3E5C57"/>
</svg>
