<svg width="24" height="24" viewBox="0 0 24 24" fill="none" xmlns="http://www.w3.org/2000/svg">
<path fill-rule="evenodd" clip-rule="evenodd" d="M8.89922 8.37515C9.49247 8.30799 9.67157 7.98338 9.66037 7.68116C9.63799 6.79687 7.97017 6.99836 7.94778 7.61399C7.92539 8.12889 8.64177 8.00577 8.89922 8.37515Z" fill="#3E5C57"/>
<path fill-rule="evenodd" clip-rule="evenodd" d="M8.89833 11.0504C9.37965 10.9272 9.67068 10.7705 9.65948 10.3564C9.64829 9.46089 8.01405 9.63998 7.94689 10.2332C7.86853 10.8041 8.65207 10.6474 8.89833 11.0504Z" fill="#3E5C57"/>
<path fill-rule="evenodd" clip-rule="evenodd" d="M7.94837 12.886C7.8924 13.3897 8.61998 13.3337 8.89981 13.6471C9.45948 13.5912 9.64977 13.3001 9.66097 13.0091C9.68335 12.1248 8.00434 12.2591 7.94837 12.886Z" fill="#3E5C57"/>
<path fill-rule="evenodd" clip-rule="evenodd" d="M7.94777 15.5495C7.92538 16.0644 8.65296 15.9301 8.89921 16.3107C9.49247 16.2435 9.67156 15.9189 9.66037 15.6167C9.63798 14.7324 7.95896 14.9339 7.94777 15.5495Z" fill="#3E5C57"/>
<path fill-rule="evenodd" clip-rule="evenodd" d="M8.89833 18.9859C9.37965 18.8628 9.67068 18.7061 9.65948 18.2919C9.64829 17.3964 8.01405 17.5755 7.94689 18.1688C7.86853 18.7396 8.65207 18.5941 8.89833 18.9859Z" fill="#3E5C57"/>
<path fill-rule="evenodd" clip-rule="evenodd" d="M19.376 3.42667C19.1746 2.02749 15.9061 2.77745 14.8651 2.54239C14.9099 1.46782 14.6636 1.27753 13.6002 1.21037C13.6114 1.21037 13.5331 1.21037 13.4771 1.14321C13.1077 0.75144 13.1525 0.35967 12.6488 0.00148012C12.0555 -0.00971331 11.7533 0.0462539 11.0817 0.0462539C10.2982 0.158188 10.0743 -0.0656805 10.0743 0.941729C9.93997 1.18798 9.40269 1.06486 9.15643 1.1544C8.50721 1.1656 8.95495 1.94914 8.61915 2.39688C7.52219 2.46404 5.00366 2.47523 4.83576 2.41926C4.34325 2.46404 3.89551 3.01251 3.75 3.61696V4.82585C3.85074 5.0833 3.85074 5.77729 3.75 6.03474V7.17647C3.81716 11.2509 3.89551 15.8738 3.94029 19.7579C3.95148 20.5974 3.5709 21.7727 3.94029 22.7465C4.30967 23.7092 5.92153 23.3062 6.4812 23.5077H6.67149C9.30195 23.3622 13.0294 23.3622 15.6934 23.2502C17.2269 23.1943 18.8611 23.642 19.3089 22.7465C19.3984 21.4369 19.376 19.5228 19.432 17.7879C19.4992 15.6611 19.3648 13.1873 19.3648 10.8031C19.376 8.1503 19.6559 5.40791 19.376 3.42667ZM11.6414 1.26634C11.6973 1.40066 11.9772 1.1656 12.2682 1.19918C12.4473 1.62453 12.3242 1.97153 12.5816 2.27375C12.9398 2.25136 13.4323 2.26255 13.7234 2.27375C13.8577 2.83342 13.7234 3.56099 13.7905 4.36692C12.7607 4.72511 11.0705 4.55721 9.46985 4.49005C9.46985 3.72889 9.46985 2.96774 9.46985 2.20659C10.1974 2.1842 10.8578 2.26255 10.8578 2.15062C10.8578 1.81482 10.9698 1.38947 10.8578 1.25515L11.6414 1.26634ZM16.5777 5.39672C16.6225 6.85186 16.4322 12.1352 16.3202 12.124C16.3202 12.1352 16.3314 19.3549 16.3874 20.2504C13.2085 20.3064 10.5332 20.3511 6.9849 20.3176C6.91774 15.5827 6.72745 10.8479 6.86178 5.45268C9.78326 5.34075 13.354 5.40791 16.5777 5.39672ZM18.4806 22.4107C16.8575 22.4891 15.089 22.4219 13.3316 22.3436C12.0555 22.2876 6.51478 22.2652 5.07083 22.2205C4.89173 22.0637 5.02605 17.9781 5.00366 17.2618C5.00366 17.1162 5.12679 16.9036 5.12679 16.7581C5.12679 16.7245 5.12679 16.6797 5.12679 16.6461C5.13799 16.0529 5.04844 15.3477 5.05963 14.6649C5.08202 13.2433 4.90292 11.139 4.9365 11.2397C5.21634 9.0122 4.92531 6.16906 5.00366 3.68412C6.10062 3.63935 7.19758 3.52741 8.42886 3.68412V4.37811C7.42145 4.51244 6.4812 4.33334 5.82079 4.5684C5.83198 9.66142 5.75363 15.6275 5.88795 21.4033C9.57059 21.56 13.5331 21.3474 17.3164 21.4033C17.5291 16.3999 17.3053 10.2771 17.3836 4.63556C16.5329 4.46766 15.671 4.70272 14.7755 4.5684C14.7308 4.26618 14.7531 3.93038 14.7755 3.49383C16.2307 3.52741 17.2381 3.34832 18.4582 3.49383C18.5925 9.65022 18.5925 16.2544 18.4806 22.4107Z" fill="#3E5C57"/>
<path fill-rule="evenodd" clip-rule="evenodd" d="M11.418 7.65299C11.4697 7.62779 11.418 7.65299 11.6252 7.66701C11.8324 7.68103 11.8324 7.66701 12.0759 7.65299C12.4542 7.66701 12.7483 7.54378 12.8065 7.65299C12.8129 7.59419 13.0306 7.67541 13.0759 7.66701C13.7289 7.80982 14.7784 7.50178 15.3409 7.7034C15.3603 7.93022 15.3603 7.90501 15.3409 8.13184C14.9271 8.47627 14.3194 8.14864 13.6922 8.13184C12.7353 8.10663 12.0112 8.15704 10.938 8.13184C10.7505 8.12344 10.3237 8.26625 10.3884 7.7958C10.8798 7.68659 10.9783 7.57738 11.418 7.65299Z" fill="#3E5C57"/>
<path fill-rule="evenodd" clip-rule="evenodd" d="M11.418 9.99284C11.4697 9.96763 11.418 9.99283 11.6252 10.0069C11.8324 10.0209 11.8324 10.0069 12.0759 9.99284C12.4542 10.0069 12.7483 9.88362 12.8065 9.99284C12.8129 9.93403 13.0306 10.0153 13.0759 10.0069C13.7289 10.1497 14.7784 9.84162 15.3409 10.0432C15.3603 10.2701 15.3603 10.2449 15.3409 10.4717C14.9271 10.8161 14.3194 10.4885 13.6922 10.4717C12.7353 10.4465 12.0112 10.4969 10.938 10.4717C10.7505 10.4633 10.3237 10.6061 10.3884 10.1356C10.8798 10.0264 10.9783 9.91723 11.418 9.99284Z" fill="#3E5C57"/>
<path fill-rule="evenodd" clip-rule="evenodd" d="M11.418 12.4792C11.4697 12.454 11.418 12.4792 11.6252 12.4932C11.8324 12.5072 11.8324 12.4932 12.0759 12.4792C12.4542 12.4932 12.7483 12.37 12.8065 12.4792C12.8129 12.4204 13.0306 12.5016 13.0759 12.4932C13.7289 12.636 14.7784 12.3279 15.3409 12.5296C15.3603 12.7564 15.3603 12.7312 15.3409 12.958C14.9271 13.3024 14.3194 12.9748 13.6922 12.958C12.7353 12.9328 12.0112 12.9832 10.938 12.958C10.7505 12.9496 10.3237 13.0924 10.3884 12.622C10.8798 12.5128 10.9783 12.4036 11.418 12.4792Z" fill="#3E5C57"/>
<path fill-rule="evenodd" clip-rule="evenodd" d="M11.418 15.3815C11.4697 15.3563 11.418 15.3815 11.6252 15.3955C11.8324 15.4095 11.8324 15.3955 12.0759 15.3815C12.4542 15.3955 12.7483 15.2723 12.8065 15.3815C12.8129 15.3227 13.0306 15.4039 13.0759 15.3955C13.7289 15.5383 14.7784 15.2303 15.3409 15.4319C15.3603 15.6587 15.3603 15.6335 15.3409 15.8604C14.9271 16.2048 14.3194 15.8772 13.6922 15.8604C12.7353 15.8351 12.0112 15.8856 10.938 15.8604C10.7505 15.852 10.3237 15.9948 10.3884 15.5243C10.8798 15.4151 10.9783 15.3059 11.418 15.3815Z" fill="#3E5C57"/>
<path fill-rule="evenodd" clip-rule="evenodd" d="M11.418 17.8678C11.4697 17.8426 11.418 17.8678 11.6252 17.8819C11.8324 17.8959 11.8324 17.8819 12.0759 17.8678C12.4542 17.8819 12.7483 17.7586 12.8065 17.8678C12.8129 17.809 13.0306 17.8903 13.0759 17.8819C13.7289 18.0247 14.7784 17.7166 15.3409 17.9182C15.3603 18.1451 15.3603 18.1199 15.3409 18.3467C14.9271 18.6911 14.3194 18.3635 13.6922 18.3467C12.7353 18.3215 12.0112 18.3719 10.938 18.3467C10.7505 18.3383 10.3237 18.4811 10.3884 18.0106C10.8798 17.9014 10.9783 17.7922 11.418 17.8678Z" fill="#3E5C57"/>
</svg>
