<svg width="24" height="24" viewBox="0 0 24 24" fill="none" xmlns="http://www.w3.org/2000/svg">
<path d="M22.125 5.11021C22.125 5.87718 22.125 6.65466 22.125 7.42164C22.0635 7.53721 21.9816 7.65278 21.9508 7.76835C21.8689 8.15709 21.8484 8.56684 21.7254 8.94508C20.793 11.9184 19.3791 14.6396 17.6066 17.1611C16.3361 18.9683 14.9426 20.6808 13.6004 22.4354C13.1701 22.9922 12.6783 23.0238 12.1967 22.5089C11.7766 22.0572 11.3156 21.6159 10.9672 21.1116C9.33811 18.8107 7.70901 16.5097 6.15164 14.1563C5.01434 12.4437 4.05123 10.6156 3.69262 8.52482C3.63115 8.1781 3.4877 7.86291 3.375 7.5267C3.375 6.58112 3.375 5.63554 3.375 4.68995C3.49795 4.38526 3.61065 4.07007 3.74385 3.76538C4.14344 2.80929 4.59426 1.8532 5.55738 1.40143C6.94057 0.750024 8.82582 1.28585 9.68647 2.63068C10.4857 3.89146 11.1721 5.22578 11.8484 6.56011C12.2275 7.29556 12.4836 8.10456 12.7705 8.8295C14.1947 7.33758 15.5676 5.82465 17.0123 4.39577C17.8934 3.53424 18.9385 2.9774 20.25 2.9879C21.1414 2.9879 21.4898 3.4712 21.7459 4.05956C21.8893 4.39577 21.9918 4.7635 22.125 5.11021Z" fill="#75A37D"/>
</svg>
