<svg width="24" height="25" viewBox="0 0 24 25" fill="none" xmlns="http://www.w3.org/2000/svg">
<g clip-path="url(#clip0_514_22470)">
<path d="M22.125 5.61021C22.125 6.37718 22.125 7.15466 22.125 7.92164C22.0635 8.03721 21.9816 8.15278 21.9508 8.26835C21.8689 8.65709 21.8484 9.06684 21.7254 9.44508C20.793 12.4184 19.3791 15.1396 17.6066 17.6611C16.3361 19.4683 14.9426 21.1808 13.6004 22.9354C13.1701 23.4922 12.6783 23.5238 12.1967 23.0089C11.7766 22.5572 11.3156 22.1159 10.9672 21.6116C9.33811 19.3107 7.70901 17.0097 6.15164 14.6563C5.01434 12.9437 4.05123 11.1156 3.69262 9.02482C3.63115 8.6781 3.4877 8.36291 3.375 8.0267C3.375 7.08112 3.375 6.13554 3.375 5.18995C3.49795 4.88526 3.61065 4.57007 3.74385 4.26538C4.14344 3.30929 4.59426 2.3532 5.55738 1.90143C6.94057 1.25002 8.82582 1.78585 9.68647 3.13068C10.4857 4.39146 11.1721 5.72578 11.8484 7.06011C12.2275 7.79556 12.4836 8.60456 12.7705 9.3295C14.1947 7.83758 15.5676 6.32465 17.0123 4.89577C17.8934 4.03424 18.9385 3.4774 20.25 3.4879C21.1414 3.4879 21.4898 3.9712 21.7459 4.55956C21.8893 4.89577 21.9918 5.2635 22.125 5.61021Z" fill="#3E5C57"/>
</g>
<defs>
<clipPath id="clip0_514_22470">
<rect width="24" height="24" fill="white" transform="translate(0 0.5)"/>
</clipPath>
</defs>
</svg>
