<svg width="16" height="16" viewBox="0 0 16 16" fill="none" xmlns="http://www.w3.org/2000/svg">
<mask id="mask0_835_24320" style="mask-type:alpha" maskUnits="userSpaceOnUse" x="0" y="1" width="16" height="14">
<path d="M11.4612 15C11.1622 13.8259 11.3758 13.1843 11.7997 12.6004C12.493 11.6444 14.7139 10.2842 15.3907 9.28334C15.3842 9.19351 13.827 9.42449 13.8205 9.33467C12.5094 9.31542 11.1983 9.25767 9.89058 9.28334C8.68796 9.309 7.48534 9.5079 6.28272 9.48223C4.37693 9.43732 2.47114 9.26409 0.562061 9.15502C0.164474 9.12935 -0.00638946 8.77647 0.000182236 7.91031C0.00346808 7.20455 0.236763 7.00565 0.542347 7.0249C2.13598 7.11473 3.72962 7.28154 5.32325 7.28796C6.7066 7.29437 8.09322 7.14039 9.47657 7.0249C10.4722 6.94149 11.4678 6.80676 12.4634 6.71693C12.8347 6.68485 13.2093 6.71052 13.5839 6.71052C13.6036 6.64636 14.9773 6.76826 14.9971 6.71052C14.5173 5.88927 12.6901 4.87554 12.2005 4.06712C11.9245 3.61159 11.6156 3.22021 11.3429 2.75826C11.2115 2.5337 11.0866 2.22573 11.0341 1.90493C10.9979 1.67395 11.0406 1.23125 11.1261 1.12218C11.2378 0.981024 11.4776 0.948944 11.5729 1.09651C12.8643 3.00207 14.195 4.82421 15.2498 7.27513C15.5915 8.07071 15.6211 8.92404 15.2334 9.64905C14.6616 10.7141 14.0603 11.7214 13.4459 12.6967C13.0056 13.396 12.5324 14.0248 12.0527 14.6279C11.8818 14.846 11.6518 14.8845 11.4612 15Z" fill="black"/>
</mask>
<g mask="url(#mask0_835_24320)">
<rect y="6.5" width="16" height="3" rx="1.5" fill="white"/>
</g>
</svg>
