<svg width="24" height="24" viewBox="0 0 24 24" fill="none" xmlns="http://www.w3.org/2000/svg">
<path d="M2.05449 10.4183C2.56925 10.45 3.14008 10.4817 3.7109 10.5134C4.19508 10.5399 4.67926 10.5663 5.16344 10.5928C6.13689 10.6509 7.11544 10.6985 8.0889 10.6668C8.65972 10.6509 9.23054 10.6086 9.79627 10.5663C10.1326 10.5399 10.469 10.4817 10.8054 10.45C11.208 10.4077 11.6056 10.413 12.0082 10.4447C12.4669 10.4764 12.9205 10.5082 13.3792 10.5505C13.95 10.598 14.5208 10.6139 15.0968 10.5716C15.3312 10.5557 15.5606 10.5187 15.795 10.4923C16.376 10.4341 16.9621 10.3971 17.5482 10.4077C17.6909 10.413 17.8286 10.4183 17.9713 10.4183C17.9916 10.4183 18.012 10.4024 18.0324 10.3971C18.0222 10.3813 18.012 10.3601 17.9967 10.3495C17.7011 10.1169 17.4004 9.89483 17.1099 9.65691C16.5952 9.23922 16.1008 8.7898 15.637 8.30337C15.1528 7.7958 14.6992 7.26178 14.2966 6.68547C14.2049 6.55329 14.1131 6.42111 14.0316 6.28364C13.9908 6.21491 13.9653 6.1356 13.9551 6.06158C13.894 5.72319 13.9042 5.37952 13.9602 5.04114C13.9806 4.89838 14.0163 4.75034 14.0927 4.62344C14.1794 4.4754 14.2864 4.45954 14.3985 4.58114C14.5412 4.72919 14.6686 4.88781 14.8113 5.04114C15.2548 5.52228 15.7236 5.97169 16.2129 6.39996C16.6716 6.80179 17.1456 7.18247 17.64 7.53672C18.0579 7.83809 18.4809 8.12889 18.909 8.4144C19.225 8.62589 19.5461 8.82681 19.8723 9.02773C20.1781 9.21807 20.4941 9.39783 20.805 9.5776C21.0955 9.74679 21.386 9.91598 21.6816 10.0799C21.9466 10.2332 22.2167 10.376 22.4818 10.5293C22.7519 10.6773 23.0169 10.8307 23.287 10.9787C23.3584 11.0157 23.4246 11.0633 23.496 11.095C23.6642 11.1691 23.7661 11.3118 23.8324 11.4757C24.0159 11.9251 24.026 12.3904 23.97 12.8663C23.9445 13.0672 23.8884 13.2575 23.7865 13.432C23.6948 13.5801 23.5725 13.6646 23.4043 13.6858C23.1239 13.7228 22.8436 13.7545 22.5684 13.8074C22.3289 13.855 22.0893 13.9237 21.8549 13.9925C21.6612 14.0453 21.4726 14.1035 21.2841 14.1722C21.0802 14.2462 20.8865 14.3256 20.6878 14.4101C20.5043 14.4842 20.3208 14.5635 20.1424 14.6481C19.9793 14.7221 19.8213 14.8014 19.6633 14.8807C19.4748 14.9759 19.2862 15.0711 19.1027 15.1715C18.8581 15.3037 18.6134 15.4359 18.3688 15.5733C18.1343 15.7055 17.905 15.8377 17.6757 15.9699C17.4157 16.1179 17.1558 16.2713 16.901 16.4246C16.6512 16.5726 16.4066 16.7154 16.162 16.8687C15.8664 17.0485 15.5758 17.2335 15.2853 17.4186C15.0305 17.5825 14.7808 17.7464 14.531 17.9156C14.2303 18.1165 13.9347 18.3174 13.6391 18.5289C13.262 18.7986 12.8899 19.0682 12.523 19.3484C12.1662 19.6181 11.8145 19.8983 11.4629 20.168C11.4221 20.1997 11.3711 20.2367 11.3202 20.2473C11.1775 20.2684 11.1112 20.1627 11.0551 20.0569C10.9277 19.8243 10.8768 19.5705 10.8411 19.3114C10.7901 18.9519 10.7901 18.5924 10.8615 18.2328C10.8971 18.0584 10.9379 17.8839 11.0602 17.7464C11.1367 17.6565 11.2335 17.5878 11.3253 17.5138C11.7381 17.1965 12.156 16.8793 12.5739 16.5726C12.9562 16.2924 13.3435 16.0228 13.736 15.7531C14.1131 15.494 14.4903 15.235 14.8725 14.9865C15.2497 14.7432 15.6319 14.5106 16.0142 14.278C16.3556 14.0665 16.7022 13.8656 17.0539 13.6646C17.4055 13.4637 17.7674 13.2681 18.1242 13.0672C18.1394 13.0566 18.1496 13.0407 18.1598 13.0302C18.1445 13.0196 18.1343 12.9985 18.114 12.9932C18.0783 12.9826 18.0426 12.9773 18.0069 12.972C17.4871 12.898 16.9621 12.8768 16.4423 12.9509C16.0498 13.0037 15.6574 13.0619 15.2649 13.1095C14.7961 13.1676 14.3272 13.1729 13.8532 13.1359C13.16 13.0778 12.4669 13.0196 11.7738 12.972C11.2233 12.935 10.678 12.9826 10.1326 13.046C9.73511 13.0936 9.33248 13.1201 8.92984 13.1359C8.40999 13.1518 7.88503 13.1624 7.36518 13.1465C6.73829 13.1306 6.11141 13.0936 5.48452 13.046C4.78119 12.9932 4.08295 12.9244 3.38471 12.8663C2.77312 12.8187 2.16152 12.7711 1.54993 12.7341C1.22884 12.7129 0.902657 12.7024 0.581569 12.6918C0.372607 12.6865 0.240095 12.5808 0.158549 12.3904C-0.0198328 11.978 -0.0300261 11.5445 0.0413267 11.1056C0.0668098 10.9311 0.112679 10.7672 0.204419 10.6192C0.280868 10.487 0.387897 10.4077 0.545893 10.4077C1.01478 10.413 1.50406 10.413 2.05449 10.4183Z" fill="#3E5C57"/>
</svg>
