<svg width="24" height="24" viewBox="0 0 24 24" fill="none" xmlns="http://www.w3.org/2000/svg">
<path d="M4.18683 20.0669C4.1823 20.0525 4.18239 20.0429 4.17314 20.0334C4.16398 20.0142 4.1501 19.9999 4.14094 19.9807C4.11791 19.9472 4.1229 19.9134 4.14186 19.8843C4.15601 19.8698 4.16553 19.8504 4.17969 19.8358C4.19384 19.8212 4.1894 19.7972 4.18014 19.7876C4.17089 19.7781 4.16627 19.7733 4.16173 19.7589C4.15248 19.7494 4.14323 19.7398 4.1387 19.7254C4.11566 19.6919 4.0841 19.5718 4.09381 19.5332C4.0939 19.5236 4.094 19.5139 4.09871 19.5091C4.1321 19.4365 4.15614 19.364 4.21275 19.3056C4.24105 19.2764 4.26936 19.2472 4.29766 19.218C4.32597 19.1888 4.34493 19.1598 4.34529 19.1212C4.34575 19.073 4.36943 19.0391 4.39782 19.0003C4.41197 18.9857 4.43084 18.9662 4.445 18.9516C4.46386 18.9322 4.46405 18.9129 4.45026 18.8889C4.43203 18.841 4.40446 18.7931 4.38624 18.7451C4.3817 18.7307 4.37254 18.7115 4.37735 18.697C4.3779 18.6392 4.37845 18.5814 4.39768 18.5234C4.4122 18.4703 4.42672 18.4171 4.44124 18.364C4.44604 18.3495 4.45085 18.335 4.45566 18.3205C4.46528 18.2915 4.48424 18.2624 4.49386 18.2334C4.49866 18.2189 4.50819 18.1995 4.513 18.185C4.53668 18.1511 4.55573 18.1123 4.57007 18.0785C4.58431 18.0543 4.59383 18.0349 4.60807 18.0107C4.6459 17.9621 4.67911 17.9088 4.71231 17.8555C4.73136 17.8167 4.75504 17.7828 4.78334 17.7536C4.83533 17.6904 4.88259 17.6322 4.92995 17.5642C4.96787 17.5061 5.01504 17.4574 5.05758 17.404C5.08589 17.3748 5.10957 17.3408 5.13787 17.3117C5.2558 17.19 5.36439 17.0685 5.46372 16.9375C5.47316 16.9277 5.47787 16.9229 5.48731 16.9131C5.61477 16.7722 5.72825 16.6265 5.85099 16.4904C5.92184 16.4078 5.99278 16.3155 6.05901 16.2282C6.0874 16.1893 6.12052 16.1457 6.15354 16.1116C6.19608 16.0582 6.24335 15.9999 6.28127 15.9417C6.42315 15.7572 6.56966 15.5775 6.72542 15.4074C6.80561 15.3247 6.88118 15.2372 6.96146 15.1449C7.00401 15.0915 7.05127 15.0332 7.09382 14.9798C7.12221 14.9409 7.15995 14.902 7.18834 14.8632C7.26863 14.7709 7.35354 14.6833 7.43845 14.5957C7.47147 14.5617 7.50921 14.5228 7.5376 14.4839C7.62732 14.3819 7.72629 14.2894 7.81592 14.1969C7.87252 14.1386 7.93385 14.0753 7.99045 14.0169C8.04234 13.9634 8.09423 13.9099 8.14141 13.8613C8.16028 13.8418 8.17915 13.8224 8.20264 13.8077C8.2685 13.7588 8.32982 13.6956 8.3818 13.6324C8.51388 13.4962 8.65068 13.3552 8.78276 13.219C8.84409 13.1557 8.90541 13.0925 8.96674 13.0292C9.05165 12.9417 9.13656 12.8541 9.22609 12.7713C9.25439 12.7421 9.28741 12.7081 9.31572 12.6789C9.43365 12.5573 9.54686 12.4405 9.66479 12.3189C9.67423 12.3092 9.68366 12.2994 9.69309 12.2897C9.70253 12.28 9.70271 12.2607 9.69346 12.2512C9.68884 12.2464 9.68421 12.2416 9.67959 12.2369C9.57764 12.1512 9.48041 12.0606 9.37374 11.9798C9.2532 11.8847 9.13266 11.7896 9.02155 11.6847C8.9752 11.6467 8.92423 11.6038 8.87788 11.5658C8.79443 11.4992 8.71099 11.4326 8.62292 11.3612C8.60904 11.3469 8.58582 11.3327 8.57195 11.3184C8.48859 11.2421 8.40052 11.1708 8.31717 11.0946C8.29404 11.0707 8.26619 11.0517 8.24307 11.0279C8.18747 10.9803 8.13658 10.9278 8.07636 10.8754C7.94212 10.7467 7.79845 10.6277 7.66422 10.499C7.52064 10.3704 7.37706 10.2418 7.243 10.0938C7.10423 9.95074 6.97018 9.80277 6.83141 9.65966C6.80366 9.63104 6.78525 9.60233 6.75749 9.57371C6.56802 9.35886 6.36921 9.1441 6.17503 8.93412C6.06401 8.81963 5.95299 8.70515 5.85141 8.58093C5.84679 8.57616 5.84216 8.57139 5.83754 8.56662C5.71264 8.43783 5.60181 8.30407 5.48163 8.17041C5.4585 8.14656 5.44472 8.12261 5.42631 8.0939C5.40327 8.06041 5.38486 8.0317 5.35239 8.00794C5.26894 7.94135 5.19493 7.86502 5.12092 7.7887C5.0099 7.67421 4.89889 7.55973 4.78787 7.44524C4.72774 7.38323 4.68638 7.31139 4.64974 7.23469C4.62689 7.18194 4.63651 7.15294 4.67887 7.11879C4.68359 7.11393 4.69302 7.1042 4.69774 7.09933C4.70246 7.09447 4.70255 7.08483 4.70255 7.08483C4.69801 7.07043 4.68876 7.06089 4.68423 7.04648C4.63362 6.96511 4.63362 6.96511 4.61113 6.87381C4.61113 6.87381 4.60651 6.86904 4.61123 6.86417C4.60225 6.82573 4.60724 6.79196 4.62158 6.7581C4.65505 6.67587 4.69778 6.60318 4.76373 6.54472C4.77788 6.53012 4.79204 6.51553 4.80619 6.50093C4.82977 6.47661 4.84873 6.44751 4.8491 6.40897C4.84919 6.39934 4.84928 6.38971 4.84937 6.38007C4.85437 6.3463 4.86861 6.32208 4.89682 6.30252C4.91097 6.28793 4.93447 6.27324 4.94862 6.25864C4.96277 6.24405 4.96767 6.21992 4.95851 6.20074C4.95398 6.18634 4.94935 6.18157 4.94482 6.16716C4.91716 6.1289 4.90364 6.07605 4.89004 6.03284C4.88551 6.01843 4.8856 6.0088 4.88569 5.99917C4.88615 5.95099 4.89132 5.89795 4.90112 5.84968C4.91573 5.78691 4.93969 5.72405 4.95892 5.66605C4.96373 5.65155 4.97316 5.64183 4.97797 5.62733C4.9875 5.60796 4.99702 5.5886 5.00183 5.5741C5.01145 5.5451 5.02569 5.52087 5.03994 5.49664C5.05418 5.47241 5.06371 5.45305 5.07795 5.42882C5.09228 5.39496 5.11125 5.36586 5.13021 5.33677C5.1586 5.29795 5.19171 5.25426 5.21548 5.21067C5.23925 5.16708 5.26765 5.12825 5.30538 5.08934C5.35256 5.04069 5.3952 4.97764 5.43774 4.92422C5.49453 4.84658 5.5466 4.77379 5.61727 4.71046C5.64557 4.68127 5.66916 4.65695 5.69746 4.62776C5.71161 4.61317 5.72567 4.60821 5.74898 4.61279C5.79561 4.62195 5.84695 4.62625 5.88405 4.65478C5.9772 4.68274 6.04205 4.73989 6.11153 4.80181C6.13937 4.82079 6.1625 4.84465 6.18563 4.8685C6.24114 4.92574 6.29674 4.97335 6.34753 5.03545C6.38916 5.07839 6.43097 5.10205 6.49166 5.10625C6.53365 5.11064 6.57084 5.12954 6.5986 5.15816C6.62172 5.18201 6.64494 5.19622 6.6776 5.20071C6.68694 5.20062 6.70091 5.20529 6.71016 5.21483C6.74726 5.24336 6.79388 5.25252 6.83588 5.25691C6.87787 5.26131 6.91506 5.2802 6.94744 5.31359C6.95669 5.32313 6.96595 5.33267 6.9752 5.34221C7.03996 5.409 7.10471 5.47578 7.16485 5.53779C7.22961 5.60458 7.29437 5.67136 7.36394 5.72364C7.42888 5.77115 7.48439 5.8284 7.53989 5.88564C7.57227 5.91903 7.614 5.95233 7.6511 5.98086C7.69291 6.00452 7.72529 6.03791 7.76701 6.07121C7.90133 6.19027 8.03558 6.31898 8.16509 6.45254C8.24845 6.52877 8.32708 6.60986 8.41034 6.69573C8.59084 6.87213 8.77595 7.0533 8.95645 7.22971C9.0583 7.32502 9.15553 7.41556 9.25267 7.51573C9.4007 7.66838 9.55815 7.8113 9.71089 7.95908C9.7664 8.01632 9.82662 8.0687 9.88685 8.12108C10.0166 8.22574 10.1463 8.34004 10.2761 8.4447C10.3827 8.53514 10.4893 8.62559 10.6006 8.71117C10.7211 8.80629 10.8417 8.90141 10.9622 8.99653C11.1198 9.12018 11.2775 9.24383 11.4398 9.36261C11.5697 9.45764 11.6996 9.55267 11.8249 9.64292C11.8666 9.67622 11.9037 9.70475 11.9454 9.73805C11.9593 9.75236 11.9732 9.75703 11.9871 9.77134C12.0659 9.83317 12.0566 9.83326 12.132 9.76506C12.2545 9.64822 12.3771 9.53137 12.4997 9.41452C12.5515 9.36101 12.6081 9.31227 12.6552 9.26363C12.8817 9.03013 13.1127 8.80139 13.3439 8.56303C13.4193 8.48519 13.4948 8.40736 13.5703 8.32952C13.6646 8.23223 13.7636 8.13971 13.8627 8.03755C13.9476 7.94999 14.0325 7.86243 14.122 7.77963C14.2258 7.67261 14.3388 7.57513 14.4519 7.47765C14.5131 7.42404 14.579 7.36557 14.6403 7.31197C14.7487 7.20972 14.8616 7.12187 14.9745 7.03402C15.1533 6.89734 15.3276 6.74626 15.4833 6.58572C15.5352 6.53221 15.5917 6.48347 15.6482 6.43473C15.6811 6.41031 15.7047 6.38599 15.733 6.3568C15.8367 6.25941 15.9404 6.16203 16.0533 6.07418C16.0863 6.04976 16.1239 6.02048 16.1568 5.99606C16.2181 5.94246 16.2792 5.89849 16.3404 5.84488C16.4205 5.77182 16.5145 5.71306 16.5945 5.64963C16.7027 5.56665 16.8156 5.48844 16.9192 5.40069C17.0227 5.32257 17.1216 5.23968 17.2296 5.17597C17.3189 5.12208 17.3989 5.05865 17.4836 4.99036C17.5918 4.90738 17.7047 4.82917 17.8267 4.77013C17.9065 4.72597 17.9863 4.68181 18.0616 4.62325C18.0993 4.59397 18.1368 4.57432 18.1791 4.54981C18.2965 4.486 18.4139 4.42219 18.5266 4.35362C18.5642 4.33397 18.597 4.31919 18.6346 4.29954C18.6674 4.28476 18.7002 4.26997 18.7377 4.25996C18.7893 4.23535 18.8503 4.21065 18.911 4.20522C18.9251 4.20026 18.9392 4.1953 18.9532 4.19034C18.9813 4.18043 19.0094 4.18014 19.0373 4.1895C19.0792 4.20352 19.1211 4.21755 19.1629 4.24121C19.1954 4.26497 19.2325 4.2935 19.2603 4.32212C19.2741 4.33643 19.288 4.35074 19.3019 4.36505C19.3434 4.41762 19.3945 4.45082 19.4599 4.45016C19.4692 4.45006 19.4785 4.4596 19.4877 4.46915C19.497 4.47869 19.5016 4.48346 19.5109 4.493L19.5155 4.49777C19.553 4.48775 19.5759 4.53088 19.6087 4.52573C19.6227 4.52077 19.6367 4.52544 19.6507 4.53012C19.6693 4.52993 19.6832 4.54424 19.6877 4.55864C19.6924 4.56342 19.6923 4.57305 19.6923 4.57305C19.7058 4.6259 19.7334 4.67379 19.7797 4.71186C19.7982 4.73094 19.812 4.75489 19.8164 4.77893C19.8208 4.8126 19.8205 4.84151 19.8109 4.87051C19.806 4.89464 19.8057 4.92354 19.7915 4.94777C19.7818 4.98641 19.7814 5.02494 19.8044 5.05843C19.8136 5.07761 19.8228 5.09678 19.8366 5.11109C19.855 5.14944 19.8639 5.18789 19.8636 5.22643C19.8632 5.26497 19.8581 5.30837 19.8391 5.3471C19.8247 5.38096 19.815 5.4196 19.8007 5.45346C19.724 5.65655 19.6427 5.85486 19.5428 6.04374C19.481 6.16479 19.4005 6.27639 19.3201 6.37836C19.2729 6.43664 19.2303 6.49005 19.1784 6.54356C19.1217 6.61158 19.0557 6.67968 18.9944 6.74292C18.9519 6.7867 18.9188 6.83039 18.8763 6.87417C18.763 7.00056 18.6543 7.14135 18.5317 7.25819C18.4845 7.30684 18.4327 7.36035 18.3901 7.41377C18.2956 7.53033 18.1871 7.64222 18.0833 7.74924C17.9748 7.86112 17.8663 7.97301 17.7577 8.09453C17.7294 8.12372 17.7011 8.15291 17.6728 8.18209C17.5361 8.31353 17.4134 8.44965 17.2859 8.59063C17.1868 8.70242 17.0829 8.81908 16.9745 8.92133C16.9509 8.94565 16.9273 8.96998 16.9037 8.9943C16.8423 9.06717 16.7763 9.13528 16.7101 9.21302C16.6582 9.26653 16.6064 9.32004 16.5498 9.37842C16.4696 9.46112 16.394 9.54858 16.3183 9.64569C16.2947 9.67965 16.2711 9.70397 16.2428 9.73316C16.172 9.80613 16.1106 9.879 16.0398 9.95197C15.9408 10.0541 15.8464 10.1514 15.7427 10.2488C15.7333 10.2585 15.7286 10.2634 15.7192 10.2731C15.6012 10.3947 15.4647 10.5069 15.3375 10.619C15.2951 10.6628 15.2573 10.7017 15.2149 10.7455C15.1441 10.8184 15.0781 10.8865 15.0073 10.9595C14.9318 11.0374 14.8564 11.1152 14.7809 11.193C14.7384 11.2368 14.696 11.2806 14.6581 11.3291C14.6157 11.3729 14.5731 11.4263 14.5307 11.4701C14.4458 11.5577 14.3656 11.6404 14.2807 11.7279C14.2665 11.7425 14.2477 11.762 14.2381 11.7814C14.2334 11.7862 14.2332 11.8055 14.2425 11.815C14.2471 11.8198 14.2517 11.8246 14.2564 11.8293C14.3489 11.9247 14.4461 12.0153 14.534 12.1059C14.5664 12.1393 14.6081 12.1726 14.6358 12.2109C14.7468 12.3253 14.8579 12.4302 14.9736 12.5398C15.1078 12.6685 15.2467 12.802 15.3857 12.9258C15.4921 13.0259 15.5986 13.126 15.7098 13.2212C15.8117 13.3165 15.9135 13.4118 16.0201 13.5023C16.1127 13.588 16.2053 13.6738 16.3026 13.7547C16.4092 13.8452 16.5157 13.9452 16.6176 14.0405C16.6869 14.1121 16.761 14.1788 16.8304 14.2503C16.9461 14.3696 17.0524 14.489 17.1633 14.6131C17.2927 14.7563 17.4174 14.9043 17.5562 15.0474C17.584 15.0761 17.6117 15.1047 17.6347 15.1382C17.6948 15.2098 17.7502 15.2767 17.815 15.3435C17.9166 15.4581 18.0183 15.5726 18.1105 15.7066C18.1704 15.7879 18.2304 15.8595 18.2951 15.9359C18.332 15.9837 18.3737 16.0267 18.4059 16.0793C18.521 16.2564 18.6548 16.4236 18.7793 16.6006C18.8437 16.6963 18.9129 16.7871 18.9774 16.8828C19.0742 17.0215 19.1757 17.1554 19.2725 17.2941C19.3692 17.4328 19.4707 17.5666 19.5816 17.7004C19.6047 17.7242 19.6185 17.7482 19.6369 17.7769C19.7014 17.8726 19.7659 17.9683 19.8303 18.064C19.8994 18.1644 19.9592 18.265 20.0236 18.3703C20.0513 18.4086 20.0695 18.4565 20.0924 18.4997C20.1108 18.538 20.1197 18.5765 20.124 18.6198C20.1284 18.6534 20.128 18.692 20.123 18.7258C20.1132 18.774 20.1034 18.8223 20.0982 18.8753C20.0933 18.8995 20.0978 18.9235 20.1069 18.9427C20.1115 18.9571 20.1207 18.9666 20.1252 18.981C20.1298 18.9954 20.139 19.005 20.1483 19.0145C20.2172 19.1342 20.2207 19.2546 20.1775 19.3851C20.1583 19.4335 20.1439 19.477 20.1247 19.5254C20.1151 19.5544 20.1008 19.5882 20.0912 19.6172C20.0768 19.6511 20.0671 19.6897 20.0528 19.7236C20.029 19.7672 20.0053 19.8108 19.9769 19.8496C19.9673 19.8689 19.9532 19.8835 19.939 19.8981C19.8919 19.9468 19.8447 19.9954 19.7929 20.0393C19.6939 20.1318 19.6088 20.2387 19.5331 20.3454C19.5092 20.3986 19.4576 20.4232 19.406 20.4478C19.3919 20.4528 19.3731 20.4626 19.3592 20.4579C19.3077 20.4633 19.2563 20.4686 19.205 20.4643C19.1536 20.46 19.1022 20.4654 19.0509 20.4611C19.0041 20.4615 18.9527 20.4669 18.9061 20.4577C18.8035 20.4395 18.7057 20.4067 18.6175 20.3546C18.5664 20.3214 18.5152 20.2979 18.4594 20.2792C18.4081 20.2652 18.357 20.2417 18.3057 20.2277C18.2359 20.2044 18.1661 20.1713 18.0965 20.1287C17.9619 20.0385 17.8179 19.9485 17.6881 19.8438C17.6742 19.8295 17.651 19.8153 17.6372 19.801C17.5677 19.7391 17.4982 19.6771 17.424 19.6201C17.248 19.4677 17.0813 19.3056 16.9195 19.129C16.8825 19.0909 16.8501 19.0575 16.8131 19.0193C16.6789 18.8906 16.5541 18.7522 16.434 18.6089C16.3832 18.5468 16.3278 18.4799 16.277 18.4178C16.2446 18.3844 16.217 18.3461 16.1846 18.3128C16.1013 18.2269 16.0228 18.1362 15.9442 18.0454C15.9165 18.0168 15.8887 17.9882 15.861 17.9596C15.7546 17.8499 15.6482 17.7401 15.5464 17.6352C15.5279 17.6161 15.5094 17.597 15.4909 17.578C15.4215 17.5064 15.3522 17.4348 15.2781 17.3682C15.2087 17.2966 15.1346 17.2299 15.0605 17.1632C15.0188 17.1203 14.9771 17.087 14.9355 17.0441C14.7689 16.882 14.5975 16.7247 14.4262 16.5675C14.3706 16.5199 14.315 16.4723 14.2594 16.4247C14.1899 16.3628 14.1157 16.3057 14.0463 16.2438C13.9073 16.12 13.7683 16.0058 13.6292 15.8916C13.4949 15.7725 13.3512 15.6535 13.2216 15.5296C13.1475 15.4629 13.0688 15.3914 12.9947 15.3248C12.8326 15.1771 12.6658 15.0342 12.5131 14.8768C12.4669 14.8291 12.4113 14.7815 12.365 14.7338C12.3003 14.667 12.2308 14.6051 12.1707 14.5431C12.0781 14.4573 11.9808 14.3668 11.8929 14.2762C11.8883 14.2714 11.8791 14.2618 11.8744 14.2571C11.8652 14.2475 11.8511 14.2525 11.8418 14.2526C11.8324 14.2623 11.823 14.2624 11.8136 14.2721C11.7287 14.3597 11.6438 14.4473 11.5635 14.5396C11.4738 14.632 11.3936 14.7244 11.3039 14.8168C11.2096 14.9141 11.1199 15.0161 11.0301 15.1278C10.9781 15.191 10.9308 15.2493 10.8742 15.3076C10.7704 15.4147 10.6619 15.5266 10.5582 15.6336C10.4827 15.7114 10.4025 15.7941 10.327 15.8719C10.2374 15.9644 10.1478 16.0568 10.0581 16.1492C10.0015 16.2076 9.94492 16.266 9.88831 16.3244C9.78934 16.4169 9.695 16.5142 9.60999 16.6114C9.54386 16.6891 9.47319 16.7524 9.40243 16.8254C9.33168 16.8984 9.2562 16.9762 9.18082 17.0444C9.09119 17.1368 9.00166 17.2196 8.91203 17.3121C8.77532 17.4435 8.64315 17.5893 8.52032 17.7351C8.48249 17.7836 8.44475 17.8226 8.40229 17.8663C8.34569 17.9247 8.29371 17.9879 8.24173 18.051C8.21333 18.0898 8.17559 18.1288 8.14257 18.1628C8.0954 18.2114 8.05757 18.26 8.02437 18.3133C7.98654 18.3619 7.95334 18.4152 7.91551 18.4638C7.854 18.5463 7.78315 18.6289 7.71702 18.7066C7.67919 18.7552 7.63664 18.8086 7.59881 18.8571C7.53259 18.9445 7.46636 19.0319 7.39089 19.1097C7.34843 19.1535 7.31532 19.1972 7.27749 19.2457C7.20664 19.3283 7.13579 19.4109 7.06494 19.4935C7.02249 19.5373 6.98937 19.581 6.95155 19.6296C6.90891 19.6926 6.85693 19.7558 6.80032 19.8141C6.78145 19.8336 6.75787 19.8579 6.74362 19.8821C6.6774 19.9695 6.5972 20.0522 6.5171 20.1253C6.46521 20.1788 6.41333 20.2323 6.37069 20.2954C6.34701 20.3293 6.31871 20.3585 6.2904 20.3877C6.24323 20.4363 6.19606 20.485 6.15814 20.5432C6.10607 20.6159 6.03096 20.6552 5.95585 20.6945C5.9231 20.6997 5.89498 20.7096 5.86233 20.7051C5.79693 20.7058 5.73153 20.7064 5.66622 20.6975C5.64753 20.6977 5.62422 20.6931 5.60553 20.6933C5.53551 20.6892 5.4653 20.7043 5.39065 20.6954C5.32997 20.6912 5.26466 20.6823 5.20887 20.6539C5.19491 20.6492 5.18094 20.6446 5.16697 20.6399C5.13432 20.6354 5.10175 20.6213 5.07862 20.5974C5.0369 20.5641 4.99046 20.5357 4.93931 20.5121C4.8974 20.4981 4.85558 20.4744 4.80896 20.4653C4.79962 20.4654 4.79499 20.4606 4.79499 20.4606C4.75318 20.4369 4.70665 20.4181 4.66474 20.4041C4.6368 20.3948 4.61359 20.3805 4.58556 20.3808C4.56225 20.3762 4.53431 20.3669 4.5158 20.3478C4.48796 20.3288 4.46946 20.3098 4.43689 20.2956C4.33023 20.2148 4.25622 20.1385 4.18683 20.0669Z" fill="#DB8670"/>
</svg>
