<svg width="24" height="24" viewBox="0 0 24 24" fill="none" xmlns="http://www.w3.org/2000/svg">
<path fill-rule="evenodd" clip-rule="evenodd" d="M10.241 10.5552C10.3309 10.5215 10.2522 10.3081 10.3646 10.2969C10.5106 10.4766 10.7465 10.3306 10.9374 10.5552C11.0497 10.1958 12.1055 10.4092 12.2066 10.5552C12.2178 10.4766 12.1954 10.3755 12.274 10.3643C13.4084 10.5552 15.6323 10.353 16.6095 10.6226C16.6432 10.9259 16.6432 10.8922 16.6095 11.1954C15.8907 11.6559 14.8349 11.2179 13.7454 11.1954C12.083 11.1617 10.8251 11.2291 8.96058 11.1954C8.63486 11.1842 7.89355 11.3751 8.00587 10.7462C8.8595 10.6001 9.47725 10.4541 10.241 10.5552Z" fill="#3E5C57"/>
<path fill-rule="evenodd" clip-rule="evenodd" d="M12.2167 12.408C13.5758 12.408 14.6653 12.5316 16.3613 12.4754C16.6309 12.6888 16.7319 12.9247 16.5522 13.3066C13.879 13.3403 11.1722 13.1606 8.07216 13.183C8.07216 13.037 7.95984 12.9921 8.00477 12.8012C8.39788 12.4417 9.5323 12.7675 9.59969 12.4193C9.94788 12.5765 10.1613 12.6439 10.4309 12.3519C10.4982 12.3407 10.8127 12.4867 10.9363 12.4754C10.8801 12.4754 10.8801 12.3743 10.9363 12.3519C11.2508 12.2283 11.9921 12.4417 12.2729 12.5428C12.2392 12.5204 12.2055 12.4867 12.2167 12.408Z" fill="#3E5C57"/>
<path fill-rule="evenodd" clip-rule="evenodd" d="M10.241 17.6314C10.3309 17.5977 10.2522 17.3843 10.3646 17.373C10.5106 17.5528 10.7465 17.4067 10.9374 17.6314C11.0497 17.272 12.1055 17.4854 12.2066 17.6314C12.2178 17.5528 12.1954 17.4517 12.274 17.4404C13.4084 17.6314 15.6323 17.4292 16.6095 17.6988C16.6432 18.002 16.6432 17.9683 16.6095 18.2716C15.8907 18.7321 14.8349 18.2941 13.7454 18.2716C12.083 18.2379 10.8251 18.3053 8.96058 18.2716C8.63486 18.2604 7.89355 18.4513 8.00587 17.8223C8.8595 17.6651 9.47725 17.5191 10.241 17.6314Z" fill="#3E5C57"/>
<path fill-rule="evenodd" clip-rule="evenodd" d="M20.8337 20.5743V18.912C20.6877 14.3406 20.8112 9.49964 20.7663 4.82717C20.3957 4.11957 19.7217 3.58043 18.9804 2.85036C18.4525 2.3337 17.8685 1.21051 17.1272 0.997101C16.2511 0.75 14.8808 0.952174 13.7576 1.06449C13.6902 0.828623 13.2072 1.01957 13.1848 0.75H12.4884C12.4996 0.794928 12.5446 0.828623 12.612 0.817391C12.4098 0.862319 12.0167 1.07572 11.8482 0.940942C11.8707 0.963406 12.3986 0.794928 12.0391 0.75H11.8482C11.5786 1.01957 10.9721 0.660145 10.7025 1.00833C10.579 0.862319 10.3768 0.806159 10.1859 0.75H10.0623C9.91631 0.862319 9.69167 0.884783 9.4221 0.873551V0.75H8.53478C7.16449 0.974638 5.77174 0.738768 4.70471 1.00833C4.71594 0.918478 4.86196 0.952174 4.96304 0.940942C4.50254 0.603986 3.86232 1.04203 3.75 1.44638V3.1087C3.85109 3.34457 3.85109 4.01848 3.75 4.25435V5.52355C3.80616 10.1623 3.92971 15.7558 3.87355 19.9228C3.86232 21.0236 3.60399 23.3486 3.94094 23.7417C4.10942 23.9326 4.58116 23.9101 4.7721 24H5.03044C10.1859 23.7641 14.9707 23.8877 20.6428 23.7417C20.9236 22.9217 20.6989 21.5851 20.7663 20.5518L20.8337 20.5743ZM17.4529 2.53587C17.7786 2.8279 18.2841 3.20978 18.2167 3.68152C18.4301 3.82754 18.5536 4.06341 18.8569 4.1308C18.5312 4.33297 18.0594 4.38913 17.5203 4.38913C17.3855 3.8837 17.4866 3.14239 17.4529 2.53587ZM19.879 22.933C15.1841 23.0565 9.83768 22.9667 4.83949 23.0004C4.87319 20.7315 4.91812 19.0467 4.96304 17.0699C5.03044 17.0587 5.00797 16.9464 5.08659 16.9464V16.8116C4.95181 16.879 4.97428 16.8902 4.96304 16.5533C4.95181 16.3062 4.90688 15.7895 5.08659 15.6659C4.91812 15.6772 4.90688 14.9134 4.89565 14.7786C5.03044 14.8011 4.95181 15.0145 5.08659 15.037C5.16522 14.6551 5.08659 14.9471 4.96304 14.7225C5.31123 14.0261 5.03044 13.8576 4.96304 13.1275C5.0529 13.15 5.0192 13.2848 5.03044 13.3859C5.14275 13.1163 5.13152 12.3638 4.90688 12.0493C5.0192 11.9033 5.09783 11.7348 5.16522 11.5438C4.97428 9.89275 5.23261 8.03949 4.90688 6.37717C4.99674 6.39964 4.96304 6.53442 4.97428 6.63551C5.25507 5.42246 4.96304 3.51304 5.04167 2.10906C9.2087 2.12029 12.567 2.03043 16.4533 2.10906C16.633 2.96268 16.3185 4.26558 16.5768 5.23152C17.5315 5.63587 18.767 5.24275 19.8228 5.42246C19.8228 11.2181 20.0587 16.2837 19.879 22.933Z" fill="#3E5C57"/>
<path fill-rule="evenodd" clip-rule="evenodd" d="M16.362 8.52297C16.6765 8.64652 16.7102 8.94978 16.5529 9.28674C15.441 9.61247 13.3069 9.03964 11.3862 9.21935C10.7236 9.28674 9.9261 9.21935 9.09494 9.21935C8.73552 9.21935 7.9156 9.42152 8.01668 8.77008C8.6232 8.46681 9.40944 8.65776 9.73516 8.45558C9.57791 8.53421 10.4428 8.63529 10.308 8.33203C10.8808 8.73638 11.4761 8.0737 12.2848 8.59037C12.2848 8.51174 12.2062 8.50051 12.2174 8.39942C13.3743 8.68022 15.6768 8.25341 16.362 8.52297Z" fill="#3E5C57"/>
<path fill-rule="evenodd" clip-rule="evenodd" d="M16.5529 16.3512C15.441 16.6769 13.3069 16.1041 11.3862 16.2838C10.7236 16.3512 9.9261 16.2838 9.09494 16.2838C8.73552 16.2838 7.9156 16.486 8.01668 15.8345C8.6232 15.5313 9.40944 15.7222 9.73516 15.52C9.57791 15.5987 10.4428 15.6997 10.308 15.3965C10.8808 15.8008 11.4761 15.1382 12.2848 15.6548C12.2848 15.5762 12.2062 15.565 12.2174 15.4639C13.3743 15.7447 15.6656 15.3291 16.362 15.5874C16.6765 15.711 16.7102 16.0142 16.5529 16.3512Z" fill="#3E5C57"/>
</svg>
