<svg width="24" height="25" viewBox="0 0 24 25" fill="none" xmlns="http://www.w3.org/2000/svg">
<path fill-rule="evenodd" clip-rule="evenodd" d="M18.9039 4.22649C16.7681 4.18409 14.6428 4.19469 12.9616 4.04629C12.2638 3.98269 11.4179 4.22649 10.8575 4.10989C10.9421 4.10989 10.9844 4.07809 11.0372 4.04629C11.1218 3.88729 10.4769 4.3325 10.4346 3.92969H9.77901C9.78958 3.97209 9.83188 4.00389 9.89532 3.99329C9.70499 4.03569 9.33492 4.23709 9.17632 4.10989C9.19747 4.13109 9.69442 3.97209 9.35607 3.92969H9.17632C8.91199 4.17349 8.37274 3.86609 8.09783 4.17349C7.9921 4.04629 7.80177 3.99329 7.62203 3.92969H7.55858C7.4317 4.02509 7.07221 4.12049 6.90303 3.99329V3.92969H6.24748C5.02096 4.25829 3.58297 3.63288 2.65251 4.4703C2.4939 4.4173 2.78996 4.3325 2.76881 4.22649C2.09211 4.5127 1.69032 5.04271 1.5 5.79533V6.75995C1.59516 6.82355 1.59516 7.30056 1.5 7.36416V11.3922C1.69032 14.5299 1.5 18.3884 1.56344 21.4413C1.60573 23.7415 2.91684 24.0489 4.9258 24.0277H5.0421C7.48457 24.0171 9.78958 23.7627 12.1263 23.7839C13.5749 23.7945 15.4569 23.9641 16.9901 23.8475C18.3329 23.7415 18.9568 22.8935 18.9673 21.5579C19.0202 16.4698 18.7982 10.0566 18.9039 4.22649ZM4.43942 5.07451C4.62974 5.02151 4.5663 5.23352 4.68261 5.25472C4.77777 4.92611 5.41217 5.39252 5.58135 5.07451C5.88798 5.32892 6.17346 5.33952 6.54353 5.13811C6.53296 5.20171 6.42723 5.18051 6.42723 5.25472C6.60697 5.26532 6.93475 5.25472 7.14622 5.07451C7.13565 5.44552 7.44228 5.24412 7.62203 5.19111C7.6326 5.24412 7.60088 5.24412 7.55858 5.25472C8.09783 5.21231 9.00715 5.39252 9.84245 5.07451C9.83188 5.13811 9.72614 5.11691 9.72614 5.19111C12.6127 5.28652 15.2666 5.08511 18.0051 5.19111C18.0051 5.88013 17.9523 6.35714 18.0051 7.23696C14.4419 7.36416 10.35 7.35356 5.7611 7.35356C4.03763 7.35356 2.4939 7.60797 2.46218 6.21934C2.43046 5.20171 3.3715 5.06391 4.43942 5.07451ZM15.7213 12.2933C15.3618 12.4099 15.034 11.9859 14.6428 11.9329C14.2093 12.0919 13.9449 12.4311 13.448 12.5371C13.4903 11.0742 13.4268 9.82341 13.448 8.14858C14.0295 8.08498 14.2621 8.32878 14.7062 8.21218C14.7802 8.22278 14.7591 8.31818 14.7697 8.39238C14.9071 8.19098 15.0234 8.34998 15.2455 8.27578C15.0975 8.33938 15.4147 8.55139 15.4252 8.33938C15.6473 8.45598 15.4041 9.039 15.7213 9.0602C15.5733 9.145 15.5733 9.1556 15.5415 9.2404C15.7001 10.4594 15.4992 11.4982 15.7213 12.2933ZM17.2227 23.0525C16.546 23.2009 15.6156 23.0525 14.8225 23.0525C13.7229 23.0525 12.6444 22.7663 11.6399 22.9889C11.4813 22.9677 11.3545 22.9147 11.2804 22.8087C10.8152 22.8723 9.81073 23.0313 9.23976 22.9889C8.986 22.9677 8.74281 22.7133 8.52077 22.6921C8.08726 22.6497 7.83349 22.9783 7.48457 22.8617C7.45285 22.8617 7.42113 22.8405 7.38941 22.8193C6.99819 22.8193 6.54353 22.6921 6.2369 22.9889C5.62364 22.4059 4.44999 23.0419 3.41379 22.8087C2.5362 22.6073 2.73709 21.4095 2.57849 20.6462C2.66308 20.6674 2.63136 20.7946 2.64193 20.8901C2.74767 18.5262 2.76881 14.3073 2.57849 11.3816C2.70537 10.2686 2.6948 9.092 2.57849 7.95777C2.74767 7.94717 2.72652 8.12738 2.82168 8.20158C6.2369 8.44538 9.04944 8.20158 12.5387 8.31818C12.4858 10.4912 12.6338 12.2191 12.6021 13.8515C13.2471 13.7137 13.8604 13.1837 14.5794 12.9505C15.3195 13.1519 15.7847 13.6289 16.5037 13.8515C16.694 13.5547 16.5672 13.0777 16.5672 12.5901C16.5566 11.2226 16.5249 9.42061 16.6306 8.13798C17.1593 8.12738 17.6774 8.12738 18.132 8.20158C18.1109 10.8198 18.132 15.5051 18.132 19.1516C18.1215 20.8477 18.481 22.7769 17.2227 23.0525Z" fill="#3E5C57"/>
<path d="M23.2414 4.03703C23.2313 4.0471 23.2113 4.05716 23.2113 4.0773C23.1812 4.14777 23.1311 4.17797 23.061 4.18804C23.0209 4.18804 23.0008 4.20818 22.9708 4.24845C22.9307 4.30885 22.8505 4.33906 22.7804 4.34912C22.6 4.37933 22.4196 4.40953 22.2392 4.4498C21.9386 4.51021 21.648 4.56054 21.3473 4.62095C21.2672 4.64109 21.177 4.65115 21.0968 4.66122C21.0467 4.67129 21.0267 4.64109 21.0166 4.60081C21.0066 4.54041 20.9866 4.48 20.9766 4.4196C20.9766 4.38939 20.9766 4.34912 20.9966 4.31892C21.0567 4.24845 21.0768 4.15784 21.167 4.11757C21.2371 4.08737 21.2972 4.0471 21.3674 4.01689C21.7783 3.82561 22.2092 3.68466 22.6601 3.61419C22.7704 3.59405 22.8806 3.58398 23.0008 3.58398C23.0309 3.58398 23.061 3.60412 23.081 3.62425C23.1311 3.67459 23.1812 3.735 23.2013 3.81554C23.2113 3.85581 23.2313 3.89608 23.2514 3.93635C23.2414 3.95649 23.2414 3.99676 23.2414 4.03703Z" fill="#3E5C57"/>
<path d="M19.2321 0.0201353C19.3924 0.140947 19.4425 0.302029 19.3924 0.493314C19.2822 0.896019 19.1619 1.29872 19.0517 1.70143C19.0317 1.76183 19.0016 1.82224 18.9214 1.82224C18.9014 1.82224 18.8813 1.83231 18.8713 1.84238C18.7912 1.93298 18.6909 1.91285 18.5807 1.92292C18.5607 1.79204 18.5106 1.68129 18.5406 1.55041C18.6208 1.20812 18.6909 0.855748 18.7611 0.513449C18.7711 0.483246 18.7711 0.453043 18.7711 0.42284C18.7711 0.291961 18.8212 0.191285 18.9014 0.100676C18.9415 0.0503381 19.0116 0.0302029 19.0818 0.0201353C19.1219 0.0201353 19.172 0.0100676 19.212 0C19.212 0.0201353 19.2221 0.0201353 19.2321 0.0201353Z" fill="#3E5C57"/>
<path d="M20.1634 3.1416C20.1433 3.06106 20.1133 3.00065 20.1133 2.93018C20.1133 2.88991 20.1333 2.83957 20.1534 2.7993C20.2536 2.66842 20.3538 2.52748 20.454 2.40666C20.7246 2.0845 21.0453 1.81267 21.3659 1.54085C21.5163 1.40997 21.6666 1.27909 21.8269 1.15828C21.867 1.11801 21.9171 1.09787 21.9672 1.0576C22.0875 0.966993 22.2278 0.966993 22.3681 0.977061C22.4482 0.987128 22.4883 1.06767 22.5184 1.13814C22.5384 1.16835 22.5384 1.20862 22.5585 1.23882C22.6186 1.35963 22.6186 1.44017 22.4683 1.55092C21.8971 1.99389 21.3058 2.40666 20.7546 2.87984C20.6444 2.98052 20.5041 3.04092 20.3738 3.1114C20.3137 3.12147 20.2335 3.12147 20.1634 3.1416Z" fill="#3E5C57"/>
<path fill-rule="evenodd" clip-rule="evenodd" d="M7.37891 22.8203C7.37891 22.8203 7.3895 22.8309 7.4001 22.8309C7.3895 22.8203 7.3895 22.8203 7.37891 22.8203Z" fill="#3E5C57"/>
<path fill-rule="evenodd" clip-rule="evenodd" d="M7.55899 22.8203C7.50613 22.8309 7.45326 22.8309 7.40039 22.8309C7.43211 22.8521 7.46383 22.8627 7.48498 22.8733C7.52727 22.8733 7.54842 22.8627 7.55899 22.8203Z" fill="#3E5C57"/>
<path fill-rule="evenodd" clip-rule="evenodd" d="M7.55879 17.3393C7.45305 17.5301 7.19929 17.4559 7.13585 17.2227C6.90323 17.3393 6.08908 17.3711 5.87761 17.3393C4.48192 17.1697 3.32941 17.7421 4.25987 18.4841C5.78245 18.3039 6.88209 18.5053 8.70072 18.1873C9.10251 17.3711 7.68567 17.6361 7.55879 17.3393Z" fill="#3E5C57"/>
<path fill-rule="evenodd" clip-rule="evenodd" d="M7.19925 19.3847C7.08294 19.0455 6.51197 19.1515 6.23706 18.9607C6.03617 18.7699 3.31879 18.6851 3.9532 19.7982C4.08008 20.0102 4.46072 20.0526 4.91538 20.042C5.22201 20.0314 6.59656 19.9254 7.13581 19.7452C7.09351 19.565 7.24154 19.5756 7.19925 19.3847Z" fill="#3E5C57"/>
</svg>
