<svg width="24" height="24" viewBox="0 0 24 24" fill="none" xmlns="http://www.w3.org/2000/svg">
<g clip-path="url(#clip0_359_20777)">
<path d="M23.2497 4.6141C23.2383 4.62553 23.2155 4.63696 23.2155 4.65983C23.1814 4.73986 23.1245 4.77416 23.0448 4.78559C22.9993 4.78559 22.9766 4.80846 22.9424 4.85419C22.8969 4.92279 22.8059 4.95709 22.7262 4.96852C22.5213 5.00282 22.3165 5.03712 22.1117 5.08285C21.7702 5.15145 21.4402 5.20861 21.0988 5.27721C21.0078 5.30008 20.9053 5.31151 20.8143 5.32294C20.7574 5.33438 20.7346 5.30008 20.7233 5.25435C20.7119 5.18575 20.6891 5.11715 20.6777 5.04855C20.6777 5.01425 20.6777 4.96852 20.7005 4.93422C20.7688 4.85419 20.7915 4.75129 20.894 4.70556C20.9736 4.67126 21.0419 4.62553 21.1216 4.59123C21.5882 4.374 22.0775 4.21394 22.5896 4.13391C22.7148 4.11104 22.84 4.09961 22.9766 4.09961C23.0107 4.09961 23.0448 4.12248 23.0676 4.14534C23.1245 4.20251 23.1814 4.2711 23.2042 4.36257C23.2155 4.4083 23.2383 4.45403 23.2611 4.49977C23.2497 4.52263 23.2497 4.56836 23.2497 4.6141Z" fill="#3E5C57"/>
<path d="M18.6982 0.0521629C18.8803 0.189359 18.9372 0.372288 18.8803 0.589515C18.7551 1.04684 18.6186 1.50416 18.4934 1.96148C18.4706 2.03008 18.4365 2.09868 18.3454 2.09868C18.3227 2.09868 18.2999 2.11011 18.2885 2.12154C18.1975 2.22444 18.0837 2.20157 17.9585 2.21301C17.9358 2.06438 17.8788 1.93861 17.913 1.78998C18.004 1.40126 18.0837 1.0011 18.1634 0.612382C18.1747 0.578082 18.1747 0.543783 18.1747 0.509484C18.1747 0.360855 18.2316 0.246524 18.3227 0.143627C18.3682 0.086462 18.4479 0.063596 18.5275 0.0521629C18.5731 0.0521629 18.63 0.0407299 18.6755 0.0292969C18.6755 0.0521629 18.6869 0.0521629 18.6982 0.0521629Z" fill="#3E5C57"/>
<path d="M19.7561 3.59787C19.7334 3.50641 19.6992 3.43781 19.6992 3.35778C19.6992 3.31204 19.722 3.25488 19.7447 3.20915C19.8585 3.06052 19.9723 2.90045 20.0861 2.76326C20.3934 2.3974 20.7576 2.08871 21.1218 1.78002C21.2925 1.63139 21.4632 1.48276 21.6453 1.34556C21.6908 1.29983 21.7477 1.27696 21.8046 1.23123C21.9411 1.12833 22.1005 1.12833 22.2598 1.13977C22.3508 1.1512 22.3964 1.24266 22.4305 1.3227C22.4533 1.357 22.4533 1.40273 22.476 1.43703C22.5443 1.57422 22.5443 1.66569 22.3736 1.79145C21.7249 2.2945 21.0535 2.76326 20.4276 3.30061C20.3024 3.41494 20.1431 3.48354 19.9951 3.56357C19.9268 3.575 19.8358 3.575 19.7561 3.59787Z" fill="#3E5C57"/>
<path d="M16.2253 12.5249C16.2253 12.69 16.1704 12.8552 16.0608 12.9998C15.9992 13.0755 15.9375 13.1512 15.8622 13.2062C15.7183 13.3026 15.5744 13.3783 15.4031 13.399C15.1017 13.4403 14.8414 13.3439 14.629 13.1305C14.5194 13.0204 14.4509 12.8828 14.4166 12.7313C14.3892 12.6075 14.3687 12.4767 14.3892 12.3528C14.4166 12.2083 14.4577 12.0706 14.5605 11.9467C14.6564 11.8366 14.7523 11.7265 14.8893 11.6714C14.9578 11.6439 15.0332 11.6232 15.1086 11.5957H15.1154C15.2935 11.6095 15.4785 11.5819 15.6498 11.6783C15.684 11.6989 15.7183 11.7127 15.7457 11.7334C15.8279 11.8022 15.917 11.871 15.9923 11.9467C16.143 12.0981 16.2184 12.2909 16.2253 12.5249Z" fill="#3E5C57"/>
<path d="M11.1508 13.5097C11.0549 13.5097 10.959 13.496 10.87 13.4547C10.8494 13.4478 10.8288 13.4409 10.8014 13.4409C10.6644 13.4134 10.548 13.3446 10.452 13.2413C10.3082 13.083 10.2191 12.8972 10.2123 12.6838C10.2054 12.6012 10.226 12.5118 10.2534 12.4361C10.315 12.2915 10.3835 12.1539 10.5137 12.0575C10.548 12.03 10.5685 11.9887 10.5959 11.9543C10.6713 11.851 10.7535 11.7616 10.87 11.7134C11.007 11.6514 11.1508 11.6308 11.3016 11.679C11.3564 11.6927 11.418 11.7065 11.4728 11.7271C11.74 11.8373 11.877 12.0369 11.8976 12.3259C11.9044 12.3948 11.9044 12.4636 11.925 12.5255C11.9661 12.6701 11.9455 12.8077 11.9044 12.9523C11.8291 13.2 11.6647 13.3652 11.4317 13.4685C11.3906 13.4891 11.3427 13.496 11.3016 13.5029C11.2536 13.5097 11.1988 13.5097 11.1508 13.5097Z" fill="#3E5C57"/>
<path d="M6.44727 12.6759C6.44727 12.614 6.47467 12.5107 6.49522 12.4075C6.52263 12.3043 6.55003 12.201 6.59113 12.1047C6.65964 11.9464 6.76241 11.8225 6.90628 11.7399C7.28308 11.5265 7.65988 11.7261 7.81745 12.0083C7.94076 12.2286 8.00242 12.4626 8.00927 12.7172C8.00927 13.0269 7.84485 13.3573 7.4749 13.4743C7.20772 13.5569 6.94053 13.5363 6.71445 13.3435C6.53633 13.1784 6.44727 12.9719 6.44727 12.6759Z" fill="#3E5C57"/>
<path d="M15.2161 23.3416C19.3927 21.318 21.2591 18.0138 21.7029 16.196C23.1027 11.3598 21.3843 6.82088 17.8678 4.03122C13.9643 1.10437 6.15741 1.59599 2.06049 6.43216C-1.36499 10.4795 0.387582 15.8301 0.945218 16.6762C0.967978 16.7105 0.956598 16.7448 0.979359 16.779C1.40043 17.5451 2.12877 18.5054 1.71908 19.4315C1.53699 20.4491 -1.1829 24.0848 1.90117 23.8104C1.95807 23.8104 2.84573 23.4902 3.32371 23.1358C3.86996 22.7242 4.10895 22.6442 4.31379 22.4956C4.33655 22.4727 4.37069 22.4613 4.39346 22.4613C4.64382 22.3812 6.19155 21.6838 6.40777 21.8096C6.40777 21.8096 10.004 23.1701 10.664 23.4445C12.9287 24.382 14.3057 23.4674 15.0682 23.3873C15.1251 23.3759 15.1706 23.3645 15.2161 23.3416ZM22.1354 13.7493V13.9551C22.0671 13.9094 22.1126 13.8065 22.1354 13.7493ZM15.4893 2.88792L15.3072 2.78502C15.3755 2.77359 15.4324 2.85362 15.4893 2.88792ZM1.96945 10.0221L1.94669 10.2051C1.8784 10.1479 1.93531 10.0679 1.96945 10.0221ZM12.4735 22.77C12.4621 22.77 12.4507 22.77 12.428 22.77C10.8006 22.6442 7.432 21.4094 7.06783 21.318C7.02231 21.0436 4.99661 21.2151 4.64382 21.4437C4.60968 21.4666 4.57554 21.478 4.5414 21.478C4.05205 21.5466 3.31232 22.2326 2.95953 22.4155C3.07334 22.3584 2.70917 22.4384 2.31086 22.5527C2.04911 22.6213 1.84426 22.3355 1.99221 22.1068C2.58398 21.1922 3.48303 19.5573 3.23266 18.2425C3.22128 18.2082 3.22128 18.1853 3.23266 18.151C3.31232 17.648 1.8215 15.2242 1.77598 14.0008C1.11592 8.4901 4.25689 3.65393 9.50322 3.07085C9.52598 3.07085 9.53736 3.05941 9.56012 3.05941C15.1365 1.16153 21.9305 7.03811 20.6332 14.6639C20.6332 14.6754 20.6332 14.6982 20.6332 14.7097C20.6332 15.1556 20.2804 17.5794 18.8806 19.0314C17.2646 20.712 15.1934 22.6671 12.4735 22.77ZM13.4863 23.5474C13.5205 23.5474 13.5546 23.5131 13.6001 23.5245C13.5205 23.5588 13.2473 23.5817 13.4863 23.5474Z" fill="#3E5C57"/>
</g>
<defs>
<clipPath id="clip0_359_20777">
<rect width="23.25" height="23.8036" fill="white" transform="translate(0 0.0527344)"/>
</clipPath>
</defs>
</svg>
