<svg width="24" height="24" viewBox="0 0 24 24" fill="none" xmlns="http://www.w3.org/2000/svg">
<path fill-rule="evenodd" clip-rule="evenodd" d="M10.7078 15.2757C10.7836 15.2832 10.7671 15.4633 10.8554 15.4489C10.9304 15.2809 11.141 15.3447 11.2412 15.133C11.4009 15.3862 12.1659 15.0058 12.2134 14.8729C12.2381 14.931 12.2416 15.0133 12.3042 15.0058C13.134 14.6266 14.8789 14.3263 15.5721 13.9189C15.5358 13.679 15.5427 13.7049 15.4547 13.4787C14.8097 13.2722 14.0908 13.8251 13.2609 14.0656C11.9945 14.4321 11.0171 14.6381 9.59587 15.0461C9.34867 15.1214 8.74173 15.1266 8.95665 15.5869C9.64042 15.5242 10.1435 15.5099 10.7078 15.2757Z" fill="#3E5C57"/>
<path fill-rule="evenodd" clip-rule="evenodd" d="M11.8408 13.4503C12.8818 13.1718 13.691 12.8536 15.0016 12.5492C15.1643 12.3299 15.1934 12.1279 14.9775 11.8712C12.923 12.3932 10.8865 13.086 8.50735 13.704C8.53727 13.8162 8.46044 13.8738 8.53398 14.0113C8.90874 14.207 9.71093 13.7242 9.8339 13.978C10.0684 13.7858 10.218 13.6902 10.4843 13.8594C10.5383 13.8543 10.7492 13.6776 10.8462 13.6609C10.8032 13.6724 10.8239 13.7501 10.8715 13.7559C11.1377 13.7864 11.6618 13.4704 11.8562 13.3352C11.835 13.3594 11.816 13.3922 11.8408 13.4503Z" fill="#3E5C57"/>
<path fill-rule="evenodd" clip-rule="evenodd" d="M9.07112 9.1663C9.14685 9.17378 9.13035 9.35388 9.21869 9.3395C9.29371 9.17148 9.5043 9.23535 9.60452 9.0236C9.7642 9.27679 10.5292 8.89645 10.5767 8.76353C10.6014 8.82165 10.6049 8.90393 10.6674 8.89646C11.4972 8.51727 13.2421 8.21694 13.9354 7.80956C13.899 7.56961 13.906 7.59551 13.818 7.36937C13.173 7.16279 12.4541 7.71574 11.6242 7.95625C10.3578 8.32276 9.38039 8.52874 7.95915 8.93669C7.71195 9.01206 7.10501 9.01723 7.31993 9.47756C8.006 9.42348 8.50911 9.40911 9.07112 9.1663Z" fill="#3E5C57"/>
<path fill-rule="evenodd" clip-rule="evenodd" d="M3.82628 9.30714L4.1671 10.5813C5.21624 14.0554 6.1141 17.7913 7.1065 21.3636C7.53558 21.8302 8.16247 22.1057 8.88015 22.5137C9.39056 22.8018 10.0684 23.5433 10.6801 23.5553C11.402 23.5656 12.4105 23.1305 13.2481 22.8148C13.3481 22.9818 13.679 22.7367 13.7515 22.9387L14.285 22.7963C14.2672 22.7642 14.2259 22.7476 14.1765 22.7699C14.3222 22.6942 14.5797 22.4502 14.7364 22.5191C14.7146 22.5065 14.3447 22.7435 14.6293 22.7045L14.7756 22.6654C14.9268 22.4037 15.4653 22.5552 15.6004 22.2332C15.725 22.3199 15.8914 22.3216 16.0493 22.3256L16.1439 22.3003C16.2328 22.1844 16.4003 22.1212 16.6091 22.0747L16.6345 22.1694L17.3143 21.988C18.3182 21.5357 19.4337 21.4317 20.196 21.0069C20.2058 21.0781 20.087 21.0821 20.0119 21.1114C20.4338 21.2755 20.8345 20.8089 20.8377 20.476L20.4969 19.2018C20.3711 19.0417 20.2329 18.5251 20.262 18.3237L20.0018 17.3508C19.0077 13.8067 17.7662 9.5445 16.9549 6.33897C16.7378 5.49296 16.459 3.65802 16.1202 3.42559C15.952 3.31368 15.5952 3.42734 15.4304 3.39751L15.2325 3.45032C11.3307 4.68515 7.63926 5.5687 3.32319 6.84028C3.27614 7.52617 3.7223 8.50475 3.88253 9.31058L3.82628 9.30714ZM10.115 22.4425C9.8056 22.2852 9.34003 22.0958 9.29495 21.7205C9.1015 21.6522 8.95847 21.4966 8.71229 21.507C8.92042 21.2854 9.27035 21.1459 9.68344 21.0357C9.89034 21.3956 9.96487 21.9844 10.115 22.4425ZM4.07419 7.304C7.64615 6.24942 11.761 5.22522 15.5838 4.17751C16.0231 5.92348 16.3341 7.22406 16.705 8.74848C16.6557 8.77086 16.6959 8.85236 16.6357 8.86844L16.6633 8.97175C16.7527 8.89254 16.7332 8.88852 16.8109 9.1445C16.8702 9.33161 17.0105 9.71845 16.8982 9.8499C17.025 9.80684 17.1902 10.39 17.2264 10.491C17.1185 10.5013 17.135 10.3217 17.0271 10.332C17.0452 10.6408 17.0456 10.4009 17.1863 10.5478C17.0623 11.1528 17.312 11.2245 17.5133 11.7703C17.4398 11.7715 17.438 11.6613 17.4087 11.5861C17.3779 11.8157 17.5408 12.3902 17.7774 12.5853C17.7213 12.7202 17.6956 12.8654 17.6831 13.0256C18.1679 14.2521 18.3499 15.7255 18.9403 16.933C18.8669 16.9342 18.8651 16.824 18.8357 16.7488C18.8693 17.736 19.4845 19.1399 19.7121 20.2321C16.517 21.0755 13.9623 21.831 10.9685 22.5652C10.6558 21.9477 10.6296 20.8847 10.2336 20.1971C9.41922 20.0824 8.55316 20.6363 7.70735 20.7144C6.51909 16.272 5.29978 12.4374 4.07419 7.304Z" fill="#3E5C57"/>
<path fill-rule="evenodd" clip-rule="evenodd" d="M11.7531 18.9695C11.7509 19.0995 12.1513 19.0109 12.3243 18.7612C12.3536 18.8366 12.3617 18.9361 12.4581 18.8826C12.7041 18.7336 13.225 18.7514 13.3481 18.4873C14.5287 18.4212 15.6045 17.893 16.5744 17.6243C16.7141 17.3188 16.5842 17.0392 16.3133 16.8528C13.9543 17.5115 12.5135 17.9154 9.76227 18.7623C9.73887 18.9165 9.79411 19.1236 9.89346 19.2542C10.6083 19.2387 11.2707 19.0615 11.7531 18.9695Z" fill="#3E5C57"/>
<path fill-rule="evenodd" clip-rule="evenodd" d="M15.8128 15.5772C16.0284 15.4178 15.992 15.1778 15.8026 14.9511C14.8841 14.9286 13.3668 15.8062 11.8588 16.0616C11.3374 16.1456 10.7404 16.3608 10.1038 16.5311C9.82847 16.6048 9.159 16.6174 9.36992 17.0974C9.89664 17.2061 10.4597 16.8983 10.7507 16.9869C10.6141 16.9587 11.2559 16.7038 11.2148 16.9645C11.5707 16.5364 12.1624 16.9236 12.676 16.3609C12.6921 16.4213 12.6342 16.446 12.6635 16.5214C13.4921 16.0686 15.3432 15.9247 15.8128 15.5772Z" fill="#3E5C57"/>
<path fill-rule="evenodd" clip-rule="evenodd" d="M13.5737 11.3179C14.3262 11.0981 15.0381 11.0371 14.5734 10.3661C13.9069 10.4242 13.104 10.7315 12.2333 10.9921C10.8144 11.4087 9.36383 11.7413 8.07405 12.2621L8.1385 12.5038C9.127 12.5815 9.52943 12.2241 10.1319 12.3404C10.1611 12.2771 10.289 12.3076 10.1444 12.1798C10.4536 12.1988 10.9338 12.2368 11.4469 11.7759C11.463 11.8363 11.4051 11.8611 11.4344 11.9364C12.04 11.7189 12.8103 11.5313 13.5737 11.3179Z" fill="#3E5C57"/>
<path fill-rule="evenodd" clip-rule="evenodd" d="M14.1678 8.85344C13.2493 8.83098 11.7321 9.7085 10.2241 9.96397C9.70268 10.048 9.10566 10.2632 8.46901 10.4335C8.19371 10.5071 7.52424 10.5198 7.73516 10.9997C8.26188 11.1085 8.82498 10.8006 9.1159 10.8893C8.97935 10.8611 9.62109 10.6061 9.57999 10.8668C9.9359 10.4387 10.5277 10.826 11.0412 10.2632C11.0573 10.3236 10.9994 10.3484 11.0287 10.4238C11.8573 9.9709 13.6976 9.82075 14.178 9.47952C14.3936 9.32013 14.3573 9.08017 14.1678 8.85344Z" fill="#3E5C57"/>
<path d="M20.0723 3.84365C20.0631 3.85284 20.0447 3.86201 20.0447 3.88043C20.0171 3.94483 19.9711 3.97237 19.9068 3.98146C19.87 3.9814 19.8516 3.99978 19.824 4.03656C19.7872 4.09173 19.7136 4.11923 19.6492 4.12832C19.4837 4.15566 19.3181 4.18299 19.1526 4.21953C18.8767 4.2743 18.61 4.31987 18.3341 4.37464C18.2605 4.39292 18.1778 4.40199 18.1042 4.41107C18.0582 4.42019 18.0398 4.39254 18.0306 4.3557C18.0215 4.30045 18.0031 4.24517 17.9939 4.18992C17.9939 4.1623 17.9939 4.12547 18.0123 4.09789C18.0675 4.03354 18.0859 3.95071 18.1687 3.91403C18.2331 3.88652 18.2883 3.84979 18.3527 3.82228C18.7298 3.648 19.1252 3.51979 19.5391 3.45606C19.6402 3.43782 19.7414 3.42879 19.8517 3.42898C19.8793 3.42902 19.9069 3.44748 19.9253 3.46593C19.9713 3.51204 20.0172 3.56736 20.0356 3.64104C20.0448 3.67788 20.0632 3.71474 20.0815 3.7516C20.0723 3.77 20.0723 3.80682 20.0723 3.84365Z" fill="#3E5C57"/>
<path d="M16.3925 0.155742C16.5396 0.266704 16.5856 0.414525 16.5398 0.589977C16.4389 0.959346 16.3288 1.32871 16.2279 1.69808C16.2096 1.75348 16.182 1.80887 16.1085 1.80881C16.0902 1.80879 16.0718 1.81801 16.0626 1.82724C15.9892 1.91031 15.8973 1.89176 15.7962 1.90091C15.7778 1.78082 15.7318 1.67918 15.7593 1.55913C15.8326 1.24515 15.8968 0.921936 15.961 0.607954C15.9701 0.580253 15.9701 0.552544 15.9701 0.524835C15.97 0.404762 16.0159 0.312438 16.0894 0.229373C16.1261 0.183223 16.1904 0.164805 16.2547 0.155624C16.2915 0.155655 16.3374 0.146458 16.3742 0.137253C16.3742 0.155726 16.3834 0.155734 16.3925 0.155742Z" fill="#3E5C57"/>
<path d="M17.2491 3.01689C17.2307 2.94306 17.2032 2.88767 17.2032 2.82309C17.2032 2.78619 17.2215 2.74009 17.2399 2.70321C17.3319 2.5834 17.4239 2.45437 17.5159 2.34379C17.7642 2.04891 18.0585 1.80022 18.3528 1.55153C18.4907 1.43179 18.6287 1.31205 18.7759 1.20154C18.8126 1.16469 18.8586 1.1463 18.9046 1.10946C19.015 1.02658 19.1437 1.02676 19.2725 1.03616C19.3461 1.04548 19.3829 1.11934 19.4105 1.18395C19.4289 1.21166 19.4289 1.24856 19.4473 1.27626C19.5024 1.38704 19.5024 1.46085 19.3645 1.56214C18.8403 1.96735 18.2976 2.34486 17.7918 2.77777C17.6906 2.86988 17.5618 2.92506 17.4423 2.98948C17.3871 2.99863 17.3135 2.99853 17.2491 3.01689Z" fill="#3E5C57"/>
</svg>
