<svg width="24" height="24" viewBox="0 0 24 24" fill="none" xmlns="http://www.w3.org/2000/svg">
<path d="M16.8753 23.8659C16.8053 23.9085 16.7352 23.9553 16.6609 23.9894C16.6302 24.0064 16.5865 23.9979 16.5471 23.9979C16.3108 24.0021 16.079 23.9723 15.8471 23.9596C15.5452 23.9468 15.2477 23.9553 14.9458 23.9425C14.1451 23.9085 13.3444 23.9 12.5437 23.9042C11.9268 23.9085 11.3055 23.917 10.6886 23.9213C10.238 23.9255 9.78734 23.934 9.33668 23.9255C8.78978 23.917 8.23849 23.9 7.69159 23.883C7.5297 23.8787 7.36344 23.8702 7.20156 23.8617C7.12718 23.8574 7.11843 23.8447 7.11843 23.7723C7.11843 23.6787 7.1228 23.5808 7.13155 23.4872C7.14468 23.3255 7.15781 23.1595 7.17531 22.9978C7.20156 22.7595 7.22781 22.5169 7.25406 22.2786C7.25406 22.2615 7.25844 22.2445 7.26281 22.2275C7.28469 22.0147 7.30656 21.8019 7.33282 21.5891C7.35469 21.4019 7.38969 21.2189 7.41595 21.0359C7.43345 20.9125 7.45095 20.7891 7.46845 20.6614C7.49033 20.4869 7.5122 20.3124 7.53845 20.1337C7.5647 19.9592 7.59096 19.7847 7.61721 19.6102C7.62158 19.5847 7.62596 19.5634 7.63033 19.5379C7.65221 19.3592 7.67409 19.1804 7.69596 19.0017C7.72221 18.7974 7.75722 18.5931 7.77909 18.3846C7.80534 18.1505 7.82284 17.9165 7.8491 17.6824C7.85785 17.5845 7.8666 17.4867 7.8841 17.3888C7.89722 17.2994 7.94535 17.2568 8.03723 17.2568C8.09849 17.2568 8.16411 17.2739 8.22537 17.2739C8.28662 17.2739 8.34788 17.2654 8.40913 17.2611C8.47476 17.2526 8.49663 17.2058 8.51851 17.1505C8.59289 16.9377 8.58852 16.7249 8.57101 16.5036C8.56664 16.4738 8.56664 16.4398 8.55789 16.4142C8.51414 16.2823 8.52726 16.1461 8.53164 16.0099C8.53164 15.9844 8.53164 15.9631 8.54476 15.9418C8.60164 15.8099 8.57976 15.8312 8.70665 15.8354C8.98229 15.8354 9.25793 15.8525 9.53357 15.7971C9.6167 15.7801 9.70858 15.7886 9.79609 15.7844C9.90984 15.7801 9.92734 15.7631 9.92734 15.6567C9.92734 15.2482 9.92734 14.8396 9.92734 14.4311C9.92734 14.3374 9.87484 14.2991 9.80921 14.2608C9.64295 14.1672 9.47669 14.0778 9.31918 13.9757C8.96916 13.7502 8.65852 13.4735 8.37413 13.1756C7.89722 12.6777 7.51658 12.1117 7.17531 11.5244C6.91717 11.0818 6.69403 10.6222 6.46652 10.1626C6.39214 10.0094 6.31776 9.85619 6.24775 9.69873C6.21713 9.63489 6.17337 9.60936 6.10774 9.59234C5.97211 9.56255 5.84085 9.52425 5.70085 9.49871C5.50833 9.46467 5.32895 9.39232 5.14519 9.32848C4.9833 9.27316 4.82579 9.19656 4.67266 9.11995C4.25701 8.91143 3.87636 8.65183 3.53072 8.34116C3.07569 7.93262 2.70817 7.45598 2.39315 6.93678C2.17876 6.5793 1.99063 6.20906 1.83312 5.82179C1.72811 5.5707 1.64061 5.31111 1.5531 5.05577C1.4831 4.85575 1.42185 4.65573 1.36059 4.45571C1.31246 4.29399 1.27746 4.12802 1.23808 3.96205C1.18996 3.77054 1.1462 3.57904 1.10245 3.38753C1.0762 3.26412 1.0587 3.1407 1.03682 3.01729C1.01057 2.87685 0.984319 2.73641 0.953693 2.59597C0.949317 2.57895 0.944942 2.56193 0.940567 2.5449C0.91869 2.38319 0.896814 2.22147 0.874938 2.05975C0.848686 1.87676 0.81806 1.68951 0.796183 1.50651C0.778682 1.37459 0.765556 1.24266 0.765556 1.11073C0.748055 0.923483 0.748055 0.723465 0.752431 0.523448C0.752431 0.472379 0.769932 0.417055 0.796183 0.370242C0.853062 0.26385 0.883678 0.391524 0.940556 0.285131C0.971183 0.229807 1.01056 0.208529 1.07181 0.208529C1.33433 0.204273 1.59684 0.200017 1.85936 0.191506C2.1 0.182995 2.34064 0.165972 2.58128 0.161716C2.98818 0.15746 3.3907 0.161716 3.7976 0.15746C4.50202 0.148949 5.20206 0.140438 5.90647 0.12767C6.46651 0.119159 7.02654 0.106392 7.5822 0.106392C8.92102 0.102136 10.2599 0.106392 11.5987 0.102136C12.0843 0.102136 12.57 0.0893692 13.0556 0.0851135C13.2569 0.0808578 13.4582 0.063835 13.6594 0.021278C13.7163 0.00851095 13.7776 0.00425526 13.8344 0.00425526C14.7707 0.00425526 15.707 0.00425526 16.6477 0.00425526C17.4484 0.00425526 18.2491 -4.39465e-07 19.0497 -4.39465e-07C20.0342 -4.39465e-07 21.023 0.00425526 22.0074 0.00425526C22.2918 0.00425526 22.5718 0.00851095 22.8562 0.00425526C22.935 0.00425526 22.9919 0.0255337 23.04 0.0808578C23.145 0.208529 23.2325 0.340455 23.2194 0.52345C23.2062 0.757514 23.25 0.766022 23.25 1.00434C23.25 1.25117 23.2456 1.50226 23.2412 1.74909C23.2369 1.94059 23.1712 2.12359 23.1187 2.30658C23.0837 2.44277 23.0312 2.57044 22.9919 2.70662C22.9569 2.82578 22.9219 2.94494 22.8912 3.06835C22.8475 3.23433 22.8081 3.40455 22.7643 3.57053C22.7381 3.68117 22.7118 3.78757 22.69 3.89822C22.6768 3.94928 22.6681 4.00461 22.6681 4.05993C22.6725 4.25569 22.6112 4.44294 22.55 4.62594C22.4931 4.80042 22.4056 4.96214 22.3268 5.12811C22.1956 5.40473 22.0687 5.68561 21.9331 5.95797C21.8149 6.19629 21.6837 6.43036 21.5524 6.66016C21.3555 7.00062 21.1368 7.32831 20.8917 7.63897C20.5023 8.13263 20.0473 8.55395 19.5004 8.87738C19.2729 9.00931 19.041 9.12847 18.7916 9.21358C18.6297 9.2689 18.4722 9.32423 18.306 9.36253C18.1353 9.40509 17.9691 9.44764 17.7941 9.46467C17.7372 9.46892 17.6847 9.4902 17.6322 9.49871C17.5884 9.50297 17.5665 9.5285 17.549 9.5668C17.4703 9.73278 17.3915 9.89875 17.3084 10.0647C17.1903 10.3073 17.0721 10.5499 16.9453 10.7882C16.779 11.0989 16.604 11.4095 16.4246 11.7159C16.219 12.0692 15.9783 12.3968 15.7202 12.716C15.3658 13.1544 14.9633 13.5459 14.5039 13.8736C14.3245 14.0012 14.132 14.1119 13.9438 14.231C13.8913 14.2651 13.8607 14.3034 13.8607 14.3715C13.8651 14.8779 13.8607 15.3843 13.8607 15.895C13.8607 16.0014 13.8695 16.0099 13.9832 16.0099C14.3639 16.0099 14.7445 16.0099 15.1252 16.0099C15.1514 16.0099 15.1733 16.0099 15.1995 16.0099C15.2477 16.0099 15.2695 16.0312 15.2695 16.078C15.2739 16.1674 15.2783 16.2568 15.2783 16.3419C15.2739 16.6568 15.2695 16.976 15.2652 17.2909C15.2652 17.342 15.2739 17.3803 15.3264 17.393C15.3789 17.4058 15.4314 17.4271 15.4883 17.4313C15.6108 17.4356 15.7333 17.4313 15.8558 17.4313C15.9564 17.4313 15.9608 17.4356 15.9827 17.5292C15.9871 17.542 15.9871 17.5547 15.9915 17.5675C16.0133 17.759 16.0308 17.9548 16.0571 18.1463C16.0833 18.3335 16.1183 18.5208 16.1446 18.7123C16.1621 18.84 16.1796 18.9676 16.1927 19.0953C16.2146 19.2826 16.2365 19.4656 16.2627 19.6528C16.289 19.8443 16.3152 20.0358 16.3458 20.2273C16.3502 20.2529 16.3546 20.2741 16.359 20.2997C16.3808 20.4869 16.3983 20.6699 16.4246 20.8572C16.4509 21.0402 16.4815 21.2189 16.5121 21.4019C16.5296 21.5296 16.5471 21.6572 16.5646 21.7849C16.5865 21.9551 16.604 22.1296 16.6302 22.2998C16.6565 22.4786 16.6871 22.6573 16.7134 22.8318C16.7352 22.968 16.7571 23.0999 16.7746 23.2361C16.8096 23.4446 16.8403 23.6532 16.8753 23.8617C16.8796 23.8532 16.8753 23.8617 16.8753 23.8659ZM5.40333 1.00434C5.41645 1.07243 5.42958 1.11925 5.43396 1.16606C5.45583 1.38735 5.46896 1.61291 5.49083 1.83846C5.50396 1.9789 5.52584 2.12359 5.54334 2.26403C5.55209 2.34063 5.56521 2.41723 5.57396 2.49809C5.59584 2.67257 5.62209 2.84706 5.64834 3.02154C5.67022 3.18326 5.6921 3.34497 5.71835 3.50669C5.73585 3.61734 5.75335 3.72799 5.77523 3.83864C5.80148 3.98759 5.8321 4.13228 5.85836 4.28123C5.88023 4.41315 5.89773 4.54934 5.92398 4.68126C5.96336 4.88979 6.01149 5.09407 6.05962 5.29834C6.11212 5.5324 6.16462 5.76221 6.21713 5.99202C6.274 6.23459 6.33088 6.47291 6.38776 6.71549C6.40526 6.79635 6.42714 6.87295 6.45339 6.94955C6.49714 7.11127 6.54527 7.26873 6.5934 7.43044C6.63715 7.57514 6.6809 7.72409 6.72466 7.86878C6.76841 8.00071 6.80779 8.13263 6.85154 8.26456C6.89529 8.38798 6.93467 8.51565 6.9828 8.63906C7.03967 8.79652 7.10093 8.94973 7.15781 9.10719C7.21906 9.26465 7.27594 9.41785 7.34157 9.57106C7.43345 9.78384 7.52533 9.99663 7.62596 10.2052C7.75284 10.4648 7.8841 10.7244 8.01973 10.9797C8.21224 11.3329 8.43101 11.6734 8.67165 12.0011C8.8204 12.2053 8.98229 12.4011 9.16605 12.5798C9.44606 12.8565 9.76546 13.0778 10.1155 13.2565C10.2817 13.3416 10.4567 13.4097 10.6274 13.4778C10.7368 13.5203 10.8505 13.5501 10.9599 13.5842C11.0824 13.6225 11.2049 13.6693 11.3362 13.6693C11.3581 13.6693 11.3756 13.6778 11.3974 13.6821C11.4543 13.6948 11.5112 13.7119 11.5724 13.7161C11.6687 13.7289 11.765 13.7331 11.8656 13.7374C12.2462 13.7672 12.6138 13.7246 12.9813 13.6267C13.1957 13.5714 13.3925 13.4906 13.5851 13.3884C13.9176 13.2097 14.202 12.9714 14.4645 12.7032C14.9589 12.1926 15.3308 11.6053 15.6633 10.9925C15.8208 10.6988 15.9696 10.3967 16.114 10.0988C16.2627 9.79235 16.3983 9.48169 16.5427 9.17102C16.6609 8.91568 16.779 8.6646 16.8928 8.40925C16.9365 8.31137 16.9759 8.21349 17.0065 8.11561C17.0371 8.01347 17.0503 7.91134 17.0765 7.8092C17.094 7.72834 17.1159 7.65174 17.1334 7.57088C17.1596 7.46023 17.1903 7.34533 17.2165 7.23468C17.2384 7.1368 17.2603 7.03466 17.2865 6.93678C17.3172 6.80911 17.3478 6.68144 17.3784 6.54951C17.4003 6.45163 17.4265 6.3495 17.4484 6.25162C17.4747 6.14097 17.5009 6.03457 17.5272 5.92393C17.5534 5.81328 17.5753 5.69838 17.5972 5.58347C17.6147 5.49836 17.6322 5.40899 17.654 5.32387C17.6803 5.1962 17.7109 5.07279 17.7372 4.94512C17.7634 4.8217 17.7809 4.69829 17.8072 4.57487C17.8247 4.47699 17.8422 4.38336 17.8641 4.28548C17.8903 4.15356 17.9209 4.02163 17.9428 3.88545C17.9691 3.73224 17.9866 3.57478 18.0084 3.42158C18.0434 3.17475 18.0784 2.93217 18.1135 2.68534C18.1135 2.67257 18.1178 2.65981 18.1178 2.64278C18.1485 2.35765 18.1791 2.07678 18.2053 1.79165C18.2185 1.62993 18.2272 1.46396 18.236 1.30224C18.236 1.27245 18.236 1.24266 18.236 1.2001C18.1966 1.19585 18.1616 1.19159 18.1222 1.18734C18.0828 1.17883 18.0391 1.18308 18.0128 1.1618C17.8947 1.07243 17.7591 1.06392 17.6147 1.06392C15.2345 1.06392 12.8544 1.06818 10.4699 1.05967C9.60357 1.05541 8.73727 1.08946 7.87097 1.04264C7.60408 1.02988 7.33282 1.03839 7.06593 1.02988C6.5759 1.01711 6.08587 0.99583 5.60021 0.983063C5.53459 0.983063 5.47333 0.99583 5.40333 1.00434ZM9.40669 18.4059C9.40669 18.3889 9.40669 18.3676 9.39794 18.3506C9.38481 18.3037 9.32793 18.291 9.30606 18.3335C9.27543 18.3974 9.22293 18.3931 9.17042 18.4144C9.1048 18.4399 9.02167 18.4612 8.98229 18.5123C8.91666 18.5846 8.87728 18.6782 8.87291 18.7846C8.86853 18.84 8.85978 18.8995 8.84228 18.9549C8.78103 19.1251 8.7329 19.2953 8.6979 19.4741C8.68477 19.5464 8.64977 19.6145 8.62352 19.6826C8.61477 19.6996 8.60602 19.7252 8.61039 19.7422C8.64102 19.8613 8.59289 19.972 8.57976 20.0826C8.57539 20.1082 8.56226 20.1337 8.54476 20.1507C8.49226 20.2018 8.48351 20.2529 8.51851 20.3167C8.53164 20.338 8.53164 20.3678 8.53164 20.3933C8.51851 20.5337 8.50538 20.6784 8.49226 20.8189C8.48788 20.8572 8.47476 20.8997 8.45726 20.9295C8.42663 20.9763 8.41351 21.0274 8.40913 21.0827C8.40475 21.1763 8.40038 21.2657 8.38725 21.3551C8.36538 21.4913 8.33475 21.6274 8.3085 21.7636C8.26912 21.9509 8.22974 22.1424 8.18599 22.3296C8.13349 22.5467 8.09411 22.7595 8.08099 22.9808C8.07661 23.0446 8.09411 23.0659 8.16411 23.0701C8.17724 23.0701 8.19037 23.0701 8.20787 23.0701C9.1748 23.0616 10.1461 23.0574 11.113 23.0489C11.5593 23.0446 12.0056 23.0489 12.4562 23.0403C13.5282 23.0276 14.6001 23.0063 15.6764 22.9893C15.7114 22.9893 15.7508 22.9765 15.7858 22.968C15.7727 22.8361 15.7683 22.7127 15.7508 22.5935C15.7114 22.3254 15.6633 22.0573 15.6196 21.7892C15.6021 21.687 15.5802 21.5806 15.5627 21.4785C15.5408 21.3551 15.5189 21.2317 15.497 21.1083C15.4795 21.0146 15.4577 20.921 15.4358 20.8316C15.4095 20.704 15.3789 20.572 15.357 20.4444C15.3308 20.3082 15.3089 20.172 15.287 20.0316C15.2564 19.8358 15.2258 19.6358 15.1952 19.4358C15.1777 19.3081 15.1602 19.1804 15.147 19.0528C15.1252 18.8442 15.112 18.6314 15.0901 18.4229C15.0858 18.3591 15.0683 18.3463 15.0026 18.3506C14.8539 18.3548 14.7007 18.3633 14.552 18.3633C13.9176 18.3633 13.2875 18.4187 12.6575 18.4187C11.6599 18.4187 10.6668 18.4484 9.6692 18.4697C9.56857 18.4782 9.48544 18.4655 9.40669 18.4059ZM21.8718 1.86399C21.8762 1.86399 21.8762 1.86399 21.8805 1.86399C21.8805 1.65121 21.8805 1.43417 21.8805 1.22138C21.8805 1.13627 21.8499 1.11499 21.7668 1.11499C21.3861 1.1235 21.0055 1.13627 20.6248 1.13627C20.288 1.13627 19.9554 1.15329 19.6185 1.11925C19.566 1.11499 19.5529 1.13201 19.5485 1.19585C19.531 1.53205 19.5135 1.86825 19.4917 2.20445C19.4873 2.29382 19.4742 2.38744 19.4654 2.47681C19.4435 2.64704 19.4173 2.82152 19.3954 2.99175C19.391 3.01303 19.391 3.03431 19.391 3.05133C19.3954 3.20454 19.3954 3.35774 19.4042 3.50669C19.4173 3.75352 19.3954 3.9961 19.3123 4.23016C19.2641 4.36209 19.2466 4.50252 19.1941 4.6302C19.1373 4.77914 19.0979 4.92809 19.0629 5.0813C19.0498 5.13237 19.0366 5.18769 19.0191 5.23876C18.9623 5.42175 18.8966 5.60049 18.8485 5.78349C18.7435 6.14948 18.6341 6.51547 18.4941 6.87295C18.4635 6.95381 18.4372 7.03892 18.411 7.12403C18.3803 7.2134 18.3541 7.30703 18.3191 7.39214C18.2141 7.64748 18.0784 7.89006 18.0084 8.15817C17.9822 8.25605 17.9603 8.35818 17.9428 8.45607C17.9297 8.53267 17.9647 8.5582 18.0347 8.53267C18.1616 8.4816 18.2885 8.43904 18.4066 8.37946C18.5991 8.28158 18.7872 8.1837 18.9666 8.0688C19.4785 7.74111 19.9029 7.32831 20.2661 6.85592C20.6992 6.28992 21.0186 5.66859 21.268 5.00895C21.3774 4.71531 21.478 4.42167 21.548 4.11526C21.5655 4.0344 21.5874 3.9578 21.6093 3.87694C21.6399 3.74075 21.6705 3.60457 21.6968 3.46839C21.723 3.33221 21.7449 3.19603 21.7624 3.05559C21.793 2.81727 21.8237 2.57895 21.8499 2.33637C21.8587 2.18743 21.863 2.02571 21.8718 1.86399ZM5.70085 8.28584C5.69647 8.24328 5.70085 8.21775 5.6921 8.19221C5.65272 8.05178 5.60459 7.91559 5.56521 7.77516C5.50396 7.54535 5.44708 7.31554 5.3902 7.08573C5.3377 6.8772 5.28957 6.66867 5.23707 6.4644C5.21519 6.37929 5.19769 6.29417 5.17582 6.2048C5.14956 6.09416 5.11894 5.97925 5.09269 5.8686C5.06643 5.75796 5.04893 5.64305 5.02706 5.52815C5.00956 5.43878 4.98768 5.34941 4.9658 5.26004C4.93955 5.14088 4.90893 5.02172 4.88267 4.90256C4.85642 4.77914 4.83892 4.65573 4.81704 4.53231C4.79954 4.43018 4.77767 4.3323 4.75579 4.23442C4.72954 4.10249 4.70329 3.96631 4.67266 3.83438C4.64641 3.72373 4.62016 3.61734 4.58953 3.51095C4.54578 3.34497 4.4714 3.18326 4.50203 3.00452C4.5064 2.9875 4.49765 2.96622 4.4889 2.94494C4.44515 2.77471 4.39702 2.60448 4.35327 2.43C4.31827 2.28956 4.30076 2.14912 4.25264 2.01294C4.15638 1.74483 4.09075 1.47247 4.05137 1.19159C4.04262 1.11499 4.02512 1.10222 3.95074 1.11925C3.88949 1.13201 3.82824 1.15329 3.75823 1.17031C3.75386 1.14052 3.74948 1.11925 3.74511 1.09371C3.73636 1.05967 3.71448 1.04264 3.6751 1.0469C3.6576 1.0469 3.6401 1.05115 3.6226 1.05541C3.44321 1.10648 3.26383 1.08946 3.08007 1.06392C2.89193 1.03413 2.69942 1.0086 2.51128 0.991574C2.35815 0.978807 2.20502 0.987319 2.05188 0.987319C1.98625 0.987319 1.92062 0.987319 1.855 0.987319C1.85062 1.01711 1.84187 1.03839 1.84624 1.05967C1.86812 1.32777 1.89437 1.59588 1.91625 1.86399C1.925 1.94485 1.93813 2.02571 1.94688 2.10657C1.96875 2.28105 1.99063 2.45553 2.01688 2.63002C2.03001 2.73215 2.04751 2.83855 2.06938 2.94068C2.09563 3.07261 2.12189 3.20879 2.15251 3.34072C2.17001 3.42158 2.18751 3.49818 2.20502 3.57904C2.22689 3.68969 2.24439 3.80033 2.27502 3.90673C2.3319 4.11526 2.39315 4.32378 2.45878 4.53231C2.54629 4.79191 2.63379 5.05577 2.7388 5.30685C2.85255 5.58773 2.98819 5.86009 3.1457 6.11969C3.36008 6.48142 3.60072 6.81762 3.89387 7.12403C4.16951 7.41342 4.4714 7.66451 4.81267 7.87304C5.08394 8.03901 5.36833 8.1837 5.70085 8.28584ZM11.87 15.7461C11.9006 15.7418 11.9312 15.7418 11.9662 15.7418C12.1806 15.7631 12.3906 15.7205 12.5919 15.6482C12.78 15.5801 12.8894 15.4439 12.9506 15.2652C13.0031 15.1077 13.0031 14.9417 12.9988 14.78C12.9944 14.6821 12.9857 14.6736 12.8894 14.6736C12.2725 14.6609 11.6599 14.6864 11.0474 14.729C10.9643 14.7332 10.9468 14.7545 10.9555 14.8311C10.9687 14.9375 10.9905 15.0396 11.0037 15.1418C11.0212 15.3205 11.0562 15.495 11.113 15.6695C11.148 15.7801 11.1612 15.7929 11.2837 15.7886C11.4762 15.7759 11.6731 15.7588 11.87 15.7461ZM13.8213 17.2611C13.8432 17.2654 13.8563 17.2696 13.8651 17.2654C13.957 17.2271 14.0488 17.2356 14.1407 17.2654C14.202 17.2824 14.2676 17.3037 14.3332 17.3079C14.4164 17.3122 14.4645 17.2696 14.4601 17.1845C14.4514 17.0866 14.4601 16.9887 14.4601 16.8866C14.4601 16.793 14.4557 16.7845 14.3595 16.7802C14.1363 16.7717 13.9132 16.7674 13.6901 16.7717C13.5369 16.776 13.3838 16.793 13.2307 16.8015C13.0557 16.81 12.8806 16.8143 12.7056 16.8228C12.5612 16.8313 12.4125 16.8483 12.2681 16.8483C11.905 16.8483 11.5418 16.8653 11.1787 16.8313C11.0124 16.8143 10.8418 16.81 10.6755 16.8143C10.5486 16.8143 10.4174 16.8398 10.2905 16.8483C10.0761 16.8611 9.92734 16.7717 9.75233 16.8866C9.57732 16.6866 9.64295 17.0951 9.64733 17.1547C9.68233 17.159 9.75233 17.2654 9.75233 17.1675C9.83109 17.1717 9.90509 17.2483 9.98384 17.2568C10.3032 17.2951 10.6142 17.2824 10.9336 17.2568C11.0342 17.2483 11.183 17.2526 11.2837 17.2568C11.5287 17.2611 11.6293 17.2185 11.87 17.1845C11.9356 17.176 12.1315 17.2739 12.2681 17.1845C12.43 17.1802 12.43 17.2611 12.5919 17.2568C12.7713 17.2526 13.0513 17.2483 13.2307 17.2568C13.4363 17.2654 13.4116 17.1717 13.6128 17.2568C13.6172 17.2781 13.8169 17.2313 13.8213 17.2611Z" fill="#3E5C57"/>
</svg>
