<svg width="24" height="24" viewBox="0 0 24 24" fill="none" xmlns="http://www.w3.org/2000/svg">
<mask id="mask0_359_20771" style="mask-type:alpha" maskUnits="userSpaceOnUse" x="0" y="0" width="24" height="25">
<path fill-rule="evenodd" clip-rule="evenodd" d="M23.9671 0.406257C20.8821 0.325051 18.2295 0.359854 15.869 0.139438C15.9391 0.162639 15.9391 0.232245 15.7755 0.220644C14.7705 0.104635 13.7188 0.359854 13.2281 0.220644C13.38 0.220644 13.4618 0.151039 13.4968 0.0350302C13.4267 0.0582319 13.3215 0.0350302 13.3099 0.127837C12.3516 -0.0113732 12.0128 -0.0577765 11.0312 0.220644C11.0312 0.0698327 11.2883 0.17424 11.2999 0.0350302C10.8559 0.0930344 10.0145 -0.0577765 9.57047 0.30185C9.39519 0.267047 9.55879 -0.115781 9.20822 0.0350302C6.98797 0.0814336 4.60411 -0.0925791 2.27868 0.30185C2.27868 0.151039 2.53577 0.255446 2.54745 0.116236C1.69441 0.162639 0.619335 -0.231789 0 0.406257C0.338881 3.7357 -0.186969 7.18115 0.268768 10.5454C0.0584278 14.6985 0.175283 18.8168 0.268768 23.9328C7.64236 24.2228 15.7404 23.6775 23.9671 23.84C24.0606 16.775 23.9203 8.26003 23.9671 0.406257ZM4.00815 23.0279C3.9614 20.8933 4.46388 19.0488 4.10163 17.5987C4.13669 17.4943 4.26523 17.3667 4.2886 17.5059C4.35871 17.2971 4.82614 16.9607 4.47557 16.5082C4.90794 16.7866 4.52231 16.2646 4.83782 16.2414C5.03648 16.2298 4.72097 16.0094 4.83782 15.789C5.41041 15.8586 5.84278 15.1277 6.392 14.8841C6.98797 14.6985 7.01134 14.9769 7.39696 14.6173C8.60057 15.5454 10.1898 16.601 12.0478 16.6126C13.8123 16.6242 15.4483 15.789 16.5117 14.7101C16.9791 14.5013 17.6919 14.9189 18.1477 14.7101C18.7203 15.3945 19.5967 15.6382 19.9706 16.6126C20.5082 17.9815 20.0174 21.4966 20.3329 23.0395C15.051 22.9931 9.78081 23.0279 4.00815 23.0279ZM21.2327 23.0279C21.1392 20.5453 21.3261 18.6544 21.2327 16.427C20.6484 15.8818 20.6601 15.1973 20.1342 14.7101C19.807 14.3969 19.3279 14.3621 19.0358 13.9908C19.2227 13.956 19.2812 14.0488 19.398 14.0837C18.767 13.8052 18.1243 12.9932 16.5701 13.4456C16.5935 13.318 16.8038 13.376 16.9324 13.3528C16.3481 13.0164 15.3431 13.7356 15.2029 14.4433C14.8874 14.4085 15.0861 14.1997 14.7472 14.3505C13.5669 15.2437 11.6154 15.2437 10.1898 14.8029C9.66396 14.3969 8.60057 13.8168 7.91112 13.5384C8.03967 13.2716 8.35518 13.5616 8.46035 13.6312C8.01629 13.0396 6.99965 13.26 6.45043 13.3644C3.96141 13.8168 2.33711 16.6242 3.0733 19.6056C2.64094 20.4061 3.0733 21.9374 2.88633 22.7727C2.24363 23.0047 2.16183 22.7727 1.42564 22.7727C1.18024 19.6521 1.67104 16.2646 1.23867 13.0048C1.58924 9.46651 1.27373 5.73104 1.33215 1.42713C7.70078 1.21832 15.7288 1.16031 23.114 1.33432C23.1958 8.15562 23.1608 15.8586 23.2075 23.0511C22.5765 23.0279 21.8987 23.0279 21.2327 23.0279Z" fill="black"/>
<path fill-rule="evenodd" clip-rule="evenodd" d="M15.3921 6.26048C13.1017 2.97744 7.93288 4.9535 7.82771 9.00219C7.74591 11.9372 10.9361 14.1414 14.1145 12.8073C14.0912 12.9581 14.3485 12.5219 14.5586 12.5219C14.9882 12.1692 14.9559 12.3316 15.2831 12.1692C15.1312 12.03 15.4818 12.0001 15.5869 11.624C16.1747 10.6957 16.1747 10.4348 16.4356 9.91298C16.4356 9.65209 16.4356 9.65209 16.4356 9.39119C16.5642 8.41672 16.1633 6.60851 15.3921 6.26048ZM11.5554 12.1692C10.7842 12.0648 10.1298 11.624 9.46369 11.2644C7.17332 8.63096 10.5037 4.21104 13.5653 6.11358C13.6004 6.18319 13.7029 6.11358 13.9006 6.3804C14.3914 6.67042 14.2314 6.68946 14.3015 6.78227C14.3716 6.86347 14.5002 7.12285 14.5586 7.20406C14.8624 7.61009 15.1312 7.82584 15.2831 8.46855C15.2247 10.4871 13.9393 12.494 11.5554 12.1692Z" fill="black"/>
<path d="M21.2804 6.38899C21.2684 6.40102 21.2445 6.41305 21.2445 6.43711C21.2085 6.52132 21.1487 6.5574 21.0648 6.56943C21.017 6.56943 20.993 6.59349 20.9571 6.64161C20.9092 6.71379 20.8134 6.74988 20.7296 6.76191C20.514 6.798 20.2985 6.83409 20.083 6.88221C19.7237 6.95438 19.3765 7.01453 19.0173 7.08671C18.9215 7.11077 18.8137 7.1228 18.7179 7.13483C18.658 7.14686 18.6341 7.11077 18.6221 7.06265C18.6101 6.99047 18.5862 6.91829 18.5742 6.84612C18.5742 6.81003 18.5742 6.76191 18.5982 6.72582C18.67 6.64161 18.694 6.53335 18.8017 6.48523C18.8855 6.44914 18.9574 6.40102 19.0412 6.36493C19.5322 6.13637 20.047 5.96795 20.5859 5.88375C20.7176 5.85969 20.8493 5.84766 20.993 5.84766C21.0289 5.84766 21.0648 5.87172 21.0888 5.89577C21.1487 5.95592 21.2085 6.0281 21.2325 6.12434C21.2445 6.17246 21.2684 6.22058 21.2924 6.26869C21.2804 6.29275 21.2804 6.34087 21.2804 6.38899Z" fill="black"/>
<path d="M16.4917 1.58851C16.6833 1.73287 16.7432 1.92534 16.6833 2.15391C16.5516 2.63509 16.4079 3.11628 16.2762 3.59746C16.2522 3.66964 16.2163 3.74182 16.1205 3.74182C16.0966 3.74182 16.0726 3.75385 16.0606 3.76588C15.9649 3.87414 15.8451 3.85008 15.7134 3.86211C15.6894 3.70573 15.6296 3.5734 15.6655 3.41702C15.7613 3.00801 15.8451 2.58697 15.9289 2.17796C15.9409 2.14188 15.9409 2.10579 15.9409 2.0697C15.9409 1.91331 16.0008 1.79302 16.0966 1.68475C16.1445 1.6246 16.2283 1.60054 16.3121 1.58851C16.36 1.58851 16.4199 1.57648 16.4678 1.56445C16.4678 1.58851 16.4797 1.58851 16.4917 1.58851Z" fill="black"/>
<path d="M17.6048 5.3182C17.5808 5.22196 17.5449 5.14978 17.5449 5.06558C17.5449 5.01746 17.5689 4.95731 17.5928 4.90919C17.7126 4.75281 17.8323 4.58439 17.952 4.44003C18.2753 4.05509 18.6585 3.73029 19.0417 3.40549C19.2213 3.2491 19.4009 3.09271 19.5925 2.94836C19.6404 2.90024 19.7003 2.87618 19.7601 2.82806C19.9038 2.7198 20.0715 2.7198 20.2391 2.73183C20.3349 2.74386 20.3828 2.84009 20.4187 2.9243C20.4427 2.96039 20.4427 3.00851 20.4666 3.0446C20.5385 3.18895 20.5385 3.28519 20.3589 3.41751C19.6763 3.94682 18.9698 4.44003 18.3113 5.00543C18.1796 5.12572 18.0119 5.1979 17.8562 5.28211C17.7844 5.29414 17.6886 5.29414 17.6048 5.3182Z" fill="black"/>
</mask>
<g mask="url(#mask0_359_20771)">
<rect x="1.5" y="1.5" width="21" height="21" fill="#3E5C57"/>
</g>
</svg>
