<svg width="24" height="24" viewBox="0 0 24 24" fill="none" xmlns="http://www.w3.org/2000/svg">
<path fill-rule="evenodd" clip-rule="evenodd" d="M20.6333 6.99757C20.9353 6.38051 22.1563 6.06541 21.7493 5.15951C20.909 5.01509 20.5414 5.86848 19.9768 6.20983C19.3204 5.82909 18.9659 5.35645 18.4014 4.96258C18.1782 4.80503 16.0644 3.7941 14.5283 3.64968C14.6202 3.63655 14.2264 3.66281 13.8325 3.53152C13.9638 2.87507 13.583 1.78537 14.0688 1.41776C14.8565 1.54905 15.1979 1.23395 15.3161 0.695663C15.2242 0.446213 15.2767 0.117989 14.804 0.0654728C14.7909 0.0523438 11.2855 -0.262752 11.1673 0.61689C11.0885 1.22082 11.6793 1.56218 12.5458 1.33898C12.5327 2.17924 12.6378 2.7963 12.5458 3.57091C7.09732 4.24049 3.67066 7.64089 3.02734 13.2995V14.2185C3.27679 18.0653 5.40369 20.7699 8.01635 22.2928C9.56557 23.1987 11.5612 23.9339 14.0557 23.737C18.9003 23.3694 22.8783 19.4307 23.1803 14.4811C23.3772 11.4352 22.3269 9.03256 20.6333 6.99757ZM22.3401 14.2185C21.723 19.4044 18.8215 22.306 13.6093 22.8836C13.8325 22.0302 13.3598 20.9931 12.7559 21.7677C12.9397 22.1878 12.6246 22.4635 12.7559 22.818C7.66187 22.0302 6.57217 19.5883 6.45401 19.4701C5.24614 18.1703 4.26147 14.8356 4.28772 14.5467C4.72098 14.3892 5.35117 14.4286 5.60062 14.0872C5.74504 13.1813 5.14111 13.0106 4.28772 13.1025C4.72098 8.53366 8.01635 5.18577 12.6246 4.76564C12.6903 5.57964 12.4277 6.64309 13.0185 6.80064C13.885 7.02383 13.8981 5.73719 13.8062 4.76564C18.9134 5.35645 21.7361 8.21856 22.3401 13.2995C20.6596 12.8925 20.6202 14.6518 22.3401 14.2185Z" fill="#3E5C57"/>
<path fill-rule="evenodd" clip-rule="evenodd" d="M11.8228 13.1285C11.5077 14.4414 12.3611 15.2948 13.3327 15.2948C15.5515 15.3079 15.1576 11.448 12.6762 12.4064C11.429 11.3955 10.1423 9.66245 8.86882 8.599C8.69814 8.45458 8.42243 8.54648 8.21237 8.599C7.94979 9.5968 9.18391 9.92503 9.26269 10.5683C9.24956 10.5683 11.5603 13.0103 11.8228 13.1285Z" fill="#3E5C57"/>
<path d="M4.38606 1.77091C4.40095 1.77781 4.4198 1.79559 4.44165 1.78764C4.53003 1.79243 4.5826 1.83488 4.62125 1.90705C4.63708 1.95056 4.66686 1.96436 4.72244 1.98108C4.80385 2.00072 4.8683 2.07581 4.90695 2.14798C5.01099 2.33184 5.11504 2.5157 5.23001 2.69559C5.41435 2.99804 5.58381 3.29361 5.76814 3.59606C5.82167 3.67513 5.86823 3.76905 5.91083 3.85209C5.94156 3.9025 5.91669 3.93619 5.87694 3.96297C5.81533 3.99772 5.75768 4.04334 5.69607 4.07808C5.66329 4.09001 5.61958 4.10592 5.57888 4.0961C5.47863 4.05867 5.37236 4.07272 5.29302 3.99073C5.23252 3.92652 5.16505 3.87716 5.10456 3.81295C4.7346 3.44255 4.41137 3.0305 4.15672 2.56886C4.09132 2.45716 4.03684 2.34149 3.98933 2.21096C3.97745 2.17832 3.98743 2.13774 4.00137 2.10803C4.03621 2.03375 4.08198 1.9555 4.16149 1.90193C4.20124 1.87514 4.23703 1.83748 4.27283 1.79981C4.29864 1.80273 4.34235 1.78682 4.38606 1.77091Z" fill="#3E5C57"/>
<path d="M1.61021 7.70984C1.678 7.48807 1.83305 7.37005 2.06047 7.34886C2.54114 7.30942 3.02576 7.28085 3.50642 7.24141C3.57991 7.2393 3.65735 7.24807 3.68902 7.33508C3.69694 7.35684 3.71579 7.37462 3.73068 7.38152C3.8607 7.43274 3.87843 7.54947 3.93291 7.66514C3.79877 7.7386 3.69836 7.83674 3.54442 7.85582C3.1412 7.90403 2.73101 7.9671 2.33175 8.02619C2.29501 8.02724 2.26222 8.03917 2.22944 8.05111C2.08738 8.10281 1.95831 8.0882 1.82828 8.03698C1.75781 8.01335 1.70824 7.94517 1.6696 7.873C1.65376 7.82949 1.62304 7.77908 1.59627 7.73955C1.61813 7.73159 1.61417 7.72072 1.61021 7.70984Z" fill="#3E5C57"/>
<path d="M4.62939 5.46568C4.54989 5.51926 4.4962 5.57575 4.4197 5.6036C4.37599 5.61951 4.31344 5.61764 4.26181 5.61179C4.08015 5.55472 3.88757 5.50163 3.71685 5.44059C3.26026 5.27417 2.83852 5.03348 2.41678 4.7928C2.21533 4.68134 2.01388 4.56989 1.8194 4.44358C1.75986 4.41598 1.7182 4.36954 1.6547 4.33106C1.50884 4.23633 1.45341 4.08405 1.40891 3.92778C1.38817 3.83679 1.45975 3.76146 1.52437 3.70098C1.54924 3.6673 1.59295 3.65139 1.61781 3.6177C1.72519 3.50471 1.81262 3.47289 1.99221 3.5923C2.6987 4.03731 3.38033 4.516 4.11168 4.92733C4.26451 5.0072 4.38551 5.13562 4.51347 5.24919C4.54815 5.31048 4.57982 5.3975 4.62939 5.46568Z" fill="#3E5C57"/>
</svg>
