<svg width="16" height="16" viewBox="0 0 16 16" fill="none" xmlns="http://www.w3.org/2000/svg">
<path d="M8.44645 1.5C8.45408 1.50402 8.4579 1.50803 8.46553 1.50803C8.47698 1.51205 8.48843 1.51205 8.49987 1.51606C8.52277 1.52008 8.53422 1.53614 8.53804 1.55621C8.53804 1.56826 8.54185 1.5803 8.54185 1.59235C8.54185 1.6044 8.5533 1.61243 8.56093 1.61243C8.56857 1.61243 8.57238 1.61243 8.58002 1.61644C8.58765 1.61644 8.59528 1.61644 8.60291 1.62046C8.62581 1.62447 8.68687 1.66061 8.69832 1.68069C8.70213 1.6847 8.70595 1.68872 8.70595 1.69273C8.72121 1.7369 8.74029 1.77705 8.74029 1.82523C8.74029 1.84933 8.74029 1.87342 8.74029 1.89751C8.74029 1.9216 8.74411 1.94168 8.75937 1.95774C8.77845 1.97782 8.78227 2.00191 8.78609 2.03001C8.78609 2.04206 8.78609 2.05812 8.78609 2.07017C8.78609 2.08623 8.79372 2.09426 8.80899 2.09827C8.8357 2.11032 8.86623 2.11835 8.89294 2.13039C8.90057 2.13441 8.91202 2.13842 8.91584 2.14645C8.93874 2.17055 8.96163 2.19464 8.9769 2.22676C8.99216 2.25487 9.00743 2.28297 9.02269 2.31108C9.02651 2.31911 9.03032 2.32714 9.03414 2.33517C9.04177 2.35123 9.04559 2.37131 9.05322 2.38737C9.05704 2.3954 9.06085 2.40745 9.06467 2.41548C9.06848 2.43957 9.07612 2.46366 9.08375 2.48374C9.08756 2.4998 9.09138 2.51184 9.0952 2.5279C9.09902 2.56404 9.10665 2.60018 9.11428 2.63632C9.12191 2.66041 9.12573 2.6845 9.12573 2.70859C9.12954 2.75677 9.13336 2.80094 9.14099 2.84912C9.14862 2.88928 9.14863 2.92943 9.15244 2.96958C9.15244 2.99367 9.15626 3.01777 9.15626 3.04186C9.15626 3.14224 9.16007 3.2386 9.17152 3.33497C9.17152 3.343 9.17152 3.34702 9.17152 3.35505C9.17534 3.46747 9.18679 3.57589 9.1906 3.6843C9.19442 3.74854 9.20205 3.8168 9.20968 3.88104C9.2135 3.90915 9.21731 3.94127 9.21731 3.96938C9.22113 4.00953 9.22495 4.0537 9.23258 4.09385C9.24785 4.23037 9.25929 4.36689 9.26311 4.50341C9.26311 4.57166 9.26693 4.63992 9.27074 4.7122C9.27456 4.75235 9.27837 4.79652 9.28219 4.83667C9.28601 4.86478 9.28601 4.8969 9.28982 4.92501C9.29364 4.99728 9.29364 5.06956 9.29364 5.14183C9.29364 5.16994 9.29364 5.20206 9.29746 5.23017C9.30127 5.31047 9.29746 5.39078 9.29746 5.46707C9.29746 5.51525 9.29746 5.56745 9.29746 5.61563C9.29746 5.6598 9.29746 5.70397 9.29746 5.74412C9.29746 5.76018 9.29745 5.77624 9.29364 5.7923C9.28601 5.84049 9.28601 5.89268 9.28982 5.94086C9.28982 6.05329 9.28982 6.16973 9.28982 6.28216C9.28982 6.33436 9.28982 6.38656 9.28982 6.43876C9.28982 6.51103 9.28982 6.58331 9.28601 6.65558C9.28601 6.67967 9.28601 6.70778 9.28601 6.73187C9.28601 6.83225 9.28601 6.92862 9.28601 7.029C9.28601 7.03703 9.28601 7.04506 9.28601 7.05309C9.28601 7.06112 9.29364 7.06915 9.30127 7.06915C9.30509 7.06915 9.3089 7.06915 9.31272 7.06915C9.38904 7.06112 9.46537 7.0571 9.54169 7.04506C9.62946 7.03301 9.71723 7.02097 9.80501 7.01695C9.83935 7.01294 9.87751 7.00892 9.91186 7.00491C9.97292 6.99688 10.034 6.98885 10.0989 6.98082C10.1103 6.98082 10.1256 6.9768 10.137 6.9768C10.2019 6.97279 10.2668 6.96475 10.3316 6.96074C10.3507 6.96074 10.3698 6.95672 10.3889 6.95672C10.4309 6.95271 10.4728 6.95271 10.5186 6.94869C10.6255 6.94468 10.7323 6.93263 10.8392 6.92862C10.9499 6.92059 11.0605 6.91256 11.175 6.91657C11.2895 6.91657 11.404 6.92059 11.5185 6.92059C11.5414 6.92059 11.5604 6.9246 11.5833 6.9246C11.7474 6.93263 11.9154 6.93665 12.0794 6.94066C12.171 6.94066 12.2626 6.94066 12.3542 6.94869C12.358 6.94869 12.3618 6.94869 12.3657 6.94869C12.4687 6.94869 12.5679 6.95672 12.671 6.96074C12.69 6.96074 12.7053 6.96475 12.7244 6.96877C12.7473 6.97279 12.7664 6.9768 12.7893 6.97278C12.8503 6.96475 12.9114 6.96475 12.9724 6.96475C13.064 6.96475 13.1556 6.96475 13.2472 6.96475C13.2968 6.96475 13.3426 6.9768 13.3884 6.99286C13.4189 7.00491 13.4266 7.02097 13.4227 7.05309C13.4227 7.0571 13.4227 7.06514 13.4227 7.06915C13.4227 7.07317 13.4266 7.07718 13.4266 7.07718C13.4342 7.0812 13.4418 7.0812 13.4495 7.08521C13.5029 7.09726 13.5029 7.09726 13.5487 7.12536C13.5487 7.12536 13.5525 7.12536 13.5525 7.12938C13.5716 7.14143 13.583 7.15749 13.5907 7.17756C13.6097 7.22575 13.6212 7.27393 13.6174 7.32613C13.6174 7.33817 13.6174 7.35022 13.6174 7.36226C13.6174 7.38234 13.6212 7.40242 13.6364 7.41848C13.6403 7.42249 13.6441 7.42651 13.6479 7.43052C13.6593 7.44658 13.6632 7.46265 13.6593 7.48272C13.6593 7.49477 13.6555 7.51083 13.6555 7.52287C13.6555 7.53492 13.6632 7.54697 13.6746 7.55098C13.6822 7.555 13.6861 7.555 13.6937 7.55901C13.7204 7.56303 13.7471 7.57909 13.77 7.59113C13.7776 7.59515 13.7815 7.59916 13.7853 7.60318C13.8044 7.62325 13.8234 7.64735 13.8387 7.67144C13.8578 7.70356 13.8731 7.7397 13.8883 7.77182C13.8921 7.77985 13.8921 7.78788 13.8959 7.79591C13.8998 7.80796 13.9036 7.82 13.9074 7.82803C13.915 7.84409 13.9188 7.86015 13.9227 7.87622C13.9265 7.89228 13.9303 7.90432 13.9341 7.92038C13.9417 7.94046 13.9456 7.96054 13.9494 7.98061C13.9532 8.00872 13.957 8.04084 13.9646 8.06895C13.9723 8.09705 13.9761 8.12516 13.9761 8.15728C13.9761 8.19744 13.9837 8.2416 13.9875 8.28176C13.9952 8.33797 14.0028 8.39017 13.999 8.44638C13.999 8.47047 13.999 8.49055 13.999 8.51464C13.999 8.52669 13.9952 8.53472 13.9837 8.54275C13.9608 8.55881 13.9379 8.57888 13.9112 8.5829C13.8616 8.61101 13.812 8.61502 13.7586 8.61904C13.7395 8.62305 13.7204 8.62305 13.7013 8.62305C13.6555 8.62305 13.6136 8.62707 13.5678 8.62305C13.5334 8.62305 13.5067 8.63108 13.48 8.65517C13.4609 8.67124 13.438 8.67927 13.4151 8.67927C13.396 8.67927 13.3808 8.68328 13.3655 8.69533C13.3617 8.69934 13.3541 8.70336 13.3464 8.70336C13.3197 8.70737 13.2968 8.72343 13.2777 8.73949C13.2586 8.75555 13.2358 8.76359 13.209 8.76359C13.2014 8.76359 13.1938 8.76359 13.1861 8.76359C13.1327 8.76359 13.0793 8.76359 13.0297 8.76359C12.9762 8.76359 12.9228 8.76359 12.8732 8.77162C12.8274 8.77965 12.7816 8.77965 12.7358 8.77965C12.7091 8.77965 12.6786 8.78366 12.6519 8.78768C12.6252 8.79571 12.5984 8.79571 12.5679 8.79972C12.4649 8.80775 12.358 8.81177 12.2512 8.81177C12.1863 8.81578 12.1214 8.81578 12.0527 8.81578C11.9077 8.8198 11.7589 8.82381 11.6139 8.82783C11.5337 8.83185 11.4574 8.83586 11.3773 8.83586C11.2552 8.83586 11.133 8.84389 11.0109 8.84791C10.9651 8.84791 10.9193 8.85192 10.8735 8.85594C10.7781 8.86798 10.6789 8.87601 10.5835 8.88806C10.5034 8.89609 10.4232 8.90412 10.3431 8.91617C10.2553 8.92821 10.1675 8.94026 10.0798 8.9523C9.96529 8.96836 9.8508 8.98442 9.73632 9.0045C9.64473 9.02056 9.55314 9.03662 9.46537 9.05268C9.43484 9.0567 9.40812 9.06071 9.37759 9.06473C9.36615 9.06473 9.35851 9.06874 9.34707 9.06874C9.28982 9.07678 9.29364 9.07276 9.28982 9.13299C9.28601 9.23337 9.28219 9.33375 9.27838 9.43413C9.27838 9.4783 9.27456 9.52247 9.27456 9.56262C9.27456 9.75535 9.27074 9.94808 9.27074 10.1448C9.27074 10.2091 9.27074 10.2733 9.27074 10.3376C9.27074 10.4179 9.26693 10.4982 9.26693 10.5825C9.26693 10.6548 9.26693 10.727 9.26311 10.7993C9.26311 10.8877 9.25548 10.976 9.24785 11.0643C9.24403 11.1125 9.24021 11.1647 9.2364 11.2129C9.23258 11.3012 9.22113 11.3855 9.20968 11.4699C9.1906 11.6024 9.17915 11.7389 9.17915 11.8714C9.17915 11.9156 9.17534 11.9597 9.17152 12.0039C9.16771 12.028 9.16771 12.0481 9.16771 12.0722C9.16389 12.1565 9.16007 12.2408 9.14862 12.3251C9.14481 12.3492 9.14099 12.3773 9.13718 12.4014C9.13336 12.4496 9.12573 12.4938 9.12191 12.5419C9.11809 12.6062 9.10283 12.6704 9.0952 12.7307C9.08375 12.811 9.06848 12.8913 9.06085 12.9716C9.0494 13.0479 9.04177 13.1241 9.02269 13.1964C9.00743 13.2566 8.99979 13.3169 8.99216 13.3811C8.98071 13.4614 8.96545 13.5417 8.93873 13.618C8.92347 13.6702 8.90821 13.7224 8.90057 13.7786C8.89676 13.8067 8.88912 13.8308 8.88149 13.8589C8.85859 13.9352 8.8357 14.0115 8.81662 14.0878C8.80898 14.1119 8.80135 14.132 8.79372 14.1561C8.78609 14.1761 8.77845 14.1962 8.76701 14.2163C8.75556 14.2484 8.74029 14.2846 8.7174 14.3127C8.71358 14.3207 8.70976 14.3287 8.70595 14.3368C8.69832 14.3528 8.68687 14.3649 8.6716 14.3729C8.6487 14.3849 8.62581 14.397 8.5991 14.405C8.5762 14.409 8.54948 14.413 8.52659 14.413C8.51514 14.413 8.50369 14.413 8.49224 14.413C8.45408 14.409 8.41973 14.4171 8.39302 14.4452C8.38921 14.4492 8.38157 14.4492 8.37394 14.4492C8.36631 14.4492 8.36249 14.4492 8.35486 14.4492H8.35104C8.3396 14.4693 8.31288 14.4612 8.30143 14.4773C8.29762 14.4853 8.28998 14.4893 8.28235 14.4933C8.27472 14.5014 8.26327 14.5014 8.25564 14.4974C8.25182 14.4974 8.24801 14.4933 8.24801 14.4933C8.22129 14.4773 8.19076 14.4693 8.15642 14.4733C8.14115 14.4733 8.12589 14.4693 8.11444 14.4612C8.09918 14.4492 8.08773 14.4371 8.08009 14.4211C8.07246 14.409 8.06101 14.397 8.0572 14.3809C8.04575 14.3608 8.03049 14.3448 8.00759 14.3408C7.99614 14.3368 7.98469 14.3327 7.97324 14.3327C7.95035 14.3247 7.93126 14.3127 7.916 14.2966C7.90073 14.2805 7.88547 14.2605 7.87784 14.2364C7.87021 14.2163 7.85876 14.1962 7.85112 14.1761C7.80151 14.0597 7.75572 13.9433 7.72137 13.8228C7.69848 13.7465 7.68703 13.6662 7.6794 13.5899C7.67558 13.5457 7.67176 13.5056 7.67176 13.4614C7.66795 13.4092 7.66795 13.353 7.66795 13.3008C7.66795 13.2647 7.66413 13.2326 7.66413 13.1964C7.66032 13.096 7.64887 12.9916 7.65268 12.8913C7.65268 12.8511 7.65268 12.8069 7.64887 12.7668C7.64123 12.6785 7.64123 12.5861 7.64123 12.4978C7.64123 12.4054 7.64124 12.3131 7.63742 12.2167C7.63742 12.1926 7.63742 12.1685 7.63742 12.1444C7.64124 12.032 7.63742 11.9236 7.6336 11.8112C7.62979 11.7228 7.62597 11.6305 7.62979 11.5421C7.62979 11.5221 7.62979 11.502 7.62979 11.4819C7.62597 11.4257 7.62597 11.3695 7.62215 11.3093C7.62215 11.2651 7.62215 11.2209 7.62215 11.1727C7.62215 11.1045 7.61834 11.0362 7.61071 10.9639C7.60689 10.9399 7.60689 10.9198 7.60689 10.8957C7.60689 10.8355 7.60307 10.7792 7.60307 10.719C7.60307 10.6347 7.60307 10.5544 7.60689 10.4701C7.60689 10.462 7.60689 10.458 7.60689 10.45C7.60689 10.3496 7.61834 10.2452 7.62597 10.1448C7.62597 10.1087 7.62597 10.0766 7.62597 10.0404C7.62597 9.98021 7.62597 9.92399 7.62597 9.86376C7.62597 9.79952 7.62597 9.73528 7.62597 9.67103C7.62597 9.6349 7.62597 9.59876 7.62215 9.56262C7.62215 9.52648 7.61834 9.48633 7.61834 9.45019C7.61834 9.37792 7.61834 9.30966 7.61834 9.23739C7.61834 9.22534 7.61834 9.20928 7.61452 9.19723C7.61452 9.19322 7.60689 9.18519 7.59926 9.18519C7.59544 9.18519 7.59162 9.18519 7.58781 9.18519C7.51148 9.18519 7.43516 9.1892 7.36265 9.1892C7.33594 9.1892 7.30541 9.19322 7.2787 9.1892C7.18711 9.1892 7.09934 9.19322 7.00775 9.19723C6.9009 9.20125 6.79023 9.20526 6.68337 9.21329C6.59942 9.21731 6.51546 9.22132 6.43151 9.22935C6.35137 9.23337 6.27123 9.23738 6.19109 9.24542C6.11858 9.24943 6.04607 9.25345 5.97357 9.26148C5.89343 9.26951 5.80947 9.27352 5.72933 9.27754C5.67209 9.27754 5.61485 9.28155 5.5576 9.28155C5.4622 9.28155 5.37061 9.27754 5.2752 9.27352C5.16454 9.26951 5.05387 9.26148 4.93938 9.26148C4.91648 9.26148 4.89359 9.26148 4.87069 9.25746C4.81726 9.25345 4.76765 9.24943 4.71423 9.24943C4.62646 9.24542 4.53868 9.2414 4.4471 9.22534C4.38985 9.21731 4.33643 9.21329 4.27918 9.20928C4.24484 9.20526 4.21049 9.20526 4.17615 9.19723C4.05785 9.17314 3.93573 9.1611 3.81361 9.14102C3.74873 9.12897 3.68386 9.12094 3.61898 9.1089C3.52358 9.09284 3.42818 9.08079 3.33277 9.06473C3.23737 9.04867 3.14196 9.03662 3.04274 9.02859C3.02366 9.02859 3.0084 9.02458 2.98932 9.02056C2.92444 9.00852 2.85957 8.99647 2.79469 8.98442C2.726 8.97238 2.66112 8.95632 2.59243 8.94026C2.56572 8.93624 2.53901 8.9242 2.51229 8.91617C2.4894 8.90814 2.47032 8.89609 2.45123 8.88003C2.43597 8.86798 2.42071 8.85192 2.40926 8.83586C2.39399 8.81177 2.37873 8.78768 2.35965 8.76359C2.35201 8.75154 2.34057 8.74351 2.32912 8.73949C2.32148 8.73548 2.31385 8.73548 2.30622 8.73146C2.29859 8.72745 2.29096 8.72745 2.28332 8.72745C2.207 8.70737 2.15739 8.65919 2.12304 8.58691C2.1116 8.55881 2.10015 8.53472 2.0887 8.50661C2.08107 8.49055 2.07343 8.47047 2.0658 8.45441C2.05817 8.43434 2.04672 8.41426 2.03909 8.39418C2.03146 8.36608 2.02382 8.33797 2.02001 8.30986C2.01619 8.29782 2.01619 8.28577 2.01619 8.27373C2.01619 8.23357 2.01619 8.19342 2.02001 8.15327C2.02382 8.07296 2.01619 7.99266 2.00474 7.91637C1.99329 7.88425 2.00474 7.85213 2.01619 7.82C2.02001 7.81197 2.02382 7.79993 2.03145 7.79591C2.05054 7.77182 2.06962 7.74773 2.09251 7.72765C2.11541 7.70757 2.13449 7.68348 2.15739 7.66341C2.17647 7.64333 2.19555 7.61924 2.21845 7.60318C2.26806 7.56704 2.32148 7.53893 2.37873 7.52287C2.41307 7.51484 2.4436 7.5028 2.47413 7.48674C2.50084 7.47067 2.53137 7.45863 2.55809 7.44257C2.59625 7.42249 2.63823 7.40643 2.68402 7.39439C2.77561 7.37431 2.87101 7.35022 2.96642 7.33817C2.97787 7.33817 2.99313 7.33416 3.00458 7.33416C3.05801 7.33014 3.11143 7.32613 3.16486 7.3181C3.29843 7.30605 3.43199 7.30203 3.56937 7.30605C3.5999 7.30605 3.62662 7.30605 3.65715 7.30605C3.764 7.30203 3.87085 7.30605 3.9777 7.31408C4.0235 7.3181 4.07311 7.32211 4.1189 7.32613C4.14562 7.32613 4.17233 7.33014 4.19904 7.33014C4.26773 7.33014 4.33643 7.33416 4.40512 7.33817C4.42801 7.33817 4.45091 7.33817 4.47381 7.33817C4.56158 7.33817 4.64935 7.33817 4.73331 7.33817C4.74857 7.33817 4.76384 7.33817 4.7791 7.33817C4.83634 7.33817 4.89359 7.33817 4.95083 7.33416C5.00807 7.33416 5.06532 7.33014 5.12256 7.32613C5.1569 7.32613 5.18743 7.32211 5.22178 7.32211C5.35534 7.3181 5.48891 7.31007 5.62248 7.30204C5.66446 7.29802 5.70643 7.29401 5.74841 7.28999C5.80184 7.28597 5.85526 7.27794 5.90869 7.27393C6.01554 7.2659 6.11858 7.25385 6.22162 7.24181C6.32465 7.23378 6.43151 7.22173 6.53454 7.21772C6.59179 7.2137 6.65284 7.20968 6.71009 7.20567C6.83602 7.19764 6.96195 7.18559 7.08789 7.18559C7.12605 7.18559 7.16803 7.18158 7.20619 7.18158C7.25962 7.18158 7.31304 7.17756 7.36265 7.17756C7.43516 7.17355 7.51148 7.16953 7.58399 7.16953C7.58781 7.16953 7.59544 7.16953 7.59926 7.16953C7.60689 7.16953 7.61071 7.1615 7.61452 7.15749C7.61452 7.14946 7.61834 7.14544 7.61834 7.13741C7.61834 7.06514 7.61834 6.99286 7.61452 6.92059C7.61452 6.8443 7.61071 6.77202 7.61071 6.69573C7.61071 6.61543 7.60689 6.53512 7.59926 6.4508C7.59544 6.40262 7.59162 6.35845 7.59162 6.31027C7.59162 6.22193 7.59162 6.12958 7.59162 6.04125C7.59162 5.977 7.59162 5.90874 7.59162 5.8445C7.59162 5.76821 7.59162 5.69192 7.59162 5.61563C7.59162 5.56745 7.59162 5.51927 7.59162 5.47108C7.59544 5.39078 7.59544 5.31047 7.59162 5.23418C7.58781 5.17395 7.59162 5.11774 7.59162 5.05751C7.59162 4.99728 7.59162 4.93304 7.59544 4.87281C7.59544 4.79652 7.59926 4.72425 7.59926 4.64796C7.60307 4.53553 7.59926 4.41909 7.59162 4.30666C7.58781 4.27052 7.58781 4.2384 7.58781 4.20226C7.58781 4.15408 7.58399 4.1059 7.58018 4.05771C7.57636 4.02961 7.57636 3.99749 7.57636 3.96938C7.57636 3.92923 7.57254 3.89309 7.56491 3.85695C7.56109 3.82081 7.55346 3.78468 7.54965 3.74854C7.54201 3.68831 7.5382 3.62407 7.53438 3.56384C7.53057 3.5277 7.52675 3.48755 7.52293 3.45141C7.5153 3.38717 7.50767 3.32292 7.50767 3.25868C7.50767 3.22254 7.50385 3.19042 7.50004 3.15428C7.49622 3.09004 7.4924 3.0258 7.48859 2.96155C7.48859 2.92541 7.48477 2.89329 7.48096 2.85715C7.47332 2.81299 7.46951 2.7648 7.46951 2.71662C7.46951 2.70056 7.46951 2.68048 7.46569 2.66442C7.45806 2.60018 7.45806 2.53192 7.46187 2.46767C7.46187 2.42351 7.46187 2.37934 7.45424 2.33517C7.45043 2.31108 7.45043 2.28699 7.45043 2.2629C7.45043 2.22275 7.45043 2.18259 7.44279 2.14244C7.43516 2.09024 7.45043 2.04206 7.46569 1.99388C7.47714 1.97781 7.48477 1.96175 7.50004 1.94971C7.52675 1.9216 7.55346 1.8935 7.58399 1.8694C7.59162 1.86137 7.60307 1.85334 7.61071 1.84531C7.64123 1.8172 7.66413 1.78107 7.69848 1.75296C7.72519 1.72887 7.75572 1.70478 7.79007 1.69273C7.7977 1.68872 7.80533 1.6847 7.81296 1.68069C7.82823 1.66864 7.84731 1.66061 7.86639 1.66061C7.89692 1.6566 7.92745 1.64857 7.95798 1.63652C7.98087 1.62447 8.00759 1.61644 8.03048 1.60038C8.0343 1.59637 8.03812 1.59637 8.03812 1.59637C8.06483 1.58834 8.09154 1.57629 8.11444 1.56424C8.12971 1.55621 8.14497 1.5522 8.15642 1.54015C8.16787 1.53212 8.18313 1.52409 8.1984 1.52409C8.21748 1.52008 8.23274 1.52008 8.25182 1.51205C8.32815 1.5 8.38921 1.5 8.44645 1.5Z" fill="white"/>
</svg>
