<svg width="32" height="32" viewBox="0 0 32 32" fill="none" xmlns="http://www.w3.org/2000/svg">
<path d="M31.6044 4.46843C31.6253 4.21741 31.6253 3.87224 31.6253 3.4957C31.6253 3.30743 31.6149 3.11916 31.6044 2.93089L31.5939 2.78446C31.5939 2.73216 31.5939 2.70078 31.5835 2.61711C31.5626 2.47068 31.4894 2.3347 31.3952 2.23011C31.3011 2.12551 31.1756 2.0523 31.0396 2.02092C30.9664 2.01046 30.9036 2 30.8409 2C30.8095 2 30.7781 2 30.7467 2.01046C30.7258 2.01046 30.7049 2.02092 30.684 2.02092C30.5271 2.04184 30.3806 2.07322 30.2656 2.09414C30.025 2.13597 29.8681 2.15689 29.8681 2.13597C29.387 2.24057 29.1883 2.32424 29.0628 2.36608C28.4143 2.46022 27.6403 2.60665 26.8244 2.79492C27.0232 2.75308 27.2219 2.71124 27.4206 2.66941L27.3474 2.69032C27.065 2.74262 26.7826 2.80538 26.5002 2.86814L26.5316 2.85768C25.5275 3.09824 24.4501 3.41203 23.4042 3.75719C22.3687 4.11281 21.3646 4.49981 20.486 4.87635C21.3646 4.51027 20.5487 4.91819 20.6429 4.90773C20.1827 5.07508 19.4819 5.38887 18.7393 5.82817C17.9339 6.29884 17.0762 6.92641 16.3859 7.59582C16.4068 7.60628 16.3127 7.72133 16.4905 7.58536C16.3545 7.70041 16.2185 7.83638 16.0826 7.9619C16.0512 7.99328 16.0198 8.02465 15.978 8.05603L15.8838 8.16063L15.6956 8.35936L15.8106 8.26522C15.1726 9.0183 14.6182 9.92828 14.3358 10.8592C14.2626 11.0893 14.2103 11.3194 14.158 11.5495C14.1266 11.7796 14.0848 11.9993 14.0743 12.2084C14.0639 12.313 14.0534 12.4176 14.0534 12.5222C14.0534 12.6268 14.0534 12.721 14.0534 12.8151C14.0639 13.0034 14.0743 13.1812 14.0953 13.3485C14.0639 12.9406 14.0743 12.7314 14.0848 12.6164C14.0953 12.5013 14.1162 12.4804 14.1266 12.4386C14.1057 13.1498 14.1894 13.8506 14.3672 14.5409C14.545 15.2417 14.817 15.9425 15.204 16.6746C15.1621 16.591 15.1517 16.5387 15.1517 16.5282C15.2563 16.7165 15.3713 16.9257 15.4968 17.1349C15.5596 17.2394 15.6223 17.344 15.6851 17.4382L15.7374 17.5114C15.7583 17.5323 15.7688 17.5637 15.8001 17.5951C15.8524 17.6683 15.9257 17.7206 15.9989 17.7729C16.0303 17.7729 16.0721 17.7729 16.1035 17.7624C16.2394 17.8252 16.4173 17.8356 16.5741 17.7938C16.5951 17.7938 16.616 17.7833 16.6369 17.7729C16.6578 17.7624 16.6683 17.7624 16.6787 17.752L16.752 17.7206C16.8043 17.6997 16.8566 17.6787 16.9089 17.6578C17.1285 17.5637 17.3481 17.4696 17.5678 17.365C17.6829 17.3127 17.7979 17.2604 17.913 17.2081C18.028 17.1558 18.1431 17.093 18.2477 17.0407C18.4778 16.9361 18.6974 16.8106 18.9171 16.706C19.074 16.5805 19.5969 16.2981 20.1827 15.9216C20.7684 15.545 21.4064 15.0743 21.8353 14.6978C22.1804 14.4258 21.0717 15.2626 22.0026 14.4781C22.1072 14.4677 22.4105 14.2062 22.6929 13.9447C22.9753 13.6832 23.2578 13.4322 23.331 13.4427L24.0631 12.6791L24.2723 12.5641C24.4188 12.3863 24.5547 12.2503 24.6907 12.1143C24.7639 12.0515 24.8267 11.9888 24.8999 11.926C24.9313 11.8947 24.9731 11.8633 25.0045 11.8319L25.0568 11.7796C25.0882 11.7482 25.1195 11.7168 25.1509 11.6855C25.266 11.5495 25.3392 11.3717 25.3496 11.173C25.3601 10.9742 25.2869 10.7546 25.1405 10.5872C24.994 10.4094 24.7535 10.2944 24.4815 10.2944C24.3455 10.2944 24.2096 10.3257 24.084 10.399C24.0213 10.4303 23.9585 10.4826 23.9062 10.5245C23.8749 10.5558 23.8435 10.5768 23.8226 10.6081C23.8539 10.5872 23.8958 10.5558 23.9272 10.5349C23.9795 10.4931 24.0108 10.4722 23.9585 10.5245C23.9481 10.5349 23.9376 10.5349 23.9272 10.5454L23.9062 10.5558C23.8958 10.5663 23.8853 10.5768 23.8749 10.5872C23.8539 10.6081 23.8226 10.6291 23.8016 10.65C23.7493 10.6918 23.697 10.7441 23.6448 10.7964C23.5402 10.8905 23.4356 10.9847 23.3519 11.0579C23.195 11.1939 23.1427 11.2253 23.4146 10.9533C23.1532 11.2043 22.5779 11.7378 22.17 12.1248C21.762 12.5118 21.5319 12.7419 21.9503 12.3967C21.8666 12.4281 22.6093 11.7587 22.9335 11.4763C22.923 11.5495 22.1386 12.2817 21.9817 12.5013C21.9503 12.5222 21.8457 12.6059 21.762 12.6687L21.6679 12.7942C21.1554 13.223 20.6533 13.6518 20.1617 14.0284C19.6702 14.4049 19.189 14.7187 18.7602 14.9384C18.7393 14.9593 18.687 15.0011 18.5824 15.0743C18.5301 15.1057 18.4673 15.1476 18.3941 15.1894C18.3209 15.2312 18.2372 15.2835 18.1326 15.3358L18.0803 15.2835C17.6829 15.5136 17.2645 15.7228 16.8461 15.9216C17.0553 15.8588 17.2645 15.7856 17.4737 15.7228C17.3063 15.817 17.139 15.8902 16.9716 15.9739C16.8879 16.0157 16.8147 16.0471 16.731 16.0784L16.6997 16.0889H16.6892L16.6683 16.0994L16.6369 16.1098C16.5846 16.1517 16.5741 16.0784 16.5532 16.0366L16.5428 16.0157V16.0052L16.5323 15.9843L16.48 15.8797C16.4486 15.8065 16.4068 15.7437 16.3754 15.6705C16.1139 15.1266 15.9361 14.5827 15.8106 13.997C15.7897 13.9656 15.7688 13.9029 15.7374 13.8192C15.7165 13.7355 15.6851 13.6309 15.6746 13.5054C15.6328 13.2544 15.6119 12.9406 15.6223 12.6059C15.6433 11.9365 15.842 11.2043 16.0198 10.7127C15.8838 10.9951 15.7688 11.288 15.6956 11.5913C15.8106 11.1102 15.978 10.7441 16.1244 10.4303C16.2708 10.127 16.4382 9.87598 16.5951 9.64587C16.9298 9.18566 17.3063 8.75682 18.0699 8.16063C17.7561 8.42211 17.5364 8.64176 17.3481 8.83003C17.254 8.92417 17.1703 9.0183 17.0867 9.10198C17.0134 9.19612 16.9298 9.27979 16.8566 9.38439C16.7833 9.48898 16.6997 9.58312 16.616 9.69817C16.5428 9.81322 16.4486 9.9492 16.365 10.0956C16.1871 10.399 15.9989 10.7964 15.8629 11.3403C15.9361 11.0684 16.0407 10.8069 16.1558 10.5663C16.2813 10.3257 16.4068 10.0956 16.5532 9.88644C16.8461 9.4576 17.1913 9.09152 17.5469 8.75682C17.913 8.42211 18.3104 8.11879 18.7183 7.82592C19.1367 7.53306 19.576 7.25065 20.0572 6.96825C19.9107 7.01009 19.4191 7.28203 19.8793 6.98917C20.0781 6.90549 20.5383 6.65446 20.9253 6.47665C21.3123 6.28838 21.6156 6.16287 21.4796 6.257C22.1072 5.95368 22.1909 5.85954 22.5883 5.69219C23.3205 5.43071 24.0736 5.2006 24.8267 5.00187L24.7535 5.01233C25.7053 4.67762 26.6362 4.41614 27.5671 4.19649C28.0377 4.09189 28.4979 3.99776 28.9582 3.90362C29.1883 3.86179 29.4184 3.81995 29.6589 3.77811L29.8263 3.74673H29.8577H29.91L29.8995 3.79903V3.81995V3.97684C29.8995 4.20695 29.8891 4.43706 29.8891 4.66716C29.8786 5.12738 29.8577 5.59806 29.8263 6.06873C29.774 7.01009 29.7008 7.9619 29.5962 8.93463L29.638 8.86141C29.5857 9.16474 29.523 9.46806 29.4602 9.76093C29.5857 9.15428 29.4393 10.1793 29.4498 10.2421C29.2719 11.0684 29.0523 11.8842 28.7385 12.6477C28.7385 12.6791 28.7804 12.6687 28.8326 12.5745C28.864 12.5327 28.8954 12.4595 28.9268 12.3653C28.9686 12.2712 29 12.1561 29.0418 12.0097C28.9268 12.4699 28.749 12.9197 28.5293 13.3276C28.477 13.4217 28.4247 13.5263 28.362 13.6205C28.2992 13.7146 28.2469 13.8087 28.1842 13.8924C28.0691 14.0598 27.9331 14.2376 27.8076 14.4049L28.0063 14.1957C27.9227 14.3108 27.8285 14.4154 27.7449 14.5304L27.4729 14.8547L27.5148 14.8756C27.0755 15.409 26.542 15.9843 26.0504 16.4341C25.5588 16.8838 25.0986 17.2081 24.879 17.3231L25.0568 17.2917C24.6489 17.5637 24.22 17.8043 23.7807 18.0134C24.0317 17.8984 24.2828 17.7729 24.5233 17.6369C24.1782 17.8566 23.7703 18.0867 23.3414 18.2854C22.9126 18.4841 22.4628 18.641 22.0445 18.7561C21.2077 18.9966 20.4965 19.0699 20.3186 19.0803L20.4651 19.0908C20.3291 19.1117 20.214 19.1222 20.0885 19.1326C19.963 19.1326 19.848 19.1431 19.7015 19.1431L19.9212 19.164C18.687 19.2477 17.8816 19.164 17.0657 19.0489C16.6578 18.9862 16.229 18.9025 15.7479 18.777C15.6851 18.7561 15.6119 18.7456 15.5491 18.7247C15.4445 18.7038 15.3295 18.7038 15.2249 18.7247C15.1203 18.7456 15.0157 18.7979 14.9216 18.8711C14.8902 18.892 14.8797 18.9025 14.8693 18.913L14.8274 18.9548C14.796 18.9757 14.7751 19.0071 14.7437 19.028C14.6287 19.1326 14.5136 19.2372 14.3881 19.3418C14.2626 19.4569 14.1476 19.5824 14.0116 19.7079C13.8756 19.8543 13.8233 19.9066 13.8338 19.9066C13.8338 19.9066 13.8965 19.8439 13.9697 19.7706C14.1266 19.6242 14.3463 19.4046 14.3567 19.4046C14.2835 19.4882 14.1894 19.5928 14.0743 19.7079C14.022 19.7706 13.9593 19.8229 13.8965 19.8857C13.8338 19.9485 13.7815 20.0112 13.7292 20.074C13.6141 20.1995 13.5095 20.325 13.4154 20.4191C13.3317 20.5237 13.2585 20.6074 13.2271 20.6492C13.2794 20.6074 13.3526 20.5237 13.4468 20.4191C13.5409 20.325 13.635 20.2099 13.7187 20.1367C13.8651 19.9798 13.9174 19.9275 13.635 20.2936C13.4049 20.5342 13.4886 20.461 13.5409 20.4296C13.5932 20.4087 13.5827 20.4191 13.2376 20.8793L13.0702 21.0362L12.9133 21.2036C12.5786 21.7579 12.8715 21.3396 12.3799 22.2286C12.1184 22.7516 12.2439 22.4169 12.3485 22.1659C12.4008 22.0403 12.4531 21.9357 12.4217 21.9671C12.4113 21.988 12.3799 22.0299 12.3276 22.1345C12.2753 22.2286 12.2021 22.3855 12.108 22.6052C11.9092 23.0445 11.7942 23.536 11.6687 24.1218C11.5641 24.718 11.449 25.4188 11.3549 26.3287C11.334 27.1132 11.3758 26.904 11.4072 26.7785C11.4176 26.7157 11.4281 26.6634 11.4385 26.768C11.4385 26.8203 11.4386 26.9145 11.4281 27.0504C11.4176 27.1969 11.4281 27.3956 11.4281 27.6571L11.4385 27.3119V27.1446C11.4385 27.0923 11.449 27.0504 11.449 27.0086C11.4385 27.5211 11.449 28.0545 11.4908 28.6089C11.4908 28.6507 11.4908 28.6821 11.4908 28.7239C11.4908 28.703 11.4908 28.6716 11.4908 28.6507C11.5118 28.9645 11.5431 29.2783 11.585 29.5921C11.6164 29.8117 11.7942 29.9791 12.0138 30C12.0243 30 12.0347 30 12.0452 30C12.0661 30 12.087 30 12.108 30C12.2021 29.9895 12.2962 29.9477 12.359 29.8849C12.4113 29.8431 12.4531 29.7908 12.4845 29.7176C12.5159 29.6548 12.5263 29.5816 12.5263 29.4979C12.5159 29.4247 12.5159 29.3411 12.5054 29.2574C12.4845 29.09 12.474 28.9122 12.4531 28.7344C12.4008 28.1382 12.3799 27.4897 12.3799 27.04C12.3799 26.9249 12.3904 26.8203 12.3904 26.7053C12.3904 26.632 12.4008 26.5484 12.4113 26.4961C12.4113 26.4647 12.4113 26.4542 12.4113 26.4542C12.4636 25.7744 12.5682 25.1259 12.7251 24.5088L12.7355 24.6029C12.7564 24.4983 12.7983 24.3414 12.8401 24.1636C12.8506 24.1218 12.861 24.0695 12.8715 24.0276C12.882 23.9858 12.9029 23.9335 12.9133 23.8917C12.9447 23.7975 12.9761 23.7034 13.0075 23.6093C13.0702 23.421 13.1539 23.2432 13.2167 23.1072C13.2794 22.9608 13.3422 22.8562 13.3736 22.8143C13.3736 22.8353 13.3631 22.8666 13.3422 22.9085C13.3317 22.9503 13.3108 23.0131 13.2794 23.0863C13.248 23.149 13.2167 23.2327 13.1853 23.3164C13.1539 23.4001 13.1121 23.4942 13.0807 23.5883C13.0493 23.6825 13.0075 23.7871 12.9761 23.8812C12.9447 23.9753 12.9029 24.0799 12.882 24.1741C12.8297 24.3728 12.7669 24.5506 12.7355 24.6866C12.8924 24.0904 13.0598 23.6511 13.2167 23.2955C13.2585 23.2118 13.3003 23.1281 13.3317 23.0445C13.3526 23.0026 13.3736 22.9712 13.384 22.9294C13.4049 22.898 13.4258 22.8562 13.4468 22.8248C13.5304 22.6888 13.6037 22.5633 13.6664 22.4378C13.7501 22.3123 13.8233 22.1972 13.907 22.0717C13.9488 22.009 13.9802 21.9462 14.0325 21.8835C14.0743 21.8207 14.1266 21.7579 14.1789 21.6847C14.2312 21.622 14.2731 21.5487 14.3358 21.4755C14.3881 21.4023 14.4509 21.3291 14.5136 21.2454C14.5764 21.1617 14.6496 21.0781 14.7124 20.9944C14.7856 20.9107 14.8693 20.8166 14.9529 20.7225C14.8693 20.8061 14.7856 20.8793 14.7019 20.963C14.8379 20.8061 14.9739 20.6492 15.1203 20.4923L15.3504 20.2727L15.5387 20.0949C15.7374 20.1472 15.9361 20.189 16.1349 20.2413C16.2394 20.2727 16.3545 20.2936 16.4591 20.325C16.5637 20.3459 16.6787 20.3668 16.7833 20.3877C16.9925 20.4296 17.2017 20.461 17.4109 20.5028C17.5155 20.5237 17.6201 20.5237 17.7142 20.5342C17.8188 20.5446 17.913 20.5551 18.0176 20.5551C17.6933 20.5446 17.6201 20.5656 17.777 20.5865C19.0635 20.6911 20.3605 20.6283 21.6575 20.3354C22.9544 20.0426 24.2514 19.5196 25.4752 18.6933L25.6739 18.5887C25.7366 18.5469 25.7994 18.5155 25.8622 18.4737L26.2387 18.2331L26.2492 18.1599C26.3224 18.1076 26.3851 18.0553 26.4374 18.0134C26.4897 17.9716 26.542 17.9298 26.5839 17.8879C26.6675 17.8147 26.7303 17.7729 26.7721 17.731C26.8558 17.6578 26.8872 17.6578 26.8976 17.6578C26.9186 17.6683 26.8976 17.7101 27.2533 17.4068C26.9813 17.6369 27.0232 17.5951 26.9604 17.6264C27.2951 17.365 27.4834 17.1767 27.6089 17.0512C27.7344 16.9257 27.7972 16.8524 27.839 16.7897C27.8808 16.7269 27.9122 16.6956 27.9645 16.6223C28.0168 16.5491 28.1005 16.455 28.2574 16.2772C28.1737 16.3504 28.0586 16.4759 27.9331 16.6014C27.7972 16.7269 27.6612 16.8629 27.5357 16.9884C27.2846 17.229 27.1173 17.3859 27.2323 17.2081C27.3788 17.0616 27.5461 16.9152 27.7135 16.7583C27.7972 16.6746 27.8808 16.6014 27.9645 16.5073C28.0482 16.4236 28.1214 16.3295 28.2051 16.2458L28.4456 15.9739C28.5293 15.8797 28.613 15.796 28.6758 15.7019C28.8222 15.5136 28.9686 15.3358 29.1046 15.158C29.1778 15.0743 29.2406 14.9907 29.3033 14.907C29.3661 14.8233 29.4184 14.7396 29.4811 14.656C29.5962 14.4886 29.6799 14.3422 29.7635 14.2062C29.8368 14.0702 29.8995 13.9552 29.9623 13.8715C30.0146 13.7878 30.0564 13.7251 30.0773 13.7041C30.3806 12.9824 30.6212 12.1875 30.8095 11.3717C30.9978 10.5558 31.1442 9.71909 31.2488 8.89279C31.458 7.24019 31.5417 5.6399 31.5417 4.34292C31.6149 4.02914 31.6149 4.60441 31.6044 4.46843ZM23.1845 11.7273C23.3728 11.5809 23.5715 11.424 23.7807 11.2357C23.5611 11.4449 23.3414 11.6541 23.1218 11.8633C23.1427 11.8319 23.1218 11.8214 23.1845 11.7273ZM18.802 15.3881C18.8439 15.3672 18.8857 15.3358 18.9275 15.3149C18.9484 15.3044 18.9694 15.294 18.9798 15.2835C18.9275 15.3149 18.8648 15.3567 18.802 15.3881ZM19.7643 14.656C20.1304 14.4049 20.214 14.3108 20.2036 14.3736C20.3814 14.2585 20.6533 14.0284 20.8312 13.9029C20.6743 14.0493 20.5487 14.1434 20.4442 14.2271C20.35 14.3003 20.2663 14.3526 20.2036 14.3945C20.0781 14.4677 19.9735 14.52 19.7643 14.656C19.6702 14.7187 19.5656 14.8024 19.4191 14.8861C19.576 14.7919 19.6806 14.7187 19.7643 14.656ZM18.6765 15.0639C18.7811 15.0011 18.8857 14.9384 19.0007 14.8651C18.8962 14.9384 18.7916 15.0011 18.6765 15.0639C18.415 15.2312 18.2267 15.3672 18.1535 15.3672C18.3313 15.2626 18.5092 15.1685 18.6765 15.0639ZM17.3691 16.1098C17.4632 16.0994 17.7561 15.9739 18.0803 15.796C17.8607 15.9216 17.6201 16.0366 17.3795 16.1517C17.2749 16.204 17.254 16.1935 17.3691 16.1098ZM16.48 15.7437C16.4905 15.7751 16.5114 15.817 16.5323 15.8693C16.5532 15.9111 16.5846 15.9634 16.6055 16.0157C16.616 16.0366 16.6264 16.0575 16.6369 16.0889L16.6578 16.1203L16.6683 16.1412C16.6683 16.1517 16.6787 16.1517 16.6787 16.1517C16.7206 16.1412 16.7624 16.1203 16.8043 16.1203C16.8879 16.0889 16.9611 16.068 16.9611 16.0784C16.8879 16.1098 16.8147 16.1307 16.752 16.1621C16.731 16.1726 16.7101 16.183 16.6997 16.183L16.6683 16.1935L16.6578 16.204L16.6474 16.1935C16.6264 16.1621 16.6055 16.1307 16.5846 16.1098C16.5741 16.0994 16.5637 16.0784 16.5532 16.068C16.5532 16.068 16.5428 16.0471 16.5323 16.0261C16.5219 16.0157 16.5114 15.9948 16.5009 15.9843C16.3545 15.7542 16.2604 15.5869 16.2708 15.4927C16.3859 15.7437 16.4486 15.8693 16.5637 16.0471C16.5009 15.9006 16.2813 15.3881 16.48 15.7437ZM14.2417 11.9051C14.2835 11.4135 14.3986 10.9219 14.5555 10.4513C14.5764 10.3885 14.5973 10.3257 14.6182 10.2421C14.6496 10.1688 14.681 10.0852 14.7228 9.99103L14.6287 10.2107C14.5973 10.2839 14.5764 10.3676 14.545 10.4408C14.4509 10.7127 14.4509 10.8905 14.3986 11.0893C14.3881 11.2985 14.3254 11.5181 14.2417 11.9051ZM15.5177 9.04968C15.3608 9.29025 15.2249 9.46806 15.1307 9.62495C15.0366 9.78185 14.9529 9.90736 14.8902 10.0329C14.8588 10.0956 14.8274 10.1479 14.7856 10.2107C14.7647 10.2421 14.7542 10.2734 14.7333 10.3048C14.7228 10.3362 14.7019 10.3676 14.681 10.4094C14.6182 10.5454 14.5346 10.7023 14.4613 10.9115C14.4823 10.8383 14.4927 10.7755 14.5136 10.7127C14.5346 10.65 14.5555 10.5872 14.5764 10.5349C14.6182 10.4199 14.6496 10.3153 14.6914 10.2316C14.7751 10.0538 14.8379 9.92828 14.9006 9.8446C15.0261 9.67725 15.068 9.65633 15.0575 9.71909C15.1098 9.63541 15.1517 9.5622 15.1935 9.49944C15.2353 9.43668 15.2667 9.38439 15.2981 9.34255C15.3504 9.25887 15.3922 9.19612 15.4131 9.14382C15.4654 9.03922 15.4968 8.97647 15.6223 8.80911L15.5177 9.04968ZM16.9298 7.44938C16.9298 7.44938 16.9298 7.43892 16.9298 7.44938C16.9402 7.43892 16.9402 7.43892 16.9298 7.44938ZM17.39 8.59993C17.3168 8.66268 17.2436 8.7359 17.1703 8.79866C17.139 8.83003 17.0971 8.86141 17.0657 8.90325C17.0344 8.93463 17.003 8.97647 16.9716 9.00784C16.9089 9.08106 16.8461 9.14382 16.7938 9.19612C16.7415 9.25887 16.7101 9.31117 16.6787 9.35301C16.616 9.43668 16.6055 9.47852 16.6683 9.44714C16.616 9.49944 16.5532 9.54128 16.5114 9.59357C16.5428 9.54128 16.5846 9.47852 16.6264 9.42622C16.4486 9.64587 16.2813 9.87598 16.1349 10.1061C16.3859 9.61449 16.6997 9.23795 16.9925 8.95555C17.0657 8.88233 17.139 8.81957 17.2122 8.75682C17.2854 8.69406 17.3481 8.6313 17.4109 8.57901C17.5469 8.47441 17.6619 8.36982 17.777 8.28614C17.6724 8.35936 17.5364 8.47441 17.39 8.59993ZM18.3732 7.5749C18.4673 7.51214 18.5614 7.43892 18.6556 7.37617L18.7079 7.35525C18.5928 7.42846 18.4778 7.49122 18.3732 7.5749ZM19.9735 5.49346C19.9526 5.50392 19.9421 5.51438 19.9212 5.52484C19.6911 5.62944 19.5237 5.70265 19.5865 5.6399C20.1931 5.33657 19.9003 5.51438 19.9735 5.49346ZM20.988 4.82406C20.601 5.00187 20.3186 5.1483 20.4128 5.096C20.4651 5.04371 20.7998 4.87635 21.1659 4.709C21.3541 4.62533 21.5424 4.55211 21.7097 4.47889C21.8771 4.41614 22.0235 4.36384 22.1072 4.33246C21.8457 4.44752 21.3646 4.65671 20.988 4.82406ZM22.17 4.28016C22.1804 4.2697 22.3269 4.19649 22.3687 4.16511C22.2118 4.20695 22.0654 4.2697 21.9189 4.31154C22.3582 4.13373 22.4105 4.13373 22.3687 4.16511L22.7452 4.05006C22.2746 4.23833 22.1595 4.29062 22.17 4.28016ZM23.8539 5.17968C23.8016 5.19014 23.7493 5.21106 23.697 5.22152C23.7493 5.2006 23.8016 5.19014 23.8539 5.17968C24.492 4.99141 24.7221 4.84498 25.2555 4.7613C24.6489 5.01233 24.2305 5.07508 23.8539 5.17968ZM25.9668 4.51027C25.6843 4.58349 25.5065 4.62533 25.7053 4.56257C26.2178 4.40568 26.0818 4.4266 25.9145 4.45798C25.7471 4.48935 25.5275 4.53119 25.8622 4.4266L25.3287 4.58349C25.7576 4.43706 25.9145 4.40568 26.04 4.38476C26.1655 4.36384 26.2596 4.36384 26.5734 4.28016C26.4374 4.322 26.3015 4.35338 26.1655 4.39522C26.0086 4.45798 26.1655 4.4266 26.3747 4.3743C26.5839 4.322 26.8453 4.25925 26.8872 4.2697C26.6466 4.34292 26.2492 4.43706 25.9668 4.51027ZM12.3485 22.9817C12.3381 23.0026 12.3381 23.0026 12.3276 23.0026C12.3276 22.9922 12.3381 22.9294 12.3904 22.7934L12.5786 22.4064C12.6205 22.3437 12.6309 22.3123 12.6414 22.3018C12.5368 22.5215 12.4427 22.7516 12.3485 22.9817ZM13.1434 23.536C13.248 23.2746 13.3526 23.0131 13.4781 22.762C13.5095 22.7202 13.5409 22.6679 13.6037 22.5633C13.4363 22.8562 13.2794 23.2013 13.1434 23.536ZM15.6433 20.0321C15.591 20.074 15.5387 20.1367 15.4759 20.189C15.4027 20.2518 15.3295 20.325 15.2458 20.4087C15.1621 20.4923 15.0889 20.576 15.0052 20.6702C14.9216 20.7643 14.8379 20.848 14.7647 20.9421C14.6914 21.0362 14.6078 21.1304 14.5346 21.2245C14.4613 21.3186 14.3881 21.4023 14.3254 21.486C14.1998 21.6533 14.0848 21.7893 14.0116 21.8835C14.1266 21.7056 14.2521 21.5278 14.3777 21.35C14.5136 21.1827 14.6496 21.0153 14.7856 20.848C14.3777 21.2977 14.0325 21.7789 13.771 22.2077C14.2312 21.4232 14.817 20.7015 15.5282 20.053C15.5596 20.0321 15.6014 20.0007 15.6328 19.9798C15.706 20.0007 15.7583 20.0321 15.7583 20.053C15.7165 20.053 15.6851 20.0426 15.6433 20.0321ZM23.5506 18.3272C23.2787 18.4737 23.1218 18.5469 22.9858 18.5992C22.8498 18.6515 22.7348 18.6933 22.536 18.7561C22.6511 18.7038 23.1636 18.4946 23.5506 18.3272ZM20.8835 20.4296C20.6952 20.4505 20.4965 20.4819 20.3186 20.4819C19.963 20.4923 19.6702 20.4923 19.576 20.5133C19.9316 20.5028 20.6533 20.461 20.6638 20.4923C20.6115 20.5028 20.5487 20.5133 20.4965 20.5237C20.4442 20.5342 20.3919 20.5342 20.3396 20.5446C20.235 20.5551 20.1408 20.5656 20.0467 20.5656C19.8584 20.576 19.6911 20.5865 19.5237 20.5865C19.1995 20.576 18.9066 20.5551 18.5824 20.5446C18.6974 20.5446 18.8125 20.5342 18.938 20.5237C18.8125 20.5237 18.6974 20.5133 18.5928 20.5133C18.4882 20.5028 18.3941 20.4923 18.3104 20.4819C18.1431 20.461 18.0071 20.44 17.892 20.4191C17.7874 20.3982 17.6933 20.3877 17.6201 20.3668C17.8188 20.3877 18.028 20.4087 18.2267 20.4296C18.3523 20.44 18.4987 20.4505 18.6347 20.461C18.7811 20.461 18.9275 20.461 19.0844 20.4714C19.2413 20.4714 19.3982 20.4819 19.5446 20.4819C19.7015 20.4819 19.848 20.4714 20.0049 20.461C20.1513 20.4505 20.2977 20.4505 20.4442 20.44C20.5801 20.44 20.7161 20.4087 20.8416 20.3982C21.0926 20.3668 21.3018 20.3564 21.4483 20.3459C21.2705 20.3668 21.0717 20.3982 20.8835 20.4296ZM21.2077 19.0071C21.4064 18.9548 21.5424 18.9234 21.6575 18.9025C21.7725 18.8711 21.8562 18.8607 21.9399 18.8502C22.1072 18.8188 22.2746 18.7979 22.6406 18.6829C22.5256 18.7247 22.421 18.7665 22.3269 18.7979C22.2327 18.8293 22.1595 18.8502 22.0967 18.8711C21.9608 18.913 21.8771 18.9234 21.7934 18.9339C21.6261 18.9443 21.511 18.9548 21.2077 19.0071ZM23.7807 19.6242L23.3519 19.7393C23.6134 19.6242 23.8853 19.5196 24.1468 19.4046C24.0213 19.4882 23.9062 19.551 23.7807 19.6242ZM26.678 17.7415C26.6048 17.8043 26.5316 17.8775 26.4479 17.9298C26.3642 17.9925 26.291 18.0448 26.2073 18.1076C26.0504 18.2226 25.8831 18.3482 25.7262 18.4632C25.5588 18.5678 25.381 18.6829 25.2137 18.7874L24.9522 18.9443C24.8685 18.9966 24.7744 19.0385 24.6802 19.0908C24.5024 19.1849 24.3142 19.279 24.1363 19.3732C23.9481 19.4569 23.7598 19.5301 23.5715 19.6137L23.2891 19.7288C23.195 19.7706 23.0904 19.7916 22.9963 19.8229L22.4105 20.0112C22.285 20.0426 22.17 20.074 22.0445 20.0949C23.0904 19.8334 24.084 19.415 25.0359 18.8607C25.1509 18.7979 25.2555 18.7351 25.3706 18.6724C25.4961 18.5992 25.632 18.526 25.768 18.4318C25.904 18.3377 26.04 18.2331 26.1969 18.1076C26.1341 18.1494 26.0713 18.1808 26.0086 18.2226C26.2596 18.0448 26.5002 17.8461 26.7408 17.6474C26.814 17.5951 26.9395 17.5009 27.1382 17.344C26.9813 17.48 26.8244 17.6055 26.678 17.7415ZM30.0982 8.92417C30.0982 9.0183 30.1505 8.80911 30.1924 8.49533C30.1505 8.89279 30.0982 9.30071 30.0355 9.69817C30.0146 9.65633 30.0773 9.30071 30.0982 8.92417ZM30.2342 13.0452C30.1715 13.2021 30.1192 13.359 30.0459 13.5054C30.0878 13.4008 30.1296 13.2858 30.1715 13.1707C30.2133 13.0557 30.2447 12.9511 30.2865 12.836C30.2656 12.9092 30.2551 12.972 30.2342 13.0452ZM28.8745 2.58573C28.9372 2.56481 29.0418 2.54389 29.1674 2.51251C29.4916 2.4393 29.9309 2.36608 30.1087 2.3347C30.2133 2.32424 30.3179 2.31378 30.4225 2.30332C30.0878 2.36608 29.5544 2.44976 28.8745 2.58573ZM31.0396 9.52036C30.9978 9.75047 30.9559 9.99103 30.9036 10.2211C31.0396 9.4576 31.1337 8.67314 31.1965 7.92006C31.2174 7.80501 31.2279 7.68995 31.2383 7.58536C31.2488 8.07695 31.1756 8.76728 31.0396 9.52036ZM31.3848 6.93687C31.3534 7.22973 31.3115 7.42846 31.3115 7.21928C31.3534 6.73814 31.3848 6.03735 31.3952 5.35749C31.4057 4.68808 31.3848 4.0396 31.3638 3.67352C31.3534 3.63168 31.3429 3.548 31.3429 3.38065C31.3534 3.43295 31.3638 3.53754 31.3638 3.67352C31.3743 3.71535 31.3952 3.69443 31.4057 3.62122C31.4057 3.48524 31.4161 3.35973 31.4161 3.29697C31.4161 3.42249 31.4161 3.548 31.4057 3.62122C31.4057 3.99776 31.4057 4.54165 31.4161 4.79268C31.4475 4.64625 31.4371 4.07098 31.458 3.85133C31.4998 4.28016 31.458 4.96003 31.4266 5.483C31.3952 5.99552 31.3743 6.34068 31.4789 6.06873C31.458 6.24654 31.4266 6.644 31.3848 6.93687Z" fill="#75A37D"/>
<path d="M10.3298 21.3291C10.3821 21.3709 10.4449 21.4128 10.4972 21.4546C10.5286 21.4755 10.56 21.4965 10.5913 21.5174C10.6018 21.5278 10.6332 21.5487 10.6541 21.5592C10.6855 21.5697 10.7064 21.5906 10.7378 21.601C10.9574 21.7056 11.2189 21.6743 11.3967 21.5697C11.4386 21.5488 11.4804 21.5069 11.5118 21.486C11.5327 21.4651 11.5536 21.4337 11.5745 21.4128C11.6164 21.3709 11.6477 21.3291 11.6687 21.2873C11.721 21.2559 11.8046 21.235 11.7 21.3396C12.0138 21.0781 12.2962 20.7329 12.5473 20.3877C12.7983 20.0426 12.997 19.7079 13.1853 19.4464C13.1853 19.4673 13.1853 19.4882 13.1853 19.5196C13.248 19.3836 13.269 19.2686 13.3736 19.1117C13.384 19.1222 13.3736 19.1849 13.4049 19.1222C13.4363 19.0489 13.5304 18.7352 13.6141 18.5573C13.6037 18.6096 13.5932 18.6724 13.5827 18.7247C13.7501 18.3691 13.8128 18.0657 13.8442 17.7729C13.8651 17.48 13.8756 17.2185 13.8756 16.8838C13.9174 16.8838 13.9593 16.7374 13.9697 16.5387C13.9697 16.4864 13.9802 16.4341 13.9802 16.3818C13.9802 16.3295 13.9802 16.2772 13.9802 16.2249C13.9802 16.1203 13.9697 16.0262 13.9593 15.9425L13.9697 15.9529C13.907 15.4927 13.771 15.1162 13.6246 14.7606C13.5409 14.5932 13.4572 14.4154 13.3631 14.248C13.3108 14.1644 13.269 14.0807 13.2167 13.997C13.1644 13.9133 13.1121 13.8297 13.0493 13.7355C12.9656 13.4845 12.7251 13.108 12.4427 12.7314C12.1498 12.3444 11.8046 11.9679 11.5327 11.6541C11.6059 11.7587 11.4699 11.6855 11.3549 11.5913C11.2921 11.5181 11.1875 11.4344 11.1038 11.3717C11.0202 11.3089 10.9679 11.2566 10.9993 11.2357L11.0515 11.288C11.0306 11.2043 10.9365 11.1102 10.8214 10.9951C10.7064 10.8906 10.5704 10.7755 10.4554 10.6709L10.3403 10.7232C10.0788 10.399 9.64998 10.0852 9.25252 9.81323C8.8446 9.54128 8.47852 9.31117 8.33209 9.13336C8.15428 9.04968 7.95555 8.91371 7.76728 8.8405L7.80911 8.79866C7.36982 8.52671 7.13971 8.38028 6.55398 8.06649L6.68995 8.09787C6.36571 7.9096 6.1879 8.0142 5.88457 7.85731L5.83227 7.73179C5.257 7.42847 4.69219 7.06239 4.06462 6.86366C4.07508 6.8532 4.10646 6.84274 4.21106 6.88457C4.07508 6.82182 3.80314 6.68584 3.57303 6.58125C3.35338 6.48711 3.17557 6.43482 3.18603 6.49757C3.18603 6.47666 3.15465 6.45574 3.06052 6.42436C2.96638 6.39298 2.80949 6.38252 2.66306 6.44528C2.51662 6.49757 2.37019 6.62309 2.30743 6.76952C2.2656 6.83228 2.24468 6.91595 2.24468 6.95779C2.23422 7.01009 2.22376 7.06239 2.2133 7.10422L2.17146 7.03101C2.161 7.34479 2.17146 7.35525 2.08778 7.76317C2.05641 7.8573 2.02503 7.83639 2.06687 7.71087C1.95181 8.02466 2.05641 7.97236 1.92043 8.3489V8.19201C1.83676 8.51625 1.85768 8.49533 1.85768 8.69406C1.8263 8.90325 1.70078 9.31117 1.63803 9.35301C1.65895 9.40531 1.65895 9.59358 1.60665 9.78185C1.58573 9.80277 1.58573 9.72955 1.58573 9.69817C1.42884 10.2421 1.4916 10.5349 1.36608 10.9115C1.34516 10.9115 1.3347 10.9428 1.32424 10.9742C1.39746 10.5663 1.46022 10.2316 1.47068 10.2107C1.41838 10.2002 1.34516 10.5558 1.32424 10.263C1.30332 10.5454 1.30332 11.0579 1.23011 11.4031C1.21965 11.4135 1.20919 11.4344 1.19873 11.4449V11.4135C1.17781 11.4972 1.17781 11.5704 1.17781 11.6332C1.15689 11.7482 1.13597 11.811 1.12551 11.926C1.07322 11.9574 1.0523 12.3444 1.03138 12.5222C1.09414 12.5118 1.06276 12.7419 1.12551 12.5431C1.12551 12.5431 1.12551 12.4909 1.13597 12.3863C1.13597 12.3549 1.13597 12.3235 1.13597 12.313V12.3235C1.14643 12.2084 1.16735 12.0516 1.18827 11.8737C1.19873 12.0097 1.20919 12.1561 1.15689 12.3549C1.18827 12.449 1.20919 12.5536 1.23011 12.6164C1.17781 12.7314 1.13597 12.9197 1.09414 13.0766C1.0523 13.2335 1.03138 13.3694 1 13.4008C1 13.6832 1 14.0075 1.02092 14.3108C1.03138 14.4677 1.04184 14.6037 1.07322 14.7396C1.09414 14.8651 1.12551 14.9802 1.15689 15.0639C1.18827 15.2208 1.14643 15.2521 1.13597 15.3044C1.11505 15.2103 1.10459 15.1057 1.08368 15.0534C1.11505 15.2103 1.13597 15.4509 1.18827 15.6496C1.20919 15.7542 1.23011 15.8483 1.26149 15.9111C1.28241 15.9843 1.31378 16.0366 1.3347 16.0471C1.39746 16.4445 1.20919 15.8483 1.35562 16.3818L1.31378 16.319C1.35562 16.591 1.44976 16.8315 1.54389 17.0407C1.59619 17.1453 1.64849 17.2499 1.70078 17.3545C1.75308 17.4591 1.80538 17.5532 1.86814 17.6474C1.99365 17.8356 2.1087 18.0344 2.22376 18.254C2.33881 18.4423 2.45387 18.6515 2.55846 18.892C2.548 18.8711 2.548 18.8607 2.548 18.8502C2.8827 19.4359 3.31154 20.0112 3.80314 20.5028L3.98095 20.6911C4.04371 20.7538 4.10646 20.8061 4.16922 20.8689C4.29473 20.9839 4.42025 21.1095 4.55622 21.2245C4.82817 21.4442 5.07919 21.6743 5.35114 21.873C5.50803 21.988 5.59171 22.0403 5.67538 22.0822C5.75906 22.1136 5.83227 22.124 5.93687 22.1659L5.97871 22.26C6.10422 22.3018 6.22973 22.3541 6.36571 22.3855C6.50168 22.4378 6.61674 22.4901 6.73179 22.5529C6.78409 22.5842 6.84684 22.6156 6.89914 22.6575L6.98282 22.7098C7.01419 22.7202 7.04557 22.7411 7.06649 22.7516C7.18155 22.8143 7.30706 22.8771 7.44303 22.9294C7.51625 22.9608 7.58947 22.9817 7.66268 23.0026C7.74636 23.0235 7.83003 23.034 7.91371 23.0549L7.84049 22.9922C7.96601 23.034 8.16474 23.0863 8.32163 23.1281C8.47852 23.17 8.60403 23.1909 8.58312 23.2118C8.61449 23.2118 8.67725 23.1804 8.77139 23.2327V23.2641L9.08517 23.2955C9.18976 23.3059 9.29436 23.3059 9.39895 23.3164C9.63952 23.3582 9.6186 23.3896 9.6186 23.421C9.6186 23.4419 9.62906 23.4524 9.68136 23.4733C9.73366 23.4942 9.82779 23.5151 10.0161 23.5256C10.288 23.5256 10.7796 23.4733 10.6855 23.4524C10.5809 23.4419 10.4135 23.4105 10.4031 23.3792H10.6436C10.6436 23.3687 10.6541 23.3687 10.6541 23.3582C10.6645 23.3582 10.675 23.3582 10.675 23.3582H10.6855C10.9365 23.3582 11.1457 23.1595 11.1561 22.898C11.1666 22.6365 10.9574 22.4273 10.6959 22.4169C10.2253 22.4064 9.76504 22.3646 9.31528 22.2914C9.32574 22.2914 9.3362 22.2809 9.34666 22.2809C9.31528 22.2809 9.2839 22.2809 9.25252 22.2809C9.12701 22.26 9.01195 22.2391 8.8969 22.2182C8.90736 22.2077 8.93874 22.1972 9.02241 22.2077C8.77139 22.1136 8.78185 22.1972 8.57266 22.0926C8.55174 22.0822 8.5622 22.0822 8.58312 22.0822L8.33209 22.0403C8.38439 22.0403 8.31117 21.9671 8.4576 22.0194C8.35301 21.9776 8.24841 21.9462 8.15428 21.9253C8.06014 21.9044 7.97647 21.8835 7.90325 21.8625C7.75682 21.8207 7.64176 21.7998 7.57901 21.737L7.62084 21.7475C7.31752 21.6533 7.2966 21.6533 7.2966 21.6743C7.2966 21.6847 7.2966 21.7056 7.26522 21.7056C7.18155 21.6638 7.08741 21.6324 7.00374 21.5906L6.83638 21.3919C6.80501 21.4023 6.78409 21.4128 6.75271 21.4232C6.70041 21.3919 6.58536 21.3186 6.61673 21.3082C6.37617 21.2245 6.63765 21.35 6.49122 21.3186C6.42846 21.2663 6.34479 21.214 6.26111 21.1617C6.17744 21.1095 6.09376 21.0467 6.01009 20.9944C5.85319 20.8898 5.71722 20.7957 5.71722 20.7329C5.59171 20.7015 5.94733 20.9421 5.644 20.7643C5.63354 20.6911 5.56033 20.6283 5.45573 20.5656C5.40344 20.5342 5.34068 20.4923 5.28838 20.4505C5.23608 20.4087 5.17333 20.3668 5.13149 20.3041C5.15241 20.3041 5.18379 20.325 5.21517 20.3459C5.24654 20.3668 5.27792 20.3773 5.28838 20.3877C5.33022 20.4087 5.33022 20.4087 5.22563 20.2936C5.13149 20.2727 5.0269 20.1681 4.93276 20.053C4.88046 20.0007 4.82817 19.938 4.78633 19.8857C4.73403 19.8334 4.69219 19.7706 4.65035 19.7288C4.61898 19.7497 4.52484 19.6556 4.39933 19.5196C4.36795 19.4882 4.33657 19.4464 4.30519 19.415C4.27381 19.3732 4.24244 19.3313 4.21106 19.2895C4.1483 19.2058 4.07508 19.1222 4.00187 19.0385C4.02279 19.0385 3.89727 18.8816 3.78222 18.6724C3.71946 18.5678 3.64625 18.4527 3.58349 18.3377C3.52073 18.2331 3.46843 18.118 3.4266 18.0344H3.44752C3.34292 18.0134 3.15465 17.6578 3.01868 17.4068C3.06052 17.3963 3.10235 17.4382 3.18603 17.5637L3.07097 17.3231C3.01868 17.2813 2.97684 17.2081 2.8827 17.0512L2.96638 17.093C2.92454 17.0093 2.8827 16.9361 2.84087 16.8524C2.79903 16.7688 2.75719 16.6851 2.71535 16.6014C2.67352 16.5177 2.63168 16.4236 2.58984 16.3295C2.55846 16.2353 2.51662 16.1307 2.4957 16.0157C2.46433 16.0052 2.45387 16.1098 2.43295 16.1517C2.42249 16.1621 2.41203 16.1726 2.40157 16.1726C2.38065 16.0889 2.34927 16.0157 2.32835 15.932C2.34927 15.932 2.37019 15.9529 2.39111 16.0157C2.38065 15.9739 2.32835 15.8797 2.31789 15.7856C2.34927 15.8483 2.38065 15.9111 2.41203 15.9634C2.38065 15.7542 2.34927 15.8693 2.30743 15.7019C2.34927 15.7019 2.30743 15.5764 2.34927 15.5869C2.35973 15.6287 2.35973 15.7333 2.39111 15.796C2.34927 15.6078 2.33881 15.3777 2.35973 15.3044C2.33881 15.3254 2.30743 15.3149 2.28651 15.1789C2.24468 14.8233 2.32835 15.0534 2.32835 14.8442C2.29697 14.7606 2.30743 14.5304 2.24468 14.5304C2.24468 14.4259 2.2656 14.4049 2.28651 14.3631C2.2656 14.269 2.2656 14.0493 2.2656 13.882C2.2656 13.7146 2.25514 13.5996 2.22376 13.6937L2.2133 13.746C2.2133 13.7355 2.2133 13.7251 2.2133 13.7146C2.17146 13.0975 2.32835 12.4386 2.39111 11.8319H2.41203C2.43295 11.4658 2.51662 11.0265 2.52708 10.765C2.548 10.6604 2.61076 10.5245 2.62122 10.5663C2.66306 10.2944 2.64214 10.2525 2.75719 9.86552C2.73627 10.1479 2.80949 9.78185 2.72581 10.1479C2.81995 9.79231 2.86179 9.72955 2.89316 9.33209C2.91408 9.46806 3.01868 9.08106 3.05006 8.91371L2.95592 9.15428C2.99776 8.96601 3.0396 8.79866 3.08143 8.63131L3.12327 8.7359C3.18603 8.56855 3.22787 8.4012 3.2697 8.24431L3.28016 8.18155V8.17109V8.16063V8.15017V8.10833C3.28016 8.06649 3.29062 8.03512 3.29062 7.99328C3.322 7.99328 3.35338 8.00374 3.38476 8.0142C3.40568 8.0142 3.41614 8.02466 3.43706 8.03512C3.44752 8.03512 3.44752 8.03512 3.46843 8.04558L3.52073 8.06649C3.65671 8.12925 3.78222 8.20247 3.89727 8.2966C4.096 8.33844 3.55211 8.09787 3.72992 8.11879C4.03325 8.27568 4.30519 8.51625 4.39933 8.56855C4.79679 8.80912 4.83863 8.67314 5.257 8.92417C5.21517 8.87187 5.19425 8.7882 5.52895 8.93463C5.82182 9.11244 5.84273 9.2275 5.644 9.14382C5.57079 9.10198 5.53941 9.08106 5.54987 9.0706C5.44527 9.02877 5.31976 8.96601 5.42436 9.04968H5.47665C5.61263 9.15428 6.02055 9.37393 5.90549 9.36347C6.14606 9.46806 6.02055 9.38439 5.86365 9.27979C6.22973 9.52036 6.45984 9.6145 6.82592 9.87598C6.77363 9.82369 6.73179 9.77139 6.79455 9.80277C7.33844 10.1793 7.06649 9.91782 7.45349 10.1479C7.64176 10.3153 7.32798 10.1688 7.72544 10.3885C7.93463 10.5663 7.7359 10.4722 7.6313 10.4303C7.99739 10.6186 8.24841 10.8801 8.42622 11.0265L8.23795 10.9219C8.35301 10.9847 8.43668 11.0474 8.52036 11.1102L8.44714 10.9951C8.54128 11.0788 8.62495 11.1416 8.61449 11.152C8.74001 11.2043 8.58312 11.0265 8.81322 11.1416C8.93874 11.2566 9.2316 11.4344 9.24206 11.5181C8.87598 11.2043 9.17931 11.5286 8.97012 11.3926C9.02241 11.4344 9.07471 11.4763 9.13747 11.5286C9.14793 11.5495 9.11655 11.5286 9.08517 11.5077C9.26298 11.6855 9.31528 11.7064 9.37803 11.7273C9.44079 11.7482 9.51401 11.7587 9.71274 11.926C9.63952 11.9156 9.75458 12.062 9.82779 12.1038C9.6709 11.9679 9.79641 11.9888 9.95331 12.0934C10.1834 12.334 10.2357 12.3235 10.3612 12.449L10.2253 12.3026C10.2985 12.3235 10.424 12.4386 10.5913 12.5954C10.5809 12.6268 10.424 12.4595 10.4763 12.5222C10.7064 12.6582 10.8424 12.9824 11.1038 13.2335C11.198 13.3799 11.062 13.2858 11.1457 13.4113C11.4281 13.6937 11.3758 13.7774 11.6477 14.1016C11.6268 13.9761 11.6059 13.9656 11.8046 14.1853C11.6687 13.997 11.5327 13.8192 11.3758 13.6414C11.4908 13.746 11.585 13.8506 11.7 13.9552C11.5745 13.7774 11.4176 13.61 11.3444 13.5054C11.5118 13.6519 11.4908 13.6414 11.4595 13.5368C11.5222 13.6728 11.6059 13.7878 11.7105 13.8924C11.8046 14.0075 11.9092 14.133 11.972 14.2899L11.8569 14.3422C11.9092 14.4572 11.9615 14.5514 12.0138 14.656C12.0452 14.7083 12.0661 14.7606 12.0975 14.8024C12.1289 14.8547 12.1498 14.907 12.1812 14.9593C12.2962 15.1685 12.4008 15.3986 12.4636 15.7124C12.4531 15.6496 12.4427 15.5764 12.4322 15.5136C12.5054 15.5764 12.5368 15.8902 12.5891 16.0889C12.5473 16.0784 12.5473 16.204 12.5263 16.2981C12.5473 16.2876 12.5473 16.4027 12.5577 16.5282C12.5682 16.6537 12.5786 16.7792 12.6205 16.8106C12.5996 16.9047 12.5786 16.9989 12.5473 17.093C12.5054 17.344 12.5054 17.4905 12.495 17.6369C12.4845 17.7833 12.4845 17.9298 12.3799 18.1703C12.3904 18.0867 12.359 18.1076 12.3485 18.0971C12.3381 18.0867 12.3276 18.0553 12.3694 17.8984C12.3171 18.0553 12.2544 18.1913 12.2858 18.2017C12.2544 18.2436 12.223 18.3482 12.1812 18.4632C12.1393 18.5783 12.087 18.6933 12.0347 18.7561C12.0138 18.8293 12.0452 18.8711 11.9406 19.028C11.9301 19.0385 11.9301 19.028 11.9197 19.028C11.9092 19.0699 11.7837 19.2686 11.9092 19.1745C11.7105 19.3523 11.4908 19.6451 11.2503 19.8962C11.2189 19.9275 11.1875 19.9694 11.1666 19.9903C11.1457 20.0112 11.1248 20.0321 11.1038 20.053C11.0829 20.074 11.062 20.0949 11.0411 20.1158C11.0306 20.1158 11.0306 20.1263 11.0202 20.1263L10.9993 20.1158L10.9679 20.0844C10.947 20.0635 10.926 20.0426 10.9051 20.0321C10.8842 20.0112 10.8633 19.9903 10.8528 19.9694C10.8005 19.9171 10.7587 19.8752 10.7273 19.8229C10.4344 19.5928 10.0997 19.3 9.85917 19.0699C9.88009 19.0803 9.86963 19.0594 9.92193 19.1012C9.76504 18.9234 9.70228 18.892 9.62906 18.8607C9.55585 18.8188 9.47217 18.777 9.30482 18.5678C9.16885 18.3272 9.52447 18.7561 9.43033 18.6096C9.48263 18.4632 8.99103 18.1494 8.83414 17.8147L8.8969 17.8775C8.76093 17.6369 8.44714 17.3859 8.20657 17.0093C8.20657 17.0093 8.22749 17.0198 8.22749 16.9989C7.99738 16.7897 7.66268 16.319 7.42211 15.9634C7.53717 16.0471 7.54763 16.1098 7.54763 16.0157C7.44303 15.8588 7.50579 16.1098 7.28614 15.7856C7.2443 15.6601 7.11879 15.409 7.15017 15.3567L7.3489 15.6601C7.31752 15.4613 7.09787 15.2626 7.00374 15.0953H7.04557C6.88868 14.8651 6.79455 14.7501 6.70041 14.6455C6.64811 14.5932 6.60628 14.5304 6.54352 14.4572C6.53306 14.4363 6.51214 14.4154 6.50168 14.3945C6.48076 14.3631 6.45984 14.3422 6.42846 14.3213C6.37617 14.269 6.30295 14.2271 6.21928 14.1853C6.24019 14.2062 6.26111 14.2167 6.28203 14.2376C6.1879 14.2062 6.12514 14.2062 6.07284 14.2062C6.02055 14.2062 5.97871 14.1957 5.93687 14.1957C5.89503 14.1957 5.85319 14.1957 5.8009 14.2167C5.7486 14.2376 5.68584 14.269 5.63355 14.3526C5.59171 14.3631 5.53941 14.3736 5.48711 14.3945C5.45573 14.4572 5.4139 14.5514 5.4139 14.6664C5.4139 14.7815 5.43482 14.907 5.50803 15.022C5.57079 15.1057 5.644 15.1999 5.70676 15.2835C5.76952 15.3672 5.83227 15.4613 5.88457 15.5346C5.8009 15.4613 5.6963 15.3254 5.58125 15.1894L5.49757 15.0848C5.48711 15.0743 5.46619 15.043 5.44527 15.022C5.43481 15.0011 5.4139 14.9697 5.40344 14.9488C5.35114 14.8442 5.34068 14.7292 5.35114 14.6246C5.34068 14.6978 5.34068 14.8024 5.37206 14.907C5.39298 14.9593 5.4139 15.0116 5.44527 15.0639C5.46619 15.0953 5.46619 15.1057 5.48711 15.1266L5.51849 15.1789C5.61263 15.3149 5.70676 15.4404 5.7486 15.4823C5.6963 15.409 5.62309 15.3358 5.59171 15.2521C5.79044 15.4404 5.99963 15.7124 6.21928 16.0784C6.04146 16.0994 6.77363 17.0512 6.84684 17.3754C7.31752 17.9716 7.6836 18.641 8.29025 19.3104C8.1752 18.9862 8.46806 19.5092 8.52036 19.3732C8.66679 19.5196 8.71909 19.5719 8.72955 19.5928L8.70863 19.5615C8.71909 19.5719 8.72955 19.5824 8.72955 19.6033C8.85506 19.7706 8.98058 19.938 9.11655 20.1053C9.15839 20.1681 9.11655 20.1367 9.06425 20.1053C9.01195 20.0635 8.9492 20.0112 8.9492 20.0217C9.27344 20.3459 9.05379 20.189 9.24206 20.4296C9.2316 20.3564 9.39895 20.4923 9.58722 20.6702C9.51401 20.576 9.43033 20.4819 9.35712 20.3773C9.88009 20.7538 9.69182 20.827 10.2357 21.1827C10.173 21.1513 10.1102 21.1199 10.0474 21.0885C10.1311 21.1722 10.2253 21.2454 10.3298 21.3291ZM1.10459 12.198C1.09414 12.1875 1.08368 12.1666 1.08368 12.1457C1.09414 12.0202 1.10459 11.9888 1.11505 11.9679C1.10459 12.0202 1.10459 12.0934 1.09414 12.1771C1.10459 12.1875 1.10459 12.198 1.10459 12.198ZM8.46806 22.1031C8.48898 22.1136 8.49944 22.124 8.49944 22.124C8.42622 22.1031 8.35301 22.0822 8.27979 22.0613C8.34255 22.0717 8.4053 22.0926 8.46806 22.1031Z" fill="#75A37D"/>
</svg>
