<svg width="25" height="24" viewBox="0 0 25 24" fill="none" xmlns="http://www.w3.org/2000/svg">
<path d="M9.72171 17.2121C9.74625 17.2161 9.76669 17.2201 9.79123 17.2201C10.3884 17.2281 10.9814 17.2201 11.5744 17.1881C12.1797 17.1561 12.7809 17.1001 13.378 17.0201C13.7502 16.9721 14.1183 16.9161 14.4864 16.848C14.9035 16.772 15.3166 16.684 15.7297 16.588C16.0364 16.516 16.3432 16.432 16.6458 16.344C16.9117 16.268 17.1816 16.188 17.4433 16.1C17.6724 16.024 17.9014 15.936 18.1263 15.852C18.2695 15.8 18.4126 15.7439 18.5558 15.6879C18.6744 15.6399 18.7971 15.5879 18.9116 15.5319C19.0752 15.4599 19.2429 15.3839 19.4024 15.3039C19.5169 15.2479 19.6273 15.1839 19.7337 15.1159C19.8604 15.0359 19.9831 14.9519 20.1017 14.8639C20.3349 14.6919 20.5434 14.4958 20.7193 14.2638C20.8379 14.1078 20.9483 13.9438 21.0547 13.7798C21.1447 13.6358 21.2305 13.4877 21.3082 13.3357C21.39 13.1757 21.4678 13.0157 21.5455 12.8517C21.5986 12.7397 21.6477 12.6317 21.6886 12.5157C21.7418 12.3716 21.7949 12.2276 21.8358 12.0796C21.8808 11.9036 21.9176 11.7236 21.9422 11.5436C21.979 11.2715 21.9585 11.0035 21.8604 10.7435C21.8031 10.5875 21.7131 10.4475 21.6109 10.3155C21.3532 9.97543 21.0424 9.6834 20.707 9.41938C20.4453 9.21136 20.1754 9.01134 19.9095 8.80732C19.8195 8.73932 19.7337 8.67131 19.6396 8.6073C19.5046 8.5233 19.3697 8.43929 19.2306 8.36328C19.1079 8.29928 18.9852 8.23927 18.8584 8.18727C18.7521 8.14326 18.6458 8.10326 18.5394 8.06726C18.3799 8.01525 18.2204 7.96325 18.0609 7.91124C17.9137 7.86724 17.7623 7.82323 17.6151 7.78323C17.4638 7.73923 17.3084 7.69522 17.157 7.65122C17.0098 7.60721 16.8626 7.56321 16.7113 7.5152C16.5518 7.4672 16.3922 7.4152 16.2327 7.36319C16.0773 7.31519 15.9219 7.26718 15.7665 7.22318C15.5334 7.15517 15.2962 7.08317 15.063 7.01916C14.8831 6.97116 14.6991 6.92315 14.5191 6.88315C14.2451 6.82314 13.9711 6.77114 13.6929 6.72313C13.3576 6.66313 13.0222 6.63513 12.6828 6.62312C12.2288 6.60712 11.783 6.63513 11.3331 6.70713C10.9487 6.77114 10.5642 6.82314 10.1839 6.89515C9.72989 6.97916 9.27591 7.07116 8.82194 7.17117C8.44976 7.25118 8.07759 7.34319 7.7095 7.4352C7.39867 7.5152 7.09193 7.60321 6.78519 7.69122C6.57252 7.75123 6.35985 7.81523 6.15127 7.88724C5.99994 7.93924 5.8568 8.00725 5.70956 8.06726C5.61959 8.10326 5.5337 8.14726 5.44781 8.18727C5.33739 8.24327 5.22696 8.29928 5.12063 8.35928C5.02247 8.41529 4.92022 8.46729 4.82616 8.5313C4.65029 8.64331 4.47443 8.75132 4.30266 8.87133C4.08998 9.01934 3.8814 9.17136 3.681 9.33137C3.21885 9.6994 2.7935 10.1034 2.42542 10.5595C2.28636 10.7275 2.16367 10.9115 2.03688 11.0875C1.96326 11.1955 1.89374 11.3035 1.83239 11.4196C1.76695 11.5396 1.70969 11.6636 1.6647 11.7916C1.60745 11.9516 1.55837 12.1116 1.52565 12.2756C1.45612 12.6117 1.46839 12.9517 1.53792 13.2917C1.57882 13.4837 1.63608 13.6718 1.71787 13.8518C1.89783 14.2638 2.15549 14.6238 2.47449 14.9479C2.69126 15.1679 2.93256 15.3559 3.16977 15.5479C3.42334 15.752 3.5583 16.016 3.52967 16.34C3.5215 16.416 3.49696 16.496 3.45606 16.56C3.36199 16.712 3.20249 16.76 3.01844 16.712C2.88348 16.676 2.76487 16.612 2.65036 16.536C2.33135 16.316 2.04097 16.068 1.76695 15.8C1.57064 15.6079 1.38659 15.4039 1.20664 15.1959C1.1003 15.0759 0.998058 14.9439 0.903992 14.8119C0.814015 14.6839 0.728128 14.5478 0.646331 14.4158C0.584984 14.3158 0.523636 14.2118 0.470468 14.1078C0.42139 14.0158 0.380491 13.9238 0.339593 13.8278C0.286425 13.7038 0.237347 13.5798 0.192358 13.4517C0.110561 13.2437 0.0533034 13.0117 0.0246745 12.7717C-0.0203138 12.3716 0.00013541 11.9756 0.0982918 11.5836C0.14737 11.3796 0.208718 11.1795 0.282335 10.9835C0.343683 10.8235 0.42139 10.6675 0.503187 10.5155C0.593163 10.3435 0.69132 10.1754 0.801746 10.0154C0.932621 9.82741 1.07986 9.6474 1.223 9.46738C1.49702 9.13135 1.81603 8.83132 2.15549 8.5553C2.32726 8.41529 2.50312 8.27927 2.67899 8.14326C2.80168 8.04725 2.92438 7.95124 3.04707 7.85924C3.24748 7.71122 3.44788 7.56321 3.65237 7.4192C3.7996 7.31519 3.94684 7.21518 4.09407 7.11917C4.21677 7.03916 4.34764 6.96316 4.47443 6.89115C4.58077 6.82714 4.69119 6.76714 4.80162 6.71113C4.90795 6.65913 5.01838 6.60712 5.1329 6.57112C5.33739 6.50311 5.54597 6.43911 5.75455 6.3831C5.97131 6.3271 6.19217 6.28309 6.41302 6.23109C6.70749 6.16308 7.00196 6.09908 7.29643 6.02707C7.64815 5.93906 7.99988 5.84705 8.35161 5.75905C8.66244 5.68304 8.97735 5.60703 9.29227 5.54303C9.97937 5.40301 10.6706 5.291 11.374 5.259C11.8771 5.235 12.376 5.259 12.875 5.33101C13.1367 5.37101 13.4026 5.40701 13.6643 5.45502C13.8974 5.49502 14.1265 5.54303 14.3555 5.59503C14.6009 5.65104 14.8463 5.71104 15.0917 5.77105C15.2962 5.82305 15.4966 5.88306 15.697 5.93906C15.8728 5.99107 16.0528 6.03907 16.2287 6.09108C16.3841 6.13908 16.5395 6.18708 16.6949 6.23509C16.8462 6.28309 17.0016 6.3271 17.153 6.3711C17.3043 6.41511 17.4515 6.46311 17.5988 6.51111C17.7623 6.55912 17.9219 6.60712 18.0854 6.65913C18.2531 6.71513 18.4208 6.77514 18.5844 6.83914C18.7398 6.89915 18.8911 6.96316 19.0425 7.03116C19.1365 7.07116 19.2265 7.11917 19.3165 7.16717C19.4228 7.22318 19.5333 7.28318 19.6355 7.34319C19.7746 7.4232 19.9095 7.5072 20.0404 7.59121C20.1794 7.68322 20.3185 7.77523 20.4535 7.87524C20.6457 8.01925 20.842 8.16326 21.026 8.31928C21.5373 8.73532 21.9994 9.19936 22.4411 9.6874C22.5597 9.81941 22.6702 9.95943 22.7683 10.1074C22.8542 10.2395 22.9196 10.3835 22.9933 10.5195C23.0791 10.6875 23.1323 10.8635 23.1732 11.0435C23.2223 11.2515 23.2468 11.4596 23.2509 11.6716C23.2591 12.0076 23.2182 12.3436 23.1364 12.6717C23.0791 12.9037 23.0055 13.1277 22.9278 13.3557C22.8665 13.5357 22.7929 13.7078 22.7152 13.8798C22.662 14.0038 22.6006 14.1278 22.5352 14.2478C22.4534 14.3998 22.3716 14.5518 22.2816 14.6959C22.1835 14.8519 22.069 14.9999 21.9585 15.1479C21.8031 15.3559 21.6273 15.5439 21.4309 15.7159C21.2592 15.864 21.0792 16.004 20.8993 16.14C20.7684 16.236 20.6293 16.324 20.4903 16.408C20.343 16.496 20.1917 16.572 20.0404 16.648C19.9136 16.712 19.7827 16.776 19.6519 16.832C19.5373 16.8841 19.4187 16.9321 19.3001 16.9801C19.157 17.0361 19.0138 17.0921 18.8707 17.1441C18.7357 17.1961 18.5967 17.2401 18.4617 17.2881C18.339 17.3321 18.2122 17.3721 18.0854 17.4121C17.9587 17.4521 17.8319 17.4921 17.7051 17.5321C17.4924 17.5921 17.2838 17.6561 17.0712 17.7121C16.8871 17.7601 16.7031 17.8081 16.5149 17.8481C16.2246 17.9121 15.9342 17.9802 15.6397 18.0362C15.288 18.1002 14.9363 18.1602 14.5804 18.2122C14.0079 18.3002 13.4353 18.3642 12.8545 18.3962C12.3188 18.4242 11.783 18.4442 11.2472 18.4522C10.6051 18.4602 9.9671 18.4282 9.32908 18.3722C9.31272 18.3722 9.29227 18.3802 9.27591 18.3842C9.28409 18.4002 9.29227 18.4162 9.30454 18.4282C9.6031 18.7042 9.90575 18.9722 10.1961 19.2483C10.6378 19.6643 11.0754 20.0883 11.5458 20.4764C11.7216 20.6204 11.8893 20.7684 12.0284 20.9444C12.1184 21.0564 12.2042 21.1684 12.2492 21.3045C12.2819 21.3965 12.2942 21.4925 12.2451 21.5845C12.1674 21.7245 12.0488 21.7725 11.8852 21.7405C11.7135 21.7045 11.558 21.6285 11.4272 21.5205C11.0591 21.2124 10.6951 20.9004 10.3352 20.5844C9.82804 20.1403 9.32499 19.6923 8.82194 19.2443C8.65017 19.0923 8.48248 18.9322 8.30662 18.7842C8.09804 18.6042 7.88536 18.4362 7.64815 18.2922C7.52955 18.2202 7.40276 18.1682 7.28007 18.1042C7.18191 18.0522 7.08784 17.9962 7.00196 17.9281C6.76475 17.7481 6.55207 17.5481 6.37212 17.3121C6.27805 17.1881 6.19217 17.0561 6.17172 16.8961C6.15536 16.776 6.22897 16.676 6.34349 16.632C6.52344 16.564 6.7034 16.492 6.88335 16.42C7.03876 16.356 7.19418 16.292 7.3455 16.224C7.48047 16.164 7.61134 16.1 7.73813 16.032C7.88127 15.96 8.02442 15.888 8.16756 15.812C8.2739 15.756 8.37615 15.6999 8.47839 15.6399C8.60109 15.5679 8.72787 15.4999 8.85057 15.4239C8.97326 15.3519 9.09596 15.2759 9.21456 15.1999C9.3618 15.1079 9.50494 15.0159 9.64809 14.9239C9.78714 14.8319 9.9262 14.7399 10.0693 14.6519C10.2207 14.5518 10.3761 14.4518 10.5274 14.3478C10.6705 14.2518 10.8137 14.1558 10.9568 14.0598C11.1163 13.9518 11.2799 13.8438 11.4394 13.7398C11.5785 13.6478 11.7176 13.5598 11.8566 13.4677C11.9589 13.4037 12.0611 13.3357 12.1674 13.2757C12.2492 13.2317 12.3351 13.2437 12.421 13.2717C12.6705 13.3437 12.8586 13.5077 13.0263 13.6918C13.1285 13.8038 13.2063 13.9278 13.2431 14.0718C13.2717 14.1838 13.2472 14.2838 13.1735 14.3718C12.8586 14.7399 12.5314 15.0959 12.1715 15.4159C11.8893 15.6679 11.5989 15.912 11.3004 16.144C11.0714 16.324 10.8219 16.484 10.5806 16.648C10.4047 16.764 10.2248 16.8761 10.0448 16.9841C9.94665 17.0441 9.8444 17.0961 9.74216 17.1521C9.7258 17.1601 9.71353 17.1721 9.70126 17.1801C9.71762 17.2001 9.72171 17.2081 9.72171 17.2121Z" fill="#F5F5F0"/>
</svg>
