<svg width="24" height="17" viewBox="0 0 24 17" fill="none" xmlns="http://www.w3.org/2000/svg">
<path d="M9.72171 12.2121C9.74625 12.2161 9.76669 12.2201 9.79123 12.2201C10.3884 12.2281 10.9814 12.2201 11.5744 12.1881C12.1797 12.1561 12.7809 12.1001 13.378 12.0201C13.7502 11.9721 14.1183 11.9161 14.4864 11.848C14.9035 11.772 15.3166 11.684 15.7297 11.588C16.0364 11.516 16.3432 11.432 16.6458 11.344C16.9117 11.268 17.1816 11.188 17.4433 11.1C17.6724 11.024 17.9014 10.936 18.1263 10.852C18.2695 10.8 18.4126 10.7439 18.5558 10.6879C18.6744 10.6399 18.7971 10.5879 18.9116 10.5319C19.0752 10.4599 19.2429 10.3839 19.4024 10.3039C19.5169 10.2479 19.6273 10.1839 19.7337 10.1159C19.8604 10.0359 19.9831 9.95188 20.1017 9.86387C20.3349 9.69185 20.5434 9.49584 20.7193 9.26382C20.8379 9.1078 20.9483 8.94379 21.0547 8.77977C21.1447 8.63576 21.2305 8.48775 21.3082 8.33573C21.39 8.17572 21.4678 8.0157 21.5455 7.85169C21.5986 7.73968 21.6477 7.63167 21.6886 7.51566C21.7418 7.37164 21.7949 7.22763 21.8358 7.07962C21.8808 6.9036 21.9176 6.72359 21.9422 6.54357C21.979 6.27154 21.9585 6.00352 21.8604 5.7435C21.8031 5.58748 21.7131 5.44747 21.6109 5.31546C21.3532 4.97543 21.0424 4.6834 20.707 4.41938C20.4453 4.21136 20.1754 4.01134 19.9095 3.80732C19.8195 3.73932 19.7337 3.67131 19.6396 3.6073C19.5046 3.5233 19.3697 3.43929 19.2306 3.36328C19.1079 3.29928 18.9852 3.23927 18.8584 3.18727C18.7521 3.14326 18.6458 3.10326 18.5394 3.06726C18.3799 3.01525 18.2204 2.96325 18.0609 2.91124C17.9137 2.86724 17.7623 2.82323 17.6151 2.78323C17.4638 2.73923 17.3084 2.69522 17.157 2.65122C17.0098 2.60721 16.8626 2.56321 16.7113 2.5152C16.5518 2.4672 16.3922 2.4152 16.2327 2.36319C16.0773 2.31519 15.9219 2.26718 15.7665 2.22318C15.5334 2.15517 15.2962 2.08317 15.063 2.01916C14.8831 1.97116 14.6991 1.92315 14.5191 1.88315C14.2451 1.82314 13.9711 1.77114 13.6929 1.72313C13.3576 1.66313 13.0222 1.63513 12.6828 1.62312C12.2288 1.60712 11.783 1.63513 11.3331 1.70713C10.9487 1.77114 10.5642 1.82314 10.1839 1.89515C9.72989 1.97916 9.27591 2.07116 8.82194 2.17117C8.44976 2.25118 8.07759 2.34319 7.7095 2.4352C7.39867 2.5152 7.09193 2.60321 6.78519 2.69122C6.57252 2.75123 6.35985 2.81523 6.15127 2.88724C5.99994 2.93924 5.8568 3.00725 5.70956 3.06726C5.61959 3.10326 5.5337 3.14726 5.44781 3.18727C5.33739 3.24327 5.22696 3.29928 5.12063 3.35928C5.02247 3.41529 4.92022 3.46729 4.82616 3.5313C4.65029 3.64331 4.47443 3.75132 4.30266 3.87133C4.08998 4.01934 3.8814 4.17135 3.681 4.33137C3.21885 4.6994 2.7935 5.10344 2.42542 5.55948C2.28636 5.7275 2.16367 5.91151 2.03688 6.08753C1.96326 6.19554 1.89374 6.30355 1.83239 6.41956C1.76695 6.53957 1.70969 6.66358 1.6647 6.79159C1.60745 6.95161 1.55837 7.11162 1.52565 7.27564C1.45612 7.61167 1.46839 7.9517 1.53792 8.29173C1.57882 8.48374 1.63608 8.67176 1.71787 8.85178C1.89783 9.26382 2.15549 9.62385 2.47449 9.94788C2.69126 10.1679 2.93256 10.3559 3.16977 10.5479C3.42334 10.7519 3.5583 11.016 3.52967 11.34C3.5215 11.416 3.49696 11.496 3.45606 11.56C3.36199 11.712 3.20249 11.76 3.01844 11.712C2.88348 11.676 2.76487 11.612 2.65036 11.536C2.33135 11.316 2.04097 11.068 1.76695 10.8C1.57064 10.6079 1.38659 10.4039 1.20664 10.1959C1.1003 10.0759 0.998058 9.94388 0.903992 9.81187C0.814015 9.68385 0.728128 9.54784 0.646331 9.41583C0.584984 9.31582 0.523636 9.21181 0.470468 9.1078C0.42139 9.01579 0.380491 8.92378 0.339593 8.82778C0.286425 8.70376 0.237347 8.57975 0.192358 8.45174C0.110561 8.24372 0.0533034 8.0117 0.0246745 7.77168C-0.0203138 7.37164 0.00013541 6.97561 0.0982918 6.58357C0.14737 6.37955 0.208718 6.17954 0.282335 5.98352C0.343683 5.8235 0.42139 5.66749 0.503187 5.51548C0.593163 5.34346 0.69132 5.17545 0.801746 5.01543C0.932621 4.82741 1.07986 4.6474 1.223 4.46738C1.49702 4.13135 1.81603 3.83132 2.15549 3.5553C2.32726 3.41529 2.50312 3.27927 2.67899 3.14326C2.80168 3.04725 2.92438 2.95124 3.04707 2.85924C3.24748 2.71122 3.44788 2.56321 3.65237 2.4192C3.7996 2.31519 3.94684 2.21518 4.09407 2.11917C4.21677 2.03916 4.34764 1.96316 4.47443 1.89115C4.58077 1.82714 4.69119 1.76714 4.80162 1.71113C4.90795 1.65913 5.01838 1.60712 5.1329 1.57112C5.33739 1.50311 5.54597 1.43911 5.75455 1.3831C5.97131 1.3271 6.19217 1.28309 6.41302 1.23109C6.70749 1.16308 7.00196 1.09908 7.29643 1.02707C7.64815 0.939062 7.99988 0.847054 8.35161 0.759046C8.66244 0.683039 8.97735 0.607032 9.29227 0.543027C9.97937 0.403014 10.6706 0.291004 11.374 0.259001C11.8771 0.234999 12.376 0.259001 12.875 0.331007C13.1367 0.371011 13.4026 0.407014 13.6643 0.455019C13.8974 0.495022 14.1265 0.543027 14.3555 0.595031C14.6009 0.651036 14.8463 0.711042 15.0917 0.771047C15.2962 0.823052 15.4966 0.883057 15.697 0.939062C15.8728 0.991067 16.0528 1.03907 16.2287 1.09108C16.3841 1.13908 16.5395 1.18708 16.6949 1.23509C16.8462 1.28309 17.0016 1.3271 17.153 1.3711C17.3043 1.41511 17.4515 1.46311 17.5988 1.51111C17.7623 1.55912 17.9219 1.60712 18.0854 1.65913C18.2531 1.71513 18.4208 1.77514 18.5844 1.83914C18.7398 1.89915 18.8911 1.96316 19.0425 2.03116C19.1365 2.07116 19.2265 2.11917 19.3165 2.16717C19.4228 2.22318 19.5333 2.28318 19.6355 2.34319C19.7746 2.4232 19.9095 2.5072 20.0404 2.59121C20.1794 2.68322 20.3185 2.77523 20.4535 2.87524C20.6457 3.01925 20.842 3.16326 21.026 3.31928C21.5373 3.73532 21.9994 4.19936 22.4411 4.6874C22.5597 4.81941 22.6702 4.95943 22.7683 5.10744C22.8542 5.23945 22.9196 5.38346 22.9933 5.51948C23.0792 5.68749 23.1323 5.86351 23.1732 6.04352C23.2223 6.25154 23.2468 6.45956 23.2509 6.67158C23.2591 7.00761 23.2182 7.34364 23.1364 7.67167C23.0792 7.90369 23.0055 8.12771 22.9278 8.35573C22.8665 8.53575 22.7929 8.70777 22.7152 8.87978C22.662 9.00379 22.6006 9.1278 22.5352 9.24781C22.4534 9.39983 22.3716 9.55184 22.2816 9.69585C22.1835 9.85187 22.069 9.99988 21.9585 10.1479C21.8031 10.3559 21.6273 10.5439 21.4309 10.7159C21.2592 10.864 21.0792 11.004 20.8993 11.14C20.7684 11.236 20.6293 11.324 20.4903 11.408C20.343 11.496 20.1917 11.572 20.0404 11.648C19.9136 11.712 19.7827 11.776 19.6519 11.832C19.5373 11.8841 19.4187 11.9321 19.3001 11.9801C19.157 12.0361 19.0138 12.0921 18.8707 12.1441C18.7357 12.1961 18.5967 12.2401 18.4617 12.2881C18.339 12.3321 18.2122 12.3721 18.0854 12.4121C17.9587 12.4521 17.8319 12.4921 17.7051 12.5321C17.4924 12.5921 17.2838 12.6561 17.0712 12.7121C16.8871 12.7601 16.7031 12.8081 16.5149 12.8481C16.2246 12.9121 15.9342 12.9802 15.6397 13.0362C15.288 13.1002 14.9363 13.1602 14.5804 13.2122C14.0079 13.3002 13.4353 13.3642 12.8545 13.3962C12.3188 13.4242 11.783 13.4442 11.2472 13.4522C10.6051 13.4602 9.9671 13.4282 9.32908 13.3722C9.31272 13.3722 9.29227 13.3802 9.27591 13.3842C9.28409 13.4002 9.29227 13.4162 9.30454 13.4282C9.6031 13.7042 9.90575 13.9722 10.1961 14.2483C10.6378 14.6643 11.0754 15.0883 11.5458 15.4764C11.7216 15.6204 11.8893 15.7684 12.0284 15.9444C12.1184 16.0564 12.2042 16.1684 12.2492 16.3045C12.282 16.3965 12.2942 16.4925 12.2451 16.5845C12.1674 16.7245 12.0488 16.7725 11.8852 16.7405C11.7135 16.7045 11.558 16.6285 11.4272 16.5205C11.0591 16.2124 10.6951 15.9004 10.3352 15.5844C9.82804 15.1403 9.32499 14.6923 8.82194 14.2443C8.65017 14.0923 8.48248 13.9322 8.30662 13.7842C8.09804 13.6042 7.88536 13.4362 7.64815 13.2922C7.52955 13.2202 7.40276 13.1682 7.28007 13.1042C7.18191 13.0522 7.08784 12.9962 7.00196 12.9281C6.76475 12.7481 6.55207 12.5481 6.37212 12.3121C6.27805 12.1881 6.19217 12.0561 6.17172 11.8961C6.15536 11.776 6.22898 11.676 6.34349 11.632C6.52344 11.564 6.7034 11.492 6.88335 11.42C7.03876 11.356 7.19418 11.292 7.3455 11.224C7.48047 11.164 7.61134 11.1 7.73813 11.032C7.88127 10.96 8.02442 10.888 8.16756 10.812C8.2739 10.756 8.37615 10.6999 8.47839 10.6399C8.60109 10.5679 8.72787 10.4999 8.85057 10.4239C8.97326 10.3519 9.09596 10.2759 9.21456 10.1999C9.3618 10.1079 9.50494 10.0159 9.64809 9.92388C9.78714 9.83187 9.9262 9.73986 10.0693 9.65185C10.2207 9.55184 10.3761 9.45183 10.5274 9.34782C10.6705 9.25181 10.8137 9.15581 10.9568 9.0598C11.1163 8.95179 11.2799 8.84378 11.4394 8.73977C11.5785 8.64776 11.7176 8.55975 11.8566 8.46774C11.9589 8.40374 12.0611 8.33573 12.1674 8.27573C12.2492 8.23172 12.3351 8.24372 12.421 8.27173C12.6705 8.34373 12.8586 8.50775 13.0263 8.69176C13.1285 8.80377 13.2063 8.92779 13.2431 9.0718C13.2717 9.18381 13.2472 9.28382 13.1735 9.37183C12.8586 9.73986 12.5314 10.0959 12.1715 10.4159C11.8893 10.6679 11.5989 10.912 11.3004 11.144C11.0714 11.324 10.8219 11.484 10.5806 11.648C10.4047 11.764 10.2248 11.8761 10.0448 11.9841C9.94665 12.0441 9.8444 12.0961 9.74216 12.1521C9.7258 12.1601 9.71353 12.1721 9.70126 12.1801C9.71762 12.2001 9.72171 12.2081 9.72171 12.2121Z" fill="#3E5C57"/>
</svg>
