<svg width="24" height="25" viewBox="0 0 24 25" fill="none" xmlns="http://www.w3.org/2000/svg">
<path d="M23.2431 9.10565C23.2431 9.11839 23.2362 9.12475 23.2362 9.13749C23.2362 9.1566 23.2293 9.16933 23.2293 9.18844C23.2293 9.31581 23.2224 9.43681 23.2224 9.56417C23.2224 9.69154 23.2224 9.82528 23.2224 9.95265C23.2224 10.0163 23.2155 10.08 23.2017 10.1437C23.188 10.2137 23.1742 10.2902 23.1604 10.3602C23.1397 10.4557 23.1259 10.5513 23.1052 10.6468C23.0501 10.9588 22.9743 11.2645 22.8709 11.5638C22.8019 11.774 22.733 11.9905 22.6641 12.2007V12.2071C22.5814 12.4172 22.5193 12.6337 22.4366 12.8375C22.3952 12.9331 22.3539 13.0349 22.3056 13.1305C22.2091 13.3279 22.1126 13.5189 22.023 13.7164C21.9472 13.8756 21.8645 14.0348 21.7611 14.1876C21.6715 14.3214 21.5887 14.4551 21.506 14.5888C21.4026 14.748 21.2854 14.9009 21.1614 15.041C20.8994 15.3403 20.6237 15.6332 20.348 15.9198C20.1412 16.1363 19.9206 16.3338 19.6862 16.5248C19.569 16.6203 19.4587 16.7159 19.3485 16.8178C19.1279 17.0216 18.8935 17.2062 18.6385 17.3782C18.5488 17.4419 18.4592 17.4992 18.3696 17.5629C18.1284 17.7348 17.8595 17.8749 17.5769 17.9895H17.57C17.4528 18.0341 17.3356 18.0851 17.2253 18.1488C17.0461 18.2443 16.86 18.3207 16.667 18.3908C16.3913 18.4926 16.1224 18.6073 15.8536 18.7155C15.6468 18.7983 15.4331 18.8875 15.2194 18.9512C15.0126 19.0212 14.7989 19.0785 14.5922 19.1295C14.4336 19.1677 14.2751 19.1932 14.1165 19.2059C14.0476 19.2123 13.9855 19.2186 13.9166 19.225C13.8615 19.2314 13.8132 19.2314 13.7581 19.2378C13.6478 19.2378 13.5375 19.2441 13.4341 19.2441C13.1928 19.2441 12.9516 19.2441 12.7103 19.2441C12.5518 19.2441 12.4001 19.2314 12.2485 19.2059C12.0417 19.1741 11.8418 19.1295 11.6488 19.0594C11.5247 19.0149 11.4006 18.9639 11.2765 18.913C11.0422 18.8174 10.8078 18.7219 10.5665 18.62C10.3322 18.5245 10.1047 18.4162 9.87721 18.308C9.7876 18.2634 9.69798 18.2124 9.60837 18.1615C9.5739 18.1424 9.53255 18.1169 9.49808 18.0978C9.29129 17.9832 9.09828 17.8431 8.90527 17.703C8.76051 17.5947 8.62265 17.4864 8.47789 17.3782C8.45721 17.3654 8.44343 17.3527 8.42275 17.34C8.40896 17.3272 8.38828 17.3272 8.37449 17.34C8.36071 17.3527 8.34692 17.3591 8.33313 17.3718C8.22284 17.4673 8.10566 17.5629 7.99537 17.652C7.89886 17.7284 7.80235 17.8112 7.71274 17.894C7.69896 17.9068 7.67828 17.9259 7.66449 17.9386C7.50595 18.0723 7.36119 18.2124 7.22333 18.3589C7.13372 18.4481 7.0441 18.5372 6.95449 18.6264C6.92003 18.6582 6.88556 18.6901 6.85109 18.7155C6.77527 18.7792 6.69944 18.8365 6.62362 18.9002C6.53401 18.9703 6.45129 19.034 6.36168 19.104C6.30653 19.1486 6.25139 19.1932 6.20314 19.2441C6.07906 19.3588 5.95498 19.4734 5.8378 19.5816C5.75508 19.6581 5.67236 19.7281 5.58275 19.7982C5.52071 19.8491 5.45867 19.9001 5.39663 19.951C5.29323 20.0402 5.18984 20.1166 5.07955 20.193C4.95547 20.2758 4.83139 20.365 4.7142 20.4605C4.63149 20.5242 4.54877 20.5878 4.45916 20.6515C4.30751 20.7662 4.15586 20.8872 4.0111 21.0082C3.98353 21.0336 3.94906 21.0591 3.92149 21.0846C3.85256 21.1419 3.78363 21.1992 3.7078 21.2502C3.67333 21.2756 3.63887 21.3075 3.59751 21.333C3.5079 21.3966 3.42518 21.4731 3.33557 21.5431C3.29421 21.5749 3.24595 21.6068 3.1977 21.6323C3.11498 21.6832 3.01848 21.7087 2.91508 21.7087C2.90819 21.7087 2.9013 21.7087 2.8944 21.7087C2.81858 21.7087 2.81858 21.6959 2.73586 21.766C2.7014 21.7978 2.66693 21.8233 2.63246 21.8552C2.46703 21.9889 2.28091 22.0781 2.07411 22.1354C2.00518 22.1545 1.93625 22.1736 1.86043 22.1799C1.83975 22.1799 1.81907 22.1863 1.79839 22.1927C1.75703 22.1991 1.70878 22.2054 1.66742 22.2118C1.61227 22.2182 1.55023 22.2245 1.49509 22.2309C1.41237 22.2436 1.32276 22.25 1.24004 22.25C1.19868 22.25 1.15043 22.25 1.10907 22.25C1.08839 22.25 1.0746 22.2436 1.06771 22.2245C1.04703 22.1927 1.01946 22.1608 1.01256 22.1226C0.971205 22.0398 0.964311 21.9507 0.964311 21.8615C0.964311 21.7978 0.964309 21.7342 0.971203 21.6768C0.971203 21.6514 0.971205 21.6259 0.943632 21.6004C0.922953 21.5749 0.916056 21.5431 0.888483 21.5176C0.88159 21.5113 0.881592 21.4985 0.881592 21.4858C0.881592 21.4667 0.888483 21.4539 0.888483 21.4412C0.895377 21.4221 0.888484 21.403 0.867805 21.3966C0.847125 21.3903 0.833339 21.3712 0.833339 21.3521C0.833339 21.3266 0.819552 21.3075 0.798873 21.2884C0.785086 21.2756 0.778193 21.2629 0.764407 21.2502C0.75062 21.2247 0.743729 21.1992 0.757515 21.1737C0.764408 21.1546 0.771299 21.1355 0.785086 21.1164C0.812658 21.0718 0.81266 21.0209 0.81266 20.9763V20.97C0.79198 20.8744 0.854017 20.8171 0.922949 20.7598C0.964309 20.728 1.00567 20.7025 1.04703 20.6706C1.0815 20.6452 1.10907 20.6197 1.12285 20.5815C1.12975 20.5687 1.13664 20.556 1.14353 20.5433C1.15043 20.5305 1.15732 20.5178 1.15043 20.5051C1.14353 20.4541 1.17111 20.4095 1.20557 20.3713C1.24693 20.3267 1.28829 20.2949 1.33654 20.2631C1.41237 20.2185 1.4744 20.1675 1.54334 20.1102C1.57091 20.0847 1.59848 20.0656 1.62606 20.0465C1.70877 19.9829 1.79839 19.9192 1.8811 19.8619C1.93625 19.8236 1.99139 19.7791 2.03965 19.7345C2.07411 19.709 2.10858 19.6835 2.13615 19.6517C2.39809 19.4352 2.67382 19.2378 2.94266 19.034C3.01848 18.9766 3.1012 18.9193 3.17702 18.8684C3.3011 18.7856 3.41829 18.6964 3.53547 18.6009C3.58372 18.5563 3.63887 18.5181 3.68712 18.4799C3.76295 18.4226 3.83877 18.3589 3.9077 18.2952C4.05936 18.1615 4.211 18.0214 4.36265 17.8877C4.39023 17.8622 4.4178 17.8367 4.44537 17.8176C4.56256 17.7284 4.67974 17.6329 4.79692 17.5501C4.84518 17.5119 4.90032 17.4801 4.95547 17.4482C5.08644 17.3654 5.21741 17.2763 5.33459 17.1871C5.41731 17.1234 5.49314 17.0598 5.56896 16.9897C5.631 16.926 5.69993 16.8687 5.77576 16.8114C5.80333 16.7923 5.8309 16.7668 5.85158 16.7477C5.98945 16.6331 6.13421 16.5248 6.28586 16.4293C6.51333 16.2892 6.74081 16.1363 6.97517 16.0026C6.98207 15.9962 6.99585 15.9899 7.00275 15.9835C7.00964 15.9771 7.00964 15.9644 7.00964 15.9517C7.00964 15.9453 7.00275 15.9453 7.00275 15.9389C6.8442 15.7224 6.68566 15.4995 6.53401 15.283C6.39615 15.0856 6.25828 14.8945 6.12042 14.6971C6.05149 14.5952 5.98255 14.4869 5.91362 14.385C5.68615 14.0157 5.52071 13.6208 5.40352 13.2069C5.36906 13.0923 5.34149 12.9776 5.31391 12.8694C5.28634 12.7738 5.25877 12.6783 5.23119 12.5764C5.16916 12.3599 5.11401 12.1434 5.05886 11.9268C4.97615 11.6021 4.91411 11.2709 4.85896 10.9461C4.8245 10.7551 4.81071 10.564 4.81071 10.373C4.81071 10.1437 4.81071 9.91443 4.81071 9.6788C4.81071 9.56417 4.8245 9.44954 4.83139 9.33491C4.84518 9.1757 4.88654 9.02286 4.91411 8.87002C4.94168 8.72992 4.98304 8.58981 5.0244 8.44971C5.07954 8.27139 5.14848 8.09944 5.23119 7.9275C5.33459 7.69824 5.45178 7.46898 5.58275 7.25245C5.7344 7.00408 5.89983 6.75571 6.09284 6.53282C6.16178 6.45003 6.23071 6.36087 6.29964 6.27809C6.36857 6.18893 6.4444 6.10614 6.51333 6.02335C6.59605 5.92782 6.68566 5.83867 6.77527 5.74314C6.98896 5.52025 7.20265 5.28462 7.40945 5.05536C7.58867 4.86431 7.77479 4.67325 7.97469 4.49494C8.18148 4.31025 8.40896 4.13831 8.64332 3.9791C8.80187 3.87084 8.9742 3.78805 9.15342 3.70526C9.60837 3.50147 10.084 3.32952 10.5665 3.18942C10.9112 3.08752 11.2627 2.99837 11.6212 2.92195C11.8211 2.87737 12.021 2.84553 12.2278 2.82005C12.2829 2.81368 12.345 2.80731 12.4001 2.80095C12.5242 2.79458 12.6483 2.78184 12.7723 2.78184C12.9722 2.77547 13.179 2.76274 13.3789 2.75637C13.4755 2.75637 13.5651 2.75 13.6616 2.75C14.0614 2.75637 14.4681 2.75637 14.8679 2.75637C15.0402 2.75637 15.2056 2.75637 15.378 2.76274C15.5434 2.76911 15.702 2.78821 15.8674 2.81368C15.9708 2.83279 16.0742 2.85189 16.1776 2.87737C16.3706 2.92195 16.5567 2.98563 16.7359 3.06842C16.8049 3.10026 16.8669 3.1321 16.9289 3.16395C16.9496 3.17031 16.9634 3.18305 16.9841 3.18942C17.0186 3.17668 17.053 3.16394 17.0806 3.15121C17.1909 3.113 17.3012 3.09389 17.4184 3.09389C17.4597 3.09389 17.508 3.09389 17.5493 3.09389C17.6183 3.09389 17.6872 3.09389 17.7492 3.08116C17.8595 3.06842 17.9629 3.07479 18.0732 3.10663C18.2042 3.14484 18.3352 3.19579 18.4592 3.24673C18.5488 3.28494 18.6385 3.32952 18.7281 3.36773C18.8315 3.41868 18.9349 3.46963 19.0314 3.53331C19.2519 3.67978 19.4794 3.81352 19.7138 3.92815C19.8241 3.98547 19.9275 4.03641 20.0309 4.1001C20.0653 4.1192 20.0998 4.13831 20.1343 4.15741C20.2032 4.19562 20.2721 4.2402 20.3411 4.27841C20.5065 4.38031 20.6651 4.4822 20.8305 4.58409C20.9615 4.66688 21.0855 4.74967 21.1889 4.85794C21.2785 4.94073 21.3751 5.02351 21.4578 5.11267C21.506 5.16362 21.5543 5.2082 21.5956 5.25914C21.699 5.37377 21.8093 5.48204 21.9265 5.5903C22.0161 5.66672 22.0919 5.75588 22.1678 5.8514C22.2574 5.96604 22.347 6.08703 22.4228 6.2144C22.4504 6.25898 22.4849 6.30993 22.5124 6.35451C22.6227 6.52008 22.7192 6.69203 22.8019 6.86398C22.8778 7.02319 22.9536 7.18877 23.0294 7.34798C23.0708 7.43713 23.1121 7.53266 23.1397 7.62818C23.1673 7.72371 23.188 7.8256 23.2155 7.92113C23.2293 7.96571 23.2293 8.01029 23.2362 8.06123C23.2362 8.08671 23.2362 8.11855 23.2362 8.14402C23.2362 8.1695 23.2431 8.19497 23.25 8.22044C23.2431 8.53249 23.2431 8.81907 23.2431 9.10565ZM18.1628 5.54572C18.1146 5.58393 18.0456 5.59667 17.9767 5.5903C17.9698 5.5903 17.9629 5.5903 17.956 5.5903C17.9354 5.5903 17.9147 5.5903 17.894 5.60304C17.8733 5.61577 17.8457 5.62214 17.8182 5.62214C17.8113 5.62214 17.7975 5.62214 17.7906 5.62214C17.7837 5.62214 17.7768 5.62851 17.7699 5.63488C17.763 5.64761 17.7561 5.66672 17.7492 5.67946C17.7354 5.7113 17.7148 5.7304 17.6872 5.74314C17.6458 5.76862 17.5976 5.78772 17.5493 5.80046C17.4735 5.82593 17.3908 5.83867 17.3081 5.8514C17.2047 5.86414 17.1013 5.87051 17.0048 5.88325C16.9841 5.88325 16.9565 5.88325 16.9358 5.88325C16.9083 5.88325 16.8876 5.87051 16.8669 5.8514C16.8462 5.82593 16.8255 5.80046 16.8118 5.76861C16.7773 5.7113 16.7497 5.65398 16.7221 5.60304C16.7084 5.57119 16.6877 5.53935 16.667 5.50751C16.6394 5.46293 16.6119 5.42472 16.5843 5.38014C16.5636 5.3483 16.536 5.32283 16.4947 5.30372C16.4051 5.25914 16.3154 5.22093 16.2258 5.18272C16.0742 5.12541 15.9225 5.07446 15.764 5.01715C15.7364 5.00441 15.702 4.99804 15.6744 4.99167C15.4193 4.92162 15.1643 4.85794 14.9161 4.78788C14.8058 4.75604 14.6887 4.73057 14.5715 4.71783C14.4956 4.70509 14.4198 4.69873 14.344 4.69236C14.1923 4.67325 14.0476 4.66688 13.8959 4.66688C13.3789 4.66688 12.8551 4.66052 12.3381 4.66688C12.1726 4.66688 12.0072 4.69236 11.8418 4.7242C11.6005 4.78152 11.3661 4.83883 11.1318 4.90251C10.8974 4.9662 10.6699 5.03625 10.4356 5.11267C10.3597 5.13815 10.2908 5.16999 10.2288 5.21457C10.1874 5.24641 10.146 5.27188 10.1047 5.30372C9.90478 5.4502 9.71177 5.60304 9.53255 5.77498C9.33954 5.95967 9.16032 6.15072 8.98109 6.34814C8.80187 6.53919 8.62954 6.73024 8.45032 6.92129C8.34002 7.03592 8.24352 7.15692 8.14702 7.27792C7.94711 7.55176 7.76789 7.83197 7.61624 8.13129C7.56799 8.22681 7.51974 8.32234 7.47838 8.41786C7.43702 8.50065 7.39566 8.58344 7.36119 8.6726C7.29226 8.85728 7.23022 9.04197 7.19575 9.23939C7.16129 9.40496 7.14061 9.57054 7.13372 9.74249C7.12682 9.97812 7.12682 10.2201 7.13372 10.4557C7.13372 10.5576 7.1475 10.6595 7.16818 10.7614C7.18197 10.8442 7.19575 10.9206 7.20954 11.0034C7.23711 11.1372 7.25779 11.2773 7.29226 11.411C7.32673 11.583 7.36809 11.7485 7.40945 11.9205C7.4508 12.1052 7.50595 12.2898 7.5611 12.4745C7.62314 12.6783 7.71274 12.8694 7.82993 13.0477C7.87129 13.105 7.91265 13.1687 7.95401 13.226C8.14012 13.4871 8.31934 13.7482 8.50546 14.0093C8.62264 14.1749 8.73983 14.3341 8.85702 14.4997C8.88459 14.5379 8.91216 14.5761 8.93973 14.6143C9.06381 14.7735 9.19478 14.9264 9.33954 15.0728C9.4774 15.2193 9.62905 15.3594 9.7876 15.4868C9.89789 15.5696 10.0082 15.6587 10.1185 15.7415C10.3459 15.9198 10.5872 16.0918 10.8354 16.2573C10.9319 16.321 11.0353 16.3847 11.1387 16.4357C11.3179 16.5312 11.504 16.614 11.697 16.7031C11.8556 16.7732 12.0141 16.8432 12.1726 16.9069C12.4415 17.0216 12.7172 17.1362 12.9998 17.2381C13.2755 17.34 13.5651 17.3973 13.8684 17.41C14.02 17.4164 14.1717 17.4164 14.3233 17.4164C14.3716 17.4164 14.4198 17.41 14.4612 17.3973C14.5094 17.3846 14.5646 17.3654 14.6128 17.3527C14.7714 17.3081 14.923 17.2572 15.0747 17.1871C15.1229 17.168 15.1643 17.1489 15.2125 17.1298C15.4952 17.0152 15.7778 16.9006 16.0604 16.7923C16.3086 16.6968 16.5429 16.5758 16.7497 16.4229C16.86 16.3401 16.9772 16.2637 17.0875 16.1873C17.2598 16.0663 17.4253 15.9389 17.5838 15.7925C17.7561 15.6396 17.9285 15.4868 18.1008 15.3403C18.3145 15.1556 18.5144 14.9709 18.7005 14.7671C18.8384 14.6143 18.9831 14.4615 19.121 14.3086C19.1899 14.2386 19.2519 14.1621 19.3002 14.0794C19.376 13.9584 19.4519 13.8374 19.5277 13.7164C19.6173 13.5763 19.6931 13.4362 19.762 13.2897C19.8654 13.0795 19.9619 12.8757 20.0653 12.6656C20.1412 12.5127 20.2101 12.3535 20.2584 12.1943C20.2928 12.0924 20.3273 11.9905 20.3686 11.895C20.3893 11.8377 20.41 11.7867 20.4238 11.7294C20.4789 11.5511 20.541 11.3728 20.603 11.1945C20.6582 11.0289 20.7133 10.857 20.7478 10.685C20.7891 10.5003 20.8305 10.322 20.8856 10.1373C20.927 10.0163 20.9408 9.88896 20.9408 9.76159C20.9408 9.58965 20.9477 9.41133 20.9615 9.23939C20.9684 9.14386 20.9821 9.04833 20.9821 8.95281C20.989 8.74265 20.989 8.53249 20.989 8.31597C20.989 8.26502 20.9752 8.22044 20.9546 8.17587C20.8856 8.03576 20.8098 7.90202 20.7271 7.77466C20.6926 7.72371 20.6582 7.67276 20.6306 7.62182C20.5548 7.50082 20.472 7.39255 20.3893 7.28429C20.3549 7.23971 20.3204 7.2015 20.279 7.16966C20.1343 7.04866 20.0102 6.90856 19.8861 6.77482C19.8103 6.69203 19.7345 6.60924 19.6655 6.52645C19.6242 6.48187 19.5828 6.44366 19.5346 6.41182C19.4518 6.36088 19.376 6.30356 19.2933 6.25261C19.1899 6.18893 19.0934 6.11888 18.99 6.05519C18.8315 5.9533 18.6729 5.85777 18.5144 5.75588C18.4179 5.6922 18.3145 5.63488 18.218 5.57756C18.1973 5.55846 18.1835 5.54572 18.1628 5.54572Z" fill="#75A37D"/>
</svg>
