<svg width="32" height="32" viewBox="0 0 32 32" fill="none" xmlns="http://www.w3.org/2000/svg">
<mask id="mask0_251_9535" style="mask-type:alpha" maskUnits="userSpaceOnUse" x="0" y="0" width="32" height="33">
<path fill-rule="evenodd" clip-rule="evenodd" d="M31.9561 0.541676C27.8428 0.433402 24.306 0.479805 21.1587 0.185917C21.2521 0.216853 21.2521 0.309659 21.034 0.294192C19.6941 0.139514 18.2918 0.479805 17.6374 0.294192C17.84 0.294192 17.949 0.201385 17.9958 0.046707C17.9023 0.0776425 17.7621 0.046707 17.7465 0.170449C16.4688 -0.0151642 16.017 -0.0770354 14.7082 0.294192C14.7082 0.0931103 15.051 0.23232 15.0666 0.046707C14.4745 0.124046 13.3527 -0.0770354 12.7606 0.402466C12.5269 0.356063 12.7451 -0.154374 12.2776 0.046707C9.31729 0.108578 6.13881 -0.123439 3.03825 0.402466C3.03825 0.201385 3.38102 0.340595 3.3966 0.154981C2.25921 0.216853 0.82578 -0.309052 0 0.541676C0.451842 4.98093 -0.249292 9.57487 0.358357 14.0605C0.0779037 19.598 0.233711 25.0891 0.358357 31.9104C10.1898 32.297 20.9873 31.5701 31.9561 31.7866C32.0808 22.3667 31.8938 11.0134 31.9561 0.541676ZM5.3442 30.7039C5.28187 27.8578 5.95184 25.3984 5.46884 23.4649C5.51558 23.3257 5.68697 23.1556 5.71813 23.3412C5.81162 23.0628 6.43485 22.6142 5.96743 22.011C6.54391 22.3822 6.02975 21.6861 6.45043 21.6552C6.7153 21.6397 6.29462 21.3459 6.45043 21.052C7.21389 21.1448 7.79037 20.1703 8.52267 19.8455C9.31729 19.598 9.34845 19.9692 9.86261 19.4897C11.4674 20.7271 13.5864 22.1347 16.0637 22.1502C18.4164 22.1656 20.5977 21.052 22.0156 19.6135C22.6388 19.335 23.5893 19.8919 24.1969 19.6135C24.9604 20.5261 26.1289 20.8509 26.6275 22.1502C27.3442 23.9754 26.6898 28.6621 27.1105 30.7193C20.068 30.6575 13.0411 30.7039 5.3442 30.7039ZM28.3102 30.7039C28.1856 27.3938 28.4349 24.8725 28.3102 21.9027C27.5312 21.1757 27.5468 20.2631 26.8456 19.6135C26.4094 19.1958 25.7706 19.1494 25.381 18.6545C25.6303 18.6081 25.7082 18.7318 25.864 18.7782C25.0227 18.407 24.1657 17.3242 22.0935 17.9275C22.1247 17.7573 22.4051 17.8347 22.5765 17.8037C21.7975 17.3552 20.4575 18.3142 20.2706 19.2577C19.8499 19.2113 20.1147 18.9329 19.6629 19.134C18.0892 20.325 15.4873 20.325 13.5864 19.7372C12.8853 19.1958 11.4674 18.4224 10.5482 18.0512C10.7196 17.6955 11.1402 18.0821 11.2805 18.175C10.6884 17.3861 9.33287 17.68 8.60057 17.8192C5.28187 18.4224 3.11615 22.1656 4.09774 26.1409C3.52125 27.2081 4.09774 29.2499 3.84844 30.3636C2.9915 30.6729 2.88244 30.3636 1.90085 30.3636C1.57366 26.2027 2.22805 21.6861 1.65156 17.3397C2.11898 12.622 1.6983 7.64139 1.77621 1.90284C10.2677 1.62442 20.9717 1.54708 30.8187 1.7791C30.9278 10.8742 30.881 21.1448 30.9434 30.7348C30.102 30.7039 29.1983 30.7039 28.3102 30.7039Z" fill="black"/>
<path fill-rule="evenodd" clip-rule="evenodd" d="M20.5236 8.34857C17.4697 3.97118 10.578 6.60592 10.4378 12.0042C10.3287 15.9175 14.5822 18.8564 18.8202 17.0776C18.789 17.2787 19.1321 16.6971 19.4123 16.6971C19.9851 16.2269 19.942 16.4434 20.3783 16.2269C20.1757 16.0413 20.6431 16.0014 20.7834 15.4999C21.5671 14.2621 21.5671 13.9143 21.915 13.2186C21.915 12.8707 21.915 12.8707 21.915 12.5229C22.0864 11.2236 21.5519 8.8126 20.5236 8.34857ZM15.408 16.2269C14.3797 16.0877 13.5072 15.4999 12.6191 15.0204C9.56523 11.5092 14.0057 5.61598 18.0879 8.1527C18.1346 8.24551 18.2713 8.1527 18.535 8.50846C19.1893 8.89516 18.976 8.92054 19.0695 9.04428C19.163 9.15256 19.3344 9.4984 19.4123 9.60667C19.8174 10.148 20.1757 10.4357 20.3783 11.2927C20.3004 13.9841 18.5865 16.66 15.408 16.2269Z" fill="black"/>
<path d="M28.3742 8.51899C28.3582 8.53503 28.3263 8.55107 28.3263 8.58315C28.2784 8.69542 28.1986 8.74354 28.0868 8.75958C28.023 8.75958 27.991 8.79166 27.9431 8.85582C27.8793 8.95206 27.7516 9.00017 27.6398 9.01621C27.3524 9.06433 27.065 9.11245 26.7777 9.17661C26.2987 9.27285 25.8357 9.35304 25.3567 9.44928C25.229 9.48136 25.0853 9.4974 24.9576 9.51344C24.8777 9.52948 24.8458 9.48136 24.8299 9.4172C24.8139 9.32096 24.782 9.22473 24.766 9.12849C24.766 9.08037 24.766 9.01621 24.7979 8.9681C24.8937 8.85582 24.9256 8.71146 25.0693 8.64731C25.1811 8.59919 25.2769 8.53503 25.3887 8.48691C26.0432 8.18216 26.7298 7.95761 27.4482 7.84533C27.6238 7.81325 27.7994 7.79721 27.991 7.79721C28.0389 7.79721 28.0868 7.82929 28.1188 7.86137C28.1986 7.94157 28.2784 8.0378 28.3103 8.16612C28.3263 8.23028 28.3582 8.29444 28.3902 8.35859C28.3742 8.39067 28.3742 8.45483 28.3742 8.51899Z" fill="black"/>
<path d="M21.988 2.11922C22.2434 2.3117 22.3233 2.56833 22.2434 2.87308C22.0678 3.51466 21.8762 4.15624 21.7006 4.79782C21.6687 4.89406 21.6208 4.9903 21.4931 4.9903C21.4611 4.9903 21.4292 5.00634 21.4132 5.02238C21.2855 5.16673 21.1259 5.13465 20.9502 5.15069C20.9183 4.94218 20.8385 4.76574 20.8864 4.55723C21.0141 4.01189 21.1259 3.4505 21.2376 2.90516C21.2536 2.85704 21.2536 2.80892 21.2536 2.7608C21.2536 2.55229 21.3334 2.39189 21.4611 2.24754C21.525 2.16734 21.6367 2.13526 21.7485 2.11922C21.8124 2.11922 21.8922 2.10318 21.9561 2.08714C21.9561 2.11922 21.972 2.11922 21.988 2.11922Z" fill="black"/>
<path d="M23.4728 7.09147C23.4409 6.96316 23.393 6.86692 23.393 6.75464C23.393 6.69049 23.4249 6.61029 23.4568 6.54613C23.6165 6.33762 23.7761 6.11306 23.9358 5.92059C24.3669 5.40732 24.8778 4.97426 25.3887 4.54119C25.6282 4.33268 25.8676 4.12416 26.1231 3.93169C26.1869 3.86753 26.2668 3.83545 26.3466 3.77129C26.5382 3.62694 26.7617 3.62694 26.9852 3.64298C27.113 3.65902 27.1768 3.78733 27.2247 3.89961C27.2566 3.94773 27.2566 4.01189 27.2886 4.06C27.3844 4.25248 27.3844 4.38079 27.1449 4.55723C26.2348 5.26297 25.2929 5.92059 24.4148 6.67445C24.2391 6.83484 24.0156 6.93108 23.8081 7.04336C23.7123 7.0594 23.5846 7.05939 23.4728 7.09147Z" fill="black"/>
</mask>
<g mask="url(#mask0_251_9535)">
<rect x="2" y="2" width="28" height="28" fill="#75A37D"/>
</g>
</svg>
